<svg width="210" height="110" viewBox="0 0 210 110" fill="none" xmlns="http://www.w3.org/2000/svg">
<g clip-path="url(#clip0_452_333)">
<g opacity="0.2">
<path d="M205.363 39.7769H4.11754C1.83819 39.7769 0 38.3301 0 36.536V35.8994C0 34.1054 1.83819 32.6586 4.11754 32.6586H205.363C207.642 32.6586 209.48 34.1054 209.48 35.8994V36.536C209.48 38.3301 207.642 39.7769 205.363 39.7769Z" fill="white"/>
<path d="M205.363 39.2769H4.11754C1.99617 39.2769 0.5 37.949 0.5 36.536V35.8994C0.5 34.4864 1.99617 33.1586 4.11754 33.1586H205.363C207.484 33.1586 208.98 34.4864 208.98 35.8994V36.536C208.98 37.949 207.484 39.2769 205.363 39.2769Z" stroke="#DCDCDC" stroke-opacity="0.52"/>
</g>
<g opacity="0.2">
<path d="M171.479 50.4873H38.0015C36.4897 50.4873 35.2705 49.0405 35.2705 47.2465V46.6099C35.2705 44.8158 36.4897 43.369 38.0015 43.369H171.479C172.991 43.369 174.21 44.8158 174.21 46.6099V47.2465C174.21 49.0405 172.991 50.4873 171.479 50.4873Z" fill="white"/>
<path d="M171.479 49.9873H38.0015C36.8426 49.9873 35.7705 48.848 35.7705 47.2465V46.6099C35.7705 45.0083 36.8426 43.869 38.0015 43.869H171.479C172.638 43.869 173.71 45.0083 173.71 46.6099V47.2465C173.71 48.848 172.638 49.9873 171.479 49.9873Z" stroke="#DCDCDC" stroke-opacity="0.52"/>
</g>
<circle cx="79.4594" cy="70.3812" r="7.26016" fill="#D9D9D9" fill-opacity="0.5"/>
<rect x="102.127" y="64.7989" width="25.5147" height="4.31588" rx="2.15794" fill="#D9D9D9" fill-opacity="0.5"/>
<rect x="92.4868" y="72.7067" width="44.7939" height="4.31588" rx="2.15794" fill="#D9D9D9" fill-opacity="0.5"/>
<circle cx="101.776" cy="85.7289" r="1.93321" fill="#F9F9F9" fill-opacity="0.5"/>
<circle cx="107.704" cy="85.7289" r="1.43321" stroke="#DCDCDC" stroke-opacity="0.52"/>
</g>
<defs>
<clipPath id="clip0_452_333">
<rect width="209.48" height="108.86" fill="white" transform="translate(0 0.719971)"/>
</clipPath>
</defs>
</svg>
