<svg width="210" height="110" viewBox="0 0 210 110" fill="none" xmlns="http://www.w3.org/2000/svg">
<g clip-path="url(#clip0_452_824)">
<path opacity="0.42" d="M138.06 11.5245H75.2146C74.161 11.5245 73.3113 10.6348 73.3113 9.53164V9.14019C73.3113 8.037 74.161 7.14734 75.2146 7.14734H138.06C139.113 7.14734 139.963 8.037 139.963 9.14019V9.53164C139.997 10.6348 139.113 11.5245 138.06 11.5245Z" fill="white"/>
<path opacity="0.2" d="M157.519 18.5715H51.9613C50.7657 18.5715 49.8015 17.8126 49.8015 16.8716V16.5377C49.8015 15.5967 50.7657 14.8378 51.9613 14.8378H157.519C158.715 14.8378 159.679 15.5967 159.679 16.5377V16.8716C159.679 17.8126 158.715 18.5715 157.519 18.5715Z" fill="white"/>
<path opacity="0.2" d="M139.746 24.1894H69.7342C68.9413 24.1894 68.3018 23.4305 68.3018 22.4895V22.1556C68.3018 21.2146 68.9413 20.4557 69.7342 20.4557H139.746C140.539 20.4557 141.179 21.2146 141.179 22.1556V22.4895C141.179 23.4305 140.539 24.1894 139.746 24.1894Z" fill="white"/>
<path opacity="0.2" d="M62.4883 102.033H3.54913C1.58528 102.033 0 100.438 0 98.4633V36.5944C0 34.6193 1.58528 33.025 3.54913 33.025H62.4883C64.4521 33.025 66.0374 34.6193 66.0374 36.5944V98.4633C66.0374 100.438 64.4521 102.033 62.4883 102.033Z" fill="white"/>
<path opacity="0.42" d="M15.9711 80.8782H50.019C51.2021 80.8782 52.1485 79.9026 52.1485 78.6652C52.1485 78.0703 51.9355 77.4992 51.5096 77.0709L42.9918 68.1713C42.1636 67.3146 40.815 67.3146 39.9868 68.1713L37.2185 71.0744L30.2149 63.7691C29.3868 62.9124 28.0381 62.9124 27.21 63.7691L14.4331 77.1185C13.605 77.9989 13.6287 79.4029 14.4568 80.2595C14.9063 80.6403 15.4269 80.8544 15.9711 80.8782Z" fill="white"/>
<path opacity="0.42" d="M43.6308 63.0791C45.9829 63.0791 47.8897 61.0868 47.8897 58.6292C47.8897 56.1717 45.9829 54.1794 43.6308 54.1794C41.2786 54.1794 39.3718 56.1717 39.3718 58.6292C39.3718 61.0868 41.2786 63.0791 43.6308 63.0791Z" fill="white"/>
<rect x="81.4998" y="35.1608" width="127.98" height="4.05527" rx="2.02763" fill="#C8C8C8" fill-opacity="0.8"/>
<rect x="81.4998" y="42.5913" width="127.98" height="4.05527" rx="2.02763" fill="#C8C8C8" fill-opacity="0.8"/>
<rect x="81.4998" y="50.021" width="127.98" height="4.05527" rx="2.02763" fill="#C8C8C8" fill-opacity="0.8"/>
<rect x="81.4998" y="57.4514" width="59.3496" height="4.05527" rx="2.02763" fill="#C8C8C8" fill-opacity="0.8"/>
<rect x="81.4998" y="70.3422" width="46.7712" height="4.05527" rx="2.02763" fill="#C8C8C8" fill-opacity="0.8"/>
<rect x="81.4998" y="77.7721" width="42.089" height="4.05527" rx="2.02763" fill="#C8C8C8" fill-opacity="0.8"/>
<circle cx="83.6349" cy="92.7983" r="2.13513" fill="#F9F9F9" fill-opacity="0.5"/>
<circle cx="90.1825" cy="92.7983" r="1.63513" stroke="#DCDCDC" stroke-opacity="0.52"/>
<circle cx="96.7301" cy="92.7983" r="1.63513" stroke="#DCDCDC" stroke-opacity="0.52"/>
</g>
<defs>
<clipPath id="clip0_452_824">
<rect width="209.48" height="108.86" fill="white" transform="translate(0 0.159912)"/>
</clipPath>
</defs>
</svg>
