<svg width="210" height="109" viewBox="0 0 210 109" fill="none" xmlns="http://www.w3.org/2000/svg">
<path opacity="0.2" d="M143.207 3.74768H68.2732C67.4244 3.74768 66.74 3.20895 66.74 2.54094V2.3039C66.74 1.63589 67.4244 1.09717 68.2732 1.09717H143.207C144.056 1.09717 144.74 1.63589 144.74 2.3039V2.54094C144.74 3.20895 144.056 3.74768 143.207 3.74768Z" fill="white"/>
<path opacity="0.2" d="M130.59 7.73584H80.8899C80.327 7.73584 79.873 7.19711 79.873 6.5291V6.29206C79.873 5.62405 80.327 5.08533 80.8899 5.08533H130.59C131.153 5.08533 131.607 5.62405 131.607 6.29206V6.5291C131.607 7.19711 131.153 7.73584 130.59 7.73584Z" fill="white"/>
<rect x="9.79443" y="14.1072" width="52.3648" height="45.1291" rx="2" fill="#D3D3D3" fill-opacity="0.27"/>
<rect x="13.7871" y="19.016" width="44.3803" height="2.59677" rx="1.29839" fill="#C8C8C8" fill-opacity="0.8"/>
<rect x="13.7871" y="23.774" width="44.3803" height="2.59677" rx="1.29839" fill="#C8C8C8" fill-opacity="0.8"/>
<rect x="13.7871" y="28.5319" width="44.3803" height="2.59677" rx="1.29839" fill="#C8C8C8" fill-opacity="0.8"/>
<rect x="13.7871" y="33.2898" width="44.3803" height="2.59677" rx="1.29839" fill="#C8C8C8" fill-opacity="0.8"/>
<rect x="13.7871" y="38.0472" width="44.3803" height="2.59677" rx="1.29839" fill="#C8C8C8" fill-opacity="0.8"/>
<rect x="13.7871" y="46.9725" width="29.9505" height="2.59684" rx="1.29842" fill="#C8C8C8" fill-opacity="0.8"/>
<rect x="13.7871" y="51.7306" width="26.9522" height="2.59684" rx="1.29842" fill="#C8C8C8" fill-opacity="0.8"/>
<rect x="78.5581" y="14.0186" width="52.3648" height="45.3061" rx="2" fill="#D3D3D3" fill-opacity="0.27"/>
<rect x="82.55" y="18.7638" width="44.3803" height="2.59677" rx="1.29839" fill="#C8C8C8" fill-opacity="0.8"/>
<rect x="82.55" y="23.5217" width="44.3803" height="2.59677" rx="1.29839" fill="#C8C8C8" fill-opacity="0.8"/>
<rect x="82.55" y="28.2793" width="44.3803" height="2.59677" rx="1.29839" fill="#C8C8C8" fill-opacity="0.8"/>
<rect x="82.55" y="33.0372" width="44.3803" height="2.59677" rx="1.29839" fill="#C8C8C8" fill-opacity="0.8"/>
<rect x="82.55" y="37.7949" width="44.3803" height="2.59677" rx="1.29839" fill="#C8C8C8" fill-opacity="0.8"/>
<rect x="82.55" y="47.2246" width="29.9505" height="2.59684" rx="1.29842" fill="#C8C8C8" fill-opacity="0.8"/>
<rect x="82.55" y="51.9824" width="26.9522" height="2.59684" rx="1.29842" fill="#C8C8C8" fill-opacity="0.8"/>
<rect x="147.321" y="14.0189" width="52.3648" height="45.1291" rx="2" fill="#D3D3D3" fill-opacity="0.27"/>
<rect x="151.313" y="18.6758" width="44.3803" height="2.59677" rx="1.29839" fill="#C8C8C8" fill-opacity="0.8"/>
<rect x="151.313" y="23.4335" width="44.3803" height="2.59677" rx="1.29839" fill="#C8C8C8" fill-opacity="0.8"/>
<rect x="151.313" y="28.1912" width="44.3803" height="2.59677" rx="1.29839" fill="#C8C8C8" fill-opacity="0.8"/>
<rect x="151.313" y="32.9495" width="44.3803" height="2.59677" rx="1.29839" fill="#C8C8C8" fill-opacity="0.8"/>
<rect x="151.313" y="37.7069" width="44.3803" height="2.59677" rx="1.29839" fill="#C8C8C8" fill-opacity="0.8"/>
<rect x="151.313" y="47.1365" width="29.9505" height="2.59684" rx="1.29842" fill="#C8C8C8" fill-opacity="0.8"/>
<rect x="151.313" y="51.8945" width="26.9522" height="2.59684" rx="1.29842" fill="#C8C8C8" fill-opacity="0.8"/>
<rect x="9.79443" y="62.8254" width="52.3648" height="45.1291" rx="2" fill="#D3D3D3" fill-opacity="0.27"/>
<rect x="13.7871" y="67.7344" width="44.3803" height="2.59677" rx="1.29839" fill="#C8C8C8" fill-opacity="0.8"/>
<rect x="13.7871" y="72.4924" width="44.3803" height="2.59677" rx="1.29839" fill="#C8C8C8" fill-opacity="0.8"/>
<rect x="13.7871" y="77.2501" width="44.3803" height="2.59677" rx="1.29839" fill="#C8C8C8" fill-opacity="0.8"/>
<rect x="13.7871" y="82.0082" width="44.3803" height="2.59677" rx="1.29839" fill="#C8C8C8" fill-opacity="0.8"/>
<rect x="13.7871" y="86.7656" width="44.3803" height="2.59677" rx="1.29839" fill="#C8C8C8" fill-opacity="0.8"/>
<rect x="13.7871" y="95.691" width="29.9505" height="2.59684" rx="1.29842" fill="#C8C8C8" fill-opacity="0.8"/>
<rect x="13.7871" y="100.449" width="26.9522" height="2.59684" rx="1.29842" fill="#C8C8C8" fill-opacity="0.8"/>
<rect x="78.5579" y="62.7368" width="52.3648" height="45.3061" rx="2" fill="#D3D3D3" fill-opacity="0.27"/>
<rect x="82.55" y="67.4821" width="44.3803" height="2.59677" rx="1.29839" fill="#C8C8C8" fill-opacity="0.8"/>
<rect x="82.55" y="72.2402" width="44.3803" height="2.59677" rx="1.29839" fill="#C8C8C8" fill-opacity="0.8"/>
<rect x="82.55" y="76.9977" width="44.3803" height="2.59677" rx="1.29839" fill="#C8C8C8" fill-opacity="0.8"/>
<rect x="82.55" y="81.7556" width="44.3803" height="2.59677" rx="1.29839" fill="#C8C8C8" fill-opacity="0.8"/>
<rect x="82.55" y="86.5131" width="44.3803" height="2.59677" rx="1.29839" fill="#C8C8C8" fill-opacity="0.8"/>
<rect x="82.55" y="95.9427" width="29.9505" height="2.59684" rx="1.29842" fill="#C8C8C8" fill-opacity="0.8"/>
<rect x="82.55" y="100.701" width="26.9522" height="2.59684" rx="1.29842" fill="#C8C8C8" fill-opacity="0.8"/>
<rect x="147.321" y="62.7372" width="52.3648" height="45.1291" rx="2" fill="#D3D3D3" fill-opacity="0.27"/>
<rect x="151.313" y="67.3943" width="44.3803" height="2.59677" rx="1.29839" fill="#C8C8C8" fill-opacity="0.8"/>
<rect x="151.313" y="72.152" width="44.3803" height="2.59677" rx="1.29839" fill="#C8C8C8" fill-opacity="0.8"/>
<rect x="151.313" y="76.9097" width="44.3803" height="2.59677" rx="1.29839" fill="#C8C8C8" fill-opacity="0.8"/>
<rect x="151.313" y="81.6678" width="44.3803" height="2.59677" rx="1.29839" fill="#C8C8C8" fill-opacity="0.8"/>
<rect x="151.313" y="86.4252" width="44.3803" height="2.59677" rx="1.29839" fill="#C8C8C8" fill-opacity="0.8"/>
<rect x="151.313" y="95.855" width="29.9505" height="2.59684" rx="1.29842" fill="#C8C8C8" fill-opacity="0.8"/>
<rect x="151.313" y="100.613" width="26.9522" height="2.59684" rx="1.29842" fill="#C8C8C8" fill-opacity="0.8"/>
</svg>
