<svg width="210" height="110" viewBox="0 0 210 110" fill="none" xmlns="http://www.w3.org/2000/svg">
<rect width="209.48" height="108.86" transform="translate(0 0.299927)" fill="white" fill-opacity="0.1"/>
<rect x="5.11157" y="38.1642" width="54.9475" height="47.355" rx="2" fill="#D3D3D3" fill-opacity="0.27"/>
<rect x="9.30103" y="43.3152" width="46.5692" height="2.72485" rx="1.36242" fill="#C8C8C8" fill-opacity="0.8"/>
<rect x="9.30103" y="48.308" width="46.5692" height="2.72485" rx="1.36242" fill="#C8C8C8" fill-opacity="0.8"/>
<rect x="9.30103" y="53.3004" width="46.5692" height="2.72485" rx="1.36242" fill="#C8C8C8" fill-opacity="0.8"/>
<rect x="9.30103" y="58.2932" width="46.5692" height="2.72485" rx="1.36242" fill="#C8C8C8" fill-opacity="0.8"/>
<rect x="9.30103" y="63.2853" width="46.5692" height="2.72485" rx="1.36242" fill="#C8C8C8" fill-opacity="0.8"/>
<rect x="9.30103" y="72.6509" width="31.4269" height="2.72485" rx="1.36242" fill="#C8C8C8" fill-opacity="0.8"/>
<rect x="9.30103" y="77.6432" width="28.2808" height="2.72485" rx="1.36242" fill="#C8C8C8" fill-opacity="0.8"/>
<rect x="77.2666" y="38.0713" width="54.9475" height="47.5407" rx="2" fill="#D3D3D3" fill-opacity="0.27"/>
<rect x="81.4556" y="43.0505" width="46.5692" height="2.72485" rx="1.36242" fill="#C8C8C8" fill-opacity="0.8"/>
<rect x="81.4556" y="48.0432" width="46.5692" height="2.72485" rx="1.36242" fill="#C8C8C8" fill-opacity="0.8"/>
<rect x="81.4556" y="53.0355" width="46.5692" height="2.72485" rx="1.36242" fill="#C8C8C8" fill-opacity="0.8"/>
<rect x="81.4556" y="58.0282" width="46.5692" height="2.72485" rx="1.36242" fill="#C8C8C8" fill-opacity="0.8"/>
<rect x="81.4556" y="63.0204" width="46.5692" height="2.72485" rx="1.36242" fill="#C8C8C8" fill-opacity="0.8"/>
<rect x="81.4556" y="72.9152" width="31.4269" height="2.72485" rx="1.36242" fill="#C8C8C8" fill-opacity="0.8"/>
<rect x="81.4556" y="77.9076" width="28.2808" height="2.72485" rx="1.36242" fill="#C8C8C8" fill-opacity="0.8"/>
<rect x="149.421" y="38.0718" width="54.9475" height="47.355" rx="2" fill="#D3D3D3" fill-opacity="0.27"/>
<rect x="153.61" y="42.9583" width="46.5692" height="2.72485" rx="1.36242" fill="#C8C8C8" fill-opacity="0.8"/>
<rect x="153.61" y="47.9507" width="46.5692" height="2.72485" rx="1.36242" fill="#C8C8C8" fill-opacity="0.8"/>
<rect x="153.61" y="52.9431" width="46.5692" height="2.72485" rx="1.36242" fill="#C8C8C8" fill-opacity="0.8"/>
<rect x="153.61" y="57.9359" width="46.5692" height="2.72485" rx="1.36242" fill="#C8C8C8" fill-opacity="0.8"/>
<rect x="153.61" y="62.928" width="46.5692" height="2.72485" rx="1.36242" fill="#C8C8C8" fill-opacity="0.8"/>
<rect x="153.61" y="72.8228" width="31.4269" height="2.72485" rx="1.36242" fill="#C8C8C8" fill-opacity="0.8"/>
<rect x="153.61" y="77.8152" width="28.2808" height="2.72485" rx="1.36242" fill="#C8C8C8" fill-opacity="0.8"/>
<path opacity="0.42" d="M133.72 27.885H75.7591C74.7873 27.885 74.0037 27.0645 74.0037 26.047V25.686C74.0037 24.6686 74.7873 23.848 75.7591 23.848H133.72C134.692 23.848 135.476 24.6686 135.476 25.686V26.047C135.507 27.0645 134.692 27.885 133.72 27.885Z" fill="white"/>
</svg>
