<svg width="210" height="109" viewBox="0 0 210 109" fill="none" xmlns="http://www.w3.org/2000/svg">
<g clip-path="url(#clip0_440_1025)">
<path opacity="0.42" d="M133.191 16.7411H76.2888C75.3348 16.7411 74.5654 15.9355 74.5654 14.9367V14.5822C74.5654 13.5834 75.3348 12.7778 76.2888 12.7778H133.191C134.145 12.7778 134.914 13.5834 134.914 14.5822V14.9367C134.945 15.9355 134.145 16.7411 133.191 16.7411Z" fill="white"/>
<path opacity="0.2" d="M182.059 24.7572H27.4213C25.6698 24.7572 24.2573 23.9516 24.2573 22.9528V22.5983C24.2573 21.5995 25.6698 20.7939 27.4213 20.7939H182.059C183.811 20.7939 185.223 21.5995 185.223 22.5983V22.9528C185.223 23.9516 183.811 24.7572 182.059 24.7572Z" fill="white"/>
<circle cx="8.02164" cy="77.7367" r="4.09611" fill="#C8C8C8" fill-opacity="0.8"/>
<rect x="0.000244141" y="38.9424" width="63.0717" height="49.4085" rx="2" stroke="#E1E1E1" stroke-opacity="0.49" stroke-width="0.5"/>
<rect x="4.146" y="45.8096" width="54.78" height="2.43497" rx="1.21749" fill="#C8C8C8" fill-opacity="0.8"/>
<rect x="4.146" y="50.2711" width="54.78" height="2.43497" rx="1.21749" fill="#C8C8C8" fill-opacity="0.8"/>
<rect x="4.146" y="54.7325" width="54.78" height="2.43497" rx="1.21749" fill="#C8C8C8" fill-opacity="0.8"/>
<rect x="4.146" y="59.194" width="54.78" height="2.43497" rx="1.21749" fill="#C8C8C8" fill-opacity="0.8"/>
<rect x="4.146" y="63.6554" width="54.78" height="2.43497" rx="1.21749" fill="#C8C8C8" fill-opacity="0.8"/>
<rect x="15.3713" y="74.5874" width="28.0836" height="2.43497" rx="1.21749" fill="#C8C8C8" fill-opacity="0.8"/>
<rect x="15.3713" y="79.0488" width="25.2723" height="2.43497" rx="1.21749" fill="#C8C8C8" fill-opacity="0.8"/>
<circle cx="81.2257" cy="77.7367" r="4.09611" fill="#C8C8C8" fill-opacity="0.8"/>
<rect x="73.2043" y="38.9424" width="63.0717" height="49.4085" rx="2" stroke="#E1E1E1" stroke-opacity="0.49" stroke-width="0.5"/>
<rect x="77.3503" y="45.8096" width="54.78" height="2.43497" rx="1.21749" fill="#C8C8C8" fill-opacity="0.8"/>
<rect x="77.3503" y="50.2711" width="54.78" height="2.43497" rx="1.21749" fill="#C8C8C8" fill-opacity="0.8"/>
<rect x="77.3503" y="54.7325" width="54.78" height="2.43497" rx="1.21749" fill="#C8C8C8" fill-opacity="0.8"/>
<rect x="77.3503" y="59.194" width="54.78" height="2.43497" rx="1.21749" fill="#C8C8C8" fill-opacity="0.8"/>
<rect x="77.3503" y="63.6554" width="54.78" height="2.43497" rx="1.21749" fill="#C8C8C8" fill-opacity="0.8"/>
<rect x="88.5757" y="74.5874" width="28.0836" height="2.43497" rx="1.21749" fill="#C8C8C8" fill-opacity="0.8"/>
<rect x="88.5757" y="79.0488" width="25.2723" height="2.43497" rx="1.21749" fill="#C8C8C8" fill-opacity="0.8"/>
<circle cx="154.43" cy="77.7455" r="4.09611" fill="#C8C8C8" fill-opacity="0.8"/>
<rect x="146.408" y="38.9512" width="63.0717" height="49.4085" rx="2" stroke="#E1E1E1" stroke-opacity="0.49" stroke-width="0.5"/>
<rect x="150.554" y="45.8184" width="54.78" height="2.43497" rx="1.21749" fill="#C8C8C8" fill-opacity="0.8"/>
<rect x="150.554" y="50.2798" width="54.78" height="2.43497" rx="1.21749" fill="#C8C8C8" fill-opacity="0.8"/>
<rect x="150.554" y="54.7413" width="54.78" height="2.43497" rx="1.21749" fill="#C8C8C8" fill-opacity="0.8"/>
<rect x="150.554" y="59.2027" width="54.78" height="2.43497" rx="1.21749" fill="#C8C8C8" fill-opacity="0.8"/>
<rect x="150.554" y="63.6641" width="54.78" height="2.43497" rx="1.21749" fill="#C8C8C8" fill-opacity="0.8"/>
<rect x="161.78" y="74.5961" width="28.0836" height="2.43497" rx="1.21749" fill="#C8C8C8" fill-opacity="0.8"/>
<rect x="161.78" y="79.0576" width="25.2723" height="2.43497" rx="1.21749" fill="#C8C8C8" fill-opacity="0.8"/>
<circle cx="102.671" cy="94.149" r="1.93321" fill="#AAAAAA"/>
<circle cx="108.599" cy="94.149" r="1.43321" stroke="#AAAAAA"/>
</g>
<defs>
<clipPath id="clip0_440_1025">
<rect width="209.48" height="108.86" fill="white"/>
</clipPath>
</defs>
</svg>
