<svg width="210" height="110" viewBox="0 0 210 110" fill="none" xmlns="http://www.w3.org/2000/svg">
<g clip-path="url(#clip0_452_238)">
<path opacity="0.42" d="M133.19 5.60104H76.2885C75.3345 5.60104 74.5652 4.7955 74.5652 3.79664V3.44221C74.5652 2.44335 75.3345 1.63782 76.2885 1.63782H133.19C134.144 1.63782 134.914 2.44335 134.914 3.44221V3.79664C134.944 4.7955 134.144 5.60104 133.19 5.60104Z" fill="white"/>
<path opacity="0.2" d="M150.809 11.9816H55.2341C54.1516 11.9816 53.2786 11.2945 53.2786 10.4425V10.1402C53.2786 9.28813 54.1516 8.60101 55.2341 8.60101H150.809C151.892 8.60101 152.765 9.28813 152.765 10.1402V10.4425C152.765 11.2945 151.892 11.9816 150.809 11.9816Z" fill="white"/>
<path opacity="0.2" d="M134.717 17.0682H71.3263C70.6083 17.0682 70.0293 16.3811 70.0293 15.5291V15.2268C70.0293 14.3747 70.6083 13.6876 71.3263 13.6876H134.717C135.435 13.6876 136.014 14.3747 136.014 15.2268V15.5291C136.014 16.3811 135.435 17.0682 134.717 17.0682Z" fill="white"/>
<rect x="16.5728" y="21.717" width="53.0921" height="41.5908" rx="2" stroke="#E1E1E1" stroke-opacity="0.49" stroke-width="0.5"/>
<circle cx="23.325" cy="54.373" r="3.448" fill="#C8C8C8" fill-opacity="0.8"/>
<rect x="20.0623" y="27.4976" width="46.1124" height="2.0497" rx="1.02485" fill="#C8C8C8" fill-opacity="0.8"/>
<rect x="20.0623" y="31.2532" width="46.1124" height="2.0497" rx="1.02485" fill="#C8C8C8" fill-opacity="0.8"/>
<rect x="20.0623" y="35.0087" width="46.1124" height="2.0497" rx="1.02485" fill="#C8C8C8" fill-opacity="0.8"/>
<rect x="20.0623" y="38.7643" width="46.1124" height="2.0497" rx="1.02485" fill="#C8C8C8" fill-opacity="0.8"/>
<rect x="20.0623" y="42.5197" width="46.1124" height="2.0497" rx="1.02485" fill="#C8C8C8" fill-opacity="0.8"/>
<rect x="29.512" y="51.7219" width="23.6401" height="2.0497" rx="1.02485" fill="#C8C8C8" fill-opacity="0.8"/>
<rect x="29.512" y="55.4775" width="21.2735" height="2.0497" rx="1.02485" fill="#C8C8C8" fill-opacity="0.8"/>
<circle cx="84.9463" cy="54.373" r="3.448" fill="#C8C8C8" fill-opacity="0.8"/>
<rect x="78.1938" y="21.717" width="53.0921" height="41.5908" rx="2" stroke="#E1E1E1" stroke-opacity="0.49" stroke-width="0.5"/>
<rect x="81.6841" y="27.4976" width="46.1124" height="2.0497" rx="1.02485" fill="#C8C8C8" fill-opacity="0.8"/>
<rect x="81.6841" y="31.2532" width="46.1124" height="2.0497" rx="1.02485" fill="#C8C8C8" fill-opacity="0.8"/>
<rect x="81.6841" y="35.0087" width="46.1124" height="2.0497" rx="1.02485" fill="#C8C8C8" fill-opacity="0.8"/>
<rect x="81.6841" y="38.7643" width="46.1124" height="2.0497" rx="1.02485" fill="#C8C8C8" fill-opacity="0.8"/>
<rect x="81.6841" y="42.5197" width="46.1124" height="2.0497" rx="1.02485" fill="#C8C8C8" fill-opacity="0.8"/>
<rect x="91.1333" y="51.7219" width="23.6401" height="2.0497" rx="1.02485" fill="#C8C8C8" fill-opacity="0.8"/>
<rect x="91.1333" y="55.4775" width="21.2735" height="2.0497" rx="1.02485" fill="#C8C8C8" fill-opacity="0.8"/>
<circle cx="146.567" cy="54.3804" r="3.448" fill="#C8C8C8" fill-opacity="0.8"/>
<rect x="139.815" y="21.7243" width="53.0921" height="41.5908" rx="2" stroke="#E1E1E1" stroke-opacity="0.49" stroke-width="0.5"/>
<rect x="143.305" y="27.5049" width="46.1124" height="2.0497" rx="1.02485" fill="#C8C8C8" fill-opacity="0.8"/>
<rect x="143.305" y="31.2604" width="46.1124" height="2.0497" rx="1.02485" fill="#C8C8C8" fill-opacity="0.8"/>
<rect x="143.305" y="35.0159" width="46.1124" height="2.0497" rx="1.02485" fill="#C8C8C8" fill-opacity="0.8"/>
<rect x="143.305" y="38.7715" width="46.1124" height="2.0497" rx="1.02485" fill="#C8C8C8" fill-opacity="0.8"/>
<rect x="143.305" y="42.527" width="46.1124" height="2.0497" rx="1.02485" fill="#C8C8C8" fill-opacity="0.8"/>
<rect x="152.754" y="51.7294" width="23.6401" height="2.0497" rx="1.02485" fill="#C8C8C8" fill-opacity="0.8"/>
<rect x="152.754" y="55.4849" width="21.2735" height="2.0497" rx="1.02485" fill="#C8C8C8" fill-opacity="0.8"/>
<circle cx="23.325" cy="99.9745" r="3.448" fill="#C8C8C8" fill-opacity="0.8"/>
<rect x="16.5728" y="67.3185" width="53.0921" height="41.5908" rx="2" stroke="#E1E1E1" stroke-opacity="0.49" stroke-width="0.5"/>
<rect x="20.0623" y="73.0991" width="46.1124" height="2.0497" rx="1.02485" fill="#C8C8C8" fill-opacity="0.8"/>
<rect x="20.0623" y="76.8547" width="46.1124" height="2.0497" rx="1.02485" fill="#C8C8C8" fill-opacity="0.8"/>
<rect x="20.0623" y="80.6102" width="46.1124" height="2.0497" rx="1.02485" fill="#C8C8C8" fill-opacity="0.8"/>
<rect x="20.0623" y="84.3657" width="46.1124" height="2.0497" rx="1.02485" fill="#C8C8C8" fill-opacity="0.8"/>
<rect x="20.0623" y="88.1212" width="46.1124" height="2.0497" rx="1.02485" fill="#C8C8C8" fill-opacity="0.8"/>
<rect x="29.512" y="97.3234" width="23.6401" height="2.0497" rx="1.02485" fill="#C8C8C8" fill-opacity="0.8"/>
<rect x="29.512" y="101.079" width="21.2735" height="2.0497" rx="1.02485" fill="#C8C8C8" fill-opacity="0.8"/>
<rect x="78.1938" y="67.3185" width="53.0921" height="41.5908" rx="2" stroke="#E1E1E1" stroke-opacity="0.49" stroke-width="0.5"/>
<rect x="81.6841" y="73.0991" width="46.1124" height="2.0497" rx="1.02485" fill="#C8C8C8" fill-opacity="0.8"/>
<rect x="81.6841" y="76.8547" width="46.1124" height="2.0497" rx="1.02485" fill="#C8C8C8" fill-opacity="0.8"/>
<rect x="81.6841" y="80.6102" width="46.1124" height="2.0497" rx="1.02485" fill="#C8C8C8" fill-opacity="0.8"/>
<rect x="81.6841" y="84.3657" width="46.1124" height="2.0497" rx="1.02485" fill="#C8C8C8" fill-opacity="0.8"/>
<rect x="81.6841" y="88.1212" width="46.1124" height="2.0497" rx="1.02485" fill="#C8C8C8" fill-opacity="0.8"/>
<circle cx="84.9463" cy="99.9745" r="3.448" fill="#C8C8C8" fill-opacity="0.8"/>
<rect x="91.1333" y="97.3234" width="23.6401" height="2.0497" rx="1.02485" fill="#C8C8C8" fill-opacity="0.8"/>
<rect x="91.1333" y="101.079" width="21.2735" height="2.0497" rx="1.02485" fill="#C8C8C8" fill-opacity="0.8"/>
<circle cx="146.567" cy="99.9819" r="3.448" fill="#C8C8C8" fill-opacity="0.8"/>
<rect x="139.815" y="67.3257" width="53.0921" height="41.5908" rx="2" stroke="#E1E1E1" stroke-opacity="0.49" stroke-width="0.5"/>
<rect x="143.305" y="73.1064" width="46.1124" height="2.0497" rx="1.02485" fill="#C8C8C8" fill-opacity="0.8"/>
<rect x="143.305" y="76.8619" width="46.1124" height="2.0497" rx="1.02485" fill="#C8C8C8" fill-opacity="0.8"/>
<rect x="143.305" y="80.6175" width="46.1124" height="2.0497" rx="1.02485" fill="#C8C8C8" fill-opacity="0.8"/>
<rect x="143.305" y="84.373" width="46.1124" height="2.0497" rx="1.02485" fill="#C8C8C8" fill-opacity="0.8"/>
<rect x="143.305" y="88.1285" width="46.1124" height="2.0497" rx="1.02485" fill="#C8C8C8" fill-opacity="0.8"/>
<rect x="152.754" y="97.3308" width="23.6401" height="2.0497" rx="1.02485" fill="#C8C8C8" fill-opacity="0.8"/>
<rect x="152.754" y="101.086" width="21.2735" height="2.0497" rx="1.02485" fill="#C8C8C8" fill-opacity="0.8"/>
</g>
<defs>
<clipPath id="clip0_452_238">
<rect width="209.48" height="108.86" fill="white" transform="translate(0 0.859985)"/>
</clipPath>
</defs>
</svg>
