<svg width="210" height="110" viewBox="0 0 210 110" fill="none" xmlns="http://www.w3.org/2000/svg">
<g clip-path="url(#clip0_452_447)">
<rect x="9.25488" y="61.777" width="39.1915" height="33.7761" rx="2" fill="#D3D3D3" fill-opacity="0.27"/>
<rect x="12.2427" y="65.4509" width="33.2156" height="1.94351" rx="0.971754" fill="#C8C8C8" fill-opacity="0.8"/>
<rect x="12.2427" y="69.012" width="33.2156" height="1.94351" rx="0.971754" fill="#C8C8C8" fill-opacity="0.8"/>
<rect x="12.2427" y="72.5729" width="33.2156" height="1.94351" rx="0.971754" fill="#C8C8C8" fill-opacity="0.8"/>
<rect x="12.2427" y="76.1339" width="33.2156" height="1.94351" rx="0.971754" fill="#C8C8C8" fill-opacity="0.8"/>
<rect x="12.2427" y="79.6946" width="33.2156" height="1.94351" rx="0.971754" fill="#C8C8C8" fill-opacity="0.8"/>
<rect x="12.2427" y="86.3746" width="22.4153" height="1.94351" rx="0.971754" fill="#C8C8C8" fill-opacity="0.8"/>
<rect x="12.2427" y="89.9355" width="20.1714" height="1.94351" rx="0.971754" fill="#C8C8C8" fill-opacity="0.8"/>
<rect x="60.7197" y="61.7107" width="39.1915" height="33.9086" rx="2" fill="#D3D3D3" fill-opacity="0.27"/>
<rect x="63.7075" y="65.2622" width="33.2156" height="1.94351" rx="0.971754" fill="#C8C8C8" fill-opacity="0.8"/>
<rect x="63.7075" y="68.8232" width="33.2156" height="1.94351" rx="0.971754" fill="#C8C8C8" fill-opacity="0.8"/>
<rect x="63.7075" y="72.384" width="33.2156" height="1.94351" rx="0.971754" fill="#C8C8C8" fill-opacity="0.8"/>
<rect x="63.7075" y="75.9451" width="33.2156" height="1.94351" rx="0.971754" fill="#C8C8C8" fill-opacity="0.8"/>
<rect x="63.7075" y="79.5059" width="33.2156" height="1.94351" rx="0.971754" fill="#C8C8C8" fill-opacity="0.8"/>
<rect x="63.7075" y="86.5632" width="22.4153" height="1.94351" rx="0.971754" fill="#C8C8C8" fill-opacity="0.8"/>
<rect x="63.7075" y="90.1241" width="20.1714" height="1.94351" rx="0.971754" fill="#C8C8C8" fill-opacity="0.8"/>
<rect x="112.184" y="61.7109" width="39.1915" height="33.7761" rx="2" fill="#D3D3D3" fill-opacity="0.27"/>
<rect x="115.172" y="65.1962" width="33.2156" height="1.94351" rx="0.971754" fill="#C8C8C8" fill-opacity="0.8"/>
<rect x="115.172" y="68.7572" width="33.2156" height="1.94351" rx="0.971754" fill="#C8C8C8" fill-opacity="0.8"/>
<rect x="115.172" y="72.318" width="33.2156" height="1.94351" rx="0.971754" fill="#C8C8C8" fill-opacity="0.8"/>
<rect x="115.172" y="75.8792" width="33.2156" height="1.94351" rx="0.971754" fill="#C8C8C8" fill-opacity="0.8"/>
<rect x="115.172" y="79.4398" width="33.2156" height="1.94351" rx="0.971754" fill="#C8C8C8" fill-opacity="0.8"/>
<rect x="115.172" y="86.4972" width="22.4153" height="1.94351" rx="0.971754" fill="#C8C8C8" fill-opacity="0.8"/>
<rect x="115.172" y="90.0581" width="20.1714" height="1.94351" rx="0.971754" fill="#C8C8C8" fill-opacity="0.8"/>
<rect x="163.649" y="61.6447" width="39.1915" height="34.041" rx="2" fill="#D3D3D3" fill-opacity="0.27"/>
<rect x="166.637" y="65.2623" width="33.2156" height="1.94351" rx="0.971754" fill="#C8C8C8" fill-opacity="0.8"/>
<rect x="166.637" y="68.8234" width="33.2156" height="1.94351" rx="0.971754" fill="#C8C8C8" fill-opacity="0.8"/>
<rect x="166.637" y="72.3842" width="33.2156" height="1.94351" rx="0.971754" fill="#C8C8C8" fill-opacity="0.8"/>
<rect x="166.637" y="75.9452" width="33.2156" height="1.94351" rx="0.971754" fill="#C8C8C8" fill-opacity="0.8"/>
<rect x="166.637" y="79.506" width="33.2156" height="1.94351" rx="0.971754" fill="#C8C8C8" fill-opacity="0.8"/>
<rect x="166.637" y="86.5634" width="22.4153" height="1.94351" rx="0.971754" fill="#C8C8C8" fill-opacity="0.8"/>
<rect x="166.637" y="90.1243" width="20.1714" height="1.94351" rx="0.971754" fill="#C8C8C8" fill-opacity="0.8"/>
<path opacity="0.42" d="M61.3655 18.623H2.46519C1.10053 18.623 0 17.7853 0 16.7467V16.2106C0 15.172 1.10053 14.3344 2.46519 14.3344H61.3215C62.6861 14.3344 63.7867 15.172 63.7867 16.2106V16.7132C63.8307 17.7518 62.7302 18.623 61.3655 18.623Z" fill="#D9D9D9"/>
<path opacity="0.42" d="M43.7434 24.4607H1.75727C0.784494 24.4607 0 23.6231 0 22.5845V22.0484C0 21.0097 0.784494 20.1721 1.75727 20.1721H43.712C44.6848 20.1721 45.4693 21.0097 45.4693 22.0484V22.551C45.5006 23.5896 44.7162 24.4607 43.7434 24.4607Z" fill="#D9D9D9"/>
<path opacity="0.2" d="M75.7939 34.0489H1.51913C0.678185 34.0489 0 33.4081 0 32.6135V32.3316C0 31.537 0.678185 30.8962 1.51913 30.8962H75.7668C76.6078 30.8962 77.2859 31.537 77.2859 32.3316V32.6135C77.3131 33.4081 76.6349 34.0489 75.7939 34.0489ZM75.7939 40.6873H1.51913C0.678185 40.6873 0 40.0465 0 39.252V38.97C0 38.1755 0.678185 37.5347 1.51913 37.5347H75.7668C76.6078 37.5347 77.2859 38.1755 77.2859 38.97V39.252C77.3131 40.0465 76.6349 40.6873 75.7939 40.6873ZM61.0366 47.3258H1.51913C0.678185 47.3258 0 46.685 0 45.8904V45.6085C0 44.8139 0.678185 44.1731 1.51913 44.1731H61.0366C61.8776 44.1731 62.5558 44.8139 62.5558 45.6085V45.8904C62.5558 46.685 61.8776 47.3258 61.0366 47.3258Z" fill="white"/>
<rect x="105.997" y="14.3344" width="10.0708" height="10.015" rx="5.00748" fill="#C8C8C8" fill-opacity="0.5"/>
<path opacity="0.42" d="M119.075 29.8972H103.002C102.629 29.8972 102.329 29.2132 102.329 28.365V27.9272C102.329 27.0789 102.629 26.3949 103.002 26.3949H119.063C119.436 26.3949 119.736 27.0789 119.736 27.9272V28.3376C119.748 29.1858 119.448 29.8972 119.075 29.8972Z" fill="#D9D9D9"/>
<path opacity="0.42" d="M123.934 35.4451H98.1497C97.5523 35.4451 97.0706 34.761 97.0706 33.9128V33.475C97.0706 32.6268 97.5523 31.9427 98.1497 31.9427H123.915C124.512 31.9427 124.994 32.6268 124.994 33.475V33.8855C125.013 34.7337 124.531 35.4451 123.934 35.4451Z" fill="#D9D9D9"/>
<rect x="148.24" y="14.3344" width="10.0708" height="10.015" rx="5.00748" fill="#C8C8C8" fill-opacity="0.5"/>
<path opacity="0.42" d="M161.318 29.8972H145.245C144.872 29.8972 144.572 29.2132 144.572 28.365V27.9272C144.572 27.0789 144.872 26.3949 145.245 26.3949H161.306C161.679 26.3949 161.979 27.0789 161.979 27.9272V28.3376C161.991 29.1858 161.691 29.8972 161.318 29.8972Z" fill="#D9D9D9"/>
<path opacity="0.42" d="M166.177 35.4451H140.393C139.795 35.4451 139.313 34.761 139.313 33.9128V33.475C139.313 32.6268 139.795 31.9427 140.393 31.9427H166.158C166.755 31.9427 167.237 32.6268 167.237 33.475V33.8855C167.256 34.7337 166.774 35.4451 166.177 35.4451Z" fill="#D9D9D9"/>
<rect x="190.483" y="14.3344" width="10.0708" height="10.015" rx="5.00748" fill="#C8C8C8" fill-opacity="0.5"/>
<path opacity="0.42" d="M203.561 29.8972H187.487C187.115 29.8972 186.814 29.2132 186.814 28.365V27.9272C186.814 27.0789 187.115 26.3949 187.487 26.3949H203.549C203.921 26.3949 204.222 27.0789 204.222 27.9272V28.3376C204.234 29.1858 203.933 29.8972 203.561 29.8972Z" fill="#D9D9D9"/>
<path opacity="0.42" d="M208.42 35.4451H182.636C182.038 35.4451 181.556 34.761 181.556 33.9128V33.475C181.556 32.6268 182.038 31.9427 182.636 31.9427H208.401C208.998 31.9427 209.48 32.6268 209.48 33.475V33.8855C209.499 34.7337 209.017 35.4451 208.42 35.4451Z" fill="#D9D9D9"/>
</g>
<defs>
<clipPath id="clip0_452_447">
<rect width="209.48" height="108.86" fill="white" transform="translate(0 0.579956)"/>
</clipPath>
</defs>
</svg>
