<svg width="210" height="110" viewBox="0 0 210 110" fill="none" xmlns="http://www.w3.org/2000/svg">
<rect width="209.48" height="108.86" transform="translate(0 0.439941)" fill="white" fill-opacity="0.1"/>
<g opacity="0.2">
<path d="M164.847 33.9636H44.6334C43.2719 33.9636 42.1738 32.8263 42.1738 31.4161V30.9157C42.1738 29.5054 43.2719 28.3682 44.6334 28.3682H164.847C166.208 28.3682 167.306 29.5054 167.306 30.9157V31.4161C167.306 32.8263 166.208 33.9636 164.847 33.9636Z" fill="white"/>
<path d="M164.847 33.4636H44.6334C43.5644 33.4636 42.6738 32.5669 42.6738 31.4161V30.9157C42.6738 29.7649 43.5644 28.8682 44.6334 28.8682H164.847C165.916 28.8682 166.806 29.7649 166.806 30.9157V31.4161C166.806 32.5669 165.916 33.4636 164.847 33.4636Z" stroke="#DCDCDC" stroke-opacity="0.52"/>
</g>
<g opacity="0.2">
<path d="M171.479 42.5591H38.0013C36.4895 42.5591 35.2703 41.4218 35.2703 40.0115V39.5111C35.2703 38.1009 36.4895 36.9636 38.0013 36.9636H171.479C172.99 36.9636 174.21 38.1009 174.21 39.5111V40.0115C174.21 41.4218 172.99 42.5591 171.479 42.5591Z" fill="white"/>
<path d="M171.479 42.0591H38.0013C36.7323 42.0591 35.7703 41.1135 35.7703 40.0115V39.5111C35.7703 38.4092 36.7323 37.4636 38.0013 37.4636H171.479C172.748 37.4636 173.71 38.4092 173.71 39.5111V40.0115C173.71 41.1135 172.748 42.0591 171.479 42.0591Z" stroke="#DCDCDC" stroke-opacity="0.52"/>
</g>
<g opacity="0.2">
<path d="M178.844 51.1545H30.6359C28.9573 51.1545 27.6035 50.0172 27.6035 48.607V48.1066C27.6035 46.6964 28.9573 45.5591 30.6359 45.5591H178.844C180.523 45.5591 181.876 46.6964 181.876 48.1066V48.607C181.876 50.0172 180.523 51.1545 178.844 51.1545Z" fill="white"/>
<path d="M178.844 50.6545H30.6359C29.1482 50.6545 28.1035 49.663 28.1035 48.607V48.1066C28.1035 47.0506 29.1482 46.0591 30.6359 46.0591H178.844C180.332 46.0591 181.376 47.0506 181.376 48.1066V48.607C181.376 49.663 180.332 50.6545 178.844 50.6545Z" stroke="#DCDCDC" stroke-opacity="0.52"/>
</g>
<g opacity="0.2">
<path d="M149.408 59.75H60.0718C59.0599 59.75 58.2439 58.6127 58.2439 57.2025V56.7021C58.2439 55.2918 59.0599 54.1545 60.0718 54.1545H149.408C150.42 54.1545 151.236 55.2918 151.236 56.7021V57.2025C151.236 58.6127 150.42 59.75 149.408 59.75Z" fill="white"/>
<path d="M149.408 59.25H60.0718C59.7675 59.25 59.4476 59.0801 59.1846 58.7136C58.922 58.3475 58.7439 57.8154 58.7439 57.2025V56.7021C58.7439 56.0891 58.922 55.557 59.1846 55.1909C59.4476 54.8244 59.7675 54.6545 60.0718 54.6545H149.408C149.713 54.6545 150.033 54.8244 150.296 55.1909C150.558 55.557 150.736 56.0891 150.736 56.7021V57.2025C150.736 57.8154 150.558 58.3475 150.296 58.7136C150.033 59.0801 149.713 59.25 149.408 59.25Z" stroke="#DCDCDC" stroke-opacity="0.52"/>
</g>
<path opacity="0.2" d="M132.318 73.8154H77.1617C76.537 73.8154 76.0332 72.7807 76.0332 71.4977V71.0424C76.0332 69.7594 76.537 68.7247 77.1617 68.7247H132.318C132.943 68.7247 133.447 69.7594 133.447 71.0424V71.4977C133.447 72.7807 132.943 73.8154 132.318 73.8154Z" fill="white"/>
<circle cx="101.776" cy="79.4386" r="1.93321" fill="#F9F9F9" fill-opacity="0.5"/>
<circle cx="107.704" cy="79.4386" r="1.43321" stroke="#DCDCDC" stroke-opacity="0.52"/>
</svg>
