<svg width="210" height="109" viewBox="0 0 210 109" fill="none" xmlns="http://www.w3.org/2000/svg">
<g clip-path="url(#clip0_436_895)">
<g opacity="0.2">
<path d="M54.686 30.7506H1.48437C0.882011 30.7506 0.39624 30.2634 0.39624 29.6593V29.4449C0.39624 28.8408 0.882011 28.3536 1.48437 28.3536H54.6665C55.2689 28.3536 55.7547 28.8408 55.7547 29.4449V29.6593C55.7741 30.2634 55.2883 30.7506 54.686 30.7506ZM54.686 35.798H1.48437C0.882011 35.798 0.39624 35.3108 0.39624 34.7066V34.4923C0.39624 33.8881 0.882011 33.401 1.48437 33.401H54.6665C55.2689 33.401 55.7547 33.8881 55.7547 34.4923V34.7066C55.7741 35.3108 55.2883 35.798 54.686 35.798ZM44.1156 40.8453H1.48437C0.882011 40.8453 0.39624 40.3581 0.39624 39.754V39.5396C0.39624 38.9355 0.882011 38.4483 1.48437 38.4483H44.1156C44.718 38.4483 45.2037 38.9355 45.2037 39.5396V39.754C45.2037 40.3581 44.718 40.8453 44.1156 40.8453Z" fill="#FDFDFD"/>
<path d="M55.2547 29.6593V29.6673L55.2549 29.6754C55.265 29.9892 55.014 30.2506 54.686 30.2506H1.48437C1.15953 30.2506 0.89624 29.9887 0.89624 29.6593V29.4449C0.89624 29.1156 1.15953 28.8536 1.48437 28.8536H54.6665C54.9914 28.8536 55.2547 29.1156 55.2547 29.4449V29.6593ZM55.2547 34.7066V34.7147L55.2549 34.7227C55.265 35.0365 55.014 35.298 54.686 35.298H1.48437C1.15953 35.298 0.89624 35.036 0.89624 34.7066V34.4923C0.89624 34.1629 1.15953 33.901 1.48437 33.901H54.6665C54.9914 33.901 55.2547 34.1629 55.2547 34.4923V34.7066ZM44.1156 40.3453H1.48437C1.15953 40.3453 0.89624 40.0833 0.89624 39.754V39.5396C0.89624 39.2103 1.15953 38.9483 1.48437 38.9483H44.1156C44.4404 38.9483 44.7037 39.2103 44.7037 39.5396V39.754C44.7037 40.0833 44.4404 40.3453 44.1156 40.3453Z" stroke="white" stroke-opacity="0.8"/>
</g>
<rect x="0.218018" y="46.0191" width="19.5631" height="4.80439" rx="2.4022" fill="#C8C8C8" fill-opacity="0.5"/>
<rect x="0.292236" y="20.886" width="20.1217" height="2.29378" rx="1.14689" fill="#C8C8C8" fill-opacity="0.5"/>
<circle cx="73.5475" cy="70.1735" r="4.0426" fill="#C8C8C8" fill-opacity="0.5"/>
<rect x="65.6309" y="20.886" width="46.5437" height="59.1772" rx="2" stroke="#DADADA" stroke-opacity="0.8" stroke-width="0.5"/>
<rect x="69.5049" y="27.3705" width="38.7957" height="2.40317" rx="1.20158" fill="white" fill-opacity="0.5"/>
<rect x="69.5049" y="31.7737" width="38.7957" height="2.40317" rx="1.20158" fill="white" fill-opacity="0.5"/>
<rect x="69.5049" y="36.1768" width="38.7957" height="2.40317" rx="1.20158" fill="white" fill-opacity="0.5"/>
<rect x="69.5049" y="49.4213" width="38.7957" height="2.40317" rx="1.20158" fill="white" fill-opacity="0.5"/>
<rect x="69.5049" y="40.58" width="38.7957" height="2.40317" rx="1.20158" fill="white" fill-opacity="0.5"/>
<rect x="69.5049" y="53.8245" width="38.7957" height="2.40317" rx="1.20158" fill="white" fill-opacity="0.5"/>
<rect x="69.5049" y="44.9832" width="38.7957" height="2.40317" rx="1.20158" fill="white" fill-opacity="0.5"/>
<rect x="69.5049" y="58.2277" width="38.7957" height="2.40317" rx="1.20158" fill="white" fill-opacity="0.5"/>
<rect x="80.5837" y="66.7723" width="27.7168" height="2.40317" rx="1.20158" fill="#C8C8C8" fill-opacity="0.5"/>
<rect x="80.5837" y="71.1755" width="24.9421" height="2.40317" rx="1.20158" fill="#C8C8C8" fill-opacity="0.5"/>
<circle cx="122.091" cy="70.1735" r="4.0426" fill="#C8C8C8" fill-opacity="0.5"/>
<rect x="114.175" y="20.886" width="46.5437" height="59.1772" rx="2" stroke="#DADADA" stroke-opacity="0.8" stroke-width="0.5"/>
<rect x="118.049" y="49.4213" width="38.7957" height="2.40317" rx="1.20158" fill="white" fill-opacity="0.5"/>
<rect x="118.049" y="53.8245" width="38.7957" height="2.40317" rx="1.20158" fill="white" fill-opacity="0.5"/>
<rect x="118.049" y="58.2277" width="38.7957" height="2.40317" rx="1.20158" fill="white" fill-opacity="0.5"/>
<rect x="118.049" y="27.3705" width="38.7957" height="2.40317" rx="1.20158" fill="white" fill-opacity="0.5"/>
<rect x="118.049" y="31.7737" width="38.7957" height="2.40317" rx="1.20158" fill="white" fill-opacity="0.5"/>
<rect x="118.049" y="36.1768" width="38.7957" height="2.40317" rx="1.20158" fill="white" fill-opacity="0.5"/>
<rect x="118.049" y="40.58" width="38.7957" height="2.40317" rx="1.20158" fill="white" fill-opacity="0.5"/>
<rect x="118.049" y="44.9832" width="38.7957" height="2.40317" rx="1.20158" fill="white" fill-opacity="0.5"/>
<rect x="129.127" y="66.7723" width="27.7168" height="2.40317" rx="1.20158" fill="#C8C8C8" fill-opacity="0.5"/>
<rect x="129.127" y="71.1755" width="24.9421" height="2.40317" rx="1.20158" fill="#C8C8C8" fill-opacity="0.5"/>
<circle cx="170.635" cy="70.1735" r="4.0426" fill="#C8C8C8" fill-opacity="0.5"/>
<rect x="162.718" y="20.886" width="46.5437" height="59.1772" rx="2" stroke="#DADADA" stroke-opacity="0.8" stroke-width="0.5"/>
<rect x="166.592" y="49.4213" width="38.7957" height="2.40317" rx="1.20158" fill="white" fill-opacity="0.5"/>
<rect x="166.592" y="53.8245" width="38.7957" height="2.40317" rx="1.20158" fill="white" fill-opacity="0.5"/>
<rect x="166.592" y="58.2277" width="38.7957" height="2.40317" rx="1.20158" fill="white" fill-opacity="0.5"/>
<rect x="166.592" y="27.3705" width="38.7957" height="2.40317" rx="1.20158" fill="white" fill-opacity="0.5"/>
<rect x="166.592" y="31.7737" width="38.7957" height="2.40317" rx="1.20158" fill="white" fill-opacity="0.5"/>
<rect x="166.592" y="36.1768" width="38.7957" height="2.40317" rx="1.20158" fill="white" fill-opacity="0.5"/>
<rect x="166.592" y="40.58" width="38.7957" height="2.40317" rx="1.20158" fill="white" fill-opacity="0.5"/>
<rect x="166.592" y="44.9832" width="38.7957" height="2.40317" rx="1.20158" fill="white" fill-opacity="0.5"/>
<rect x="177.671" y="66.7723" width="27.7168" height="2.40317" rx="1.20158" fill="#C8C8C8" fill-opacity="0.5"/>
<rect x="177.671" y="71.1755" width="24.9421" height="2.40317" rx="1.20158" fill="#C8C8C8" fill-opacity="0.5"/>
<circle cx="138.208" cy="86.3208" r="1.93321" fill="#AAAAAA"/>
<circle cx="144.136" cy="86.3208" r="1.43321" stroke="#AAAAAA"/>
</g>
<defs>
<clipPath id="clip0_436_895">
<rect width="209.48" height="108.86" fill="white" transform="translate(0 0.140015)"/>
</clipPath>
</defs>
</svg>
