<svg width="210" height="109" viewBox="0 0 210 109" fill="none" xmlns="http://www.w3.org/2000/svg">
<path opacity="0.42" d="M128.393 5.5692H83.7804C83.0324 5.5692 82.4292 4.93763 82.4292 4.1545V3.87661C82.4292 3.09347 83.0324 2.46191 83.7804 2.46191H128.393C129.141 2.46191 129.744 3.09347 129.744 3.87661V4.1545C129.768 4.93763 129.141 5.5692 128.393 5.5692Z" fill="white"/>
<path opacity="0.2" d="M142.207 10.5718H67.2732C66.4244 10.5718 65.74 10.0331 65.74 9.36504V9.128C65.74 8.45999 66.4244 7.92126 67.2732 7.92126H142.207C143.056 7.92126 143.74 8.45999 143.74 9.128V9.36504C143.74 10.0331 143.056 10.5718 142.207 10.5718Z" fill="white"/>
<path opacity="0.2" d="M129.59 14.5599H79.8899C79.327 14.5599 78.873 14.0212 78.873 13.3532V13.1162C78.873 12.4481 79.327 11.9094 79.8899 11.9094H129.59C130.153 11.9094 130.607 12.4481 130.607 13.1162V13.3532C130.607 14.0212 130.153 14.5599 129.59 14.5599Z" fill="white"/>
<rect x="17.7778" y="20.6409" width="47.9617" height="41.3344" rx="2" fill="#D3D3D3" fill-opacity="0.27"/>
<rect x="21.4348" y="25.137" width="40.6486" height="2.37842" rx="1.18921" fill="#C8C8C8" fill-opacity="0.8"/>
<rect x="21.4348" y="29.495" width="40.6486" height="2.37842" rx="1.18921" fill="#C8C8C8" fill-opacity="0.8"/>
<rect x="21.4348" y="33.8528" width="40.6486" height="2.37842" rx="1.18921" fill="#C8C8C8" fill-opacity="0.8"/>
<rect x="21.4348" y="38.2107" width="40.6486" height="2.37842" rx="1.18921" fill="#C8C8C8" fill-opacity="0.8"/>
<rect x="21.4348" y="42.5681" width="40.6486" height="2.37842" rx="1.18921" fill="#C8C8C8" fill-opacity="0.8"/>
<rect x="21.4348" y="50.7429" width="27.4314" height="2.37842" rx="1.18921" fill="#C8C8C8" fill-opacity="0.8"/>
<rect x="21.4348" y="55.1007" width="24.6853" height="2.37842" rx="1.18921" fill="#C8C8C8" fill-opacity="0.8"/>
<rect x="80.7595" y="20.5598" width="47.9617" height="41.4965" rx="2" fill="#D3D3D3" fill-opacity="0.27"/>
<rect x="84.4158" y="24.9059" width="40.6486" height="2.37842" rx="1.18921" fill="#C8C8C8" fill-opacity="0.8"/>
<rect x="84.4158" y="29.2639" width="40.6486" height="2.37842" rx="1.18921" fill="#C8C8C8" fill-opacity="0.8"/>
<rect x="84.4158" y="33.6215" width="40.6486" height="2.37842" rx="1.18921" fill="#C8C8C8" fill-opacity="0.8"/>
<rect x="84.4158" y="37.9794" width="40.6486" height="2.37842" rx="1.18921" fill="#C8C8C8" fill-opacity="0.8"/>
<rect x="84.4158" y="42.3369" width="40.6486" height="2.37842" rx="1.18921" fill="#C8C8C8" fill-opacity="0.8"/>
<rect x="84.4158" y="50.9738" width="27.4314" height="2.37842" rx="1.18921" fill="#C8C8C8" fill-opacity="0.8"/>
<rect x="84.4158" y="55.3314" width="24.6853" height="2.37842" rx="1.18921" fill="#C8C8C8" fill-opacity="0.8"/>
<rect x="143.74" y="20.5602" width="47.9617" height="41.3344" rx="2" fill="#D3D3D3" fill-opacity="0.27"/>
<rect x="147.397" y="24.8253" width="40.6486" height="2.37842" rx="1.18921" fill="#C8C8C8" fill-opacity="0.8"/>
<rect x="147.397" y="29.1831" width="40.6486" height="2.37842" rx="1.18921" fill="#C8C8C8" fill-opacity="0.8"/>
<rect x="147.397" y="33.5408" width="40.6486" height="2.37842" rx="1.18921" fill="#C8C8C8" fill-opacity="0.8"/>
<rect x="147.397" y="37.8989" width="40.6486" height="2.37842" rx="1.18921" fill="#C8C8C8" fill-opacity="0.8"/>
<rect x="147.397" y="42.2563" width="40.6486" height="2.37842" rx="1.18921" fill="#C8C8C8" fill-opacity="0.8"/>
<rect x="147.397" y="50.8931" width="27.4314" height="2.37842" rx="1.18921" fill="#C8C8C8" fill-opacity="0.8"/>
<rect x="147.397" y="55.2509" width="24.6853" height="2.37842" rx="1.18921" fill="#C8C8C8" fill-opacity="0.8"/>
<rect x="17.7778" y="65.2627" width="47.9617" height="41.3344" rx="2" fill="#D3D3D3" fill-opacity="0.27"/>
<rect x="21.4348" y="69.7589" width="40.6486" height="2.37842" rx="1.18921" fill="#C8C8C8" fill-opacity="0.8"/>
<rect x="21.4348" y="74.1168" width="40.6486" height="2.37842" rx="1.18921" fill="#C8C8C8" fill-opacity="0.8"/>
<rect x="21.4348" y="78.4746" width="40.6486" height="2.37842" rx="1.18921" fill="#C8C8C8" fill-opacity="0.8"/>
<rect x="21.4348" y="82.8325" width="40.6486" height="2.37842" rx="1.18921" fill="#C8C8C8" fill-opacity="0.8"/>
<rect x="21.4348" y="87.1899" width="40.6486" height="2.37842" rx="1.18921" fill="#C8C8C8" fill-opacity="0.8"/>
<rect x="21.4348" y="95.3649" width="27.4314" height="2.37842" rx="1.18921" fill="#C8C8C8" fill-opacity="0.8"/>
<rect x="21.4348" y="99.7227" width="24.6853" height="2.37842" rx="1.18921" fill="#C8C8C8" fill-opacity="0.8"/>
<rect x="80.7593" y="65.1816" width="47.9617" height="41.4965" rx="2" fill="#D3D3D3" fill-opacity="0.27"/>
<rect x="84.4158" y="69.5278" width="40.6486" height="2.37842" rx="1.18921" fill="#C8C8C8" fill-opacity="0.8"/>
<rect x="84.4158" y="73.8857" width="40.6486" height="2.37842" rx="1.18921" fill="#C8C8C8" fill-opacity="0.8"/>
<rect x="84.4158" y="78.2434" width="40.6486" height="2.37842" rx="1.18921" fill="#C8C8C8" fill-opacity="0.8"/>
<rect x="84.4158" y="82.6012" width="40.6486" height="2.37842" rx="1.18921" fill="#C8C8C8" fill-opacity="0.8"/>
<rect x="84.4158" y="86.9586" width="40.6486" height="2.37842" rx="1.18921" fill="#C8C8C8" fill-opacity="0.8"/>
<rect x="84.4158" y="95.5955" width="27.4314" height="2.37842" rx="1.18921" fill="#C8C8C8" fill-opacity="0.8"/>
<rect x="84.4158" y="99.9532" width="24.6853" height="2.37842" rx="1.18921" fill="#C8C8C8" fill-opacity="0.8"/>
<rect x="143.74" y="65.182" width="47.9617" height="41.3344" rx="2" fill="#D3D3D3" fill-opacity="0.27"/>
<rect x="147.397" y="69.4474" width="40.6486" height="2.37842" rx="1.18921" fill="#C8C8C8" fill-opacity="0.8"/>
<rect x="147.397" y="73.8049" width="40.6486" height="2.37842" rx="1.18921" fill="#C8C8C8" fill-opacity="0.8"/>
<rect x="147.397" y="78.1627" width="40.6486" height="2.37842" rx="1.18921" fill="#C8C8C8" fill-opacity="0.8"/>
<rect x="147.397" y="82.5209" width="40.6486" height="2.37842" rx="1.18921" fill="#C8C8C8" fill-opacity="0.8"/>
<rect x="147.397" y="86.8782" width="40.6486" height="2.37842" rx="1.18921" fill="#C8C8C8" fill-opacity="0.8"/>
<rect x="147.397" y="95.515" width="27.4314" height="2.37842" rx="1.18921" fill="#C8C8C8" fill-opacity="0.8"/>
<rect x="147.397" y="99.8726" width="24.6853" height="2.37842" rx="1.18921" fill="#C8C8C8" fill-opacity="0.8"/>
</svg>
