<svg width="204" height="108" viewBox="0 0 204 108" fill="none" xmlns="http://www.w3.org/2000/svg">
<g clip-path="url(#clip0_419_226)">
<rect x="0.190308" y="42.541" width="5.52441" height="5.49377" rx="2.74689" fill="#C8C8C8" fill-opacity="0.5"/>
<path opacity="0.42" d="M29.1979 45.9271H9.61326C9.15951 45.9271 8.79358 45.4248 8.79358 44.802V44.4806C8.79358 43.8578 9.15951 43.3556 9.61326 43.3556H29.1833C29.637 43.3556 30.0029 43.8578 30.0029 44.4806V44.782C30.0176 45.4047 29.6516 45.9271 29.1979 45.9271Z" fill="#D9D9D9"/>
<path opacity="0.42" d="M22.758 65.4196H9.35456C9.04402 65.4196 8.79358 65.0819 8.79358 64.6631V64.447C8.79358 64.0282 9.04402 63.6906 9.35456 63.6906H22.748C23.0585 63.6906 23.309 64.0282 23.309 64.447V64.6496C23.319 65.0684 23.0686 65.4196 22.758 65.4196Z" fill="#D9D9D9"/>
<path opacity="0.2" d="M57.5741 52.0331H9.77129C9.23006 52.0331 8.79358 51.6376 8.79358 51.1472V50.9732C8.79358 50.4828 9.23006 50.0873 9.77129 50.0873H57.5567C58.0979 50.0873 58.5344 50.4828 58.5344 50.9732V51.1472C58.5518 51.6376 58.1154 52.0331 57.5741 52.0331ZM57.5741 56.1303H9.77129C9.23006 56.1303 8.79358 55.7348 8.79358 55.2444V55.0704C8.79358 54.58 9.23006 54.1845 9.77129 54.1845H57.5567C58.0979 54.1845 58.5344 54.58 58.5344 55.0704V55.2444C58.5518 55.7348 58.1154 56.1303 57.5741 56.1303ZM48.0764 60.2275H9.77129C9.23006 60.2275 8.79358 59.832 8.79358 59.3416V59.1676C8.79358 58.6772 9.23006 58.2817 9.77129 58.2817H48.0764C48.6176 58.2817 49.0541 58.6772 49.0541 59.1676V59.3416C49.0541 59.832 48.6176 60.2275 48.0764 60.2275Z" fill="white"/>
<rect x="72.3967" y="42.541" width="5.52441" height="5.49377" rx="2.74689" fill="#C8C8C8" fill-opacity="0.5"/>
<path opacity="0.42" d="M101.575 45.9271H81.9905C81.5367 45.9271 81.1708 45.4248 81.1708 44.802V44.4806C81.1708 43.8578 81.5367 43.3556 81.9905 43.3556H101.56C102.014 43.3556 102.38 43.8578 102.38 44.4806V44.782C102.395 45.4047 102.029 45.9271 101.575 45.9271Z" fill="#D9D9D9"/>
<path opacity="0.42" d="M95.1352 65.4196H81.7318C81.4212 65.4196 81.1708 65.0819 81.1708 64.6631V64.447C81.1708 64.0282 81.4212 63.6906 81.7318 63.6906H95.1252C95.4357 63.6906 95.6862 64.0282 95.6862 64.447V64.6496C95.6962 65.0684 95.4458 65.4196 95.1352 65.4196Z" fill="#D9D9D9"/>
<path opacity="0.2" d="M129.951 52.0331H82.1485C81.6073 52.0331 81.1708 51.6376 81.1708 51.1472V50.9732C81.1708 50.4828 81.6073 50.0873 82.1485 50.0873H129.934C130.475 50.0873 130.912 50.4828 130.912 50.9732V51.1472C130.929 51.6376 130.493 52.0331 129.951 52.0331ZM129.951 56.1303H82.1485C81.6073 56.1303 81.1708 55.7348 81.1708 55.2444V55.0704C81.1708 54.58 81.6073 54.1845 82.1485 54.1845H129.934C130.475 54.1845 130.912 54.58 130.912 55.0704V55.2444C130.929 55.7348 130.493 56.1303 129.951 56.1303ZM120.454 60.2275H82.1485C81.6073 60.2275 81.1708 59.832 81.1708 59.3416V59.1676C81.1708 58.6772 81.6073 58.2817 82.1485 58.2817H120.454C120.995 58.2817 121.431 58.6772 121.431 59.1676V59.3416C121.431 59.832 120.995 60.2275 120.454 60.2275Z" fill="white"/>
<rect x="144.603" y="42.541" width="5.52441" height="5.49377" rx="2.74689" fill="#C8C8C8" fill-opacity="0.5"/>
<path opacity="0.42" d="M173.952 45.9271H154.368C153.914 45.9271 153.548 45.4248 153.548 44.802V44.4806C153.548 43.8578 153.914 43.3556 154.368 43.3556H173.938C174.391 43.3556 174.757 43.8578 174.757 44.4806V44.782C174.772 45.4047 174.406 45.9271 173.952 45.9271Z" fill="#D9D9D9"/>
<path opacity="0.42" d="M167.512 65.4196H154.109C153.798 65.4196 153.548 65.0819 153.548 64.6631V64.447C153.548 64.0282 153.798 63.6906 154.109 63.6906H167.502C167.813 63.6906 168.063 64.0282 168.063 64.447V64.6496C168.073 65.0684 167.823 65.4196 167.512 65.4196Z" fill="#D9D9D9"/>
<path opacity="0.2" d="M202.328 52.0331H154.526C153.984 52.0331 153.548 51.6376 153.548 51.1472V50.9732C153.548 50.4828 153.984 50.0873 154.526 50.0873H202.311C202.852 50.0873 203.289 50.4828 203.289 50.9732V51.1472C203.306 51.6376 202.87 52.0331 202.328 52.0331ZM202.328 56.1303H154.526C153.984 56.1303 153.548 55.7348 153.548 55.2444V55.0704C153.548 54.58 153.984 54.1845 154.526 54.1845H202.311C202.852 54.1845 203.289 54.58 203.289 55.0704V55.2444C203.306 55.7348 202.87 56.1303 202.328 56.1303ZM192.831 60.2275H154.526C153.984 60.2275 153.548 59.832 153.548 59.3416V59.1676C153.548 58.6772 153.984 58.2817 154.526 58.2817H192.831C193.372 58.2817 193.808 58.6772 193.808 59.1676V59.3416C193.808 59.832 193.372 60.2275 192.831 60.2275Z" fill="white"/>
</g>
<defs>
<clipPath id="clip0_419_226">
<rect width="203.48" height="106.86" fill="white" transform="translate(0 0.719971)"/>
</clipPath>
</defs>
</svg>
