<svg width="204" height="107" viewBox="0 0 204 107" fill="none" xmlns="http://www.w3.org/2000/svg">
<g clip-path="url(#clip0_430_6)">
<path opacity="0.2" d="M93.3858 5.60109H1.98623C1.01821 5.60109 0.237549 4.9617 0.237549 4.16887V3.88754C0.237549 3.09471 1.01821 2.45532 1.98623 2.45532H93.3858C94.3538 2.45532 95.1345 3.09471 95.1345 3.88754V4.16887C95.1657 4.9617 94.385 5.60109 93.3858 5.60109ZM71.1526 11.4578H1.98623C1.01821 11.4578 0.237549 10.8185 0.237549 10.0256V9.74429C0.237549 8.95145 1.01821 8.31207 1.98623 8.31207H71.1214C72.0894 8.31207 72.8701 8.95145 72.8701 9.74429V10.0256C72.9013 10.8185 72.1206 11.4578 71.1526 11.4578Z" fill="#C8C8C8" fill-opacity="0.4"/>
<path opacity="0.2" d="M93.3024 20.8898H2.10284C1.07027 20.8898 0.237549 20.2392 0.237549 19.4324V19.1461C0.237549 18.3393 1.07027 17.6887 2.10284 17.6887H93.2691C94.3017 17.6887 95.1344 18.3393 95.1344 19.1461V19.4324C95.1677 20.2392 94.335 20.8898 93.3024 20.8898ZM93.3024 27.6302H2.10284C1.07027 27.6302 0.237549 26.9796 0.237549 26.1728V25.8866C0.237549 25.0798 1.07027 24.4292 2.10284 24.4292H93.2691C94.3017 24.4292 95.1344 25.0798 95.1344 25.8866V26.1728C95.1677 26.9796 94.335 27.6302 93.3024 27.6302ZM75.1824 34.3707H2.10284C1.07027 34.3707 0.237549 33.72 0.237549 32.9133V32.627C0.237549 31.8202 1.07027 31.1696 2.10284 31.1696H75.1824C76.215 31.1696 77.0477 31.8202 77.0477 32.627V32.9133C77.0477 33.72 76.215 34.3707 75.1824 34.3707Z" fill="white"/>
<rect y="40.6018" width="26.1254" height="6.416" rx="3.208" fill="#C8C8C8" fill-opacity="0.4"/>
<rect x="103.48" y="2.45544" width="100" height="15.1719" rx="2" fill="#C8C8C8" fill-opacity="0.4"/>
<path opacity="0.2" d="M167.704 11.3236H121.065C120.571 11.3236 120.173 10.9701 120.173 10.5317V10.3762C120.173 9.93786 120.571 9.58435 121.065 9.58435H167.704C168.198 9.58435 168.597 9.93786 168.597 10.3762V10.5317C168.613 10.9701 168.214 11.3236 167.704 11.3236ZM156.359 14.5617H121.065C120.571 14.5617 120.173 14.2082 120.173 13.7699V13.6143C120.173 13.176 120.571 12.8225 121.065 12.8225H156.343C156.837 12.8225 157.236 13.176 157.236 13.6143V13.7699C157.252 14.2082 156.853 14.5617 156.359 14.5617Z" fill="#D0D0D0"/>
<path opacity="0.42" d="M135.585 7.58435H120.792C120.449 7.58435 120.173 7.23144 120.173 6.79384V6.56798C120.173 6.13037 120.449 5.77747 120.792 5.77747H135.574C135.917 5.77747 136.193 6.13037 136.193 6.56798V6.77972C136.205 7.21733 135.928 7.58435 135.585 7.58435Z" fill="#D9D9D9"/>
<circle cx="112.588" cy="10.0414" r="4.58435" fill="#D9D9D9"/>
<rect x="103.48" y="19.6274" width="100" height="15.1719" rx="2" fill="#C8C8C8" fill-opacity="0.4"/>
<path opacity="0.2" d="M167.704 28.4953H121.065C120.571 28.4953 120.173 28.1418 120.173 27.7035V27.548C120.173 27.1096 120.571 26.7561 121.065 26.7561H167.704C168.198 26.7561 168.597 27.1096 168.597 27.548V27.7035C168.613 28.1418 168.214 28.4953 167.704 28.4953ZM156.359 31.7335H121.065C120.571 31.7335 120.173 31.38 120.173 30.9416V30.7861C120.173 30.3477 120.571 29.9942 121.065 29.9942H156.343C156.837 29.9942 157.236 30.3477 157.236 30.7861V30.9416C157.252 31.38 156.853 31.7335 156.359 31.7335Z" fill="#D0D0D0"/>
<path opacity="0.42" d="M135.585 24.7561H120.792C120.449 24.7561 120.173 24.4032 120.173 23.9656V23.7397C120.173 23.3021 120.449 22.9492 120.792 22.9492H135.574C135.917 22.9492 136.193 23.3021 136.193 23.7397V23.9515C136.205 24.3891 135.928 24.7561 135.585 24.7561Z" fill="#D9D9D9"/>
<circle cx="112.588" cy="27.2133" r="4.58435" fill="#D9D9D9"/>
<rect x="103.48" y="36.7993" width="100" height="15.1719" rx="2" fill="#C8C8C8" fill-opacity="0.4"/>
<path opacity="0.2" d="M167.704 45.6672H121.065C120.571 45.6672 120.173 45.3137 120.173 44.8754V44.7198C120.173 44.2815 120.571 43.928 121.065 43.928H167.704C168.198 43.928 168.597 44.2815 168.597 44.7198V44.8754C168.613 45.3137 168.214 45.6672 167.704 45.6672ZM156.359 48.9053H121.065C120.571 48.9053 120.173 48.5518 120.173 48.1135V47.9579C120.173 47.5196 120.571 47.1661 121.065 47.1661H156.343C156.837 47.1661 157.236 47.5196 157.236 47.9579V48.1135C157.252 48.5518 156.853 48.9053 156.359 48.9053Z" fill="#D0D0D0"/>
<path opacity="0.42" d="M135.585 41.928H120.792C120.449 41.928 120.173 41.5751 120.173 41.1375V40.9116C120.173 40.474 120.449 40.1211 120.792 40.1211H135.574C135.917 40.1211 136.193 40.474 136.193 40.9116V41.1234C136.205 41.561 135.928 41.928 135.585 41.928Z" fill="#D9D9D9"/>
<circle cx="112.588" cy="44.3851" r="4.58435" fill="#D9D9D9"/>
<rect x="103.48" y="53.9712" width="100" height="15.1719" rx="2" fill="#C8C8C8" fill-opacity="0.4"/>
<path opacity="0.2" d="M167.704 62.8391H121.065C120.571 62.8391 120.173 62.4856 120.173 62.0472V61.8917C120.173 61.4534 120.571 61.0999 121.065 61.0999H167.704C168.198 61.0999 168.597 61.4534 168.597 61.8917V62.0472C168.613 62.4856 168.214 62.8391 167.704 62.8391ZM156.359 66.0772H121.065C120.571 66.0772 120.173 65.7237 120.173 65.2854V65.1298C120.173 64.6915 120.571 64.338 121.065 64.338H156.343C156.837 64.338 157.236 64.6915 157.236 65.1298V65.2854C157.252 65.7237 156.853 66.0772 156.359 66.0772Z" fill="#D0D0D0"/>
<path opacity="0.42" d="M135.585 59.0999H120.792C120.449 59.0999 120.173 58.7469 120.173 58.3093V58.0835C120.173 57.6459 120.449 57.293 120.792 57.293H135.574C135.917 57.293 136.193 57.6459 136.193 58.0835V58.2952C136.205 58.7328 135.928 59.0999 135.585 59.0999Z" fill="#D9D9D9"/>
<circle cx="112.588" cy="61.557" r="4.58435" fill="#D9D9D9"/>
<rect x="103.48" y="71.1431" width="100" height="15.1719" rx="2" fill="#C8C8C8" fill-opacity="0.4"/>
<path opacity="0.2" d="M167.704 80.011H121.065C120.571 80.011 120.173 79.6575 120.173 79.2191V79.0636C120.173 78.6252 120.571 78.2717 121.065 78.2717H167.704C168.198 78.2717 168.597 78.6252 168.597 79.0636V79.2191C168.613 79.6575 168.214 80.011 167.704 80.011ZM156.359 83.2491H121.065C120.571 83.2491 120.173 82.8956 120.173 82.4572V82.3017C120.173 81.8633 120.571 81.5098 121.065 81.5098H156.343C156.837 81.5098 157.236 81.8633 157.236 82.3017V82.4572C157.252 82.8956 156.853 83.2491 156.359 83.2491Z" fill="#D0D0D0"/>
<path opacity="0.42" d="M135.585 76.2717H120.792C120.449 76.2717 120.173 75.9188 120.173 75.4812V75.2554C120.173 74.8178 120.449 74.4648 120.792 74.4648H135.574C135.917 74.4648 136.193 74.8178 136.193 75.2554V75.4671C136.205 75.9047 135.928 76.2717 135.585 76.2717Z" fill="#D9D9D9"/>
<circle cx="112.588" cy="78.7289" r="4.58435" fill="#D9D9D9"/>
<rect x="103.48" y="89.2725" width="100" height="15.1719" rx="2" fill="#C8C8C8" fill-opacity="0.4"/>
<path opacity="0.2" d="M167.704 98.1404H121.065C120.571 98.1404 120.173 97.7869 120.173 97.3485V97.193C120.173 96.7546 120.571 96.4011 121.065 96.4011H167.704C168.198 96.4011 168.597 96.7546 168.597 97.193V97.3485C168.613 97.7869 168.214 98.1404 167.704 98.1404ZM156.359 101.378H121.065C120.571 101.378 120.173 101.025 120.173 100.587V100.431C120.173 99.9927 120.571 99.6392 121.065 99.6392H156.343C156.837 99.6392 157.236 99.9927 157.236 100.431V100.587C157.252 101.025 156.853 101.378 156.359 101.378Z" fill="#D0D0D0"/>
<path opacity="0.42" d="M135.585 94.4011H120.792C120.449 94.4011 120.173 94.0482 120.173 93.6106V93.3848C120.173 92.9471 120.449 92.5942 120.792 92.5942H135.574C135.917 92.5942 136.193 92.9471 136.193 93.3848V93.5965C136.205 94.0341 135.928 94.4011 135.585 94.4011Z" fill="#D9D9D9"/>
<circle cx="112.588" cy="96.8583" r="4.58435" fill="#D9D9D9"/>
</g>
<defs>
<clipPath id="clip0_430_6">
<rect width="203.48" height="106.86" fill="white" transform="translate(0 0.0198975)"/>
</clipPath>
</defs>
</svg>
