<svg width="210" height="109" viewBox="0 0 210 109" fill="none" xmlns="http://www.w3.org/2000/svg">
<rect x="0.568481" y="49.2638" width="46.4617" height="47.821" rx="2" fill="#C8C8C8" fill-opacity="0.5"/>
<path opacity="0.42" d="M23.854 61.7162C26.0584 61.7162 27.8454 59.9479 27.8454 57.7664C27.8454 55.585 26.0584 53.8167 23.854 53.8167C21.6497 53.8167 19.8627 55.585 19.8627 57.7664C19.8627 59.9479 21.6497 61.7162 23.854 61.7162Z" fill="white"/>
<rect width="39.3654" height="2.7213" rx="1.36065" transform="matrix(1 0 0 -1 4.11682 77.5143)" fill="#C9C9C9" fill-opacity="0.5"/>
<rect width="34.2856" height="2.7213" rx="1.36065" transform="matrix(1 0 0 -1 6.73218 81.4481)" fill="#C9C9C9" fill-opacity="0.5"/>
<rect width="26.4278" height="2.7213" rx="1.36065" transform="matrix(1 0 0 -1 10.448 73.5804)" fill="#C9C9C9" fill-opacity="0.5"/>
<rect width="29.1615" height="2.7213" rx="1.36065" transform="matrix(1 0 0 -1 9.36951 85.3819)" fill="#C9C9C9" fill-opacity="0.5"/>
<path opacity="0.42" d="M38.7209 69.1745H9.00928C8.3209 69.1745 7.76575 68.5482 7.76575 67.7714V67.3706C7.76575 66.5938 8.3209 65.9675 9.00928 65.9675H38.6987C39.3871 65.9675 39.9423 66.5938 39.9423 67.3706V67.7464C39.9645 68.5231 39.4093 69.1745 38.7209 69.1745Z" fill="#D9D9D9"/>
<path opacity="0.42" d="M33.7599 95.1105H13.9631C13.5044 95.1105 13.1345 94.4172 13.1345 93.5574V93.1136C13.1345 92.2538 13.5044 91.5604 13.9631 91.5604H33.7451C34.2037 91.5604 34.5736 92.2538 34.5736 93.1136V93.5296C34.5884 94.3894 34.2185 95.1105 33.7599 95.1105Z" fill="#D9D9D9"/>
<rect x="54.5583" y="49.2638" width="46.4617" height="47.821" rx="2" fill="#C8C8C8" fill-opacity="0.5"/>
<path opacity="0.42" d="M77.9679 61.7162C80.1723 61.7162 81.9593 59.9479 81.9593 57.7664C81.9593 55.585 80.1723 53.8167 77.9679 53.8167C75.7636 53.8167 73.9766 55.585 73.9766 57.7664C73.9766 59.9479 75.7636 61.7162 77.9679 61.7162Z" fill="white"/>
<rect width="39.3654" height="2.7213" rx="1.36065" transform="matrix(1 0 0 -1 58.1063 77.5143)" fill="#C9C9C9" fill-opacity="0.5"/>
<rect width="34.2856" height="2.7213" rx="1.36065" transform="matrix(1 0 0 -1 60.7218 81.4481)" fill="#C9C9C9" fill-opacity="0.5"/>
<rect width="26.4278" height="2.7213" rx="1.36065" transform="matrix(1 0 0 -1 64.4375 73.5804)" fill="#C9C9C9" fill-opacity="0.5"/>
<rect width="29.1615" height="2.7213" rx="1.36065" transform="matrix(1 0 0 -1 63.3591 85.3819)" fill="#C9C9C9" fill-opacity="0.5"/>
<path opacity="0.42" d="M92.8343 69.1745H63.1227C62.4343 69.1745 61.8792 68.5482 61.8792 67.7714V67.3706C61.8792 66.5938 62.4343 65.9675 63.1227 65.9675H92.8121C93.5005 65.9675 94.0557 66.5938 94.0557 67.3706V67.7464C94.0779 68.5231 93.5227 69.1745 92.8343 69.1745Z" fill="#D9D9D9"/>
<path opacity="0.42" d="M87.8733 95.1105H68.0765C67.6178 95.1105 67.2479 94.4172 67.2479 93.5574V93.1136C67.2479 92.2538 67.6178 91.5604 68.0765 91.5604H87.8585C88.3171 91.5604 88.687 92.2538 88.687 93.1136V93.5296C88.7018 94.3894 88.3319 95.1105 87.8733 95.1105Z" fill="#D9D9D9"/>
<rect x="108.548" y="49.2638" width="46.4617" height="47.821" rx="2" fill="#C8C8C8" fill-opacity="0.5"/>
<path opacity="0.42" d="M132.082 61.7162C134.286 61.7162 136.073 59.9479 136.073 57.7664C136.073 55.585 134.286 53.8167 132.082 53.8167C129.878 53.8167 128.091 55.585 128.091 57.7664C128.091 59.9479 129.878 61.7162 132.082 61.7162Z" fill="white"/>
<rect width="39.3654" height="2.7213" rx="1.36065" transform="matrix(1 0 0 -1 112.097 77.5143)" fill="#C9C9C9" fill-opacity="0.5"/>
<rect width="34.2856" height="2.7213" rx="1.36065" transform="matrix(1 0 0 -1 114.712 81.4481)" fill="#C9C9C9" fill-opacity="0.5"/>
<rect width="26.4278" height="2.7213" rx="1.36065" transform="matrix(1 0 0 -1 118.428 73.5804)" fill="#C9C9C9" fill-opacity="0.5"/>
<rect width="29.1615" height="2.7213" rx="1.36065" transform="matrix(1 0 0 -1 117.349 85.3819)" fill="#C9C9C9" fill-opacity="0.5"/>
<path opacity="0.42" d="M146.948 69.1745H117.237C116.548 69.1745 115.993 68.5482 115.993 67.7714V67.3706C115.993 66.5938 116.548 65.9675 117.237 65.9675H146.926C147.615 65.9675 148.17 66.5938 148.17 67.3706V67.7464C148.192 68.5231 147.637 69.1745 146.948 69.1745Z" fill="#D9D9D9"/>
<path opacity="0.42" d="M141.988 95.1105H122.191C121.732 95.1105 121.362 94.4172 121.362 93.5574V93.1136C121.362 92.2538 121.732 91.5604 122.191 91.5604H141.973C142.431 91.5604 142.801 92.2538 142.801 93.1136V93.5296C142.816 94.3894 142.446 95.1105 141.988 95.1105Z" fill="#D9D9D9"/>
<rect x="162.538" y="49.2638" width="46.4617" height="47.821" rx="2" fill="#C8C8C8" fill-opacity="0.5"/>
<path opacity="0.42" d="M186.196 61.7162C188.4 61.7162 190.187 59.9479 190.187 57.7664C190.187 55.585 188.4 53.8167 186.196 53.8167C183.991 53.8167 182.204 55.585 182.204 57.7664C182.204 59.9479 183.991 61.7162 186.196 61.7162Z" fill="white"/>
<rect width="39.3654" height="2.7213" rx="1.36065" transform="matrix(1 0 0 -1 166.087 77.5143)" fill="#C9C9C9" fill-opacity="0.5"/>
<rect width="34.2856" height="2.7213" rx="1.36065" transform="matrix(1 0 0 -1 168.702 81.4481)" fill="#C9C9C9" fill-opacity="0.5"/>
<rect width="26.4278" height="2.7213" rx="1.36065" transform="matrix(1 0 0 -1 172.417 73.5804)" fill="#C9C9C9" fill-opacity="0.5"/>
<rect width="29.1615" height="2.7213" rx="1.36065" transform="matrix(1 0 0 -1 171.339 85.3819)" fill="#C9C9C9" fill-opacity="0.5"/>
<path opacity="0.42" d="M201.062 69.1745H171.351C170.662 69.1745 170.107 68.5482 170.107 67.7714V67.3706C170.107 66.5938 170.662 65.9675 171.351 65.9675H201.04C201.729 65.9675 202.284 66.5938 202.284 67.3706V67.7464C202.306 68.5231 201.751 69.1745 201.062 69.1745Z" fill="#D9D9D9"/>
<path opacity="0.42" d="M196.101 95.1105H176.305C175.846 95.1105 175.476 94.4172 175.476 93.5574V93.1136C175.476 92.2538 175.846 91.5604 176.305 91.5604H196.087C196.545 91.5604 196.915 92.2538 196.915 93.1136V93.5296C196.93 94.3894 196.56 95.1105 196.101 95.1105Z" fill="#D9D9D9"/>
<rect x="74.4869" y="8.67139" width="67.7801" height="5.50813" rx="2.75407" fill="#C8C8C8" fill-opacity="0.5"/>
<rect x="58.1425" y="21.4545" width="100.469" height="4.2009" rx="2.10045" fill="#C9C9C9" fill-opacity="0.5"/>
<rect x="44.4606" y="28.8048" width="127.833" height="4.48386" rx="2.24193" fill="#C9C9C9" fill-opacity="0.5"/>
</svg>
