<svg width="210" height="109" viewBox="0 0 210 109" fill="none" xmlns="http://www.w3.org/2000/svg">
<path opacity="0.42" d="M24.9114 15.5095H1.35048C0.804605 15.5095 0.36438 14.811 0.36438 13.9448V13.4978C0.36438 12.6316 0.804605 11.933 1.35048 11.933H24.8937C25.4396 11.933 25.8798 12.6316 25.8798 13.4978V13.9169C25.8975 14.7831 25.4572 15.5095 24.9114 15.5095Z" fill="#D9D9D9"/>
<path opacity="0.2" d="M95.8906 25.4992H2.27901C1.21912 25.4992 0.36438 24.7515 0.36438 23.8243V23.4953C0.36438 22.5681 1.21912 21.8204 2.27901 21.8204H95.8564C96.9163 21.8204 97.7711 22.5681 97.7711 23.4953V23.8243C97.8053 24.7515 96.9505 25.4992 95.8906 25.4992ZM95.8906 33.2457H2.27901C1.21912 33.2457 0.36438 32.4979 0.36438 31.5707V31.2417C0.36438 30.3146 1.21912 29.5668 2.27901 29.5668H95.8564C96.9163 29.5668 97.7711 30.3146 97.7711 31.2417V31.5707C97.8053 32.4979 96.9505 33.2457 95.8906 33.2457ZM77.2914 40.9921H2.27901C1.21912 40.9921 0.36438 40.2444 0.36438 39.3172V38.9882C0.36438 38.061 1.21912 37.3133 2.27901 37.3133H77.2914C78.3513 37.3133 79.206 38.061 79.206 38.9882V39.3172C79.206 40.2444 78.3513 40.9921 77.2914 40.9921Z" fill="white"/>
<rect width="96.7476" height="4.12015" rx="2.06007" transform="matrix(1 0 0 -1 108.909 15.3217)" fill="#C8C8C8" fill-opacity="0.5"/>
<rect width="96.7476" height="4.12015" rx="2.06007" transform="matrix(1 0 0 -1 108.909 23.642)" fill="#C8C8C8" fill-opacity="0.5"/>
<rect width="96.7476" height="4.12015" rx="2.06007" transform="matrix(1 0 0 -1 108.909 31.9624)" fill="#C8C8C8" fill-opacity="0.5"/>
<rect width="96.7476" height="4.12015" rx="2.06007" transform="matrix(1 0 0 -1 108.909 40.2828)" fill="#C8C8C8" fill-opacity="0.5"/>
<path opacity="0.42" d="M34.0932 75.5324H7.7697C7.15981 75.5324 6.66797 74.994 6.66797 74.3265V73.9819C6.66797 73.3144 7.15981 72.776 7.7697 72.776H34.0735C34.6834 72.776 35.1753 73.3144 35.1753 73.9819V74.3049C35.1949 74.9725 34.7031 75.5324 34.0932 75.5324Z" fill="white"/>
<path opacity="0.42" d="M39.7317 82.6022H2.13929C1.26832 82.6022 0.565918 82.0639 0.565918 81.3963V81.0518C0.565918 80.3842 1.26832 79.8459 2.13929 79.8459H39.7036C40.5746 79.8459 41.277 80.3842 41.277 81.0518V81.3748C41.3051 82.0424 40.6027 82.6022 39.7317 82.6022Z" fill="#818181"/>
<path opacity="0.42" d="M38.1376 87.5154H3.73117C2.93401 87.5154 2.29114 86.977 2.29114 86.3095V85.9649C2.29114 85.2974 2.93401 84.759 3.73117 84.759H38.1119C38.9091 84.759 39.5519 85.2974 39.5519 85.9649V86.2879C39.5777 86.9555 38.9348 87.5154 38.1376 87.5154Z" fill="#818181"/>
<path opacity="0.42" d="M35.5466 92.4285H6.3184C5.64121 92.4285 5.09509 91.8901 5.09509 91.2226V90.878C5.09509 90.2105 5.64121 89.6721 6.3184 89.6721H35.5248C36.202 89.6721 36.7481 90.2105 36.7481 90.878V91.201C36.7699 91.8686 36.2238 92.4285 35.5466 92.4285Z" fill="#818181"/>
<path opacity="0.42" d="M32.6677 97.3417H9.19307C8.64918 97.3417 8.21057 96.8033 8.21057 96.1358V95.7912C8.21057 95.1237 8.64918 94.5853 9.19307 94.5853H32.6501C33.194 94.5853 33.6326 95.1237 33.6326 95.7912V96.1142C33.6502 96.7818 33.2115 97.3417 32.6677 97.3417Z" fill="#818181"/>
<circle cx="20.8739" cy="62.922" r="3.80003" fill="#D9D9D9"/>
<path opacity="0.42" d="M89.9752 75.5324H63.6517C63.0418 75.5324 62.5499 74.994 62.5499 74.3265V73.9819C62.5499 73.3144 63.0418 72.776 63.6517 72.776H89.9555C90.5654 72.776 91.0572 73.3144 91.0572 73.9819V74.3049C91.0769 74.9725 90.585 75.5324 89.9752 75.5324Z" fill="white"/>
<path opacity="0.42" d="M95.6137 82.6022H58.0213C57.1503 82.6022 56.4479 82.0639 56.4479 81.3963V81.0518C56.4479 80.3842 57.1503 79.8459 58.0213 79.8459H95.5856C96.4565 79.8459 97.1589 80.3842 97.1589 81.0518V81.3748C97.187 82.0424 96.4846 82.6022 95.6137 82.6022Z" fill="#818181"/>
<path opacity="0.42" d="M93.9833 87.5154H59.5769C58.7797 87.5154 58.1368 86.977 58.1368 86.3095V85.9649C58.1368 85.2974 58.7797 84.759 59.5769 84.759H93.9576C94.7548 84.759 95.3976 85.2974 95.3976 85.9649V86.2879C95.4234 86.9555 94.7805 87.5154 93.9833 87.5154Z" fill="#818181"/>
<path opacity="0.42" d="M91.704 92.4285H62.4757C61.7986 92.4285 61.2524 91.8901 61.2524 91.2226V90.878C61.2524 90.2105 61.7986 89.6721 62.4757 89.6721H91.6821C92.3593 89.6721 92.9054 90.2105 92.9054 90.878V91.201C92.9273 91.8686 92.3812 92.4285 91.704 92.4285Z" fill="#818181"/>
<path opacity="0.42" d="M88.9496 97.3417H65.475C64.9312 97.3417 64.4926 96.8033 64.4926 96.1358V95.7912C64.4926 95.1237 64.9312 94.5853 65.475 94.5853H88.9321C89.476 94.5853 89.9146 95.1237 89.9146 95.7912V96.1142C89.9321 96.7818 89.4935 97.3417 88.9496 97.3417Z" fill="#818181"/>
<circle cx="76.6278" cy="62.922" r="3.80003" fill="#D9D9D9"/>
<path opacity="0.42" d="M145.857 76.3359H119.534C118.924 76.3359 118.432 75.7975 118.432 75.13V74.7854C118.432 74.1179 118.924 73.5795 119.534 73.5795H145.838C146.447 73.5795 146.939 74.1179 146.939 74.7854V75.1084C146.959 75.776 146.467 76.3359 145.857 76.3359Z" fill="white"/>
<path opacity="0.42" d="M151.496 83.4058H113.903C113.032 83.4058 112.33 82.8675 112.33 82.1999V81.8554C112.33 81.1878 113.032 80.6495 113.903 80.6495H151.468C152.339 80.6495 153.041 81.1878 153.041 81.8554V82.1784C153.069 82.8459 152.367 83.4058 151.496 83.4058Z" fill="#818181"/>
<path opacity="0.42" d="M149.865 88.3189H115.459C114.662 88.3189 114.019 87.7806 114.019 87.113V86.7685C114.019 86.1009 114.662 85.5626 115.459 85.5626H149.84C150.637 85.5626 151.28 86.1009 151.28 86.7685V87.0915C151.305 87.759 150.663 88.3189 149.865 88.3189Z" fill="#818181"/>
<path opacity="0.42" d="M147.586 93.2321H118.358C117.681 93.2321 117.135 92.6937 117.135 92.0262V91.6816C117.135 91.0141 117.681 90.4757 118.358 90.4757H147.564C148.241 90.4757 148.788 91.0141 148.788 91.6816V92.0046C148.809 92.6722 148.263 93.2321 147.586 93.2321Z" fill="#818181"/>
<path opacity="0.42" d="M144.832 98.1453H121.357C120.813 98.1453 120.375 97.6069 120.375 96.9394V96.5948C120.375 95.9273 120.813 95.3889 121.357 95.3889H144.814C145.358 95.3889 145.797 95.9273 145.797 96.5948V96.9178C145.814 97.5854 145.376 98.1453 144.832 98.1453Z" fill="#818181"/>
<circle cx="132.382" cy="63.7045" r="3.80003" fill="#D9D9D9"/>
<path opacity="0.42" d="M201.739 76.3359H175.416C174.806 76.3359 174.314 75.7975 174.314 75.13V74.7854C174.314 74.1179 174.806 73.5795 175.416 73.5795H201.72C202.329 73.5795 202.821 74.1179 202.821 74.7854V75.1084C202.841 75.776 202.349 76.3359 201.739 76.3359Z" fill="white"/>
<path opacity="0.42" d="M207.378 83.4058H169.785C168.914 83.4058 168.212 82.8675 168.212 82.1999V81.8554C168.212 81.1878 168.914 80.6495 169.785 80.6495H207.35C208.221 80.6495 208.923 81.1878 208.923 81.8554V82.1784C208.951 82.8459 208.249 83.4058 207.378 83.4058Z" fill="#818181"/>
<path opacity="0.42" d="M205.747 88.3189H171.341C170.544 88.3189 169.901 87.7806 169.901 87.113V86.7685C169.901 86.1009 170.544 85.5626 171.341 85.5626H205.722C206.519 85.5626 207.162 86.1009 207.162 86.7685V87.0915C207.187 87.759 206.544 88.3189 205.747 88.3189Z" fill="#818181"/>
<path opacity="0.42" d="M203.468 93.2321H174.24C173.563 93.2321 173.016 92.6937 173.016 92.0262V91.6816C173.016 91.0141 173.563 90.4757 174.24 90.4757H203.446C204.123 90.4757 204.669 91.0141 204.669 91.6816V92.0046C204.691 92.6722 204.145 93.2321 203.468 93.2321Z" fill="#818181"/>
<path opacity="0.42" d="M200.714 98.1453H177.239C176.695 98.1453 176.257 97.6069 176.257 96.9394V96.5948C176.257 95.9273 176.695 95.3889 177.239 95.3889H200.696C201.24 95.3889 201.679 95.9273 201.679 96.5948V96.9178C201.696 97.5854 201.258 98.1453 200.714 98.1453Z" fill="#818181"/>
<circle cx="188.136" cy="63.7045" r="3.80003" fill="#D9D9D9"/>
</svg>
