<svg width="204" height="108" viewBox="0 0 204 108" fill="none" xmlns="http://www.w3.org/2000/svg">
<g clip-path="url(#clip0_419_135)">
<path opacity="0.2" d="M198.227 102.51H115.857C113.112 102.51 110.897 100.282 110.897 97.5221V11.0578C110.897 8.29758 113.112 6.06946 115.857 6.06946H198.227C200.971 6.06946 203.187 8.29758 203.187 11.0578V97.5221C203.187 100.282 200.971 102.51 198.227 102.51Z" fill="white"/>
<path opacity="0.42" d="M133.217 72.9463H180.801C182.454 72.9463 183.777 71.5828 183.777 69.8535C183.777 69.0222 183.479 68.224 182.884 67.6254L170.98 55.1879C169.822 53.9907 167.938 53.9907 166.78 55.1879L162.911 59.245L153.124 49.0356C151.966 47.8384 150.081 47.8384 148.924 49.0356L131.068 67.6919C129.91 68.9224 129.944 70.8845 131.101 72.0817C131.729 72.6138 132.457 72.9131 133.217 72.9463Z" fill="white"/>
<path opacity="0.42" d="M171.872 48.0712C175.16 48.0712 177.825 45.287 177.825 41.8524C177.825 38.4179 175.16 35.6337 171.872 35.6337C168.585 35.6337 165.92 38.4179 165.92 41.8524C165.92 45.287 168.585 48.0712 171.872 48.0712Z" fill="white"/>
<path opacity="0.42" d="M46.3885 10.325H2.14484C1.11977 10.325 0.293091 9.49382 0.293091 8.46318V7.93124C0.293091 6.90061 1.11977 6.06946 2.14484 6.06946H46.3554C47.3805 6.06946 48.2071 6.90061 48.2071 7.93124V8.42994C48.2402 9.46057 47.4135 10.325 46.3885 10.325Z" fill="#D9D9D9"/>
<path opacity="0.2" d="M98.9351 19.2525H2.36985C1.34712 19.2525 0.522339 18.6318 0.522339 17.8622V17.5891C0.522339 16.8194 1.34712 16.1987 2.36985 16.1987H98.9351C99.9578 16.1987 100.783 16.8194 100.783 17.5891V17.8622C100.816 18.6318 99.9908 19.2525 98.9351 19.2525ZM75.4454 24.9379H2.36985C1.34712 24.9379 0.522339 24.3173 0.522339 23.5476V23.2745C0.522339 22.5049 1.34712 21.8842 2.36985 21.8842H75.4124C76.4351 21.8842 77.2599 22.5049 77.2599 23.2745V23.5476C77.2929 24.3173 76.4681 24.9379 75.4454 24.9379Z" fill="#C8C8C8" fill-opacity="0.5"/>
<rect x="0.292358" y="38.4756" width="5.52441" height="5.49377" rx="2.74689" fill="#C8C8C8" fill-opacity="0.5"/>
<path opacity="0.2" d="M41.0827 47.2554H8.48164C8.13636 47.2554 7.85791 46.9079 7.85791 46.477V46.3241C7.85791 45.8932 8.13636 45.5457 8.48164 45.5457H41.0827C41.428 45.5457 41.7065 45.8932 41.7065 46.3241V46.477C41.7176 46.9079 41.4392 47.2554 41.0827 47.2554ZM33.1524 50.4385H8.48164C8.13636 50.4385 7.85791 50.091 7.85791 49.6601V49.5072C7.85791 49.0763 8.13636 48.7288 8.48164 48.7288H33.1413C33.4866 48.7288 33.765 49.0763 33.765 49.5072V49.6601C33.7762 50.091 33.4977 50.4385 33.1524 50.4385Z" fill="#D0D0D0"/>
<path opacity="0.42" d="M22.6289 42.1568H8.45129C8.12281 42.1568 7.85791 41.7553 7.85791 41.2575V41.0005C7.85791 40.5027 8.12281 40.1012 8.45129 40.1012H22.6183C22.9468 40.1012 23.2117 40.5027 23.2117 41.0005V41.2414C23.2223 41.7393 22.9574 42.1568 22.6289 42.1568Z" fill="#D9D9D9"/>
<rect x="0.292358" y="54.3021" width="5.52441" height="5.49377" rx="2.74689" fill="#C8C8C8" fill-opacity="0.5"/>
<path opacity="0.2" d="M41.0827 63.2103H8.48164C8.13636 63.2103 7.85791 62.8628 7.85791 62.4319V62.279C7.85791 61.8481 8.13636 61.5006 8.48164 61.5006H41.0827C41.428 61.5006 41.7065 61.8481 41.7065 62.279V62.4319C41.7176 62.8628 41.4392 63.2103 41.0827 63.2103ZM33.1524 66.3934H8.48164C8.13636 66.3934 7.85791 66.0459 7.85791 65.615V65.4621C7.85791 65.0312 8.13636 64.6837 8.48164 64.6837H33.1413C33.4866 64.6837 33.765 65.0312 33.765 65.4621V65.615C33.7762 66.0459 33.4977 66.3934 33.1524 66.3934Z" fill="#D0D0D0"/>
<path opacity="0.42" d="M22.6289 58.1118H8.45129C8.12281 58.1118 7.85791 57.7103 7.85791 57.2124V56.9555C7.85791 56.4576 8.12281 56.0562 8.45129 56.0562H22.6183C22.9468 56.0562 23.2117 56.4576 23.2117 56.9555V57.1964C23.2223 57.6942 22.9574 58.1118 22.6289 58.1118Z" fill="#D9D9D9"/>
<rect x="50.3047" y="54.0139" width="5.52441" height="5.49377" rx="2.74689" fill="#C8C8C8" fill-opacity="0.5"/>
<path opacity="0.2" d="M91.2134 62.9198H58.6123C58.267 62.9198 57.9885 62.5723 57.9885 62.1414V61.9885C57.9885 61.5576 58.267 61.2101 58.6123 61.2101H91.2134C91.5586 61.2101 91.8371 61.5576 91.8371 61.9885V62.1414C91.8482 62.5723 91.5698 62.9198 91.2134 62.9198ZM83.2831 66.1029H58.6123C58.267 66.1029 57.9885 65.7554 57.9885 65.3245V65.1716C57.9885 64.7407 58.267 64.3932 58.6123 64.3932H83.2719C83.6172 64.3932 83.8956 64.7407 83.8956 65.1716V65.3245C83.9068 65.7554 83.6283 66.1029 83.2831 66.1029Z" fill="#D0D0D0"/>
<path opacity="0.42" d="M72.7595 57.8212H58.5819C58.2534 57.8212 57.9885 57.4197 57.9885 56.9219V56.665C57.9885 56.1671 58.2534 55.7656 58.5819 55.7656H72.7489C73.0774 55.7656 73.3423 56.1671 73.3423 56.665V56.9058C73.3529 57.4037 73.088 57.8212 72.7595 57.8212Z" fill="#D9D9D9"/>
<rect x="50.3047" y="38.4756" width="5.52441" height="5.49377" rx="2.74689" fill="#C8C8C8" fill-opacity="0.5"/>
<path opacity="0.2" d="M91.2134 47.2554H58.6123C58.267 47.2554 57.9885 46.9079 57.9885 46.477V46.3241C57.9885 45.8932 58.267 45.5457 58.6123 45.5457H91.2134C91.5586 45.5457 91.8371 45.8932 91.8371 46.3241V46.477C91.8482 46.9079 91.5698 47.2554 91.2134 47.2554ZM83.2831 50.4385H58.6123C58.267 50.4385 57.9885 50.091 57.9885 49.6601V49.5072C57.9885 49.0763 58.267 48.7288 58.6123 48.7288H83.2719C83.6172 48.7288 83.8956 49.0763 83.8956 49.5072V49.6601C83.9068 50.091 83.6283 50.4385 83.2831 50.4385Z" fill="#D0D0D0"/>
<path opacity="0.42" d="M72.7595 42.1568H58.5819C58.2534 42.1568 57.9885 41.7553 57.9885 41.2575V41.0005C57.9885 40.5027 58.2534 40.1012 58.5819 40.1012H72.7489C73.0774 40.1012 73.3423 40.5027 73.3423 41.0005V41.2414C73.3529 41.7393 73.088 42.1568 72.7595 42.1568Z" fill="#D9D9D9"/>
</g>
<defs>
<clipPath id="clip0_419_135">
<rect width="203.48" height="106.86" fill="white" transform="translate(0 0.859985)"/>
</clipPath>
</defs>
</svg>
