<svg width="210" height="109" viewBox="0 0 210 109" fill="none" xmlns="http://www.w3.org/2000/svg">
<g clip-path="url(#clip0_418_2)">
<rect x="74.4167" y="15.944" width="60.1487" height="4.39442" rx="2.19721" fill="#B9B9B9"/>
<rect x="47.771" y="25.7184" width="113.44" height="4.54888" rx="2.27444" fill="#C8C8C8" fill-opacity="0.5"/>
<rect x="56.0962" y="32.5626" width="96.7899" height="4.54888" rx="2.27444" fill="#C8C8C8" fill-opacity="0.5"/>
<rect x="0.299927" y="56.4792" width="5.94418" height="5.91122" rx="2.95561" fill="#C8C8C8" fill-opacity="0.5"/>
<path opacity="0.2" d="M63.001 64.3244H9.72725C9.16303 64.3244 8.70801 63.9338 8.70801 63.4494V63.2775C8.70801 62.7932 9.16303 62.4025 9.72725 62.4025H63.001C63.5652 62.4025 64.0203 62.7932 64.0203 63.2775V63.4494C64.0385 63.9338 63.5834 64.3244 63.001 64.3244ZM50.042 67.9026H9.72725C9.16303 67.9026 8.70801 67.512 8.70801 67.0276V66.8557C8.70801 66.3713 9.16303 65.9807 9.72725 65.9807H50.0238C50.5881 65.9807 51.0431 66.3713 51.0431 66.8557V67.0276C51.0613 67.512 50.6063 67.9026 50.042 67.9026Z" fill="#D0D0D0"/>
<path opacity="0.42" d="M25.07 59.655H9.3653C9.00144 59.655 8.70801 59.0347 8.70801 58.2656V57.8686C8.70801 57.0995 9.00144 56.4792 9.3653 56.4792H25.0583C25.4221 56.4792 25.7156 57.0995 25.7156 57.8686V58.2408C25.7273 59.0099 25.4339 59.655 25.07 59.655Z" fill="#D9D9D9"/>
<rect x="0.299927" y="77.6198" width="5.94418" height="5.91122" rx="2.95561" fill="#C8C8C8" fill-opacity="0.5"/>
<path opacity="0.2" d="M63.001 85.4649H9.72725C9.16303 85.4649 8.70801 85.0743 8.70801 84.5899V84.418C8.70801 83.9337 9.16303 83.543 9.72725 83.543H63.001C63.5652 83.543 64.0203 83.9337 64.0203 84.418V84.5899C64.0385 85.0743 63.5834 85.4649 63.001 85.4649ZM50.042 89.0431H9.72725C9.16303 89.0431 8.70801 88.6525 8.70801 88.1681V87.9962C8.70801 87.5118 9.16303 87.1212 9.72725 87.1212H50.0238C50.5881 87.1212 51.0431 87.5118 51.0431 87.9962V88.1681C51.0613 88.6525 50.6063 89.0431 50.042 89.0431Z" fill="#D0D0D0"/>
<path opacity="0.42" d="M25.07 80.7955H9.3653C9.00144 80.7955 8.70801 80.1752 8.70801 79.4061V79.0091C8.70801 78.24 9.00144 77.6198 9.3653 77.6198H25.0583C25.4221 77.6198 25.7156 78.24 25.7156 79.0091V79.3813C25.7273 80.1504 25.4339 80.7955 25.07 80.7955Z" fill="#D9D9D9"/>
<rect x="70.6301" y="77.6198" width="5.94418" height="5.91122" rx="2.95561" fill="#C8C8C8" fill-opacity="0.5"/>
<path opacity="0.2" d="M135.576 85.4649H82.3024C81.7382 85.4649 81.2832 85.0743 81.2832 84.5899V84.418C81.2832 83.9337 81.7382 83.543 82.3024 83.543H135.576C136.14 83.543 136.595 83.9337 136.595 84.418V84.5899C136.614 85.0743 136.159 85.4649 135.576 85.4649ZM122.617 89.0431H82.3024C81.7382 89.0431 81.2832 88.6525 81.2832 88.1681V87.9962C81.2832 87.5118 81.7382 87.1212 82.3024 87.1212H122.599C123.163 87.1212 123.618 87.5118 123.618 87.9962V88.1681C123.636 88.6525 123.181 89.0431 122.617 89.0431Z" fill="#D0D0D0"/>
<path opacity="0.42" d="M97.6452 80.7955H81.9405C81.5766 80.7955 81.2832 80.1752 81.2832 79.4061V79.0091C81.2832 78.24 81.5766 77.6198 81.9405 77.6198H97.6335C97.9973 77.6198 98.2908 78.24 98.2908 79.0091V79.3813C98.3025 80.1504 98.0091 80.7955 97.6452 80.7955Z" fill="#D9D9D9"/>
<rect x="140.96" y="77.6197" width="5.94418" height="5.91122" rx="2.95561" fill="#C8C8C8" fill-opacity="0.5"/>
<path opacity="0.2" d="M208.151 85.4648H154.878C154.313 85.4648 153.858 85.0742 153.858 84.5898V84.4179C153.858 83.9335 154.313 83.5429 154.878 83.5429H208.151C208.716 83.5429 209.171 83.9335 209.171 84.4179V84.5898C209.189 85.0742 208.734 85.4648 208.151 85.4648ZM195.192 89.043H154.878C154.313 89.043 153.858 88.6523 153.858 88.168V87.9961C153.858 87.5117 154.313 87.1211 154.878 87.1211H195.174C195.738 87.1211 196.193 87.5117 196.193 87.9961V88.168C196.212 88.6523 195.757 89.043 195.192 89.043Z" fill="#D0D0D0"/>
<path opacity="0.42" d="M170.22 80.7954H154.516C154.152 80.7954 153.858 80.1751 153.858 79.406V79.0091C153.858 78.2399 154.152 77.6197 154.516 77.6197H170.209C170.573 77.6197 170.866 78.2399 170.866 79.0091V79.3812C170.878 80.1503 170.584 80.7954 170.22 80.7954Z" fill="#D9D9D9"/>
<rect x="70.6301" y="56.4792" width="5.94418" height="5.91122" rx="2.95561" fill="#C8C8C8" fill-opacity="0.5"/>
<path opacity="0.2" d="M135.576 64.3244H82.3024C81.7382 64.3244 81.2832 63.9338 81.2832 63.4494V63.2775C81.2832 62.7932 81.7382 62.4025 82.3024 62.4025H135.576C136.14 62.4025 136.595 62.7932 136.595 63.2775V63.4494C136.614 63.9338 136.159 64.3244 135.576 64.3244ZM122.617 67.9026H82.3024C81.7382 67.9026 81.2832 67.512 81.2832 67.0276V66.8557C81.2832 66.3713 81.7382 65.9807 82.3024 65.9807H122.599C123.163 65.9807 123.618 66.3713 123.618 66.8557V67.0276C123.636 67.512 123.181 67.9026 122.617 67.9026Z" fill="#D0D0D0"/>
<path opacity="0.42" d="M97.6452 59.655H81.9405C81.5766 59.655 81.2832 59.0347 81.2832 58.2656V57.8686C81.2832 57.0995 81.5766 56.4792 81.9405 56.4792H97.6335C97.9973 56.4792 98.2908 57.0995 98.2908 57.8686V58.2408C98.3025 59.0099 98.0091 59.655 97.6452 59.655Z" fill="#D9D9D9"/>
<rect x="140.96" y="56.4792" width="5.94418" height="5.91122" rx="2.95561" fill="#C8C8C8" fill-opacity="0.5"/>
<path opacity="0.2" d="M208.151 64.3244H154.878C154.313 64.3244 153.858 63.9338 153.858 63.4494V63.2775C153.858 62.7932 154.313 62.4025 154.878 62.4025H208.151C208.716 62.4025 209.171 62.7932 209.171 63.2775V63.4494C209.189 63.9338 208.734 64.3244 208.151 64.3244ZM195.192 67.9026H154.878C154.313 67.9026 153.858 67.512 153.858 67.0276V66.8557C153.858 66.3713 154.313 65.9807 154.878 65.9807H195.174C195.738 65.9807 196.193 66.3713 196.193 66.8557V67.0276C196.212 67.512 195.757 67.9026 195.192 67.9026Z" fill="#D0D0D0"/>
<path opacity="0.42" d="M170.22 59.655H154.516C154.152 59.655 153.858 59.0347 153.858 58.2656V57.8686C153.858 57.0995 154.152 56.4792 154.516 56.4792H170.209C170.573 56.4792 170.866 57.0995 170.866 57.8686V58.2408C170.878 59.0099 170.584 59.655 170.22 59.655Z" fill="#D9D9D9"/>
</g>
<defs>
<clipPath id="clip0_418_2">
<rect width="209.48" height="108.86" fill="white"/>
</clipPath>
</defs>
</svg>
