<svg width="204" height="108" viewBox="0 0 204 108" fill="none" xmlns="http://www.w3.org/2000/svg">
<g clip-path="url(#clip0_424_14)">
<rect x="73.473" y="6.24915" width="61.6658" height="4.50526" rx="2.25263" fill="#DEDEDE"/>
<rect x="46.1553" y="16.2701" width="116.302" height="4.66361" rx="2.33181" fill="#C8C8C8" fill-opacity="0.7"/>
<rect x="54.6904" y="23.287" width="99.2311" height="4.66361" rx="2.33181" fill="#C8C8C8" fill-opacity="0.7"/>
<path opacity="0.42" d="M40.0615 70.592H1.60936C0.718464 70.592 0 69.8173 0 68.8566V68.3608C0 67.4001 0.718464 66.6254 1.60936 66.6254H40.0328C40.9237 66.6254 41.6421 67.4001 41.6421 68.3608V68.8256C41.6709 69.7863 40.9524 70.592 40.0615 70.592Z" fill="#CECECE"/>
<circle cx="20.8214" cy="54.0186" r="5.56367" fill="#C8C8C8" fill-opacity="0.7"/>
<path opacity="0.42" d="M94.0072 70.592H55.555C54.6641 70.592 53.9457 69.8173 53.9457 68.8566V68.3608C53.9457 67.4001 54.6641 66.6254 55.555 66.6254H93.9785C94.8694 66.6254 95.5878 67.4001 95.5878 68.3608V68.8256C95.6166 69.7863 94.8981 70.592 94.0072 70.592Z" fill="#CECECE"/>
<circle cx="74.767" cy="54.0186" r="5.56367" fill="#C8C8C8" fill-opacity="0.7"/>
<path opacity="0.42" d="M147.953 70.592H109.501C108.61 70.592 107.891 69.8173 107.891 68.8566V68.3608C107.891 67.4001 108.61 66.6254 109.501 66.6254H147.924C148.815 66.6254 149.534 67.4001 149.534 68.3608V68.8256C149.562 69.7863 148.844 70.592 147.953 70.592Z" fill="#CECECE"/>
<circle cx="128.713" cy="54.0186" r="5.56367" fill="#C8C8C8" fill-opacity="0.7"/>
<path opacity="0.42" d="M201.899 70.592H163.446C162.555 70.592 161.837 69.8173 161.837 68.8566V68.3608C161.837 67.4001 162.555 66.6254 163.446 66.6254H201.87C202.761 66.6254 203.479 67.4001 203.479 68.3608V68.8256C203.508 69.7863 202.789 70.592 201.899 70.592Z" fill="#CECECE"/>
<circle cx="182.658" cy="54.0186" r="5.56367" fill="#C8C8C8" fill-opacity="0.7"/>
<path opacity="0.42" d="M40.0615 100.931H1.60936C0.718464 100.931 0 100.156 0 99.1954V98.6995C0 97.7388 0.718464 96.9641 1.60936 96.9641H40.0328C40.9237 96.9641 41.6421 97.7388 41.6421 98.6995V99.1644C41.6709 100.125 40.9524 100.931 40.0615 100.931Z" fill="#CECECE"/>
<circle cx="20.8214" cy="84.3574" r="5.56367" fill="#C8C8C8" fill-opacity="0.7"/>
<path opacity="0.42" d="M94.0072 100.931H55.555C54.6641 100.931 53.9457 100.156 53.9457 99.1954V98.6995C53.9457 97.7388 54.6641 96.9641 55.555 96.9641H93.9785C94.8694 96.9641 95.5878 97.7388 95.5878 98.6995V99.1644C95.6166 100.125 94.8981 100.931 94.0072 100.931Z" fill="#CECECE"/>
<circle cx="74.767" cy="84.3574" r="5.56367" fill="#C8C8C8" fill-opacity="0.7"/>
<path opacity="0.42" d="M147.953 100.931H109.501C108.61 100.931 107.891 100.156 107.891 99.1954V98.6995C107.891 97.7388 108.61 96.9641 109.501 96.9641H147.924C148.815 96.9641 149.534 97.7388 149.534 98.6995V99.1644C149.562 100.125 148.844 100.931 147.953 100.931Z" fill="#CECECE"/>
<circle cx="128.713" cy="84.3574" r="5.56367" fill="#C8C8C8" fill-opacity="0.7"/>
<path opacity="0.42" d="M201.899 100.931H163.446C162.555 100.931 161.837 100.156 161.837 99.1954V98.6995C161.837 97.7388 162.555 96.9641 163.446 96.9641H201.87C202.761 96.9641 203.479 97.7388 203.479 98.6995V99.1644C203.508 100.125 202.789 100.931 201.899 100.931Z" fill="#CECECE"/>
<circle cx="182.658" cy="84.3574" r="5.56367" fill="#C8C8C8" fill-opacity="0.7"/>
</g>
<defs>
<clipPath id="clip0_424_14">
<rect width="203.48" height="106.86" fill="white" transform="translate(0 0.159912)"/>
</clipPath>
</defs>
</svg>
