<svg width="210" height="109" viewBox="0 0 210 109" fill="none" xmlns="http://www.w3.org/2000/svg">
<g clip-path="url(#clip0_410_160)">
<path opacity="0.42" d="M8.06526 60.705C12.2512 60.705 15.6446 57.4304 15.6446 53.3909C15.6446 49.3515 12.2512 46.0768 8.06526 46.0768C3.87933 46.0768 0.485962 49.3515 0.485962 53.3909C0.485962 57.4304 3.87933 60.705 8.06526 60.705Z" fill="white"/>
<path opacity="0.42" d="M23.2567 71.9306H2.26532C1.24376 71.9306 0.419922 71.1356 0.419922 70.1498V69.7682C0.419922 68.7824 1.24376 67.9874 2.26532 67.9874H23.2567C24.2782 67.9874 25.1021 68.7824 25.1021 69.7682V70.118C25.135 71.1356 24.2782 71.9306 23.2567 71.9306Z" fill="white"/>
<path opacity="0.42" d="M23.2567 96.9696H2.26532C1.24376 96.9696 0.419922 96.1746 0.419922 95.1888V94.8072C0.419922 93.8214 1.24376 93.0264 2.26532 93.0264H23.2567C24.2782 93.0264 25.1021 93.8214 25.1021 94.8072V95.157C25.135 96.1746 24.2782 96.9696 23.2567 96.9696Z" fill="white"/>
<path opacity="0.2" d="M38.8437 79.156H2.26532C1.24376 79.156 0.419922 78.4712 0.419922 77.622V77.3207C0.419922 76.4715 1.24376 75.7866 2.26532 75.7866H38.8437C39.8652 75.7866 40.6891 76.4715 40.6891 77.3207V77.622C40.6891 78.4712 39.8652 79.156 38.8437 79.156ZM30.836 86.2783H2.26532C1.24376 86.2783 0.419922 85.5935 0.419922 84.7443V84.443C0.419922 83.5938 1.24376 82.9089 2.26532 82.9089H30.836C31.8575 82.9089 32.6814 83.5938 32.6814 84.443V84.7443C32.7143 85.5935 31.8575 86.2783 30.836 86.2783Z" fill="white"/>
<path opacity="0.42" d="M65.3159 60.705C69.5018 60.705 72.8952 57.4304 72.8952 53.3909C72.8952 49.3515 69.5018 46.0768 65.3159 46.0768C61.1299 46.0768 57.7366 49.3515 57.7366 53.3909C57.7366 57.4304 61.1299 60.705 65.3159 60.705Z" fill="white"/>
<path opacity="0.42" d="M80.5075 71.9306H59.5162C58.4946 71.9306 57.6708 71.1356 57.6708 70.1498V69.7682C57.6708 68.7824 58.4946 67.9874 59.5162 67.9874H80.5075C81.5291 67.9874 82.3529 68.7824 82.3529 69.7682V70.118C82.3859 71.1356 81.5291 71.9306 80.5075 71.9306Z" fill="white"/>
<path opacity="0.42" d="M80.5075 96.9696H59.5162C58.4946 96.9696 57.6708 96.1746 57.6708 95.1888V94.8072C57.6708 93.8214 58.4946 93.0264 59.5162 93.0264H80.5075C81.5291 93.0264 82.3529 93.8214 82.3529 94.8072V95.157C82.3859 96.1746 81.5291 96.9696 80.5075 96.9696Z" fill="white"/>
<path opacity="0.2" d="M96.0945 79.156H59.5162C58.4946 79.156 57.6708 78.4712 57.6708 77.622V77.3207C57.6708 76.4715 58.4946 75.7866 59.5162 75.7866H96.0945C97.1161 75.7866 97.9399 76.4715 97.9399 77.3207V77.622C97.9399 78.4712 97.1161 79.156 96.0945 79.156ZM88.0868 86.2783H59.5162C58.4946 86.2783 57.6708 85.5935 57.6708 84.7443V84.443C57.6708 83.5938 58.4946 82.9089 59.5162 82.9089H88.0868C89.1084 82.9089 89.9322 83.5938 89.9322 84.443V84.7443C89.9652 85.5935 89.1084 86.2783 88.0868 86.2783Z" fill="white"/>
<path opacity="0.42" d="M122.567 60.705C126.753 60.705 130.146 57.4304 130.146 53.3909C130.146 49.3515 126.753 46.0768 122.567 46.0768C118.381 46.0768 114.988 49.3515 114.988 53.3909C114.988 57.4304 118.381 60.705 122.567 60.705Z" fill="white"/>
<path opacity="0.42" d="M137.758 71.9306H116.767C115.745 71.9306 114.922 71.1356 114.922 70.1498V69.7682C114.922 68.7824 115.745 67.9874 116.767 67.9874H137.758C138.78 67.9874 139.604 68.7824 139.604 69.7682V70.118C139.637 71.1356 138.78 71.9306 137.758 71.9306Z" fill="white"/>
<path opacity="0.42" d="M137.758 96.9696H116.767C115.745 96.9696 114.922 96.1746 114.922 95.1888V94.8072C114.922 93.8214 115.745 93.0264 116.767 93.0264H137.758C138.78 93.0264 139.604 93.8214 139.604 94.8072V95.157C139.637 96.1746 138.78 96.9696 137.758 96.9696Z" fill="white"/>
<path opacity="0.2" d="M153.345 79.156H116.767C115.745 79.156 114.922 78.4712 114.922 77.622V77.3207C114.922 76.4715 115.745 75.7866 116.767 75.7866H153.345C154.367 75.7866 155.191 76.4715 155.191 77.3207V77.622C155.191 78.4712 154.367 79.156 153.345 79.156ZM145.338 86.2783H116.767C115.745 86.2783 114.922 85.5935 114.922 84.7443V84.443C114.922 83.5938 115.745 82.9089 116.767 82.9089H145.338C146.359 82.9089 147.183 83.5938 147.183 84.443V84.7443C147.216 85.5935 146.359 86.2783 145.338 86.2783Z" fill="white"/>
<path opacity="0.42" d="M179.176 60.705C183.01 60.705 186.119 57.4304 186.119 53.3909C186.119 49.3515 183.01 46.0768 179.176 46.0768C175.341 46.0768 172.233 49.3515 172.233 53.3909C172.233 57.4304 175.341 60.705 179.176 60.705Z" fill="white"/>
<path opacity="0.42" d="M193.092 71.9306H173.863C172.927 71.9306 172.172 71.1356 172.172 70.1498V69.7682C172.172 68.7824 172.927 67.9874 173.863 67.9874H193.092C194.027 67.9874 194.782 68.7824 194.782 69.7682V70.118C194.812 71.1356 194.027 71.9306 193.092 71.9306Z" fill="white"/>
<path opacity="0.42" d="M193.092 96.9696H173.863C172.927 96.9696 172.172 96.1746 172.172 95.1888V94.8072C172.172 93.8214 172.927 93.0264 173.863 93.0264H193.092C194.027 93.0264 194.782 93.8214 194.782 94.8072V95.157C194.812 96.1746 194.027 96.9696 193.092 96.9696Z" fill="white"/>
<path opacity="0.2" d="M207.37 79.156H173.863C172.927 79.156 172.172 78.4712 172.172 77.622V77.3207C172.172 76.4715 172.927 75.7866 173.863 75.7866H207.37C208.306 75.7866 209.06 76.4715 209.06 77.3207V77.622C209.06 78.4712 208.306 79.156 207.37 79.156ZM200.035 86.2783H173.863C172.927 86.2783 172.172 85.5935 172.172 84.7443V84.443C172.172 83.5938 172.927 82.9089 173.863 82.9089H200.035C200.97 82.9089 201.725 83.5938 201.725 84.443V84.7443C201.755 85.5935 200.97 86.2783 200.035 86.2783Z" fill="white"/>
<path opacity="0.42" d="M58.3747 16.0819H2.21623C1.27469 16.0819 0.515381 15.2869 0.515381 14.3011V13.9513C0.515381 12.9655 1.27469 12.1704 2.21623 12.1704H58.3747C59.3163 12.1704 60.0756 12.9655 60.0756 13.9513V14.3011C60.106 15.2869 59.3163 16.0819 58.3747 16.0819Z" fill="white"/>
<path opacity="0.2" d="M85.1546 25.7774H2.21241C1.27298 25.7774 0.515381 24.9823 0.515381 23.9965V23.6467C0.515381 22.6609 1.27298 21.8659 2.21241 21.8659H85.1546C86.094 21.8659 86.8516 22.6609 86.8516 23.6467V23.9965C86.8516 24.9823 86.094 25.7774 85.1546 25.7774Z" fill="white"/>
<path opacity="0.2" d="M96.1622 32.5808H2.43311C1.37151 32.5808 0.515381 31.7858 0.515381 30.8V30.4502C0.515381 29.4644 1.37151 28.6694 2.43311 28.6694H96.1622C97.2238 28.6694 98.0799 29.4644 98.0799 30.4502V30.8C98.0799 31.7858 97.2238 32.5808 96.1622 32.5808Z" fill="white"/>
</g>
<defs>
<clipPath id="clip0_410_160">
<rect width="209.48" height="108.86" fill="white" transform="translate(0 0.140015)"/>
</clipPath>
</defs>
</svg>
