<svg width="204" height="108" viewBox="0 0 204 108" fill="none" xmlns="http://www.w3.org/2000/svg">
<rect x="0.58252" y="6.41785" width="41.7346" height="42.9556" rx="2" fill="#C8C8C8" fill-opacity="0.5"/>
<path opacity="0.42" d="M21.4497 17.4108C23.4253 17.4108 25.0268 15.8495 25.0268 13.9235C25.0268 11.9975 23.4253 10.4362 21.4497 10.4362C19.4742 10.4362 17.8727 11.9975 17.8727 13.9235C17.8727 15.8495 19.4742 17.4108 21.4497 17.4108Z" fill="white"/>
<rect width="35.3603" height="2.44443" rx="1.22221" transform="matrix(1 0 0 -1 3.76965 30.7969)" fill="#D5D5D5"/>
<rect width="30.7973" height="2.44443" rx="1.22221" transform="matrix(1 0 0 -1 6.1189 34.3304)" fill="#D5D5D5"/>
<rect width="26.1945" height="2.44443" rx="1.22221" transform="matrix(1 0 0 -1 8.48792 37.8641)" fill="#D5D5D5"/>
<path opacity="0.42" d="M34.7733 23.9959H8.14571C7.52878 23.9959 7.03125 23.4428 7.03125 22.7571V22.4031C7.03125 21.7173 7.52878 21.1643 8.14571 21.1643H34.7534C35.3703 21.1643 35.8678 21.7173 35.8678 22.4031V22.7349C35.8877 23.4207 35.3902 23.9959 34.7733 23.9959Z" fill="#EDEDED"/>
<path opacity="0.42" d="M30.3272 45.355H12.5853C12.1743 45.355 11.8428 44.7428 11.8428 43.9837V43.5919C11.8428 42.8328 12.1743 42.2206 12.5853 42.2206H30.3139C30.725 42.2206 31.0565 42.8328 31.0565 43.5919V43.9592C31.0698 44.7183 30.7383 45.355 30.3272 45.355Z" fill="#EDEDED"/>
<rect x="51.1655" y="58.0865" width="41.7346" height="42.9556" rx="2" fill="#C8C8C8" fill-opacity="0.5"/>
<path opacity="0.42" d="M72.0327 69.0795C74.0083 69.0795 75.6098 67.5182 75.6098 65.5922C75.6098 63.6662 74.0083 62.1049 72.0327 62.1049C70.0572 62.1049 68.4557 63.6662 68.4557 65.5922C68.4557 67.5182 70.0572 69.0795 72.0327 69.0795Z" fill="white"/>
<rect width="35.3603" height="2.44443" rx="1.22221" transform="matrix(1 0 0 -1 54.3527 82.4656)" fill="#D5D5D5"/>
<rect width="30.7973" height="2.44443" rx="1.22221" transform="matrix(1 0 0 -1 56.7019 85.9991)" fill="#D5D5D5"/>
<rect width="26.1945" height="2.44443" rx="1.22221" transform="matrix(1 0 0 -1 59.0709 89.5327)" fill="#D5D5D5"/>
<path opacity="0.42" d="M85.3563 75.6646H58.7287C58.1118 75.6646 57.6143 75.1115 57.6143 74.4258V74.0718C57.6143 73.386 58.1118 72.833 58.7287 72.833H85.3364C85.9533 72.833 86.4508 73.386 86.4508 74.0718V74.4036C86.4707 75.0894 85.9732 75.6646 85.3563 75.6646Z" fill="#EDEDED"/>
<path opacity="0.42" d="M80.9102 97.0237H63.1683C62.7573 97.0237 62.4258 96.4115 62.4258 95.6524V95.2606C62.4258 94.5015 62.7573 93.8893 63.1683 93.8893H80.897C81.308 93.8893 81.6395 94.5015 81.6395 95.2606V95.6279C81.6528 96.387 81.3213 97.0237 80.9102 97.0237Z" fill="#EDEDED"/>
<rect x="0.717773" y="58.0865" width="41.7346" height="42.9556" rx="2" fill="#C8C8C8" fill-opacity="0.5"/>
<path opacity="0.42" d="M21.5851 69.0795C23.5607 69.0795 25.1622 67.5182 25.1622 65.5922C25.1622 63.6662 23.5607 62.1049 21.5851 62.1049C19.6096 62.1049 18.0081 63.6662 18.0081 65.5922C18.0081 67.5182 19.6096 69.0795 21.5851 69.0795Z" fill="white"/>
<rect width="35.3603" height="2.44443" rx="1.22221" transform="matrix(1 0 0 -1 3.90491 82.4656)" fill="#D5D5D5"/>
<rect width="30.7973" height="2.44443" rx="1.22221" transform="matrix(1 0 0 -1 6.25415 85.9991)" fill="#D5D5D5"/>
<rect width="26.1945" height="2.44443" rx="1.22221" transform="matrix(1 0 0 -1 8.62329 89.5327)" fill="#D5D5D5"/>
<path opacity="0.42" d="M34.9087 75.6646H8.28108C7.66415 75.6646 7.16663 75.1115 7.16663 74.4258V74.0718C7.16663 73.386 7.66415 72.833 8.28108 72.833H34.8888C35.5057 72.833 36.0032 73.386 36.0032 74.0718V74.4036C36.0231 75.0894 35.5256 75.6646 34.9087 75.6646Z" fill="#EDEDED"/>
<path opacity="0.42" d="M30.4626 97.0237H12.7207C12.3096 97.0237 11.9781 96.4115 11.9781 95.6524V95.2606C11.9781 94.5015 12.3096 93.8893 12.7207 93.8893H30.4493C30.8604 93.8893 31.1919 94.5015 31.1919 95.2606V95.6279C31.2051 96.387 30.8736 97.0237 30.4626 97.0237Z" fill="#EDEDED"/>
<rect x="51.0302" y="6.41785" width="41.7346" height="42.9556" rx="2" fill="#C8C8C8" fill-opacity="0.5"/>
<path opacity="0.42" d="M71.8974 17.4108C73.8729 17.4108 75.4744 15.8495 75.4744 13.9235C75.4744 11.9975 73.8729 10.4362 71.8974 10.4362C69.9218 10.4362 68.3203 11.9975 68.3203 13.9235C68.3203 15.8495 69.9218 17.4108 71.8974 17.4108Z" fill="white"/>
<rect width="35.3603" height="2.44443" rx="1.22221" transform="matrix(1 0 0 -1 54.2173 30.7969)" fill="#D5D5D5"/>
<rect width="30.7973" height="2.44443" rx="1.22221" transform="matrix(1 0 0 -1 56.5665 34.3304)" fill="#D5D5D5"/>
<rect width="26.1945" height="2.44443" rx="1.22221" transform="matrix(1 0 0 -1 58.9355 37.8641)" fill="#D5D5D5"/>
<path opacity="0.42" d="M85.221 23.9959H58.5935C57.9765 23.9959 57.479 23.4428 57.479 22.7571V22.4031C57.479 21.7173 57.9765 21.1643 58.5935 21.1643H85.2011C85.8181 21.1643 86.3156 21.7173 86.3156 22.4031V22.7349C86.3355 23.4207 85.838 23.9959 85.221 23.9959Z" fill="#EDEDED"/>
<path opacity="0.42" d="M80.775 45.355H63.0331C62.622 45.355 62.2905 44.7428 62.2905 43.9837V43.5919C62.2905 42.8328 62.622 42.2206 63.0331 42.2206H80.7617C81.1728 42.2206 81.5043 42.8328 81.5043 43.5919V43.9592C81.5175 44.7183 81.186 45.355 80.775 45.355Z" fill="#EDEDED"/>
<path opacity="0.42" d="M128.617 10.4361H104.146C103.579 10.4361 103.122 9.72338 103.122 8.83957V8.38342C103.122 7.49961 103.579 6.78687 104.146 6.78687H128.599C129.166 6.78687 129.623 7.49961 129.623 8.38342V8.81106C129.641 9.69487 129.184 10.4361 128.617 10.4361Z" fill="#D9D9D9"/>
<path opacity="0.2" d="M201.063 20.2701H105.205C104.19 20.2701 103.371 19.5996 103.371 18.7681V18.473C103.371 17.6415 104.19 16.9709 105.205 16.9709H201.063C202.078 16.9709 202.897 17.6415 202.897 18.473V18.7681C202.929 19.5996 202.111 20.2701 201.063 20.2701ZM177.745 26.4126H105.205C104.19 26.4126 103.371 25.742 103.371 24.9105V24.6154C103.371 23.7839 104.19 23.1134 105.205 23.1134H177.712C178.728 23.1134 179.546 23.7839 179.546 24.6154V24.9105C179.579 25.742 178.76 26.4126 177.745 26.4126Z" fill="#C8C8C8" fill-opacity="0.5"/>
<path opacity="0.2" d="M200.975 36.3047H105.327C104.244 36.3047 103.371 35.6223 103.371 34.7762V34.476C103.371 33.6299 104.244 32.9475 105.327 32.9475H200.94C202.023 32.9475 202.897 33.6299 202.897 34.476V34.7762C202.932 35.6223 202.058 36.3047 200.975 36.3047ZM200.975 43.3739H105.327C104.244 43.3739 103.371 42.6916 103.371 41.8454V41.5452C103.371 40.6991 104.244 40.0167 105.327 40.0167H200.94C202.023 40.0167 202.897 40.6991 202.897 41.5452V41.8454C202.932 42.6916 202.058 43.3739 200.975 43.3739ZM181.971 50.4431H105.327C104.244 50.4431 103.371 49.7608 103.371 48.9147V48.6144C103.371 47.7683 104.244 47.0859 105.327 47.0859H181.971C183.054 47.0859 183.928 47.7683 183.928 48.6144V48.9147C183.928 49.7608 183.054 50.4431 181.971 50.4431Z" fill="white"/>
<rect x="103.122" y="56.978" width="27.3997" height="6.72894" rx="3.36447" fill="#C8C8C8" fill-opacity="0.5"/>
</svg>
