<svg width="204" height="108" viewBox="0 0 204 108" fill="none" xmlns="http://www.w3.org/2000/svg">
<g clip-path="url(#clip0_481_1006)">
<path opacity="0.42" d="M129.819 5.58552H73.6603C72.7188 5.58552 71.9595 4.79051 71.9595 3.8047V3.45489C71.9595 2.46908 72.7188 1.67407 73.6603 1.67407H129.819C130.76 1.67407 131.52 2.46908 131.52 3.45489V3.8047C131.55 4.79051 130.76 5.58552 129.819 5.58552Z" fill="white"/>
<path opacity="0.2" d="M141.11 13.4969H62.3703C61.4785 13.4969 60.7593 12.7019 60.7593 11.7161V11.3663C60.7593 10.3805 61.4785 9.58545 62.3703 9.58545H141.11C142.001 9.58545 142.721 10.3805 142.721 11.3663V11.7161C142.721 12.7019 142.001 13.4969 141.11 13.4969Z" fill="#F9F9F9"/>
<path opacity="0.2" d="M130.365 20.8182H73.1153C72.4669 20.8182 71.944 20.0232 71.944 19.0374V18.6876C71.944 17.7017 72.4669 16.9067 73.1153 16.9067H130.365C131.013 16.9067 131.536 17.7017 131.536 18.6876V19.0374C131.536 20.0232 131.013 20.8182 130.365 20.8182Z" fill="#F9F9F9"/>
<path opacity="0.2" d="M45.8316 73.4553H2.33067C0.881218 73.4553 -0.288818 72.632 -0.288818 71.612V39.6614C-0.288818 38.6415 0.881218 37.8181 2.33067 37.8181H45.8316C47.281 37.8181 48.451 38.6415 48.451 39.6614V71.612C48.451 72.632 47.281 73.4553 45.8316 73.4553Z" fill="white"/>
<path opacity="0.42" d="M15.2941 62.5306H32.8773C33.4882 62.5306 33.977 62.0268 33.977 61.3878C33.977 61.0806 33.867 60.7857 33.6471 60.5645L29.2482 55.9685C28.8206 55.5261 28.1241 55.5261 27.6964 55.9685L26.2668 57.4677L22.65 53.6951C22.2223 53.2527 21.5258 53.2527 21.0982 53.6951L14.4999 60.589C14.0722 61.0437 14.0844 61.7687 14.5121 62.2111C14.7443 62.4078 15.0131 62.5184 15.2941 62.5306Z" fill="white"/>
<path opacity="0.42" d="M29.5783 53.3386C30.793 53.3386 31.7778 52.3098 31.7778 51.0407C31.7778 49.7715 30.793 48.7427 29.5783 48.7427C28.3636 48.7427 27.3789 49.7715 27.3789 51.0407C27.3789 52.3098 28.3636 53.3386 29.5783 53.3386Z" fill="white"/>
<rect x="10.6454" y="77.1572" width="26.8713" height="3.06321" rx="1.5316" fill="#F3F3F3" fill-opacity="0.5"/>
<rect x="4.93066" y="82.5027" width="38.4951" height="3.12921" rx="1.5646" fill="#F3F3F3" fill-opacity="0.38"/>
<rect x="1.78784" y="86.9138" width="44.988" height="3.12921" rx="1.5646" fill="#F3F3F3" fill-opacity="0.38"/>
<rect x="7.53101" y="91.5645" width="33.7411" height="3.12921" rx="1.5646" fill="#F3F3F3" fill-opacity="0.38"/>
<rect x="10.1171" y="98.9863" width="27.3997" height="6.72894" rx="3.36447" fill="#C8C8C8" fill-opacity="0.5"/>
<path opacity="0.2" d="M123.491 73.4553H79.9896C78.5402 73.4553 77.3701 72.632 77.3701 71.612V39.6614C77.3701 38.6415 78.5402 37.8181 79.9896 37.8181H123.491C124.94 37.8181 126.11 38.6415 126.11 39.6614V71.612C126.11 72.632 124.94 73.4553 123.491 73.4553Z" fill="white"/>
<path opacity="0.42" d="M92.9531 62.5306H110.536C111.147 62.5306 111.636 62.0268 111.636 61.3878C111.636 61.0806 111.526 60.7857 111.306 60.5645L106.907 55.9685C106.48 55.5261 105.783 55.5261 105.355 55.9685L103.926 57.4677L100.309 53.6951C99.8812 53.2527 99.1848 53.2527 98.7571 53.6951L92.1588 60.589C91.7312 61.0437 91.7434 61.7687 92.171 62.2111C92.4032 62.4078 92.672 62.5184 92.9531 62.5306Z" fill="white"/>
<path opacity="0.42" d="M107.237 53.3386C108.452 53.3386 109.437 52.3098 109.437 51.0407C109.437 49.7715 108.452 48.7427 107.237 48.7427C106.023 48.7427 105.038 49.7715 105.038 51.0407C105.038 52.3098 106.023 53.3386 107.237 53.3386Z" fill="white"/>
<rect x="88.3043" y="77.1572" width="26.8713" height="3.06321" rx="1.5316" fill="#F3F3F3" fill-opacity="0.5"/>
<rect x="82.5896" y="82.5027" width="38.4951" height="3.12921" rx="1.5646" fill="#F3F3F3" fill-opacity="0.38"/>
<rect x="79.4468" y="86.9138" width="44.988" height="3.12921" rx="1.5646" fill="#F3F3F3" fill-opacity="0.38"/>
<rect x="85.1899" y="91.5645" width="33.7411" height="3.12921" rx="1.5646" fill="#F3F3F3" fill-opacity="0.38"/>
<rect x="87.776" y="98.9863" width="27.3997" height="6.72894" rx="3.36447" fill="#C8C8C8" fill-opacity="0.5"/>
<path opacity="0.2" d="M201.149 73.4553H157.649C156.199 73.4553 155.029 72.632 155.029 71.612V39.6614C155.029 38.6415 156.199 37.8181 157.649 37.8181H201.149C202.599 37.8181 203.769 38.6415 203.769 39.6614V71.612C203.769 72.632 202.599 73.4553 201.149 73.4553Z" fill="white"/>
<path opacity="0.42" d="M170.612 62.5306H188.195C188.806 62.5306 189.295 62.0268 189.295 61.3878C189.295 61.0806 189.185 60.7857 188.965 60.5645L184.566 55.9685C184.138 55.5261 183.442 55.5261 183.014 55.9685L181.585 57.4677L177.968 53.6951C177.54 53.2527 176.844 53.2527 176.416 53.6951L169.818 60.589C169.39 61.0437 169.402 61.7687 169.83 62.2111C170.062 62.4078 170.331 62.5184 170.612 62.5306Z" fill="white"/>
<path opacity="0.42" d="M184.896 53.3386C186.111 53.3386 187.096 52.3098 187.096 51.0407C187.096 49.7715 186.111 48.7427 184.896 48.7427C183.681 48.7427 182.697 49.7715 182.697 51.0407C182.697 52.3098 183.681 53.3386 184.896 53.3386Z" fill="white"/>
<rect x="165.963" y="77.1572" width="26.8713" height="3.06321" rx="1.5316" fill="#F3F3F3" fill-opacity="0.5"/>
<rect x="160.249" y="82.5027" width="38.4951" height="3.12921" rx="1.5646" fill="#F3F3F3" fill-opacity="0.38"/>
<rect x="157.106" y="86.9138" width="44.988" height="3.12921" rx="1.5646" fill="#F3F3F3" fill-opacity="0.38"/>
<rect x="162.849" y="91.5645" width="33.7411" height="3.12921" rx="1.5646" fill="#F3F3F3" fill-opacity="0.38"/>
<rect x="165.435" y="98.9863" width="27.3997" height="6.72894" rx="3.36447" fill="#C8C8C8" fill-opacity="0.5"/>
</g>
<defs>
<clipPath id="clip0_481_1006">
<rect width="203.48" height="106.86" fill="white" transform="translate(0 0.879883)"/>
</clipPath>
</defs>
</svg>
