<svg width="210" height="109" viewBox="0 0 210 109" fill="none" xmlns="http://www.w3.org/2000/svg">
<g clip-path="url(#clip0_434_51)">
<rect x="69.3984" y="0.783813" width="70.6828" height="4.65543" rx="2.32771" fill="#DEDEDE"/>
<rect x="61.0536" y="10.4392" width="87.3726" height="3.88189" rx="1.94094" fill="#C8C8C8" fill-opacity="0.5"/>
<rect x="49.1553" y="17.2314" width="111.169" height="4.14336" rx="2.07168" fill="#C8C8C8" fill-opacity="0.5"/>
<path opacity="0.2" d="M46.7549 82.6011H4.27884C2.86354 82.6011 1.72107 81.4521 1.72107 80.0287V35.4413C1.72107 34.0179 2.86354 32.8689 4.27884 32.8689H46.7549C48.1702 32.8689 49.3127 34.0179 49.3127 35.4413V80.0287C49.3127 81.4521 48.1702 82.6011 46.7549 82.6011Z" fill="white"/>
<path opacity="0.42" d="M13.2311 67.3557H37.7687C38.6213 67.3557 39.3034 66.6525 39.3034 65.7608C39.3034 65.3321 39.1499 64.9205 38.843 64.6118L32.7043 58.1981C32.1075 57.5807 31.1355 57.5807 30.5387 58.1981L28.5437 60.2902L23.4963 55.0255C22.8995 54.4081 21.9276 54.4081 21.3307 55.0255L12.1228 64.6461C11.526 65.2806 11.543 66.2924 12.1398 66.9098C12.4638 67.1842 12.8389 67.3385 13.2311 67.3557Z" fill="white"/>
<path opacity="0.42" d="M33.1647 54.5282C34.8598 54.5282 36.234 53.0924 36.234 51.3213C36.234 49.5502 34.8598 48.1144 33.1647 48.1144C31.4695 48.1144 30.0953 49.5502 30.0953 51.3213C30.0953 53.0924 31.4695 54.5282 33.1647 54.5282Z" fill="white"/>
<rect x="1.72107" y="87.7672" width="37.4993" height="4.27475" rx="2.13737" fill="#DEDEDE"/>
<rect x="1.72107" y="96.5814" width="55.5847" height="4.36685" rx="2.18343" fill="#C8C8C8" fill-opacity="0.5"/>
<path opacity="0.2" d="M121.981 82.6011H79.5054C78.0901 82.6011 76.9476 81.4521 76.9476 80.0287V35.4413C76.9476 34.0179 78.0901 32.8689 79.5054 32.8689H121.981C123.397 32.8689 124.539 34.0179 124.539 35.4413V80.0287C124.539 81.4521 123.397 82.6011 121.981 82.6011Z" fill="white"/>
<path opacity="0.42" d="M88.4576 67.3557H112.995C113.848 67.3557 114.53 66.6525 114.53 65.7608C114.53 65.3321 114.376 64.9205 114.069 64.6118L107.931 58.1981C107.334 57.5807 106.362 57.5807 105.765 58.1981L103.77 60.2902L98.7228 55.0255C98.126 54.4081 97.154 54.4081 96.5572 55.0255L87.3492 64.6461C86.7524 65.2806 86.7694 66.2924 87.3663 66.9098C87.6902 67.1842 88.0654 67.3385 88.4576 67.3557Z" fill="white"/>
<path opacity="0.42" d="M108.391 54.5282C110.086 54.5282 111.46 53.0924 111.46 51.3213C111.46 49.5502 110.086 48.1144 108.391 48.1144C106.696 48.1144 105.322 49.5502 105.322 51.3213C105.322 53.0924 106.696 54.5282 108.391 54.5282Z" fill="white"/>
<rect x="76.9476" y="87.7672" width="37.4993" height="4.27475" rx="2.13737" fill="#DEDEDE"/>
<rect x="76.9476" y="96.5814" width="55.5847" height="4.36685" rx="2.18343" fill="#C8C8C8" fill-opacity="0.5"/>
<path opacity="0.2" d="M197.208 82.6011H154.732C153.317 82.6011 152.174 81.4521 152.174 80.0287V35.4413C152.174 34.0179 153.317 32.8689 154.732 32.8689H197.208C198.623 32.8689 199.766 34.0179 199.766 35.4413V80.0287C199.766 81.4521 198.623 82.6011 197.208 82.6011Z" fill="white"/>
<path opacity="0.42" d="M163.684 67.3557H188.222C189.074 67.3557 189.756 66.6525 189.756 65.7608C189.756 65.3321 189.603 64.9205 189.296 64.6118L183.157 58.1981C182.561 57.5807 181.589 57.5807 180.992 58.1981L178.997 60.2902L173.949 55.0255C173.353 54.4081 172.381 54.4081 171.784 55.0255L162.576 64.6461C161.979 65.2806 161.996 66.2924 162.593 66.9098C162.917 67.1842 163.292 67.3385 163.684 67.3557Z" fill="white"/>
<path opacity="0.42" d="M183.618 54.5282C185.313 54.5282 186.687 53.0924 186.687 51.3213C186.687 49.5502 185.313 48.1144 183.618 48.1144C181.923 48.1144 180.548 49.5502 180.548 51.3213C180.548 53.0924 181.923 54.5282 183.618 54.5282Z" fill="white"/>
<rect x="152.174" y="87.7672" width="37.4993" height="4.27475" rx="2.13737" fill="#DEDEDE"/>
<rect x="152.174" y="96.5814" width="55.5847" height="4.36685" rx="2.18343" fill="#C8C8C8" fill-opacity="0.5"/>
<circle cx="104.698" cy="106.168" r="1.90796" fill="#DEDEDE"/>
<circle cx="110.549" cy="106.168" r="1.40796" stroke="#DEDEDE"/>
</g>
<defs>
<clipPath id="clip0_434_51">
<rect width="209.48" height="108.86" fill="white"/>
</clipPath>
</defs>
</svg>
