<svg width="210" height="110" viewBox="0 0 210 110" fill="none" xmlns="http://www.w3.org/2000/svg">
<rect x="83.7834" y="2.45978" width="41.9128" height="4.65543" rx="2.32771" fill="#E8E8E8"/>
<rect x="61.0536" y="12.1152" width="87.3726" height="3.88189" rx="1.94094" fill="#C8C8C8" fill-opacity="0.5"/>
<rect x="49.1553" y="18.9074" width="111.169" height="4.14336" rx="2.07168" fill="#C8C8C8" fill-opacity="0.5"/>
<path opacity="0.2" d="M51.5999 56.47H28.1812C27.4009 56.47 26.771 55.8365 26.771 55.0518V30.469C26.771 29.6842 27.4009 29.0507 28.1812 29.0507H51.5999C52.3802 29.0507 53.0101 29.6842 53.0101 30.469V55.0518C53.0101 55.8365 52.3802 56.47 51.5999 56.47Z" fill="white"/>
<path opacity="0.42" d="M33.1169 48.0645H46.6454C47.1155 48.0645 47.4915 47.6769 47.4915 47.1852C47.4915 46.9489 47.4069 46.7219 47.2377 46.5518L43.8532 43.0156C43.5242 42.6752 42.9883 42.6752 42.6592 43.0156L41.5593 44.1691L38.7765 41.2665C38.4474 40.9261 37.9116 40.9261 37.5825 41.2665L32.5058 46.5707C32.1768 46.9205 32.1862 47.4783 32.5152 47.8187C32.6938 47.97 32.9007 48.0551 33.1169 48.0645Z" fill="white"/>
<path opacity="0.42" d="M44.107 40.9923C45.0416 40.9923 45.7993 40.2007 45.7993 39.2242C45.7993 38.2477 45.0416 37.4561 44.107 37.4561C43.1724 37.4561 42.4148 38.2477 42.4148 39.2242C42.4148 40.2007 43.1724 40.9923 44.107 40.9923Z" fill="white"/>
<rect x="26.771" y="59.3183" width="20.6748" height="2.35683" rx="1.17842" fill="#E8E8E8"/>
<rect x="26.771" y="64.1779" width="30.646" height="2.40761" rx="1.20381" fill="#C8C8C8" fill-opacity="0.5"/>
<path opacity="0.2" d="M114.246 56.47H90.8272C90.0469 56.47 89.417 55.8365 89.417 55.0518V30.469C89.417 29.6842 90.0469 29.0507 90.8272 29.0507H114.246C115.026 29.0507 115.656 29.6842 115.656 30.469V55.0518C115.656 55.8365 115.026 56.47 114.246 56.47Z" fill="white"/>
<path opacity="0.42" d="M95.7629 48.0645H109.291C109.761 48.0645 110.138 47.6769 110.138 47.1852C110.138 46.9489 110.053 46.7219 109.884 46.5518L106.499 43.0156C106.17 42.6752 105.634 42.6752 105.305 43.0156L104.205 44.1691L101.422 41.2665C101.093 40.9261 100.558 40.9261 100.229 41.2665L95.1518 46.5707C94.8228 46.9205 94.8322 47.4783 95.1612 47.8187C95.3398 47.97 95.5467 48.0551 95.7629 48.0645Z" fill="white"/>
<path opacity="0.42" d="M106.753 40.9923C107.688 40.9923 108.445 40.2007 108.445 39.2242C108.445 38.2477 107.688 37.4561 106.753 37.4561C105.818 37.4561 105.061 38.2477 105.061 39.2242C105.061 40.2007 105.818 40.9923 106.753 40.9923Z" fill="white"/>
<rect x="89.417" y="59.3183" width="20.6748" height="2.35683" rx="1.17842" fill="#E8E8E8"/>
<rect x="89.417" y="64.1779" width="30.646" height="2.40761" rx="1.20381" fill="#C8C8C8" fill-opacity="0.5"/>
<path opacity="0.2" d="M114.246 98.0047H90.8272C90.0469 98.0047 89.417 97.3712 89.417 96.5865V72.0037C89.417 71.2189 90.0469 70.5854 90.8272 70.5854H114.246C115.026 70.5854 115.656 71.2189 115.656 72.0037V96.5865C115.656 97.3712 115.026 98.0047 114.246 98.0047Z" fill="white"/>
<path opacity="0.42" d="M95.7629 89.5993H109.291C109.761 89.5993 110.138 89.2116 110.138 88.72C110.138 88.4836 110.053 88.2567 109.884 88.0865L106.499 84.5503C106.17 84.21 105.634 84.21 105.305 84.5503L104.205 85.7038L101.422 82.8012C101.093 82.4608 100.558 82.4608 100.229 82.8012L95.1518 88.1054C94.8228 88.4552 94.8322 89.0131 95.1612 89.3534C95.3398 89.5047 95.5467 89.5898 95.7629 89.5993Z" fill="white"/>
<path opacity="0.42" d="M106.753 82.527C107.688 82.527 108.445 81.7354 108.445 80.7589C108.445 79.7824 107.688 78.9908 106.753 78.9908C105.818 78.9908 105.061 79.7824 105.061 80.7589C105.061 81.7354 105.818 82.527 106.753 82.527Z" fill="white"/>
<rect x="89.417" y="100.853" width="20.6748" height="2.35683" rx="1.17842" fill="#E8E8E8"/>
<rect x="89.417" y="105.713" width="30.646" height="2.40761" rx="1.20381" fill="#C8C8C8" fill-opacity="0.5"/>
<path opacity="0.2" d="M176.892 98.0047H153.473C152.693 98.0047 152.063 97.3712 152.063 96.5865V72.0037C152.063 71.2189 152.693 70.5854 153.473 70.5854H176.892C177.672 70.5854 178.302 71.2189 178.302 72.0037V96.5865C178.302 97.3712 177.672 98.0047 176.892 98.0047Z" fill="white"/>
<path opacity="0.42" d="M158.409 89.5993H171.937C172.407 89.5993 172.784 89.2116 172.784 88.72C172.784 88.4836 172.699 88.2567 172.53 88.0865L169.145 84.5503C168.816 84.21 168.28 84.21 167.951 84.5503L166.851 85.7038L164.068 82.8012C163.739 82.4608 163.204 82.4608 162.875 82.8012L157.798 88.1054C157.469 88.4552 157.478 89.0131 157.807 89.3534C157.986 89.5047 158.193 89.5898 158.409 89.5993Z" fill="white"/>
<path opacity="0.42" d="M169.399 82.527C170.334 82.527 171.091 81.7354 171.091 80.7589C171.091 79.7824 170.334 78.9908 169.399 78.9908C168.464 78.9908 167.707 79.7824 167.707 80.7589C167.707 81.7354 168.464 82.527 169.399 82.527Z" fill="white"/>
<rect x="152.063" y="100.853" width="20.6748" height="2.35683" rx="1.17842" fill="#E8E8E8"/>
<rect x="152.063" y="105.713" width="30.646" height="2.40761" rx="1.20381" fill="#C8C8C8" fill-opacity="0.5"/>
<path opacity="0.2" d="M176.892 56.47H153.473C152.693 56.47 152.063 55.8365 152.063 55.0518V30.469C152.063 29.6842 152.693 29.0507 153.473 29.0507H176.892C177.672 29.0507 178.302 29.6842 178.302 30.469V55.0518C178.302 55.8365 177.672 56.47 176.892 56.47Z" fill="white"/>
<path opacity="0.42" d="M158.409 48.0645H171.937C172.407 48.0645 172.784 47.6769 172.784 47.1852C172.784 46.9489 172.699 46.7219 172.53 46.5518L169.145 43.0156C168.816 42.6752 168.28 42.6752 167.951 43.0156L166.851 44.1691L164.068 41.2665C163.739 40.9261 163.204 40.9261 162.875 41.2665L157.798 46.5707C157.469 46.9205 157.478 47.4783 157.807 47.8187C157.986 47.97 158.193 48.0551 158.409 48.0645Z" fill="white"/>
<path opacity="0.42" d="M169.399 40.9923C170.334 40.9923 171.091 40.2007 171.091 39.2242C171.091 38.2477 170.334 37.4561 169.399 37.4561C168.464 37.4561 167.707 38.2477 167.707 39.2242C167.707 40.2007 168.464 40.9923 169.399 40.9923Z" fill="white"/>
<rect x="152.063" y="59.3183" width="20.6748" height="2.35683" rx="1.17842" fill="#E8E8E8"/>
<rect x="152.063" y="64.1779" width="30.646" height="2.40761" rx="1.20381" fill="#C8C8C8" fill-opacity="0.5"/>
<path opacity="0.2" d="M51.5999 98.0047H28.1812C27.4009 98.0047 26.771 97.3712 26.771 96.5865V72.0037C26.771 71.2189 27.4009 70.5854 28.1812 70.5854H51.5999C52.3802 70.5854 53.0101 71.2189 53.0101 72.0037V96.5865C53.0101 97.3712 52.3802 98.0047 51.5999 98.0047Z" fill="white"/>
<path opacity="0.42" d="M33.1169 89.5993H46.6454C47.1155 89.5993 47.4915 89.2116 47.4915 88.72C47.4915 88.4836 47.4069 88.2567 47.2377 88.0865L43.8532 84.5503C43.5242 84.21 42.9883 84.21 42.6592 84.5503L41.5593 85.7038L38.7765 82.8012C38.4474 82.4608 37.9116 82.4608 37.5825 82.8012L32.5058 88.1054C32.1768 88.4552 32.1862 89.0131 32.5152 89.3534C32.6938 89.5047 32.9007 89.5898 33.1169 89.5993Z" fill="white"/>
<path opacity="0.42" d="M44.107 82.527C45.0416 82.527 45.7993 81.7354 45.7993 80.7589C45.7993 79.7824 45.0416 78.9908 44.107 78.9908C43.1724 78.9908 42.4148 79.7824 42.4148 80.7589C42.4148 81.7354 43.1724 82.527 44.107 82.527Z" fill="white"/>
<rect x="26.771" y="100.853" width="20.6748" height="2.35683" rx="1.17842" fill="#E8E8E8"/>
<rect x="26.771" y="105.713" width="30.646" height="2.40761" rx="1.20381" fill="#C8C8C8" fill-opacity="0.5"/>
</svg>
