<svg width="210" height="110" viewBox="0 0 210 110" fill="none" xmlns="http://www.w3.org/2000/svg">
<g clip-path="url(#clip0_434_208)">
<rect x="68.5166" y="17.0158" width="8.42151" height="3.81415" rx="1.90707" fill="#CFCFCF"/>
<rect x="79.6808" y="17.0158" width="14.5992" height="3.81415" rx="1.90707" fill="#CFCFCF"/>
<rect x="95.9022" y="17.0158" width="14.5992" height="3.81415" rx="1.90707" fill="#CFCFCF"/>
<rect x="112.123" y="17.0158" width="15.8398" height="3.81415" rx="1.90707" fill="#CFCFCF"/>
<rect x="129.585" y="17.0158" width="11.8323" height="3.81415" rx="1.90707" fill="#CFCFCF"/>
<rect x="84.0107" y="0.319763" width="41.9128" height="3.81415" rx="1.90707" fill="#CFCFCF"/>
<rect x="37.1414" y="8.13391" width="135.651" height="3.88189" rx="1.94094" fill="#C8C8C8" fill-opacity="0.5"/>
<path opacity="0.2" d="M70.3404 67.5038H19.3226C17.6227 67.5038 16.2505 66.6232 16.2505 65.5322V31.357C16.2505 30.266 17.6227 29.3854 19.3226 29.3854H70.3404C72.0403 29.3854 73.4125 30.266 73.4125 31.357V65.5322C73.4125 66.6232 72.0403 67.5038 70.3404 67.5038Z" fill="white"/>
<path opacity="0.42" d="M30.1034 59.9998H59.5753C60.5994 59.9998 61.4186 59.1553 61.4186 58.0842C61.4186 57.5693 61.2343 57.0749 60.8656 56.7042L53.4925 49.0007C52.7757 48.2592 51.6083 48.2592 50.8914 49.0007L48.4952 51.5136L42.4328 45.1901C41.716 44.4486 40.5486 44.4486 39.8318 45.1901L28.7721 56.7454C28.0553 57.5075 28.0758 58.7227 28.7926 59.4643C29.1817 59.7938 29.6323 59.9792 30.1034 59.9998Z" fill="white"/>
<path opacity="0.42" d="M54.0453 44.5928C56.0813 44.5928 57.7319 42.8683 57.7319 40.741C57.7319 38.6138 56.0813 36.8893 54.0453 36.8893C52.0093 36.8893 50.3588 38.6138 50.3588 40.741C50.3588 42.8683 52.0093 44.5928 54.0453 44.5928Z" fill="white"/>
<path opacity="0.2" d="M130.476 67.5038H79.4582C77.7583 67.5038 76.3861 66.6232 76.3861 65.5322V31.357C76.3861 30.266 77.7583 29.3854 79.4582 29.3854H130.476C132.176 29.3854 133.548 30.266 133.548 31.357V65.5322C133.548 66.6232 132.176 67.5038 130.476 67.5038Z" fill="white"/>
<path opacity="0.42" d="M90.239 59.9998H119.711C120.735 59.9998 121.554 59.1553 121.554 58.0842C121.554 57.5693 121.37 57.0749 121.001 56.7042L113.628 49.0007C112.911 48.2592 111.744 48.2592 111.027 49.0007L108.631 51.5136L102.568 45.1901C101.852 44.4486 100.684 44.4486 99.9674 45.1901L88.9077 56.7454C88.1909 57.5075 88.2114 58.7227 88.9282 59.4643C89.3174 59.7938 89.7679 59.9792 90.239 59.9998Z" fill="white"/>
<path opacity="0.42" d="M114.181 44.5928C116.217 44.5928 117.868 42.8683 117.868 40.741C117.868 38.6138 116.217 36.8893 114.181 36.8893C112.145 36.8893 110.495 38.6138 110.495 40.741C110.495 42.8683 112.145 44.5928 114.181 44.5928Z" fill="white"/>
<path opacity="0.2" d="M190.612 67.5038H139.594C137.894 67.5038 136.522 66.6232 136.522 65.5322V31.357C136.522 30.266 137.894 29.3854 139.594 29.3854H190.612C192.312 29.3854 193.684 30.266 193.684 31.357V65.5322C193.684 66.6232 192.312 67.5038 190.612 67.5038Z" fill="white"/>
<path opacity="0.42" d="M150.375 59.9998H179.847C180.871 59.9998 181.69 59.1553 181.69 58.0842C181.69 57.5693 181.506 57.0749 181.137 56.7042L173.764 49.0007C173.047 48.2592 171.88 48.2592 171.163 49.0007L168.767 51.5136L162.704 45.1901C161.988 44.4486 160.82 44.4486 160.103 45.1901L149.044 56.7454C148.327 57.5075 148.347 58.7227 149.064 59.4643C149.453 59.7938 149.904 59.9792 150.375 59.9998Z" fill="white"/>
<path opacity="0.42" d="M174.317 44.5928C176.353 44.5928 178.003 42.8683 178.003 40.741C178.003 38.6138 176.353 36.8893 174.317 36.8893C172.281 36.8893 170.63 38.6138 170.63 40.741C170.63 42.8683 172.281 44.5928 174.317 44.5928Z" fill="white"/>
<path opacity="0.2" d="M70.3403 109.58H19.3225C17.6226 109.58 16.2504 108.699 16.2504 107.608V73.4332C16.2504 72.3422 17.6226 71.4615 19.3225 71.4615H70.3403C72.0402 71.4615 73.4124 72.3422 73.4124 73.4332V107.608C73.4124 108.699 72.0402 109.58 70.3403 109.58Z" fill="white"/>
<path opacity="0.42" d="M30.1033 102.076H59.5752C60.5992 102.076 61.4185 101.231 61.4185 100.16C61.4185 99.6455 61.2341 99.1511 60.8655 98.7804L53.4924 91.0768C52.7756 90.3353 51.6082 90.3353 50.8913 91.0768L48.4951 93.5898L42.4327 87.2663C41.7159 86.5248 40.5485 86.5248 39.8317 87.2663L28.772 98.8215C28.0552 99.5837 28.0756 100.799 28.7925 101.54C29.1816 101.87 29.6322 102.055 30.1033 102.076Z" fill="white"/>
<path opacity="0.42" d="M54.0452 86.669C56.0812 86.669 57.7317 84.9445 57.7317 82.8172C57.7317 80.6899 56.0812 78.9655 54.0452 78.9655C52.0092 78.9655 50.3586 80.6899 50.3586 82.8172C50.3586 84.9445 52.0092 86.669 54.0452 86.669Z" fill="white"/>
<path opacity="0.2" d="M130.476 109.58H79.4581C77.7582 109.58 76.386 108.699 76.386 107.608V73.4333C76.386 72.3423 77.7582 71.4616 79.4581 71.4616H130.476C132.176 71.4616 133.548 72.3423 133.548 73.4333V107.608C133.548 108.699 132.176 109.58 130.476 109.58Z" fill="white"/>
<path opacity="0.42" d="M90.2389 102.076H119.711C120.735 102.076 121.554 101.231 121.554 100.16C121.554 99.6455 121.37 99.1511 121.001 98.7804L113.628 91.0768C112.911 90.3353 111.744 90.3353 111.027 91.0768L108.631 93.5898L102.568 87.2663C101.852 86.5248 100.684 86.5248 99.9673 87.2663L88.9076 98.8215C88.1908 99.5837 88.2113 100.799 88.9281 101.54C89.3172 101.87 89.7678 102.055 90.2389 102.076Z" fill="white"/>
<path opacity="0.42" d="M114.181 86.669C116.217 86.669 117.867 84.9445 117.867 82.8172C117.867 80.6899 116.217 78.9655 114.181 78.9655C112.145 78.9655 110.494 80.6899 110.494 82.8172C110.494 84.9445 112.145 86.669 114.181 86.669Z" fill="white"/>
<path opacity="0.2" d="M190.612 109.58H139.594C137.894 109.58 136.522 108.699 136.522 107.608V73.4333C136.522 72.3423 137.894 71.4616 139.594 71.4616H190.612C192.312 71.4616 193.684 72.3423 193.684 73.4333V107.608C193.684 108.699 192.312 109.58 190.612 109.58Z" fill="white"/>
<path opacity="0.42" d="M150.375 102.076H179.847C180.871 102.076 181.69 101.231 181.69 100.16C181.69 99.6455 181.506 99.1511 181.137 98.7804L173.764 91.0768C173.047 90.3353 171.88 90.3353 171.163 91.0768L168.767 93.5898L162.704 87.2663C161.987 86.5248 160.82 86.5248 160.103 87.2663L149.043 98.8215C148.327 99.5837 148.347 100.799 149.064 101.54C149.453 101.87 149.904 102.055 150.375 102.076Z" fill="white"/>
<path opacity="0.42" d="M174.317 86.669C176.353 86.669 178.003 84.9445 178.003 82.8172C178.003 80.6899 176.353 78.9655 174.317 78.9655C172.281 78.9655 170.63 80.6899 170.63 82.8172C170.63 84.9445 172.281 86.669 174.317 86.669Z" fill="white"/>
</g>
<defs>
<clipPath id="clip0_434_208">
<rect width="209.48" height="108.86" fill="white" transform="translate(0 0.719971)"/>
</clipPath>
</defs>
</svg>
