<svg width="209" height="109" viewBox="0 0 209 109" fill="none" xmlns="http://www.w3.org/2000/svg">
<path d="M37 10C37 8.89543 37.8954 8 39 8H170C171.105 8 172 8.89543 172 10V99C172 100.105 171.105 101 170 101H39C37.8954 101 37 100.105 37 99V10Z" fill="#D9D9D9" fill-opacity="0.2"/>
<path d="M115.535 42.25H94.4653C93.0564 42.25 91.7051 42.8097 90.7088 43.806C89.7125 44.8023 89.1528 46.1535 89.1528 47.5625V62.4375C89.1528 63.8465 89.7125 65.1977 90.7088 66.194C91.7051 67.1903 93.0564 67.75 94.4653 67.75H115.535C116.944 67.75 118.295 67.1903 119.291 66.194C120.288 65.1977 120.847 63.8465 120.847 62.4375V47.5625C120.847 46.1535 120.288 44.8023 119.291 43.806C118.295 42.8097 116.944 42.25 115.535 42.25ZM110.69 56.4025L101.972 61.0775C101.74 61.2026 101.481 61.2683 101.218 61.2687C100.795 61.2687 100.389 61.1008 100.091 60.802C99.7917 60.5031 99.6238 60.0977 99.6238 59.675V50.325C99.624 50.0495 99.6957 49.7787 99.8318 49.5392C99.9679 49.2996 100.164 49.0994 100.4 48.9581C100.637 48.8169 100.906 48.7393 101.181 48.7331C101.457 48.7268 101.729 48.7921 101.972 48.9225L110.69 53.5975C110.943 53.7341 111.154 53.9365 111.301 54.1834C111.449 54.4303 111.526 54.7125 111.526 55C111.526 55.2875 111.449 55.5697 111.301 55.8166C111.154 56.0635 110.943 56.2659 110.69 56.4025ZM101.749 51.2122L108.809 55L101.749 58.7878V51.2122Z" fill="#E7E6E6" fill-opacity="0.5"/>
</svg>
