<svg width="209" height="109" viewBox="0 0 209 109" fill="none" xmlns="http://www.w3.org/2000/svg">
<path d="M0 10C0 8.89543 0.89543 8 2 8H207C208.105 8 209 8.89543 209 10V99C209 100.105 208.105 101 207 101H2.00001C0.895437 101 0 100.105 0 99V10Z" fill="#D9D9D9" fill-opacity="0.2"/>
<rect x="10" y="24" width="100" height="62" rx="3" fill="#D9D9D9" fill-opacity="0.25"/>
<path d="M70.5347 42.25H49.4653C48.0564 42.25 46.7051 42.8097 45.7088 43.806C44.7125 44.8023 44.1528 46.1535 44.1528 47.5625V62.4375C44.1528 63.8465 44.7125 65.1977 45.7088 66.194C46.7051 67.1903 48.0564 67.75 49.4653 67.75H70.5347C71.9437 67.75 73.2949 67.1903 74.2912 66.194C75.2875 65.1977 75.8472 63.8465 75.8472 62.4375V47.5625C75.8472 46.1535 75.2875 44.8023 74.2912 43.806C73.2949 42.8097 71.9437 42.25 70.5347 42.25ZM65.6897 56.4025L56.9719 61.0775C56.7401 61.2026 56.4809 61.2683 56.2175 61.2687C55.7948 61.2687 55.3895 61.1008 55.0906 60.802C54.7917 60.5031 54.6238 60.0977 54.6238 59.675V50.325C54.624 50.0495 54.6957 49.7787 54.8318 49.5392C54.9679 49.2996 55.1637 49.0994 55.4003 48.9581C55.6368 48.8169 55.9059 48.7393 56.1814 48.7331C56.4568 48.7268 56.7292 48.7921 56.9719 48.9225L65.6897 53.5975C65.9427 53.7341 66.1541 53.9365 66.3014 54.1834C66.4487 54.4303 66.5265 54.7125 66.5265 55C66.5265 55.2875 66.4487 55.5697 66.3014 55.8166C66.1541 56.0635 65.9427 56.2659 65.6897 56.4025ZM56.7488 51.2122L63.8091 55L56.7488 58.7878V51.2122Z" fill="#E7E6E6" fill-opacity="0.74"/>
<rect x="128" y="58.9929" width="17.6969" height="6.07428" rx="1" fill="#C8C8C8" fill-opacity="0.5"/>
<rect x="128" y="50" width="73" height="5" rx="2.5" fill="white" fill-opacity="0.64"/>
<rect x="128" y="43" width="39.5321" height="4.99642" rx="2.49821" fill="white" fill-opacity="0.64"/>
</svg>
