<svg width="209" height="109" viewBox="0 0 209 109" fill="none" xmlns="http://www.w3.org/2000/svg">
<path d="M0 10C0 8.89543 0.89543 8 2 8H207C208.105 8 209 8.89543 209 10V99C209 100.105 208.105 101 207 101H2.00001C0.895437 101 0 100.105 0 99V10Z" fill="#D9D9D9" fill-opacity="0.2"/>
<path d="M136.244 17H73.7559C69.5772 17 65.5696 18.6681 62.6148 21.6375C59.66 24.6068 58 28.6341 58 32.8333V77.1667C58 81.3659 59.66 85.3932 62.6148 88.3625C65.5696 91.3319 69.5772 93 73.7559 93H136.244C140.423 93 144.43 91.3319 147.385 88.3625C150.34 85.3932 152 81.3659 152 77.1667V32.8333C152 28.6341 150.34 24.6068 147.385 21.6375C144.43 18.6681 140.423 17 136.244 17ZM121.875 59.18L96.0191 73.1133C95.3317 73.4862 94.563 73.682 93.7818 73.6833C92.5281 73.6833 91.3259 73.1829 90.4394 72.2921C89.553 71.4013 89.055 70.1931 89.055 68.9333V41.0667C89.0557 40.2455 89.2682 39.4386 89.6719 38.7246C90.0755 38.0106 90.6564 37.414 91.358 36.9929C92.0595 36.5718 92.8577 36.3407 93.6746 36.3221C94.4915 36.3035 95.2993 36.498 96.0191 36.8867L121.875 50.82C122.625 51.227 123.252 51.8304 123.689 52.5663C124.126 53.3022 124.356 54.1431 124.356 55C124.356 55.8569 124.126 56.6978 123.689 57.4337C123.252 58.1696 122.625 58.773 121.875 59.18ZM95.3574 43.7108L116.297 55L95.3574 66.2892V43.7108Z" fill="#ADADAD" fill-opacity="0.27"/>
<rect x="51" y="46" width="106.7" height="6.4" rx="3.2" fill="white" fill-opacity="0.64"/>
<rect x="79.9355" y="55.6" width="50.6374" height="6.4" rx="3.2" fill="white" fill-opacity="0.64"/>
</svg>
