<svg width="209" height="109" viewBox="0 0 209 109" fill="none" xmlns="http://www.w3.org/2000/svg">
<path d="M0 34C0 32.8954 0.895431 32 2 32H57C58.1046 32 59 32.8954 59 34V75C59 76.1046 58.1046 77 57 77H2C0.89543 77 0 76.1046 0 75V34Z" fill="#D9D9D9" fill-opacity="0.2"/>
<path d="M40.5347 42.25H19.4653C18.0564 42.25 16.7051 42.8097 15.7088 43.806C14.7125 44.8023 14.1528 46.1535 14.1528 47.5625V62.4375C14.1528 63.8465 14.7125 65.1977 15.7088 66.194C16.7051 67.1903 18.0564 67.75 19.4653 67.75H40.5347C41.9437 67.75 43.2949 67.1903 44.2912 66.194C45.2875 65.1977 45.8472 63.8465 45.8472 62.4375V47.5625C45.8472 46.1535 45.2875 44.8023 44.2912 43.806C43.2949 42.8097 41.9437 42.25 40.5347 42.25ZM35.6897 56.4025L26.9719 61.0775C26.7401 61.2026 26.4809 61.2683 26.2175 61.2687C25.7948 61.2687 25.3895 61.1008 25.0906 60.802C24.7917 60.5031 24.6238 60.0977 24.6238 59.675V50.325C24.624 50.0495 24.6957 49.7787 24.8318 49.5392C24.9679 49.2996 25.1637 49.0994 25.4003 48.9581C25.6368 48.8169 25.9059 48.7393 26.1814 48.7331C26.4568 48.7268 26.7292 48.7921 26.9719 48.9225L35.6897 53.5975C35.9427 53.7341 36.1541 53.9365 36.3014 54.1834C36.4487 54.4303 36.5265 54.7125 36.5265 55C36.5265 55.2875 36.4487 55.5697 36.3014 55.8166C36.1541 56.0635 35.9427 56.2659 35.6897 56.4025ZM26.7488 51.2122L33.8091 55L26.7488 58.7878V51.2122Z" fill="#E7E6E6" fill-opacity="0.5"/>
<path d="M75 34C75 32.8954 75.8954 32 77 32H132C133.105 32 134 32.8954 134 34V75C134 76.1046 133.105 77 132 77H77C75.8954 77 75 76.1046 75 75V34Z" fill="#D9D9D9" fill-opacity="0.2"/>
<path d="M115.535 42.25H94.4653C93.0564 42.25 91.7051 42.8097 90.7088 43.806C89.7125 44.8023 89.1528 46.1535 89.1528 47.5625V62.4375C89.1528 63.8465 89.7125 65.1977 90.7088 66.194C91.7051 67.1903 93.0564 67.75 94.4653 67.75H115.535C116.944 67.75 118.295 67.1903 119.291 66.194C120.288 65.1977 120.847 63.8465 120.847 62.4375V47.5625C120.847 46.1535 120.288 44.8023 119.291 43.806C118.295 42.8097 116.944 42.25 115.535 42.25ZM110.69 56.4025L101.972 61.0775C101.74 61.2026 101.481 61.2683 101.218 61.2687C100.795 61.2687 100.389 61.1008 100.091 60.802C99.7917 60.5031 99.6238 60.0977 99.6238 59.675V50.325C99.624 50.0495 99.6957 49.7787 99.8318 49.5392C99.9679 49.2996 100.164 49.0994 100.4 48.9581C100.637 48.8169 100.906 48.7393 101.181 48.7331C101.457 48.7268 101.729 48.7921 101.972 48.9225L110.69 53.5975C110.943 53.7341 111.154 53.9365 111.301 54.1834C111.449 54.4303 111.526 54.7125 111.526 55C111.526 55.2875 111.449 55.5697 111.301 55.8166C111.154 56.0635 110.943 56.2659 110.69 56.4025ZM101.749 51.2122L108.809 55L101.749 58.7878V51.2122Z" fill="#E7E6E6" fill-opacity="0.5"/>
<path d="M150 34C150 32.8954 150.895 32 152 32H207C208.105 32 209 32.8954 209 34V75C209 76.1046 208.105 77 207 77H152C150.895 77 150 76.1046 150 75V34Z" fill="#D9D9D9" fill-opacity="0.2"/>
<path d="M190.535 42.25H169.465C168.056 42.25 166.705 42.8097 165.709 43.806C164.713 44.8023 164.153 46.1535 164.153 47.5625V62.4375C164.153 63.8465 164.713 65.1977 165.709 66.194C166.705 67.1903 168.056 67.75 169.465 67.75H190.535C191.944 67.75 193.295 67.1903 194.291 66.194C195.288 65.1977 195.847 63.8465 195.847 62.4375V47.5625C195.847 46.1535 195.288 44.8023 194.291 43.806C193.295 42.8097 191.944 42.25 190.535 42.25ZM185.69 56.4025L176.972 61.0775C176.74 61.2026 176.481 61.2683 176.218 61.2687C175.795 61.2687 175.389 61.1008 175.091 60.802C174.792 60.5031 174.624 60.0977 174.624 59.675V50.325C174.624 50.0495 174.696 49.7787 174.832 49.5392C174.968 49.2996 175.164 49.0994 175.4 48.9581C175.637 48.8169 175.906 48.7393 176.181 48.7331C176.457 48.7268 176.729 48.7921 176.972 48.9225L185.69 53.5975C185.943 53.7341 186.154 53.9365 186.301 54.1834C186.449 54.4303 186.526 54.7125 186.526 55C186.526 55.2875 186.449 55.5697 186.301 55.8166C186.154 56.0635 185.943 56.2659 185.69 56.4025ZM176.749 51.2122L183.809 55L176.749 58.7878V51.2122Z" fill="#E7E6E6" fill-opacity="0.5"/>
</svg>
