<svg width="209" height="109" viewBox="0 0 209 109" fill="none" xmlns="http://www.w3.org/2000/svg">
<path d="M0 10C0 8.89543 0.89543 8 2 8H207C208.105 8 209 8.89543 209 10V99C209 100.105 208.105 101 207 101H2.00001C0.895437 101 0 100.105 0 99V10Z" fill="#D9D9D9" fill-opacity="0.2"/>
<rect x="101" y="24" width="100" height="62" rx="3" fill="#D9D9D9" fill-opacity="0.25"/>
<path d="M161.535 42.25H140.465C139.056 42.25 137.705 42.8097 136.709 43.806C135.713 44.8023 135.153 46.1535 135.153 47.5625V62.4375C135.153 63.8465 135.713 65.1977 136.709 66.194C137.705 67.1903 139.056 67.75 140.465 67.75H161.535C162.944 67.75 164.295 67.1903 165.291 66.194C166.288 65.1977 166.847 63.8465 166.847 62.4375V47.5625C166.847 46.1535 166.288 44.8023 165.291 43.806C164.295 42.8097 162.944 42.25 161.535 42.25ZM156.69 56.4025L147.972 61.0775C147.74 61.2026 147.481 61.2683 147.218 61.2687C146.795 61.2687 146.389 61.1008 146.091 60.802C145.792 60.5031 145.624 60.0977 145.624 59.675V50.325C145.624 50.0495 145.696 49.7787 145.832 49.5392C145.968 49.2996 146.164 49.0994 146.4 48.9581C146.637 48.8169 146.906 48.7393 147.181 48.7331C147.457 48.7268 147.729 48.7921 147.972 48.9225L156.69 53.5975C156.943 53.7341 157.154 53.9365 157.301 54.1834C157.449 54.4303 157.526 54.7125 157.526 55C157.526 55.2875 157.449 55.5697 157.301 55.8166C157.154 56.0635 156.943 56.2659 156.69 56.4025ZM147.749 51.2122L154.809 55L147.749 58.7878V51.2122Z" fill="#E7E6E6" fill-opacity="0.74"/>
</svg>
