<svg width="82" height="60" viewBox="0 0 82 60" fill="none" xmlns="http://www.w3.org/2000/svg">
<rect width="82" height="60" fill="#016772" fill-opacity="0.8"/>
<path d="M9.19946 15.3656H21.3212V16.3656H9.19946M9.19946 17.3656H18.0152V18.3656H9.19946M9.19946 19.3656H21.3212V20.3656H9.19946" fill="white" fill-opacity="0.8"/>
<g filter="url(#filter0_i_583_2)">
<path d="M15.4165 12.3656H9.19946V13.3656H15.4165V12.3656Z" fill="black"/>
</g>
<path d="M15.4165 12.3656H9.19946V13.3656H15.4165V12.3656Z" fill="white" fill-opacity="0.78"/>
<rect x="9.19946" y="22.3656" width="7.50977" height="1.34247" stroke="#CCCCCC" stroke-width="0.2"/>
<path d="M25.8514 12.3656L25.8514 47.3156" stroke="#7E7E7E" stroke-width="0.2" stroke-linecap="round"/>
<path d="M25.8014 31.2107H72.7514" stroke="#7E7E7E" stroke-width="0.2" stroke-linecap="round"/>
<path d="M41.952 12.3656V47.3156" stroke="#7E7E7E" stroke-width="0.2" stroke-linecap="round"/>
<line x1="57.6574" y1="12.4656" x2="57.6574" y2="47.2156" stroke="#7E7E7E" stroke-width="0.2" stroke-linecap="round"/>
<line x1="28.9032" y1="16.7453" x2="41" y2="16.7453" stroke="#C8C8C8" stroke-opacity="0.5" stroke-width="0.1"/>
<circle cx="27.533" cy="14.8936" r="0.85" fill="#D9D9D9"/>
<path opacity="0.42" d="M27.0767 15.2705H27.9862C28.0181 15.2705 28.0441 15.2418 28.0441 15.2088C28.0441 15.1911 28.0381 15.1757 28.0281 15.1647L27.8007 14.9134C27.7788 14.8892 27.7429 14.8892 27.7209 14.9134L27.6471 14.995L27.4597 14.7878C27.4377 14.7635 27.4018 14.7635 27.3799 14.7878L27.0388 15.1647C27.0169 15.1889 27.0169 15.2286 27.0388 15.2529C27.0488 15.2639 27.0627 15.2705 27.0767 15.2705Z" fill="#06555E"/>
<path opacity="0.42" d="M27.8164 14.7679C27.8792 14.7679 27.9301 14.7116 27.9301 14.6422C27.9301 14.5729 27.8792 14.5166 27.8164 14.5166C27.7537 14.5166 27.7028 14.5729 27.7028 14.6422C27.7028 14.7116 27.7537 14.7679 27.8164 14.7679Z" fill="#06555E"/>
<rect opacity="0.8" x="28.9033" y="14.4416" width="7.71411" height="1.15686" rx="0.57843" fill="white"/>
<rect opacity="0.8" x="28.9033" y="17.9181" width="7.71411" height="1.15686" rx="0.57843" fill="white" fill-opacity="0.7"/>
<rect opacity="0.8" x="28.9033" y="23.0592" width="4.70361" height="1.15686" rx="0.57843" fill="white" fill-opacity="0.7"/>
<rect opacity="0.8" x="28.9033" y="25.6298" width="7.71411" height="1.15686" rx="0.57843" fill="white" fill-opacity="0.7"/>
<rect opacity="0.8" x="28.9032" y="28.2003" width="8.50281" height="1.15686" rx="0.57843" fill="white" fill-opacity="0.7"/>
<rect opacity="0.8" x="28.9033" y="20.4886" width="8.75354" height="1.15686" rx="0.57843" fill="white" fill-opacity="0.7"/>
<line x1="44.8164" y1="16.7453" x2="56.9132" y2="16.7453" stroke="#C8C8C8" stroke-opacity="0.5" stroke-width="0.1"/>
<circle cx="43.4462" cy="14.8936" r="0.85" fill="#D9D9D9"/>
<path opacity="0.42" d="M42.9899 15.2705H43.8994C43.9313 15.2705 43.9573 15.2418 43.9573 15.2088C43.9573 15.1911 43.9513 15.1757 43.9413 15.1647L43.7139 14.9134C43.692 14.8892 43.6561 14.8892 43.6341 14.9134L43.5603 14.995L43.3729 14.7878C43.3509 14.7635 43.315 14.7635 43.2931 14.7878L42.952 15.1647C42.9301 15.1889 42.9301 15.2286 42.952 15.2529C42.962 15.2639 42.9759 15.2705 42.9899 15.2705Z" fill="#06555E"/>
<path opacity="0.42" d="M43.7297 14.7679C43.7924 14.7679 43.8433 14.7116 43.8433 14.6422C43.8433 14.5729 43.7924 14.5166 43.7297 14.5166C43.6669 14.5166 43.616 14.5729 43.616 14.6422C43.616 14.7116 43.6669 14.7679 43.7297 14.7679Z" fill="#06555E"/>
<rect opacity="0.8" x="44.8165" y="14.4416" width="7.71411" height="1.15686" rx="0.57843" fill="white"/>
<rect opacity="0.8" x="44.8165" y="17.9181" width="7.71411" height="1.15686" rx="0.57843" fill="white" fill-opacity="0.7"/>
<rect opacity="0.8" x="44.8165" y="23.0592" width="4.70361" height="1.15686" rx="0.57843" fill="white" fill-opacity="0.7"/>
<rect opacity="0.8" x="44.8165" y="25.6298" width="7.71411" height="1.15686" rx="0.57843" fill="white" fill-opacity="0.7"/>
<rect opacity="0.8" x="44.8164" y="28.2003" width="8.50281" height="1.15686" rx="0.57843" fill="white" fill-opacity="0.7"/>
<rect opacity="0.8" x="44.8165" y="20.4886" width="8.75354" height="1.15686" rx="0.57843" fill="white" fill-opacity="0.7"/>
<line x1="60.5276" y1="16.7453" x2="72.6244" y2="16.7453" stroke="#C8C8C8" stroke-opacity="0.5" stroke-width="0.1"/>
<circle cx="59.1574" cy="14.8936" r="0.85" fill="#D9D9D9"/>
<path opacity="0.42" d="M58.7011 15.2705H59.6106C59.6425 15.2705 59.6685 15.2418 59.6685 15.2088C59.6685 15.1911 59.6625 15.1757 59.6525 15.1647L59.4251 14.9134C59.4032 14.8892 59.3673 14.8892 59.3453 14.9134L59.2715 14.995L59.084 14.7878C59.0621 14.7635 59.0262 14.7635 59.0043 14.7878L58.6632 15.1647C58.6412 15.1889 58.6412 15.2286 58.6632 15.2529C58.6732 15.2639 58.6871 15.2705 58.7011 15.2705Z" fill="#06555E"/>
<path opacity="0.42" d="M59.4408 14.7679C59.5036 14.7679 59.5545 14.7116 59.5545 14.6422C59.5545 14.5729 59.5036 14.5166 59.4408 14.5166C59.378 14.5166 59.3271 14.5729 59.3271 14.6422C59.3271 14.7116 59.378 14.7679 59.4408 14.7679Z" fill="#06555E"/>
<rect opacity="0.8" x="60.5277" y="14.4416" width="7.71411" height="1.15686" rx="0.57843" fill="white"/>
<rect opacity="0.8" x="60.5277" y="17.9181" width="7.71411" height="1.15686" rx="0.57843" fill="white" fill-opacity="0.7"/>
<rect opacity="0.8" x="60.5277" y="23.0592" width="4.70361" height="1.15686" rx="0.57843" fill="white" fill-opacity="0.7"/>
<rect opacity="0.8" x="60.5277" y="25.6298" width="7.71411" height="1.15686" rx="0.57843" fill="white" fill-opacity="0.7"/>
<rect opacity="0.8" x="60.5276" y="28.2003" width="8.50281" height="1.15686" rx="0.57843" fill="white" fill-opacity="0.7"/>
<rect opacity="0.8" x="60.5277" y="20.4886" width="8.75354" height="1.15686" rx="0.57843" fill="white" fill-opacity="0.7"/>
<line x1="28.9032" y1="35.0633" x2="41" y2="35.0633" stroke="#C8C8C8" stroke-opacity="0.5" stroke-width="0.1"/>
<circle cx="27.533" cy="33.301" r="0.85" fill="#D9D9D9"/>
<path opacity="0.42" d="M27.0767 33.6779H27.9862C28.0181 33.6779 28.0441 33.6492 28.0441 33.6162C28.0441 33.5985 28.0381 33.5831 28.0281 33.5721L27.8007 33.3208C27.7788 33.2966 27.7429 33.2966 27.7209 33.3208L27.6471 33.4024L27.4597 33.1952C27.4377 33.1709 27.4018 33.1709 27.3799 33.1952L27.0388 33.5721C27.0169 33.5963 27.0169 33.636 27.0388 33.6603C27.0488 33.6713 27.0627 33.6779 27.0767 33.6779Z" fill="#06555E"/>
<path opacity="0.42" d="M27.8164 33.1753C27.8792 33.1753 27.9301 33.119 27.9301 33.0496C27.9301 32.9803 27.8792 32.924 27.8164 32.924C27.7537 32.924 27.7028 32.9803 27.7028 33.0496C27.7028 33.119 27.7537 33.1753 27.8164 33.1753Z" fill="#06555E"/>
<rect opacity="0.8" x="28.9033" y="32.849" width="7.71411" height="1.15686" rx="0.57843" fill="white"/>
<rect opacity="0.8" x="28.9033" y="36.3255" width="7.71411" height="1.15686" rx="0.57843" fill="white" fill-opacity="0.7"/>
<rect opacity="0.8" x="28.9033" y="40.6392" width="4.70361" height="1.15686" rx="0.57843" fill="white" fill-opacity="0.7"/>
<rect opacity="0.8" x="28.9033" y="42.7961" width="7.71411" height="1.15686" rx="0.57843" fill="white" fill-opacity="0.7"/>
<rect opacity="0.8" x="28.9032" y="44.9529" width="8.50281" height="1.15686" rx="0.57843" fill="white" fill-opacity="0.7"/>
<rect opacity="0.8" x="28.9033" y="38.4824" width="8.75354" height="1.15686" rx="0.57843" fill="white" fill-opacity="0.7"/>
<line x1="44.8164" y1="35.0633" x2="56.9132" y2="35.0633" stroke="#C8C8C8" stroke-opacity="0.5" stroke-width="0.1"/>
<circle cx="43.4462" cy="33.301" r="0.85" fill="#D9D9D9"/>
<path opacity="0.42" d="M42.9899 33.6779H43.8994C43.9313 33.6779 43.9573 33.6492 43.9573 33.6162C43.9573 33.5985 43.9513 33.5831 43.9413 33.5721L43.7139 33.3208C43.692 33.2966 43.6561 33.2966 43.6341 33.3208L43.5603 33.4024L43.3729 33.1952C43.3509 33.1709 43.315 33.1709 43.2931 33.1952L42.952 33.5721C42.9301 33.5963 42.9301 33.636 42.952 33.6603C42.962 33.6713 42.9759 33.6779 42.9899 33.6779Z" fill="#06555E"/>
<path opacity="0.42" d="M43.7297 33.1753C43.7924 33.1753 43.8433 33.119 43.8433 33.0496C43.8433 32.9803 43.7924 32.924 43.7297 32.924C43.6669 32.924 43.616 32.9803 43.616 33.0496C43.616 33.119 43.6669 33.1753 43.7297 33.1753Z" fill="#06555E"/>
<rect opacity="0.8" x="44.8165" y="32.849" width="7.71411" height="1.15686" rx="0.57843" fill="white"/>
<rect opacity="0.8" x="44.8165" y="36.3255" width="7.71411" height="1.15686" rx="0.57843" fill="white" fill-opacity="0.7"/>
<rect opacity="0.8" x="44.8165" y="40.6392" width="4.70361" height="1.15686" rx="0.57843" fill="white" fill-opacity="0.7"/>
<rect opacity="0.8" x="44.8165" y="42.7961" width="7.71411" height="1.15686" rx="0.57843" fill="white" fill-opacity="0.7"/>
<rect opacity="0.8" x="44.8164" y="44.9529" width="8.50281" height="1.15686" rx="0.57843" fill="white" fill-opacity="0.7"/>
<rect opacity="0.8" x="44.8165" y="38.4824" width="8.75354" height="1.15686" rx="0.57843" fill="white" fill-opacity="0.7"/>
<line x1="60.5276" y1="35.0633" x2="72.6244" y2="35.0633" stroke="#C8C8C8" stroke-opacity="0.5" stroke-width="0.1"/>
<circle cx="59.1574" cy="33.301" r="0.85" fill="#D9D9D9"/>
<path opacity="0.42" d="M58.7011 33.6779H59.6106C59.6425 33.6779 59.6685 33.6492 59.6685 33.6162C59.6685 33.5985 59.6625 33.5831 59.6525 33.5721L59.4251 33.3208C59.4032 33.2966 59.3673 33.2966 59.3453 33.3208L59.2715 33.4024L59.084 33.1952C59.0621 33.1709 59.0262 33.1709 59.0043 33.1952L58.6632 33.5721C58.6412 33.5963 58.6412 33.636 58.6632 33.6603C58.6732 33.6713 58.6871 33.6779 58.7011 33.6779Z" fill="#06555E"/>
<path opacity="0.42" d="M59.4408 33.1753C59.5036 33.1753 59.5545 33.119 59.5545 33.0496C59.5545 32.9803 59.5036 32.924 59.4408 32.924C59.378 32.924 59.3271 32.9803 59.3271 33.0496C59.3271 33.119 59.378 33.1753 59.4408 33.1753Z" fill="#06555E"/>
<rect opacity="0.8" x="60.5277" y="32.849" width="7.71411" height="1.15686" rx="0.57843" fill="white"/>
<rect opacity="0.8" x="60.5277" y="36.3255" width="7.71411" height="1.15686" rx="0.57843" fill="white" fill-opacity="0.7"/>
<rect opacity="0.8" x="60.5277" y="40.6392" width="4.70361" height="1.15686" rx="0.57843" fill="white" fill-opacity="0.7"/>
<rect opacity="0.8" x="60.5277" y="42.7961" width="7.71411" height="1.15686" rx="0.57843" fill="white" fill-opacity="0.7"/>
<rect opacity="0.8" x="60.5276" y="44.9529" width="8.50281" height="1.15686" rx="0.57843" fill="white" fill-opacity="0.7"/>
<rect opacity="0.8" x="60.5277" y="38.4824" width="8.75354" height="1.15686" rx="0.57843" fill="white" fill-opacity="0.7"/>
<defs>
<filter id="filter0_i_583_2" x="9.19946" y="12.3656" width="6.21704" height="2" filterUnits="userSpaceOnUse" color-interpolation-filters="sRGB">
<feFlood flood-opacity="0" result="BackgroundImageFix"/>
<feBlend mode="normal" in="SourceGraphic" in2="BackgroundImageFix" result="shape"/>
<feColorMatrix in="SourceAlpha" type="matrix" values="0 0 0 0 0 0 0 0 0 0 0 0 0 0 0 0 0 0 127 0" result="hardAlpha"/>
<feOffset dy="1"/>
<feGaussianBlur stdDeviation="2"/>
<feComposite in2="hardAlpha" operator="arithmetic" k2="-1" k3="1"/>
<feColorMatrix type="matrix" values="0 0 0 0 1 0 0 0 0 1 0 0 0 0 1 0 0 0 0.0995138 0"/>
<feBlend mode="normal" in2="shape" result="effect1_innerShadow_583_2"/>
</filter>
</defs>
</svg>
