<svg width="82" height="60" viewBox="0 0 82 60" fill="none" xmlns="http://www.w3.org/2000/svg">
<rect width="82" height="60" fill="#016772" fill-opacity="0.8"/>
<path d="M9.19946 15.3656H24.7592V16.3656H9.19946M9.19946 17.3656H20.5156V18.3656H9.19946M9.19946 19.3656H24.7592V20.3656H9.19946" fill="white" fill-opacity="0.8"/>
<path d="M9.19946 15.3656H24.7592V16.3656H9.19946M9.19946 17.3656H20.5156V18.3656H9.19946M9.19946 19.3656H24.7592V20.3656H9.19946" fill="white" fill-opacity="0.348"/>
<g filter="url(#filter0_i_584_398)">
<path d="M15.4165 12.3656H9.19946V13.3656H15.4165V12.3656Z" fill="black"/>
</g>
<path d="M15.4165 12.3656H9.19946V13.3656H15.4165V12.3656Z" fill="white" fill-opacity="0.78"/>
<rect x="9.19946" y="22.3656" width="7.50977" height="1.34247" stroke="#CCCCCC" stroke-width="0.2"/>
<rect opacity="0.8" x="28.0708" y="12.3656" width="7.71411" height="1.15686" rx="0.57843" fill="white"/>
<circle cx="53.6363" cy="13.2156" r="0.85" fill="#D9D9D9"/>
<path opacity="0.42" d="M53.18 13.5925H54.0895C54.1214 13.5925 54.1473 13.5639 54.1473 13.5308C54.1473 13.5132 54.1413 13.4977 54.1314 13.4867L53.904 13.2354C53.8821 13.2112 53.8462 13.2112 53.8242 13.2354L53.7504 13.317L53.5629 13.1098C53.541 13.0856 53.5051 13.0856 53.4831 13.1098L53.1421 13.4867C53.1201 13.511 53.1201 13.5506 53.1421 13.5749C53.152 13.5859 53.166 13.5925 53.18 13.5925Z" fill="#06555E"/>
<path opacity="0.42" d="M53.9197 13.0899C53.9825 13.0899 54.0334 13.0336 54.0334 12.9643C54.0334 12.8949 53.9825 12.8386 53.9197 12.8386C53.8569 12.8386 53.806 12.8949 53.806 12.9643C53.806 13.0336 53.8569 13.0899 53.9197 13.0899Z" fill="#06555E"/>
<rect opacity="0.8" x="55.0066" y="12.5646" width="16.8743" height="1.30206" rx="0.651031" fill="white"/>
<circle cx="53.6363" cy="15.9636" r="0.85" fill="#D9D9D9"/>
<path opacity="0.42" d="M53.18 16.3406H54.0895C54.1214 16.3406 54.1473 16.3119 54.1473 16.2788C54.1473 16.2612 54.1413 16.2458 54.1314 16.2348L53.904 15.9835C53.8821 15.9592 53.8462 15.9592 53.8242 15.9835L53.7504 16.065L53.5629 15.8578C53.541 15.8336 53.5051 15.8336 53.4831 15.8578L53.1421 16.2348C53.1201 16.259 53.1201 16.2987 53.1421 16.3229C53.152 16.3339 53.166 16.3406 53.18 16.3406Z" fill="#06555E"/>
<path opacity="0.42" d="M53.9197 15.8379C53.9825 15.8379 54.0334 15.7817 54.0334 15.7123C54.0334 15.6429 53.9825 15.5867 53.9197 15.5867C53.8569 15.5867 53.806 15.6429 53.806 15.7123C53.806 15.7817 53.8569 15.8379 53.9197 15.8379Z" fill="#06555E"/>
<rect opacity="0.8" x="55.0066" y="15.3126" width="14.4716" height="1.30206" rx="0.651031" fill="white"/>
<circle cx="53.6363" cy="18.8251" r="0.85" fill="#D9D9D9"/>
<path opacity="0.42" d="M53.18 19.202H54.0895C54.1214 19.202 54.1473 19.1734 54.1473 19.1403C54.1473 19.1227 54.1413 19.1072 54.1314 19.0962L53.904 18.8449C53.8821 18.8207 53.8462 18.8207 53.8242 18.8449L53.7504 18.9265L53.5629 18.7193C53.541 18.695 53.5051 18.695 53.4831 18.7193L53.1421 19.0962C53.1201 19.1205 53.1201 19.1601 53.1421 19.1844C53.152 19.1954 53.166 19.202 53.18 19.202Z" fill="#06555E"/>
<path opacity="0.42" d="M53.9197 18.6994C53.9825 18.6994 54.0334 18.6431 54.0334 18.5738C54.0334 18.5044 53.9825 18.4481 53.9197 18.4481C53.8569 18.4481 53.806 18.5044 53.806 18.5738C53.806 18.6431 53.8569 18.6994 53.9197 18.6994Z" fill="#06555E"/>
<rect opacity="0.8" x="55.0066" y="18.1741" width="8.61865" height="1.30206" rx="0.651031" fill="white"/>
<circle cx="53.6363" cy="21.4606" r="0.85" fill="#D9D9D9"/>
<path opacity="0.42" d="M53.18 21.8375H54.0895C54.1214 21.8375 54.1473 21.8089 54.1473 21.7758C54.1473 21.7582 54.1413 21.7427 54.1314 21.7317L53.904 21.4804C53.8821 21.4562 53.8462 21.4562 53.8242 21.4804L53.7504 21.562L53.5629 21.3548C53.541 21.3305 53.5051 21.3305 53.4831 21.3548L53.1421 21.7317C53.1201 21.756 53.1201 21.7956 53.1421 21.8199C53.152 21.8309 53.166 21.8375 53.18 21.8375Z" fill="#06555E"/>
<path opacity="0.42" d="M53.9197 21.3349C53.9825 21.3349 54.0334 21.2786 54.0334 21.2093C54.0334 21.1399 53.9825 21.0836 53.9197 21.0836C53.8569 21.0836 53.806 21.1399 53.806 21.2093C53.806 21.2786 53.8569 21.3349 53.9197 21.3349Z" fill="#06555E"/>
<rect opacity="0.8" x="55.0066" y="20.8096" width="12.192" height="1.30206" rx="0.651031" fill="white"/>
<circle cx="28.9208" cy="16.6186" r="0.85" fill="#D9D9D9"/>
<path opacity="0.42" d="M28.4645 16.9955H29.374C29.4059 16.9955 29.4319 16.9668 29.4319 16.9337C29.4319 16.9161 29.4259 16.9007 29.4159 16.8897L29.1885 16.6384C29.1666 16.6141 29.1307 16.6141 29.1088 16.6384L29.035 16.7199L28.8475 16.5128C28.8255 16.4885 28.7896 16.4885 28.7677 16.5128L28.4266 16.8897C28.4047 16.9139 28.4047 16.9536 28.4266 16.9778C28.4366 16.9889 28.4505 16.9955 28.4645 16.9955Z" fill="#06555E"/>
<path opacity="0.42" d="M29.2043 16.4929C29.2671 16.4929 29.318 16.4366 29.318 16.3672C29.318 16.2978 29.2671 16.2416 29.2043 16.2416C29.1415 16.2416 29.0906 16.2978 29.0906 16.3672C29.0906 16.4366 29.1415 16.4929 29.2043 16.4929Z" fill="#06555E"/>
<rect opacity="0.8" x="30.2911" y="15.9675" width="10.4763" height="1.30206" rx="0.651031" fill="white"/>
<rect opacity="0.8" x="30.2913" y="18.509" width="20.0072" height="1.15686" rx="0.57843" fill="white" fill-opacity="0.55"/>
<rect opacity="0.8" x="30.2911" y="20.1486" width="11.4369" height="1.15686" rx="0.57843" fill="white" fill-opacity="0.55"/>
<circle cx="28.9208" cy="23.7783" r="0.85" fill="#D9D9D9"/>
<path opacity="0.42" d="M28.4645 24.1552H29.374C29.4059 24.1552 29.4319 24.1265 29.4319 24.0935C29.4319 24.0758 29.4259 24.0604 29.4159 24.0494L29.1885 23.7981C29.1666 23.7739 29.1307 23.7739 29.1088 23.7981L29.035 23.8797L28.8475 23.6725C28.8255 23.6482 28.7896 23.6482 28.7677 23.6725L28.4266 24.0494C28.4047 24.0736 28.4047 24.1133 28.4266 24.1376C28.4366 24.1486 28.4505 24.1552 28.4645 24.1552Z" fill="#06555E"/>
<path opacity="0.42" d="M29.2043 23.6526C29.2671 23.6526 29.318 23.5963 29.318 23.5269C29.318 23.4576 29.2671 23.4013 29.2043 23.4013C29.1415 23.4013 29.0906 23.4576 29.0906 23.5269C29.0906 23.5963 29.1415 23.6526 29.2043 23.6526Z" fill="#06555E"/>
<rect opacity="0.8" x="30.2911" y="23.1273" width="10.4763" height="1.30206" rx="0.651031" fill="white"/>
<rect opacity="0.8" x="30.2913" y="25.6687" width="20.0072" height="1.15686" rx="0.57843" fill="white" fill-opacity="0.55"/>
<rect opacity="0.8" x="30.2911" y="27.3083" width="5.49377" height="1.15686" rx="0.57843" fill="white" fill-opacity="0.55"/>
<circle cx="28.9208" cy="30.938" r="0.85" fill="#D9D9D9"/>
<path opacity="0.42" d="M28.4645 31.3149H29.374C29.4059 31.3149 29.4319 31.2863 29.4319 31.2532C29.4319 31.2356 29.4259 31.2201 29.4159 31.2091L29.1885 30.9578C29.1666 30.9336 29.1307 30.9336 29.1088 30.9578L29.035 31.0394L28.8475 30.8322C28.8255 30.808 28.7896 30.808 28.7677 30.8322L28.4266 31.2091C28.4047 31.2334 28.4047 31.273 28.4266 31.2973C28.4366 31.3083 28.4505 31.3149 28.4645 31.3149Z" fill="#06555E"/>
<path opacity="0.42" d="M29.2043 30.8123C29.2671 30.8123 29.318 30.7561 29.318 30.6867C29.318 30.6173 29.2671 30.561 29.2043 30.561C29.1415 30.561 29.0906 30.6173 29.0906 30.6867C29.0906 30.7561 29.1415 30.8123 29.2043 30.8123Z" fill="#06555E"/>
<rect opacity="0.8" x="30.2911" y="30.287" width="10.4763" height="1.30206" rx="0.651031" fill="white"/>
<rect opacity="0.8" x="30.2913" y="32.8284" width="20.0072" height="1.15686" rx="0.57843" fill="white" fill-opacity="0.55"/>
<rect opacity="0.8" x="30.2911" y="34.4681" width="5.49377" height="1.15686" rx="0.57843" fill="white" fill-opacity="0.55"/>
<path d="M9.19946 40.0837L72.4839 40.1026" stroke="#F4F4F4" stroke-opacity="0.5" stroke-width="0.3" stroke-linecap="round"/>
<defs>
<filter id="filter0_i_584_398" x="9.19946" y="12.3656" width="6.21704" height="2" filterUnits="userSpaceOnUse" color-interpolation-filters="sRGB">
<feFlood flood-opacity="0" result="BackgroundImageFix"/>
<feBlend mode="normal" in="SourceGraphic" in2="BackgroundImageFix" result="shape"/>
<feColorMatrix in="SourceAlpha" type="matrix" values="0 0 0 0 0 0 0 0 0 0 0 0 0 0 0 0 0 0 127 0" result="hardAlpha"/>
<feOffset dy="1"/>
<feGaussianBlur stdDeviation="2"/>
<feComposite in2="hardAlpha" operator="arithmetic" k2="-1" k3="1"/>
<feColorMatrix type="matrix" values="0 0 0 0 1 0 0 0 0 1 0 0 0 0 1 0 0 0 0.0995138 0"/>
<feBlend mode="normal" in2="shape" result="effect1_innerShadow_584_398"/>
</filter>
</defs>
</svg>
