<svg width="230" height="50" viewBox="0 0 230 50" fill="none" xmlns="http://www.w3.org/2000/svg">
<g clip-path="url(#clip0_559_755)">
<rect width="230" height="49.15" transform="translate(0 0.449707)" fill="#016772" fill-opacity="0.8"/>
<path d="M192.668 47.6133H187.999C187.788 47.6133 187.616 47.4581 187.616 47.2684V44.7331C187.616 44.5434 187.788 44.3882 187.999 44.3882H192.668C192.879 44.3882 193.051 44.5434 193.051 44.7331V47.2684C193.051 47.4581 192.879 47.6133 192.668 47.6133Z" fill="white"/>
<path opacity="0.42" d="M189.337 46.7538H191.322C191.392 46.7538 191.449 46.6965 191.449 46.6304C191.449 46.5952 191.436 46.5644 191.414 46.5424L190.917 46.0403C190.87 45.9919 190.791 45.9919 190.743 46.0403L190.582 46.2032L190.173 45.7893C190.125 45.7408 190.047 45.7408 189.999 45.7893L189.254 46.5424C189.206 46.5908 189.206 46.6701 189.254 46.7185C189.276 46.7405 189.306 46.7538 189.337 46.7538Z" fill="#06555E"/>
<path opacity="0.42" d="M190.952 45.7496C191.089 45.7496 191.2 45.6372 191.2 45.4986C191.2 45.36 191.089 45.2476 190.952 45.2476C190.815 45.2476 190.704 45.36 190.704 45.4986C190.704 45.6372 190.815 45.7496 190.952 45.7496Z" fill="#06555E"/>
<path d="M199.095 47.6133H194.425C194.215 47.6133 194.043 47.4581 194.043 47.2684V44.7331C194.043 44.5434 194.215 44.3882 194.425 44.3882H199.095C199.305 44.3882 199.477 44.5434 199.477 44.7331V47.2684C199.477 47.4581 199.305 47.6133 199.095 47.6133Z" fill="white"/>
<path opacity="0.42" d="M195.763 46.7538H197.749C197.819 46.7538 197.875 46.6965 197.875 46.6304C197.875 46.5952 197.862 46.5644 197.84 46.5424L197.344 46.0403C197.296 45.9919 197.218 45.9919 197.17 46.0403L197.009 46.2032L196.599 45.7893C196.551 45.7408 196.473 45.7408 196.425 45.7893L195.681 46.5424C195.633 46.5908 195.633 46.6701 195.681 46.7185C195.702 46.7405 195.733 46.7538 195.763 46.7538Z" fill="#06555E"/>
<path opacity="0.42" d="M197.379 45.7496C197.516 45.7496 197.627 45.6372 197.627 45.4986C197.627 45.36 197.516 45.2476 197.379 45.2476C197.242 45.2476 197.131 45.36 197.131 45.4986C197.131 45.6372 197.242 45.7496 197.379 45.7496Z" fill="#06555E"/>
<path d="M205.521 47.6133H200.852C200.641 47.6133 200.469 47.4581 200.469 47.2684V44.7331C200.469 44.5434 200.641 44.3882 200.852 44.3882H205.521C205.732 44.3882 205.904 44.5434 205.904 44.7331V47.2684C205.904 47.4581 205.732 47.6133 205.521 47.6133Z" fill="white"/>
<path opacity="0.42" d="M202.19 46.7538H204.175C204.245 46.7538 204.302 46.6965 204.302 46.6304C204.302 46.5952 204.289 46.5644 204.267 46.5424L203.77 46.0403C203.723 45.9919 203.644 45.9919 203.596 46.0403L203.435 46.2032L203.026 45.7893C202.978 45.7408 202.9 45.7408 202.852 45.7893L202.107 46.5424C202.059 46.5908 202.059 46.6701 202.107 46.7185C202.129 46.7405 202.159 46.7538 202.19 46.7538Z" fill="#06555E"/>
<path opacity="0.42" d="M203.805 45.7496C203.942 45.7496 204.053 45.6372 204.053 45.4986C204.053 45.36 203.942 45.2476 203.805 45.2476C203.668 45.2476 203.557 45.36 203.557 45.4986C203.557 45.6372 203.668 45.7496 203.805 45.7496Z" fill="#06555E"/>
<path d="M211.948 47.6133H207.278C207.068 47.6133 206.896 47.4581 206.896 47.2684V44.7331C206.896 44.5434 207.068 44.3882 207.278 44.3882H211.948C212.158 44.3882 212.33 44.5434 212.33 44.7331V47.2684C212.33 47.4581 212.158 47.6133 211.948 47.6133Z" fill="white"/>
<path opacity="0.42" d="M208.616 46.7538H210.602C210.672 46.7538 210.728 46.6965 210.728 46.6304C210.728 46.5952 210.715 46.5644 210.693 46.5424L210.197 46.0403C210.149 45.9919 210.071 45.9919 210.023 46.0403L209.862 46.2032L209.452 45.7893C209.405 45.7408 209.326 45.7408 209.278 45.7893L208.534 46.5424C208.486 46.5908 208.486 46.6701 208.534 46.7185C208.555 46.7405 208.586 46.7538 208.616 46.7538Z" fill="#06555E"/>
<path opacity="0.42" d="M210.232 45.7496C210.369 45.7496 210.48 45.6372 210.48 45.4986C210.48 45.36 210.369 45.2476 210.232 45.2476C210.095 45.2476 209.984 45.36 209.984 45.4986C209.984 45.6372 210.095 45.7496 210.232 45.7496Z" fill="#06555E"/>
<path d="M218.374 47.6133H213.705C213.494 47.6133 213.322 47.4581 213.322 47.2684V44.7331C213.322 44.5434 213.494 44.3882 213.705 44.3882H218.374C218.585 44.3882 218.757 44.5434 218.757 44.7331V47.2684C218.757 47.4581 218.585 47.6133 218.374 47.6133Z" fill="white"/>
<path opacity="0.42" d="M215.043 46.7538H217.028C217.098 46.7538 217.155 46.6965 217.155 46.6304C217.155 46.5952 217.142 46.5644 217.12 46.5424L216.623 46.0403C216.576 45.9919 216.497 45.9919 216.449 46.0403L216.288 46.2032L215.879 45.7893C215.831 45.7408 215.753 45.7408 215.705 45.7893L214.96 46.5424C214.912 46.5908 214.912 46.6701 214.96 46.7185C214.982 46.7405 215.012 46.7538 215.043 46.7538Z" fill="#06555E"/>
<path opacity="0.42" d="M216.658 45.7496C216.795 45.7496 216.906 45.6372 216.906 45.4986C216.906 45.36 216.795 45.2476 216.658 45.2476C216.521 45.2476 216.41 45.36 216.41 45.4986C216.41 45.6372 216.521 45.7496 216.658 45.7496Z" fill="#06555E"/>
<path d="M37.6638 18.1919H12.4653C11.8815 18.1919 11.4106 17.6907 11.4106 17.0691V16.7483C11.4106 16.1267 11.8815 15.6255 12.4653 15.6255H37.645C38.2288 15.6255 38.6996 16.1267 38.6996 16.7483V17.0491C38.7185 17.6706 38.2477 18.1919 37.6638 18.1919Z" fill="white"/>
<path d="M23.2726 23.1847H11.8872C11.6234 23.1847 11.4106 22.8609 11.4106 22.4594V22.2522C11.4106 21.8507 11.6234 21.5269 11.8872 21.5269H23.2641C23.5279 21.5269 23.7406 21.8507 23.7406 22.2522V22.4465C23.7492 22.848 23.5364 23.1847 23.2726 23.1847Z" fill="white" fill-opacity="0.9"/>
<path d="M24.7741 27.1271H11.9475C11.6503 27.1271 11.4106 26.8033 11.4106 26.4018V26.1946C11.4106 25.793 11.6503 25.4692 11.9475 25.4692H24.7645C25.0617 25.4692 25.3013 25.793 25.3013 26.1946V26.3888C25.3109 26.7904 25.0713 27.1271 24.7741 27.1271Z" fill="white" fill-opacity="0.9"/>
<path d="M17.7609 31.069H11.6657C11.5245 31.069 11.4106 30.7452 11.4106 30.3437V30.1365C11.4106 29.7349 11.5245 29.4111 11.6657 29.4111H17.7563C17.8975 29.4111 18.0114 29.7349 18.0114 30.1365V30.3307C18.016 30.7323 17.9021 31.069 17.7609 31.069Z" fill="white" fill-opacity="0.9"/>
<path d="M26.0152 35.0104H11.9973C11.6726 35.0104 11.4106 34.6866 11.4106 34.2851V34.0779C11.4106 33.6763 11.6726 33.3525 11.9973 33.3525H26.0047C26.3295 33.3525 26.5914 33.6763 26.5914 34.0779V34.2722C26.6019 34.6737 26.34 35.0104 26.0152 35.0104Z" fill="white" fill-opacity="0.9"/>
<path d="M24.7741 38.9528H11.9475C11.6503 38.9528 11.4106 38.629 11.4106 38.2275V38.0202C11.4106 37.6187 11.6503 37.2949 11.9475 37.2949H24.7645C25.0617 37.2949 25.3013 37.6187 25.3013 38.0202V38.2145C25.3109 38.6161 25.0713 38.9528 24.7741 38.9528Z" fill="white" fill-opacity="0.9"/>
<path d="M75.0606 18.1919H49.8621C49.2783 18.1919 48.8074 17.6907 48.8074 17.0691V16.7483C48.8074 16.1267 49.2783 15.6255 49.8621 15.6255H75.0418C75.6256 15.6255 76.0964 16.1267 76.0964 16.7483V17.0491C76.1153 17.6706 75.6444 18.1919 75.0606 18.1919Z" fill="white"/>
<path d="M60.6694 23.1847H49.284C49.0202 23.1847 48.8074 22.8609 48.8074 22.4594V22.2522C48.8074 21.8507 49.0202 21.5269 49.284 21.5269H60.6609C60.9247 21.5269 61.1374 21.8507 61.1374 22.2522V22.4465C61.1459 22.848 60.9332 23.1847 60.6694 23.1847Z" fill="white" fill-opacity="0.9"/>
<path d="M62.1709 27.1271H49.3443C49.0471 27.1271 48.8074 26.8033 48.8074 26.4018V26.1946C48.8074 25.793 49.0471 25.4692 49.3443 25.4692H62.1613C62.4585 25.4692 62.6981 25.793 62.6981 26.1946V26.3888C62.7077 26.7904 62.4681 27.1271 62.1709 27.1271Z" fill="white" fill-opacity="0.9"/>
<path d="M55.1577 31.069H49.0625C48.9213 31.069 48.8074 30.7452 48.8074 30.3437V30.1365C48.8074 29.7349 48.9213 29.4111 49.0625 29.4111H55.1531C55.2943 29.4111 55.4082 29.7349 55.4082 30.1365V30.3307C55.4128 30.7323 55.2989 31.069 55.1577 31.069Z" fill="white" fill-opacity="0.9"/>
<path d="M63.412 35.0104H49.3941C49.0694 35.0104 48.8074 34.6866 48.8074 34.2851V34.0779C48.8074 33.6763 49.0694 33.3525 49.3941 33.3525H63.4015C63.7263 33.3525 63.9882 33.6763 63.9882 34.0779V34.2722C63.9987 34.6737 63.7368 35.0104 63.412 35.0104Z" fill="white" fill-opacity="0.9"/>
<path d="M62.1709 38.9528H49.3443C49.0471 38.9528 48.8074 38.629 48.8074 38.2275V38.0202C48.8074 37.6187 49.0471 37.2949 49.3443 37.2949H62.1613C62.4585 37.2949 62.6981 37.6187 62.6981 38.0202V38.2145C62.7077 38.6161 62.4681 38.9528 62.1709 38.9528Z" fill="white" fill-opacity="0.9"/>
<path d="M112.458 18.1919H87.2591C86.6753 18.1919 86.2045 17.6907 86.2045 17.0691V16.7483C86.2045 16.1267 86.6753 15.6255 87.2591 15.6255H112.439C113.023 15.6255 113.493 16.1267 113.493 16.7483V17.0491C113.512 17.6706 113.041 18.1919 112.458 18.1919Z" fill="white"/>
<path d="M98.0665 23.1847H86.681C86.4172 23.1847 86.2045 22.8609 86.2045 22.4594V22.2522C86.2045 21.8507 86.4172 21.5269 86.681 21.5269H98.0579C98.3217 21.5269 98.5345 21.8507 98.5345 22.2522V22.4465C98.543 22.848 98.3302 23.1847 98.0665 23.1847Z" fill="white" fill-opacity="0.9"/>
<path d="M99.5679 27.1271H86.7413C86.4441 27.1271 86.2045 26.8033 86.2045 26.4018V26.1946C86.2045 25.793 86.4441 25.4692 86.7413 25.4692H99.5583C99.8555 25.4692 100.095 25.793 100.095 26.1946V26.3888C100.105 26.7904 99.8651 27.1271 99.5679 27.1271Z" fill="white" fill-opacity="0.9"/>
<path d="M92.5547 31.069H86.4596C86.3184 31.069 86.2045 30.7452 86.2045 30.3437V30.1365C86.2045 29.7349 86.3184 29.4111 86.4596 29.4111H92.5502C92.6914 29.4111 92.8053 29.7349 92.8053 30.1365V30.3307C92.8098 30.7323 92.6959 31.069 92.5547 31.069Z" fill="white" fill-opacity="0.9"/>
<path d="M100.809 35.0104H86.7912C86.4664 35.0104 86.2045 34.6866 86.2045 34.2851V34.0779C86.2045 33.6763 86.4664 33.3525 86.7912 33.3525H100.799C101.123 33.3525 101.385 33.6763 101.385 34.0779V34.2722C101.396 34.6737 101.134 35.0104 100.809 35.0104Z" fill="white" fill-opacity="0.9"/>
<path d="M99.5679 38.9528H86.7413C86.4441 38.9528 86.2045 38.629 86.2045 38.2275V38.0202C86.2045 37.6187 86.4441 37.2949 86.7413 37.2949H99.5583C99.8555 37.2949 100.095 37.6187 100.095 38.0202V38.2145C100.105 38.6161 99.8651 38.9528 99.5679 38.9528Z" fill="white" fill-opacity="0.9"/>
<path d="M149.855 18.1919H124.656C124.072 18.1919 123.601 17.6907 123.601 17.0691V16.7483C123.601 16.1267 124.072 15.6255 124.656 15.6255H149.836C150.42 15.6255 150.89 16.1267 150.89 16.7483V17.0491C150.909 17.6706 150.438 18.1919 149.855 18.1919Z" fill="white"/>
<path d="M135.463 23.1847H124.078C123.814 23.1847 123.601 22.8609 123.601 22.4594V22.2522C123.601 21.8507 123.814 21.5269 124.078 21.5269H135.455C135.719 21.5269 135.931 21.8507 135.931 22.2522V22.4465C135.94 22.848 135.727 23.1847 135.463 23.1847Z" fill="white" fill-opacity="0.9"/>
<path d="M136.965 27.1271H124.138C123.841 27.1271 123.601 26.8033 123.601 26.4018V26.1946C123.601 25.793 123.841 25.4692 124.138 25.4692H136.955C137.252 25.4692 137.492 25.793 137.492 26.1946V26.3888C137.502 26.7904 137.262 27.1271 136.965 27.1271Z" fill="white" fill-opacity="0.9"/>
<path d="M129.952 31.069H123.856C123.715 31.069 123.601 30.7452 123.601 30.3437V30.1365C123.601 29.7349 123.715 29.4111 123.856 29.4111H129.947C130.088 29.4111 130.202 29.7349 130.202 30.1365V30.3307C130.207 30.7323 130.093 31.069 129.952 31.069Z" fill="white" fill-opacity="0.9"/>
<path d="M138.206 35.0104H124.188C123.863 35.0104 123.601 34.6866 123.601 34.2851V34.0779C123.601 33.6763 123.863 33.3525 124.188 33.3525H138.195C138.52 33.3525 138.782 33.6763 138.782 34.0779V34.2722C138.793 34.6737 138.531 35.0104 138.206 35.0104Z" fill="white" fill-opacity="0.9"/>
<path d="M136.965 38.9528H124.138C123.841 38.9528 123.601 38.629 123.601 38.2275V38.0202C123.601 37.6187 123.841 37.2949 124.138 37.2949H136.955C137.252 37.2949 137.492 37.6187 137.492 38.0202V38.2145C137.502 38.6161 137.262 38.9528 136.965 38.9528Z" fill="white" fill-opacity="0.9"/>
<line opacity="0.6" x1="11.3427" y1="42.3474" x2="218.657" y2="41.5388" stroke="white" stroke-width="0.2" stroke-linecap="round"/>
<rect opacity="0.8" x="11.2427" y="44.9985" width="74.9018" height="2.00488" rx="1.00244" fill="white"/>
<path d="M202.275 22.4388H162.855C161.942 22.4388 161.205 22.0595 161.205 21.5893V21.3466C161.205 20.8763 161.942 20.4971 162.855 20.4971H202.245C203.159 20.4971 203.895 20.8763 203.895 21.3466V21.5741C203.925 22.0444 203.188 22.4388 202.275 22.4388Z" fill="white" fill-opacity="0.81"/>
<path d="M193.524 25.3867H162.504C161.785 25.3867 161.205 25.002 161.205 24.525V24.2787C161.205 23.8017 161.785 23.417 162.504 23.417H193.501C194.219 23.417 194.799 23.8017 194.799 24.2787V24.5096C194.822 24.9866 194.242 25.3867 193.524 25.3867Z" fill="white" fill-opacity="0.81"/>
<path d="M200.496 17.7881H162.784C161.91 17.7881 161.205 17.3657 161.205 16.842V16.5716C161.205 16.0479 161.91 15.6255 162.784 15.6255H200.468C201.342 15.6255 202.046 16.0479 202.046 16.5716V16.8251C202.075 17.3488 201.37 17.7881 200.496 17.7881Z" fill="white"/>
<path d="M171.581 37.67H161.622C161.391 37.67 161.205 37.4431 161.205 37.1617V37.0165C161.205 36.7352 161.391 36.5083 161.622 36.5083H171.574C171.805 36.5083 171.991 36.7352 171.991 37.0165V37.1527C171.998 37.434 171.812 37.67 171.581 37.67Z" fill="white" fill-opacity="0.8"/>
<ellipse cx="174.849" cy="37.085" rx="1.29657" ry="1.26615" fill="#D9D9D9"/>
<path opacity="0.42" d="M174.153 37.647H175.54C175.589 37.647 175.629 37.6043 175.629 37.5551C175.629 37.5288 175.619 37.5058 175.604 37.4894L175.257 37.1151C175.224 37.079 175.169 37.079 175.136 37.1151L175.023 37.2366L174.737 36.928C174.704 36.8918 174.649 36.8918 174.615 36.928L174.095 37.4894C174.062 37.5255 174.062 37.5846 174.095 37.6207C174.11 37.6372 174.132 37.647 174.153 37.647Z" fill="#06555E"/>
<path opacity="0.42" d="M175.282 36.8982C175.377 36.8982 175.455 36.8144 175.455 36.7111C175.455 36.6077 175.377 36.5239 175.282 36.5239C175.186 36.5239 175.108 36.6077 175.108 36.7111C175.108 36.8144 175.186 36.8982 175.282 36.8982Z" fill="#06555E"/>
<ellipse cx="177.875" cy="37.0933" rx="1.29657" ry="1.26615" fill="#D9D9D9"/>
<path opacity="0.42" d="M177.178 37.6543H178.566C178.614 37.6543 178.654 37.6116 178.654 37.5624C178.654 37.5361 178.645 37.5131 178.63 37.4967L178.283 37.1224C178.249 37.0863 178.194 37.0863 178.161 37.1224L178.048 37.2439L177.762 36.9353C177.729 36.8992 177.674 36.8992 177.641 36.9353L177.12 37.4967C177.087 37.5328 177.087 37.5919 177.12 37.6281C177.136 37.6445 177.157 37.6543 177.178 37.6543Z" fill="#06555E"/>
<path opacity="0.42" d="M178.307 36.906C178.403 36.906 178.481 36.8222 178.481 36.7189C178.481 36.6155 178.403 36.5317 178.307 36.5317C178.211 36.5317 178.134 36.6155 178.134 36.7189C178.134 36.8222 178.211 36.906 178.307 36.906Z" fill="#06555E"/>
<ellipse cx="180.9" cy="37.085" rx="1.29657" ry="1.26615" fill="#D9D9D9"/>
<path opacity="0.42" d="M180.204 37.647H181.591C181.64 37.647 181.679 37.6043 181.679 37.5551C181.679 37.5288 181.67 37.5058 181.655 37.4894L181.308 37.1151C181.274 37.079 181.22 37.079 181.186 37.1151L181.074 37.2366L180.788 36.928C180.754 36.8918 180.699 36.8918 180.666 36.928L180.146 37.4894C180.112 37.5255 180.112 37.5846 180.146 37.6207C180.161 37.6372 180.182 37.647 180.204 37.647Z" fill="#06555E"/>
<path opacity="0.42" d="M181.332 36.8982C181.428 36.8982 181.506 36.8144 181.506 36.7111C181.506 36.6077 181.428 36.5239 181.332 36.5239C181.237 36.5239 181.159 36.6077 181.159 36.7111C181.159 36.8144 181.237 36.8982 181.332 36.8982Z" fill="#06555E"/>
<ellipse cx="183.925" cy="37.0933" rx="1.29657" ry="1.26615" fill="#D9D9D9"/>
<path opacity="0.42" d="M183.229 37.6543H184.616C184.665 37.6543 184.705 37.6116 184.705 37.5624C184.705 37.5361 184.695 37.5131 184.68 37.4967L184.333 37.1224C184.3 37.0863 184.245 37.0863 184.212 37.1224L184.099 37.2439L183.813 36.9353C183.78 36.8992 183.725 36.8992 183.691 36.9353L183.171 37.4967C183.138 37.5328 183.138 37.5919 183.171 37.6281C183.186 37.6445 183.208 37.6543 183.229 37.6543Z" fill="#06555E"/>
<path opacity="0.42" d="M184.358 36.906C184.453 36.906 184.531 36.8222 184.531 36.7189C184.531 36.6155 184.453 36.5317 184.358 36.5317C184.262 36.5317 184.184 36.6155 184.184 36.7189C184.184 36.8222 184.262 36.906 184.358 36.906Z" fill="#06555E"/>
<rect x="161.098" y="28.7714" width="57.5589" height="4.40059" stroke="white" stroke-width="0.2"/>
<rect x="201.466" y="28.6714" width="17.0968" height="4.60059" fill="#D9D9D9"/>
<rect x="11.4106" y="0.449707" width="207.152" height="11.395" fill="#D9D9D9" fill-opacity="0.8"/>
<path d="M90.0987 7.1317H84.194C83.9281 7.1317 83.7104 6.89997 83.7104 6.61674V2.83185C83.7104 2.54862 83.9281 2.31689 84.194 2.31689H90.0987C90.3647 2.31689 90.5823 2.54862 90.5823 2.83185V6.61674C90.5823 6.89997 90.3647 7.1317 90.0987 7.1317Z" fill="white"/>
<path opacity="0.42" d="M85.8864 5.84914H88.397C88.485 5.84914 88.5566 5.76366 88.5566 5.66504C88.5566 5.61244 88.5401 5.56642 88.5126 5.53354L87.8849 4.784C87.8244 4.71167 87.7253 4.71167 87.6647 4.784L87.461 5.02727L86.9435 4.40922C86.8829 4.3369 86.7838 4.3369 86.7232 4.40922L85.7818 5.53354C85.7212 5.60587 85.7212 5.72422 85.7818 5.79654C85.8093 5.82941 85.8478 5.84914 85.8864 5.84914Z" fill="#06555E"/>
<path opacity="0.42" d="M87.9289 4.34964C88.1022 4.34964 88.2427 4.18185 88.2427 3.97487C88.2427 3.76789 88.1022 3.6001 87.9289 3.6001C87.7556 3.6001 87.6151 3.76789 87.6151 3.97487C87.6151 4.18185 87.7556 4.34964 87.9289 4.34964Z" fill="#06555E"/>
<path d="M99.9786 9.67925H75.5509C74.985 9.67925 74.5286 9.3507 74.5286 8.9433V8.73302C74.5286 8.32562 74.985 7.99707 75.5509 7.99707H99.9603C100.526 7.99707 100.983 8.32562 100.983 8.73302V8.93016C101.001 9.33756 100.545 9.67925 99.9786 9.67925Z" fill="white"/>
<path d="M38.5313 7.1317H32.5418C32.272 7.1317 32.0513 6.89997 32.0513 6.61674V2.83185C32.0513 2.54862 32.272 2.31689 32.5418 2.31689H38.5313C38.8011 2.31689 39.0219 2.54862 39.0219 2.83185V6.61674C39.0219 6.89997 38.8011 7.1317 38.5313 7.1317Z" fill="white"/>
<path opacity="0.42" d="M34.2584 5.84914H36.805C36.8944 5.84914 36.967 5.76366 36.967 5.66504C36.967 5.61244 36.9502 5.56642 36.9223 5.53354L36.2857 4.784C36.2242 4.71167 36.1237 4.71167 36.0623 4.784L35.8556 5.02727L35.3307 4.40922C35.2692 4.3369 35.1687 4.3369 35.1073 4.40922L34.1523 5.53354C34.0908 5.60587 34.0908 5.72422 34.1523 5.79654C34.1802 5.82941 34.2193 5.84914 34.2584 5.84914Z" fill="#06555E"/>
<path opacity="0.42" d="M36.3303 4.34964C36.5061 4.34964 36.6486 4.18185 36.6486 3.97487C36.6486 3.76789 36.5061 3.6001 36.3303 3.6001C36.1545 3.6001 36.012 3.76789 36.012 3.97487C36.012 4.18185 36.1545 4.34964 36.3303 4.34964Z" fill="#06555E"/>
<path d="M48.3193 9.67925H23.8917C23.3257 9.67925 22.8693 9.3507 22.8693 8.9433V8.73302C22.8693 8.32562 23.3257 7.99707 23.8917 7.99707H48.3011C48.867 7.99707 49.3235 8.32562 49.3235 8.73302V8.93016C49.3417 9.33756 48.8853 9.67925 48.3193 9.67925Z" fill="white"/>
<path d="M141.432 7.34752H135.829C135.576 7.34752 135.37 7.11579 135.37 6.83256V3.04767C135.37 2.76444 135.576 2.53271 135.829 2.53271H141.432C141.685 2.53271 141.891 2.76444 141.891 3.04767V6.83256C141.891 7.11579 141.685 7.34752 141.432 7.34752Z" fill="white"/>
<path opacity="0.42" d="M137.435 6.06447H139.817C139.901 6.06447 139.969 5.979 139.969 5.88037C139.969 5.82777 139.953 5.78175 139.927 5.74887L139.331 4.99933C139.274 4.927 139.18 4.927 139.122 4.99933L138.929 5.2426L138.438 4.62456C138.38 4.55223 138.286 4.55223 138.229 4.62456L137.335 5.74887C137.278 5.8212 137.278 5.93955 137.335 6.01187C137.362 6.04475 137.398 6.06447 137.435 6.06447Z" fill="#06555E"/>
<path opacity="0.42" d="M139.373 4.56497C139.538 4.56497 139.671 4.39718 139.671 4.1902C139.671 3.98322 139.538 3.81543 139.373 3.81543C139.209 3.81543 139.075 3.98322 139.075 4.1902C139.075 4.39718 139.209 4.56497 139.373 4.56497Z" fill="#06555E"/>
<path d="M151.638 9.89507H127.21C126.644 9.89507 126.188 9.56652 126.188 9.15912V8.94885C126.188 8.54144 126.644 8.21289 127.21 8.21289H151.619C152.185 8.21289 152.642 8.54144 152.642 8.94885V9.14598C152.66 9.55338 152.204 9.89507 151.638 9.89507Z" fill="white"/>
<path d="M193.468 7.03795H187.516C187.248 7.03795 187.029 6.80622 187.029 6.52299V2.7381C187.029 2.45487 187.248 2.22314 187.516 2.22314H193.468C193.736 2.22314 193.955 2.45487 193.955 2.7381V6.52299C193.955 6.80622 193.736 7.03795 193.468 7.03795Z" fill="white"/>
<path opacity="0.42" d="M189.222 5.7549H191.752C191.841 5.7549 191.913 5.66943 191.913 5.5708C191.913 5.5182 191.897 5.47218 191.869 5.4393L191.236 4.68976C191.175 4.61743 191.075 4.61743 191.014 4.68976L190.809 4.93303L190.287 4.31499C190.226 4.24266 190.126 4.24266 190.065 4.31499L189.117 5.4393C189.055 5.51163 189.055 5.62998 189.117 5.7023C189.144 5.73518 189.183 5.7549 189.222 5.7549Z" fill="#06555E"/>
<path opacity="0.42" d="M191.281 4.2554C191.455 4.2554 191.597 4.08761 191.597 3.88063C191.597 3.67365 191.455 3.50586 191.281 3.50586C191.106 3.50586 190.964 3.67365 190.964 3.88063C190.964 4.08761 191.106 4.2554 191.281 4.2554Z" fill="#06555E"/>
<path d="M203.297 9.5855H178.869C178.303 9.5855 177.847 9.25695 177.847 8.84955V8.63927C177.847 8.23187 178.303 7.90332 178.869 7.90332H203.279C203.845 7.90332 204.301 8.23187 204.301 8.63927V8.83641C204.319 9.24381 203.863 9.5855 203.297 9.5855Z" fill="white"/>
</g>
<defs>
<clipPath id="clip0_559_755">
<rect width="230" height="49.15" fill="white" transform="translate(0 0.449707)"/>
</clipPath>
</defs>
</svg>
