<svg width="230" height="50" viewBox="0 0 230 50" fill="none" xmlns="http://www.w3.org/2000/svg">
<rect width="230" height="49.15" transform="translate(0 0.549805)" fill="#016772" fill-opacity="0.8"/>
<path d="M102.509 7.23633H82.6867C82.2274 7.23633 81.8571 6.68768 81.8571 6.00736V5.65622C81.8571 4.9759 82.2274 4.42725 82.6867 4.42725H102.494C102.953 4.42725 103.324 4.9759 103.324 5.65622V5.98541C103.338 6.66573 102.968 7.23633 102.509 7.23633Z" fill="white"/>
<path d="M93.6582 12.3439H82.3311C82.0687 12.3439 81.8571 11.9895 81.8571 11.55V11.3232C81.8571 10.8837 82.0687 10.5293 82.3311 10.5293H93.6498C93.9122 10.5293 94.1238 10.8837 94.1238 11.3232V11.5359C94.1323 11.9753 93.9207 12.3439 93.6582 12.3439Z" fill="white" fill-opacity="0.9"/>
<path d="M96.9081 16.1584H82.4617C82.127 16.1584 81.8571 15.804 81.8571 15.3645V15.1377C81.8571 14.6982 82.127 14.3438 82.4617 14.3438H96.8973C97.232 14.3438 97.5019 14.6982 97.5019 15.1377V15.3503C97.5127 15.7898 97.2428 16.1584 96.9081 16.1584Z" fill="white" fill-opacity="0.9"/>
<path d="M89.5569 19.9728H82.1664C81.9951 19.9728 81.8571 19.6184 81.8571 19.1789V18.9521C81.8571 18.5126 81.9951 18.1582 82.1664 18.1582H89.5514C89.7226 18.1582 89.8607 18.5126 89.8607 18.9521V19.1648C89.8662 19.6042 89.7281 19.9728 89.5569 19.9728Z" fill="white" fill-opacity="0.9"/>
<path d="M92.2115 23.7873H82.273C82.0428 23.7873 81.8571 23.4329 81.8571 22.9934V22.7666C81.8571 22.3271 82.0428 21.9727 82.273 21.9727H92.2041C92.4343 21.9727 92.62 22.3271 92.62 22.7666V22.9792C92.6275 23.4187 92.4418 23.7873 92.2115 23.7873Z" fill="white" fill-opacity="0.9"/>
<path d="M96.9081 31.4162H82.4617C82.127 31.4162 81.8571 31.0618 81.8571 30.6223V30.3955C81.8571 29.956 82.127 29.6016 82.4617 29.6016H96.8973C97.232 29.6016 97.5019 29.956 97.5019 30.3955V30.6081C97.5127 31.0476 97.2428 31.4162 96.9081 31.4162Z" fill="white" fill-opacity="0.9"/>
<path d="M92.2115 35.2307H82.273C82.0428 35.2307 81.8571 34.8762 81.8571 34.4368V34.2099C81.8571 33.7704 82.0428 33.416 82.273 33.416H92.2041C92.4343 33.416 92.62 33.7704 92.62 34.2099V34.4226C92.6275 34.8621 92.4418 35.2307 92.2115 35.2307Z" fill="white" fill-opacity="0.9"/>
<path d="M88.1747 27.6017H82.1108C81.9704 27.6017 81.8571 27.2473 81.8571 26.8078V26.581C81.8571 26.1415 81.9704 25.7871 82.1108 25.7871H88.1702C88.3107 25.7871 88.424 26.1415 88.424 26.581V26.7937C88.4285 27.2332 88.3152 27.6017 88.1747 27.6017Z" fill="white" fill-opacity="0.9"/>
<path d="M150.108 7.23584H130.286C129.826 7.23584 129.456 6.68719 129.456 6.00687V5.65573C129.456 4.97541 129.826 4.42676 130.286 4.42676H150.093C150.552 4.42676 150.923 4.97541 150.923 5.65573V5.98492C150.937 6.66525 150.567 7.23584 150.108 7.23584Z" fill="white"/>
<path d="M137.757 14.4479H129.79C129.605 14.4479 129.456 14.0935 129.456 13.654V13.4272C129.456 12.9877 129.605 12.6333 129.79 12.6333H137.751C137.936 12.6333 138.085 12.9877 138.085 13.4272V13.6399C138.091 14.0793 137.942 14.4479 137.757 14.4479Z" fill="white" fill-opacity="0.9"/>
<path d="M142.732 19.2629H129.989C129.694 19.2629 129.456 18.9085 129.456 18.469V18.2421C129.456 17.8027 129.694 17.4482 129.989 17.4482H142.723C143.018 17.4482 143.256 17.8027 143.256 18.2421V18.4548C143.266 18.8943 143.028 19.2629 142.732 19.2629Z" fill="white" fill-opacity="0.9"/>
<path d="M140.227 24.0773H129.889C129.649 24.0773 129.456 23.7229 129.456 23.2834V23.0566C129.456 22.6171 129.649 22.2627 129.889 22.2627H140.219C140.459 22.2627 140.652 22.6171 140.652 23.0566V23.2693C140.659 23.7087 140.466 24.0773 140.227 24.0773Z" fill="white" fill-opacity="0.9"/>
<path d="M141.175 28.8918H129.927C129.666 28.8918 129.456 28.5374 129.456 28.0979V27.8711C129.456 27.4316 129.666 27.0771 129.927 27.0771H141.166C141.427 27.0771 141.637 27.4316 141.637 27.8711V28.0837C141.646 28.5232 141.435 28.8918 141.175 28.8918Z" fill="white" fill-opacity="0.9"/>
<line opacity="0.6" x1="11.3423" y1="40.1008" x2="218.656" y2="39.2922" stroke="white" stroke-width="0.2" stroke-linecap="round"/>
<rect opacity="0.8" x="11.2427" y="43.4453" width="44.2523" height="2.00488" rx="1.00244" fill="white"/>
<path d="M45.055 11.5003H12.6011C11.8492 11.5003 11.2428 11.1211 11.2428 10.6508V10.4081C11.2428 9.93784 11.8492 9.55859 12.6011 9.55859H45.0308C45.7827 9.55859 46.3891 9.93784 46.3891 10.4081V10.6356C46.4133 11.1059 45.8069 11.5003 45.055 11.5003Z" fill="white" fill-opacity="0.81"/>
<path d="M40.4668 15.4702H12.4168C11.7669 15.4702 11.2428 15.0855 11.2428 14.6085V14.3622C11.2428 13.8852 11.7669 13.5005 12.4168 13.5005H40.4459C41.0958 13.5005 41.6199 13.8852 41.6199 14.3622V14.5931C41.6408 15.0701 41.1167 15.4702 40.4668 15.4702Z" fill="white" fill-opacity="0.81"/>
<path d="M35.6887 6.48535H12.2247C11.6811 6.48535 11.2427 6.08328 11.2427 5.58472V5.32739C11.2427 4.82883 11.6811 4.42676 12.2247 4.42676H35.6711C36.2148 4.42676 36.6532 4.82883 36.6532 5.32739V5.56863C36.6707 6.0672 36.2323 6.48535 35.6887 6.48535Z" fill="white"/>
<path d="M41.8944 19.5256H12.4741C11.7925 19.5256 11.2428 19.1241 11.2428 18.6264V18.3694C11.2428 17.8717 11.7925 17.4702 12.4741 17.4702H41.8724C42.554 17.4702 43.1037 17.8717 43.1037 18.3694V18.6103C43.1257 19.1081 42.576 19.5256 41.8944 19.5256Z" fill="white" fill-opacity="0.8"/>
<path d="M35.6888 23.5808H12.2248C11.6812 23.5808 11.2428 23.1793 11.2428 22.6815V22.4246C11.2428 21.9268 11.6812 21.5254 12.2248 21.5254H35.6713C36.2149 21.5254 36.6533 21.9268 36.6533 22.4246V22.6655C36.6708 23.1633 36.2324 23.5808 35.6888 23.5808Z" fill="white" fill-opacity="0.8"/>
<path d="M31.0354 26.7256H12.0378C11.5976 26.7256 11.2427 26.413 11.2427 26.0254V25.8253C11.2427 25.4376 11.5976 25.125 12.0378 25.125H31.0212C31.4614 25.125 31.8164 25.4376 31.8164 25.8253V26.0129C31.8306 26.4005 31.4756 26.7256 31.0354 26.7256Z" fill="white" fill-opacity="0.8"/>
<ellipse cx="12.8741" cy="31.8876" rx="1.63129" ry="1.5688" fill="#D9D9D9"/>
<path opacity="0.42" d="M11.998 32.5841H13.7435C13.8048 32.5841 13.8545 32.5313 13.8545 32.4702C13.8545 32.4377 13.843 32.4092 13.8239 32.3889L13.3875 31.9251C13.3454 31.8804 13.2765 31.8804 13.2344 31.9251L13.0928 32.0756L12.7329 31.6932C12.6908 31.6485 12.6219 31.6485 12.5798 31.6932L11.9253 32.3889C11.8831 32.4336 11.8831 32.5068 11.9253 32.5516C11.9444 32.5719 11.9712 32.5841 11.998 32.5841Z" fill="#06555E"/>
<path opacity="0.42" d="M13.418 31.6561C13.5385 31.6561 13.6362 31.5523 13.6362 31.4243C13.6362 31.2962 13.5385 31.1924 13.418 31.1924C13.2975 31.1924 13.1998 31.2962 13.1998 31.4243C13.1998 31.5523 13.2975 31.6561 13.418 31.6561Z" fill="#06555E"/>
<ellipse cx="16.6805" cy="31.8979" rx="1.63129" ry="1.5688" fill="#D9D9D9"/>
<path opacity="0.42" d="M15.8044 32.5929H17.5499C17.6112 32.5929 17.6609 32.54 17.6609 32.479C17.6609 32.4465 17.6494 32.418 17.6303 32.3977L17.1939 31.9339C17.1518 31.8892 17.0829 31.8892 17.0408 31.9339L16.8992 32.0844L16.5393 31.702C16.4972 31.6573 16.4283 31.6573 16.3862 31.702L15.7317 32.3977C15.6895 32.4424 15.6895 32.5156 15.7317 32.5604C15.7508 32.5807 15.7776 32.5929 15.8044 32.5929Z" fill="#06555E"/>
<path opacity="0.42" d="M17.2244 31.6659C17.3449 31.6659 17.4426 31.5621 17.4426 31.434C17.4426 31.306 17.3449 31.2021 17.2244 31.2021C17.1039 31.2021 17.0062 31.306 17.0062 31.434C17.0062 31.5621 17.1039 31.6659 17.2244 31.6659Z" fill="#06555E"/>
<ellipse cx="20.4868" cy="31.8876" rx="1.63129" ry="1.5688" fill="#D9D9D9"/>
<path opacity="0.42" d="M19.6107 32.5841H21.3563C21.4175 32.5841 21.4673 32.5313 21.4673 32.4702C21.4673 32.4377 21.4558 32.4092 21.4366 32.3889L21.0003 31.9251C20.9581 31.8804 20.8892 31.8804 20.8471 31.9251L20.7055 32.0756L20.3457 31.6932C20.3036 31.6485 20.2347 31.6485 20.1926 31.6932L19.538 32.3889C19.4959 32.4336 19.4959 32.5068 19.538 32.5516C19.5571 32.5719 19.5839 32.5841 19.6107 32.5841Z" fill="#06555E"/>
<path opacity="0.42" d="M21.0309 31.6561C21.1514 31.6561 21.2491 31.5523 21.2491 31.4243C21.2491 31.2962 21.1514 31.1924 21.0309 31.1924C20.9104 31.1924 20.8127 31.2962 20.8127 31.4243C20.8127 31.5523 20.9104 31.6561 21.0309 31.6561Z" fill="#06555E"/>
<ellipse cx="24.2931" cy="31.8979" rx="1.63129" ry="1.5688" fill="#D9D9D9"/>
<path opacity="0.42" d="M23.4171 32.5929H25.1626C25.2238 32.5929 25.2736 32.54 25.2736 32.479C25.2736 32.4465 25.2621 32.418 25.243 32.3977L24.8066 31.9339C24.7645 31.8892 24.6956 31.8892 24.6535 31.9339L24.5118 32.0844L24.152 31.702C24.1099 31.6573 24.041 31.6573 23.9989 31.702L23.3443 32.3977C23.3022 32.4424 23.3022 32.5156 23.3443 32.5604C23.3635 32.5807 23.3903 32.5929 23.4171 32.5929Z" fill="#06555E"/>
<path opacity="0.42" d="M24.8372 31.6659C24.9577 31.6659 25.0554 31.5621 25.0554 31.434C25.0554 31.306 24.9577 31.2021 24.8372 31.2021C24.7167 31.2021 24.619 31.306 24.619 31.434C24.619 31.5621 24.7167 31.6659 24.8372 31.6659Z" fill="#06555E"/>
<ellipse cx="28.099" cy="31.8979" rx="1.63129" ry="1.5688" fill="#D9D9D9"/>
<path opacity="0.42" d="M27.223 32.5929H28.9685C29.0297 32.5929 29.0795 32.54 29.0795 32.479C29.0795 32.4465 29.068 32.418 29.0489 32.3977L28.6125 31.9339C28.5704 31.8892 28.5015 31.8892 28.4594 31.9339L28.3177 32.0844L27.9579 31.702C27.9158 31.6573 27.8469 31.6573 27.8048 31.702L27.1502 32.3977C27.1081 32.4424 27.1081 32.5156 27.1502 32.5604C27.1694 32.5807 27.1962 32.5929 27.223 32.5929Z" fill="#06555E"/>
<path opacity="0.42" d="M28.6431 31.6659C28.7636 31.6659 28.8612 31.5621 28.8612 31.434C28.8612 31.306 28.7636 31.2021 28.6431 31.2021C28.5226 31.2021 28.4249 31.306 28.4249 31.434C28.4249 31.5621 28.5226 31.6659 28.6431 31.6659Z" fill="#06555E"/>
<ellipse cx="32.2351" cy="31.8876" rx="1.63129" ry="1.5688" fill="#D9D9D9"/>
<path opacity="0.42" d="M31.359 32.5827H33.1045C33.1658 32.5827 33.2156 32.5298 33.2156 32.4688C33.2156 32.4362 33.2041 32.4077 33.1849 32.3874L32.7485 31.9236C32.7064 31.8789 32.6375 31.8789 32.5954 31.9236L32.4538 32.0742L32.094 31.6918C32.0519 31.647 31.983 31.647 31.9409 31.6918L31.2863 32.3874C31.2442 32.4322 31.2442 32.5054 31.2863 32.5501C31.3054 32.5705 31.3322 32.5827 31.359 32.5827Z" fill="#06555E"/>
<path opacity="0.42" d="M32.7792 31.6557C32.8997 31.6557 32.9974 31.5518 32.9974 31.4238C32.9974 31.2957 32.8997 31.1919 32.7792 31.1919C32.6587 31.1919 32.561 31.2957 32.561 31.4238C32.561 31.5518 32.6587 31.6557 32.7792 31.6557Z" fill="#06555E"/>
<path d="M212.121 11.2401H177.727C176.93 11.2401 176.288 10.8608 176.288 10.3906V10.1478C176.288 9.67758 176.93 9.29834 177.727 9.29834H212.095C212.892 9.29834 213.535 9.67758 213.535 10.1478V10.3754C213.56 10.8456 212.918 11.2401 212.121 11.2401Z" fill="white" fill-opacity="0.81"/>
<path d="M204.485 14.188H177.421C176.793 14.188 176.288 13.8033 176.288 13.3262V13.08C176.288 12.603 176.793 12.2183 177.421 12.2183H204.465C205.092 12.2183 205.598 12.603 205.598 13.08V13.3108C205.618 13.7879 205.113 14.188 204.485 14.188Z" fill="white" fill-opacity="0.81"/>
<path d="M204.235 27.7612H192.529C192.258 27.7612 192.039 27.3765 192.039 26.8995V26.6533C192.039 26.1762 192.258 25.7915 192.529 25.7915H204.226C204.498 25.7915 204.716 26.1762 204.716 26.6533V26.8841C204.725 27.3611 204.506 27.7612 204.235 27.7612Z" fill="white" fill-opacity="0.81"/>
<path d="M197.869 6.58939H177.155C176.675 6.58939 176.288 6.167 176.288 5.64324V5.37291C176.288 4.84915 176.675 4.42676 177.155 4.42676H197.854C198.334 4.42676 198.721 4.84915 198.721 5.37291V5.62635C198.736 6.15011 198.349 6.58939 197.869 6.58939Z" fill="white"/>
<rect x="176.388" y="18.2582" width="42.0748" height="4.40059" stroke="white" stroke-width="0.2"/>
<rect x="205.599" y="18.8423" width="12.0106" height="3.23194" fill="#D9D9D9"/>
<path d="M187.408 27.7612H179.787C179.61 27.7612 179.468 27.3765 179.468 26.8995V26.6533C179.468 26.1762 179.61 25.7915 179.787 25.7915H187.402C187.579 25.7915 187.721 26.1762 187.721 26.6533V26.8841C187.727 27.3611 187.584 27.7612 187.408 27.7612Z" fill="white" fill-opacity="0.81"/>
<ellipse cx="177.226" cy="26.7764" rx="1.24145" ry="1.19389" fill="#D9D9D9"/>
<path opacity="0.42" d="M176.559 27.3051H177.888C177.934 27.3051 177.972 27.2649 177.972 27.2184C177.972 27.1937 177.964 27.172 177.949 27.1565L177.617 26.8036C177.585 26.7695 177.532 26.7695 177.5 26.8036L177.393 26.9181L177.119 26.6271C177.087 26.593 177.034 26.593 177.002 26.6271L176.504 27.1565C176.472 27.1906 176.472 27.2463 176.504 27.2803C176.519 27.2958 176.539 27.3051 176.559 27.3051Z" fill="#06555E"/>
<path opacity="0.42" d="M177.64 26.6C177.732 26.6 177.806 26.521 177.806 26.4235C177.806 26.3261 177.732 26.2471 177.64 26.2471C177.548 26.2471 177.474 26.3261 177.474 26.4235C177.474 26.521 177.548 26.6 177.64 26.6Z" fill="#06555E"/>
<path d="M192.668 46.5742H187.999C187.788 46.5742 187.616 46.419 187.616 46.2293V43.6941C187.616 43.5043 187.788 43.3491 187.999 43.3491H192.668C192.879 43.3491 193.051 43.5043 193.051 43.6941V46.2293C193.051 46.419 192.879 46.5742 192.668 46.5742Z" fill="white"/>
<path opacity="0.42" d="M189.337 45.7147H191.322C191.392 45.7147 191.449 45.6574 191.449 45.5914C191.449 45.5562 191.436 45.5253 191.414 45.5033L190.917 45.0012C190.87 44.9528 190.791 44.9528 190.743 45.0012L190.582 45.1642L190.173 44.7502C190.125 44.7018 190.047 44.7018 189.999 44.7502L189.254 45.5033C189.206 45.5517 189.206 45.631 189.254 45.6795C189.276 45.7015 189.306 45.7147 189.337 45.7147Z" fill="#06555E"/>
<path opacity="0.42" d="M190.952 44.7106C191.089 44.7106 191.2 44.5982 191.2 44.4595C191.2 44.3209 191.089 44.2085 190.952 44.2085C190.815 44.2085 190.704 44.3209 190.704 44.4595C190.704 44.5982 190.815 44.7106 190.952 44.7106Z" fill="#06555E"/>
<path d="M199.095 46.5742H194.425C194.215 46.5742 194.043 46.419 194.043 46.2293V43.6941C194.043 43.5043 194.215 43.3491 194.425 43.3491H199.095C199.305 43.3491 199.477 43.5043 199.477 43.6941V46.2293C199.477 46.419 199.305 46.5742 199.095 46.5742Z" fill="white"/>
<path opacity="0.42" d="M195.763 45.7147H197.749C197.819 45.7147 197.875 45.6574 197.875 45.5914C197.875 45.5562 197.862 45.5253 197.84 45.5033L197.344 45.0012C197.296 44.9528 197.218 44.9528 197.17 45.0012L197.009 45.1642L196.599 44.7502C196.551 44.7018 196.473 44.7018 196.425 44.7502L195.681 45.5033C195.633 45.5517 195.633 45.631 195.681 45.6795C195.702 45.7015 195.733 45.7147 195.763 45.7147Z" fill="#06555E"/>
<path opacity="0.42" d="M197.379 44.7106C197.516 44.7106 197.627 44.5982 197.627 44.4595C197.627 44.3209 197.516 44.2085 197.379 44.2085C197.242 44.2085 197.131 44.3209 197.131 44.4595C197.131 44.5982 197.242 44.7106 197.379 44.7106Z" fill="#06555E"/>
<path d="M205.521 46.5742H200.852C200.641 46.5742 200.469 46.419 200.469 46.2293V43.6941C200.469 43.5043 200.641 43.3491 200.852 43.3491H205.521C205.732 43.3491 205.904 43.5043 205.904 43.6941V46.2293C205.904 46.419 205.732 46.5742 205.521 46.5742Z" fill="white"/>
<path opacity="0.42" d="M202.19 45.7147H204.175C204.245 45.7147 204.302 45.6574 204.302 45.5914C204.302 45.5562 204.289 45.5253 204.267 45.5033L203.77 45.0012C203.723 44.9528 203.644 44.9528 203.596 45.0012L203.435 45.1642L203.026 44.7502C202.978 44.7018 202.9 44.7018 202.852 44.7502L202.107 45.5033C202.059 45.5517 202.059 45.631 202.107 45.6795C202.129 45.7015 202.159 45.7147 202.19 45.7147Z" fill="#06555E"/>
<path opacity="0.42" d="M203.805 44.7106C203.942 44.7106 204.053 44.5982 204.053 44.4595C204.053 44.3209 203.942 44.2085 203.805 44.2085C203.668 44.2085 203.557 44.3209 203.557 44.4595C203.557 44.5982 203.668 44.7106 203.805 44.7106Z" fill="#06555E"/>
<path d="M211.948 46.5742H207.278C207.068 46.5742 206.896 46.419 206.896 46.2293V43.6941C206.896 43.5043 207.068 43.3491 207.278 43.3491H211.948C212.158 43.3491 212.33 43.5043 212.33 43.6941V46.2293C212.33 46.419 212.158 46.5742 211.948 46.5742Z" fill="white"/>
<path opacity="0.42" d="M208.616 45.7147H210.602C210.671 45.7147 210.728 45.6574 210.728 45.5914C210.728 45.5562 210.715 45.5253 210.693 45.5033L210.197 45.0012C210.149 44.9528 210.071 44.9528 210.023 45.0012L209.862 45.1642L209.452 44.7502C209.404 44.7018 209.326 44.7018 209.278 44.7502L208.534 45.5033C208.486 45.5517 208.486 45.631 208.534 45.6795C208.555 45.7015 208.586 45.7147 208.616 45.7147Z" fill="#06555E"/>
<path opacity="0.42" d="M210.232 44.7106C210.369 44.7106 210.48 44.5982 210.48 44.4595C210.48 44.3209 210.369 44.2085 210.232 44.2085C210.095 44.2085 209.984 44.3209 209.984 44.4595C209.984 44.5982 210.095 44.7106 210.232 44.7106Z" fill="#06555E"/>
<path d="M218.374 46.5742H213.705C213.494 46.5742 213.322 46.419 213.322 46.2293V43.6941C213.322 43.5043 213.494 43.3491 213.705 43.3491H218.374C218.584 43.3491 218.757 43.5043 218.757 43.6941V46.2293C218.757 46.419 218.584 46.5742 218.374 46.5742Z" fill="white"/>
<path opacity="0.42" d="M215.043 45.7147H217.028C217.098 45.7147 217.155 45.6574 217.155 45.5914C217.155 45.5562 217.141 45.5253 217.12 45.5033L216.623 45.0012C216.575 44.9528 216.497 44.9528 216.449 45.0012L216.288 45.1642L215.879 44.7502C215.831 44.7018 215.753 44.7018 215.705 44.7502L214.96 45.5033C214.912 45.5517 214.912 45.631 214.96 45.6795C214.982 45.7015 215.012 45.7147 215.043 45.7147Z" fill="#06555E"/>
<path opacity="0.42" d="M216.658 44.7106C216.795 44.7106 216.906 44.5982 216.906 44.4595C216.906 44.3209 216.795 44.2085 216.658 44.2085C216.521 44.2085 216.41 44.3209 216.41 44.4595C216.41 44.5982 216.521 44.7106 216.658 44.7106Z" fill="#06555E"/>
</svg>
