<svg width="230" height="50" viewBox="0 0 230 50" fill="none" xmlns="http://www.w3.org/2000/svg">
<rect width="230" height="49.15" transform="translate(0 0.149902)" fill="#016772" fill-opacity="0.8"/>
<path d="M192.668 46.3137H187.999C187.788 46.3137 187.616 46.1585 187.616 45.9688V43.4336C187.616 43.2438 187.788 43.0886 187.999 43.0886H192.668C192.879 43.0886 193.051 43.2438 193.051 43.4336V45.9688C193.051 46.1585 192.879 46.3137 192.668 46.3137Z" fill="white"/>
<path opacity="0.42" d="M189.337 45.4542H191.322C191.392 45.4542 191.449 45.3969 191.449 45.3309C191.449 45.2957 191.436 45.2648 191.414 45.2428L190.917 44.7407C190.87 44.6923 190.791 44.6923 190.743 44.7407L190.582 44.9037L190.173 44.4897C190.125 44.4413 190.047 44.4413 189.999 44.4897L189.254 45.2428C189.206 45.2912 189.206 45.3705 189.254 45.419C189.276 45.441 189.306 45.4542 189.337 45.4542Z" fill="#06555E"/>
<path opacity="0.42" d="M190.952 44.4501C191.089 44.4501 191.2 44.3377 191.2 44.199C191.2 44.0604 191.089 43.948 190.952 43.948C190.815 43.948 190.704 44.0604 190.704 44.199C190.704 44.3377 190.815 44.4501 190.952 44.4501Z" fill="#06555E"/>
<path d="M199.095 46.3137H194.425C194.215 46.3137 194.043 46.1585 194.043 45.9688V43.4336C194.043 43.2438 194.215 43.0886 194.425 43.0886H199.095C199.305 43.0886 199.477 43.2438 199.477 43.4336V45.9688C199.477 46.1585 199.305 46.3137 199.095 46.3137Z" fill="white"/>
<path opacity="0.42" d="M195.763 45.4542H197.749C197.819 45.4542 197.875 45.3969 197.875 45.3309C197.875 45.2957 197.862 45.2648 197.84 45.2428L197.344 44.7407C197.296 44.6923 197.218 44.6923 197.17 44.7407L197.009 44.9037L196.599 44.4897C196.551 44.4413 196.473 44.4413 196.425 44.4897L195.681 45.2428C195.633 45.2912 195.633 45.3705 195.681 45.419C195.702 45.441 195.733 45.4542 195.763 45.4542Z" fill="#06555E"/>
<path opacity="0.42" d="M197.379 44.4501C197.516 44.4501 197.627 44.3377 197.627 44.199C197.627 44.0604 197.516 43.948 197.379 43.948C197.242 43.948 197.131 44.0604 197.131 44.199C197.131 44.3377 197.242 44.4501 197.379 44.4501Z" fill="#06555E"/>
<path d="M205.521 46.3137H200.852C200.641 46.3137 200.469 46.1585 200.469 45.9688V43.4336C200.469 43.2438 200.641 43.0886 200.852 43.0886H205.521C205.732 43.0886 205.904 43.2438 205.904 43.4336V45.9688C205.904 46.1585 205.732 46.3137 205.521 46.3137Z" fill="white"/>
<path opacity="0.42" d="M202.19 45.4542H204.175C204.245 45.4542 204.302 45.3969 204.302 45.3309C204.302 45.2957 204.289 45.2648 204.267 45.2428L203.77 44.7407C203.723 44.6923 203.644 44.6923 203.596 44.7407L203.435 44.9037L203.026 44.4897C202.978 44.4413 202.9 44.4413 202.852 44.4897L202.107 45.2428C202.059 45.2912 202.059 45.3705 202.107 45.419C202.129 45.441 202.159 45.4542 202.19 45.4542Z" fill="#06555E"/>
<path opacity="0.42" d="M203.805 44.4501C203.942 44.4501 204.053 44.3377 204.053 44.199C204.053 44.0604 203.942 43.948 203.805 43.948C203.668 43.948 203.557 44.0604 203.557 44.199C203.557 44.3377 203.668 44.4501 203.805 44.4501Z" fill="#06555E"/>
<path d="M211.948 46.3137H207.278C207.068 46.3137 206.896 46.1585 206.896 45.9688V43.4336C206.896 43.2438 207.068 43.0886 207.278 43.0886H211.948C212.158 43.0886 212.33 43.2438 212.33 43.4336V45.9688C212.33 46.1585 212.158 46.3137 211.948 46.3137Z" fill="white"/>
<path opacity="0.42" d="M208.616 45.4542H210.602C210.672 45.4542 210.728 45.3969 210.728 45.3309C210.728 45.2957 210.715 45.2648 210.693 45.2428L210.197 44.7407C210.149 44.6923 210.071 44.6923 210.023 44.7407L209.862 44.9037L209.452 44.4897C209.405 44.4413 209.326 44.4413 209.278 44.4897L208.534 45.2428C208.486 45.2912 208.486 45.3705 208.534 45.419C208.555 45.441 208.586 45.4542 208.616 45.4542Z" fill="#06555E"/>
<path opacity="0.42" d="M210.232 44.4501C210.369 44.4501 210.48 44.3377 210.48 44.199C210.48 44.0604 210.369 43.948 210.232 43.948C210.095 43.948 209.984 44.0604 209.984 44.199C209.984 44.3377 210.095 44.4501 210.232 44.4501Z" fill="#06555E"/>
<path d="M218.374 46.3137H213.705C213.494 46.3137 213.322 46.1585 213.322 45.9688V43.4336C213.322 43.2438 213.494 43.0886 213.705 43.0886H218.374C218.585 43.0886 218.757 43.2438 218.757 43.4336V45.9688C218.757 46.1585 218.585 46.3137 218.374 46.3137Z" fill="white"/>
<path opacity="0.42" d="M215.043 45.4542H217.028C217.098 45.4542 217.155 45.3969 217.155 45.3309C217.155 45.2957 217.142 45.2648 217.12 45.2428L216.623 44.7407C216.576 44.6923 216.497 44.6923 216.449 44.7407L216.288 44.9037L215.879 44.4897C215.831 44.4413 215.753 44.4413 215.705 44.4897L214.96 45.2428C214.912 45.2912 214.912 45.3705 214.96 45.419C214.982 45.441 215.012 45.4542 215.043 45.4542Z" fill="#06555E"/>
<path opacity="0.42" d="M216.658 44.4501C216.795 44.4501 216.906 44.3377 216.906 44.199C216.906 44.0604 216.795 43.948 216.658 43.948C216.521 43.948 216.41 44.0604 216.41 44.199C216.41 44.3377 216.521 44.4501 216.658 44.4501Z" fill="#06555E"/>
<path d="M97.3853 6.92896H72.4542C71.8765 6.92896 71.4107 6.38031 71.4107 5.69998V5.34885C71.4107 4.66852 71.8765 4.11987 72.4542 4.11987H97.3667C97.9443 4.11987 98.4102 4.66852 98.4102 5.34885V5.67804C98.4288 6.35836 97.963 6.92896 97.3853 6.92896Z" fill="white"/>
<path d="M83.1468 12.394H71.8822C71.6212 12.394 71.4107 12.0396 71.4107 11.6001V11.3733C71.4107 10.9338 71.6212 10.5793 71.8822 10.5793H83.1384C83.3994 10.5793 83.6099 10.9338 83.6099 11.3733V11.5859C83.6183 12.0254 83.4078 12.394 83.1468 12.394Z" fill="white" fill-opacity="0.9"/>
<path d="M84.6324 16.7087H71.9418C71.6478 16.7087 71.4107 16.3543 71.4107 15.9148V15.6879C71.4107 15.2485 71.6478 14.894 71.9418 14.894H84.6229C84.9169 14.894 85.154 15.2485 85.154 15.6879V15.9006C85.1635 16.3401 84.9264 16.7087 84.6324 16.7087Z" fill="white" fill-opacity="0.9"/>
<path d="M77.6936 21.0234H71.6631C71.5234 21.0234 71.4107 20.669 71.4107 20.2295V20.0026C71.4107 19.5632 71.5234 19.2087 71.6631 19.2087H77.6891C77.8288 19.2087 77.9415 19.5632 77.9415 20.0026V20.2153C77.946 20.6548 77.8333 21.0234 77.6936 21.0234Z" fill="white" fill-opacity="0.9"/>
<path d="M85.8603 25.3381H71.9912C71.6698 25.3381 71.4107 24.9837 71.4107 24.5442V24.3173C71.4107 23.8779 71.6698 23.5234 71.9912 23.5234H85.85C86.1713 23.5234 86.4304 23.8779 86.4304 24.3173V24.53C86.4408 24.9695 86.1817 25.3381 85.8603 25.3381Z" fill="white" fill-opacity="0.9"/>
<path d="M84.6324 29.6528H71.9418C71.6478 29.6528 71.4107 29.2984 71.4107 28.8589V28.632C71.4107 28.1926 71.6478 27.8381 71.9418 27.8381H84.6229C84.9169 27.8381 85.154 28.1926 85.154 28.632V28.8447C85.1635 29.2842 84.9264 29.6528 84.6324 29.6528Z" fill="white" fill-opacity="0.9"/>
<path d="M82.1765 33.9675H71.8432C71.6038 33.9675 71.4107 33.6131 71.4107 33.1736V32.9467C71.4107 32.5073 71.6038 32.1528 71.8432 32.1528H82.1688C82.4082 32.1528 82.6013 32.5073 82.6013 32.9467V33.1594C82.609 33.5989 82.4159 33.9675 82.1765 33.9675Z" fill="white" fill-opacity="0.9"/>
<path d="M136.385 6.92896H111.454C110.877 6.92896 110.411 6.38031 110.411 5.69998V5.34885C110.411 4.66852 110.877 4.11987 111.454 4.11987H136.367C136.944 4.11987 137.41 4.66852 137.41 5.34885V5.67804C137.429 6.35836 136.963 6.92896 136.385 6.92896Z" fill="white"/>
<path d="M122.147 12.394H110.882C110.621 12.394 110.411 12.0396 110.411 11.6001V11.3733C110.411 10.9338 110.621 10.5793 110.882 10.5793H122.138C122.399 10.5793 122.61 10.9338 122.61 11.3733V11.5859C122.618 12.0254 122.408 12.394 122.147 12.394Z" fill="white" fill-opacity="0.9"/>
<path d="M123.632 16.7087H110.942C110.648 16.7087 110.411 16.3543 110.411 15.9148V15.6879C110.411 15.2485 110.648 14.894 110.942 14.894H123.623C123.917 14.894 124.154 15.2485 124.154 15.6879V15.9006C124.164 16.3401 123.926 16.7087 123.632 16.7087Z" fill="white" fill-opacity="0.9"/>
<path d="M116.694 21.0234H110.663C110.523 21.0234 110.411 20.669 110.411 20.2295V20.0026C110.411 19.5632 110.523 19.2087 110.663 19.2087H116.689C116.829 19.2087 116.941 19.5632 116.941 20.0026V20.2153C116.946 20.6548 116.833 21.0234 116.694 21.0234Z" fill="white" fill-opacity="0.9"/>
<path d="M124.86 25.3381H110.991C110.67 25.3381 110.411 24.9837 110.411 24.5442V24.3173C110.411 23.8779 110.67 23.5234 110.991 23.5234H124.85C125.171 23.5234 125.43 23.8779 125.43 24.3173V24.53C125.441 24.9695 125.182 25.3381 124.86 25.3381Z" fill="white" fill-opacity="0.9"/>
<path d="M123.632 29.6528H110.942C110.648 29.6528 110.411 29.2984 110.411 28.8589V28.632C110.411 28.1926 110.648 27.8381 110.942 27.8381H123.623C123.917 27.8381 124.154 28.1926 124.154 28.632V28.8447C124.164 29.2842 123.926 29.6528 123.632 29.6528Z" fill="white" fill-opacity="0.9"/>
<path d="M121.177 33.9675H110.843C110.604 33.9675 110.411 33.6131 110.411 33.1736V32.9467C110.411 32.5073 110.604 32.1528 110.843 32.1528H121.169C121.408 32.1528 121.601 32.5073 121.601 32.9467V33.1594C121.609 33.5989 121.416 33.9675 121.177 33.9675Z" fill="white" fill-opacity="0.9"/>
<path d="M175.385 6.92896H150.454C149.877 6.92896 149.411 6.38031 149.411 5.69998V5.34885C149.411 4.66852 149.877 4.11987 150.454 4.11987H175.367C175.944 4.11987 176.41 4.66852 176.41 5.34885V5.67804C176.429 6.35836 175.963 6.92896 175.385 6.92896Z" fill="white"/>
<path d="M161.147 12.394H149.882C149.621 12.394 149.411 12.0396 149.411 11.6001V11.3733C149.411 10.9338 149.621 10.5793 149.882 10.5793H161.138C161.399 10.5793 161.61 10.9338 161.61 11.3733V11.5859C161.618 12.0254 161.408 12.394 161.147 12.394Z" fill="white" fill-opacity="0.9"/>
<path d="M162.632 16.7087H149.942C149.648 16.7087 149.411 16.3543 149.411 15.9148V15.6879C149.411 15.2485 149.648 14.894 149.942 14.894H162.623C162.917 14.894 163.154 15.2485 163.154 15.6879V15.9006C163.164 16.3401 162.926 16.7087 162.632 16.7087Z" fill="white" fill-opacity="0.9"/>
<path d="M155.694 21.0234H149.663C149.523 21.0234 149.411 20.669 149.411 20.2295V20.0026C149.411 19.5632 149.523 19.2087 149.663 19.2087H155.689C155.829 19.2087 155.941 19.5632 155.941 20.0026V20.2153C155.946 20.6548 155.833 21.0234 155.694 21.0234Z" fill="white" fill-opacity="0.9"/>
<path d="M163.86 25.3381H149.991C149.67 25.3381 149.411 24.9837 149.411 24.5442V24.3173C149.411 23.8779 149.67 23.5234 149.991 23.5234H163.85C164.171 23.5234 164.43 23.8779 164.43 24.3173V24.53C164.441 24.9695 164.182 25.3381 163.86 25.3381Z" fill="white" fill-opacity="0.9"/>
<path d="M162.632 29.6528H149.942C149.648 29.6528 149.411 29.2984 149.411 28.8589V28.632C149.411 28.1926 149.648 27.8381 149.942 27.8381H162.623C162.917 27.8381 163.154 28.1926 163.154 28.632V28.8447C163.164 29.2842 162.926 29.6528 162.632 29.6528Z" fill="white" fill-opacity="0.9"/>
<path d="M160.177 33.9675H149.843C149.604 33.9675 149.411 33.6131 149.411 33.1736V32.9467C149.411 32.5073 149.604 32.1528 149.843 32.1528H160.169C160.408 32.1528 160.601 32.5073 160.601 32.9467V33.1594C160.609 33.5989 160.416 33.9675 160.177 33.9675Z" fill="white" fill-opacity="0.9"/>
<path d="M214.385 6.92896H189.454C188.877 6.92896 188.411 6.38031 188.411 5.69998V5.34885C188.411 4.66852 188.877 4.11987 189.454 4.11987H214.367C214.944 4.11987 215.41 4.66852 215.41 5.34885V5.67804C215.429 6.35836 214.963 6.92896 214.385 6.92896Z" fill="white"/>
<path d="M200.147 12.394H188.882C188.621 12.394 188.411 12.0396 188.411 11.6001V11.3733C188.411 10.9338 188.621 10.5793 188.882 10.5793H200.138C200.399 10.5793 200.61 10.9338 200.61 11.3733V11.5859C200.618 12.0254 200.408 12.394 200.147 12.394Z" fill="white" fill-opacity="0.9"/>
<path d="M201.632 16.7087H188.942C188.648 16.7087 188.411 16.3543 188.411 15.9148V15.6879C188.411 15.2485 188.648 14.894 188.942 14.894H201.623C201.917 14.894 202.154 15.2485 202.154 15.6879V15.9006C202.164 16.3401 201.926 16.7087 201.632 16.7087Z" fill="white" fill-opacity="0.9"/>
<path d="M194.694 21.0234H188.663C188.523 21.0234 188.411 20.669 188.411 20.2295V20.0026C188.411 19.5632 188.523 19.2087 188.663 19.2087H194.689C194.829 19.2087 194.941 19.5632 194.941 20.0026V20.2153C194.946 20.6548 194.833 21.0234 194.694 21.0234Z" fill="white" fill-opacity="0.9"/>
<path d="M202.86 25.3381H188.991C188.67 25.3381 188.411 24.9837 188.411 24.5442V24.3173C188.411 23.8779 188.67 23.5234 188.991 23.5234H202.85C203.171 23.5234 203.43 23.8779 203.43 24.3173V24.53C203.441 24.9695 203.182 25.3381 202.86 25.3381Z" fill="white" fill-opacity="0.9"/>
<path d="M201.632 29.6528H188.942C188.648 29.6528 188.411 29.2984 188.411 28.8589V28.632C188.411 28.1926 188.648 27.8381 188.942 27.8381H201.623C201.917 27.8381 202.154 28.1926 202.154 28.632V28.8447C202.164 29.2842 201.926 29.6528 201.632 29.6528Z" fill="white" fill-opacity="0.9"/>
<path d="M199.177 33.9675H188.843C188.604 33.9675 188.411 33.6131 188.411 33.1736V32.9467C188.411 32.5073 188.604 32.1528 188.843 32.1528H199.169C199.408 32.1528 199.601 32.5073 199.601 32.9467V33.1594C199.609 33.5989 199.416 33.9675 199.177 33.9675Z" fill="white" fill-opacity="0.9"/>
<line opacity="0.6" x1="11.3423" y1="40.7011" x2="218.656" y2="39.8926" stroke="white" stroke-width="0.2" stroke-linecap="round"/>
<rect opacity="0.8" x="11.2427" y="43.6987" width="74.9018" height="2.00488" rx="1.00244" fill="white"/>
<path d="M57.5815 16.2168H13.1042C12.0737 16.2168 11.2427 15.7968 11.2427 15.2761V15.0073C11.2427 14.4866 12.0737 14.0667 13.1042 14.0667H57.5482C58.5787 14.0667 59.4097 14.4866 59.4097 15.0073V15.2593C59.443 15.78 58.6119 16.2168 57.5815 16.2168Z" fill="white" fill-opacity="0.81"/>
<path d="M47.7074 19.4812H12.7075C11.8966 19.4812 11.2427 19.0552 11.2427 18.5269V18.2543C11.2427 17.7261 11.8966 17.3 12.7075 17.3H47.6813C48.4922 17.3 49.1462 17.7261 49.1462 18.2543V18.5099C49.1723 19.0382 48.5184 19.4812 47.7074 19.4812Z" fill="white" fill-opacity="0.81"/>
<path d="M50.1167 10.0667H12.8043C11.9398 10.0667 11.2427 9.59892 11.2427 9.01894V8.71959C11.2427 8.13961 11.9398 7.67188 12.8043 7.67188H50.0888C50.9533 7.67188 51.6504 8.13961 51.6504 8.71959V9.00023C51.6783 9.58021 50.9812 10.0667 50.1167 10.0667Z" fill="white"/>
<path d="M25.1157 6.17188H11.8C11.4915 6.17188 11.2427 5.7711 11.2427 5.27413V5.01762C11.2427 4.52066 11.4915 4.11987 11.8 4.11987H25.1058C25.4143 4.11987 25.6631 4.52066 25.6631 5.01762V5.25809C25.6731 5.75506 25.4243 6.17188 25.1157 6.17188Z" fill="white"/>
<path d="M50.1167 25.7572H12.8043C11.9398 25.7572 11.2427 25.3127 11.2427 24.7614V24.4769C11.2427 23.9257 11.9398 23.4812 12.8043 23.4812H50.0888C50.9533 23.4812 51.6504 23.9257 51.6504 24.4769V24.7437C51.6783 25.2949 50.9812 25.7572 50.1167 25.7572Z" fill="white" fill-opacity="0.8"/>
<path d="M38.6883 30.0331H12.3452C11.7349 30.0331 11.2427 29.5885 11.2427 29.0373V28.7528C11.2427 28.2016 11.7349 27.7571 12.3452 27.7571H38.6686C39.2789 27.7571 39.7712 28.2016 39.7712 28.7528V29.0195C39.7908 29.5708 39.2986 30.0331 38.6883 30.0331Z" fill="white" fill-opacity="0.8"/>
<path d="M22.4628 34.0828H11.6934C11.4439 34.0828 11.2427 33.8315 11.2427 33.52V33.3592C11.2427 33.0476 11.4439 32.7964 11.6934 32.7964H22.4547C22.7042 32.7964 22.9055 33.0476 22.9055 33.3592V33.5099C22.9135 33.8215 22.7123 34.0828 22.4628 34.0828Z" fill="white" fill-opacity="0.8"/>
<circle cx="25.9966" cy="33.435" r="1.40206" fill="#D9D9D9"/>
<path opacity="0.42" d="M25.2436 34.0569H26.7439C26.7965 34.0569 26.8393 34.0097 26.8393 33.9551C26.8393 33.926 26.8294 33.9006 26.813 33.8824L26.4379 33.4679C26.4017 33.428 26.3425 33.428 26.3063 33.4679L26.1846 33.6025L25.8753 33.2607C25.8391 33.2207 25.7799 33.2207 25.7437 33.2607L25.1811 33.8824C25.1449 33.9224 25.1449 33.9879 25.1811 34.0278C25.1976 34.046 25.2206 34.0569 25.2436 34.0569Z" fill="#06555E"/>
<path opacity="0.42" d="M26.4643 33.2279C26.5678 33.2279 26.6518 33.1352 26.6518 33.0207C26.6518 32.9063 26.5678 32.8135 26.4643 32.8135C26.3607 32.8135 26.2767 32.9063 26.2767 33.0207C26.2767 33.1352 26.3607 33.2279 26.4643 33.2279Z" fill="#06555E"/>
<circle cx="29.2681" cy="33.4443" r="1.40206" fill="#D9D9D9"/>
<path opacity="0.42" d="M28.5151 34.066H30.0154C30.068 34.066 30.1108 34.0187 30.1108 33.9642C30.1108 33.9351 30.1009 33.9096 30.0845 33.8914L29.7094 33.477C29.6732 33.437 29.614 33.437 29.5778 33.477L29.4561 33.6115L29.1468 33.2697C29.1106 33.2297 29.0514 33.2297 29.0152 33.2697L28.4526 33.8914C28.4164 33.9314 28.4164 33.9969 28.4526 34.0369C28.4691 34.0551 28.4921 34.066 28.5151 34.066Z" fill="#06555E"/>
<path opacity="0.42" d="M29.7357 33.2372C29.8393 33.2372 29.9233 33.1444 29.9233 33.03C29.9233 32.9155 29.8393 32.8228 29.7357 32.8228C29.6322 32.8228 29.5482 32.9155 29.5482 33.03C29.5482 33.1444 29.6322 33.2372 29.7357 33.2372Z" fill="#06555E"/>
<circle cx="32.5396" cy="33.435" r="1.40206" fill="#D9D9D9"/>
<path opacity="0.42" d="M31.7866 34.0569H33.2868C33.3394 34.0569 33.3822 34.0097 33.3822 33.9551C33.3822 33.926 33.3723 33.9006 33.3559 33.8824L32.9808 33.4679C32.9446 33.428 32.8854 33.428 32.8492 33.4679L32.7275 33.6025L32.4182 33.2607C32.382 33.2207 32.3228 33.2207 32.2866 33.2607L31.724 33.8824C31.6879 33.9224 31.6879 33.9879 31.724 34.0278C31.7405 34.046 31.7635 34.0569 31.7866 34.0569Z" fill="#06555E"/>
<path opacity="0.42" d="M33.0072 33.2279C33.1107 33.2279 33.1947 33.1352 33.1947 33.0207C33.1947 32.9063 33.1107 32.8135 33.0072 32.8135C32.9036 32.8135 32.8196 32.9063 32.8196 33.0207C32.8196 33.1352 32.9036 33.2279 33.0072 33.2279Z" fill="#06555E"/>
<circle cx="35.811" cy="33.4443" r="1.40206" fill="#D9D9D9"/>
<path opacity="0.42" d="M35.058 34.066H36.5583C36.6109 34.066 36.6537 34.0187 36.6537 33.9642C36.6537 33.9351 36.6438 33.9096 36.6274 33.8914L36.2523 33.477C36.2161 33.437 36.1569 33.437 36.1207 33.477L35.999 33.6115L35.6897 33.2697C35.6535 33.2297 35.5943 33.2297 35.5581 33.2697L34.9955 33.8914C34.9593 33.9314 34.9593 33.9969 34.9955 34.0369C35.012 34.0551 35.035 34.066 35.058 34.066Z" fill="#06555E"/>
<path opacity="0.42" d="M36.2787 33.2372C36.3822 33.2372 36.4662 33.1444 36.4662 33.03C36.4662 32.9155 36.3822 32.8228 36.2787 32.8228C36.1751 32.8228 36.0911 32.9155 36.0911 33.03C36.0911 33.1444 36.1751 33.2372 36.2787 33.2372Z" fill="#06555E"/>
</svg>
