<svg width="230" height="50" viewBox="0 0 230 50" fill="none" xmlns="http://www.w3.org/2000/svg">
<rect width="230" height="49.15" fill="#016772" fill-opacity="0.8"/>
<path d="M30.2198 6.72057H12.005C11.583 6.72057 11.2427 6.16517 11.2427 5.47649V5.12103C11.2427 4.43235 11.583 3.87695 12.005 3.87695H30.2062C30.6282 3.87695 30.9686 4.43235 30.9686 5.12103V5.45427C30.9822 6.14296 30.6418 6.72057 30.2198 6.72057Z" fill="white"/>
<path d="M66.9231 11.8697H12.3587C11.7409 11.8697 11.2427 11.4403 11.2427 10.9079V10.719C11.2427 10.1867 11.7409 9.75732 12.3587 9.75732H66.9032C67.521 9.75732 68.0192 10.1867 68.0192 10.719V10.9079C68.0391 11.4403 67.5409 11.8697 66.9231 11.8697ZM66.9231 16.3176H12.3587C11.7409 16.3176 11.2427 15.8882 11.2427 15.3559V15.167C11.2427 14.6346 11.7409 14.2052 12.3587 14.2052H66.9032C67.521 14.2052 68.0192 14.6346 68.0192 15.167V15.3559C68.0391 15.8882 67.5409 16.3176 66.9231 16.3176ZM56.082 20.7655H12.3587C11.7409 20.7655 11.2427 20.3362 11.2427 19.8038V19.6149C11.2427 19.0825 11.7409 18.6532 12.3587 18.6532H56.082C56.6998 18.6532 57.198 19.0825 57.198 19.6149V19.8038C57.198 20.3362 56.6998 20.7655 56.082 20.7655Z" fill="white" fill-opacity="0.9"/>
<path d="M16.2946 28.8828H11.6251C11.4148 28.8828 11.2427 28.7276 11.2427 28.5379V26.0026C11.2427 25.8129 11.4148 25.6577 11.6251 25.6577H16.2946C16.505 25.6577 16.6771 25.8129 16.6771 26.0026V28.5379C16.6771 28.7276 16.505 28.8828 16.2946 28.8828Z" fill="white"/>
<path opacity="0.42" d="M12.9634 28.0233H14.9488C15.0185 28.0233 15.0751 27.966 15.0751 27.9C15.0751 27.8647 15.062 27.8339 15.0402 27.8119L14.5439 27.3098C14.496 27.2614 14.4176 27.2614 14.3697 27.3098L14.2086 27.4728L13.7993 27.0588C13.7514 27.0103 13.6731 27.0103 13.6252 27.0588L12.8806 27.8119C12.8328 27.8603 12.8328 27.9396 12.8806 27.9881C12.9024 28.0101 12.9329 28.0233 12.9634 28.0233Z" fill="#06555E"/>
<path opacity="0.42" d="M14.5786 27.0192C14.7157 27.0192 14.8268 26.9068 14.8268 26.7681C14.8268 26.6295 14.7157 26.5171 14.5786 26.5171C14.4416 26.5171 14.3304 26.6295 14.3304 26.7681C14.3304 26.9068 14.4416 27.0192 14.5786 27.0192Z" fill="#06555E"/>
<path d="M22.721 28.8828H18.0515C17.8412 28.8828 17.6691 28.7276 17.6691 28.5379V26.0026C17.6691 25.8129 17.8412 25.6577 18.0515 25.6577H22.721C22.9314 25.6577 23.1035 25.8129 23.1035 26.0026V28.5379C23.1035 28.7276 22.9314 28.8828 22.721 28.8828Z" fill="white"/>
<path opacity="0.42" d="M19.3898 28.0233H21.3752C21.4449 28.0233 21.5015 27.966 21.5015 27.9C21.5015 27.8647 21.4884 27.8339 21.4667 27.8119L20.9703 27.3098C20.9224 27.2614 20.8441 27.2614 20.7962 27.3098L20.6351 27.4728L20.2258 27.0588C20.1779 27.0103 20.0995 27.0103 20.0516 27.0588L19.3071 27.8119C19.2592 27.8603 19.2592 27.9396 19.3071 27.9881C19.3289 28.0101 19.3593 28.0233 19.3898 28.0233Z" fill="#06555E"/>
<path opacity="0.42" d="M21.0052 27.0192C21.1423 27.0192 21.2534 26.9068 21.2534 26.7681C21.2534 26.6295 21.1423 26.5171 21.0052 26.5171C20.8681 26.5171 20.757 26.6295 20.757 26.7681C20.757 26.9068 20.8681 27.0192 21.0052 27.0192Z" fill="#06555E"/>
<path d="M29.1477 28.8828H24.4781C24.2678 28.8828 24.0957 28.7276 24.0957 28.5379V26.0026C24.0957 25.8129 24.2678 25.6577 24.4781 25.6577H29.1477C29.358 25.6577 29.5301 25.8129 29.5301 26.0026V28.5379C29.5301 28.7276 29.358 28.8828 29.1477 28.8828Z" fill="white"/>
<path opacity="0.42" d="M25.8164 28.0233H27.8018C27.8715 28.0233 27.9281 27.966 27.9281 27.9C27.9281 27.8647 27.915 27.8339 27.8932 27.8119L27.3969 27.3098C27.349 27.2614 27.2706 27.2614 27.2227 27.3098L27.0616 27.4728L26.6524 27.0588C26.6045 27.0103 26.5261 27.0103 26.4782 27.0588L25.7337 27.8119C25.6858 27.8603 25.6858 27.9396 25.7337 27.9881C25.7554 28.0101 25.7859 28.0233 25.8164 28.0233Z" fill="#06555E"/>
<path opacity="0.42" d="M27.4317 27.0192C27.5688 27.0192 27.6799 26.9068 27.6799 26.7681C27.6799 26.6295 27.5688 26.5171 27.4317 26.5171C27.2946 26.5171 27.1835 26.6295 27.1835 26.7681C27.1835 26.9068 27.2946 27.0192 27.4317 27.0192Z" fill="#06555E"/>
<path d="M35.5741 28.8828H30.9046C30.6943 28.8828 30.5222 28.7276 30.5222 28.5379V26.0026C30.5222 25.8129 30.6943 25.6577 30.9046 25.6577H35.5741C35.7844 25.6577 35.9565 25.8129 35.9565 26.0026V28.5379C35.9565 28.7276 35.7844 28.8828 35.5741 28.8828Z" fill="white"/>
<path opacity="0.42" d="M32.2429 28.0233H34.2283C34.298 28.0233 34.3546 27.966 34.3546 27.9C34.3546 27.8647 34.3415 27.8339 34.3198 27.8119L33.8234 27.3098C33.7755 27.2614 33.6971 27.2614 33.6492 27.3098L33.4882 27.4728L33.0789 27.0588C33.031 27.0103 32.9526 27.0103 32.9047 27.0588L32.1602 27.8119C32.1123 27.8603 32.1123 27.9396 32.1602 27.9881C32.182 28.0101 32.2124 28.0233 32.2429 28.0233Z" fill="#06555E"/>
<path opacity="0.42" d="M33.8582 27.0192C33.9953 27.0192 34.1064 26.9068 34.1064 26.7681C34.1064 26.6295 33.9953 26.5171 33.8582 26.5171C33.7212 26.5171 33.61 26.6295 33.61 26.7681C33.61 26.9068 33.7212 27.0192 33.8582 27.0192Z" fill="#06555E"/>
<path d="M102.509 6.68652H82.6867C82.2274 6.68652 81.8571 6.13788 81.8571 5.45755V5.10642C81.8571 4.42609 82.2274 3.87744 82.6867 3.87744H102.494C102.953 3.87744 103.324 4.42609 103.324 5.10642V5.43561C103.338 6.11593 102.968 6.68652 102.509 6.68652Z" fill="white"/>
<path d="M93.6582 13.8986H82.3311C82.0687 13.8986 81.8571 13.5442 81.8571 13.1047V12.8779C81.8571 12.4384 82.0687 12.084 82.3311 12.084H93.6498C93.9122 12.084 94.1238 12.4384 94.1238 12.8779V13.0905C94.1323 13.53 93.9207 13.8986 93.6582 13.8986Z" fill="white" fill-opacity="0.9"/>
<path d="M96.9081 18.7131H82.4617C82.127 18.7131 81.8571 18.3587 81.8571 17.9192V17.6923C81.8571 17.2529 82.127 16.8984 82.4617 16.8984H96.8973C97.232 16.8984 97.5019 17.2529 97.5019 17.6923V17.905C97.5127 18.3445 97.2428 18.7131 96.9081 18.7131Z" fill="white" fill-opacity="0.9"/>
<path d="M89.5569 23.528H82.1664C81.9951 23.528 81.8571 23.1736 81.8571 22.7341V22.5073C81.8571 22.0678 81.9951 21.7134 82.1664 21.7134H89.5514C89.7226 21.7134 89.8607 22.0678 89.8607 22.5073V22.7199C89.8662 23.1594 89.7281 23.528 89.5569 23.528Z" fill="white" fill-opacity="0.9"/>
<path d="M92.2115 28.343H82.273C82.0428 28.343 81.8571 27.9885 81.8571 27.5491V27.3222C81.8571 26.8827 82.0428 26.5283 82.273 26.5283H92.2041C92.4343 26.5283 92.62 26.8827 92.62 27.3222V27.5349C92.6275 27.9744 92.4418 28.343 92.2115 28.343Z" fill="white" fill-opacity="0.9"/>
<path d="M88.1747 33.1574H82.1108C81.9704 33.1574 81.8571 32.803 81.8571 32.3635V32.1367C81.8571 31.6972 81.9704 31.3428 82.1108 31.3428H88.1702C88.3107 31.3428 88.424 31.6972 88.424 32.1367V32.3493C88.4285 32.7888 88.3152 33.1574 88.1747 33.1574Z" fill="white" fill-opacity="0.9"/>
<path d="M150.108 6.68604H130.286C129.826 6.68604 129.456 6.13739 129.456 5.45706V5.10593C129.456 4.4256 129.826 3.87695 130.286 3.87695H150.093C150.552 3.87695 150.923 4.4256 150.923 5.10593V5.43512C150.937 6.11544 150.567 6.68604 150.108 6.68604Z" fill="white"/>
<path d="M137.757 13.8981H129.79C129.605 13.8981 129.456 13.5437 129.456 13.1042V12.8774C129.456 12.4379 129.605 12.0835 129.79 12.0835H137.751C137.936 12.0835 138.085 12.4379 138.085 12.8774V13.0901C138.091 13.5295 137.942 13.8981 137.757 13.8981Z" fill="white" fill-opacity="0.9"/>
<path d="M142.732 18.7131H129.989C129.694 18.7131 129.456 18.3587 129.456 17.9192V17.6923C129.456 17.2529 129.694 16.8984 129.989 16.8984H142.723C143.018 16.8984 143.256 17.2529 143.256 17.6923V17.905C143.266 18.3445 143.028 18.7131 142.732 18.7131Z" fill="white" fill-opacity="0.9"/>
<path d="M140.227 23.5275H129.889C129.649 23.5275 129.456 23.1731 129.456 22.7336V22.5068C129.456 22.0673 129.649 21.7129 129.889 21.7129H140.219C140.459 21.7129 140.652 22.0673 140.652 22.5068V22.7194C140.659 23.1589 140.466 23.5275 140.227 23.5275Z" fill="white" fill-opacity="0.9"/>
<path d="M141.175 28.342H129.927C129.666 28.342 129.456 27.9876 129.456 27.5481V27.3212C129.456 26.8818 129.666 26.5273 129.927 26.5273H141.166C141.427 26.5273 141.637 26.8818 141.637 27.3212V27.5339C141.646 27.9734 141.435 28.342 141.175 28.342Z" fill="white" fill-opacity="0.9"/>
<path d="M144.967 33.1569H130.079C129.734 33.1569 129.456 32.8025 129.456 32.363V32.1362C129.456 31.6967 129.734 31.3423 130.079 31.3423H144.956C145.301 31.3423 145.579 31.6967 145.579 32.1362V32.3488C145.59 32.7883 145.312 33.1569 144.967 33.1569Z" fill="white" fill-opacity="0.9"/>
<path d="M205.416 6.68604H177.167C176.513 6.68604 175.985 6.13739 175.985 5.45706V5.10593C175.985 4.4256 176.513 3.87695 177.167 3.87695H205.395C206.049 3.87695 206.577 4.4256 206.577 5.10593V5.43512C206.598 6.11544 206.07 6.68604 205.416 6.68604Z" fill="white"/>
<path d="M217.132 13.0678H177.638C176.723 13.0678 175.985 12.6069 175.985 12.0354V11.7404C175.985 11.1689 176.723 10.708 177.638 10.708H217.103C218.018 10.708 218.756 11.1689 218.756 11.7404V12.017C218.785 12.5885 218.047 13.0678 217.132 13.0678Z" fill="white" fill-opacity="0.9"/>
<path d="M207.408 16.6616H177.247C176.548 16.6616 175.985 16.2007 175.985 15.6292V15.3342C175.985 14.7627 176.548 14.3018 177.247 14.3018H207.386C208.084 14.3018 208.648 14.7627 208.648 15.3342V15.6107C208.67 16.1822 208.107 16.6616 207.408 16.6616Z" fill="white" fill-opacity="0.9"/>
<rect x="175.985" y="21.1475" width="32.6638" height="4.06543" fill="#D9D9D9"/>
<rect x="175.985" y="26.5273" width="16.7023" height="4.06543" fill="#D9D9D9"/>
<line opacity="0.6" x1="11.3423" y1="38.551" x2="218.656" y2="37.7424" stroke="white" stroke-width="0.2" stroke-linecap="round"/>
<rect opacity="0.8" x="11.2427" y="41.5874" width="74.9018" height="2.00488" rx="1.00244" fill="white"/>
<rect opacity="0.8" x="11.2427" y="44.6392" width="34.4653" height="2.00488" rx="1.00244" fill="white"/>
<path d="M192.668 45.5742H187.999C187.788 45.5742 187.616 45.419 187.616 45.2293V42.6941C187.616 42.5043 187.788 42.3491 187.999 42.3491H192.668C192.879 42.3491 193.051 42.5043 193.051 42.6941V45.2293C193.051 45.419 192.879 45.5742 192.668 45.5742Z" fill="white"/>
<path opacity="0.42" d="M189.337 44.7147H191.322C191.392 44.7147 191.449 44.6574 191.449 44.5914C191.449 44.5562 191.436 44.5253 191.414 44.5033L190.917 44.0012C190.87 43.9528 190.791 43.9528 190.743 44.0012L190.582 44.1642L190.173 43.7502C190.125 43.7018 190.047 43.7018 189.999 43.7502L189.254 44.5033C189.206 44.5517 189.206 44.631 189.254 44.6795C189.276 44.7015 189.306 44.7147 189.337 44.7147Z" fill="#06555E"/>
<path opacity="0.42" d="M190.952 43.7106C191.089 43.7106 191.2 43.5982 191.2 43.4595C191.2 43.3209 191.089 43.2085 190.952 43.2085C190.815 43.2085 190.704 43.3209 190.704 43.4595C190.704 43.5982 190.815 43.7106 190.952 43.7106Z" fill="#06555E"/>
<path d="M173.389 45.5742H168.719C168.509 45.5742 168.337 45.419 168.337 45.2293V42.6941C168.337 42.5043 168.509 42.3491 168.719 42.3491H173.389C173.599 42.3491 173.771 42.5043 173.771 42.6941V45.2293C173.771 45.419 173.599 45.5742 173.389 45.5742Z" fill="white"/>
<path opacity="0.42" d="M170.058 44.7147H172.043C172.113 44.7147 172.169 44.6574 172.169 44.5914C172.169 44.5562 172.156 44.5253 172.134 44.5033L171.638 44.0012C171.59 43.9528 171.512 43.9528 171.464 44.0012L171.303 44.1642L170.894 43.7502C170.846 43.7018 170.767 43.7018 170.719 43.7502L169.975 44.5033C169.927 44.5517 169.927 44.631 169.975 44.6795C169.997 44.7015 170.027 44.7147 170.058 44.7147Z" fill="#06555E"/>
<path opacity="0.42" d="M171.673 43.7106C171.81 43.7106 171.921 43.5982 171.921 43.4595C171.921 43.3209 171.81 43.2085 171.673 43.2085C171.536 43.2085 171.425 43.3209 171.425 43.4595C171.425 43.5982 171.536 43.7106 171.673 43.7106Z" fill="#06555E"/>
<path d="M199.095 45.5742H194.425C194.215 45.5742 194.043 45.419 194.043 45.2293V42.6941C194.043 42.5043 194.215 42.3491 194.425 42.3491H199.095C199.305 42.3491 199.477 42.5043 199.477 42.6941V45.2293C199.477 45.419 199.305 45.5742 199.095 45.5742Z" fill="white"/>
<path opacity="0.42" d="M195.763 44.7147H197.749C197.819 44.7147 197.875 44.6574 197.875 44.5914C197.875 44.5562 197.862 44.5253 197.84 44.5033L197.344 44.0012C197.296 43.9528 197.218 43.9528 197.17 44.0012L197.009 44.1642L196.599 43.7502C196.552 43.7018 196.473 43.7018 196.425 43.7502L195.681 44.5033C195.633 44.5517 195.633 44.631 195.681 44.6795C195.703 44.7015 195.733 44.7147 195.763 44.7147Z" fill="#06555E"/>
<path opacity="0.42" d="M197.379 43.7106C197.516 43.7106 197.627 43.5982 197.627 43.4595C197.627 43.3209 197.516 43.2085 197.379 43.2085C197.242 43.2085 197.131 43.3209 197.131 43.4595C197.131 43.5982 197.242 43.7106 197.379 43.7106Z" fill="#06555E"/>
<path d="M179.815 45.5742H175.146C174.935 45.5742 174.763 45.419 174.763 45.2293V42.6941C174.763 42.5043 174.935 42.3491 175.146 42.3491H179.815C180.026 42.3491 180.198 42.5043 180.198 42.6941V45.2293C180.198 45.419 180.026 45.5742 179.815 45.5742Z" fill="white"/>
<path opacity="0.42" d="M176.484 44.7147H178.469C178.539 44.7147 178.596 44.6574 178.596 44.5914C178.596 44.5562 178.583 44.5253 178.561 44.5033L178.065 44.0012C178.017 43.9528 177.938 43.9528 177.89 44.0012L177.729 44.1642L177.32 43.7502C177.272 43.7018 177.194 43.7018 177.146 43.7502L176.401 44.5033C176.353 44.5517 176.353 44.631 176.401 44.6795C176.423 44.7015 176.454 44.7147 176.484 44.7147Z" fill="#06555E"/>
<path opacity="0.42" d="M178.099 43.7106C178.236 43.7106 178.348 43.5982 178.348 43.4595C178.348 43.3209 178.236 43.2085 178.099 43.2085C177.962 43.2085 177.851 43.3209 177.851 43.4595C177.851 43.5982 177.962 43.7106 178.099 43.7106Z" fill="#06555E"/>
<path d="M205.521 45.5742H200.852C200.641 45.5742 200.469 45.419 200.469 45.2293V42.6941C200.469 42.5043 200.641 42.3491 200.852 42.3491H205.521C205.732 42.3491 205.904 42.5043 205.904 42.6941V45.2293C205.904 45.419 205.732 45.5742 205.521 45.5742Z" fill="white"/>
<path opacity="0.42" d="M202.19 44.7147H204.175C204.245 44.7147 204.302 44.6574 204.302 44.5914C204.302 44.5562 204.289 44.5253 204.267 44.5033L203.77 44.0012C203.723 43.9528 203.644 43.9528 203.596 44.0012L203.435 44.1642L203.026 43.7502C202.978 43.7018 202.9 43.7018 202.852 43.7502L202.107 44.5033C202.059 44.5517 202.059 44.631 202.107 44.6795C202.129 44.7015 202.159 44.7147 202.19 44.7147Z" fill="#06555E"/>
<path opacity="0.42" d="M203.805 43.7106C203.942 43.7106 204.053 43.5982 204.053 43.4595C204.053 43.3209 203.942 43.2085 203.805 43.2085C203.668 43.2085 203.557 43.3209 203.557 43.4595C203.557 43.5982 203.668 43.7106 203.805 43.7106Z" fill="#06555E"/>
<path d="M186.242 45.5742H181.572C181.362 45.5742 181.19 45.419 181.19 45.2293V42.6941C181.19 42.5043 181.362 42.3491 181.572 42.3491H186.242C186.452 42.3491 186.624 42.5043 186.624 42.6941V45.2293C186.624 45.419 186.452 45.5742 186.242 45.5742Z" fill="white"/>
<path opacity="0.42" d="M182.911 44.7147H184.896C184.966 44.7147 185.022 44.6574 185.022 44.5914C185.022 44.5562 185.009 44.5253 184.987 44.5033L184.491 44.0012C184.443 43.9528 184.365 43.9528 184.317 44.0012L184.156 44.1642L183.747 43.7502C183.699 43.7018 183.62 43.7018 183.572 43.7502L182.828 44.5033C182.78 44.5517 182.78 44.631 182.828 44.6795C182.85 44.7015 182.88 44.7147 182.911 44.7147Z" fill="#06555E"/>
<path opacity="0.42" d="M184.526 43.7106C184.663 43.7106 184.774 43.5982 184.774 43.4595C184.774 43.3209 184.663 43.2085 184.526 43.2085C184.389 43.2085 184.278 43.3209 184.278 43.4595C184.278 43.5982 184.389 43.7106 184.526 43.7106Z" fill="#06555E"/>
<path d="M211.948 45.5742H207.278C207.068 45.5742 206.896 45.419 206.896 45.2293V42.6941C206.896 42.5043 207.068 42.3491 207.278 42.3491H211.948C212.158 42.3491 212.33 42.5043 212.33 42.6941V45.2293C212.33 45.419 212.158 45.5742 211.948 45.5742Z" fill="white"/>
<path opacity="0.42" d="M208.616 44.7147H210.602C210.672 44.7147 210.728 44.6574 210.728 44.5914C210.728 44.5562 210.715 44.5253 210.693 44.5033L210.197 44.0012C210.149 43.9528 210.071 43.9528 210.023 44.0012L209.862 44.1642L209.452 43.7502C209.405 43.7018 209.326 43.7018 209.278 43.7502L208.534 44.5033C208.486 44.5517 208.486 44.631 208.534 44.6795C208.555 44.7015 208.586 44.7147 208.616 44.7147Z" fill="#06555E"/>
<path opacity="0.42" d="M210.232 43.7106C210.369 43.7106 210.48 43.5982 210.48 43.4595C210.48 43.3209 210.369 43.2085 210.232 43.2085C210.095 43.2085 209.984 43.3209 209.984 43.4595C209.984 43.5982 210.095 43.7106 210.232 43.7106Z" fill="#06555E"/>
<path d="M218.374 45.5742H213.705C213.494 45.5742 213.322 45.419 213.322 45.2293V42.6941C213.322 42.5043 213.494 42.3491 213.705 42.3491H218.374C218.585 42.3491 218.757 42.5043 218.757 42.6941V45.2293C218.757 45.419 218.585 45.5742 218.374 45.5742Z" fill="white"/>
<path opacity="0.42" d="M215.043 44.7147H217.028C217.098 44.7147 217.155 44.6574 217.155 44.5914C217.155 44.5562 217.142 44.5253 217.12 44.5033L216.623 44.0012C216.576 43.9528 216.497 43.9528 216.449 44.0012L216.288 44.1642L215.879 43.7502C215.831 43.7018 215.753 43.7018 215.705 43.7502L214.96 44.5033C214.912 44.5517 214.912 44.631 214.96 44.6795C214.982 44.7015 215.012 44.7147 215.043 44.7147Z" fill="#06555E"/>
<path opacity="0.42" d="M216.658 43.7106C216.795 43.7106 216.906 43.5982 216.906 43.4595C216.906 43.3209 216.795 43.2085 216.658 43.2085C216.521 43.2085 216.41 43.3209 216.41 43.4595C216.41 43.5982 216.521 43.7106 216.658 43.7106Z" fill="#06555E"/>
</svg>
