<svg width="230" height="50" viewBox="0 0 230 50" fill="none" xmlns="http://www.w3.org/2000/svg">
<rect width="230" height="49.15" fill="#016772" fill-opacity="0.8"/>
<path d="M60.1361 6.57422H12.9739C11.8812 6.57422 11 5.7369 11 4.69861V4.16272C11 3.12444 11.8812 2.28711 12.9739 2.28711H60.1008C61.1935 2.28711 62.0747 3.12444 62.0747 4.16272V4.66512C62.11 5.7034 61.2288 6.57422 60.1361 6.57422Z" fill="white"/>
<path d="M190.468 6H177.541C177.242 6 177 5.60938 177 5.125V4.875C177 4.39063 177.242 4 177.541 4H190.459C190.758 4 191 4.39063 191 4.875V5.10938C191.009 5.59375 190.768 6 190.468 6Z" fill="white"/>
<path d="M34.0886 13H11.9275C11.4141 13 11 12.4141 11 11.6875V11.3125C11 10.5859 11.4141 10 11.9275 10H34.072C34.5855 10 34.9995 10.5859 34.9995 11.3125V11.6641C35.0161 12.3906 34.602 13 34.0886 13Z" fill="white"/>
<path d="M24.5774 18.7426H11.5454C11.2435 18.7426 11 18.365 11 17.8967V17.655C11 17.1867 11.2435 16.8091 11.5454 16.8091H24.5677C24.8696 16.8091 25.1131 17.1867 25.1131 17.655V17.8816C25.1228 18.3499 24.8793 18.7426 24.5774 18.7426Z" fill="white" fill-opacity="0.9"/>
<path d="M28.3164 22.8071H11.6956C11.3106 22.8071 11 22.4294 11 21.9611V21.7195C11 21.2512 11.3106 20.8735 11.6956 20.8735H28.304C28.6891 20.8735 28.9996 21.2512 28.9996 21.7195V21.946C29.0121 22.4143 28.7015 22.8071 28.3164 22.8071Z" fill="white" fill-opacity="0.9"/>
<path d="M19.8587 26.8715H11.3559C11.1589 26.8715 11 26.4939 11 26.0256V25.7839C11 25.3156 11.1589 24.938 11.3559 24.938H19.8524C20.0494 24.938 20.2083 25.3156 20.2083 25.7839V26.0105C20.2146 26.4788 20.0557 26.8715 19.8587 26.8715Z" fill="white" fill-opacity="0.9"/>
<path d="M22.9129 30.9355H11.4786C11.2136 30.9355 11 30.5578 11 30.0896V29.8479C11 29.3796 11.2136 29.002 11.4786 29.002H22.9044C23.1693 29.002 23.383 29.3796 23.383 29.8479V30.0745C23.3915 30.5427 23.1779 30.9355 22.9129 30.9355Z" fill="white" fill-opacity="0.9"/>
<path d="M18.2685 34.9999H11.292C11.1304 34.9999 11 34.6223 11 34.154V33.9123C11 33.444 11.1304 33.0664 11.292 33.0664H18.2633C18.425 33.0664 18.5553 33.444 18.5553 33.9123V34.1389C18.5605 34.6072 18.4302 34.9999 18.2685 34.9999Z" fill="white" fill-opacity="0.9"/>
<path d="M92.0886 13H69.9275C69.4141 13 69 12.4141 69 11.6875V11.3125C69 10.5859 69.4141 10 69.9275 10H92.072C92.5855 10 92.9995 10.5859 92.9995 11.3125V11.6641C93.0161 12.3906 92.602 13 92.0886 13Z" fill="white"/>
<path d="M82.5774 18.7426H69.5454C69.2435 18.7426 69 18.365 69 17.8967V17.655C69 17.1867 69.2435 16.8091 69.5454 16.8091H82.5677C82.8696 16.8091 83.1131 17.1867 83.1131 17.655V17.8816C83.1228 18.3499 82.8793 18.7426 82.5774 18.7426Z" fill="white" fill-opacity="0.9"/>
<path d="M86.3164 22.8071H69.6956C69.3106 22.8071 69 22.4294 69 21.9611V21.7195C69 21.2512 69.3106 20.8735 69.6956 20.8735H86.304C86.6891 20.8735 86.9996 21.2512 86.9996 21.7195V21.946C87.0121 22.4143 86.7015 22.8071 86.3164 22.8071Z" fill="white" fill-opacity="0.9"/>
<path d="M77.8587 26.8715H69.3559C69.1589 26.8715 69 26.4939 69 26.0256V25.7839C69 25.3156 69.1589 24.938 69.3559 24.938H77.8524C78.0494 24.938 78.2083 25.3156 78.2083 25.7839V26.0105C78.2146 26.4788 78.0557 26.8715 77.8587 26.8715Z" fill="white" fill-opacity="0.9"/>
<path d="M80.9129 30.9355H69.4786C69.2136 30.9355 69 30.5578 69 30.0896V29.8479C69 29.3796 69.2136 29.002 69.4786 29.002H80.9044C81.1693 29.002 81.383 29.3796 81.383 29.8479V30.0745C81.3915 30.5427 81.1779 30.9355 80.9129 30.9355Z" fill="white" fill-opacity="0.9"/>
<path d="M76.2685 34.9999H69.292C69.1304 34.9999 69 34.6223 69 34.154V33.9123C69 33.444 69.1304 33.0664 69.292 33.0664H76.2633C76.425 33.0664 76.5553 33.444 76.5553 33.9123V34.1389C76.5605 34.6072 76.4302 34.9999 76.2685 34.9999Z" fill="white" fill-opacity="0.9"/>
<path d="M138.577 18.7426H125.545C125.243 18.7426 125 18.365 125 17.8967V17.655C125 17.1867 125.243 16.8091 125.545 16.8091H138.568C138.87 16.8091 139.113 17.1867 139.113 17.655V17.8816C139.123 18.3499 138.879 18.7426 138.577 18.7426Z" fill="white" fill-opacity="0.9"/>
<path d="M142.316 22.8071H125.696C125.311 22.8071 125 22.4294 125 21.9611V21.7195C125 21.2512 125.311 20.8735 125.696 20.8735H142.304C142.689 20.8735 143 21.2512 143 21.7195V21.946C143.012 22.4143 142.702 22.8071 142.316 22.8071Z" fill="white" fill-opacity="0.9"/>
<path d="M133.859 26.8715H125.356C125.159 26.8715 125 26.4939 125 26.0256V25.7839C125 25.3156 125.159 24.938 125.356 24.938H133.852C134.049 24.938 134.208 25.3156 134.208 25.7839V26.0105C134.215 26.4788 134.056 26.8715 133.859 26.8715Z" fill="white" fill-opacity="0.9"/>
<path d="M136.913 30.9355H125.479C125.214 30.9355 125 30.5578 125 30.0896V29.8479C125 29.3796 125.214 29.002 125.479 29.002H136.904C137.169 29.002 137.383 29.3796 137.383 29.8479V30.0745C137.392 30.5427 137.178 30.9355 136.913 30.9355Z" fill="white" fill-opacity="0.9"/>
<path d="M132.269 34.9999H125.292C125.13 34.9999 125 34.6223 125 34.154V33.9123C125 33.444 125.13 33.0664 125.292 33.0664H132.263C132.425 33.0664 132.555 33.444 132.555 33.9123V34.1389C132.561 34.6072 132.43 34.9999 132.269 34.9999Z" fill="white" fill-opacity="0.9"/>
<path d="M205.556 16.2681H177.307C176.653 16.2681 176.125 15.7194 176.125 15.0391V14.688C176.125 14.0076 176.653 13.459 177.307 13.459H205.535C206.189 13.459 206.717 14.0076 206.717 14.688V15.0171C206.738 15.6975 206.21 16.2681 205.556 16.2681Z" fill="white"/>
<path d="M201.684 20.8735H177.152C176.583 20.8735 176.125 20.3249 176.125 19.6446V19.2934C176.125 18.6131 176.583 18.0645 177.152 18.0645H201.666C202.234 18.0645 202.693 18.6131 202.693 19.2934V19.6226C202.711 20.3029 202.253 20.8735 201.684 20.8735Z" fill="white"/>
<line opacity="0.6" x1="11.3423" y1="39.551" x2="218.656" y2="38.7424" stroke="white" stroke-width="0.2" stroke-linecap="round"/>
<ellipse cx="194.755" cy="4.99507" rx="1.63129" ry="1.5688" fill="#D9D9D9"/>
<path opacity="0.42" d="M193.879 5.69156H195.624C195.685 5.69156 195.735 5.63868 195.735 5.57766C195.735 5.54511 195.724 5.51664 195.705 5.4963L195.268 5.03253C195.226 4.98778 195.157 4.98778 195.115 5.03253L194.973 5.18305L194.614 4.80065C194.571 4.7559 194.503 4.7559 194.46 4.80065L193.806 5.4963C193.764 5.54104 193.764 5.61427 193.806 5.65902C193.825 5.67936 193.852 5.69156 193.879 5.69156Z" fill="#06555E"/>
<path opacity="0.42" d="M195.299 4.76357C195.419 4.76357 195.517 4.65975 195.517 4.53169C195.517 4.40362 195.419 4.2998 195.299 4.2998C195.178 4.2998 195.08 4.40362 195.08 4.53169C195.08 4.65975 195.178 4.76357 195.299 4.76357Z" fill="#06555E"/>
<ellipse cx="198.561" cy="5.00532" rx="1.63129" ry="1.5688" fill="#D9D9D9"/>
<path opacity="0.42" d="M197.685 5.70035H199.43C199.492 5.70035 199.541 5.64747 199.541 5.58645C199.541 5.5539 199.53 5.52543 199.511 5.50508L199.074 5.04132C199.032 4.99657 198.963 4.99657 198.921 5.04132L198.78 5.19184L198.42 4.80944C198.378 4.76469 198.309 4.76469 198.267 4.80944L197.612 5.50508C197.57 5.54983 197.57 5.62306 197.612 5.66781C197.631 5.68815 197.658 5.70035 197.685 5.70035Z" fill="#06555E"/>
<path opacity="0.42" d="M199.105 4.77333C199.225 4.77333 199.323 4.66952 199.323 4.54145C199.323 4.41339 199.225 4.30957 199.105 4.30957C198.984 4.30957 198.887 4.41339 198.887 4.54145C198.887 4.66952 198.984 4.77333 199.105 4.77333Z" fill="#06555E"/>
<ellipse cx="202.367" cy="4.99507" rx="1.63129" ry="1.5688" fill="#D9D9D9"/>
<path opacity="0.42" d="M201.491 5.69156H203.237C203.298 5.69156 203.348 5.63868 203.348 5.57766C203.348 5.54511 203.336 5.51664 203.317 5.4963L202.881 5.03253C202.839 4.98778 202.77 4.98778 202.728 5.03253L202.586 5.18305L202.226 4.80065C202.184 4.7559 202.115 4.7559 202.073 4.80065L201.419 5.4963C201.376 5.54104 201.376 5.61427 201.419 5.65902C201.438 5.67936 201.465 5.69156 201.491 5.69156Z" fill="#06555E"/>
<path opacity="0.42" d="M202.911 4.76357C203.032 4.76357 203.13 4.65975 203.13 4.53169C203.13 4.40362 203.032 4.2998 202.911 4.2998C202.791 4.2998 202.693 4.40362 202.693 4.53169C202.693 4.65975 202.791 4.76357 202.911 4.76357Z" fill="#06555E"/>
<ellipse cx="206.174" cy="5.00532" rx="1.63129" ry="1.5688" fill="#D9D9D9"/>
<path opacity="0.42" d="M205.298 5.70035H207.043C207.104 5.70035 207.154 5.64747 207.154 5.58645C207.154 5.5539 207.143 5.52543 207.124 5.50508L206.687 5.04132C206.645 4.99657 206.576 4.99657 206.534 5.04132L206.392 5.19184L206.033 4.80944C205.991 4.76469 205.922 4.76469 205.88 4.80944L205.225 5.50508C205.183 5.54983 205.183 5.62306 205.225 5.66781C205.244 5.68815 205.271 5.70035 205.298 5.70035Z" fill="#06555E"/>
<path opacity="0.42" d="M206.718 4.77333C206.838 4.77333 206.936 4.66952 206.936 4.54145C206.936 4.41339 206.838 4.30957 206.718 4.30957C206.597 4.30957 206.5 4.41339 206.5 4.54145C206.5 4.66952 206.597 4.77333 206.718 4.77333Z" fill="#06555E"/>
<path d="M192.668 45.8345H187.999C187.788 45.8345 187.616 45.6793 187.616 45.4895V42.9543C187.616 42.7646 187.788 42.6094 187.999 42.6094H192.668C192.879 42.6094 193.051 42.7646 193.051 42.9543V45.4895C193.051 45.6793 192.879 45.8345 192.668 45.8345Z" fill="white"/>
<path opacity="0.42" d="M189.337 44.975H191.322C191.392 44.975 191.449 44.9177 191.449 44.8516C191.449 44.8164 191.436 44.7856 191.414 44.7636L190.917 44.2615C190.87 44.213 190.791 44.213 190.743 44.2615L190.582 44.4244L190.173 44.0105C190.125 43.962 190.047 43.962 189.999 44.0105L189.254 44.7636C189.206 44.812 189.206 44.8913 189.254 44.9397C189.276 44.9617 189.306 44.975 189.337 44.975Z" fill="#06555E"/>
<path opacity="0.42" d="M190.952 43.9708C191.089 43.9708 191.2 43.8584 191.2 43.7198C191.2 43.5811 191.089 43.4688 190.952 43.4688C190.815 43.4688 190.704 43.5811 190.704 43.7198C190.704 43.8584 190.815 43.9708 190.952 43.9708Z" fill="#06555E"/>
<path d="M186.242 45.8345H181.572C181.362 45.8345 181.19 45.6793 181.19 45.4895V42.9543C181.19 42.7646 181.362 42.6094 181.572 42.6094H186.242C186.452 42.6094 186.624 42.7646 186.624 42.9543V45.4895C186.624 45.6793 186.452 45.8345 186.242 45.8345Z" fill="white"/>
<path opacity="0.42" d="M182.911 44.975H184.896C184.966 44.975 185.022 44.9177 185.022 44.8516C185.022 44.8164 185.009 44.7856 184.987 44.7636L184.491 44.2615C184.443 44.213 184.365 44.213 184.317 44.2615L184.156 44.4244L183.746 44.0105C183.699 43.962 183.62 43.962 183.572 44.0105L182.828 44.7636C182.78 44.812 182.78 44.8913 182.828 44.9397C182.85 44.9617 182.88 44.975 182.911 44.975Z" fill="#06555E"/>
<path opacity="0.42" d="M184.526 43.9708C184.663 43.9708 184.774 43.8584 184.774 43.7198C184.774 43.5811 184.663 43.4688 184.526 43.4688C184.389 43.4688 184.278 43.5811 184.278 43.7198C184.278 43.8584 184.389 43.9708 184.526 43.9708Z" fill="#06555E"/>
<path d="M192.782 28.6621H177.386C176.692 28.6621 176.125 28.4047 176.125 28.0902V23.8864C176.125 23.5718 176.692 23.3145 177.386 23.3145H192.782C193.475 23.3145 194.043 23.5718 194.043 23.8864V28.0902C194.043 28.4047 193.475 28.6621 192.782 28.6621Z" fill="white"/>
<path d="M212.392 28.6621H196.996C196.303 28.6621 195.735 28.4047 195.735 28.0902V23.8864C195.735 23.5718 196.303 23.3145 196.996 23.3145H212.392C213.085 23.3145 213.653 23.5718 213.653 23.8864V28.0902C213.653 28.4047 213.085 28.6621 212.392 28.6621Z" fill="white"/>
<path opacity="0.42" d="M183.483 27.1976H186.672C186.784 27.1976 186.875 27.1056 186.875 26.9995C186.875 26.9429 186.854 26.8934 186.819 26.858L186.022 26.0515C185.945 25.9737 185.819 25.9737 185.742 26.0515L185.483 26.3132L184.826 25.6482C184.749 25.5704 184.623 25.5704 184.546 25.6482L183.35 26.858C183.273 26.9358 183.273 27.0632 183.35 27.141C183.385 27.1764 183.434 27.1976 183.483 27.1976Z" fill="#06555E"/>
<path opacity="0.42" d="M186.078 25.5849C186.298 25.5849 186.476 25.4043 186.476 25.1816C186.476 24.9589 186.298 24.7783 186.078 24.7783C185.858 24.7783 185.679 24.9589 185.679 25.1816C185.679 25.4043 185.858 25.5849 186.078 25.5849Z" fill="#06555E"/>
<path opacity="0.42" d="M203.093 27.1976H206.283C206.395 27.1976 206.485 27.1056 206.485 26.9995C206.485 26.9429 206.464 26.8934 206.429 26.858L205.632 26.0515C205.555 25.9737 205.429 25.9737 205.352 26.0515L205.094 26.3132L204.436 25.6482C204.359 25.5704 204.233 25.5704 204.156 25.6482L202.96 26.858C202.883 26.9358 202.883 27.0632 202.96 27.141C202.995 27.1764 203.044 27.1976 203.093 27.1976Z" fill="#06555E"/>
<path opacity="0.42" d="M205.688 25.5849C205.908 25.5849 206.087 25.4043 206.087 25.1816C206.087 24.9589 205.908 24.7783 205.688 24.7783C205.468 24.7783 205.289 24.9589 205.289 25.1816C205.289 25.4043 205.468 25.5849 205.688 25.5849Z" fill="#06555E"/>
<path d="M199.095 45.8345H194.425C194.215 45.8345 194.043 45.6793 194.043 45.4895V42.9543C194.043 42.7646 194.215 42.6094 194.425 42.6094H199.095C199.305 42.6094 199.477 42.7646 199.477 42.9543V45.4895C199.477 45.6793 199.305 45.8345 199.095 45.8345Z" fill="white"/>
<path opacity="0.42" d="M195.763 44.975H197.749C197.819 44.975 197.875 44.9177 197.875 44.8516C197.875 44.8164 197.862 44.7856 197.84 44.7636L197.344 44.2615C197.296 44.213 197.218 44.213 197.17 44.2615L197.009 44.4244L196.599 44.0105C196.551 43.962 196.473 43.962 196.425 44.0105L195.681 44.7636C195.633 44.812 195.633 44.8913 195.681 44.9397C195.702 44.9617 195.733 44.975 195.763 44.975Z" fill="#06555E"/>
<path opacity="0.42" d="M197.379 43.9708C197.516 43.9708 197.627 43.8584 197.627 43.7198C197.627 43.5811 197.516 43.4688 197.379 43.4688C197.242 43.4688 197.131 43.5811 197.131 43.7198C197.131 43.8584 197.242 43.9708 197.379 43.9708Z" fill="#06555E"/>
<path d="M205.521 45.8345H200.852C200.641 45.8345 200.469 45.6793 200.469 45.4895V42.9543C200.469 42.7646 200.641 42.6094 200.852 42.6094H205.521C205.732 42.6094 205.904 42.7646 205.904 42.9543V45.4895C205.904 45.6793 205.732 45.8345 205.521 45.8345Z" fill="white"/>
<path opacity="0.42" d="M202.19 44.975H204.175C204.245 44.975 204.302 44.9177 204.302 44.8516C204.302 44.8164 204.289 44.7856 204.267 44.7636L203.77 44.2615C203.723 44.213 203.644 44.213 203.596 44.2615L203.435 44.4244L203.026 44.0105C202.978 43.962 202.9 43.962 202.852 44.0105L202.107 44.7636C202.059 44.812 202.059 44.8913 202.107 44.9397C202.129 44.9617 202.159 44.975 202.19 44.975Z" fill="#06555E"/>
<path opacity="0.42" d="M203.805 43.9708C203.942 43.9708 204.053 43.8584 204.053 43.7198C204.053 43.5811 203.942 43.4688 203.805 43.4688C203.668 43.4688 203.557 43.5811 203.557 43.7198C203.557 43.8584 203.668 43.9708 203.805 43.9708Z" fill="#06555E"/>
<path d="M211.948 45.8345H207.278C207.068 45.8345 206.896 45.6793 206.896 45.4895V42.9543C206.896 42.7646 207.068 42.6094 207.278 42.6094H211.948C212.158 42.6094 212.33 42.7646 212.33 42.9543V45.4895C212.33 45.6793 212.158 45.8345 211.948 45.8345Z" fill="white"/>
<path opacity="0.42" d="M208.616 44.975H210.602C210.671 44.975 210.728 44.9177 210.728 44.8516C210.728 44.8164 210.715 44.7856 210.693 44.7636L210.197 44.2615C210.149 44.213 210.071 44.213 210.023 44.2615L209.862 44.4244L209.452 44.0105C209.404 43.962 209.326 43.962 209.278 44.0105L208.534 44.7636C208.486 44.812 208.486 44.8913 208.534 44.9397C208.555 44.9617 208.586 44.975 208.616 44.975Z" fill="#06555E"/>
<path opacity="0.42" d="M210.232 43.9708C210.369 43.9708 210.48 43.8584 210.48 43.7198C210.48 43.5811 210.369 43.4688 210.232 43.4688C210.095 43.4688 209.984 43.5811 209.984 43.7198C209.984 43.8584 210.095 43.9708 210.232 43.9708Z" fill="#06555E"/>
<path d="M218.374 45.8345H213.705C213.494 45.8345 213.322 45.6793 213.322 45.4895V42.9543C213.322 42.7646 213.494 42.6094 213.705 42.6094H218.374C218.584 42.6094 218.757 42.7646 218.757 42.9543V45.4895C218.757 45.6793 218.584 45.8345 218.374 45.8345Z" fill="white"/>
<path opacity="0.42" d="M215.043 44.975H217.028C217.098 44.975 217.155 44.9177 217.155 44.8516C217.155 44.8164 217.141 44.7856 217.12 44.7636L216.623 44.2615C216.575 44.213 216.497 44.213 216.449 44.2615L216.288 44.4244L215.879 44.0105C215.831 43.962 215.753 43.962 215.705 44.0105L214.96 44.7636C214.912 44.812 214.912 44.8913 214.96 44.9397C214.982 44.9617 215.012 44.975 215.043 44.975Z" fill="#06555E"/>
<path opacity="0.42" d="M216.658 43.9708C216.795 43.9708 216.906 43.8584 216.906 43.7198C216.906 43.5811 216.795 43.4688 216.658 43.4688C216.521 43.4688 216.41 43.5811 216.41 43.7198C216.41 43.8584 216.521 43.9708 216.658 43.9708Z" fill="#06555E"/>
<rect opacity="0.8" x="11.2427" y="43.2197" width="42.108" height="2.61475" rx="1.30737" fill="white"/>
</svg>
