<svg width="230" height="50" viewBox="0 0 230 50" fill="none" xmlns="http://www.w3.org/2000/svg">
<rect width="230" height="49.15" fill="#016772" fill-opacity="0.8"/>
<path d="M30.2198 6.72081H12.005C11.583 6.72081 11.2427 6.16542 11.2427 5.47673V5.12128C11.2427 4.43259 11.583 3.8772 12.005 3.8772H30.2062C30.6282 3.8772 30.9686 4.43259 30.9686 5.12128V5.45451C30.9822 6.1432 30.6418 6.72081 30.2198 6.72081Z" fill="white"/>
<path d="M66.9231 11.8699H12.3587C11.7409 11.8699 11.2427 11.4406 11.2427 10.9082V10.7193C11.2427 10.1869 11.7409 9.75757 12.3587 9.75757H66.9032C67.521 9.75757 68.0192 10.1869 68.0192 10.7193V10.9082C68.0391 11.4406 67.5409 11.8699 66.9231 11.8699ZM66.9231 16.3178H12.3587C11.7409 16.3178 11.2427 15.8885 11.2427 15.3561V15.1672C11.2427 14.6348 11.7409 14.2055 12.3587 14.2055H66.9032C67.521 14.2055 68.0192 14.6348 68.0192 15.1672V15.3561C68.0391 15.8885 67.5409 16.3178 66.9231 16.3178ZM56.082 20.7658H12.3587C11.7409 20.7658 11.2427 20.3364 11.2427 19.804V19.6151C11.2427 19.0828 11.7409 18.6534 12.3587 18.6534H56.082C56.6998 18.6534 57.198 19.0828 57.198 19.6151V19.804C57.198 20.3364 56.6998 20.7658 56.082 20.7658Z" fill="white" fill-opacity="0.9"/>
<path d="M25.5982 28.1396H11.8194C11.5001 28.1396 11.2427 27.7424 11.2427 27.2499V26.9957C11.2427 26.5032 11.5001 26.106 11.8194 26.106H25.5879C25.9071 26.106 26.1646 26.5032 26.1646 26.9957V27.234C26.1749 27.7266 25.9174 28.1396 25.5982 28.1396Z" fill="white"/>
<path d="M16.2946 33.3647H11.6251C11.4148 33.3647 11.2427 33.2095 11.2427 33.0198V30.4846C11.2427 30.2949 11.4148 30.1396 11.6251 30.1396H16.2946C16.505 30.1396 16.6771 30.2949 16.6771 30.4846V33.0198C16.6771 33.2095 16.505 33.3647 16.2946 33.3647Z" fill="white"/>
<path opacity="0.42" d="M12.9634 32.5052H14.9488C15.0185 32.5052 15.0751 32.448 15.0751 32.3819C15.0751 32.3467 15.062 32.3159 15.0402 32.2938L14.5439 31.7918C14.496 31.7433 14.4176 31.7433 14.3697 31.7918L14.2086 31.9547L13.7993 31.5407C13.7514 31.4923 13.6731 31.4923 13.6252 31.5407L12.8806 32.2938C12.8328 32.3423 12.8328 32.4215 12.8806 32.47C12.9024 32.492 12.9329 32.5052 12.9634 32.5052Z" fill="#06555E"/>
<path opacity="0.42" d="M14.5786 31.5011C14.7157 31.5011 14.8268 31.3887 14.8268 31.2501C14.8268 31.1114 14.7157 30.999 14.5786 30.999C14.4416 30.999 14.3304 31.1114 14.3304 31.2501C14.3304 31.3887 14.4416 31.5011 14.5786 31.5011Z" fill="#06555E"/>
<path d="M22.721 33.3647H18.0515C17.8412 33.3647 17.6691 33.2095 17.6691 33.0198V30.4846C17.6691 30.2949 17.8412 30.1396 18.0515 30.1396H22.721C22.9314 30.1396 23.1035 30.2949 23.1035 30.4846V33.0198C23.1035 33.2095 22.9314 33.3647 22.721 33.3647Z" fill="white"/>
<path opacity="0.42" d="M19.3898 32.5052H21.3752C21.4449 32.5052 21.5015 32.448 21.5015 32.3819C21.5015 32.3467 21.4884 32.3159 21.4667 32.2938L20.9703 31.7918C20.9224 31.7433 20.8441 31.7433 20.7962 31.7918L20.6351 31.9547L20.2258 31.5407C20.1779 31.4923 20.0995 31.4923 20.0516 31.5407L19.3071 32.2938C19.2592 32.3423 19.2592 32.4215 19.3071 32.47C19.3289 32.492 19.3593 32.5052 19.3898 32.5052Z" fill="#06555E"/>
<path opacity="0.42" d="M21.0052 31.5011C21.1423 31.5011 21.2534 31.3887 21.2534 31.2501C21.2534 31.1114 21.1423 30.999 21.0052 30.999C20.8681 30.999 20.757 31.1114 20.757 31.2501C20.757 31.3887 20.8681 31.5011 21.0052 31.5011Z" fill="#06555E"/>
<path d="M29.1477 33.3647H24.4781C24.2678 33.3647 24.0957 33.2095 24.0957 33.0198V30.4846C24.0957 30.2949 24.2678 30.1396 24.4781 30.1396H29.1477C29.358 30.1396 29.5301 30.2949 29.5301 30.4846V33.0198C29.5301 33.2095 29.358 33.3647 29.1477 33.3647Z" fill="white"/>
<path opacity="0.42" d="M25.8164 32.5052H27.8018C27.8715 32.5052 27.9281 32.448 27.9281 32.3819C27.9281 32.3467 27.915 32.3159 27.8932 32.2938L27.3969 31.7918C27.349 31.7433 27.2706 31.7433 27.2227 31.7918L27.0616 31.9547L26.6524 31.5407C26.6045 31.4923 26.5261 31.4923 26.4782 31.5407L25.7337 32.2938C25.6858 32.3423 25.6858 32.4215 25.7337 32.47C25.7554 32.492 25.7859 32.5052 25.8164 32.5052Z" fill="#06555E"/>
<path opacity="0.42" d="M27.4317 31.5011C27.5688 31.5011 27.6799 31.3887 27.6799 31.2501C27.6799 31.1114 27.5688 30.999 27.4317 30.999C27.2946 30.999 27.1835 31.1114 27.1835 31.2501C27.1835 31.3887 27.2946 31.5011 27.4317 31.5011Z" fill="#06555E"/>
<path d="M35.5741 33.3647H30.9046C30.6943 33.3647 30.5222 33.2095 30.5222 33.0198V30.4846C30.5222 30.2949 30.6943 30.1396 30.9046 30.1396H35.5741C35.7844 30.1396 35.9565 30.2949 35.9565 30.4846V33.0198C35.9565 33.2095 35.7844 33.3647 35.5741 33.3647Z" fill="white"/>
<path opacity="0.42" d="M32.2429 32.5052H34.2283C34.298 32.5052 34.3546 32.448 34.3546 32.3819C34.3546 32.3467 34.3415 32.3159 34.3198 32.2938L33.8234 31.7918C33.7755 31.7433 33.6971 31.7433 33.6492 31.7918L33.4882 31.9547L33.0789 31.5407C33.031 31.4923 32.9526 31.4923 32.9047 31.5407L32.1602 32.2938C32.1123 32.3423 32.1123 32.4215 32.1602 32.47C32.182 32.492 32.2124 32.5052 32.2429 32.5052Z" fill="#06555E"/>
<path opacity="0.42" d="M33.8582 31.5011C33.9953 31.5011 34.1064 31.3887 34.1064 31.2501C34.1064 31.1114 33.9953 30.999 33.8582 30.999C33.7212 30.999 33.61 31.1114 33.61 31.2501C33.61 31.3887 33.7212 31.5011 33.8582 31.5011Z" fill="#06555E"/>
<path d="M42.0007 33.3647H37.3312C37.1208 33.3647 36.9487 33.2095 36.9487 33.0198V30.4846C36.9487 30.2949 37.1208 30.1396 37.3312 30.1396H42.0007C42.211 30.1396 42.3831 30.2949 42.3831 30.4846V33.0198C42.3831 33.2095 42.211 33.3647 42.0007 33.3647Z" fill="white"/>
<path opacity="0.42" d="M38.6694 32.5052H40.6548C40.7244 32.5052 40.781 32.448 40.781 32.3819C40.781 32.3467 40.768 32.3159 40.7462 32.2938L40.2499 31.7918C40.202 31.7433 40.1236 31.7433 40.0757 31.7918L39.9146 31.9547L39.5053 31.5407C39.4574 31.4923 39.3791 31.4923 39.3312 31.5407L38.5866 32.2938C38.5387 32.3423 38.5387 32.4215 38.5866 32.47C38.6084 32.492 38.6389 32.5052 38.6694 32.5052Z" fill="#06555E"/>
<path opacity="0.42" d="M40.2846 31.5011C40.4217 31.5011 40.5328 31.3887 40.5328 31.2501C40.5328 31.1114 40.4217 30.999 40.2846 30.999C40.1476 30.999 40.0364 31.1114 40.0364 31.2501C40.0364 31.3887 40.1476 31.5011 40.2846 31.5011Z" fill="#06555E"/>
<path d="M48.4271 33.3647H43.7576C43.5472 33.3647 43.3751 33.2095 43.3751 33.0198V30.4846C43.3751 30.2949 43.5472 30.1396 43.7576 30.1396H48.4271C48.6374 30.1396 48.8095 30.2949 48.8095 30.4846V33.0198C48.8095 33.2095 48.6374 33.3647 48.4271 33.3647Z" fill="white"/>
<path opacity="0.42" d="M45.0958 32.5052H47.0812C47.1509 32.5052 47.2075 32.448 47.2075 32.3819C47.2075 32.3467 47.1944 32.3159 47.1727 32.2938L46.6763 31.7918C46.6284 31.7433 46.55 31.7433 46.5022 31.7918L46.3411 31.9547L45.9318 31.5407C45.8839 31.4923 45.8055 31.4923 45.7576 31.5407L45.0131 32.2938C44.9652 32.3423 44.9652 32.4215 45.0131 32.47C45.0349 32.492 45.0653 32.5052 45.0958 32.5052Z" fill="#06555E"/>
<path opacity="0.42" d="M46.7111 31.5011C46.8482 31.5011 46.9593 31.3887 46.9593 31.2501C46.9593 31.1114 46.8482 30.999 46.7111 30.999C46.5741 30.999 46.463 31.1114 46.463 31.2501C46.463 31.3887 46.5741 31.5011 46.7111 31.5011Z" fill="#06555E"/>
<path d="M102.509 6.68628H82.6867C82.2274 6.68628 81.8571 6.13763 81.8571 5.45731V5.10617C81.8571 4.42585 82.2274 3.8772 82.6867 3.8772H102.494C102.953 3.8772 103.324 4.42585 103.324 5.10617V5.43536C103.338 6.11569 102.968 6.68628 102.509 6.68628Z" fill="white"/>
<path d="M93.6582 13.8984H82.3311C82.0687 13.8984 81.8571 13.544 81.8571 13.1045V12.8776C81.8571 12.4382 82.0687 12.0837 82.3311 12.0837H93.6498C93.9122 12.0837 94.1238 12.4382 94.1238 12.8776V13.0903C94.1323 13.5298 93.9207 13.8984 93.6582 13.8984Z" fill="white" fill-opacity="0.9"/>
<path d="M96.9081 18.7131H82.4617C82.127 18.7131 81.8571 18.3587 81.8571 17.9192V17.6923C81.8571 17.2529 82.127 16.8984 82.4617 16.8984H96.8973C97.232 16.8984 97.5019 17.2529 97.5019 17.6923V17.905C97.5127 18.3445 97.2428 18.7131 96.9081 18.7131Z" fill="white" fill-opacity="0.9"/>
<path d="M89.5569 23.5278H82.1664C81.9951 23.5278 81.8571 23.1734 81.8571 22.7339V22.507C81.8571 22.0676 81.9951 21.7131 82.1664 21.7131H89.5514C89.7226 21.7131 89.8607 22.0676 89.8607 22.507V22.7197C89.8662 23.1592 89.7281 23.5278 89.5569 23.5278Z" fill="white" fill-opacity="0.9"/>
<path d="M92.2115 28.3425H82.273C82.0428 28.3425 81.8571 27.9881 81.8571 27.5486V27.3217C81.8571 26.8823 82.0428 26.5278 82.273 26.5278H92.2041C92.4343 26.5278 92.62 26.8823 92.62 27.3217V27.5344C92.6275 27.9739 92.4418 28.3425 92.2115 28.3425Z" fill="white" fill-opacity="0.9"/>
<path d="M88.1747 33.1572H82.1108C81.9704 33.1572 81.8571 32.8027 81.8571 32.3633V32.1364C81.8571 31.697 81.9704 31.3425 82.1108 31.3425H88.1702C88.3107 31.3425 88.424 31.697 88.424 32.1364V32.3491C88.4285 32.7886 88.3152 33.1572 88.1747 33.1572Z" fill="white" fill-opacity="0.9"/>
<path d="M150.108 6.68628H130.286C129.826 6.68628 129.456 6.13763 129.456 5.45731V5.10617C129.456 4.42585 129.826 3.8772 130.286 3.8772H150.093C150.552 3.8772 150.923 4.42585 150.923 5.10617V5.43536C150.937 6.11569 150.567 6.68628 150.108 6.68628Z" fill="white"/>
<path d="M137.757 13.8984H129.79C129.605 13.8984 129.456 13.544 129.456 13.1045V12.8776C129.456 12.4382 129.605 12.0837 129.79 12.0837H137.751C137.936 12.0837 138.085 12.4382 138.085 12.8776V13.0903C138.091 13.5298 137.942 13.8984 137.757 13.8984Z" fill="white" fill-opacity="0.9"/>
<path d="M142.732 18.7131H129.989C129.694 18.7131 129.456 18.3587 129.456 17.9192V17.6923C129.456 17.2529 129.694 16.8984 129.989 16.8984H142.723C143.018 16.8984 143.256 17.2529 143.256 17.6923V17.905C143.266 18.3445 143.028 18.7131 142.732 18.7131Z" fill="white" fill-opacity="0.9"/>
<path d="M140.227 23.5278H129.889C129.649 23.5278 129.456 23.1734 129.456 22.7339V22.507C129.456 22.0676 129.649 21.7131 129.889 21.7131H140.219C140.459 21.7131 140.652 22.0676 140.652 22.507V22.7197C140.659 23.1592 140.466 23.5278 140.227 23.5278Z" fill="white" fill-opacity="0.9"/>
<path d="M141.175 28.3425H129.927C129.666 28.3425 129.456 27.9881 129.456 27.5486V27.3217C129.456 26.8823 129.666 26.5278 129.927 26.5278H141.166C141.427 26.5278 141.637 26.8823 141.637 27.3217V27.5344C141.646 27.9739 141.435 28.3425 141.175 28.3425Z" fill="white" fill-opacity="0.9"/>
<path d="M144.967 33.1572H130.079C129.734 33.1572 129.456 32.8027 129.456 32.3633V32.1364C129.456 31.697 129.734 31.3425 130.079 31.3425H144.956C145.301 31.3425 145.579 31.697 145.579 32.1364V32.3491C145.59 32.7886 145.312 33.1572 144.967 33.1572Z" fill="white" fill-opacity="0.9"/>
<path d="M205.416 6.68628H177.167C176.513 6.68628 175.985 6.13763 175.985 5.45731V5.10617C175.985 4.42585 176.513 3.8772 177.167 3.8772H205.395C206.049 3.8772 206.577 4.42585 206.577 5.10617V5.43536C206.598 6.11569 206.07 6.68628 205.416 6.68628Z" fill="white"/>
<path d="M196.296 13.8984H176.801C176.349 13.8984 175.985 13.544 175.985 13.1045V12.8776C175.985 12.4382 176.349 12.0837 176.801 12.0837H196.281C196.733 12.0837 197.097 12.4382 197.097 12.8776V13.0903C197.112 13.5298 196.748 13.8984 196.296 13.8984Z" fill="white" fill-opacity="0.9"/>
<path d="M191.496 18.7131H176.608C176.263 18.7131 175.985 18.3587 175.985 17.9192V17.6923C175.985 17.2529 176.263 16.8984 176.608 16.8984H191.485C191.83 16.8984 192.108 17.2529 192.108 17.6923V17.905C192.119 18.3445 191.841 18.7131 191.496 18.7131Z" fill="white" fill-opacity="0.9"/>
<path d="M203.462 23.5278H177.089C176.478 23.5278 175.985 23.1734 175.985 22.7339V22.507C175.985 22.0676 176.478 21.7131 177.089 21.7131H203.442C204.053 21.7131 204.546 22.0676 204.546 22.507V22.7197C204.565 23.1592 204.073 23.5278 203.462 23.5278Z" fill="white" fill-opacity="0.9"/>
<path d="M195.156 28.3425H176.755C176.329 28.3425 175.985 27.9881 175.985 27.5486V27.3217C175.985 26.8823 176.329 26.5278 176.755 26.5278H195.142C195.569 26.5278 195.912 26.8823 195.912 27.3217V27.5344C195.926 27.9739 195.582 28.3425 195.156 28.3425Z" fill="white" fill-opacity="0.9"/>
<path d="M200.53 33.1572H176.971C176.425 33.1572 175.985 32.8027 175.985 32.3633V32.1364C175.985 31.697 176.425 31.3425 176.971 31.3425H200.513C201.058 31.3425 201.499 31.697 201.499 32.1364V32.3491C201.516 32.7886 201.076 33.1572 200.53 33.1572Z" fill="white" fill-opacity="0.9"/>
<line opacity="0.6" x1="11.3423" y1="39.5512" x2="218.656" y2="38.7427" stroke="white" stroke-width="0.2" stroke-linecap="round"/>
<rect opacity="0.8" x="11.2427" y="42.8955" width="74.9018" height="2.00488" rx="1.00244" fill="white"/>
<path d="M218.257 43.9841V43.9927L218.257 44.0014C218.26 44.0672 218.191 44.1863 218.028 44.1863H200.297C200.127 44.1863 200.055 44.0684 200.055 43.9964V43.7993C200.055 43.7272 200.127 43.6094 200.297 43.6094H218.015C218.184 43.6094 218.257 43.7272 218.257 43.7993V43.9841Z" fill="white" stroke="white"/>
<path d="M194.411 43.9841V43.9933L194.411 44.0024C194.412 44.028 194.403 44.0669 194.357 44.1086C194.31 44.1511 194.234 44.1863 194.139 44.1863H175.352C175.252 44.1863 175.174 44.1508 175.126 44.1087C175.079 44.0676 175.066 44.027 175.066 43.9964V43.7993C175.066 43.7686 175.079 43.7281 175.126 43.6869C175.174 43.6448 175.252 43.6094 175.352 43.6094H194.125C194.225 43.6094 194.303 43.6448 194.351 43.6869C194.398 43.7281 194.411 43.7686 194.411 43.7993V43.9841Z" fill="white" stroke="white"/>
<line opacity="0.8" x1="197.121" y1="42.4888" x2="197.121" y2="45.3071" stroke="white" stroke-width="0.2"/>
</svg>
