<svg width="230" height="50" viewBox="0 0 230 50" fill="none" xmlns="http://www.w3.org/2000/svg">
<rect width="230" height="49.15" transform="translate(0 0.299805)" fill="#016772" fill-opacity="0.8"/>
<path d="M192.668 47.4636H187.999C187.788 47.4636 187.616 47.3084 187.616 47.1187V44.5835C187.616 44.3937 187.788 44.2385 187.999 44.2385H192.668C192.879 44.2385 193.051 44.3937 193.051 44.5835V47.1187C193.051 47.3084 192.879 47.4636 192.668 47.4636Z" fill="white"/>
<path opacity="0.42" d="M189.337 46.6041H191.322C191.392 46.6041 191.449 46.5469 191.449 46.4808C191.449 46.4456 191.436 46.4147 191.414 46.3927L190.917 45.8906C190.87 45.8422 190.791 45.8422 190.743 45.8906L190.582 46.0536L190.173 45.6396C190.125 45.5912 190.047 45.5912 189.999 45.6396L189.254 46.3927C189.206 46.4412 189.206 46.5204 189.254 46.5689C189.276 46.5909 189.306 46.6041 189.337 46.6041Z" fill="#06555E"/>
<path opacity="0.42" d="M190.952 45.6C191.089 45.6 191.2 45.4876 191.2 45.3489C191.2 45.2103 191.089 45.0979 190.952 45.0979C190.815 45.0979 190.704 45.2103 190.704 45.3489C190.704 45.4876 190.815 45.6 190.952 45.6Z" fill="#06555E"/>
<path d="M199.095 47.4636H194.425C194.215 47.4636 194.043 47.3084 194.043 47.1187V44.5835C194.043 44.3937 194.215 44.2385 194.425 44.2385H199.095C199.305 44.2385 199.477 44.3937 199.477 44.5835V47.1187C199.477 47.3084 199.305 47.4636 199.095 47.4636Z" fill="white"/>
<path opacity="0.42" d="M195.763 46.6041H197.749C197.819 46.6041 197.875 46.5469 197.875 46.4808C197.875 46.4456 197.862 46.4147 197.84 46.3927L197.344 45.8906C197.296 45.8422 197.218 45.8422 197.17 45.8906L197.009 46.0536L196.599 45.6396C196.551 45.5912 196.473 45.5912 196.425 45.6396L195.681 46.3927C195.633 46.4412 195.633 46.5204 195.681 46.5689C195.702 46.5909 195.733 46.6041 195.763 46.6041Z" fill="#06555E"/>
<path opacity="0.42" d="M197.379 45.6C197.516 45.6 197.627 45.4876 197.627 45.3489C197.627 45.2103 197.516 45.0979 197.379 45.0979C197.242 45.0979 197.131 45.2103 197.131 45.3489C197.131 45.4876 197.242 45.6 197.379 45.6Z" fill="#06555E"/>
<path d="M205.521 47.4636H200.852C200.641 47.4636 200.469 47.3084 200.469 47.1187V44.5835C200.469 44.3937 200.641 44.2385 200.852 44.2385H205.521C205.732 44.2385 205.904 44.3937 205.904 44.5835V47.1187C205.904 47.3084 205.732 47.4636 205.521 47.4636Z" fill="white"/>
<path opacity="0.42" d="M202.19 46.6041H204.175C204.245 46.6041 204.302 46.5469 204.302 46.4808C204.302 46.4456 204.289 46.4147 204.267 46.3927L203.77 45.8906C203.723 45.8422 203.644 45.8422 203.596 45.8906L203.435 46.0536L203.026 45.6396C202.978 45.5912 202.9 45.5912 202.852 45.6396L202.107 46.3927C202.059 46.4412 202.059 46.5204 202.107 46.5689C202.129 46.5909 202.159 46.6041 202.19 46.6041Z" fill="#06555E"/>
<path opacity="0.42" d="M203.805 45.6C203.942 45.6 204.053 45.4876 204.053 45.3489C204.053 45.2103 203.942 45.0979 203.805 45.0979C203.668 45.0979 203.557 45.2103 203.557 45.3489C203.557 45.4876 203.668 45.6 203.805 45.6Z" fill="#06555E"/>
<path d="M211.948 47.4636H207.278C207.068 47.4636 206.896 47.3084 206.896 47.1187V44.5835C206.896 44.3937 207.068 44.2385 207.278 44.2385H211.948C212.158 44.2385 212.33 44.3937 212.33 44.5835V47.1187C212.33 47.3084 212.158 47.4636 211.948 47.4636Z" fill="white"/>
<path opacity="0.42" d="M208.616 46.6041H210.602C210.672 46.6041 210.728 46.5469 210.728 46.4808C210.728 46.4456 210.715 46.4147 210.693 46.3927L210.197 45.8906C210.149 45.8422 210.071 45.8422 210.023 45.8906L209.862 46.0536L209.452 45.6396C209.405 45.5912 209.326 45.5912 209.278 45.6396L208.534 46.3927C208.486 46.4412 208.486 46.5204 208.534 46.5689C208.555 46.5909 208.586 46.6041 208.616 46.6041Z" fill="#06555E"/>
<path opacity="0.42" d="M210.232 45.6C210.369 45.6 210.48 45.4876 210.48 45.3489C210.48 45.2103 210.369 45.0979 210.232 45.0979C210.095 45.0979 209.984 45.2103 209.984 45.3489C209.984 45.4876 210.095 45.6 210.232 45.6Z" fill="#06555E"/>
<path d="M218.374 47.4636H213.705C213.494 47.4636 213.322 47.3084 213.322 47.1187V44.5835C213.322 44.3937 213.494 44.2385 213.705 44.2385H218.374C218.585 44.2385 218.757 44.3937 218.757 44.5835V47.1187C218.757 47.3084 218.585 47.4636 218.374 47.4636Z" fill="white"/>
<path opacity="0.42" d="M215.043 46.6041H217.028C217.098 46.6041 217.155 46.5469 217.155 46.4808C217.155 46.4456 217.142 46.4147 217.12 46.3927L216.623 45.8906C216.576 45.8422 216.497 45.8422 216.449 45.8906L216.288 46.0536L215.879 45.6396C215.831 45.5912 215.753 45.5912 215.705 45.6396L214.96 46.3927C214.912 46.4412 214.912 46.5204 214.96 46.5689C214.982 46.5909 215.012 46.6041 215.043 46.6041Z" fill="#06555E"/>
<path opacity="0.42" d="M216.658 45.6C216.795 45.6 216.906 45.4876 216.906 45.3489C216.906 45.2103 216.795 45.0979 216.658 45.0979C216.521 45.0979 216.41 45.2103 216.41 45.3489C216.41 45.4876 216.521 45.6 216.658 45.6Z" fill="#06555E"/>
<path d="M97.3853 4.80656H72.4542C71.8765 4.80656 71.4107 4.31109 71.4107 3.69672V3.37962C71.4107 2.76524 71.8765 2.26978 72.4542 2.26978H97.3667C97.9443 2.26978 98.4102 2.76524 98.4102 3.37962V3.6769C98.4288 4.29127 97.963 4.80656 97.3853 4.80656Z" fill="white"/>
<path d="M83.1468 9.15461H71.8822C71.6212 9.15461 71.4107 8.83454 71.4107 8.43766V8.23282C71.4107 7.83594 71.6212 7.51587 71.8822 7.51587H83.1384C83.3994 7.51587 83.6099 7.83594 83.6099 8.23282V8.42486C83.6183 8.82174 83.4078 9.15461 83.1468 9.15461Z" fill="white" fill-opacity="0.9"/>
<path d="M84.6324 13.0508H71.9418C71.6478 13.0508 71.4107 12.7308 71.4107 12.3339V12.1291C71.4107 11.7322 71.6478 11.4121 71.9418 11.4121H84.6229C84.9169 11.4121 85.154 11.7322 85.154 12.1291V12.3211C85.1635 12.718 84.9264 13.0508 84.6324 13.0508Z" fill="white" fill-opacity="0.9"/>
<path d="M77.6936 16.9473H71.6631C71.5234 16.9473 71.4107 16.6273 71.4107 16.2304V16.0255C71.4107 15.6287 71.5234 15.3086 71.6631 15.3086H77.6891C77.8288 15.3086 77.9415 15.6287 77.9415 16.0255V16.2176C77.946 16.6145 77.8333 16.9473 77.6936 16.9473Z" fill="white" fill-opacity="0.9"/>
<path d="M85.8603 20.8438H71.9912C71.6698 20.8438 71.4107 20.5237 71.4107 20.1269V19.922C71.4107 19.5251 71.6698 19.2051 71.9912 19.2051H85.85C86.1713 19.2051 86.4304 19.5251 86.4304 19.922V20.1141C86.4408 20.5109 86.1817 20.8438 85.8603 20.8438Z" fill="white" fill-opacity="0.9"/>
<path d="M84.6324 24.7403H71.9418C71.6478 24.7403 71.4107 24.4202 71.4107 24.0234V23.8185C71.4107 23.4216 71.6478 23.1016 71.9418 23.1016H84.6229C84.9169 23.1016 85.154 23.4216 85.154 23.8185V24.0105C85.1635 24.4074 84.9264 24.7403 84.6324 24.7403Z" fill="white" fill-opacity="0.9"/>
<path d="M82.1765 28.6368H71.8432C71.6038 28.6368 71.4107 28.3167 71.4107 27.9198V27.715C71.4107 27.3181 71.6038 26.998 71.8432 26.998H82.1688C82.4082 26.998 82.6013 27.3181 82.6013 27.715V27.907C82.609 28.3039 82.4159 28.6368 82.1765 28.6368Z" fill="white" fill-opacity="0.9"/>
<path d="M136.385 4.80656H111.454C110.877 4.80656 110.411 4.31109 110.411 3.69672V3.37962C110.411 2.76524 110.877 2.26978 111.454 2.26978H136.367C136.944 2.26978 137.41 2.76524 137.41 3.37962V3.6769C137.429 4.29127 136.963 4.80656 136.385 4.80656Z" fill="white"/>
<path d="M122.147 9.15461H110.882C110.621 9.15461 110.411 8.83454 110.411 8.43766V8.23282C110.411 7.83594 110.621 7.51587 110.882 7.51587H122.138C122.399 7.51587 122.61 7.83594 122.61 8.23282V8.42486C122.618 8.82174 122.408 9.15461 122.147 9.15461Z" fill="white" fill-opacity="0.9"/>
<path d="M123.632 13.0508H110.942C110.648 13.0508 110.411 12.7308 110.411 12.3339V12.1291C110.411 11.7322 110.648 11.4121 110.942 11.4121H123.623C123.917 11.4121 124.154 11.7322 124.154 12.1291V12.3211C124.164 12.718 123.926 13.0508 123.632 13.0508Z" fill="white" fill-opacity="0.9"/>
<path d="M116.694 16.9473H110.663C110.523 16.9473 110.411 16.6273 110.411 16.2304V16.0255C110.411 15.6287 110.523 15.3086 110.663 15.3086H116.689C116.829 15.3086 116.941 15.6287 116.941 16.0255V16.2176C116.946 16.6145 116.833 16.9473 116.694 16.9473Z" fill="white" fill-opacity="0.9"/>
<path d="M124.86 20.8438H110.991C110.67 20.8438 110.411 20.5237 110.411 20.1269V19.922C110.411 19.5251 110.67 19.2051 110.991 19.2051H124.85C125.171 19.2051 125.43 19.5251 125.43 19.922V20.1141C125.441 20.5109 125.182 20.8438 124.86 20.8438Z" fill="white" fill-opacity="0.9"/>
<path d="M123.632 24.7403H110.942C110.648 24.7403 110.411 24.4202 110.411 24.0234V23.8185C110.411 23.4216 110.648 23.1016 110.942 23.1016H123.623C123.917 23.1016 124.154 23.4216 124.154 23.8185V24.0105C124.164 24.4074 123.926 24.7403 123.632 24.7403Z" fill="white" fill-opacity="0.9"/>
<path d="M121.177 28.6368H110.843C110.604 28.6368 110.411 28.3167 110.411 27.9198V27.715C110.411 27.3181 110.604 26.998 110.843 26.998H121.169C121.408 26.998 121.601 27.3181 121.601 27.715V27.907C121.609 28.3039 121.416 28.6368 121.177 28.6368Z" fill="white" fill-opacity="0.9"/>
<path d="M175.385 4.80656H150.454C149.877 4.80656 149.411 4.31109 149.411 3.69672V3.37962C149.411 2.76524 149.877 2.26978 150.454 2.26978H175.367C175.944 2.26978 176.41 2.76524 176.41 3.37962V3.6769C176.429 4.29127 175.963 4.80656 175.385 4.80656Z" fill="white"/>
<path d="M161.147 9.15461H149.882C149.621 9.15461 149.411 8.83454 149.411 8.43766V8.23282C149.411 7.83594 149.621 7.51587 149.882 7.51587H161.138C161.399 7.51587 161.61 7.83594 161.61 8.23282V8.42486C161.618 8.82174 161.408 9.15461 161.147 9.15461Z" fill="white" fill-opacity="0.9"/>
<path d="M162.632 13.0508H149.942C149.648 13.0508 149.411 12.7308 149.411 12.3339V12.1291C149.411 11.7322 149.648 11.4121 149.942 11.4121H162.623C162.917 11.4121 163.154 11.7322 163.154 12.1291V12.3211C163.164 12.718 162.926 13.0508 162.632 13.0508Z" fill="white" fill-opacity="0.9"/>
<path d="M155.694 16.9473H149.663C149.523 16.9473 149.411 16.6273 149.411 16.2304V16.0255C149.411 15.6287 149.523 15.3086 149.663 15.3086H155.689C155.829 15.3086 155.941 15.6287 155.941 16.0255V16.2176C155.946 16.6145 155.833 16.9473 155.694 16.9473Z" fill="white" fill-opacity="0.9"/>
<path d="M163.86 20.8438H149.991C149.67 20.8438 149.411 20.5237 149.411 20.1269V19.922C149.411 19.5251 149.67 19.2051 149.991 19.2051H163.85C164.171 19.2051 164.43 19.5251 164.43 19.922V20.1141C164.441 20.5109 164.182 20.8438 163.86 20.8438Z" fill="white" fill-opacity="0.9"/>
<path d="M162.632 24.7403H149.942C149.648 24.7403 149.411 24.4202 149.411 24.0234V23.8185C149.411 23.4216 149.648 23.1016 149.942 23.1016H162.623C162.917 23.1016 163.154 23.4216 163.154 23.8185V24.0105C163.164 24.4074 162.926 24.7403 162.632 24.7403Z" fill="white" fill-opacity="0.9"/>
<path d="M160.177 28.6368H149.843C149.604 28.6368 149.411 28.3167 149.411 27.9198V27.715C149.411 27.3181 149.604 26.998 149.843 26.998H160.169C160.408 26.998 160.601 27.3181 160.601 27.715V27.907C160.609 28.3039 160.416 28.6368 160.177 28.6368Z" fill="white" fill-opacity="0.9"/>
<path d="M214.385 4.80656H189.454C188.877 4.80656 188.411 4.31109 188.411 3.69672V3.37962C188.411 2.76524 188.877 2.26978 189.454 2.26978H214.367C214.944 2.26978 215.41 2.76524 215.41 3.37962V3.6769C215.429 4.29127 214.963 4.80656 214.385 4.80656Z" fill="white"/>
<path d="M200.147 9.15461H188.882C188.621 9.15461 188.411 8.83454 188.411 8.43766V8.23282C188.411 7.83594 188.621 7.51587 188.882 7.51587H200.138C200.399 7.51587 200.61 7.83594 200.61 8.23282V8.42486C200.618 8.82174 200.408 9.15461 200.147 9.15461Z" fill="white" fill-opacity="0.9"/>
<path d="M201.632 13.0508H188.942C188.648 13.0508 188.411 12.7308 188.411 12.3339V12.1291C188.411 11.7322 188.648 11.4121 188.942 11.4121H201.623C201.917 11.4121 202.154 11.7322 202.154 12.1291V12.3211C202.164 12.718 201.926 13.0508 201.632 13.0508Z" fill="white" fill-opacity="0.9"/>
<path d="M194.694 16.9473H188.663C188.523 16.9473 188.411 16.6273 188.411 16.2304V16.0255C188.411 15.6287 188.523 15.3086 188.663 15.3086H194.689C194.829 15.3086 194.941 15.6287 194.941 16.0255V16.2176C194.946 16.6145 194.833 16.9473 194.694 16.9473Z" fill="white" fill-opacity="0.9"/>
<path d="M202.86 20.8438H188.991C188.67 20.8438 188.411 20.5237 188.411 20.1269V19.922C188.411 19.5251 188.67 19.2051 188.991 19.2051H202.85C203.171 19.2051 203.43 19.5251 203.43 19.922V20.1141C203.441 20.5109 203.182 20.8438 202.86 20.8438Z" fill="white" fill-opacity="0.9"/>
<path d="M201.632 24.7403H188.942C188.648 24.7403 188.411 24.4202 188.411 24.0234V23.8185C188.411 23.4216 188.648 23.1016 188.942 23.1016H201.623C201.917 23.1016 202.154 23.4216 202.154 23.8185V24.0105C202.164 24.4074 201.926 24.7403 201.632 24.7403Z" fill="white" fill-opacity="0.9"/>
<path d="M199.177 28.6368H188.843C188.604 28.6368 188.411 28.3167 188.411 27.9198V27.715C188.411 27.3181 188.604 26.998 188.843 26.998H199.169C199.408 26.998 199.601 27.3181 199.601 27.715V27.907C199.609 28.3039 199.416 28.6368 199.177 28.6368Z" fill="white" fill-opacity="0.9"/>
<rect opacity="0.8" x="11.2427" y="44.8486" width="74.9018" height="2.00488" rx="1.00244" fill="white"/>
<path d="M57.5815 12.2911H13.1042C12.0737 12.2911 11.2427 11.9118 11.2427 11.4416V11.1989C11.2427 10.7286 12.0737 10.3494 13.1042 10.3494H57.5482C58.5787 10.3494 59.4097 10.7286 59.4097 11.1989V11.4264C59.443 11.8967 58.6119 12.2911 57.5815 12.2911Z" fill="white" fill-opacity="0.81"/>
<path d="M47.7074 15.239H12.7075C11.8966 15.239 11.2427 14.8543 11.2427 14.3773V14.131C11.2427 13.654 11.8966 13.2693 12.7075 13.2693H47.6813C48.4922 13.2693 49.1462 13.654 49.1462 14.131V14.3619C49.1723 14.8389 48.5184 15.239 47.7074 15.239Z" fill="white" fill-opacity="0.81"/>
<path d="M50.1167 7.64017H12.8043C11.9398 7.64017 11.2427 7.21779 11.2427 6.69402V6.42369C11.2427 5.89993 11.9398 5.47754 12.8043 5.47754H50.0888C50.9533 5.47754 51.6504 5.89993 51.6504 6.42369V6.67713C51.6783 7.20089 50.9812 7.64017 50.1167 7.64017Z" fill="white"/>
<path d="M25.1157 4.12286H11.8C11.4915 4.12286 11.2427 3.76093 11.2427 3.31214V3.0805C11.2427 2.63171 11.4915 2.26978 11.8 2.26978H25.1058C25.4143 2.26978 25.6631 2.63171 25.6631 3.0805V3.29766C25.6731 3.74646 25.4243 4.12286 25.1157 4.12286Z" fill="white"/>
<path d="M50.1167 20.0036H12.8043C11.9398 20.0036 11.2427 19.6022 11.2427 19.1044V18.8475C11.2427 18.3497 11.9398 17.9482 12.8043 17.9482H50.0888C50.9533 17.9482 51.6504 18.3497 51.6504 18.8475V19.0883C51.6783 19.5861 50.9812 20.0036 50.1167 20.0036Z" fill="white" fill-opacity="0.8"/>
<path d="M38.6883 23.8649H12.3452C11.7349 23.8649 11.2427 23.4635 11.2427 22.9657V22.7088C11.2427 22.211 11.7349 21.8096 12.3452 21.8096H38.6686C39.2789 21.8096 39.7712 22.211 39.7712 22.7088V22.9497C39.7908 23.4474 39.2986 23.8649 38.6883 23.8649Z" fill="white" fill-opacity="0.8"/>
<path d="M22.4628 27.522H11.6934C11.4439 27.522 11.2427 27.2951 11.2427 27.0138V26.8686C11.2427 26.5872 11.4439 26.3604 11.6934 26.3604H22.4547C22.7042 26.3604 22.9055 26.5872 22.9055 26.8686V27.0047C22.9135 27.2861 22.7123 27.522 22.4628 27.522Z" fill="white" fill-opacity="0.8"/>
<ellipse cx="25.9966" cy="26.937" rx="1.40206" ry="1.26615" fill="#D9D9D9"/>
<path opacity="0.42" d="M25.2436 27.4988H26.7439C26.7965 27.4988 26.8393 27.4561 26.8393 27.4069C26.8393 27.3806 26.8294 27.3576 26.813 27.3412L26.4379 26.9669C26.4017 26.9308 26.3425 26.9308 26.3063 26.9669L26.1846 27.0884L25.8753 26.7798C25.8391 26.7437 25.7799 26.7437 25.7437 26.7798L25.1811 27.3412C25.1449 27.3773 25.1449 27.4364 25.1811 27.4725C25.1976 27.489 25.2206 27.4988 25.2436 27.4988Z" fill="#06555E"/>
<path opacity="0.42" d="M26.4643 26.75C26.5678 26.75 26.6518 26.6662 26.6518 26.5629C26.6518 26.4595 26.5678 26.3757 26.4643 26.3757C26.3607 26.3757 26.2767 26.4595 26.2767 26.5629C26.2767 26.6662 26.3607 26.75 26.4643 26.75Z" fill="#06555E"/>
<ellipse cx="29.2681" cy="26.9456" rx="1.40206" ry="1.26615" fill="#D9D9D9"/>
<path opacity="0.42" d="M28.5151 27.5069H30.0154C30.068 27.5069 30.1108 27.4642 30.1108 27.4149C30.1108 27.3887 30.1009 27.3657 30.0845 27.3493L29.7094 26.975C29.6732 26.9389 29.614 26.9389 29.5778 26.975L29.4561 27.0965L29.1468 26.7878C29.1106 26.7517 29.0514 26.7517 29.0152 26.7878L28.4526 27.3493C28.4164 27.3854 28.4164 27.4445 28.4526 27.4806C28.4691 27.497 28.4921 27.5069 28.5151 27.5069Z" fill="#06555E"/>
<path opacity="0.42" d="M29.7357 26.7586C29.8393 26.7586 29.9233 26.6748 29.9233 26.5714C29.9233 26.4681 29.8393 26.3843 29.7357 26.3843C29.6322 26.3843 29.5482 26.4681 29.5482 26.5714C29.5482 26.6748 29.6322 26.7586 29.7357 26.7586Z" fill="#06555E"/>
<ellipse cx="32.5396" cy="26.937" rx="1.40206" ry="1.26615" fill="#D9D9D9"/>
<path opacity="0.42" d="M31.7866 27.4988H33.2868C33.3394 27.4988 33.3822 27.4561 33.3822 27.4069C33.3822 27.3806 33.3723 27.3576 33.3559 27.3412L32.9808 26.9669C32.9446 26.9308 32.8854 26.9308 32.8492 26.9669L32.7275 27.0884L32.4182 26.7798C32.382 26.7437 32.3228 26.7437 32.2866 26.7798L31.724 27.3412C31.6879 27.3773 31.6879 27.4364 31.724 27.4725C31.7405 27.489 31.7635 27.4988 31.7866 27.4988Z" fill="#06555E"/>
<path opacity="0.42" d="M33.0072 26.75C33.1107 26.75 33.1947 26.6662 33.1947 26.5629C33.1947 26.4595 33.1107 26.3757 33.0072 26.3757C32.9036 26.3757 32.8196 26.4595 32.8196 26.5629C32.8196 26.6662 32.9036 26.75 33.0072 26.75Z" fill="#06555E"/>
<ellipse cx="35.811" cy="26.9456" rx="1.40206" ry="1.26615" fill="#D9D9D9"/>
<path opacity="0.42" d="M35.058 27.5069H36.5583C36.6109 27.5069 36.6537 27.4642 36.6537 27.4149C36.6537 27.3887 36.6438 27.3657 36.6274 27.3493L36.2523 26.975C36.2161 26.9389 36.1569 26.9389 36.1207 26.975L35.999 27.0965L35.6897 26.7878C35.6535 26.7517 35.5943 26.7517 35.5581 26.7878L34.9955 27.3493C34.9593 27.3854 34.9593 27.4445 34.9955 27.4806C35.012 27.497 35.035 27.5069 35.058 27.5069Z" fill="#06555E"/>
<path opacity="0.42" d="M36.2787 26.7586C36.3822 26.7586 36.4662 26.6748 36.4662 26.5714C36.4662 26.4681 36.3822 26.3843 36.2787 26.3843C36.1751 26.3843 36.0911 26.4681 36.0911 26.5714C36.0911 26.6748 36.1751 26.7586 36.2787 26.7586Z" fill="#06555E"/>
<path d="M11.2427 32.4917H218.757V41.4324H11.2427V32.4917Z" fill="#06555E" stroke="white" stroke-opacity="0.8" stroke-width="0.1"/>
<rect x="149.743" y="34.7843" width="60.2833" height="4.35518" stroke="white" stroke-width="0.2"/>
<rect x="194.209" y="34.6846" width="15.9173" height="4.55518" fill="#D9D9D9"/>
<rect width="69.1456" height="1.97004" rx="0.985019" transform="matrix(1 0 0 -1 65.7953 36.6543)" fill="#D9D9D9"/>
<rect width="48.2413" height="1.97004" rx="0.985019" transform="matrix(1 0 0 -1 65.7953 39.2395)" fill="#D9D9D9"/>
<rect x="28.4872" y="35.0979" width="27.3229" height="1.56615" rx="0.783075" fill="#D9D9D9"/>
<rect x="28.4872" y="37.2603" width="25.7415" height="1.56615" rx="0.783075" fill="#D9D9D9"/>
<path d="M26.0046 39.2395H20.076C19.809 39.2395 19.5905 39.0203 19.5905 38.7523V35.1715C19.5905 34.9036 19.809 34.6843 20.076 34.6843H26.0046C26.2717 34.6843 26.4902 34.9036 26.4902 35.1715V38.7523C26.4902 39.0203 26.2717 39.2395 26.0046 39.2395Z" fill="white"/>
<path opacity="0.42" d="M21.7752 38.0254H24.2959C24.3844 38.0254 24.4562 37.9445 24.4562 37.8512C24.4562 37.8015 24.4397 37.7579 24.412 37.7268L23.7818 37.0177C23.721 36.9493 23.6215 36.9493 23.5607 37.0177L23.3562 37.2479L22.8365 36.6631C22.7757 36.5947 22.6762 36.5947 22.6154 36.6631L21.6701 37.7268C21.6093 37.7953 21.6093 37.9072 21.6701 37.9756C21.6978 38.0067 21.7365 38.0254 21.7752 38.0254Z" fill="#06555E"/>
<path opacity="0.42" d="M23.8258 36.6076C23.9997 36.6076 24.1406 36.4488 24.1406 36.253C24.1406 36.0572 23.9997 35.8984 23.8258 35.8984C23.6519 35.8984 23.5109 36.0572 23.5109 36.253C23.5109 36.4488 23.6519 36.6076 23.8258 36.6076Z" fill="#06555E"/>
<line x1="60.9027" y1="33.8757" x2="60.9027" y2="40.0482" stroke="white" stroke-opacity="0.8" stroke-width="0.2"/>
</svg>
