<svg width="230" height="50" viewBox="0 0 230 50" fill="none" xmlns="http://www.w3.org/2000/svg">
<rect width="230" height="49.15" fill="#016772" fill-opacity="0.8"/>
<path d="M192.668 44.8345H187.999C187.788 44.8345 187.616 44.6793 187.616 44.4895V41.9543C187.616 41.7646 187.788 41.6094 187.999 41.6094H192.668C192.879 41.6094 193.051 41.7646 193.051 41.9543V44.4895C193.051 44.6793 192.879 44.8345 192.668 44.8345Z" fill="white"/>
<path opacity="0.42" d="M189.337 43.975H191.322C191.392 43.975 191.449 43.9177 191.449 43.8516C191.449 43.8164 191.436 43.7856 191.414 43.7636L190.917 43.2615C190.87 43.213 190.791 43.213 190.743 43.2615L190.582 43.4244L190.173 43.0105C190.125 42.962 190.047 42.962 189.999 43.0105L189.254 43.7636C189.206 43.812 189.206 43.8913 189.254 43.9397C189.276 43.9617 189.306 43.975 189.337 43.975Z" fill="#06555E"/>
<path opacity="0.42" d="M190.952 42.9708C191.089 42.9708 191.2 42.8584 191.2 42.7198C191.2 42.5811 191.089 42.4688 190.952 42.4688C190.815 42.4688 190.704 42.5811 190.704 42.7198C190.704 42.8584 190.815 42.9708 190.952 42.9708Z" fill="#06555E"/>
<path d="M199.095 44.8345H194.425C194.215 44.8345 194.043 44.6793 194.043 44.4895V41.9543C194.043 41.7646 194.215 41.6094 194.425 41.6094H199.095C199.305 41.6094 199.477 41.7646 199.477 41.9543V44.4895C199.477 44.6793 199.305 44.8345 199.095 44.8345Z" fill="white"/>
<path opacity="0.42" d="M195.763 43.975H197.749C197.819 43.975 197.875 43.9177 197.875 43.8516C197.875 43.8164 197.862 43.7856 197.84 43.7636L197.344 43.2615C197.296 43.213 197.218 43.213 197.17 43.2615L197.009 43.4244L196.599 43.0105C196.551 42.962 196.473 42.962 196.425 43.0105L195.681 43.7636C195.633 43.812 195.633 43.8913 195.681 43.9397C195.702 43.9617 195.733 43.975 195.763 43.975Z" fill="#06555E"/>
<path opacity="0.42" d="M197.379 42.9708C197.516 42.9708 197.627 42.8584 197.627 42.7198C197.627 42.5811 197.516 42.4688 197.379 42.4688C197.242 42.4688 197.131 42.5811 197.131 42.7198C197.131 42.8584 197.242 42.9708 197.379 42.9708Z" fill="#06555E"/>
<path d="M205.521 44.8345H200.852C200.641 44.8345 200.469 44.6793 200.469 44.4895V41.9543C200.469 41.7646 200.641 41.6094 200.852 41.6094H205.521C205.732 41.6094 205.904 41.7646 205.904 41.9543V44.4895C205.904 44.6793 205.732 44.8345 205.521 44.8345Z" fill="white"/>
<path opacity="0.42" d="M202.19 43.975H204.175C204.245 43.975 204.302 43.9177 204.302 43.8516C204.302 43.8164 204.289 43.7856 204.267 43.7636L203.77 43.2615C203.723 43.213 203.644 43.213 203.596 43.2615L203.435 43.4244L203.026 43.0105C202.978 42.962 202.9 42.962 202.852 43.0105L202.107 43.7636C202.059 43.812 202.059 43.8913 202.107 43.9397C202.129 43.9617 202.159 43.975 202.19 43.975Z" fill="#06555E"/>
<path opacity="0.42" d="M203.805 42.9708C203.942 42.9708 204.053 42.8584 204.053 42.7198C204.053 42.5811 203.942 42.4688 203.805 42.4688C203.668 42.4688 203.557 42.5811 203.557 42.7198C203.557 42.8584 203.668 42.9708 203.805 42.9708Z" fill="#06555E"/>
<path d="M211.948 44.8345H207.278C207.068 44.8345 206.896 44.6793 206.896 44.4895V41.9543C206.896 41.7646 207.068 41.6094 207.278 41.6094H211.948C212.158 41.6094 212.33 41.7646 212.33 41.9543V44.4895C212.33 44.6793 212.158 44.8345 211.948 44.8345Z" fill="white"/>
<path opacity="0.42" d="M208.616 43.975H210.602C210.672 43.975 210.728 43.9177 210.728 43.8516C210.728 43.8164 210.715 43.7856 210.693 43.7636L210.197 43.2615C210.149 43.213 210.071 43.213 210.023 43.2615L209.862 43.4244L209.452 43.0105C209.405 42.962 209.326 42.962 209.278 43.0105L208.534 43.7636C208.486 43.812 208.486 43.8913 208.534 43.9397C208.555 43.9617 208.586 43.975 208.616 43.975Z" fill="#06555E"/>
<path opacity="0.42" d="M210.232 42.9708C210.369 42.9708 210.48 42.8584 210.48 42.7198C210.48 42.5811 210.369 42.4688 210.232 42.4688C210.095 42.4688 209.984 42.5811 209.984 42.7198C209.984 42.8584 210.095 42.9708 210.232 42.9708Z" fill="#06555E"/>
<path d="M218.374 44.8345H213.705C213.494 44.8345 213.322 44.6793 213.322 44.4895V41.9543C213.322 41.7646 213.494 41.6094 213.705 41.6094H218.374C218.585 41.6094 218.757 41.7646 218.757 41.9543V44.4895C218.757 44.6793 218.585 44.8345 218.374 44.8345Z" fill="white"/>
<path opacity="0.42" d="M215.043 43.975H217.028C217.098 43.975 217.155 43.9177 217.155 43.8516C217.155 43.8164 217.142 43.7856 217.12 43.7636L216.623 43.2615C216.576 43.213 216.497 43.213 216.449 43.2615L216.288 43.4244L215.879 43.0105C215.831 42.962 215.753 42.962 215.705 43.0105L214.96 43.7636C214.912 43.812 214.912 43.8913 214.96 43.9397C214.982 43.9617 215.012 43.975 215.043 43.975Z" fill="#06555E"/>
<path opacity="0.42" d="M216.658 42.9708C216.795 42.9708 216.906 42.8584 216.906 42.7198C216.906 42.5811 216.795 42.4688 216.658 42.4688C216.521 42.4688 216.41 42.5811 216.41 42.7198C216.41 42.8584 216.521 42.9708 216.658 42.9708Z" fill="#06555E"/>
<path d="M37.4962 6.02004H12.2977C11.7139 6.02004 11.243 5.51879 11.243 4.89723V4.57643C11.243 3.95487 11.7139 3.45361 12.2977 3.45361H37.4774C38.0612 3.45361 38.532 3.95487 38.532 4.57643V4.87718C38.5509 5.49874 38.08 6.02004 37.4962 6.02004Z" fill="white"/>
<path d="M23.105 12.1066H11.7196C11.4558 12.1066 11.243 11.7828 11.243 11.3813V11.1741C11.243 10.7725 11.4558 10.4487 11.7196 10.4487H23.0965C23.3603 10.4487 23.573 10.7725 23.573 11.1741V11.3683C23.5816 11.7699 23.3688 12.1066 23.105 12.1066Z" fill="white" fill-opacity="0.9"/>
<path d="M24.6065 16.049H11.7799C11.4827 16.049 11.243 15.7252 11.243 15.3237V15.1164C11.243 14.7149 11.4827 14.3911 11.7799 14.3911H24.5969C24.8941 14.3911 25.1337 14.7149 25.1337 15.1164V15.3107C25.1433 15.7122 24.9037 16.049 24.6065 16.049Z" fill="white" fill-opacity="0.9"/>
<path d="M17.5933 19.9909H11.4981C11.3569 19.9909 11.243 19.6671 11.243 19.2656V19.0583C11.243 18.6568 11.3569 18.333 11.4981 18.333H17.5887C17.7299 18.333 17.8438 18.6568 17.8438 19.0583V19.2526C17.8484 19.6541 17.7345 19.9909 17.5933 19.9909Z" fill="white" fill-opacity="0.9"/>
<path d="M25.8476 23.9323H11.8297C11.505 23.9323 11.243 23.6085 11.243 23.207V22.9997C11.243 22.5982 11.505 22.2744 11.8297 22.2744H25.8371C26.1619 22.2744 26.4238 22.5982 26.4238 22.9997V23.194C26.4343 23.5955 26.1724 23.9323 25.8476 23.9323Z" fill="white" fill-opacity="0.9"/>
<path d="M24.6065 27.8747H11.7799C11.4827 27.8747 11.243 27.5509 11.243 27.1494V26.9421C11.243 26.5406 11.4827 26.2168 11.7799 26.2168H24.5969C24.8941 26.2168 25.1337 26.5406 25.1337 26.9421V27.1364C25.1433 27.5379 24.9037 27.8747 24.6065 27.8747Z" fill="white" fill-opacity="0.9"/>
<path d="M24.6065 31.8166H11.7799C11.4827 31.8166 11.243 31.4928 11.243 31.0913V30.884C11.243 30.4825 11.4827 30.1587 11.7799 30.1587H24.5969C24.8941 30.1587 25.1337 30.4825 25.1337 30.884V31.0783C25.1433 31.4798 24.9037 31.8166 24.6065 31.8166Z" fill="white" fill-opacity="0.9"/>
<path d="M24.6065 35.7585H11.7799C11.4827 35.7585 11.243 35.4347 11.243 35.0332V34.8259C11.243 34.4244 11.4827 34.1006 11.7799 34.1006H24.5969C24.8941 34.1006 25.1337 34.4244 25.1337 34.8259V35.0202C25.1433 35.4217 24.9037 35.7585 24.6065 35.7585Z" fill="white" fill-opacity="0.9"/>
<path d="M84.6345 6.02004H59.436C58.8522 6.02004 58.3813 5.51879 58.3813 4.89723V4.57643C58.3813 3.95487 58.8522 3.45361 59.436 3.45361H84.6157C85.1995 3.45361 85.6703 3.95487 85.6703 4.57643V4.87718C85.6892 5.49874 85.2184 6.02004 84.6345 6.02004Z" fill="white"/>
<path d="M70.2433 11.5695H58.8579C58.5941 11.5695 58.3813 11.2457 58.3813 10.8442V10.6369C58.3813 10.2354 58.5941 9.91162 58.8579 9.91162H70.2348C70.4986 9.91162 70.7113 10.2354 70.7113 10.6369V10.8312C70.7199 11.2328 70.5071 11.5695 70.2433 11.5695Z" fill="white" fill-opacity="0.9"/>
<path d="M71.7448 15.5119H58.9182C58.621 15.5119 58.3813 15.1881 58.3813 14.7866V14.5793C58.3813 14.1778 58.621 13.854 58.9182 13.854H71.7352C72.0324 13.854 72.272 14.1778 72.272 14.5793V14.7736C72.2816 15.1751 72.042 15.5119 71.7448 15.5119Z" fill="white" fill-opacity="0.9"/>
<path d="M64.7316 19.4538H58.6365C58.4952 19.4538 58.3813 19.13 58.3813 18.7285V18.5212C58.3813 18.1197 58.4952 17.7959 58.6365 17.7959H64.727C64.8683 17.7959 64.9821 18.1197 64.9821 18.5212V18.7155C64.9867 19.117 64.8728 19.4538 64.7316 19.4538Z" fill="white" fill-opacity="0.9"/>
<path d="M72.9859 23.3952H58.968C58.6433 23.3952 58.3813 23.0714 58.3813 22.6699V22.4626C58.3813 22.0611 58.6433 21.7373 58.968 21.7373H72.9754C73.3002 21.7373 73.5621 22.0611 73.5621 22.4626V22.6569C73.5726 23.0584 73.3107 23.3952 72.9859 23.3952Z" fill="white" fill-opacity="0.9"/>
<path d="M136.774 6.02004H111.576C110.992 6.02004 110.521 5.51879 110.521 4.89723V4.57643C110.521 3.95487 110.992 3.45361 111.576 3.45361H136.755C137.339 3.45361 137.81 3.95487 137.81 4.57643V4.87718C137.829 5.49874 137.358 6.02004 136.774 6.02004Z" fill="white"/>
<path d="M122.383 11.7927H110.998C110.734 11.7927 110.521 11.4689 110.521 11.0673V10.8601C110.521 10.4586 110.734 10.1348 110.998 10.1348H122.375C122.638 10.1348 122.851 10.4586 122.851 10.8601V11.0544C122.86 11.4559 122.647 11.7927 122.383 11.7927Z" fill="white" fill-opacity="0.9"/>
<path d="M123.885 15.735H111.058C110.761 15.735 110.521 15.4112 110.521 15.0097V14.8025C110.521 14.401 110.761 14.0771 111.058 14.0771H123.875C124.172 14.0771 124.412 14.401 124.412 14.8025V14.9968C124.421 15.3983 124.182 15.735 123.885 15.735Z" fill="white" fill-opacity="0.9"/>
<path d="M116.871 19.6769H110.776C110.635 19.6769 110.521 19.3531 110.521 18.9516V18.7444C110.521 18.3429 110.635 18.019 110.776 18.019H116.867C117.008 18.019 117.122 18.3429 117.122 18.7444V18.9387C117.126 19.3402 117.013 19.6769 116.871 19.6769Z" fill="white" fill-opacity="0.9"/>
<path d="M125.126 23.6183H111.108C110.783 23.6183 110.521 23.2945 110.521 22.893V22.6858C110.521 22.2843 110.783 21.9604 111.108 21.9604H125.115C125.44 21.9604 125.702 22.2843 125.702 22.6858V22.8801C125.712 23.2816 125.45 23.6183 125.126 23.6183Z" fill="white" fill-opacity="0.9"/>
<line opacity="0.6" x1="11.3427" y1="39.5686" x2="218.657" y2="38.76" stroke="white" stroke-width="0.2" stroke-linecap="round"/>
<line opacity="0.6" x1="51.8098" y1="39.3678" x2="51.8098" y2="2.63777" stroke="white" stroke-width="0.2" stroke-linecap="round"/>
<line opacity="0.6" x1="103.577" y1="39.3678" x2="103.577" y2="2.63777" stroke="white" stroke-width="0.2" stroke-linecap="round"/>
<line opacity="0.6" x1="154.002" y1="39.1642" x2="154.002" y2="2.43416" stroke="white" stroke-width="0.2" stroke-linecap="round"/>
<rect opacity="0.8" x="11.2427" y="42.2197" width="42.108" height="2.61475" rx="1.30737" fill="white"/>
<ellipse cx="111.818" cy="27.4766" rx="1.29657" ry="1.26615" fill="#D9D9D9"/>
<path opacity="0.42" d="M111.121 28.0386H112.509C112.557 28.0386 112.597 27.9959 112.597 27.9467C112.597 27.9204 112.588 27.8974 112.573 27.881L112.226 27.5067C112.192 27.4706 112.138 27.4706 112.104 27.5067L111.992 27.6282L111.706 27.3196C111.672 27.2835 111.617 27.2835 111.584 27.3196L111.064 27.881C111.03 27.9171 111.03 27.9762 111.064 28.0123C111.079 28.0288 111.1 28.0386 111.121 28.0386Z" fill="#06555E"/>
<path opacity="0.42" d="M112.25 27.2898C112.346 27.2898 112.424 27.206 112.424 27.1027C112.424 26.9993 112.346 26.9155 112.25 26.9155C112.154 26.9155 112.077 26.9993 112.077 27.1027C112.077 27.206 112.154 27.2898 112.25 27.2898Z" fill="#06555E"/>
<ellipse cx="114.843" cy="27.4849" rx="1.29657" ry="1.26615" fill="#D9D9D9"/>
<path opacity="0.42" d="M114.147 28.0459H115.534C115.583 28.0459 115.622 28.0032 115.622 27.954C115.622 27.9277 115.613 27.9048 115.598 27.8883L115.251 27.514C115.218 27.4779 115.163 27.4779 115.129 27.514L115.017 27.6355L114.731 27.3269C114.697 27.2908 114.643 27.2908 114.609 27.3269L114.089 27.8883C114.055 27.9245 114.055 27.9835 114.089 28.0197C114.104 28.0361 114.125 28.0459 114.147 28.0459Z" fill="#06555E"/>
<path opacity="0.42" d="M115.276 27.2976C115.371 27.2976 115.449 27.2138 115.449 27.1105C115.449 27.0071 115.371 26.9233 115.276 26.9233C115.18 26.9233 115.102 27.0071 115.102 27.1105C115.102 27.2138 115.18 27.2976 115.276 27.2976Z" fill="#06555E"/>
<ellipse cx="117.868" cy="27.4766" rx="1.29657" ry="1.26615" fill="#D9D9D9"/>
<path opacity="0.42" d="M117.172 28.0386H118.559C118.608 28.0386 118.648 27.9959 118.648 27.9467C118.648 27.9204 118.638 27.8974 118.623 27.881L118.276 27.5067C118.243 27.4706 118.188 27.4706 118.155 27.5067L118.042 27.6282L117.756 27.3196C117.723 27.2835 117.668 27.2835 117.634 27.3196L117.114 27.881C117.081 27.9171 117.081 27.9762 117.114 28.0123C117.129 28.0288 117.151 28.0386 117.172 28.0386Z" fill="#06555E"/>
<path opacity="0.42" d="M118.301 27.2898C118.397 27.2898 118.474 27.206 118.474 27.1027C118.474 26.9993 118.397 26.9155 118.301 26.9155C118.205 26.9155 118.127 26.9993 118.127 27.1027C118.127 27.206 118.205 27.2898 118.301 27.2898Z" fill="#06555E"/>
<ellipse cx="123.919" cy="27.4766" rx="1.29657" ry="1.26615" fill="#D9D9D9"/>
<path opacity="0.42" d="M123.222 28.0386H124.61C124.658 28.0386 124.698 27.9959 124.698 27.9467C124.698 27.9204 124.689 27.8974 124.674 27.881L124.327 27.5067C124.293 27.4706 124.239 27.4706 124.205 27.5067L124.093 27.6282L123.807 27.3196C123.773 27.2835 123.718 27.2835 123.685 27.3196L123.165 27.881C123.131 27.9171 123.131 27.9762 123.165 28.0123C123.18 28.0288 123.201 28.0386 123.222 28.0386Z" fill="#06555E"/>
<path opacity="0.42" d="M124.351 27.2898C124.447 27.2898 124.525 27.206 124.525 27.1027C124.525 26.9993 124.447 26.9155 124.351 26.9155C124.255 26.9155 124.178 26.9993 124.178 27.1027C124.178 27.206 124.255 27.2898 124.351 27.2898Z" fill="#06555E"/>
<ellipse cx="120.894" cy="27.4849" rx="1.29657" ry="1.26615" fill="#D9D9D9"/>
<path opacity="0.42" d="M120.197 28.0459H121.585C121.633 28.0459 121.673 28.0032 121.673 27.954C121.673 27.9277 121.664 27.9048 121.649 27.8883L121.302 27.514C121.268 27.4779 121.214 27.4779 121.18 27.514L121.067 27.6355L120.782 27.3269C120.748 27.2908 120.693 27.2908 120.66 27.3269L120.14 27.8883C120.106 27.9245 120.106 27.9835 120.14 28.0197C120.155 28.0361 120.176 28.0459 120.197 28.0459Z" fill="#06555E"/>
<path opacity="0.42" d="M121.326 27.2976C121.422 27.2976 121.499 27.2138 121.499 27.1105C121.499 27.0071 121.422 26.9233 121.326 26.9233C121.23 26.9233 121.153 27.0071 121.153 27.1105C121.153 27.2138 121.23 27.2976 121.326 27.2976Z" fill="#06555E"/>
<ellipse cx="126.944" cy="27.4849" rx="1.29657" ry="1.26615" fill="#D9D9D9"/>
<path opacity="0.42" d="M126.248 28.0459H127.635C127.684 28.0459 127.723 28.0032 127.723 27.954C127.723 27.9277 127.714 27.9048 127.699 27.8883L127.352 27.514C127.319 27.4779 127.264 27.4779 127.231 27.514L127.118 27.6355L126.832 27.3269C126.799 27.2908 126.744 27.2908 126.71 27.3269L126.19 27.8883C126.157 27.9245 126.157 27.9835 126.19 28.0197C126.205 28.0361 126.227 28.0459 126.248 28.0459Z" fill="#06555E"/>
<path opacity="0.42" d="M127.377 27.2976C127.472 27.2976 127.55 27.2138 127.55 27.1105C127.55 27.0071 127.472 26.9233 127.377 26.9233C127.281 26.9233 127.203 27.0071 127.203 27.1105C127.203 27.2138 127.281 27.2976 127.377 27.2976Z" fill="#06555E"/>
<path d="M197.341 10.2669H162.948C162.151 10.2669 161.508 9.88767 161.508 9.41741V9.1747C161.508 8.70444 162.151 8.3252 162.948 8.3252H197.316C198.113 8.3252 198.755 8.70444 198.755 9.1747V9.40224C198.781 9.8725 198.138 10.2669 197.341 10.2669Z" fill="white" fill-opacity="0.81"/>
<path d="M189.706 13.2148H162.641C162.014 13.2148 161.508 12.8301 161.508 12.3531V12.1069C161.508 11.6298 162.014 11.2451 162.641 11.2451H189.686C190.313 11.2451 190.819 11.6298 190.819 12.1069V12.3377C190.839 12.8147 190.333 13.2148 189.706 13.2148Z" fill="white" fill-opacity="0.81"/>
<path d="M189.456 26.7881H177.75C177.479 26.7881 177.26 26.4034 177.26 25.9263V25.6801C177.26 25.2031 177.479 24.8184 177.75 24.8184H189.447C189.718 24.8184 189.937 25.2031 189.937 25.6801V25.9109C189.946 26.388 189.727 26.7881 189.456 26.7881Z" fill="white" fill-opacity="0.81"/>
<path d="M183.09 5.61625H162.375C161.895 5.61625 161.508 5.19386 161.508 4.6701V4.39977C161.508 3.876 161.895 3.45361 162.375 3.45361H183.074C183.554 3.45361 183.941 3.876 183.941 4.39977V4.6532C183.957 5.17696 183.57 5.61625 183.09 5.61625Z" fill="white"/>
<rect x="161.608" y="17.2851" width="56.1314" height="4.40059" stroke="white" stroke-width="0.2"/>
<rect x="200.469" y="17.2432" width="17.3705" height="4.54248" fill="#D9D9D9"/>
<path d="M172.628 26.7881H165.007C164.831 26.7881 164.688 26.4034 164.688 25.9263V25.6801C164.688 25.2031 164.831 24.8184 165.007 24.8184H172.623C172.799 24.8184 172.941 25.2031 172.941 25.6801V25.9109C172.947 26.388 172.805 26.7881 172.628 26.7881Z" fill="white" fill-opacity="0.81"/>
<ellipse cx="162.447" cy="25.8033" rx="1.24145" ry="1.19389" fill="#D9D9D9"/>
<path opacity="0.42" d="M161.78 26.332H163.108C163.155 26.332 163.193 26.2917 163.193 26.2453C163.193 26.2205 163.184 26.1988 163.17 26.1834L162.838 25.8304C162.805 25.7964 162.753 25.7964 162.721 25.8304L162.613 25.945L162.339 25.654C162.307 25.6199 162.255 25.6199 162.223 25.654L161.725 26.1834C161.693 26.2174 161.693 26.2731 161.725 26.3072C161.739 26.3227 161.76 26.332 161.78 26.332Z" fill="#06555E"/>
<path opacity="0.42" d="M162.861 25.6269C162.952 25.6269 163.027 25.5479 163.027 25.4504C163.027 25.3529 162.952 25.2739 162.861 25.2739C162.769 25.2739 162.695 25.3529 162.695 25.4504C162.695 25.5479 162.769 25.6269 162.861 25.6269Z" fill="#06555E"/>
</svg>
