<svg width="230" height="50" viewBox="0 0 230 50" fill="none" xmlns="http://www.w3.org/2000/svg">
<rect width="230" height="49.15" fill="#016772" fill-opacity="0.8"/>
<path d="M32.7606 6.13086H12.1071C11.6286 6.13086 11.2427 5.69064 11.2427 5.14478V4.86304C11.2427 4.31717 11.6286 3.87695 12.1071 3.87695H32.7452C33.2237 3.87695 33.6096 4.31717 33.6096 4.86304V5.12717C33.625 5.67304 33.2391 6.13086 32.7606 6.13086Z" fill="white"/>
<path d="M62.7169 13.2109H13.5487C12.4095 13.2109 11.4908 12.7707 11.4908 12.2249V11.9431C11.4908 11.3972 12.4095 10.957 13.5487 10.957H62.6801C63.8193 10.957 64.738 11.3972 64.738 11.9431V12.2072C64.7748 12.7531 63.8561 13.2109 62.7169 13.2109Z" fill="white"/>
<path d="M66.9231 17.6314H12.3587C11.7409 17.6314 11.2427 17.202 11.2427 16.6697V16.4808C11.2427 15.9484 11.7409 15.519 12.3587 15.519H66.9032C67.521 15.519 68.0192 15.9484 68.0192 16.4808V16.6697C68.0391 17.202 67.5409 17.6314 66.9231 17.6314ZM66.9231 22.0793H12.3587C11.7409 22.0793 11.2427 21.65 11.2427 21.1176V20.9287C11.2427 20.3963 11.7409 19.967 12.3587 19.967H66.9032C67.521 19.967 68.0192 20.3963 68.0192 20.9287V21.1176C68.0391 21.65 67.5409 22.0793 66.9231 22.0793ZM56.082 26.5272H12.3587C11.7409 26.5272 11.2427 26.0979 11.2427 25.5655V25.3766C11.2427 24.8442 11.7409 24.4149 12.3587 24.4149H56.082C56.6998 24.4149 57.198 24.8442 57.198 25.3766V25.5655C57.198 26.0979 56.6998 26.5272 56.082 26.5272Z" fill="white" fill-opacity="0.9"/>
<path d="M16.2946 33.3647H11.6251C11.4148 33.3647 11.2427 33.2095 11.2427 33.0198V30.4846C11.2427 30.2949 11.4148 30.1396 11.6251 30.1396H16.2946C16.505 30.1396 16.6771 30.2949 16.6771 30.4846V33.0198C16.6771 33.2095 16.505 33.3647 16.2946 33.3647Z" fill="white"/>
<path opacity="0.42" d="M12.9634 32.5052H14.9488C15.0185 32.5052 15.0751 32.448 15.0751 32.3819C15.0751 32.3467 15.062 32.3159 15.0402 32.2938L14.5439 31.7918C14.496 31.7433 14.4176 31.7433 14.3697 31.7918L14.2086 31.9547L13.7993 31.5407C13.7514 31.4923 13.6731 31.4923 13.6252 31.5407L12.8806 32.2938C12.8328 32.3423 12.8328 32.4215 12.8806 32.47C12.9024 32.492 12.9329 32.5052 12.9634 32.5052Z" fill="#06555E"/>
<path opacity="0.42" d="M14.5786 31.5011C14.7157 31.5011 14.8268 31.3887 14.8268 31.2501C14.8268 31.1114 14.7157 30.999 14.5786 30.999C14.4416 30.999 14.3304 31.1114 14.3304 31.2501C14.3304 31.3887 14.4416 31.5011 14.5786 31.5011Z" fill="#06555E"/>
<path d="M22.721 33.3647H18.0515C17.8412 33.3647 17.6691 33.2095 17.6691 33.0198V30.4846C17.6691 30.2949 17.8412 30.1396 18.0515 30.1396H22.721C22.9314 30.1396 23.1035 30.2949 23.1035 30.4846V33.0198C23.1035 33.2095 22.9314 33.3647 22.721 33.3647Z" fill="white"/>
<path opacity="0.42" d="M19.3898 32.5052H21.3752C21.4449 32.5052 21.5015 32.448 21.5015 32.3819C21.5015 32.3467 21.4884 32.3159 21.4667 32.2938L20.9703 31.7918C20.9224 31.7433 20.8441 31.7433 20.7962 31.7918L20.6351 31.9547L20.2258 31.5407C20.1779 31.4923 20.0995 31.4923 20.0516 31.5407L19.3071 32.2938C19.2592 32.3423 19.2592 32.4215 19.3071 32.47C19.3289 32.492 19.3593 32.5052 19.3898 32.5052Z" fill="#06555E"/>
<path opacity="0.42" d="M21.0052 31.5011C21.1423 31.5011 21.2534 31.3887 21.2534 31.2501C21.2534 31.1114 21.1423 30.999 21.0052 30.999C20.8681 30.999 20.757 31.1114 20.757 31.2501C20.757 31.3887 20.8681 31.5011 21.0052 31.5011Z" fill="#06555E"/>
<path d="M29.1477 33.3647H24.4781C24.2678 33.3647 24.0957 33.2095 24.0957 33.0198V30.4846C24.0957 30.2949 24.2678 30.1396 24.4781 30.1396H29.1477C29.358 30.1396 29.5301 30.2949 29.5301 30.4846V33.0198C29.5301 33.2095 29.358 33.3647 29.1477 33.3647Z" fill="white"/>
<path opacity="0.42" d="M25.8164 32.5052H27.8018C27.8715 32.5052 27.9281 32.448 27.9281 32.3819C27.9281 32.3467 27.915 32.3159 27.8932 32.2938L27.3969 31.7918C27.349 31.7433 27.2706 31.7433 27.2227 31.7918L27.0616 31.9547L26.6524 31.5407C26.6045 31.4923 26.5261 31.4923 26.4782 31.5407L25.7337 32.2938C25.6858 32.3423 25.6858 32.4215 25.7337 32.47C25.7554 32.492 25.7859 32.5052 25.8164 32.5052Z" fill="#06555E"/>
<path opacity="0.42" d="M27.4317 31.5011C27.5688 31.5011 27.6799 31.3887 27.6799 31.2501C27.6799 31.1114 27.5688 30.999 27.4317 30.999C27.2946 30.999 27.1835 31.1114 27.1835 31.2501C27.1835 31.3887 27.2946 31.5011 27.4317 31.5011Z" fill="#06555E"/>
<path d="M35.5741 33.3647H30.9046C30.6943 33.3647 30.5222 33.2095 30.5222 33.0198V30.4846C30.5222 30.2949 30.6943 30.1396 30.9046 30.1396H35.5741C35.7844 30.1396 35.9565 30.2949 35.9565 30.4846V33.0198C35.9565 33.2095 35.7844 33.3647 35.5741 33.3647Z" fill="white"/>
<path opacity="0.42" d="M32.2429 32.5052H34.2283C34.298 32.5052 34.3546 32.448 34.3546 32.3819C34.3546 32.3467 34.3415 32.3159 34.3198 32.2938L33.8234 31.7918C33.7755 31.7433 33.6971 31.7433 33.6492 31.7918L33.4882 31.9547L33.0789 31.5407C33.031 31.4923 32.9526 31.4923 32.9047 31.5407L32.1602 32.2938C32.1123 32.3423 32.1123 32.4215 32.1602 32.47C32.182 32.492 32.2124 32.5052 32.2429 32.5052Z" fill="#06555E"/>
<path opacity="0.42" d="M33.8582 31.5011C33.9953 31.5011 34.1064 31.3887 34.1064 31.2501C34.1064 31.1114 33.9953 30.999 33.8582 30.999C33.7212 30.999 33.61 31.1114 33.61 31.2501C33.61 31.3887 33.7212 31.5011 33.8582 31.5011Z" fill="#06555E"/>
<path d="M102.509 6.68652H82.6867C82.2274 6.68652 81.8571 6.13788 81.8571 5.45755V5.10642C81.8571 4.42609 82.2274 3.87744 82.6867 3.87744H102.494C102.953 3.87744 103.324 4.42609 103.324 5.10642V5.43561C103.338 6.11593 102.968 6.68652 102.509 6.68652Z" fill="white"/>
<path d="M150.108 6.68604H130.286C129.826 6.68604 129.456 6.13739 129.456 5.45706V5.10593C129.456 4.4256 129.826 3.87695 130.286 3.87695H150.093C150.552 3.87695 150.923 4.4256 150.923 5.10593V5.43512C150.937 6.11544 150.567 6.68604 150.108 6.68604Z" fill="white"/>
<path d="M137.757 13.8981H129.79C129.605 13.8981 129.456 13.5437 129.456 13.1042V12.8774C129.456 12.4379 129.605 12.0835 129.79 12.0835H137.751C137.936 12.0835 138.085 12.4379 138.085 12.8774V13.0901C138.091 13.5295 137.942 13.8981 137.757 13.8981Z" fill="white" fill-opacity="0.9"/>
<path d="M142.732 18.7131H129.989C129.694 18.7131 129.456 18.3587 129.456 17.9192V17.6923C129.456 17.2529 129.694 16.8984 129.989 16.8984H142.723C143.018 16.8984 143.256 17.2529 143.256 17.6923V17.905C143.266 18.3445 143.028 18.7131 142.732 18.7131Z" fill="white" fill-opacity="0.9"/>
<path d="M140.227 23.5275H129.889C129.649 23.5275 129.456 23.1731 129.456 22.7336V22.5068C129.456 22.0673 129.649 21.7129 129.889 21.7129H140.219C140.459 21.7129 140.652 22.0673 140.652 22.5068V22.7194C140.659 23.1589 140.466 23.5275 140.227 23.5275Z" fill="white" fill-opacity="0.9"/>
<path d="M141.175 28.342H129.927C129.666 28.342 129.456 27.9876 129.456 27.5481V27.3212C129.456 26.8818 129.666 26.5273 129.927 26.5273H141.166C141.427 26.5273 141.637 26.8818 141.637 27.3212V27.5339C141.646 27.9734 141.435 28.342 141.175 28.342Z" fill="white" fill-opacity="0.9"/>
<path d="M144.967 33.1569H130.079C129.734 33.1569 129.456 32.8025 129.456 32.363V32.1362C129.456 31.6967 129.734 31.3423 130.079 31.3423H144.956C145.301 31.3423 145.579 31.6967 145.579 32.1362V32.3488C145.59 32.7883 145.312 33.1569 144.967 33.1569Z" fill="white" fill-opacity="0.9"/>
<path d="M199.615 6.68604H176.934C176.409 6.68604 175.985 6.13739 175.985 5.45706V5.10593C175.985 4.4256 176.409 3.87695 176.934 3.87695H199.598C200.123 3.87695 200.547 4.4256 200.547 5.10593V5.43512C200.564 6.11544 200.14 6.68604 199.615 6.68604Z" fill="white"/>
<path d="M215.538 13.8981H193.73C193.225 13.8981 192.817 13.5437 192.817 13.1042V12.8774C192.817 12.4379 193.225 12.0835 193.73 12.0835H215.522C216.027 12.0835 216.435 12.4379 216.435 12.8774V13.0901C216.451 13.5295 216.044 13.8981 215.538 13.8981Z" fill="white" fill-opacity="0.9"/>
<path d="M215.538 16.8986H193.73C193.225 16.8986 192.817 16.5442 192.817 16.1047V15.8779C192.817 15.4384 193.225 15.084 193.73 15.084H215.522C216.027 15.084 216.435 15.4384 216.435 15.8779V16.0905C216.451 16.53 216.044 16.8986 215.538 16.8986Z" fill="white" fill-opacity="0.9"/>
<path d="M206.864 19.8991H193.382C193.069 19.8991 192.817 19.5447 192.817 19.1052V18.8784C192.817 18.4389 193.069 18.0845 193.382 18.0845H206.853C207.166 18.0845 207.418 18.4389 207.418 18.8784V19.091C207.428 19.5305 207.176 19.8991 206.864 19.8991Z" fill="white" fill-opacity="0.9"/>
<path d="M215.538 26.2487H193.73C193.225 26.2487 192.817 25.8943 192.817 25.4548V25.228C192.817 24.7885 193.225 24.4341 193.73 24.4341H215.522C216.027 24.4341 216.435 24.7885 216.435 25.228V25.4406C216.451 25.8801 216.044 26.2487 215.538 26.2487Z" fill="white" fill-opacity="0.9"/>
<path d="M215.538 29.2492H193.73C193.225 29.2492 192.817 28.8948 192.817 28.4553V28.2285C192.817 27.789 193.225 27.4346 193.73 27.4346H215.522C216.027 27.4346 216.435 27.789 216.435 28.2285V28.4411C216.451 28.8806 216.044 29.2492 215.538 29.2492Z" fill="white" fill-opacity="0.9"/>
<path d="M206.864 32.2497H193.382C193.069 32.2497 192.817 31.8953 192.817 31.4558V31.229C192.817 30.7895 193.069 30.4351 193.382 30.4351H206.853C207.166 30.4351 207.418 30.7895 207.418 31.229V31.4416C207.428 31.8811 207.176 32.2497 206.864 32.2497Z" fill="white" fill-opacity="0.9"/>
<line opacity="0.6" x1="11.3423" y1="39.551" x2="218.656" y2="38.7424" stroke="white" stroke-width="0.2" stroke-linecap="round"/>
<rect opacity="0.8" x="11.2427" y="42.8955" width="74.9018" height="2.00488" rx="1.00244" fill="white"/>
<path d="M218.257 43.9841V43.9893C218.248 44.0013 218.227 44.0249 218.177 44.0567C218.069 44.1257 217.885 44.1863 217.654 44.1863H190.821C190.587 44.1863 190.4 44.1273 190.288 44.0585C190.227 44.0214 190.205 43.994 190.198 43.9819V43.8138C190.205 43.8017 190.227 43.7742 190.288 43.7371C190.4 43.6684 190.587 43.6094 190.821 43.6094H217.634C217.868 43.6094 218.055 43.6684 218.167 43.7371C218.227 43.7742 218.249 43.8017 218.257 43.8138V43.9841ZM218.26 43.9841C218.26 43.9844 218.26 43.9848 218.259 43.9852C218.259 43.9848 218.26 43.9844 218.26 43.9841C218.26 43.9815 218.261 43.9803 218.261 43.9803C218.262 43.9803 218.261 43.9816 218.26 43.9841ZM190.194 43.9751C190.195 43.9751 190.195 43.9762 190.196 43.9786C190.195 43.9763 190.194 43.9751 190.194 43.9751ZM190.194 43.8205C190.194 43.8205 190.195 43.8193 190.196 43.8171C190.195 43.8195 190.195 43.8206 190.194 43.8205ZM218.26 43.8205C218.26 43.8206 218.259 43.8194 218.259 43.817C218.26 43.8193 218.26 43.8205 218.26 43.8205Z" fill="white" stroke="white"/>
<path d="M113.423 13.48H87.428C86.8257 13.48 86.34 13.0953 86.34 12.6182V12.372C86.34 11.895 86.8257 11.5103 87.428 11.5103H113.404C114.006 11.5103 114.492 11.895 114.492 12.372V12.6028C114.511 13.0799 114.026 13.48 113.423 13.48Z" fill="white" fill-opacity="0.81"/>
<path d="M105.703 16.1626H87.1178C86.6872 16.1626 86.34 15.7779 86.34 15.3008V15.0546C86.34 14.5776 86.6872 14.1929 87.1178 14.1929H105.689C106.12 14.1929 106.467 14.5776 106.467 15.0546V15.2855C106.481 15.7625 106.134 16.1626 105.703 16.1626Z" fill="white" fill-opacity="0.81"/>
<ellipse cx="83.0985" cy="12.7041" rx="1.24145" ry="1.19389" fill="#D9D9D9"/>
<path opacity="0.42" d="M82.4317 13.2328H83.7601C83.8067 13.2328 83.8446 13.1926 83.8446 13.1462C83.8446 13.1214 83.8359 13.0997 83.8213 13.0842L83.4892 12.7313C83.4572 12.6973 83.4047 12.6973 83.3727 12.7313L83.2649 12.8459L82.9911 12.5548C82.959 12.5208 82.9066 12.5208 82.8745 12.5548L82.3764 13.0842C82.3443 13.1183 82.3443 13.174 82.3764 13.2081C82.391 13.2236 82.4113 13.2328 82.4317 13.2328Z" fill="#06555E"/>
<path opacity="0.42" d="M83.5124 12.5277C83.6041 12.5277 83.6785 12.4487 83.6785 12.3513C83.6785 12.2538 83.6041 12.1748 83.5124 12.1748C83.4207 12.1748 83.3464 12.2538 83.3464 12.3513C83.3464 12.4487 83.4207 12.5277 83.5124 12.5277Z" fill="#06555E"/>
<path d="M113.423 20.1025H87.428C86.8257 20.1025 86.34 19.7178 86.34 19.2408V18.9946C86.34 18.5175 86.8257 18.1328 87.428 18.1328H113.404C114.006 18.1328 114.492 18.5175 114.492 18.9946V19.2254C114.511 19.7024 114.026 20.1025 113.423 20.1025Z" fill="white" fill-opacity="0.81"/>
<ellipse cx="83.0985" cy="19.1177" rx="1.24145" ry="1.19389" fill="#D9D9D9"/>
<path opacity="0.42" d="M82.4317 19.6464H83.7601C83.8067 19.6464 83.8446 19.6062 83.8446 19.5597C83.8446 19.535 83.8359 19.5133 83.8213 19.4978L83.4892 19.1449C83.4572 19.1108 83.4047 19.1108 83.3727 19.1449L83.2649 19.2594L82.9911 18.9684C82.959 18.9344 82.9066 18.9344 82.8745 18.9684L82.3764 19.4978C82.3443 19.5319 82.3443 19.5876 82.3764 19.6217C82.391 19.6371 82.4113 19.6464 82.4317 19.6464Z" fill="#06555E"/>
<path opacity="0.42" d="M83.5124 18.9413C83.6041 18.9413 83.6785 18.8623 83.6785 18.7648C83.6785 18.6674 83.6041 18.5884 83.5124 18.5884C83.4207 18.5884 83.3464 18.6674 83.3464 18.7648C83.3464 18.8623 83.4207 18.9413 83.5124 18.9413Z" fill="#06555E"/>
<path d="M102.477 24.2515H86.9882C86.6294 24.2515 86.34 23.8667 86.34 23.3897V23.1435C86.34 22.6665 86.6294 22.2817 86.9882 22.2817H102.466C102.825 22.2817 103.114 22.6665 103.114 23.1435V23.3743C103.126 23.8514 102.836 24.2515 102.477 24.2515Z" fill="white" fill-opacity="0.81"/>
<ellipse cx="83.0985" cy="23.2666" rx="1.24145" ry="1.19389" fill="#D9D9D9"/>
<path opacity="0.42" d="M82.4317 23.7953H83.7601C83.8067 23.7953 83.8446 23.7551 83.8446 23.7087C83.8446 23.6839 83.8359 23.6622 83.8213 23.6467L83.4892 23.2938C83.4572 23.2598 83.4047 23.2598 83.3727 23.2938L83.2649 23.4084L82.9911 23.1173C82.959 23.0833 82.9066 23.0833 82.8745 23.1173L82.3764 23.6467C82.3443 23.6808 82.3443 23.7365 82.3764 23.7706C82.391 23.7861 82.4113 23.7953 82.4317 23.7953Z" fill="#06555E"/>
<path opacity="0.42" d="M83.5124 23.0902C83.6041 23.0902 83.6785 23.0112 83.6785 22.9138C83.6785 22.8163 83.6041 22.7373 83.5124 22.7373C83.4207 22.7373 83.3464 22.8163 83.3464 22.9138C83.3464 23.0112 83.4207 23.0902 83.5124 23.0902Z" fill="#06555E"/>
<path d="M105.967 28.4004H87.1284C86.692 28.4004 86.34 28.0157 86.34 27.5386V27.2924C86.34 26.8154 86.692 26.4307 87.1284 26.4307H105.953C106.39 26.4307 106.742 26.8154 106.742 27.2924V27.5232C106.756 28.0003 106.404 28.4004 105.967 28.4004Z" fill="white" fill-opacity="0.81"/>
<ellipse cx="83.0985" cy="27.4156" rx="1.24145" ry="1.19389" fill="#D9D9D9"/>
<path opacity="0.42" d="M82.4317 27.9443H83.7601C83.8067 27.9443 83.8446 27.904 83.8446 27.8576C83.8446 27.8328 83.8359 27.8111 83.8213 27.7957L83.4892 27.4427C83.4572 27.4087 83.4047 27.4087 83.3727 27.4427L83.2649 27.5573L82.9911 27.2663C82.959 27.2322 82.9066 27.2322 82.8745 27.2663L82.3764 27.7957C82.3443 27.8297 82.3443 27.8854 82.3764 27.9195C82.391 27.935 82.4113 27.9443 82.4317 27.9443Z" fill="#06555E"/>
<path opacity="0.42" d="M83.5124 27.2392C83.6041 27.2392 83.6785 27.1602 83.6785 27.0627C83.6785 26.9652 83.6041 26.8862 83.5124 26.8862C83.4207 26.8862 83.3464 26.9652 83.3464 27.0627C83.3464 27.1602 83.4207 27.2392 83.5124 27.2392Z" fill="#06555E"/>
<path d="M188.863 19.8989H178.674C178.215 19.8989 177.839 19.5228 177.839 19.0631V12.9194C177.839 12.4596 178.215 12.0835 178.674 12.0835H188.863C189.322 12.0835 189.698 12.4596 189.698 12.9194V19.0631C189.698 19.5228 189.322 19.8989 188.863 19.8989Z" fill="white"/>
<path opacity="0.42" d="M181.594 17.8164H185.926C186.078 17.8164 186.202 17.6777 186.202 17.5176C186.202 17.4322 186.173 17.3575 186.126 17.3042L185.043 16.0875C184.938 15.9701 184.767 15.9701 184.663 16.0875L184.311 16.4824L183.418 15.4792C183.314 15.3618 183.143 15.3618 183.038 15.4792L181.413 17.3042C181.309 17.4216 181.309 17.6137 181.413 17.7311C181.461 17.7844 181.527 17.8164 181.594 17.8164Z" fill="#06555E"/>
<path opacity="0.42" d="M185.119 15.3827C185.418 15.3827 185.66 15.1103 185.66 14.7743C185.66 14.4384 185.418 14.166 185.119 14.166C184.82 14.166 184.577 14.4384 184.577 14.7743C184.577 15.1103 184.82 15.3827 185.119 15.3827Z" fill="#06555E"/>
<path d="M188.863 32.2495H178.674C178.215 32.2495 177.839 31.8734 177.839 31.4136V25.27C177.839 24.8102 178.215 24.4341 178.674 24.4341H188.863C189.322 24.4341 189.698 24.8102 189.698 25.27V31.4136C189.698 31.8734 189.322 32.2495 188.863 32.2495Z" fill="white"/>
<path opacity="0.42" d="M181.594 30.167H185.926C186.078 30.167 186.202 30.0283 186.202 29.8682C186.202 29.7828 186.173 29.7081 186.126 29.6548L185.043 28.4381C184.938 28.3207 184.767 28.3207 184.663 28.4381L184.311 28.833L183.418 27.8297C183.314 27.7123 183.143 27.7123 183.038 27.8297L181.413 29.6548C181.309 29.7721 181.309 29.9643 181.413 30.0817C181.461 30.135 181.527 30.167 181.594 30.167Z" fill="#06555E"/>
<path opacity="0.42" d="M185.119 27.7333C185.418 27.7333 185.66 27.4609 185.66 27.1249C185.66 26.789 185.418 26.5166 185.119 26.5166C184.82 26.5166 184.577 26.789 184.577 27.1249C184.577 27.4609 184.82 27.7333 185.119 27.7333Z" fill="#06555E"/>
</svg>
