<svg width="230" height="50" viewBox="0 0 230 50" fill="none" xmlns="http://www.w3.org/2000/svg">
<rect width="230" height="49.15" fill="#016772" fill-opacity="0.8"/>
<line opacity="0.6" x1="11.3423" y1="40.551" x2="218.656" y2="39.7424" stroke="white" stroke-width="0.2" stroke-linecap="round"/>
<rect opacity="0.8" x="60.3354" y="42.9409" width="109.329" height="2.75146" rx="1.37573" fill="white"/>
<path d="M87.7812 29.8533H87.7811L87.7812 29.861C87.7847 30.0864 87.7417 30.2716 87.691 30.3816C87.6878 30.3886 87.6848 30.3949 87.6818 30.4006H76.1792C76.1766 30.3957 76.1739 30.3903 76.1711 30.3844C76.1211 30.2796 76.0763 30.0992 76.0763 29.8717V29.5777C76.0763 29.3502 76.1211 29.1698 76.1711 29.065C76.1739 29.0592 76.1766 29.0538 76.1792 29.0488H87.6783C87.6808 29.0538 87.6835 29.0592 87.6864 29.065C87.7364 29.1698 87.7812 29.3502 87.7812 29.5777V29.8533Z" fill="white" stroke="white"/>
<path d="M104.317 29.8533H104.317L104.317 29.861C104.32 30.0864 104.277 30.2716 104.227 30.3816C104.223 30.3886 104.22 30.3949 104.217 30.4006H92.7148C92.7122 30.3957 92.7095 30.3903 92.7067 30.3844C92.6567 30.2796 92.6119 30.0992 92.6119 29.8717V29.5777C92.6119 29.3502 92.6567 29.1698 92.7067 29.065C92.7095 29.0592 92.7122 29.0538 92.7148 29.0488H104.214C104.216 29.0538 104.219 29.0592 104.222 29.065C104.272 29.1698 104.317 29.3502 104.317 29.5777V29.8533Z" fill="white" stroke="white"/>
<path d="M120.852 29.8533H120.852L120.852 29.861C120.856 30.0864 120.813 30.2716 120.762 30.3816C120.759 30.3886 120.756 30.3949 120.753 30.4006H109.25C109.248 30.3957 109.245 30.3903 109.242 30.3844C109.192 30.2796 109.147 30.0992 109.147 29.8717V29.5777C109.147 29.3502 109.192 29.1698 109.242 29.065C109.245 29.0592 109.248 29.0538 109.25 29.0488H120.749C120.752 29.0538 120.755 29.0592 120.758 29.065C120.808 29.1698 120.852 29.3502 120.852 29.5777V29.8533Z" fill="white" stroke="white"/>
<path d="M137.388 29.8533H137.388L137.388 29.861C137.391 30.0864 137.348 30.2716 137.298 30.3816C137.295 30.3886 137.292 30.3949 137.289 30.4006H125.786C125.783 30.3957 125.781 30.3903 125.778 30.3844C125.728 30.2796 125.683 30.0992 125.683 29.8717V29.5777C125.683 29.3502 125.728 29.1698 125.778 29.065C125.781 29.0592 125.783 29.0538 125.786 29.0488H137.285C137.288 29.0538 137.29 29.0592 137.293 29.065C137.343 29.1698 137.388 29.3502 137.388 29.5777V29.8533Z" fill="white" stroke="white"/>
<path d="M153.924 29.8533H153.923L153.924 29.861C153.927 30.0864 153.884 30.2716 153.833 30.3816C153.83 30.3886 153.827 30.3949 153.824 30.4006H142.322C142.319 30.3957 142.316 30.3903 142.313 30.3844C142.263 30.2796 142.219 30.0992 142.219 29.8717V29.5777C142.219 29.3502 142.263 29.1698 142.313 29.065C142.316 29.0592 142.319 29.0538 142.322 29.0488H153.821C153.823 29.0538 153.826 29.0592 153.829 29.065C153.879 29.1698 153.924 29.3502 153.924 29.5777V29.8533Z" fill="white" stroke="white"/>
<line opacity="0.8" x1="90.2969" y1="26.8149" x2="90.2969" y2="32.6349" stroke="white" stroke-width="0.2"/>
<line opacity="0.8" x1="106.832" y1="26.8149" x2="106.832" y2="32.6349" stroke="white" stroke-width="0.2"/>
<line opacity="0.8" x1="123.368" y1="26.8149" x2="123.368" y2="32.6349" stroke="white" stroke-width="0.2"/>
<line opacity="0.8" x1="139.904" y1="26.8149" x2="139.904" y2="32.6349" stroke="white" stroke-width="0.2"/>
<rect opacity="0.8" x="36.1411" y="12.6191" width="21.0394" height="2.3185" rx="1.15925" fill="white"/>
<rect opacity="0.8" x="30.5" y="17.4204" width="32.3218" height="2.3185" rx="1.15925" fill="white"/>
<rect opacity="0.8" x="34.8184" y="20.5815" width="23.6263" height="2.3185" rx="1.15925" fill="white"/>
<path d="M51.6188 10.5923H41.7028C41.2561 10.5923 40.8907 10.1852 40.8907 9.68769V3.03888C40.8907 2.54135 41.2561 2.13428 41.7028 2.13428H51.6188C52.0655 2.13428 52.4309 2.54135 52.4309 3.03888V9.68769C52.4309 10.1852 52.0655 10.5923 51.6188 10.5923Z" fill="white"/>
<path opacity="0.42" d="M44.5447 8.33861H48.7609C48.9088 8.33861 49.029 8.18846 49.029 8.01521C49.029 7.92281 49.0013 7.84196 48.955 7.78421L47.901 6.46751C47.7993 6.34046 47.6329 6.34046 47.5312 6.46751L47.1891 6.89486L46.32 5.80915C46.2183 5.6821 46.0518 5.6821 45.9501 5.80915L44.3691 7.78421C44.2674 7.91126 44.2674 8.11916 44.3691 8.24621C44.4153 8.30396 44.48 8.33861 44.5447 8.33861Z" fill="#06555E"/>
<path opacity="0.42" d="M47.9749 5.70489C48.266 5.70489 48.5019 5.41013 48.5019 5.04653C48.5019 4.68294 48.266 4.38818 47.9749 4.38818C47.6838 4.38818 47.4479 4.68294 47.4479 5.04653C47.4479 5.41013 47.6838 5.70489 47.9749 5.70489Z" fill="#06555E"/>
<rect opacity="0.8" x="104.48" y="12.6191" width="21.0394" height="2.3185" rx="1.15925" fill="white"/>
<rect opacity="0.8" x="98.8391" y="17.4204" width="32.3218" height="2.3185" rx="1.15925" fill="white"/>
<rect opacity="0.8" x="103.158" y="20.582" width="23.6263" height="2.3185" rx="1.15925" fill="white"/>
<path d="M119.958 10.5923H110.042C109.595 10.5923 109.23 10.1852 109.23 9.68769V3.03888C109.23 2.54135 109.595 2.13428 110.042 2.13428H119.958C120.405 2.13428 120.77 2.54135 120.77 3.03888V9.68769C120.77 10.1852 120.405 10.5923 119.958 10.5923Z" fill="white"/>
<path opacity="0.42" d="M112.884 8.33861H117.1C117.248 8.33861 117.368 8.18846 117.368 8.01521C117.368 7.92281 117.34 7.84196 117.294 7.78421L116.24 6.46751C116.138 6.34046 115.972 6.34046 115.87 6.46751L115.528 6.89486L114.659 5.80915C114.557 5.6821 114.391 5.6821 114.289 5.80915L112.708 7.78421C112.606 7.91126 112.606 8.11916 112.708 8.24621C112.754 8.30396 112.819 8.33861 112.884 8.33861Z" fill="#06555E"/>
<path opacity="0.42" d="M116.314 5.70537C116.605 5.70537 116.841 5.41062 116.841 5.04702C116.841 4.68343 116.605 4.38867 116.314 4.38867C116.023 4.38867 115.787 4.68343 115.787 5.04702C115.787 5.41062 116.023 5.70537 116.314 5.70537Z" fill="#06555E"/>
<rect opacity="0.8" x="172.82" y="12.6191" width="21.0394" height="2.3185" rx="1.15925" fill="white"/>
<rect opacity="0.8" x="167.178" y="17.4204" width="32.3218" height="2.3185" rx="1.15925" fill="white"/>
<rect opacity="0.8" x="171.497" y="20.5815" width="23.6263" height="2.3185" rx="1.15925" fill="white"/>
<path d="M188.297 10.5923H178.381C177.934 10.5923 177.569 10.1852 177.569 9.68769V3.03888C177.569 2.54135 177.934 2.13428 178.381 2.13428H188.297C188.744 2.13428 189.109 2.54135 189.109 3.03888V9.68769C189.109 10.1852 188.744 10.5923 188.297 10.5923Z" fill="white"/>
<path opacity="0.42" d="M181.223 8.33861H185.439C185.587 8.33861 185.707 8.18846 185.707 8.01521C185.707 7.92281 185.68 7.84196 185.633 7.78421L184.579 6.46751C184.478 6.34046 184.311 6.34046 184.209 6.46751L183.867 6.89486L182.998 5.80915C182.897 5.6821 182.73 5.6821 182.628 5.80915L181.047 7.78421C180.946 7.91126 180.946 8.11916 181.047 8.24621C181.094 8.30396 181.158 8.33861 181.223 8.33861Z" fill="#06555E"/>
<path opacity="0.42" d="M184.653 5.70489C184.944 5.70489 185.18 5.41013 185.18 5.04653C185.18 4.68294 184.944 4.38818 184.653 4.38818C184.362 4.38818 184.126 4.68294 184.126 5.04653C184.126 5.41013 184.362 5.70489 184.653 5.70489Z" fill="#06555E"/>
<ellipse cx="107.402" cy="36.231" rx="2.39557" ry="2.3038" fill="#D9D9D9"/>
<path opacity="0.42" d="M106.116 37.2536H108.679C108.769 37.2536 108.842 37.1759 108.842 37.0863C108.842 37.0385 108.825 36.9967 108.797 36.9668L108.156 36.2858C108.095 36.2201 107.993 36.2201 107.932 36.2858L107.724 36.5068L107.195 35.9453C107.133 35.8796 107.032 35.8796 106.97 35.9453L106.009 36.9668C105.947 37.0326 105.947 37.1401 106.009 37.2058C106.037 37.2357 106.077 37.2536 106.116 37.2536Z" fill="#06555E"/>
<path opacity="0.42" d="M108.201 35.891C108.378 35.891 108.522 35.7385 108.522 35.5505C108.522 35.3624 108.378 35.21 108.201 35.21C108.024 35.21 107.881 35.3624 107.881 35.5505C107.881 35.7385 108.024 35.891 108.201 35.891Z" fill="#06555E"/>
<ellipse cx="112.992" cy="36.2462" rx="2.39557" ry="2.3038" fill="#D9D9D9"/>
<path opacity="0.42" d="M111.705 37.2668H114.269C114.359 37.2668 114.432 37.1891 114.432 37.0995C114.432 37.0517 114.415 37.0099 114.387 36.98L113.746 36.299C113.684 36.2333 113.583 36.2333 113.521 36.299L113.313 36.52L112.785 35.9585C112.723 35.8928 112.622 35.8928 112.56 35.9585L111.599 36.98C111.537 37.0457 111.537 37.1533 111.599 37.219C111.627 37.2489 111.666 37.2668 111.705 37.2668Z" fill="#06555E"/>
<path opacity="0.42" d="M113.791 35.9052C113.968 35.9052 114.111 35.7527 114.111 35.5646C114.111 35.3766 113.968 35.2241 113.791 35.2241C113.614 35.2241 113.47 35.3766 113.47 35.5646C113.47 35.7527 113.614 35.9052 113.791 35.9052Z" fill="#06555E"/>
<ellipse cx="118.582" cy="36.231" rx="2.39557" ry="2.3038" fill="#D9D9D9"/>
<path opacity="0.42" d="M117.295 37.2536H119.859C119.949 37.2536 120.022 37.1759 120.022 37.0863C120.022 37.0385 120.005 36.9967 119.977 36.9668L119.336 36.2858C119.274 36.2201 119.173 36.2201 119.111 36.2858L118.903 36.5068L118.375 35.9453C118.313 35.8796 118.212 35.8796 118.15 35.9453L117.189 36.9668C117.127 37.0326 117.127 37.1401 117.189 37.2058C117.217 37.2357 117.256 37.2536 117.295 37.2536Z" fill="#06555E"/>
<path opacity="0.42" d="M119.381 35.891C119.558 35.891 119.701 35.7385 119.701 35.5505C119.701 35.3624 119.558 35.21 119.381 35.21C119.204 35.21 119.06 35.3624 119.06 35.5505C119.06 35.7385 119.204 35.891 119.381 35.891Z" fill="#06555E"/>
<ellipse cx="124.171" cy="36.2462" rx="2.39557" ry="2.3038" fill="#D9D9D9"/>
<path opacity="0.42" d="M122.885 37.2668H125.448C125.538 37.2668 125.611 37.1891 125.611 37.0995C125.611 37.0517 125.594 37.0099 125.566 36.98L124.926 36.299C124.864 36.2333 124.763 36.2333 124.701 36.299L124.493 36.52L123.964 35.9585C123.902 35.8928 123.801 35.8928 123.739 35.9585L122.778 36.98C122.716 37.0457 122.716 37.1533 122.778 37.219C122.806 37.2489 122.846 37.2668 122.885 37.2668Z" fill="#06555E"/>
<path opacity="0.42" d="M124.971 35.9052C125.147 35.9052 125.291 35.7527 125.291 35.5646C125.291 35.3766 125.147 35.2241 124.971 35.2241C124.794 35.2241 124.65 35.3766 124.65 35.5646C124.65 35.7527 124.794 35.9052 124.971 35.9052Z" fill="#06555E"/>
</svg>
