<svg width="210" height="109" viewBox="0 0 210 109" fill="none" xmlns="http://www.w3.org/2000/svg">
<g clip-path="url(#clip0_393_92)">
<path opacity="0.2" d="M204.202 102.262H122.027C119.288 102.262 117.078 100.052 117.078 97.3143V11.5458C117.078 8.80778 119.288 6.5976 122.027 6.5976H204.202C206.94 6.5976 209.15 8.80778 209.15 11.5458V97.3143C209.15 100.052 206.94 102.262 204.202 102.262Z" fill="white"/>
<path opacity="0.42" d="M139.346 72.9362H186.817C188.466 72.9362 189.786 71.5837 189.786 69.8684C189.786 69.0437 189.489 68.252 188.895 67.6582L177.019 55.3207C175.865 54.1331 173.984 54.1331 172.83 55.3207L168.97 59.3452L159.205 49.2179C158.05 48.0304 156.17 48.0304 155.015 49.2179L137.201 67.7241C136.047 68.9447 136.08 70.891 137.234 72.0785C137.861 72.6063 138.587 72.9032 139.346 72.9362Z" fill="white"/>
<path opacity="0.42" d="M177.91 48.2613C181.189 48.2613 183.848 45.4995 183.848 42.0926C183.848 38.6857 181.189 35.9238 177.91 35.9238C174.63 35.9238 171.972 38.6857 171.972 42.0926C171.972 45.4995 174.63 48.2613 177.91 48.2613Z" fill="white"/>
<path opacity="0.42" d="M99.2308 10.6551H2.67209C1.64943 10.6551 0.824707 9.83041 0.824707 8.80778V8.44492C0.824707 7.42229 1.64943 6.5976 2.67209 6.5976H99.2308C100.253 6.5976 101.078 7.42229 101.078 8.44492V8.80778C101.078 9.83041 100.253 10.6551 99.2308 10.6551ZM67.9903 19.199H2.67209C1.64943 19.199 0.824707 18.3743 0.824707 17.3516V16.9888C0.824707 15.9662 1.64943 15.1415 2.67209 15.1415H67.9903C69.0129 15.1415 69.8376 15.9662 69.8376 16.9888V17.3516C69.8376 18.3743 69.0129 19.199 67.9903 19.199Z" fill="white"/>
<path opacity="0.2" d="M99.2308 34.9012H2.67209C1.64943 34.9012 0.824707 34.0765 0.824707 33.0539V32.691C0.824707 31.6684 1.64943 30.8437 2.67209 30.8437H99.2308C100.253 30.8437 101.078 31.6684 101.078 32.691V33.0539C101.078 34.0435 100.253 34.9012 99.2308 34.9012ZM99.2308 43.4121H2.67209C1.64943 43.4121 0.824707 42.5874 0.824707 41.5648V41.2019C0.824707 40.1793 1.64943 39.3546 2.67209 39.3546H99.2308C100.253 39.3546 101.078 40.1793 101.078 41.2019V41.5648C101.078 42.5874 100.253 43.4121 99.2308 43.4121ZM99.2308 51.9559H2.67209C1.64943 51.9559 0.824707 51.1312 0.824707 50.1086V49.7457C0.824707 48.7231 1.64943 47.8984 2.67209 47.8984H99.2308C100.253 47.8984 101.078 48.7231 101.078 49.7457V50.1086C101.078 51.1312 100.253 51.9559 99.2308 51.9559ZM80.0972 60.4998H2.67209C1.64943 60.4998 0.824707 59.6751 0.824707 58.6525V58.2896C0.824707 57.267 1.64943 56.4423 2.67209 56.4423H80.0972C81.1199 56.4423 81.9446 57.267 81.9446 58.2896V58.6525C81.9446 59.6751 81.1199 60.4998 80.0972 60.4998Z" fill="white"/>
<rect x="0.824707" y="68.7582" width="28.2009" height="9.62447" rx="4.81224" fill="#C8C8C8" fill-opacity="0.5"/>
<rect x="33.0256" y="68.7582" width="28.2009" height="9.62447" rx="4.81224" fill="#C8C8C8" fill-opacity="0.5"/>
</g>
<defs>
<clipPath id="clip0_393_92">
<rect width="209.48" height="108.86" fill="white"/>
</clipPath>
</defs>
</svg>
