<svg width="210" height="110" viewBox="0 0 210 110" fill="none" xmlns="http://www.w3.org/2000/svg">
<g clip-path="url(#clip0_393_410)">
<path opacity="0.2" d="M204.202 64.5728H122.027C119.288 64.5728 117.078 63.237 117.078 61.5823V9.74801C117.078 8.0933 119.288 6.75757 122.027 6.75757H204.202C206.94 6.75757 209.15 8.0933 209.15 9.74801V61.5823C209.15 63.237 206.94 64.5728 204.202 64.5728Z" fill="white"/>
<path opacity="0.42" d="M145.42 49.4682H180.827C182.057 49.4682 183.041 48.4595 183.041 47.18C183.041 46.5649 182.82 45.9744 182.377 45.5315L173.519 36.3295C172.658 35.4438 171.256 35.4438 170.394 36.3295L167.516 39.3312L160.232 31.7777C159.371 30.892 157.969 30.892 157.108 31.7777L143.821 45.5808C142.96 46.4911 142.984 47.9428 143.845 48.8285C144.313 49.2222 144.854 49.4436 145.42 49.4682Z" fill="white"/>
<path opacity="0.42" d="M174.184 31.0641C176.63 31.0641 178.613 29.0041 178.613 26.4631C178.613 23.922 176.63 21.8621 174.184 21.8621C171.738 21.8621 169.755 23.922 169.755 26.4631C169.755 29.0041 171.738 31.0641 174.184 31.0641Z" fill="white"/>
<path opacity="0.42" d="M98.1816 21.7354H1.84317C0.822844 21.7354 0 20.9107 0 19.888V19.5252C0 18.5026 0.822844 17.6779 1.84317 17.6779H98.1816C99.2019 17.6779 100.025 18.5026 100.025 19.5252V19.888C100.025 20.9107 99.2019 21.7354 98.1816 21.7354ZM67.0123 30.2792H1.84317C0.822844 30.2792 0 29.4545 0 28.4319V28.069C0 27.0464 0.822844 26.2217 1.84317 26.2217H67.0123C68.0326 26.2217 68.8554 27.0464 68.8554 28.069V28.4319C68.8554 29.4545 68.0326 30.2792 67.0123 30.2792Z" fill="white"/>
<path opacity="0.2" d="M98.1806 41.3084H1.84315C0.822837 41.3084 0 40.6927 0 39.9292V39.6583C0 38.8949 0.822837 38.2792 1.84315 38.2792H98.1806C99.2009 38.2792 100.024 38.8949 100.024 39.6583V39.9292C100.057 40.6927 99.2339 41.3084 98.1806 41.3084ZM74.7463 46.9481H1.84315C0.822837 46.9481 0 46.3324 0 45.5689V45.298C0 44.5346 0.822837 43.9189 1.84315 43.9189H74.7134C75.7337 43.9189 76.5565 44.5346 76.5565 45.298V45.5689C76.5894 46.3324 75.7666 46.9481 74.7463 46.9481Z" fill="white"/>
<rect y="54.9481" width="28.2009" height="9.62447" rx="4.81224" fill="#C8C8C8" fill-opacity="0.5"/>
<rect y="89.2416" width="27.2252" height="9.62447" rx="2" fill="#C8C8C8" fill-opacity="0.5"/>
<rect x="30.3209" y="89.2416" width="27.2252" height="9.62447" rx="2" fill="#C8C8C8" fill-opacity="0.5"/>
<rect x="60.6418" y="89.2416" width="27.2252" height="9.62447" rx="2" fill="#C8C8C8" fill-opacity="0.5"/>
<rect x="90.9627" y="89.2416" width="27.2252" height="9.62447" rx="2" fill="#C8C8C8" fill-opacity="0.5"/>
<rect x="121.284" y="89.2416" width="27.2252" height="9.62447" rx="2" fill="#C8C8C8" fill-opacity="0.5"/>
<rect x="151.604" y="89.2416" width="27.2252" height="9.62447" rx="2" fill="#C8C8C8" fill-opacity="0.5"/>
<rect x="181.925" y="89.2416" width="27.2252" height="9.62447" rx="2" fill="#C8C8C8" fill-opacity="0.5"/>
<rect x="58.9662" y="77.0693" width="91.5477" height="5.25891" rx="2.62946" fill="#C8C8C8" fill-opacity="0.5"/>
</g>
<defs>
<clipPath id="clip0_393_410">
<rect width="209.48" height="108.86" fill="white" transform="translate(0 0.159912)"/>
</clipPath>
</defs>
</svg>
