<svg width="210" height="110" viewBox="0 0 210 110" fill="none" xmlns="http://www.w3.org/2000/svg">
<path opacity="0.2" d="M203.677 56.7996H131.033C128.612 56.7996 126.658 55.591 126.658 54.0939V7.19577C126.658 5.69864 128.612 4.49011 131.033 4.49011H203.677C206.097 4.49011 208.051 5.69864 208.051 7.19577V54.0939C208.051 55.591 206.097 56.7996 203.677 56.7996Z" fill="white"/>
<path opacity="0.42" d="M149.558 45.6067H183.361C184.535 45.6067 185.475 44.5354 185.475 43.1767C185.475 42.5235 185.263 41.8965 184.841 41.4261L176.384 31.6541C175.562 30.7135 174.223 30.7135 173.401 31.6541L170.653 34.8418L163.7 26.8203C162.877 25.8797 161.538 25.8797 160.716 26.8203L148.032 41.4784C147.209 42.4452 147.233 43.9867 148.055 44.9274C148.501 45.3454 149.018 45.5806 149.558 45.6067Z" fill="white"/>
<path opacity="0.42" d="M176.068 26.0626C178.666 26.0626 180.772 23.875 180.772 21.1765C180.772 18.4781 178.666 16.2905 176.068 16.2905C173.471 16.2905 171.365 18.4781 171.365 21.1765C171.365 23.875 173.471 26.0626 176.068 26.0626Z" fill="white"/>
<path opacity="0.42" d="M69.4272 13.8973H3.80019C2.27968 13.8973 1.05347 13.0784 1.05347 12.0629V11.5387C1.05347 10.5232 2.27968 9.70422 3.80019 9.70422H69.3782C70.8987 9.70422 72.1249 10.5232 72.1249 11.5387V12.0301C72.174 13.0456 70.9478 13.8973 69.4272 13.8973Z" fill="#D9D9D9"/>
<path opacity="0.2" d="M105.375 22.9798H3.14438C1.98691 22.9798 1.05347 22.3533 1.05347 21.5764V21.3007C1.05347 20.5238 1.98691 19.8973 3.14438 19.8973H105.338C106.495 19.8973 107.429 20.5238 107.429 21.3007V21.5764C107.466 22.3533 106.533 22.9798 105.375 22.9798ZM105.375 29.4704H3.14438C1.98691 29.4704 1.05347 28.8439 1.05347 28.067V27.7914C1.05347 27.0145 1.98691 26.388 3.14438 26.388H105.338C106.495 26.388 107.429 27.0145 107.429 27.7914V28.067C107.466 28.8439 106.533 29.4704 105.375 29.4704ZM85.0634 35.9611H3.14438C1.98691 35.9611 1.05347 35.3346 1.05347 34.5577V34.282C1.05347 33.5051 1.98691 32.8786 3.14438 32.8786H85.0634C86.2208 32.8786 87.1543 33.5051 87.1543 34.282V34.5577C87.1543 35.3346 86.2208 35.9611 85.0634 35.9611Z" fill="white"/>
<rect y="41.9611" width="28.2009" height="9.62447" rx="4.81224" fill="#C8C8C8" fill-opacity="0.5"/>
<rect x="32.2009" y="41.9611" width="28.2009" height="9.62447" rx="4.81224" fill="#C8C8C8" fill-opacity="0.5"/>
<rect x="19.1023" y="69.4041" width="38.3189" height="36.0188" rx="2" fill="#C8C8C8" fill-opacity="0.5"/>
<path opacity="0.42" d="M25.2166 79.6586C26.9784 79.6586 28.4066 78.2385 28.4066 76.4867C28.4066 74.7348 26.9784 73.3147 25.2166 73.3147C23.4548 73.3147 22.0266 74.7348 22.0266 76.4867C22.0266 78.2385 23.4548 79.6586 25.2166 79.6586Z" fill="white"/>
<path opacity="0.42" d="M50.0843 84.6483H23.1538C22.5298 84.6483 22.0266 84.1452 22.0266 83.5215V83.1995C22.0266 82.5758 22.5298 82.0728 23.1538 82.0728H50.0642C50.6882 82.0728 51.1913 82.5758 51.1913 83.1995V83.5014C51.2115 84.1251 50.7083 84.6483 50.0843 84.6483Z" fill="white"/>
<path opacity="0.42" d="M40.4569 101.512H22.767C22.3571 101.512 22.0266 100.89 22.0266 100.118V99.7191C22.0266 98.9472 22.3571 98.3246 22.767 98.3246H40.4437C40.8536 98.3246 41.1841 98.9472 41.1841 99.7191V100.093C41.1973 100.865 40.8668 101.512 40.4569 101.512Z" fill="white"/>
<path opacity="0.2" d="M53.8697 89.1523H22.6648C22.3115 89.1523 22.0266 88.8466 22.0266 88.4676V88.3331C22.0266 87.954 22.3115 87.6483 22.6648 87.6483H53.8583C54.2116 87.6483 54.4966 87.954 54.4966 88.3331V88.4676C54.508 88.8466 54.223 89.1523 53.8697 89.1523ZM53.8697 92.3194H22.6648C22.3115 92.3194 22.0266 92.0137 22.0266 91.6346V91.5001C22.0266 91.121 22.3115 90.8153 22.6648 90.8153H53.8583C54.2116 90.8153 54.4966 91.121 54.4966 91.5001V91.6346C54.508 92.0137 54.223 92.3194 53.8697 92.3194ZM47.6698 95.4864H22.6648C22.3115 95.4864 22.0266 95.1807 22.0266 94.8016V94.6671C22.0266 94.2881 22.3115 93.9824 22.6648 93.9824H47.6698C48.0231 93.9824 48.308 94.2881 48.308 94.6671V94.8016C48.308 95.1807 48.0231 95.4864 47.6698 95.4864Z" fill="white"/>
<rect x="63.4211" y="69.4041" width="38.3189" height="36.0188" rx="2" fill="#C8C8C8" fill-opacity="0.5"/>
<path opacity="0.42" d="M69.5355 79.6586C71.2973 79.6586 72.7255 78.2385 72.7255 76.4867C72.7255 74.7348 71.2973 73.3147 69.5355 73.3147C67.7737 73.3147 66.3455 74.7348 66.3455 76.4867C66.3455 78.2385 67.7737 79.6586 69.5355 79.6586Z" fill="white"/>
<path opacity="0.42" d="M94.4032 84.6483H67.4726C66.8486 84.6483 66.3455 84.1452 66.3455 83.5215V83.1995C66.3455 82.5758 66.8486 82.0728 67.4726 82.0728H94.3831C95.007 82.0728 95.5102 82.5758 95.5102 83.1995V83.5014C95.5303 84.1251 95.0271 84.6483 94.4032 84.6483Z" fill="white"/>
<path opacity="0.42" d="M84.7758 101.512H67.0858C66.676 101.512 66.3455 100.89 66.3455 100.118V99.7191C66.3455 98.9472 66.676 98.3246 67.0858 98.3246H84.7626C85.1724 98.3246 85.5029 98.9472 85.5029 99.7191V100.093C85.5162 100.865 85.1856 101.512 84.7758 101.512Z" fill="white"/>
<path opacity="0.2" d="M98.1886 89.1523H66.9837C66.6304 89.1523 66.3455 88.8466 66.3455 88.4676V88.3331C66.3455 87.954 66.6304 87.6483 66.9837 87.6483H98.1772C98.5305 87.6483 98.8154 87.954 98.8154 88.3331V88.4676C98.8268 88.8466 98.5419 89.1523 98.1886 89.1523ZM98.1886 92.3194H66.9837C66.6304 92.3194 66.3455 92.0137 66.3455 91.6346V91.5001C66.3455 91.121 66.6304 90.8153 66.9837 90.8153H98.1772C98.5305 90.8153 98.8154 91.121 98.8154 91.5001V91.6346C98.8268 92.0137 98.5419 92.3194 98.1886 92.3194ZM91.9886 95.4864H66.9837C66.6304 95.4864 66.3455 95.1807 66.3455 94.8016V94.6671C66.3455 94.2881 66.6304 93.9824 66.9837 93.9824H91.9886C92.3419 93.9824 92.6269 94.2881 92.6269 94.6671V94.8016C92.6269 95.1807 92.3419 95.4864 91.9886 95.4864Z" fill="white"/>
<rect x="107.74" y="69.4041" width="38.3189" height="36.0188" rx="2" fill="#C8C8C8" fill-opacity="0.5"/>
<path opacity="0.42" d="M113.854 79.6586C115.616 79.6586 117.044 78.2385 117.044 76.4867C117.044 74.7348 115.616 73.3147 113.854 73.3147C112.093 73.3147 110.664 74.7348 110.664 76.4867C110.664 78.2385 112.093 79.6586 113.854 79.6586Z" fill="white"/>
<path opacity="0.42" d="M138.722 84.6483H111.791C111.167 84.6483 110.664 84.1452 110.664 83.5215V83.1995C110.664 82.5758 111.167 82.0728 111.791 82.0728H138.702C139.326 82.0728 139.829 82.5758 139.829 83.1995V83.5014C139.849 84.1251 139.346 84.6483 138.722 84.6483Z" fill="white"/>
<path opacity="0.42" d="M129.095 101.512H111.405C110.995 101.512 110.664 100.89 110.664 100.118V99.7191C110.664 98.9472 110.995 98.3246 111.405 98.3246H129.081C129.491 98.3246 129.822 98.9472 129.822 99.7191V100.093C129.835 100.865 129.504 101.512 129.095 101.512Z" fill="white"/>
<path opacity="0.2" d="M142.507 89.1523H111.303C110.949 89.1523 110.664 88.8466 110.664 88.4676V88.3331C110.664 87.954 110.949 87.6483 111.303 87.6483H142.496C142.849 87.6483 143.134 87.954 143.134 88.3331V88.4676C143.146 88.8466 142.861 89.1523 142.507 89.1523ZM142.507 92.3194H111.303C110.949 92.3194 110.664 92.0137 110.664 91.6346V91.5001C110.664 91.121 110.949 90.8153 111.303 90.8153H142.496C142.849 90.8153 143.134 91.121 143.134 91.5001V91.6346C143.146 92.0137 142.861 92.3194 142.507 92.3194ZM136.307 95.4864H111.303C110.949 95.4864 110.664 95.1807 110.664 94.8016V94.6671C110.664 94.2881 110.949 93.9824 111.303 93.9824H136.307C136.661 93.9824 136.946 94.2881 136.946 94.6671V94.8016C136.946 95.1807 136.661 95.4864 136.307 95.4864Z" fill="white"/>
<rect x="152.059" y="69.4041" width="38.3189" height="36.0188" rx="2" fill="#C8C8C8" fill-opacity="0.5"/>
<path opacity="0.42" d="M158.173 79.6586C159.935 79.6586 161.363 78.2385 161.363 76.4867C161.363 74.7348 159.935 73.3147 158.173 73.3147C156.411 73.3147 154.983 74.7348 154.983 76.4867C154.983 78.2385 156.411 79.6586 158.173 79.6586Z" fill="white"/>
<path opacity="0.42" d="M183.041 84.6483H156.11C155.486 84.6483 154.983 84.1452 154.983 83.5215V83.1995C154.983 82.5758 155.486 82.0728 156.11 82.0728H183.021C183.645 82.0728 184.148 82.5758 184.148 83.1995V83.5014C184.168 84.1251 183.665 84.6483 183.041 84.6483Z" fill="white"/>
<path opacity="0.42" d="M173.413 101.512H155.724C155.314 101.512 154.983 100.89 154.983 100.118V99.7191C154.983 98.9472 155.314 98.3246 155.724 98.3246H173.4C173.81 98.3246 174.141 98.9472 174.141 99.7191V100.093C174.154 100.865 173.823 101.512 173.413 101.512Z" fill="white"/>
<path opacity="0.2" d="M186.826 89.1523H155.621C155.268 89.1523 154.983 88.8466 154.983 88.4676V88.3331C154.983 87.954 155.268 87.6483 155.621 87.6483H186.815C187.168 87.6483 187.453 87.954 187.453 88.3331V88.4676C187.464 88.8466 187.18 89.1523 186.826 89.1523ZM186.826 92.3194H155.621C155.268 92.3194 154.983 92.0137 154.983 91.6346V91.5001C154.983 91.121 155.268 90.8153 155.621 90.8153H186.815C187.168 90.8153 187.453 91.121 187.453 91.5001V91.6346C187.464 92.0137 187.18 92.3194 186.826 92.3194ZM180.626 95.4864H155.621C155.268 95.4864 154.983 95.1807 154.983 94.8016V94.6671C154.983 94.2881 155.268 93.9824 155.621 93.9824H180.626C180.98 93.9824 181.265 94.2881 181.265 94.6671V94.8016C181.265 95.1807 180.98 95.4864 180.626 95.4864Z" fill="white"/>
</svg>
