<svg width="203" height="107" viewBox="0 0 203 107" fill="none" xmlns="http://www.w3.org/2000/svg">
<path opacity="0.42" d="M140.567 11.0751H62.4594C61.6324 11.0751 60.9655 10.4051 60.9655 9.57415V9.27931C60.9655 8.44841 61.6324 7.77832 62.4594 7.77832H140.54C141.367 7.77832 142.034 8.44841 142.034 9.27931V9.57415C142.06 10.4051 141.394 11.0751 140.567 11.0751ZM131.043 17.2131H71.9827C71.1557 17.2131 70.4888 16.543 70.4888 15.7121V15.4173C70.4888 14.5864 71.1557 13.9163 71.9827 13.9163H131.043C131.87 13.9163 132.537 14.5864 132.537 15.4173V15.7121C132.564 16.543 131.87 17.2131 131.043 17.2131Z" fill="white"/>
<path opacity="0.2" d="M151.5 23.5548H51.5C50.7148 23.5548 50.0816 23.0789 50.0816 22.4887V22.2793C50.0816 21.6891 50.7148 21.2131 51.5 21.2131H151.5C152.285 21.2131 152.918 21.6891 152.918 22.2793V22.4887C152.918 23.0598 152.285 23.5548 151.5 23.5548ZM148.207 28.4858H54.7929C54.0076 28.4858 53.3744 28.0098 53.3744 27.4196V27.2102C53.3744 26.62 54.0076 26.144 54.7929 26.144H148.207C148.992 26.144 149.626 26.62 149.626 27.2102V27.4196C149.626 27.9908 148.992 28.4858 148.207 28.4858ZM145.421 33.4167H57.5791C56.7939 33.4167 56.1606 32.9407 56.1606 32.3505V32.1411C56.1606 31.5509 56.7939 31.075 57.5791 31.075H145.421C146.206 31.075 146.839 31.5509 146.839 32.1411V32.3505C146.839 32.9217 146.206 33.4167 145.421 33.4167Z" fill="white"/>
<path opacity="0.42" d="M110.021 44.755H92.9793C90.9587 44.755 89.3276 43.1161 89.3276 41.0858C89.3276 39.0555 90.9587 37.4166 92.9793 37.4166H110.021C112.041 37.4166 113.672 39.0555 113.672 41.0858C113.672 43.0916 112.041 44.755 110.021 44.755Z" fill="white"/>
<rect x="9.8623" y="52.755" width="38.3189" height="45.4189" rx="2" fill="#C8C8C8" fill-opacity="0.5"/>
<path opacity="0.42" d="M15.9324 62.1711C17.6942 62.1711 19.1224 60.751 19.1224 58.9991C19.1224 57.2473 17.6942 55.8271 15.9324 55.8271C14.1706 55.8271 12.7424 57.2473 12.7424 58.9991C12.7424 60.751 14.1706 62.1711 15.9324 62.1711Z" fill="white"/>
<path opacity="0.42" d="M40.8001 67.1607H13.8695C13.2456 67.1607 12.7424 66.6577 12.7424 66.0339V65.712C12.7424 65.0882 13.2456 64.5852 13.8695 64.5852H40.78C41.4039 64.5852 41.9071 65.0882 41.9071 65.712V66.0138C41.9272 66.6376 41.424 67.1607 40.8001 67.1607Z" fill="white"/>
<path opacity="0.42" d="M31.1727 94.0246H13.4828C13.0729 94.0246 12.7424 93.402 12.7424 92.63V92.2316C12.7424 91.4596 13.0729 90.837 13.4828 90.837H31.1595C31.5693 90.837 31.8998 91.4596 31.8998 92.2316V92.6051C31.9131 93.3771 31.5825 94.0246 31.1727 94.0246Z" fill="white"/>
<path opacity="0.2" d="M44.5855 71.6648H13.3806C13.0273 71.6648 12.7424 71.3591 12.7424 70.98V70.8455C12.7424 70.4665 13.0273 70.1608 13.3806 70.1608H44.5741C44.9274 70.1608 45.2123 70.4665 45.2123 70.8455V70.98C45.2237 71.3591 44.9388 71.6648 44.5855 71.6648ZM44.5855 74.8318H13.3806C13.0273 74.8318 12.7424 74.5261 12.7424 74.1471V74.0126C12.7424 73.6335 13.0273 73.3278 13.3806 73.3278H44.5741C44.9274 73.3278 45.2123 73.6335 45.2123 74.0126V74.1471C45.2237 74.5261 44.9388 74.8318 44.5855 74.8318ZM38.3855 77.9988H13.3806C13.0273 77.9988 12.7424 77.6931 12.7424 77.3141V77.1796C12.7424 76.8005 13.0273 76.4948 13.3806 76.4948H38.3855C38.7388 76.4948 39.0238 76.8005 39.0238 77.1796V77.3141C39.0238 77.6931 38.7388 77.9988 38.3855 77.9988Z" fill="white"/>
<path opacity="0.2" d="M44.5855 81.5029H13.3806C13.0273 81.5029 12.7424 81.1972 12.7424 80.8182V80.6837C12.7424 80.3046 13.0273 79.9989 13.3806 79.9989H44.5741C44.9274 79.9989 45.2123 80.3046 45.2123 80.6837V80.8182C45.2237 81.1972 44.9388 81.5029 44.5855 81.5029ZM44.5855 84.67H13.3806C13.0273 84.67 12.7424 84.3643 12.7424 83.9852V83.8507C12.7424 83.4716 13.0273 83.1659 13.3806 83.1659H44.5741C44.9274 83.1659 45.2123 83.4716 45.2123 83.8507V83.9852C45.2237 84.3643 44.9388 84.67 44.5855 84.67ZM38.3855 87.837H13.3806C13.0273 87.837 12.7424 87.5313 12.7424 87.1522V87.0177C12.7424 86.6386 13.0273 86.3329 13.3806 86.3329H38.3855C38.7388 86.3329 39.0238 86.6386 39.0238 87.0177V87.1522C39.0238 87.5313 38.7388 87.837 38.3855 87.837Z" fill="white"/>
<rect x="58.1812" y="52.755" width="38.3189" height="45.4189" rx="2" fill="#C8C8C8" fill-opacity="0.5"/>
<path opacity="0.42" d="M64.2512 62.1711C66.013 62.1711 67.4412 60.751 67.4412 58.9991C67.4412 57.2473 66.013 55.8271 64.2512 55.8271C62.4894 55.8271 61.0612 57.2473 61.0612 58.9991C61.0612 60.751 62.4894 62.1711 64.2512 62.1711Z" fill="white"/>
<path opacity="0.42" d="M89.1189 67.1607H62.1884C61.5644 67.1607 61.0612 66.6577 61.0612 66.0339V65.712C61.0612 65.0882 61.5644 64.5852 62.1884 64.5852H89.0988C89.7228 64.5852 90.226 65.0882 90.226 65.712V66.0138C90.2461 66.6376 89.7429 67.1607 89.1189 67.1607Z" fill="white"/>
<path opacity="0.42" d="M79.4915 94.0246H61.8016C61.3917 94.0246 61.0612 93.402 61.0612 92.63V92.2316C61.0612 91.4596 61.3917 90.837 61.8016 90.837H79.4783C79.8882 90.837 80.2187 91.4596 80.2187 92.2316V92.6051C80.2319 93.3771 79.9014 94.0246 79.4915 94.0246Z" fill="white"/>
<path opacity="0.2" d="M92.9043 71.6648H61.6994C61.3461 71.6648 61.0612 71.3591 61.0612 70.98V70.8455C61.0612 70.4665 61.3461 70.1608 61.6994 70.1608H92.8929C93.2462 70.1608 93.5312 70.4665 93.5312 70.8455V70.98C93.5426 71.3591 93.2576 71.6648 92.9043 71.6648ZM92.9043 74.8318H61.6994C61.3461 74.8318 61.0612 74.5261 61.0612 74.1471V74.0126C61.0612 73.6335 61.3461 73.3278 61.6994 73.3278H92.8929C93.2462 73.3278 93.5312 73.6335 93.5312 74.0126V74.1471C93.5426 74.5261 93.2576 74.8318 92.9043 74.8318ZM86.7044 77.9988H61.6994C61.3461 77.9988 61.0612 77.6931 61.0612 77.3141V77.1796C61.0612 76.8005 61.3461 76.4948 61.6994 76.4948H86.7044C87.0577 76.4948 87.3426 76.8005 87.3426 77.1796V77.3141C87.3426 77.6931 87.0577 77.9988 86.7044 77.9988Z" fill="white"/>
<path opacity="0.2" d="M92.9043 81.5029H61.6994C61.3461 81.5029 61.0612 81.1972 61.0612 80.8182V80.6837C61.0612 80.3046 61.3461 79.9989 61.6994 79.9989H92.8929C93.2462 79.9989 93.5312 80.3046 93.5312 80.6837V80.8182C93.5426 81.1972 93.2576 81.5029 92.9043 81.5029ZM92.9043 84.67H61.6994C61.3461 84.67 61.0612 84.3643 61.0612 83.9852V83.8507C61.0612 83.4716 61.3461 83.1659 61.6994 83.1659H92.8929C93.2462 83.1659 93.5312 83.4716 93.5312 83.8507V83.9852C93.5426 84.3643 93.2576 84.67 92.9043 84.67ZM86.7044 87.837H61.6994C61.3461 87.837 61.0612 87.5313 61.0612 87.1522V87.0177C61.0612 86.6386 61.3461 86.3329 61.6994 86.3329H86.7044C87.0577 86.3329 87.3426 86.6386 87.3426 87.0177V87.1522C87.3426 87.5313 87.0577 87.837 86.7044 87.837Z" fill="white"/>
<rect x="106.5" y="52.755" width="38.3189" height="45.4189" rx="2" fill="#C8C8C8" fill-opacity="0.5"/>
<path opacity="0.42" d="M112.57 62.1711C114.332 62.1711 115.76 60.751 115.76 58.9991C115.76 57.2473 114.332 55.8271 112.57 55.8271C110.808 55.8271 109.38 57.2473 109.38 58.9991C109.38 60.751 110.808 62.1711 112.57 62.1711Z" fill="white"/>
<path opacity="0.42" d="M137.438 67.1607H110.507C109.883 67.1607 109.38 66.6577 109.38 66.0339V65.712C109.38 65.0882 109.883 64.5852 110.507 64.5852H137.418C138.042 64.5852 138.545 65.0882 138.545 65.712V66.0138C138.565 66.6376 138.062 67.1607 137.438 67.1607Z" fill="white"/>
<path opacity="0.42" d="M127.81 94.0246H110.12C109.711 94.0246 109.38 93.402 109.38 92.63V92.2316C109.38 91.4596 109.711 90.837 110.12 90.837H127.797C128.207 90.837 128.538 91.4596 128.538 92.2316V92.6051C128.551 93.3771 128.22 94.0246 127.81 94.0246Z" fill="white"/>
<path opacity="0.2" d="M141.223 71.6648H110.018C109.665 71.6648 109.38 71.3591 109.38 70.98V70.8455C109.38 70.4665 109.665 70.1608 110.018 70.1608H141.212C141.565 70.1608 141.85 70.4665 141.85 70.8455V70.98C141.861 71.3591 141.576 71.6648 141.223 71.6648ZM141.223 74.8318H110.018C109.665 74.8318 109.38 74.5261 109.38 74.1471V74.0126C109.38 73.6335 109.665 73.3278 110.018 73.3278H141.212C141.565 73.3278 141.85 73.6335 141.85 74.0126V74.1471C141.861 74.5261 141.576 74.8318 141.223 74.8318ZM135.023 77.9988H110.018C109.665 77.9988 109.38 77.6931 109.38 77.3141V77.1796C109.38 76.8005 109.665 76.4948 110.018 76.4948H135.023C135.377 76.4948 135.661 76.8005 135.661 77.1796V77.3141C135.661 77.6931 135.377 77.9988 135.023 77.9988Z" fill="white"/>
<path opacity="0.2" d="M141.223 81.5029H110.018C109.665 81.5029 109.38 81.1972 109.38 80.8182V80.6837C109.38 80.3046 109.665 79.9989 110.018 79.9989H141.212C141.565 79.9989 141.85 80.3046 141.85 80.6837V80.8182C141.861 81.1972 141.576 81.5029 141.223 81.5029ZM141.223 84.67H110.018C109.665 84.67 109.38 84.3643 109.38 83.9852V83.8507C109.38 83.4716 109.665 83.1659 110.018 83.1659H141.212C141.565 83.1659 141.85 83.4716 141.85 83.8507V83.9852C141.861 84.3643 141.576 84.67 141.223 84.67ZM135.023 87.837H110.018C109.665 87.837 109.38 87.5313 109.38 87.1522V87.0177C109.38 86.6386 109.665 86.3329 110.018 86.3329H135.023C135.377 86.3329 135.661 86.6386 135.661 87.0177V87.1522C135.661 87.5313 135.377 87.837 135.023 87.837Z" fill="white"/>
<rect x="154.819" y="52.755" width="38.3189" height="45.4189" rx="2" fill="#C8C8C8" fill-opacity="0.5"/>
<path opacity="0.42" d="M160.889 62.1711C162.651 62.1711 164.079 60.751 164.079 58.9991C164.079 57.2473 162.651 55.8271 160.889 55.8271C159.127 55.8271 157.699 57.2473 157.699 58.9991C157.699 60.751 159.127 62.1711 160.889 62.1711Z" fill="white"/>
<path opacity="0.42" d="M185.757 67.1607H158.826C158.202 67.1607 157.699 66.6577 157.699 66.0339V65.712C157.699 65.0882 158.202 64.5852 158.826 64.5852H185.737C186.36 64.5852 186.864 65.0882 186.864 65.712V66.0138C186.884 66.6376 186.381 67.1607 185.757 67.1607Z" fill="white"/>
<path opacity="0.42" d="M176.129 94.0246H158.439C158.029 94.0246 157.699 93.402 157.699 92.63V92.2316C157.699 91.4596 158.029 90.837 158.439 90.837H176.116C176.526 90.837 176.856 91.4596 176.856 92.2316V92.6051C176.87 93.3771 176.539 94.0246 176.129 94.0246Z" fill="white"/>
<path opacity="0.2" d="M189.542 71.6648H158.337C157.984 71.6648 157.699 71.3591 157.699 70.98V70.8455C157.699 70.4665 157.984 70.1608 158.337 70.1608H189.531C189.884 70.1608 190.169 70.4665 190.169 70.8455V70.98C190.18 71.3591 189.895 71.6648 189.542 71.6648ZM189.542 74.8318H158.337C157.984 74.8318 157.699 74.5261 157.699 74.1471V74.0126C157.699 73.6335 157.984 73.3278 158.337 73.3278H189.531C189.884 73.3278 190.169 73.6335 190.169 74.0126V74.1471C190.18 74.5261 189.895 74.8318 189.542 74.8318ZM183.342 77.9988H158.337C157.984 77.9988 157.699 77.6931 157.699 77.3141V77.1796C157.699 76.8005 157.984 76.4948 158.337 76.4948H183.342C183.695 76.4948 183.98 76.8005 183.98 77.1796V77.3141C183.98 77.6931 183.695 77.9988 183.342 77.9988Z" fill="white"/>
<path opacity="0.2" d="M189.542 81.5029H158.337C157.984 81.5029 157.699 81.1972 157.699 80.8182V80.6837C157.699 80.3046 157.984 79.9989 158.337 79.9989H189.531C189.884 79.9989 190.169 80.3046 190.169 80.6837V80.8182C190.18 81.1972 189.895 81.5029 189.542 81.5029ZM189.542 84.67H158.337C157.984 84.67 157.699 84.3643 157.699 83.9852V83.8507C157.699 83.4716 157.984 83.1659 158.337 83.1659H189.531C189.884 83.1659 190.169 83.4716 190.169 83.8507V83.9852C190.18 84.3643 189.895 84.67 189.542 84.67ZM183.342 87.837H158.337C157.984 87.837 157.699 87.5313 157.699 87.1522V87.0177C157.699 86.6386 157.984 86.3329 158.337 86.3329H183.342C183.695 86.3329 183.98 86.6386 183.98 87.0177V87.1522C183.98 87.5313 183.695 87.837 183.342 87.837Z" fill="white"/>
</svg>
