<svg width="210" height="110" viewBox="0 0 210 110" fill="none" xmlns="http://www.w3.org/2000/svg">
<rect width="209.48" height="108.86" transform="translate(0.52002 0.859863)" fill="white" fill-opacity="0.1"/>
<path opacity="0.42" d="M79.3826 103.451H131.165C132.964 103.451 134.403 101.975 134.403 100.103C134.403 99.2035 134.079 98.3395 133.432 97.6915L120.477 84.2279C119.218 82.932 117.167 82.932 115.907 84.2279L111.697 88.6198L101.045 77.5682C99.7859 76.2722 97.7348 76.2722 96.4753 77.5682L77.0436 97.7635C75.7842 99.0955 75.8201 101.219 77.0796 102.515C77.7633 103.091 78.555 103.415 79.3826 103.451Z" fill="white" fill-opacity="0.55"/>
<path opacity="0.42" d="M121.448 76.5244C125.026 76.5244 127.926 73.5104 127.926 69.7926C127.926 66.0747 125.026 63.0608 121.448 63.0608C117.871 63.0608 114.971 66.0747 114.971 69.7926C114.971 73.5104 117.871 76.5244 121.448 76.5244Z" fill="white" fill-opacity="0.55"/>
<g opacity="0.2">
<path d="M171.999 22.4331H38.5213C37.0095 22.4331 35.7903 21.2958 35.7903 19.8856V19.3852C35.7903 17.9749 37.0095 16.8376 38.5213 16.8376H171.999C173.51 16.8376 174.73 17.9749 174.73 19.3852V19.8856C174.73 21.2958 173.51 22.4331 171.999 22.4331Z" fill="white"/>
<path d="M171.999 21.9331H38.5213C37.2524 21.9331 36.2903 20.9875 36.2903 19.8856V19.3852C36.2903 18.2833 37.2524 17.3376 38.5213 17.3376H171.999C173.268 17.3376 174.23 18.2833 174.23 19.3852V19.8856C174.23 20.9875 173.268 21.9331 171.999 21.9331Z" stroke="#DCDCDC" stroke-opacity="0.52"/>
</g>
<g opacity="0.2">
<path d="M179.364 31.0286H31.1559C29.4773 31.0286 28.1235 29.8913 28.1235 28.481V27.9806C28.1235 26.5704 29.4773 25.4331 31.1559 25.4331H179.364C181.043 25.4331 182.396 26.5704 182.396 27.9806V28.481C182.396 29.8913 181.043 31.0286 179.364 31.0286Z" fill="white"/>
<path d="M179.364 30.5286H31.1559C29.6683 30.5286 28.6235 29.537 28.6235 28.481V27.9806C28.6235 26.9246 29.6683 25.9331 31.1559 25.9331H179.364C180.852 25.9331 181.896 26.9246 181.896 27.9806V28.481C181.896 29.537 180.852 30.5286 179.364 30.5286Z" stroke="#DCDCDC" stroke-opacity="0.52"/>
</g>
<path opacity="0.42" d="M136.348 11.8377H74.2169C72.7774 11.8377 71.6165 11.0133 71.6165 9.99092V9.46326C71.6165 8.44092 72.7774 7.61646 74.2169 7.61646H136.302C137.741 7.61646 138.902 8.44092 138.902 9.46326V9.95794C138.949 10.9803 137.788 11.8377 136.348 11.8377Z" fill="white"/>
<rect x="75.0591" y="36.0286" width="28.2009" height="9.62447" rx="4.81224" fill="#C8C8C8" fill-opacity="0.5"/>
<rect x="107.26" y="36.0286" width="28.2009" height="9.62447" rx="4.81224" fill="#C8C8C8" fill-opacity="0.5"/>
</svg>
