<svg width="203" height="106" viewBox="0 0 203 106" fill="none" xmlns="http://www.w3.org/2000/svg">
<path opacity="0.42" d="M145.272 5.36399H57.7574C56.8308 5.36399 56.0836 4.6132 56.0836 3.68222V3.35187C56.0836 2.4209 56.8308 1.6701 57.7574 1.6701H145.242C146.168 1.6701 146.916 2.4209 146.916 3.35187V3.68222C146.945 4.6132 146.198 5.36399 145.272 5.36399ZM134.601 12.2412H68.4277C67.5011 12.2412 66.7539 11.4904 66.7539 10.5594V10.2291C66.7539 9.29812 67.5011 8.54733 68.4277 8.54733H134.601C135.528 8.54733 136.275 9.29812 136.275 10.2291V10.5594C136.305 11.4904 135.528 12.2412 134.601 12.2412Z" fill="white"/>
<path opacity="0.2" d="M157.522 21.5876H45.4781C44.5984 21.5876 43.8889 21.0543 43.8889 20.3931V20.1584C43.8889 19.4971 44.5984 18.9639 45.4781 18.9639H157.522C158.402 18.9639 159.111 19.4971 159.111 20.1584V20.3931C159.111 21.033 158.402 21.5876 157.522 21.5876ZM153.833 27.1124H49.1675C48.2877 27.1124 47.5782 26.5791 47.5782 25.9178V25.6832C47.5782 25.0219 48.2877 24.4887 49.1675 24.4887H153.833C154.712 24.4887 155.422 25.0219 155.422 25.6832V25.9178C155.422 26.5578 154.712 27.1124 153.833 27.1124ZM150.711 32.6372H52.2893C51.4095 32.6372 50.7 32.1039 50.7 31.4426V31.208C50.7 30.5467 51.4095 30.0134 52.2893 30.0134H150.711C151.591 30.0134 152.3 30.5467 152.3 31.208V31.4426C152.3 32.0826 151.591 32.6372 150.711 32.6372Z" fill="white"/>
<path opacity="0.42" d="M95.7663 47.582H76.6725C74.4085 47.582 72.5809 45.7457 72.5809 43.4709C72.5809 41.1961 74.4085 39.3599 76.6725 39.3599H95.7663C98.0303 39.3599 99.8579 41.1961 99.8579 43.4709C99.8579 45.7183 98.0303 47.582 95.7663 47.582Z" fill="white"/>
<path opacity="0.42" d="M126.327 47.582H107.234C104.97 47.582 103.142 45.7457 103.142 43.4709C103.142 41.1961 104.97 39.3599 107.234 39.3599H126.327C128.591 39.3599 130.419 41.1961 130.419 43.4709C130.419 45.7183 128.591 47.582 126.327 47.582Z" fill="white"/>
<path opacity="0.2" d="M157.434 104.33H45.5657C41.8382 104.33 38.8293 103.244 38.8293 101.898V59.7433C38.8293 58.3976 41.8382 57.3113 45.5657 57.3113H157.434C161.162 57.3113 164.171 58.3976 164.171 59.7433V101.898C164.171 103.244 161.162 104.33 157.434 104.33Z" fill="white"/>
<path opacity="0.42" d="M87.7998 89.5165H115.215C116.167 89.5165 116.929 88.688 116.929 87.6372C116.929 87.1321 116.758 86.6471 116.415 86.2833L109.556 78.7258C108.89 77.9983 107.804 77.9983 107.137 78.7258L104.908 81.1911L99.2687 74.9874C98.6019 74.2599 97.5159 74.2599 96.8491 74.9874L86.5614 86.3238C85.8946 87.0714 85.9137 88.2637 86.5805 88.9911C86.9424 89.3145 87.3616 89.4963 87.7998 89.5165Z" fill="white"/>
<path opacity="0.42" d="M110.071 74.4014C111.965 74.4014 113.5 72.7096 113.5 70.6226C113.5 68.5356 111.965 66.8438 110.071 66.8438C108.177 66.8438 106.642 68.5356 106.642 70.6226C106.642 72.7096 108.177 74.4014 110.071 74.4014Z" fill="white"/>
</svg>
