<svg width="210" height="109" viewBox="0 0 210 109" fill="none" xmlns="http://www.w3.org/2000/svg">
<path opacity="0.42" d="M23.0923 73.0762H70.5634C72.2128 73.0762 73.5324 71.7237 73.5324 70.0084C73.5324 69.1837 73.2355 68.392 72.6417 67.7982L60.7657 55.4607C59.611 54.2732 57.7307 54.2732 56.5761 55.4607L52.7164 59.4852L42.9516 49.358C41.797 48.1704 39.9166 48.1704 38.762 49.358L20.948 67.8642C19.7934 69.0847 19.8263 71.031 20.981 72.2186C21.6077 72.7464 22.3335 73.0433 23.0923 73.0762Z" fill="white"/>
<path opacity="0.42" d="M61.6564 48.4013C64.9359 48.4013 67.5944 45.6394 67.5944 42.2325C67.5944 38.8256 64.9359 36.0638 61.6564 36.0638C58.3769 36.0638 55.7184 38.8256 55.7184 42.2325C55.7184 45.6394 58.3769 48.4013 61.6564 48.4013Z" fill="white"/>
<path opacity="0.2" d="M87.9486 102.402H5.77305C3.03497 102.402 0.824707 100.192 0.824707 97.4542V11.6858C0.824707 8.94777 3.03497 6.73758 5.77305 6.73758H87.9486C90.6867 6.73758 92.8969 8.94777 92.8969 11.6858V97.4542C92.8969 100.192 90.6867 102.402 87.9486 102.402Z" fill="white"/>
<path opacity="0.42" d="M206.808 18.9431H110.249C109.227 18.9431 108.402 18.1184 108.402 17.0958V16.7329C108.402 15.7103 109.227 14.8856 110.249 14.8856H206.808C207.831 14.8856 208.655 15.7103 208.655 16.7329V17.0958C208.655 18.1184 207.831 18.9431 206.808 18.9431ZM175.567 27.487H110.249C109.227 27.487 108.402 26.6623 108.402 25.6396V25.2768C108.402 24.2541 109.227 23.4294 110.249 23.4294H175.567C176.59 23.4294 177.415 24.2541 177.415 25.2768V25.6396C177.415 26.6623 176.59 27.487 175.567 27.487Z" fill="white"/>
<path opacity="0.2" d="M206.808 43.1892H110.249C109.227 43.1892 108.402 42.3645 108.402 41.3419V40.979C108.402 39.9564 109.227 39.1317 110.249 39.1317H206.808C207.831 39.1317 208.655 39.9564 208.655 40.979V41.3419C208.655 42.3315 207.831 43.1892 206.808 43.1892ZM206.808 51.7001H110.249C109.227 51.7001 108.402 50.8754 108.402 49.8527V49.4899C108.402 48.4673 109.227 47.6426 110.249 47.6426H206.808C207.831 47.6426 208.655 48.4673 208.655 49.4899V49.8527C208.655 50.8754 207.831 51.7001 206.808 51.7001ZM206.808 60.2439H110.249C109.227 60.2439 108.402 59.4192 108.402 58.3966V58.0337C108.402 57.0111 109.227 56.1864 110.249 56.1864H206.808C207.831 56.1864 208.655 57.0111 208.655 58.0337V58.3966C208.655 59.4192 207.831 60.2439 206.808 60.2439ZM187.674 68.7878H110.249C109.227 68.7878 108.402 67.9631 108.402 66.9405V66.5776C108.402 65.555 109.227 64.7303 110.249 64.7303H187.674C188.697 64.7303 189.522 65.555 189.522 66.5776V66.9405C189.522 67.9631 188.697 68.7878 187.674 68.7878Z" fill="white"/>
<rect x="108.402" y="77.0463" width="28.2009" height="9.62447" rx="4.81224" fill="#C8C8C8" fill-opacity="0.5"/>
</svg>
