<svg width="210" height="109" viewBox="0 0 210 109" fill="none" xmlns="http://www.w3.org/2000/svg">
<g clip-path="url(#clip0_481_1180)">
<rect x="-19" y="-28" width="229" height="65.0951" fill="#D9D9D9" fill-opacity="0.09"/>
<rect x="-19" y="37.0951" width="229" height="55.9041" fill="#D9D9D9" fill-opacity="0.17"/>
<path opacity="0.42" d="M91.8543 65.892H118.679C119.611 65.892 120.357 65.1274 120.357 64.1577C120.357 63.6915 120.189 63.2439 119.854 62.9082L113.143 55.9335C112.49 55.2622 111.428 55.2622 110.775 55.9335L108.594 58.2087L103.076 52.4835C102.424 51.8121 101.361 51.8121 100.709 52.4835L90.6426 62.9455C89.9901 63.6355 90.0088 64.7358 90.6612 65.4072C91.0154 65.7055 91.4255 65.8734 91.8543 65.892Z" fill="white" fill-opacity="0.55"/>
<path opacity="0.42" d="M113.646 51.9427C115.499 51.9427 117.002 50.3814 117.002 48.4554C117.002 46.5294 115.499 44.968 113.646 44.968C111.793 44.968 110.291 46.5294 110.291 48.4554C110.291 50.3814 111.793 51.9427 113.646 51.9427Z" fill="white" fill-opacity="0.55"/>
<rect x="16.5342" y="76.5818" width="177.452" height="32.8346" rx="2" fill="#DFDFDF" fill-opacity="0.44"/>
<rect x="29.931" y="86.7969" width="22.2955" height="4.37967" rx="2.18983" fill="white" fill-opacity="0.6"/>
<rect x="21.5078" y="94.8215" width="39.1422" height="4.37967" rx="2.18983" fill="#D9D9D9" fill-opacity="0.5"/>
<rect x="72.7186" y="86.7969" width="22.2955" height="4.37967" rx="2.18983" fill="white" fill-opacity="0.6"/>
<rect x="64.2954" y="94.8215" width="39.1422" height="4.37967" rx="2.18983" fill="#D9D9D9" fill-opacity="0.5"/>
<rect x="115.506" y="86.7969" width="22.2955" height="4.37967" rx="2.18983" fill="white" fill-opacity="0.6"/>
<rect x="107.083" y="94.8215" width="39.1422" height="4.37967" rx="2.18983" fill="#D9D9D9" fill-opacity="0.5"/>
<rect x="158.293" y="86.7969" width="22.2955" height="4.37967" rx="2.18983" fill="white" fill-opacity="0.6"/>
<rect x="149.87" y="94.8215" width="39.1422" height="4.37967" rx="2.18983" fill="#D9D9D9" fill-opacity="0.5"/>
<path opacity="0.42" d="M142.671 14.1994H67.8742C67.0823 14.1994 66.4437 13.5577 66.4437 12.7621V12.4797C66.4437 11.684 67.0823 11.0424 67.8742 11.0424H142.645C143.437 11.0424 144.076 11.684 144.076 12.4797V12.7621C144.101 13.5577 143.462 14.1994 142.671 14.1994ZM133.551 20.0772H76.9938C76.2019 20.0772 75.5633 19.4355 75.5633 18.6399V18.3575C75.5633 17.5618 76.2019 16.9202 76.9938 16.9202H133.551C134.343 16.9202 134.981 17.5618 134.981 18.3575V18.6399C135.007 19.4355 134.343 20.0772 133.551 20.0772Z" fill="#C8C8C8" fill-opacity="0.5"/>
<path opacity="0.42" d="M126.069 8.04233H84.4813C83.5178 8.04233 82.7407 7.25281 82.7407 6.27381V5.76852C82.7407 4.78952 83.5178 4 84.4813 4H126.038C127.001 4 127.778 4.78952 127.778 5.76852V6.24223C127.809 7.22123 127.032 8.04233 126.069 8.04233Z" fill="#D9D9D9"/>
<rect x="100.675" y="24.0773" width="9.16916" height="9.11832" rx="4.55916" fill="#C8C8C8" fill-opacity="0.5"/>
</g>
<defs>
<clipPath id="clip0_481_1180">
<rect width="209.48" height="108.86" fill="white" transform="translate(0.52002)"/>
</clipPath>
</defs>
</svg>
