<svg width="210" height="109" viewBox="0 0 210 109" fill="none" xmlns="http://www.w3.org/2000/svg">
<rect x="76.7263" y="12.351" width="55.9011" height="5.2666" rx="2.6333" fill="#C8C8C8" fill-opacity="0.5"/>
<rect x="51.9622" y="23.2724" width="105.429" height="5.45172" rx="2.72586" fill="#C8C8C8" fill-opacity="0.5"/>
<rect x="1.06317" y="50.7241" width="98.8871" height="7.48229" rx="2" fill="#C8C8C8" fill-opacity="0.5"/>
<rect x="3.70569" y="53.2565" width="44.5608" height="2.41753" rx="1" fill="#C8C8C8" fill-opacity="0.5"/>
<rect x="1.06317" y="63.9988" width="98.8871" height="7.48229" rx="2" fill="#C8C8C8" fill-opacity="0.5"/>
<rect x="3.70569" y="66.5312" width="62.7621" height="2.41753" rx="1" fill="#C8C8C8" fill-opacity="0.5"/>
<rect x="1.06317" y="77.2735" width="98.8871" height="7.48229" rx="2" fill="#C8C8C8" fill-opacity="0.5"/>
<rect x="3.70569" y="79.8059" width="78.0742" height="2.41753" rx="1" fill="#C8C8C8" fill-opacity="0.5"/>
<rect x="1.06317" y="90.5482" width="98.8871" height="7.48229" rx="2" fill="#C8C8C8" fill-opacity="0.5"/>
<rect x="3.70569" y="93.0806" width="62.7621" height="2.41753" rx="1" fill="#C8C8C8" fill-opacity="0.5"/>
<rect x="109.53" y="50.7241" width="98.8871" height="7.48229" rx="2" fill="#C8C8C8" fill-opacity="0.5"/>
<rect x="112.172" y="53.2565" width="44.5608" height="2.41753" rx="1" fill="#C8C8C8" fill-opacity="0.5"/>
<rect x="109.53" y="63.9988" width="98.8871" height="7.48229" rx="2" fill="#C8C8C8" fill-opacity="0.5"/>
<rect x="112.172" y="66.5312" width="62.7621" height="2.41753" rx="1" fill="#C8C8C8" fill-opacity="0.5"/>
<rect x="109.53" y="77.2735" width="98.8871" height="7.48229" rx="2" fill="#C8C8C8" fill-opacity="0.5"/>
<rect x="112.172" y="79.8059" width="78.0742" height="2.41753" rx="1" fill="#C8C8C8" fill-opacity="0.5"/>
<rect x="109.53" y="90.5482" width="98.8871" height="7.48229" rx="2" fill="#C8C8C8" fill-opacity="0.5"/>
<rect x="112.172" y="93.0806" width="62.7621" height="2.41753" rx="1" fill="#C8C8C8" fill-opacity="0.5"/>
</svg>
