<svg width="210" height="109" viewBox="0 0 210 109" fill="none" xmlns="http://www.w3.org/2000/svg">
<g clip-path="url(#clip0_400_535)">
<path opacity="0.42" d="M24.2332 29.471H1.76508C1.24452 29.471 0.824707 28.6465 0.824707 27.6242V27.0965C0.824707 26.0742 1.24452 25.2497 1.76508 25.2497H24.2164C24.737 25.2497 25.1568 26.0742 25.1568 27.0965V27.5912C25.1736 28.6135 24.7538 29.471 24.2332 29.471Z" fill="#D9D9D9"/>
<path opacity="0.2" d="M78.8426 38.5002H2.51381C1.70541 38.5002 1.05347 37.8845 1.05347 37.121V36.8501C1.05347 36.0867 1.70541 35.471 2.51381 35.471H78.8426C79.6509 35.471 80.3029 36.0867 80.3029 36.8501V37.121C80.329 37.8845 79.677 38.5002 78.8426 38.5002ZM60.2754 44.1399H2.51381C1.70541 44.1399 1.05347 43.5242 1.05347 42.7607V42.4898C1.05347 41.7264 1.70541 41.1107 2.51381 41.1107H60.2493C61.0577 41.1107 61.7096 41.7264 61.7096 42.4898V42.7607C61.7357 43.5242 61.0838 44.1399 60.2754 44.1399Z" fill="#737373"/>
<path opacity="0.2" d="M78.7729 55.0065H2.61119C1.74888 55.0065 1.05347 54.38 1.05347 53.6031V53.3275C1.05347 52.5506 1.74888 51.9241 2.61119 51.9241H78.7451C79.6074 51.9241 80.3028 52.5506 80.3028 53.3275V53.6031C80.3307 54.38 79.6352 55.0065 78.7729 55.0065ZM78.7729 61.4971H2.61119C1.74888 61.4971 1.05347 60.8706 1.05347 60.0938V59.8181C1.05347 59.0412 1.74888 58.4147 2.61119 58.4147H78.7451C79.6074 58.4147 80.3028 59.0412 80.3028 59.8181V60.0938C80.3307 60.8706 79.6352 61.4971 78.7729 61.4971ZM63.6407 67.9878H2.61119C1.74888 67.9878 1.05347 67.3613 1.05347 66.5844V66.3087C1.05347 65.5319 1.74888 64.9054 2.61119 64.9054H63.6407C64.503 64.9054 65.1985 65.5319 65.1985 66.3087V66.5844C65.1985 67.3613 64.503 67.9878 63.6407 67.9878Z" fill="white"/>
<rect y="74.2659" width="28.2009" height="9.62447" rx="4.81224" fill="#C8C8C8" fill-opacity="0.5"/>
<rect x="95.9421" y="25.2497" width="113.538" height="8.35669" rx="2" fill="#C8C8C8" fill-opacity="0.5"/>
<rect x="98.9762" y="28.0781" width="51.1628" height="2.70004" rx="1" fill="#C8C8C8" fill-opacity="0.5"/>
<rect x="95.9421" y="39.6064" width="113.538" height="8.35669" rx="2" fill="#C8C8C8" fill-opacity="0.5"/>
<rect x="98.9762" y="42.4348" width="72.0606" height="2.70004" rx="1" fill="#C8C8C8" fill-opacity="0.5"/>
<rect x="95.9421" y="53.9631" width="113.538" height="8.35669" rx="2" fill="#C8C8C8" fill-opacity="0.5"/>
<rect x="98.9762" y="56.7915" width="89.6414" height="2.70004" rx="1" fill="#C8C8C8" fill-opacity="0.5"/>
<rect x="95.9421" y="68.3198" width="113.538" height="8.35669" rx="2" fill="#C8C8C8" fill-opacity="0.5"/>
<rect x="98.9762" y="71.1482" width="72.0606" height="2.70004" rx="1" fill="#C8C8C8" fill-opacity="0.5"/>
</g>
<defs>
<clipPath id="clip0_400_535">
<rect width="209.48" height="108.86" fill="white" transform="translate(0 0.140015)"/>
</clipPath>
</defs>
</svg>
