<svg width="210" height="110" viewBox="0 0 210 110" fill="none" xmlns="http://www.w3.org/2000/svg">
<g clip-path="url(#clip0_659_40)">
<rect y="6.5896" width="97.4363" height="95.9969" rx="2" fill="#D9D9D9" fill-opacity="0.2"/>
<rect x="5.03516" y="87.2178" width="45.1227" height="3.8723" rx="1.93615" fill="white" fill-opacity="0.64"/>
<rect x="5.03516" y="94.3474" width="14.0479" height="3.8723" rx="1.93615" fill="white" fill-opacity="0.37"/>
<rect x="5.03516" y="79.6466" width="29.7662" height="3.8723" rx="1.93615" fill="white" fill-opacity="0.37"/>
<rect x="5.03516" y="72.905" width="19.4313" height="3.8723" rx="1.93615" fill="white" fill-opacity="0.37"/>
<rect x="100.609" y="6.5896" width="108.87" height="46.0477" rx="2" fill="#D9D9D9" fill-opacity="0.2"/>
<rect x="100.609" y="56.9435" width="108.87" height="46.0477" rx="2" fill="#D9D9D9" fill-opacity="0.2"/>
<rect x="104.74" y="25.7411" width="14.0479" height="3.8723" rx="1.93615" fill="white" fill-opacity="0.37"/>
<rect x="104.74" y="18.9998" width="29.7662" height="3.8723" rx="1.93615" fill="white" fill-opacity="0.37"/>
<rect x="104.74" y="12.2582" width="19.4313" height="3.8723" rx="1.93615" fill="white" fill-opacity="0.37"/>
<rect x="104.74" y="76.095" width="14.0479" height="3.8723" rx="1.93615" fill="white" fill-opacity="0.37"/>
<rect x="104.74" y="69.3537" width="29.7662" height="3.8723" rx="1.93615" fill="white" fill-opacity="0.37"/>
<rect x="104.74" y="62.6121" width="19.4313" height="3.8723" rx="1.93615" fill="white" fill-opacity="0.37"/>
</g>
<defs>
<clipPath id="clip0_659_40">
<rect width="209.48" height="108.86" fill="white" transform="translate(0 0.579956)"/>
</clipPath>
</defs>
</svg>
