<svg width="210" height="110" viewBox="0 0 210 110" fill="none" xmlns="http://www.w3.org/2000/svg">
<g clip-path="url(#clip0_659_123)">
<path d="M0 8.75848C0 7.65391 0.895431 6.75848 2 6.75848H121.822C122.926 6.75848 123.822 7.65391 123.822 8.75848V84.7523C123.822 85.8568 122.926 86.7523 121.822 86.7523H2C0.895432 86.7523 0 85.8568 0 84.7523V8.75848Z" fill="#D9D9D9" fill-opacity="0.2"/>
<rect x="5.99121" y="29.5016" width="45.1227" height="3.8723" rx="1.93615" fill="white" fill-opacity="0.64"/>
<rect x="5.99121" y="36.6311" width="14.0479" height="3.8723" rx="1.93615" fill="white" fill-opacity="0.37"/>
<rect x="5.99121" y="21.9304" width="55.613" height="3.8723" rx="1.93615" fill="white" fill-opacity="0.37"/>
<rect x="5.9917" y="15.1888" width="36.3041" height="3.8723" rx="1.93615" fill="white" fill-opacity="0.37"/>
<rect x="126.669" y="6.75848" width="82.811" height="79.9938" rx="2" fill="#D9D9D9" fill-opacity="0.2"/>
<rect x="161.051" y="26.7355" width="14.0479" height="3.8723" rx="1.93615" fill="white" fill-opacity="0.37"/>
<rect x="140.268" y="19.9942" width="55.613" height="3.8723" rx="1.93615" fill="white" fill-opacity="0.37"/>
<rect x="149.922" y="13.2526" width="36.3041" height="3.8723" rx="1.93615" fill="white" fill-opacity="0.37"/>
<path opacity="0.2" d="M10.3389 102.981H0.587216C0.26229 102.981 0 102.756 0 102.477V93.7293C0 93.45 0.26229 93.2246 0.587216 93.2246H10.3389C10.6638 93.2246 10.9261 93.45 10.9261 93.7293V102.477C10.9261 102.756 10.6638 102.981 10.3389 102.981Z" fill="white"/>
<path opacity="0.42" d="M2.06811 100.535H8.86176C9.09781 100.535 9.28666 100.338 9.28666 100.089C9.28666 99.9687 9.24417 99.8535 9.15919 99.7672L7.4596 97.9726C7.29436 97.7999 7.02526 97.7999 6.86002 97.9726L6.30765 98.558L4.91021 97.085C4.74497 96.9123 4.47587 96.9123 4.31063 97.085L1.76124 99.7767C1.596 99.9543 1.60072 100.237 1.76596 100.41C1.85566 100.487 1.95953 100.53 2.06811 100.535Z" fill="white"/>
<path opacity="0.42" d="M7.5871 96.946C8.05643 96.946 8.4369 96.5443 8.4369 96.0487C8.4369 95.5532 8.05643 95.1515 7.5871 95.1515C7.11777 95.1515 6.7373 95.5532 6.7373 96.0487C6.7373 96.5443 7.11777 96.946 7.5871 96.946Z" fill="white"/>
<rect x="15.3418" y="98.8135" width="29.5526" height="3.20803" rx="1.60401" fill="white" fill-opacity="0.37"/>
<rect x="15.3418" y="94.1844" width="19.2919" height="3.20803" rx="1.60401" fill="white" fill-opacity="0.37"/>
<path opacity="0.2" d="M65.2007 102.981H55.449C55.1241 102.981 54.8618 102.756 54.8618 102.477V93.7293C54.8618 93.45 55.1241 93.2246 55.449 93.2246H65.2007C65.5257 93.2246 65.7879 93.45 65.7879 93.7293V102.477C65.7879 102.756 65.5257 102.981 65.2007 102.981Z" fill="white"/>
<path opacity="0.42" d="M56.9294 100.535H63.7231C63.9591 100.535 64.148 100.338 64.148 100.089C64.148 99.9687 64.1055 99.8535 64.0205 99.7672L62.3209 97.9726C62.1557 97.7999 61.8866 97.7999 61.7213 97.9726L61.169 98.558L59.7715 97.085C59.6063 96.9123 59.3372 96.9123 59.172 97.085L56.6226 99.7767C56.4573 99.9543 56.4621 100.237 56.6273 100.41C56.717 100.487 56.8209 100.53 56.9294 100.535Z" fill="white"/>
<path opacity="0.42" d="M62.4489 96.946C62.9182 96.946 63.2987 96.5443 63.2987 96.0487C63.2987 95.5532 62.9182 95.1515 62.4489 95.1515C61.9796 95.1515 61.5991 95.5532 61.5991 96.0487C61.5991 96.5443 61.9796 96.946 62.4489 96.946Z" fill="white"/>
<rect x="70.2036" y="98.8135" width="29.5526" height="3.20803" rx="1.60401" fill="white" fill-opacity="0.37"/>
<rect x="70.2036" y="94.1844" width="19.2919" height="3.20803" rx="1.60401" fill="white" fill-opacity="0.37"/>
<path opacity="0.2" d="M120.063 102.981H110.311C109.986 102.981 109.724 102.756 109.724 102.477V93.7293C109.724 93.45 109.986 93.2246 110.311 93.2246H120.063C120.387 93.2246 120.65 93.45 120.65 93.7293V102.477C120.65 102.756 120.387 102.981 120.063 102.981Z" fill="white"/>
<path opacity="0.42" d="M111.791 100.535H118.585C118.821 100.535 119.01 100.338 119.01 100.089C119.01 99.9687 118.967 99.8535 118.882 99.7672L117.183 97.9726C117.018 97.7999 116.748 97.7999 116.583 97.9726L116.031 98.558L114.633 97.085C114.468 96.9123 114.199 96.9123 114.034 97.085L111.484 99.7767C111.319 99.9543 111.324 100.237 111.489 100.41C111.579 100.487 111.683 100.53 111.791 100.535Z" fill="white"/>
<path opacity="0.42" d="M117.311 96.946C117.78 96.946 118.161 96.5443 118.161 96.0487C118.161 95.5532 117.78 95.1515 117.311 95.1515C116.841 95.1515 116.461 95.5532 116.461 96.0487C116.461 96.5443 116.841 96.946 117.311 96.946Z" fill="white"/>
<rect x="125.065" y="98.8135" width="29.5526" height="3.20803" rx="1.60401" fill="white" fill-opacity="0.37"/>
<rect x="125.065" y="94.1844" width="19.2919" height="3.20803" rx="1.60401" fill="white" fill-opacity="0.37"/>
<path opacity="0.2" d="M174.925 102.981H165.173C164.848 102.981 164.586 102.756 164.586 102.477V93.7293C164.586 93.45 164.848 93.2246 165.173 93.2246H174.925C175.25 93.2246 175.512 93.45 175.512 93.7293V102.477C175.512 102.756 175.25 102.981 174.925 102.981Z" fill="white"/>
<path opacity="0.42" d="M166.654 100.535H173.448C173.684 100.535 173.873 100.338 173.873 100.089C173.873 99.9687 173.83 99.8535 173.745 99.7672L172.046 97.9726C171.88 97.7999 171.611 97.7999 171.446 97.9726L170.894 98.558L169.496 97.085C169.331 96.9123 169.062 96.9123 168.897 97.085L166.347 99.7767C166.182 99.9543 166.187 100.237 166.352 100.41C166.442 100.487 166.545 100.53 166.654 100.535Z" fill="white"/>
<path opacity="0.42" d="M172.173 96.946C172.642 96.946 173.023 96.5443 173.023 96.0487C173.023 95.5532 172.642 95.1515 172.173 95.1515C171.704 95.1515 171.323 95.5532 171.323 96.0487C171.323 96.5443 171.704 96.946 172.173 96.946Z" fill="white"/>
<rect x="179.928" y="98.8135" width="29.5526" height="3.20803" rx="1.60401" fill="white" fill-opacity="0.37"/>
<rect x="179.928" y="94.1844" width="19.2919" height="3.20803" rx="1.60401" fill="white" fill-opacity="0.37"/>
</g>
<defs>
<clipPath id="clip0_659_123">
<rect width="209.48" height="108.86" fill="white" transform="translate(0 0.439941)"/>
</clipPath>
</defs>
</svg>
