<svg width="210" height="110" viewBox="0 0 210 110" fill="none" xmlns="http://www.w3.org/2000/svg">
<g clip-path="url(#clip0_654_259)">
<rect x="-0.335449" y="9.00732" width="68.731" height="93.1007" rx="2" fill="#D9D9D9" fill-opacity="0.2"/>
<rect x="141.085" y="9.00732" width="66.0977" height="93.1007" rx="2" fill="#D9D9D9" fill-opacity="0.2"/>
<rect x="70.3745" y="9.00732" width="68.731" height="44.2639" rx="2" fill="#D9D9D9" fill-opacity="0.2"/>
<rect x="70.3745" y="56.8434" width="68.731" height="44.2639" rx="2" fill="#D9D9D9" fill-opacity="0.2"/>
<path opacity="0.2" d="M55.7264 95.9503H7.35699C5.74532 95.9503 4.44434 94.8502 4.44434 93.4874V50.797C4.44434 49.4341 5.74532 48.334 7.35699 48.334H55.7264C57.3381 48.334 58.6391 49.4341 58.6391 50.797V93.4874C58.6391 94.8502 57.3381 95.9503 55.7264 95.9503Z" fill="white"/>
<path opacity="0.42" d="M14.7019 84.0109H48.3991C49.5699 84.0109 50.5066 83.0509 50.5066 81.8332C50.5066 81.2478 50.2959 80.6858 49.8744 80.2643L41.4442 71.5066C40.6246 70.6636 39.2898 70.6636 38.4702 71.5066L35.7304 74.3634L28.799 67.1746C27.9794 66.3316 26.6446 66.3316 25.825 67.1746L13.1798 80.3112C12.3602 81.1776 12.3836 82.5591 13.2032 83.4021C13.6481 83.7768 14.1633 83.9875 14.7019 84.0109Z" fill="white"/>
<path opacity="0.42" d="M42.0764 66.4955C44.4043 66.4955 46.2915 64.535 46.2915 62.1166C46.2915 59.6983 44.4043 57.7378 42.0764 57.7378C39.7485 57.7378 37.8613 59.6983 37.8613 62.1166C37.8613 64.535 39.7485 66.4955 42.0764 66.4955Z" fill="white"/>
<path opacity="0.2" d="M198.824 95.9503H150.455C148.843 95.9503 147.542 94.8502 147.542 93.4874V50.797C147.542 49.4341 148.843 48.334 150.455 48.334H198.824C200.436 48.334 201.737 49.4341 201.737 50.797V93.4874C201.737 94.8502 200.436 95.9503 198.824 95.9503Z" fill="white"/>
<path opacity="0.42" d="M157.8 84.0109H191.497C192.668 84.0109 193.604 83.0509 193.604 81.8332C193.604 81.2478 193.394 80.6858 192.972 80.2643L184.542 71.5066C183.722 70.6636 182.387 70.6636 181.568 71.5066L178.828 74.3634L171.897 67.1746C171.077 66.3316 169.742 66.3316 168.923 67.1746L156.277 80.3112C155.458 81.1776 155.481 82.5591 156.301 83.4021C156.746 83.7768 157.261 83.9875 157.8 84.0109Z" fill="white"/>
<path opacity="0.42" d="M185.174 66.4955C187.502 66.4955 189.389 64.535 189.389 62.1166C189.389 59.6983 187.502 57.7378 185.174 57.7378C182.846 57.7378 180.959 59.6983 180.959 62.1166C180.959 64.535 182.846 66.4955 185.174 66.4955Z" fill="white"/>
<path opacity="0.2" d="M134.257 50.6874H103.132C102.095 50.6874 101.258 49.9795 101.258 49.1026V21.6322C101.258 20.7553 102.095 20.0474 103.132 20.0474H134.257C135.294 20.0474 136.131 20.7553 136.131 21.6322V49.1026C136.131 49.9795 135.294 50.6874 134.257 50.6874Z" fill="white"/>
<path opacity="0.42" d="M107.858 43.0046H129.542C130.295 43.0046 130.898 42.3868 130.898 41.6033C130.898 41.2266 130.762 40.8649 130.491 40.5937L125.066 34.9583C124.539 34.4159 123.68 34.4159 123.153 34.9583L121.39 36.7966L116.929 32.1707C116.402 31.6283 115.543 31.6283 115.016 32.1707L106.879 40.6238C106.351 41.1814 106.366 42.0704 106.894 42.6128C107.18 42.8539 107.512 42.9895 107.858 43.0046Z" fill="white"/>
<path opacity="0.42" d="M125.473 31.7338C126.971 31.7338 128.185 30.4723 128.185 28.9161C128.185 27.3599 126.971 26.0984 125.473 26.0984C123.975 26.0984 122.761 27.3599 122.761 28.9161C122.761 30.4723 123.975 31.7338 125.473 31.7338Z" fill="white"/>
<path opacity="0.2" d="M134.257 97.8656H103.132C102.095 97.8656 101.258 97.1577 101.258 96.2808V68.8104C101.258 67.9335 102.095 67.2256 103.132 67.2256H134.257C135.294 67.2256 136.131 67.9335 136.131 68.8104V96.2808C136.131 97.1577 135.294 97.8656 134.257 97.8656Z" fill="white"/>
<path opacity="0.42" d="M107.858 90.1828H129.542C130.295 90.1828 130.898 89.565 130.898 88.7815C130.898 88.4048 130.762 88.0431 130.491 87.7719L125.066 82.1365C124.539 81.5941 123.68 81.5941 123.153 82.1365L121.39 83.9748L116.929 79.349C116.402 78.8065 115.543 78.8065 115.016 79.349L106.879 87.8021C106.351 88.3596 106.366 89.2486 106.894 89.791C107.18 90.0321 107.512 90.1677 107.858 90.1828Z" fill="white"/>
<path opacity="0.42" d="M125.473 78.912C126.971 78.912 128.185 77.6505 128.185 76.0943C128.185 74.5381 126.971 73.2766 125.473 73.2766C123.975 73.2766 122.761 74.5381 122.761 76.0943C122.761 77.6505 123.975 78.912 125.473 78.912Z" fill="white"/>
<rect x="5.7583" y="27.1848" width="51.5667" height="3.57222" rx="1.78611" fill="white" fill-opacity="0.64"/>
<rect x="5.7583" y="15.1651" width="21.6575" height="3.57222" rx="1.78611" fill="white" fill-opacity="0.37"/>
<rect x="5.7583" y="33.7618" width="12.9592" height="3.57222" rx="1.78611" fill="white" fill-opacity="0.37"/>
<rect x="5.7583" y="20.5999" width="27.4595" height="3.57222" rx="1.78611" fill="white" fill-opacity="0.37"/>
<rect x="148.856" y="27.1848" width="51.5667" height="3.57222" rx="1.78611" fill="white" fill-opacity="0.64"/>
<rect x="148.856" y="15.1651" width="21.6575" height="3.57222" rx="1.78611" fill="white" fill-opacity="0.37"/>
<rect x="148.856" y="33.7618" width="12.9592" height="3.57222" rx="1.78611" fill="white" fill-opacity="0.37"/>
<rect x="148.856" y="20.5999" width="27.4595" height="3.57222" rx="1.78611" fill="white" fill-opacity="0.37"/>
<rect x="73.9062" y="24.9269" width="14.4712" height="3.57222" rx="1.78611" fill="white" fill-opacity="0.64"/>
<rect x="73.9062" y="12.9072" width="17.0864" height="3.57222" rx="1.78611" fill="white" fill-opacity="0.37"/>
<rect x="73.9062" y="18.342" width="24.8396" height="3.57222" rx="1.78611" fill="white" fill-opacity="0.37"/>
<rect x="73.9062" y="72.1051" width="14.4712" height="3.57222" rx="1.78611" fill="white" fill-opacity="0.64"/>
<rect x="73.9062" y="60.0854" width="17.0864" height="3.57222" rx="1.78611" fill="white" fill-opacity="0.37"/>
<rect x="73.9062" y="65.5203" width="24.8396" height="3.57222" rx="1.78611" fill="white" fill-opacity="0.37"/>
</g>
<defs>
<clipPath id="clip0_654_259">
<rect width="209.48" height="108.86" fill="white" transform="translate(0 0.859985)"/>
</clipPath>
</defs>
</svg>
