<svg width="210" height="109" viewBox="0 0 210 109" fill="none" xmlns="http://www.w3.org/2000/svg">
<g clip-path="url(#clip0_706_64)">
<rect y="6" width="97.4363" height="95.9969" rx="2" fill="#D9D9D9" fill-opacity="0.2"/>
<rect x="26" y="17.4104" width="45.1227" height="3.8723" rx="1.93615" fill="white" fill-opacity="0.64"/>
<rect x="42" y="24.4104" width="14.0479" height="3.8723" rx="1.93615" fill="white" fill-opacity="0.37"/>
<rect x="34" y="11.4104" width="29.7662" height="3.8723" rx="1.93615" fill="white" fill-opacity="0.37"/>
<path opacity="0.2" d="M68.6353 99.0694H29.3647C28.0563 99.0694 27 98.1762 27 97.0698V62.41C27 61.3036 28.0563 60.4104 29.3647 60.4104H68.6353C69.9437 60.4104 71 61.3036 71 62.41V97.0698C71 98.1762 69.9437 99.0694 68.6353 99.0694Z" fill="white"/>
<path opacity="0.42" d="M35.3285 89.376H62.6868C63.6374 89.376 64.3979 88.5965 64.3979 87.6079C64.3979 87.1326 64.2268 86.6764 63.8845 86.3342L57.0402 79.2239C56.3748 78.5395 55.2911 78.5395 54.6257 79.2239L52.4013 81.5433L46.7737 75.7068C46.1083 75.0224 45.0246 75.0224 44.3592 75.7068L34.0927 86.3722C33.4273 87.0756 33.4463 88.1973 34.1117 88.8817C34.4729 89.1859 34.8912 89.357 35.3285 89.376Z" fill="white"/>
<path opacity="0.42" d="M57.553 75.1556C59.443 75.1556 60.9752 73.5639 60.9752 71.6004C60.9752 69.637 59.443 68.0453 57.553 68.0453C55.663 68.0453 54.1309 69.637 54.1309 71.6004C54.1309 73.5639 55.663 75.1556 57.553 75.1556Z" fill="white"/>
<rect x="100.609" y="6" width="108.87" height="46.0477" rx="2" fill="#D9D9D9" fill-opacity="0.2"/>
<path opacity="0.2" d="M199.635 47.0694H160.365C159.056 47.0694 158 46.1762 158 45.0698V10.41C158 9.30356 159.056 8.4104 160.365 8.4104H199.635C200.944 8.4104 202 9.30356 202 10.41V45.0698C202 46.1762 200.944 47.0694 199.635 47.0694Z" fill="white"/>
<path opacity="0.42" d="M166.328 37.376H193.687C194.637 37.376 195.398 36.5965 195.398 35.6079C195.398 35.1326 195.227 34.6764 194.885 34.3342L188.04 27.2239C187.375 26.5395 186.291 26.5395 185.626 27.2239L183.401 29.5433L177.774 23.7068C177.108 23.0224 176.025 23.0224 175.359 23.7068L165.093 34.3722C164.427 35.0756 164.446 36.1973 165.112 36.8817C165.473 37.1859 165.891 37.357 166.328 37.376Z" fill="white"/>
<path opacity="0.42" d="M188.553 23.1556C190.443 23.1556 191.975 21.5639 191.975 19.6004C191.975 17.637 190.443 16.0453 188.553 16.0453C186.663 16.0453 185.131 17.637 185.131 19.6004C185.131 21.5639 186.663 23.1556 188.553 23.1556Z" fill="white"/>
<rect x="101" y="56.4104" width="51" height="46" rx="2" fill="#D9D9D9" fill-opacity="0.2"/>
<path opacity="0.2" d="M140.352 92.6641H112.667C111.745 92.6641 111 92.0345 111 91.2545V66.8201C111 66.0401 111.745 65.4104 112.667 65.4104H140.352C141.274 65.4104 142.019 66.0401 142.019 66.8201V91.2545C142.019 92.0345 141.274 92.6641 140.352 92.6641Z" fill="white"/>
<path opacity="0.42" d="M116.871 85.8305H136.158C136.828 85.8305 137.364 85.281 137.364 84.5841C137.364 84.249 137.244 83.9273 137.003 83.6861L132.177 78.6735C131.708 78.191 130.944 78.191 130.475 78.6735L128.907 80.3086L124.94 76.194C124.471 75.7115 123.707 75.7115 123.238 76.194L116 83.7129C115.531 84.2088 115.544 84.9995 116.013 85.482C116.268 85.6965 116.563 85.8171 116.871 85.8305Z" fill="white"/>
<path opacity="0.42" d="M132.54 75.8053C133.872 75.8053 134.952 74.6832 134.952 73.299C134.952 71.9148 133.872 70.7927 132.54 70.7927C131.207 70.7927 130.127 71.9148 130.127 73.299C130.127 74.6832 131.207 75.8053 132.54 75.8053Z" fill="white"/>
<path opacity="0.2" d="M197.352 92.6641H169.667C168.745 92.6641 168 92.0345 168 91.2545V66.8201C168 66.0401 168.745 65.4104 169.667 65.4104H197.352C198.274 65.4104 199.019 66.0401 199.019 66.8201V91.2545C199.019 92.0345 198.274 92.6641 197.352 92.6641Z" fill="white"/>
<path opacity="0.42" d="M173.871 85.8305H193.158C193.828 85.8305 194.364 85.281 194.364 84.5841C194.364 84.249 194.244 83.9273 194.003 83.6861L189.177 78.6735C188.708 78.191 187.944 78.191 187.475 78.6735L185.907 80.3086L181.94 76.194C181.471 75.7115 180.707 75.7115 180.238 76.194L173 83.7129C172.531 84.2088 172.544 84.9995 173.013 85.482C173.268 85.6965 173.563 85.8171 173.871 85.8305Z" fill="white"/>
<path opacity="0.42" d="M189.54 75.8053C190.872 75.8053 191.952 74.6832 191.952 73.299C191.952 71.9148 190.872 70.7927 189.54 70.7927C188.207 70.7927 187.127 71.9148 187.127 73.299C187.127 74.6832 188.207 75.8053 189.54 75.8053Z" fill="white"/>
<rect x="158" y="56.4104" width="51" height="46" rx="2" fill="#D9D9D9" fill-opacity="0.2"/>
<rect x="104.74" y="25.1515" width="14.0479" height="3.8723" rx="1.93615" fill="white" fill-opacity="0.37"/>
<rect x="104.74" y="18.4102" width="29.7662" height="3.8723" rx="1.93615" fill="white" fill-opacity="0.37"/>
<rect x="104.74" y="11.6686" width="19.4313" height="3.8723" rx="1.93615" fill="white" fill-opacity="0.37"/>
</g>
<defs>
<clipPath id="clip0_706_64">
<rect width="209.48" height="108.86" fill="white"/>
</clipPath>
</defs>
</svg>
