<svg width="210" height="110" viewBox="0 0 210 110" fill="none" xmlns="http://www.w3.org/2000/svg">
<g clip-path="url(#clip0_654_361)">
<rect x="-0.335449" y="8.59961" width="133.866" height="35.2061" rx="2" fill="#D9D9D9" fill-opacity="0.2"/>
<rect x="5.7583" y="27.0447" width="41.626" height="3.57222" rx="1.78611" fill="white" fill-opacity="0.64"/>
<rect x="5.7583" y="33.6217" width="12.9592" height="3.57222" rx="1.78611" fill="white" fill-opacity="0.37"/>
<rect x="5.7583" y="20.4598" width="27.4595" height="3.57222" rx="1.78611" fill="white" fill-opacity="0.37"/>
<rect x="136.794" y="61.7737" width="72.6865" height="34.806" rx="2" fill="#D9D9D9" fill-opacity="0.2"/>
<rect x="142.263" y="83.2303" width="41.626" height="3.57222" rx="1.78611" fill="white" fill-opacity="0.64"/>
<rect x="142.263" y="89.8074" width="12.9592" height="3.57222" rx="1.78611" fill="white" fill-opacity="0.37"/>
<rect x="136.794" y="8.59961" width="72.6865" height="50.3365" rx="2" fill="#D9D9D9" fill-opacity="0.2"/>
<rect x="142.263" y="28.8308" width="41.626" height="3.57222" rx="1.78611" fill="white" fill-opacity="0.64"/>
<rect x="142.263" y="35.4078" width="12.9592" height="3.57222" rx="1.78611" fill="white" fill-opacity="0.37"/>
<rect x="142.263" y="22.246" width="27.4595" height="3.57222" rx="1.78611" fill="white" fill-opacity="0.37"/>
<rect y="45.7107" width="65.23" height="50.869" rx="2" fill="#D9D9D9" fill-opacity="0.2"/>
<rect x="3.11768" y="81.7279" width="41.626" height="3.57222" rx="1.78611" fill="white" fill-opacity="0.64"/>
<rect x="3.11768" y="88.3049" width="12.9592" height="3.57222" rx="1.78611" fill="white" fill-opacity="0.37"/>
<rect x="3.11768" y="75.1431" width="27.4595" height="3.57222" rx="1.78611" fill="white" fill-opacity="0.37"/>
<rect x="68.3188" y="45.7107" width="65.2116" height="50.869" rx="2" fill="#D9D9D9" fill-opacity="0.2"/>
<rect x="71.8008" y="83.514" width="41.626" height="3.57222" rx="1.78611" fill="white" fill-opacity="0.64"/>
<rect x="71.8008" y="90.0911" width="12.9592" height="3.57222" rx="1.78611" fill="white" fill-opacity="0.37"/>
<rect x="71.8008" y="76.9292" width="27.4595" height="3.57222" rx="1.78611" fill="white" fill-opacity="0.37"/>
</g>
<defs>
<clipPath id="clip0_654_361">
<rect width="209.48" height="108.86" fill="white" transform="translate(0 0.719971)"/>
</clipPath>
</defs>
</svg>
