<svg width="210" height="110" viewBox="0 0 210 110" fill="none" xmlns="http://www.w3.org/2000/svg">
<g clip-path="url(#clip0_435_450)">
<path opacity="0.42" d="M132.819 19.4456H76.6604C75.7189 19.4456 74.9596 18.6506 74.9596 17.6647V17.3149C74.9596 16.3291 75.7189 15.5341 76.6604 15.5341H132.819C133.761 15.5341 134.52 16.3291 134.52 17.3149V17.6647C134.55 18.6506 133.761 19.4456 132.819 19.4456Z" fill="white"/>
<path opacity="0.2" d="M144.11 27.357H65.3704C64.4786 27.357 63.7594 26.562 63.7594 25.5762V25.2264C63.7594 24.2406 64.4786 23.4456 65.3704 23.4456H144.11C145.001 23.4456 145.721 24.2406 145.721 25.2264V25.5762C145.721 26.562 145.001 27.357 144.11 27.357Z" fill="#E2E2E2"/>
<path opacity="0.2" d="M133.365 34.6782H76.1154C75.467 34.6782 74.9441 33.8832 74.9441 32.8974V32.5475C74.9441 31.5617 75.467 30.7667 76.1154 30.7667H133.365C134.013 30.7667 134.536 31.5617 134.536 32.5475V32.8974C134.536 33.8832 134.013 34.6782 133.365 34.6782Z" fill="#E2E2E2"/>
<circle cx="104.74" cy="8.07831" r="3.82135" fill="#EFEFEF" fill-opacity="0.6"/>
<path opacity="0.42" d="M18.918 47.0943H1.37791C0.971528 47.0943 0.643799 46.4469 0.643799 45.6443V45.23C0.643799 44.4273 0.971528 43.78 1.37791 43.78H18.9049C19.3113 43.78 19.639 44.4273 19.639 45.23V45.6184C19.6521 46.421 19.3244 47.0943 18.918 47.0943Z" fill="#FEFEFE"/>
<path opacity="0.2" d="M77.4684 54.1835H2.26115C1.46462 54.1835 0.822266 53.7001 0.822266 53.1006V52.8879C0.822266 52.2885 1.46462 51.8051 2.26115 51.8051H77.4684C78.2649 51.8051 78.9072 52.2885 78.9072 52.8879V53.1006C78.9329 53.7001 78.2906 54.1835 77.4684 54.1835ZM59.174 58.6114H2.26115C1.46462 58.6114 0.822266 58.128 0.822266 57.5286V57.3159C0.822266 56.7165 1.46462 56.2331 2.26115 56.2331H59.1483C59.9448 56.2331 60.5872 56.7165 60.5872 57.3159V57.5286C60.6129 58.128 59.9705 58.6114 59.174 58.6114Z" fill="#BBBBBB"/>
<path opacity="0.2" d="M77.3997 84.4663H2.3571C1.50746 84.4663 0.822266 83.9744 0.822266 83.3645V83.1481C0.822266 82.5381 1.50746 82.0462 2.3571 82.0462H77.3723C78.222 82.0462 78.9072 82.5381 78.9072 83.1481V83.3645C78.9346 83.9744 78.2494 84.4663 77.3997 84.4663ZM77.3997 89.5624H2.3571C1.50746 89.5624 0.822266 89.0705 0.822266 88.4606V88.2441C0.822266 87.6342 1.50746 87.1423 2.3571 87.1423H77.3723C78.222 87.1423 78.9072 87.6342 78.9072 88.2441V88.4606C78.9346 89.0705 78.2494 89.5624 77.3997 89.5624ZM62.4899 94.6585H2.3571C1.50746 94.6585 0.822266 94.1666 0.822266 93.5566V93.3402C0.822266 92.7303 1.50746 92.2384 2.3571 92.2384H62.4899C63.3395 92.2384 64.0247 92.7303 64.0247 93.3402V93.5566C64.0247 94.1666 63.3395 94.6585 62.4899 94.6585Z" fill="white"/>
<path opacity="0.2" d="M77.3997 67.1432H2.3571C1.50746 67.1432 0.822266 66.6513 0.822266 66.0414V65.8249C0.822266 65.215 1.50746 64.7231 2.3571 64.7231H77.3723C78.222 64.7231 78.9072 65.215 78.9072 65.8249V66.0414C78.9346 66.6513 78.2494 67.1432 77.3997 67.1432ZM77.3997 72.2393H2.3571C1.50746 72.2393 0.822266 71.7474 0.822266 71.1374V70.921C0.822266 70.3111 1.50746 69.8192 2.3571 69.8192H77.3723C78.222 69.8192 78.9072 70.3111 78.9072 70.921V71.1374C78.9346 71.7474 78.2494 72.2393 77.3997 72.2393ZM62.4899 77.3354H2.3571C1.50746 77.3354 0.822266 76.8435 0.822266 76.2335V76.0171C0.822266 75.4071 1.50746 74.9152 2.3571 74.9152H62.4899C63.3395 74.9152 64.0247 75.4071 64.0247 76.0171V76.2335C64.0247 76.8435 63.3395 77.3354 62.4899 77.3354Z" fill="white"/>
<rect y="100.323" width="22.0154" height="7.55657" rx="3.77829" fill="#EAEAEA" fill-opacity="0.72"/>
<rect x="92.5081" y="43.78" width="100" height="15.1719" rx="2" fill="#CACACA" fill-opacity="0.49"/>
<path opacity="0.2" d="M156.733 52.6481H110.093C109.599 52.6481 109.201 52.2946 109.201 51.8563V51.7007C109.201 51.2624 109.599 50.9089 110.093 50.9089H156.733C157.227 50.9089 157.625 51.2624 157.625 51.7007V51.8563C157.641 52.2946 157.242 52.6481 156.733 52.6481ZM145.387 55.8862H110.093C109.599 55.8862 109.201 55.5327 109.201 55.0944V54.9388C109.201 54.5005 109.599 54.147 110.093 54.147H145.371C145.865 54.147 146.264 54.5005 146.264 54.9388V55.0944C146.28 55.5327 145.881 55.8862 145.387 55.8862Z" fill="#494949"/>
<path opacity="0.42" d="M124.613 48.9089H109.82C109.477 48.9089 109.201 48.556 109.201 48.1184V47.8925C109.201 47.4549 109.477 47.102 109.82 47.102H124.602C124.945 47.102 125.222 47.4549 125.222 47.8925V48.1042C125.233 48.5419 124.956 48.9089 124.613 48.9089Z" fill="#FEFEFE"/>
<circle cx="101.616" cy="51.3659" r="4.58435" fill="#D9D9D9" fill-opacity="0.72"/>
<rect x="107.625" y="64.8741" width="100" height="15.1719" rx="2" fill="#CACACA" fill-opacity="0.49"/>
<path opacity="0.2" d="M171.85 73.7422H125.21C124.716 73.7422 124.318 73.3887 124.318 72.9504V72.7948C124.318 72.3565 124.716 72.003 125.21 72.003H171.85C172.344 72.003 172.742 72.3565 172.742 72.7948V72.9504C172.758 73.3887 172.36 73.7422 171.85 73.7422ZM160.505 76.9803H125.21C124.716 76.9803 124.318 76.6268 124.318 76.1885V76.033C124.318 75.5946 124.716 75.2411 125.21 75.2411H160.489C160.983 75.2411 161.381 75.5946 161.381 76.033V76.1885C161.397 76.6268 160.999 76.9803 160.505 76.9803Z" fill="#494949"/>
<path opacity="0.42" d="M139.731 70.003H124.937C124.594 70.003 124.318 69.6501 124.318 69.2125V68.9866C124.318 68.549 124.594 68.1961 124.937 68.1961H139.72C140.062 68.1961 140.339 68.549 140.339 68.9866V69.1984C140.35 69.636 140.074 70.003 139.731 70.003Z" fill="#FEFEFE"/>
<circle cx="116.734" cy="72.46" r="4.58435" fill="#D9D9D9" fill-opacity="0.7"/>
<rect x="92.5081" y="85.9682" width="100" height="15.1719" rx="2" fill="#CACACA" fill-opacity="0.49"/>
<path opacity="0.2" d="M156.733 94.8364H110.093C109.599 94.8364 109.201 94.4828 109.201 94.0445V93.889C109.201 93.4506 109.599 93.0971 110.093 93.0971H156.733C157.227 93.0971 157.625 93.4506 157.625 93.889V94.0445C157.641 94.4828 157.242 94.8364 156.733 94.8364ZM145.387 98.0745H110.093C109.599 98.0745 109.201 97.721 109.201 97.2826V97.1271C109.201 96.6887 109.599 96.3352 110.093 96.3352H145.371C145.865 96.3352 146.264 96.6887 146.264 97.1271V97.2826C146.28 97.721 145.881 98.0745 145.387 98.0745Z" fill="#494949"/>
<path opacity="0.42" d="M124.613 91.0971H109.82C109.477 91.0971 109.201 90.7442 109.201 90.3066V90.0807C109.201 89.6431 109.477 89.2902 109.82 89.2902H124.602C124.945 89.2902 125.222 89.6431 125.222 90.0807V90.2925C125.233 90.7301 124.956 91.0971 124.613 91.0971Z" fill="#FEFEFE"/>
<circle cx="101.616" cy="93.5541" r="4.58435" fill="#D9D9D9" fill-opacity="0.7"/>
</g>
<defs>
<clipPath id="clip0_435_450">
<rect width="209.48" height="108.86" fill="white" transform="translate(0 0.719971)"/>
</clipPath>
</defs>
</svg>
