<svg width="210" height="110" viewBox="0 0 210 110" fill="none" xmlns="http://www.w3.org/2000/svg">
<g clip-path="url(#clip0_435_380)">
<rect x="0.332764" y="52.8599" width="9.84658" height="9.79198" rx="4.89599" fill="#C8C8C8" fill-opacity="0.5"/>
<path opacity="0.2" d="M48.5464 77.7416H1.238C0.736956 77.7416 0.332886 77.1115 0.332886 76.3302V76.053C0.332886 75.2717 0.736956 74.6416 1.238 74.6416H48.5464C49.0474 74.6416 49.4515 75.2717 49.4515 76.053V76.3302C49.4677 77.1115 49.0636 77.7416 48.5464 77.7416ZM37.0385 83.5131H1.238C0.736956 83.5131 0.332886 82.8831 0.332886 82.1018V81.8245C0.332886 81.0432 0.736956 80.4131 1.238 80.4131H37.0224C37.5234 80.4131 37.9275 81.0432 37.9275 81.8245V82.1018C37.9436 82.8831 37.5396 83.5131 37.0385 83.5131Z" fill="#D0D0D0"/>
<path opacity="0.42" d="M26.5982 70.359H1.38802C0.803929 70.359 0.332886 69.6902 0.332886 68.8608V68.4328C0.332886 67.6035 0.803929 66.9346 1.38802 66.9346H26.5794C27.1635 66.9346 27.6345 67.6035 27.6345 68.4328V68.8341C27.6534 69.6634 27.1823 70.359 26.5982 70.359Z" fill="#D9D9D9"/>
<rect x="53.5647" y="52.8599" width="9.84658" height="9.79198" rx="4.89599" fill="#C8C8C8" fill-opacity="0.5"/>
<path opacity="0.2" d="M101.778 77.7416H54.4699C53.9689 77.7416 53.5648 77.1115 53.5648 76.3302V76.053C53.5648 75.2717 53.9689 74.6416 54.4699 74.6416H101.778C102.279 74.6416 102.683 75.2717 102.683 76.053V76.3302C102.7 77.1115 102.296 77.7416 101.778 77.7416ZM90.2704 83.5131H54.4699C53.9689 83.5131 53.5648 82.8831 53.5648 82.1018V81.8245C53.5648 81.0432 53.9689 80.4131 54.4699 80.4131H90.2543C90.7553 80.4131 91.1594 81.0432 91.1594 81.8245V82.1018C91.1756 82.8831 90.7715 83.5131 90.2704 83.5131Z" fill="#D0D0D0"/>
<path opacity="0.42" d="M79.8302 70.359H54.62C54.0359 70.359 53.5648 69.6902 53.5648 68.8608V68.4328C53.5648 67.6035 54.0359 66.9346 54.62 66.9346H79.8113C80.3954 66.9346 80.8665 67.6035 80.8665 68.4328V68.8341C80.8853 69.6634 80.4143 70.359 79.8302 70.359Z" fill="#D9D9D9"/>
<rect x="106.796" y="52.8599" width="9.84658" height="9.79198" rx="4.89599" fill="#C8C8C8" fill-opacity="0.5"/>
<path opacity="0.2" d="M155.01 77.7416H107.702C107.2 77.7416 106.796 77.1115 106.796 76.3302V76.053C106.796 75.2717 107.2 74.6416 107.702 74.6416H155.01C155.511 74.6416 155.915 75.2717 155.915 76.053V76.3302C155.931 77.1115 155.527 77.7416 155.01 77.7416ZM143.502 83.5131H107.702C107.2 83.5131 106.796 82.8831 106.796 82.1018V81.8245C106.796 81.0432 107.2 80.4131 107.702 80.4131H143.486C143.987 80.4131 144.391 81.0432 144.391 81.8245V82.1018C144.407 82.8831 144.003 83.5131 143.502 83.5131Z" fill="#D0D0D0"/>
<path opacity="0.42" d="M133.062 70.359H107.852C107.267 70.359 106.796 69.6902 106.796 68.8608V68.4328C106.796 67.6035 107.267 66.9346 107.852 66.9346H133.043C133.627 66.9346 134.098 67.6035 134.098 68.4328V68.8341C134.117 69.6634 133.646 70.359 133.062 70.359Z" fill="#D9D9D9"/>
<rect x="160.028" y="52.8599" width="9.84658" height="9.79198" rx="4.89599" fill="#C8C8C8" fill-opacity="0.5"/>
<path opacity="0.2" d="M208.241 77.7415H160.933C160.432 77.7415 160.028 77.1114 160.028 76.3301V76.0529C160.028 75.2716 160.432 74.6415 160.933 74.6415H208.241C208.743 74.6415 209.147 75.2716 209.147 76.0529V76.3301C209.163 77.1114 208.759 77.7415 208.241 77.7415ZM196.734 83.513H160.933C160.432 83.513 160.028 82.8829 160.028 82.1016V81.8244C160.028 81.0431 160.432 80.413 160.933 80.413H196.717C197.218 80.413 197.623 81.0431 197.623 81.8244V82.1016C197.639 82.8829 197.235 83.513 196.734 83.513Z" fill="#D0D0D0"/>
<path opacity="0.42" d="M186.293 70.3589H161.083C160.499 70.3589 160.028 69.69 160.028 68.8607V68.4327C160.028 67.6033 160.499 66.9345 161.083 66.9345H186.274C186.859 66.9345 187.33 67.6033 187.33 68.4327V68.834C187.348 69.6633 186.877 70.3589 186.293 70.3589Z" fill="#D9D9D9"/>
<path opacity="0.42" d="M58.1921 30.9783H2.03362C1.09207 30.9783 0.332764 30.1833 0.332764 29.1975V28.8477C0.332764 27.8619 1.09207 27.0669 2.03362 27.0669H58.1921C59.1337 27.0669 59.893 27.8619 59.893 28.8477V29.1975C59.9234 30.1833 59.1337 30.9783 58.1921 30.9783Z" fill="white"/>
<path opacity="0.2" d="M121.716 40.8898H2.76639C1.41914 40.8898 0.332642 40.0948 0.332642 39.109V38.7592C0.332642 37.7733 1.41914 36.9783 2.76639 36.9783H121.716C123.063 36.9783 124.149 37.7733 124.149 38.7592V39.109C124.149 40.0948 123.063 40.8898 121.716 40.8898Z" fill="white"/>
</g>
<defs>
<clipPath id="clip0_435_380">
<rect width="209.48" height="108.86" fill="white" transform="translate(0 0.859985)"/>
</clipPath>
</defs>
</svg>
