<svg width="210" height="109" viewBox="0 0 210 109" fill="none" xmlns="http://www.w3.org/2000/svg">
<g clip-path="url(#clip0_435_350)">
<path opacity="0.42" d="M23.0923 72.9362H70.5634C72.2129 72.9362 73.5325 71.5837 73.5325 69.8683C73.5325 69.0436 73.2356 68.2519 72.6418 67.6581L60.7657 55.3207C59.6111 54.1331 57.7307 54.1331 56.5761 55.3207L52.7164 59.3452L42.9517 49.2179C41.7971 48.0303 39.9167 48.0303 38.7621 49.2179L20.948 67.7241C19.7934 68.9447 19.8264 70.8909 20.981 72.0785C21.6078 72.6063 22.3336 72.9032 23.0923 72.9362Z" fill="white"/>
<path opacity="0.42" d="M61.6564 48.2613C64.9359 48.2613 67.5944 45.4994 67.5944 42.0925C67.5944 38.6856 64.9359 35.9238 61.6564 35.9238C58.3769 35.9238 55.7184 38.6856 55.7184 42.0925C55.7184 45.4994 58.3769 48.2613 61.6564 48.2613Z" fill="white"/>
<path opacity="0.2" d="M87.9486 102.262H5.77305C3.03497 102.262 0.824707 100.052 0.824707 97.3142V11.5457C0.824707 8.80775 3.03497 6.59756 5.77305 6.59756H87.9486C90.6867 6.59756 92.8969 8.80775 92.8969 11.5457V97.3142C92.8969 100.052 90.6867 102.262 87.9486 102.262Z" fill="white"/>
<path opacity="0.42" d="M207.617 32.067H110.264C109.233 32.067 108.402 31.2423 108.402 30.2197V29.8568C108.402 28.8342 109.233 28.0095 110.264 28.0095H207.617C208.648 28.0095 209.48 28.8342 209.48 29.8568V30.2197C209.48 31.2423 208.648 32.067 207.617 32.067ZM176.12 40.6109H110.264C109.233 40.6109 108.402 39.7862 108.402 38.7636V38.4007C108.402 37.3781 109.233 36.5534 110.264 36.5534H176.12C177.151 36.5534 177.982 37.3781 177.982 38.4007V38.7636C177.982 39.7862 177.151 40.6109 176.12 40.6109Z" fill="white"/>
<rect x="108.402" y="51.9859" width="5.52441" height="5.49377" rx="2.74689" fill="#C8C8C8" fill-opacity="0.6"/>
<path opacity="0.2" d="M164.847 59.0855H116.867C116.359 59.0855 115.949 58.732 115.949 58.2936V58.1381C115.949 57.6997 116.359 57.3462 116.867 57.3462H164.847C165.355 57.3462 165.765 57.6997 165.765 58.1381V58.2936C165.781 58.732 165.371 59.0855 164.847 59.0855ZM153.175 62.3236H116.867C116.359 62.3236 115.949 61.9701 115.949 61.5317V61.3762C115.949 60.9378 116.359 60.5843 116.867 60.5843H153.159C153.667 60.5843 154.077 60.9378 154.077 61.3762V61.5317C154.093 61.9701 153.684 62.3236 153.175 62.3236Z" fill="#BCBCBC"/>
<path opacity="0.42" d="M130.685 54.8598H116.541C116.213 54.8598 115.949 54.2985 115.949 53.6024V53.2432C115.949 52.5472 116.213 51.9859 116.541 51.9859H130.674C131.002 51.9859 131.266 52.5472 131.266 53.2432V53.58C131.277 54.276 131.013 54.8598 130.685 54.8598Z" fill="#D9D9D9"/>
<rect x="108.402" y="68.0944" width="5.52441" height="5.49377" rx="2.74689" fill="#C8C8C8" fill-opacity="0.6"/>
<path opacity="0.2" d="M164.847 75.194H116.867C116.359 75.194 115.949 74.8405 115.949 74.4021V74.2466C115.949 73.8082 116.359 73.4547 116.867 73.4547H164.847C165.355 73.4547 165.765 73.8082 165.765 74.2466V74.4021C165.781 74.8405 165.371 75.194 164.847 75.194ZM153.175 78.4321H116.867C116.359 78.4321 115.949 78.0786 115.949 77.6402V77.4847C115.949 77.0463 116.359 76.6928 116.867 76.6928H153.159C153.667 76.6928 154.077 77.0463 154.077 77.4847V77.6402C154.093 78.0786 153.684 78.4321 153.175 78.4321Z" fill="#BCBCBC"/>
<path opacity="0.42" d="M130.685 70.9683H116.541C116.213 70.9683 115.949 70.407 115.949 69.7109V69.3517C115.949 68.6557 116.213 68.0944 116.541 68.0944H130.674C131.002 68.0944 131.266 68.6557 131.266 69.3517V69.6885C131.277 70.3845 131.013 70.9683 130.685 70.9683Z" fill="#D9D9D9"/>
<rect x="108.402" y="84.2029" width="5.52441" height="5.49377" rx="2.74689" fill="#C8C8C8" fill-opacity="0.6"/>
<path opacity="0.2" d="M164.847 91.3025H116.867C116.359 91.3025 115.949 90.949 115.949 90.5106V90.3551C115.949 89.9167 116.359 89.5632 116.867 89.5632H164.847C165.355 89.5632 165.765 89.9167 165.765 90.3551V90.5106C165.781 90.949 165.371 91.3025 164.847 91.3025ZM153.175 94.5406H116.867C116.359 94.5406 115.949 94.1871 115.949 93.7487V93.5932C115.949 93.1548 116.359 92.8013 116.867 92.8013H153.159C153.667 92.8013 154.077 93.1548 154.077 93.5932V93.7487C154.093 94.1871 153.684 94.5406 153.175 94.5406Z" fill="#BCBCBC"/>
<path opacity="0.42" d="M130.685 87.0768H116.541C116.213 87.0768 115.949 86.5155 115.949 85.8195V85.4602C115.949 84.7642 116.213 84.2029 116.541 84.2029H130.674C131.002 84.2029 131.266 84.7642 131.266 85.4602V85.797C131.277 86.493 131.013 87.0768 130.685 87.0768Z" fill="#D9D9D9"/>
<path opacity="0.42" d="M161.083 22.0234H110.518C109.347 22.0234 108.402 21.0518 108.402 19.847V19.2252C108.402 18.0204 109.347 17.0488 110.518 17.0488H161.045C162.217 17.0488 163.162 18.0204 163.162 19.2252V19.8082C163.2 21.0129 162.255 22.0234 161.083 22.0234Z" fill="#E0DEDE"/>
</g>
<defs>
<clipPath id="clip0_435_350">
<rect width="209.48" height="108.86" fill="white"/>
</clipPath>
</defs>
</svg>
