<svg width="230" height="54" viewBox="0 0 230 54" fill="none" xmlns="http://www.w3.org/2000/svg">
<g clip-path="url(#clip0_574_30)">
<rect width="230" height="53.36" fill="#016772" fill-opacity="0.8"/>
<line opacity="0.6" x1="0.099939" y1="48.0609" x2="229.9" y2="48.0609" stroke="white" stroke-width="0.2" stroke-linecap="round"/>
<path d="M30.962 9.6066H8.22482C7.69803 9.6066 7.27319 8.85393 7.27319 7.92062V7.43891C7.27319 6.5056 7.69803 5.75293 8.22482 5.75293H30.945C31.4718 5.75293 31.8966 6.5056 31.8966 7.43891V7.89052C31.9136 8.82383 31.4888 9.6066 30.962 9.6066Z" fill="white"/>
<path d="M56.3662 9.6066H40.0689C39.6913 9.6066 39.3868 8.85393 39.3868 7.92062V7.43891C39.3868 6.5056 39.6913 5.75293 40.0689 5.75293H56.354C56.7316 5.75293 57.0361 6.5056 57.0361 7.43891V7.89052C57.0483 8.82383 56.7438 9.6066 56.3662 9.6066Z" fill="white"/>
<path d="M76.0159 9.6066H59.7186C59.341 9.6066 59.0365 8.85393 59.0365 7.92062V7.43891C59.0365 6.5056 59.341 5.75293 59.7186 5.75293H76.0037C76.3813 5.75293 76.6858 6.5056 76.6858 7.43891V7.89052C76.698 8.82383 76.3935 9.6066 76.0159 9.6066Z" fill="white"/>
<path d="M95.6656 9.60636H79.3683C78.9907 9.60636 78.6862 8.85369 78.6862 7.92038V7.43867C78.6862 6.50536 78.9907 5.75269 79.3683 5.75269H95.6534C96.031 5.75269 96.3355 6.50536 96.3355 7.43867V7.89027C96.3477 8.82358 96.0432 9.60636 95.6656 9.60636Z" fill="white"/>
<path d="M115.315 9.6066H99.018C98.6404 9.6066 98.3359 8.85393 98.3359 7.92062V7.43891C98.3359 6.5056 98.6404 5.75293 99.018 5.75293H115.303C115.681 5.75293 115.985 6.5056 115.985 7.43891V7.89052C115.997 8.82383 115.693 9.6066 115.315 9.6066Z" fill="white"/>
<path d="M20.7456 44.6972H7.81441C7.51481 44.6972 7.27319 43.9356 7.27319 42.9913V42.5039C7.27319 41.5596 7.51481 40.7981 7.81441 40.7981H20.7359C21.0355 40.7981 21.2771 41.5596 21.2771 42.5039V42.9609C21.2868 43.9052 21.0452 44.6972 20.7456 44.6972Z" fill="white"/>
<path d="M35.6775 44.6972H22.7463C22.4467 44.6972 22.2051 43.9356 22.2051 42.9913V42.5039C22.2051 41.5596 22.4467 40.7981 22.7463 40.7981H35.6678C35.9674 40.7981 36.209 41.5596 36.209 42.5039V42.9609C36.2187 43.9052 35.9771 44.6972 35.6775 44.6972Z" fill="white"/>
<path d="M50.6094 44.6969H37.6782C37.3786 44.6969 37.137 43.9354 37.137 42.9911V42.5037C37.137 41.5594 37.3786 40.7979 37.6782 40.7979H50.5997C50.8993 40.7979 51.1409 41.5594 51.1409 42.5037V42.9606C51.1506 43.9049 50.909 44.6969 50.6094 44.6969Z" fill="white"/>
<path d="M65.5413 44.6972H52.6101C52.3105 44.6972 52.0689 43.9356 52.0689 42.9913V42.5039C52.0689 41.5596 52.3105 40.7981 52.6101 40.7981H65.5316C65.8312 40.7981 66.0728 41.5596 66.0728 42.5039V42.9609C66.0825 43.9052 65.8409 44.6972 65.5413 44.6972Z" fill="white"/>
<path d="M80.4732 44.6969H67.542C67.2424 44.6969 67.0008 43.9354 67.0008 42.9911V42.5037C67.0008 41.5594 67.2424 40.7979 67.542 40.7979H80.4636C80.7632 40.7979 81.0048 41.5594 81.0048 42.5037V42.9606C81.0144 43.9049 80.7728 44.6969 80.4732 44.6969Z" fill="white"/>
<path d="M95.4051 44.6969H82.4739C82.1743 44.6969 81.9327 43.9354 81.9327 42.9911V42.5037C81.9327 41.5594 82.1743 40.7979 82.4739 40.7979H95.3954C95.695 40.7979 95.9367 41.5594 95.9367 42.5037V42.9606C95.9463 43.9049 95.7047 44.6969 95.4051 44.6969Z" fill="white"/>
<path d="M140.201 44.6967H127.27C126.97 44.6967 126.728 43.9351 126.728 42.9908V42.5035C126.728 41.5591 126.97 40.7976 127.27 40.7976H140.191C140.491 40.7976 140.732 41.5591 140.732 42.5035V42.9604C140.742 43.9047 140.5 44.6967 140.201 44.6967Z" fill="white"/>
<path d="M110.337 44.6967H97.4058C97.1062 44.6967 96.8646 43.9351 96.8646 42.9908V42.5035C96.8646 41.5591 97.1062 40.7976 97.4058 40.7976H110.327C110.627 40.7976 110.869 41.5591 110.869 42.5035V42.9604C110.878 43.9047 110.637 44.6967 110.337 44.6967Z" fill="white"/>
<path d="M155.133 44.6964H142.202C141.902 44.6964 141.66 43.9349 141.66 42.9906V42.5032C141.66 41.5589 141.902 40.7974 142.202 40.7974H155.123C155.423 40.7974 155.664 41.5589 155.664 42.5032V42.9601C155.674 43.9044 155.432 44.6964 155.133 44.6964Z" fill="white"/>
<path d="M125.269 44.6969H112.338C112.038 44.6969 111.797 43.9354 111.797 42.9911V42.5037C111.797 41.5594 112.038 40.7979 112.338 40.7979H125.259C125.559 40.7979 125.8 41.5594 125.8 42.5037V42.9606C125.81 43.9049 125.569 44.6969 125.269 44.6969Z" fill="white"/>
<path d="M170.065 44.6967H157.133C156.834 44.6967 156.592 43.9351 156.592 42.9908V42.5035C156.592 41.5591 156.834 40.7976 157.133 40.7976H170.055C170.355 40.7976 170.596 41.5591 170.596 42.5035V42.9604C170.606 43.9047 170.364 44.6967 170.065 44.6967Z" fill="white"/>
<rect x="175.516" y="39.9879" width="47.1104" height="5.51948" rx="2.75974" fill="#06555E" stroke="#C8C8C8" stroke-width="0.2"/>
<path d="M22.0922 28.888H8.39511C7.77812 28.888 7.27332 28.4894 7.27332 28.0023V21.4926C7.27332 21.0055 7.77812 20.6069 8.39511 20.6069H22.0922C22.7092 20.6069 23.214 21.0055 23.214 21.4926V28.0023C23.214 28.4894 22.7092 28.888 22.0922 28.888Z" fill="white"/>
<path opacity="0.42" d="M12.8868 26.6814H17.5825C17.7473 26.6814 17.8812 26.5344 17.8812 26.3648C17.8812 26.2743 17.8503 26.1951 17.7988 26.1386L16.6248 24.8494C16.5116 24.7251 16.3262 24.7251 16.2129 24.8494L15.8319 25.2679L14.864 24.2049C14.7507 24.0805 14.5653 24.0805 14.4521 24.2049L12.6912 26.1386C12.5779 26.263 12.5779 26.4665 12.6912 26.5909C12.7426 26.6475 12.8147 26.6814 12.8868 26.6814Z" fill="#06555E"/>
<path opacity="0.42" d="M16.7072 24.1029C17.0314 24.1029 17.2942 23.8143 17.2942 23.4583C17.2942 23.1023 17.0314 22.8137 16.7072 22.8137C16.383 22.8137 16.1202 23.1023 16.1202 23.4583C16.1202 23.8143 16.383 24.1029 16.7072 24.1029Z" fill="#06555E"/>
<rect x="33.0995" y="20.7069" width="145.286" height="8.08101" rx="4.0405" fill="#06555E" stroke="#C8C8C8" stroke-width="0.2"/>
<circle cx="173.881" cy="24.7476" r="3.28495" fill="#D9D9D9"/>
<path opacity="0.42" d="M172.117 26.2046H175.632C175.756 26.2046 175.856 26.0938 175.856 25.9661C175.856 25.8979 175.833 25.8383 175.794 25.7957L174.915 24.8246C174.831 24.7309 174.692 24.7309 174.607 24.8246L174.322 25.1398L173.597 24.3391C173.512 24.2454 173.374 24.2454 173.289 24.3391L171.971 25.7957C171.886 25.8894 171.886 26.0427 171.971 26.1364C172.009 26.179 172.063 26.2046 172.117 26.2046Z" fill="#06555E"/>
<path opacity="0.42" d="M174.977 24.2623C175.22 24.2623 175.416 24.045 175.416 23.7768C175.416 23.5086 175.22 23.2913 174.977 23.2913C174.734 23.2913 174.538 23.5086 174.538 23.7768C174.538 24.045 174.734 24.2623 174.977 24.2623Z" fill="#06555E"/>
<circle cx="218.586" cy="24.7473" r="4.14059" fill="#D9D9D9"/>
<path opacity="0.42" d="M216.362 26.5838H220.793C220.948 26.5838 221.075 26.4442 221.075 26.2832C221.075 26.1973 221.046 26.1221 220.997 26.0684L219.889 24.8444C219.783 24.7263 219.608 24.7263 219.501 24.8444L219.141 25.2417L218.228 24.2324C218.121 24.1143 217.946 24.1143 217.839 24.2324L216.178 26.0684C216.071 26.1865 216.071 26.3798 216.178 26.4979C216.226 26.5516 216.294 26.5838 216.362 26.5838Z" fill="#06555E"/>
<path opacity="0.42" d="M219.967 24.1356C220.273 24.1356 220.521 23.8616 220.521 23.5236C220.521 23.1856 220.273 22.9116 219.967 22.9116C219.661 22.9116 219.413 23.1856 219.413 23.5236C219.413 23.8616 219.661 24.1356 219.967 24.1356Z" fill="#06555E"/>
<rect opacity="0.8" x="181.457" y="20.6069" width="31.3444" height="8.28101" rx="4.1405" fill="white"/>
</g>
<defs>
<clipPath id="clip0_574_30">
<rect width="230" height="53.36" fill="white"/>
</clipPath>
</defs>
</svg>
