<svg width="230" height="54" viewBox="0 0 230 54" fill="none" xmlns="http://www.w3.org/2000/svg">
<rect width="230" height="53.36" transform="translate(0 0.23468)" fill="#016772" fill-opacity="0.8"/>
<rect y="29.4417" width="230" height="12.2054" fill="#D9D9D9" fill-opacity="0.3"/>
<path d="M40.7312 17.7749H9.91542C8.52732 17.7749 7.3916 17.2666 7.3916 16.6454V8.34317C7.3916 7.72192 8.52732 7.21362 9.91542 7.21362H40.7312C42.1193 7.21362 43.2551 7.72192 43.2551 8.34317V16.6454C43.2551 17.2666 42.1193 17.7749 40.7312 17.7749Z" fill="white"/>
<path opacity="0.42" d="M21.2899 15.5844H29.3259C29.6079 15.5844 29.837 15.3497 29.837 15.0789C29.837 14.9345 29.7841 14.8082 29.696 14.7179L27.687 12.6599C27.4932 12.4613 27.176 12.4613 26.9821 12.6599L26.3301 13.3279L24.6735 11.6309C24.4797 11.4324 24.1624 11.4324 23.9686 11.6309L20.9551 14.7179C20.7612 14.9165 20.7612 15.2414 20.9551 15.44C21.0432 15.5303 21.1666 15.5844 21.2899 15.5844Z" fill="#06555E"/>
<path opacity="0.42" d="M27.828 11.4678C28.3828 11.4678 28.8325 11.0071 28.8325 10.4388C28.8325 9.87054 28.3828 9.40985 27.828 9.40985C27.2732 9.40985 26.8235 9.87054 26.8235 10.4388C26.8235 11.0071 27.2732 11.4678 27.828 11.4678Z" fill="#06555E"/>
<rect x="47.3133" y="8.77224" width="104.659" height="7.44401" rx="3.72201" fill="#06555E" stroke="#C8C8C8" stroke-width="0.2"/>
<ellipse cx="147.473" cy="12.4944" rx="3.09591" ry="3.03226" fill="#D9D9D9"/>
<path opacity="0.42" d="M145.81 13.8394H149.123C149.239 13.8394 149.333 13.7371 149.333 13.6192C149.333 13.5563 149.312 13.5013 149.275 13.4619L148.447 12.5656C148.367 12.4791 148.236 12.4791 148.157 12.5656L147.888 12.8565L147.205 12.1174C147.125 12.0309 146.994 12.0309 146.914 12.1174L145.672 13.4619C145.592 13.5484 145.592 13.69 145.672 13.7765C145.708 13.8158 145.759 13.8394 145.81 13.8394Z" fill="#06555E"/>
<path opacity="0.42" d="M148.505 12.0466C148.734 12.0466 148.919 11.8459 148.919 11.5984C148.919 11.3509 148.734 11.1502 148.505 11.1502C148.277 11.1502 148.091 11.3509 148.091 11.5984C148.091 11.8459 148.277 12.0466 148.505 12.0466Z" fill="#06555E"/>
<ellipse cx="159.4" cy="12.2792" rx="3.37014" ry="3.14372" fill="#D9D9D9"/>
<path opacity="0.42" d="M157.59 13.6737H161.196C161.323 13.6737 161.426 13.5677 161.426 13.4454C161.426 13.3802 161.402 13.3231 161.362 13.2824L160.461 12.353C160.374 12.2634 160.231 12.2634 160.144 12.353L159.852 12.6547L159.109 11.8884C159.022 11.7987 158.879 11.7987 158.792 11.8884L157.44 13.2824C157.353 13.372 157.353 13.5188 157.44 13.6084C157.479 13.6492 157.535 13.6737 157.59 13.6737Z" fill="#06555E"/>
<path opacity="0.42" d="M160.524 11.815C160.773 11.815 160.975 11.6069 160.975 11.3503C160.975 11.0937 160.773 10.8856 160.524 10.8856C160.275 10.8856 160.073 11.0937 160.073 11.3503C160.073 11.6069 160.275 11.815 160.524 11.815Z" fill="#06555E"/>
<rect opacity="0.8" x="165.547" y="9.43835" width="14.9744" height="3.21243" rx="1.60621" fill="white"/>
<rect opacity="0.8" x="165.547" y="13.694" width="21.9113" height="2.15892" rx="1.07946" fill="white"/>
<ellipse cx="194.787" cy="12.2792" rx="3.37014" ry="3.14372" fill="#D9D9D9"/>
<path opacity="0.42" d="M192.977 13.6737H196.583C196.71 13.6737 196.812 13.5677 196.812 13.4454C196.812 13.3802 196.789 13.3231 196.749 13.2824L195.848 12.353C195.761 12.2634 195.618 12.2634 195.531 12.353L195.239 12.6547L194.495 11.8884C194.408 11.7987 194.266 11.7987 194.179 11.8884L192.827 13.2824C192.74 13.372 192.74 13.5188 192.827 13.6084C192.866 13.6492 192.921 13.6737 192.977 13.6737Z" fill="#06555E"/>
<path opacity="0.42" d="M195.911 11.815C196.16 11.815 196.362 11.6069 196.362 11.3503C196.362 11.0937 196.16 10.8856 195.911 10.8856C195.662 10.8856 195.46 11.0937 195.46 11.3503C195.46 11.6069 195.662 11.815 195.911 11.815Z" fill="#06555E"/>
<rect opacity="0.8" x="200.934" y="9.43835" width="14.9744" height="3.21243" rx="1.60621" fill="white"/>
<rect opacity="0.8" x="200.934" y="13.694" width="21.9113" height="2.15892" rx="1.07946" fill="white"/>
<path d="M63.8545 37.7058H50.358C50.0453 37.7058 49.7931 36.8615 49.7931 35.8146V35.2742C49.7931 34.2273 50.0453 33.383 50.358 33.383H63.8444C64.1571 33.383 64.4093 34.2273 64.4093 35.2742V35.7808C64.4193 36.8278 64.1672 37.7058 63.8545 37.7058Z" fill="white"/>
<path d="M80.1272 37.7059H66.6307C66.318 37.7059 66.0658 36.8616 66.0658 35.8147V35.2743C66.0658 34.2274 66.318 33.3831 66.6307 33.3831H80.1171C80.4298 33.3831 80.682 34.2274 80.682 35.2743V35.7809C80.692 36.8278 80.4399 37.7059 80.1272 37.7059Z" fill="white"/>
<path d="M96.4 37.7056H82.9035C82.5908 37.7056 82.3386 36.8613 82.3386 35.8144V35.2741C82.3386 34.2271 82.5908 33.3828 82.9035 33.3828H96.3899C96.7026 33.3828 96.9548 34.2271 96.9548 35.2741V35.7806C96.9649 36.8276 96.7127 37.7056 96.4 37.7056Z" fill="white"/>
<path d="M112.673 37.7059H99.1762C98.8635 37.7059 98.6113 36.8616 98.6113 35.8147V35.2743C98.6113 34.2274 98.8635 33.3831 99.1762 33.3831H112.663C112.975 33.3831 113.227 34.2274 113.227 35.2743V35.7809C113.238 36.8278 112.985 37.7059 112.673 37.7059Z" fill="white"/>
<rect opacity="0.8" x="7.37146" y="32.4677" width="33.6333" height="6.15332" fill="#00B2C5" fill-opacity="0.8"/>
<ellipse cx="10.0429" cy="35.5444" rx="1.79274" ry="1.69047" fill="#D9D9D9"/>
<path opacity="0.42" d="M9.07997 36.2943H10.9983C11.0656 36.2943 11.1203 36.2373 11.1203 36.1715C11.1203 36.1365 11.1076 36.1058 11.0866 36.0839L10.607 35.5841C10.5608 35.5359 10.485 35.5359 10.4388 35.5841L10.2831 35.7463L9.88767 35.3343C9.84139 35.286 9.76567 35.286 9.7194 35.3343L9.00004 36.0839C8.95376 36.1321 8.95376 36.211 9.00004 36.2592C9.02107 36.2811 9.05052 36.2943 9.07997 36.2943Z" fill="#06555E"/>
<path opacity="0.42" d="M10.6408 35.2946C10.7732 35.2946 10.8806 35.1827 10.8806 35.0447C10.8806 34.9067 10.7732 34.7949 10.6408 34.7949C10.5084 34.7949 10.401 34.9067 10.401 35.0447C10.401 35.1827 10.5084 35.2946 10.6408 35.2946Z" fill="#06555E"/>
<rect opacity="0.8" x="12.7258" y="34.2368" width="26.9832" height="2.61523" rx="1.30762" fill="white"/>
<rect opacity="0.8" x="181.818" y="33.6606" width="14.9744" height="3.7676" rx="1.8838" fill="white"/>
<ellipse cx="202.431" cy="35.5445" rx="3.37014" ry="3.14372" fill="#D9D9D9"/>
<path opacity="0.42" d="M200.621 36.9389H204.227C204.353 36.9389 204.456 36.8329 204.456 36.7107C204.456 36.6455 204.432 36.5884 204.393 36.5476L203.491 35.6183C203.404 35.5286 203.262 35.5286 203.175 35.6183L202.882 35.9199L202.139 35.1536C202.052 35.0639 201.91 35.0639 201.823 35.1536L200.47 36.5476C200.383 36.6373 200.383 36.784 200.47 36.8737C200.51 36.9145 200.565 36.9389 200.621 36.9389Z" fill="#06555E"/>
<path opacity="0.42" d="M203.555 35.0802C203.804 35.0802 204.005 34.8722 204.005 34.6155C204.005 34.3589 203.804 34.1509 203.555 34.1509C203.306 34.1509 203.104 34.3589 203.104 34.6155C203.104 34.8722 203.306 35.0802 203.555 35.0802Z" fill="#06555E"/>
<ellipse cx="210.563" cy="35.5445" rx="3.37014" ry="3.14372" fill="#D9D9D9"/>
<path opacity="0.42" d="M208.753 36.9389H212.359C212.485 36.9389 212.588 36.8329 212.588 36.7107C212.588 36.6455 212.565 36.5884 212.525 36.5476L211.623 35.6183C211.536 35.5286 211.394 35.5286 211.307 35.6183L211.014 35.9199L210.271 35.1536C210.184 35.0639 210.042 35.0639 209.955 35.1536L208.602 36.5476C208.515 36.6373 208.515 36.784 208.602 36.8737C208.642 36.9145 208.697 36.9389 208.753 36.9389Z" fill="#06555E"/>
<path opacity="0.42" d="M211.687 35.0802C211.936 35.0802 212.138 34.8722 212.138 34.6155C212.138 34.3589 211.936 34.1509 211.687 34.1509C211.438 34.1509 211.236 34.3589 211.236 34.6155C211.236 34.8722 211.438 35.0802 211.687 35.0802Z" fill="#06555E"/>
<ellipse cx="219.258" cy="35.5442" rx="3.37014" ry="3.14372" fill="#D9D9D9"/>
<path opacity="0.42" d="M217.448 36.9387H221.054C221.181 36.9387 221.284 36.8327 221.284 36.7104C221.284 36.6452 221.26 36.5881 221.221 36.5474L220.319 35.618C220.232 35.5284 220.09 35.5284 220.003 35.618L219.71 35.9197L218.967 35.1534C218.88 35.0637 218.737 35.0637 218.65 35.1534L217.298 36.5474C217.211 36.6371 217.211 36.7838 217.298 36.8735C217.338 36.9142 217.393 36.9387 217.448 36.9387Z" fill="#06555E"/>
<path opacity="0.42" d="M220.382 35.08C220.631 35.08 220.833 34.8719 220.833 34.6153C220.833 34.3587 220.631 34.1506 220.382 34.1506C220.133 34.1506 219.932 34.3587 219.932 34.6153C219.932 34.8719 220.133 35.08 220.382 35.08Z" fill="#06555E"/>
</svg>
