<svg width="230" height="54" viewBox="0 0 230 54" fill="none" xmlns="http://www.w3.org/2000/svg">
<g clip-path="url(#clip0_575_454)">
<rect width="230" height="53.36" transform="translate(0 -0.00854492)" fill="#016772" fill-opacity="0.8"/>
<path d="M63.8746 48.5513H50.3781C50.0654 48.5513 49.8132 47.707 49.8132 46.6601V46.1198C49.8132 45.0728 50.0654 44.2285 50.3781 44.2285H63.8645C64.1772 44.2285 64.4294 45.0728 64.4294 46.1198V46.6263C64.4394 47.6733 64.1873 48.5513 63.8746 48.5513Z" fill="white"/>
<path d="M80.1473 48.5513H66.6508C66.3381 48.5513 66.0859 47.707 66.0859 46.6601V46.1198C66.0859 45.0728 66.3381 44.2285 66.6508 44.2285H80.1372C80.4499 44.2285 80.7021 45.0728 80.7021 46.1198V46.6263C80.7122 47.6733 80.46 48.5513 80.1473 48.5513Z" fill="white"/>
<path d="M96.42 48.5511H82.9235C82.6108 48.5511 82.3587 47.7068 82.3587 46.6599V46.1195C82.3587 45.0726 82.6108 44.2283 82.9235 44.2283H96.41C96.7227 44.2283 96.9748 45.0726 96.9748 46.1195V46.6261C96.9849 47.673 96.7327 48.5511 96.42 48.5511Z" fill="white"/>
<path d="M112.693 48.5513H99.1963C98.8836 48.5513 98.6314 47.707 98.6314 46.6601V46.1198C98.6314 45.0728 98.8836 44.2285 99.1963 44.2285H112.683C112.995 44.2285 113.248 45.0728 113.248 46.1198V46.6263C113.258 47.6733 113.005 48.5513 112.693 48.5513Z" fill="white"/>
<circle cx="9.38288" cy="46.3899" r="1.99125" fill="#D9D9D9"/>
<path opacity="0.42" d="M8.31339 47.273H10.4441C10.5189 47.273 10.5796 47.2059 10.5796 47.1284C10.5796 47.0871 10.5656 47.051 10.5422 47.0252L10.0095 46.4365C9.95814 46.3797 9.87404 46.3797 9.82264 46.4365L9.64975 46.6276L9.21053 46.1422C9.15913 46.0854 9.07502 46.0854 9.02363 46.1422L8.22461 47.0252C8.17322 47.082 8.17322 47.1749 8.22461 47.2317C8.24798 47.2575 8.28069 47.273 8.31339 47.273Z" fill="#06555E"/>
<path opacity="0.42" d="M10.0471 46.0957C10.1942 46.0957 10.3134 45.964 10.3134 45.8014C10.3134 45.6389 10.1942 45.5071 10.0471 45.5071C9.89997 45.5071 9.78073 45.6389 9.78073 45.8014C9.78073 45.964 9.89997 46.0957 10.0471 46.0957Z" fill="#06555E"/>
<rect opacity="0.8" x="12.3741" y="44.3987" width="29.971" height="3.98242" rx="1.99121" fill="white"/>
<rect opacity="0.8" x="7.39163" y="2.90625" width="71.6359" height="4.77351" rx="2.38675" fill="white"/>
<rect opacity="0.8" x="185.977" y="2.44946" width="36.9743" height="5.68701" rx="2.84351" fill="white"/>
<line opacity="0.6" x1="0.099939" y1="11.847" x2="229.9" y2="11.847" stroke="white" stroke-width="0.2" stroke-linecap="round"/>
<path d="M22.0832 32.2283H8.38608C7.76909 32.2283 7.26428 31.8298 7.26428 31.3426V24.8329C7.26428 24.3458 7.76909 23.9473 8.38608 23.9473H22.0832C22.7002 23.9473 23.205 24.3458 23.205 24.8329V31.3426C23.205 31.8298 22.7002 32.2283 22.0832 32.2283Z" fill="white"/>
<path opacity="0.42" d="M12.8778 30.0217H17.5735C17.7383 30.0217 17.8721 29.8747 17.8721 29.7051C17.8721 29.6146 17.8412 29.5355 17.7897 29.4789L16.6158 28.1898C16.5025 28.0654 16.3172 28.0654 16.2039 28.1898L15.8229 28.6082L14.8549 27.5452C14.7416 27.4208 14.5563 27.4208 14.443 27.5452L12.6821 29.4789C12.5688 29.6033 12.5688 29.8069 12.6821 29.9313C12.7336 29.9878 12.8057 30.0217 12.8778 30.0217Z" fill="#06555E"/>
<path opacity="0.42" d="M16.6982 27.4432C17.0223 27.4432 17.2851 27.1546 17.2851 26.7986C17.2851 26.4426 17.0223 26.1541 16.6982 26.1541C16.374 26.1541 16.1112 26.4426 16.1112 26.7986C16.1112 27.1546 16.374 27.4432 16.6982 27.4432Z" fill="#06555E"/>
<rect x="29.3462" y="22.3136" width="178.335" height="9.81465" fill="#06555E" stroke="#C8C8C8" stroke-width="0.2"/>
<rect x="177.447" y="23.4907" width="28.7602" height="7.46045" fill="#D9D9D9"/>
<circle cx="218.811" cy="28.0876" r="4.14059" fill="#D9D9D9"/>
<path opacity="0.42" d="M216.587 29.9241H221.018C221.173 29.9241 221.299 29.7846 221.299 29.6235C221.299 29.5376 221.27 29.4624 221.222 29.4088L220.114 28.1847C220.007 28.0666 219.832 28.0666 219.725 28.1847L219.366 28.582L218.452 27.5727C218.346 27.4546 218.171 27.4546 218.064 27.5727L216.402 29.4088C216.295 29.5269 216.295 29.7201 216.402 29.8382C216.451 29.8919 216.519 29.9241 216.587 29.9241Z" fill="#06555E"/>
<path opacity="0.42" d="M220.192 27.476C220.498 27.476 220.746 27.202 220.746 26.864C220.746 26.526 220.498 26.252 220.192 26.252C219.886 26.252 219.638 26.526 219.638 26.864C219.638 27.202 219.886 27.476 220.192 27.476Z" fill="#06555E"/>
<rect opacity="0.8" x="189.224" y="45.3284" width="33.6213" height="3.90503" rx="1.95251" fill="white"/>
</g>
<defs>
<clipPath id="clip0_575_454">
<rect width="230" height="53.36" fill="white" transform="translate(0 -0.00854492)"/>
</clipPath>
</defs>
</svg>
