<svg width="230" height="54" viewBox="0 0 230 54" fill="none" xmlns="http://www.w3.org/2000/svg">
<g clip-path="url(#clip0_575_370)">
<rect width="230" height="53.36" transform="translate(0 0.352783)" fill="#016772" fill-opacity="0.8"/>
<path d="M63.8746 47.9764H50.3781C50.0654 47.9764 49.8132 47.1321 49.8132 46.0852V45.5448C49.8132 44.4979 50.0654 43.6536 50.3781 43.6536H63.8645C64.1772 43.6536 64.4294 44.4979 64.4294 45.5448V46.0514C64.4394 47.0983 64.1873 47.9764 63.8746 47.9764Z" fill="white"/>
<path d="M80.1473 47.9764H66.6508C66.3381 47.9764 66.0859 47.1321 66.0859 46.0852V45.5448C66.0859 44.4979 66.3381 43.6536 66.6508 43.6536H80.1372C80.4499 43.6536 80.7021 44.4979 80.7021 45.5448V46.0514C80.7122 47.0983 80.46 47.9764 80.1473 47.9764Z" fill="white"/>
<path d="M96.42 47.9761H82.9235C82.6108 47.9761 82.3587 47.1318 82.3587 46.0849V45.5446C82.3587 44.4976 82.6108 43.6533 82.9235 43.6533H96.41C96.7227 43.6533 96.9748 44.4976 96.9748 45.5446V46.0511C96.9849 47.0981 96.7327 47.9761 96.42 47.9761Z" fill="white"/>
<path d="M112.693 47.9764H99.1963C98.8836 47.9764 98.6314 47.1321 98.6314 46.0852V45.5448C98.6314 44.4979 98.8836 43.6536 99.1963 43.6536H112.683C112.995 43.6536 113.248 44.4979 113.248 45.5448V46.0514C113.258 47.0983 113.005 47.9764 112.693 47.9764Z" fill="white"/>
<rect opacity="0.8" x="7.39163" y="42.7383" width="33.6333" height="6.15332" fill="#00B2C5" fill-opacity="0.8"/>
<ellipse cx="10.063" cy="45.815" rx="1.79274" ry="1.69047" fill="#D9D9D9"/>
<path opacity="0.42" d="M9.10017 46.5648H11.0185C11.0858 46.5648 11.1405 46.5078 11.1405 46.442C11.1405 46.407 11.1278 46.3763 11.1068 46.3544L10.6272 45.8546C10.581 45.8064 10.5052 45.8064 10.459 45.8546L10.3033 46.0168L9.90787 45.6048C9.8616 45.5565 9.78587 45.5565 9.7396 45.6048L9.02024 46.3544C8.97397 46.4026 8.97397 46.4815 9.02024 46.5297C9.04127 46.5516 9.07072 46.5648 9.10017 46.5648Z" fill="#06555E"/>
<path opacity="0.42" d="M10.661 45.5652C10.7935 45.5652 10.9008 45.4533 10.9008 45.3153C10.9008 45.1773 10.7935 45.0654 10.661 45.0654C10.5286 45.0654 10.4212 45.1773 10.4212 45.3153C10.4212 45.4533 10.5286 45.5652 10.661 45.5652Z" fill="#06555E"/>
<rect opacity="0.8" x="12.7461" y="44.5073" width="26.9832" height="2.61523" rx="1.30762" fill="white"/>
<path d="M14.1961 8.30835H7.78902C7.50041 8.30835 7.26428 8.02093 7.26428 7.66964V2.97513C7.26428 2.62384 7.50041 2.33643 7.78902 2.33643H14.1961C14.4847 2.33643 14.7208 2.62384 14.7208 2.97513V7.66964C14.7208 8.02093 14.4847 8.30835 14.1961 8.30835Z" fill="white"/>
<path opacity="0.42" d="M8.95395 6.97555H12.8004C12.9353 6.97555 13.045 6.84987 13.045 6.70485C13.045 6.62751 13.0197 6.55984 12.9775 6.5115L12.0159 5.40938C11.9231 5.30304 11.7713 5.30304 11.6785 5.40938L11.3664 5.76709L10.5735 4.85832C10.4807 4.75198 10.3289 4.75198 10.2361 4.85832L8.79368 6.5115C8.70089 6.61784 8.70089 6.79186 8.79368 6.8982C8.83586 6.94654 8.8949 6.97555 8.95395 6.97555Z" fill="#06555E"/>
<path opacity="0.42" d="M12.0833 4.77106C12.3489 4.77106 12.5641 4.52434 12.5641 4.22C12.5641 3.91566 12.3489 3.66895 12.0833 3.66895C11.8178 3.66895 11.6025 3.91566 11.6025 4.22C11.6025 4.52434 11.8178 4.77106 12.0833 4.77106Z" fill="#06555E"/>
<rect opacity="0.8" x="17.0763" y="3.66895" width="26.7441" height="3.30647" rx="1.65323" fill="white"/>
<rect opacity="0.8" x="196.101" y="3.66919" width="26.7441" height="3.30647" rx="1.65323" fill="white"/>
<rect opacity="0.8" x="166.464" y="3.66919" width="26.7441" height="3.30647" rx="1.65323" fill="white"/>
<line opacity="0.6" x1="0.099939" y1="12.2083" x2="229.9" y2="12.2083" stroke="white" stroke-width="0.2" stroke-linecap="round"/>
<path d="M22.0832 32.5897H8.38608C7.76909 32.5897 7.26428 32.1911 7.26428 31.704V25.1943C7.26428 24.7071 7.76909 24.3086 8.38608 24.3086H22.0832C22.7002 24.3086 23.205 24.7071 23.205 25.1943V31.704C23.205 32.1911 22.7002 32.5897 22.0832 32.5897Z" fill="white"/>
<path opacity="0.42" d="M12.8778 30.3831H17.5735C17.7383 30.3831 17.8721 30.2361 17.8721 30.0664C17.8721 29.976 17.8412 29.8968 17.7897 29.8403L16.6158 28.5511C16.5025 28.4267 16.3172 28.4267 16.2039 28.5511L15.8229 28.9695L14.8549 27.9065C14.7416 27.7821 14.5563 27.7821 14.443 27.9065L12.6821 29.8403C12.5688 29.9647 12.5688 30.1682 12.6821 30.2926C12.7336 30.3491 12.8057 30.3831 12.8778 30.3831Z" fill="#06555E"/>
<path opacity="0.42" d="M16.6982 27.8045C17.0223 27.8045 17.2851 27.5159 17.2851 27.16C17.2851 26.804 17.0223 26.5154 16.6982 26.5154C16.374 26.5154 16.1112 26.804 16.1112 27.16C16.1112 27.5159 16.374 27.8045 16.6982 27.8045Z" fill="#06555E"/>
<rect x="66.305" y="24.4086" width="105.265" height="8.08101" rx="4.0405" fill="#06555E" stroke="#C8C8C8" stroke-width="0.2"/>
<circle cx="167.066" cy="28.4493" r="3.28495" fill="#D9D9D9"/>
<path opacity="0.42" d="M165.302 29.9062H168.817C168.94 29.9062 169.04 29.7955 169.04 29.6677C169.04 29.5996 169.017 29.54 168.978 29.4974L168.1 28.5263C168.015 28.4326 167.876 28.4326 167.791 28.5263L167.506 28.8415L166.782 28.0407C166.697 27.947 166.558 27.947 166.473 28.0407L165.155 29.4974C165.07 29.5911 165.07 29.7444 165.155 29.8381C165.194 29.8807 165.248 29.9062 165.302 29.9062Z" fill="#06555E"/>
<path opacity="0.42" d="M168.161 27.964C168.404 27.964 168.601 27.7466 168.601 27.4785C168.601 27.2103 168.404 26.9929 168.161 26.9929C167.919 26.9929 167.722 27.2103 167.722 27.4785C167.722 27.7466 167.919 27.964 168.161 27.964Z" fill="#06555E"/>
<circle cx="218.811" cy="28.4489" r="4.14059" fill="#D9D9D9"/>
<path opacity="0.42" d="M216.587 30.2855H221.018C221.173 30.2855 221.299 30.1459 221.299 29.9848C221.299 29.8989 221.27 29.8238 221.222 29.7701L220.114 28.5461C220.007 28.4279 219.832 28.4279 219.725 28.5461L219.366 28.9433L218.452 27.934C218.346 27.8159 218.171 27.8159 218.064 27.934L216.402 29.7701C216.295 29.8882 216.295 30.0815 216.402 30.1996C216.451 30.2533 216.519 30.2855 216.587 30.2855Z" fill="#06555E"/>
<path opacity="0.42" d="M220.192 27.8373C220.498 27.8373 220.746 27.5633 220.746 27.2253C220.746 26.8873 220.498 26.6133 220.192 26.6133C219.886 26.6133 219.638 26.8873 219.638 27.2253C219.638 27.5633 219.886 27.8373 220.192 27.8373Z" fill="#06555E"/>
</g>
<defs>
<clipPath id="clip0_575_370">
<rect width="230" height="53.36" fill="white" transform="translate(0 0.352783)"/>
</clipPath>
</defs>
</svg>
