<svg width="230" height="54" viewBox="0 0 230 54" fill="none" xmlns="http://www.w3.org/2000/svg">
<g clip-path="url(#clip0_575_224)">
<rect width="230" height="53.36" fill="#016772" fill-opacity="0.8"/>
<path d="M97.2167 48.4244H83.7202C83.4075 48.4244 83.1553 47.5801 83.1553 46.5332V45.9928C83.1553 44.9459 83.4075 44.1016 83.7202 44.1016H97.2066C97.5193 44.1016 97.7715 44.9459 97.7715 45.9928V46.4994C97.7816 47.5463 97.5294 48.4244 97.2167 48.4244Z" fill="white"/>
<path d="M113.489 48.4244H99.9929C99.6802 48.4244 99.4281 47.5801 99.4281 46.5332V45.9928C99.4281 44.9459 99.6802 44.1016 99.9929 44.1016H113.479C113.792 44.1016 114.044 44.9459 114.044 45.9928V46.4994C114.054 47.5463 113.802 48.4244 113.489 48.4244Z" fill="white"/>
<path d="M129.762 48.4241H116.266C115.953 48.4241 115.701 47.5798 115.701 46.5329V45.9926C115.701 44.9456 115.953 44.1013 116.266 44.1013H129.752C130.065 44.1013 130.317 44.9456 130.317 45.9926V46.4991C130.327 47.5461 130.075 48.4241 129.762 48.4241Z" fill="white"/>
<path d="M146.035 48.4244H132.538C132.226 48.4244 131.974 47.5801 131.974 46.5332V45.9928C131.974 44.9459 132.226 44.1016 132.538 44.1016H146.025C146.338 44.1016 146.59 44.9459 146.59 45.9928V46.4994C146.6 47.5463 146.348 48.4244 146.035 48.4244Z" fill="white"/>
<path d="M125.981 38.2459H103.765C102.764 38.2459 101.945 37.2493 101.945 36.0312V19.7535C101.945 18.5354 102.764 17.5388 103.765 17.5388H125.981C126.981 17.5388 127.8 18.5354 127.8 19.7535V36.0312C127.8 37.2493 126.981 38.2459 125.981 38.2459Z" fill="white"/>
<path opacity="0.42" d="M107.804 33.6259H121.141C121.609 33.6259 121.989 33.1901 121.989 32.6873C121.989 32.4191 121.901 32.1844 121.755 32.0168L118.421 28.1954C118.099 27.8266 117.573 27.8266 117.251 28.1954L116.169 29.4357L113.42 26.2846C113.098 25.9159 112.571 25.9159 112.25 26.2846L107.248 32.0168C106.926 32.3856 106.926 32.989 107.248 33.3577C107.394 33.5253 107.599 33.6259 107.804 33.6259Z" fill="#06555E"/>
<path opacity="0.42" d="M118.655 25.9809C119.576 25.9809 120.322 25.1254 120.322 24.0702C120.322 23.0149 119.576 22.1594 118.655 22.1594C117.734 22.1594 116.988 23.0149 116.988 24.0702C116.988 25.1254 117.734 25.9809 118.655 25.9809Z" fill="#06555E"/>
<path d="M14.1961 9.72314H7.78902C7.50041 9.72314 7.26428 9.43573 7.26428 9.08444V4.38993C7.26428 4.03864 7.50041 3.75122 7.78902 3.75122H14.1961C14.4847 3.75122 14.7208 4.03864 14.7208 4.38993V9.08444C14.7208 9.43573 14.4847 9.72314 14.1961 9.72314Z" fill="white"/>
<path opacity="0.42" d="M8.95395 8.39034H12.8004C12.9353 8.39034 13.045 8.26466 13.045 8.11965C13.045 8.0423 13.0197 7.97463 12.9775 7.92629L12.0159 6.82418C11.9231 6.71783 11.7713 6.71783 11.6785 6.82418L11.3664 7.18188L10.5735 6.27312C10.4807 6.16677 10.3289 6.16677 10.2361 6.27312L8.79368 7.92629C8.70089 8.03264 8.70089 8.20666 8.79368 8.313C8.83586 8.36134 8.8949 8.39034 8.95395 8.39034Z" fill="#06555E"/>
<path opacity="0.42" d="M12.0833 6.18586C12.3489 6.18586 12.5641 5.93914 12.5641 5.6348C12.5641 5.33046 12.3489 5.08374 12.0833 5.08374C11.8178 5.08374 11.6025 5.33046 11.6025 5.6348C11.6025 5.93914 11.8178 6.18586 12.0833 6.18586Z" fill="#06555E"/>
<rect opacity="0.8" x="17.0763" y="5.08374" width="26.7441" height="3.30647" rx="1.65323" fill="white"/>
<path d="M197.854 10.5387H189.697C189.33 10.5387 189.029 10.1728 189.029 9.72555V3.74872C189.029 3.30148 189.33 2.93555 189.697 2.93555H197.854C198.222 2.93555 198.522 3.30148 198.522 3.74872V9.72555C198.522 10.1728 198.222 10.5387 197.854 10.5387Z" fill="white"/>
<path opacity="0.42" d="M191.18 8.84226H196.077C196.249 8.84226 196.389 8.68225 196.389 8.49762C196.389 8.39916 196.356 8.313 196.303 8.25146L195.079 6.84829C194.96 6.7129 194.767 6.7129 194.649 6.84829L194.252 7.3037L193.242 6.14671C193.124 6.01132 192.931 6.01132 192.813 6.14671L190.976 8.25146C190.858 8.38685 190.858 8.6084 190.976 8.74379C191.03 8.80534 191.105 8.84226 191.18 8.84226Z" fill="#06555E"/>
<path opacity="0.42" d="M195.164 6.03524C195.502 6.03524 195.777 5.72113 195.777 5.33366C195.777 4.94619 195.502 4.63208 195.164 4.63208C194.826 4.63208 194.552 4.94619 194.552 5.33366C194.552 5.72113 194.826 6.03524 195.164 6.03524Z" fill="#06555E"/>
<path d="M209.961 10.5387H201.804C201.436 10.5387 201.136 10.1728 201.136 9.72555V3.74872C201.136 3.30148 201.436 2.93555 201.804 2.93555H209.961C210.328 2.93555 210.629 3.30148 210.629 3.74872V9.72555C210.629 10.1728 210.328 10.5387 209.961 10.5387Z" fill="white"/>
<path opacity="0.42" d="M203.287 8.84226H208.184C208.356 8.84226 208.495 8.68225 208.495 8.49762C208.495 8.39916 208.463 8.313 208.409 8.25146L207.185 6.84829C207.067 6.7129 206.874 6.7129 206.756 6.84829L206.358 7.3037L205.349 6.14671C205.231 6.01132 205.037 6.01132 204.919 6.14671L203.083 8.25146C202.965 8.38685 202.965 8.6084 203.083 8.74379C203.137 8.80534 203.212 8.84226 203.287 8.84226Z" fill="#06555E"/>
<path opacity="0.42" d="M207.271 6.03524C207.609 6.03524 207.883 5.72113 207.883 5.33366C207.883 4.94619 207.609 4.63208 207.271 4.63208C206.933 4.63208 206.659 4.94619 206.659 5.33366C206.659 5.72113 206.933 6.03524 207.271 6.03524Z" fill="#06555E"/>
<path d="M222.068 10.5387H213.911C213.543 10.5387 213.242 10.1728 213.242 9.72555V3.74872C213.242 3.30148 213.543 2.93555 213.911 2.93555H222.068C222.435 2.93555 222.736 3.30148 222.736 3.74872V9.72555C222.736 10.1728 222.435 10.5387 222.068 10.5387Z" fill="white"/>
<path opacity="0.42" d="M215.394 8.84226H220.291C220.463 8.84226 220.602 8.68225 220.602 8.49762C220.602 8.39916 220.57 8.313 220.516 8.25146L219.292 6.84829C219.174 6.7129 218.98 6.7129 218.862 6.84829L218.465 7.3037L217.456 6.14671C217.337 6.01132 217.144 6.01132 217.026 6.14671L215.19 8.25146C215.071 8.38685 215.071 8.6084 215.19 8.74379C215.243 8.80534 215.318 8.84226 215.394 8.84226Z" fill="#06555E"/>
<path opacity="0.42" d="M219.378 6.03524C219.716 6.03524 219.99 5.72113 219.99 5.33366C219.99 4.94619 219.716 4.63208 219.378 4.63208C219.04 4.63208 218.766 4.94619 218.766 5.33366C218.766 5.72113 219.04 6.03524 219.378 6.03524Z" fill="#06555E"/>
<line opacity="0.6" x1="0.099939" y1="13.0609" x2="229.9" y2="13.0609" stroke="white" stroke-width="0.2" stroke-linecap="round"/>
</g>
<defs>
<clipPath id="clip0_575_224">
<rect width="230" height="53.36" fill="white"/>
</clipPath>
</defs>
</svg>
