<svg width="230" height="55" viewBox="0 0 230 55" fill="none" xmlns="http://www.w3.org/2000/svg">
<rect width="230" height="53.36" transform="translate(0 0.952515)" fill="#016772" fill-opacity="0.8"/>
<path d="M40.4704 31.1692H9.65456C8.26646 31.1692 7.13074 30.6609 7.13074 30.0396V21.7374C7.13074 21.1161 8.26646 20.6078 9.65456 20.6078H40.4704C41.8585 20.6078 42.9942 21.1161 42.9942 21.7374V30.0396C42.9942 30.6609 41.8585 31.1692 40.4704 31.1692Z" fill="white"/>
<path opacity="0.42" d="M21.0291 28.9786H29.0651C29.347 28.9786 29.5761 28.744 29.5761 28.4732C29.5761 28.3287 29.5233 28.2024 29.4352 28.1121L27.4262 26.0541C27.2323 25.8556 26.9151 25.8556 26.7212 26.0541L26.0692 26.7221L24.4126 25.0252C24.2188 24.8266 23.9016 24.8266 23.7077 25.0252L20.6942 28.1121C20.5004 28.3107 20.5004 28.6356 20.6942 28.8342C20.7823 28.9245 20.9057 28.9786 21.0291 28.9786Z" fill="#06555E"/>
<path opacity="0.42" d="M27.5671 24.8621C28.1219 24.8621 28.5716 24.4014 28.5716 23.8331C28.5716 23.2648 28.1219 22.8041 27.5671 22.8041C27.0124 22.8041 26.5626 23.2648 26.5626 23.8331C26.5626 24.4014 27.0124 24.8621 27.5671 24.8621Z" fill="#06555E"/>
<ellipse cx="183.876" cy="25.7417" rx="2.0713" ry="1.97129" fill="#D9D9D9"/>
<path opacity="0.42" d="M182.763 26.6161H184.98C185.058 26.6161 185.121 26.5497 185.121 26.473C185.121 26.4321 185.106 26.3963 185.082 26.3708L184.528 25.788C184.474 25.7318 184.387 25.7318 184.333 25.788L184.154 25.9772L183.697 25.4966C183.643 25.4404 183.556 25.4404 183.502 25.4966L182.671 26.3708C182.618 26.427 182.618 26.519 182.671 26.5752C182.695 26.6008 182.729 26.6161 182.763 26.6161Z" fill="#06555E"/>
<path opacity="0.42" d="M184.567 25.4506C184.72 25.4506 184.844 25.3202 184.844 25.1592C184.844 24.9983 184.72 24.8679 184.567 24.8679C184.414 24.8679 184.29 24.9983 184.29 25.1592C184.29 25.3202 184.414 25.4506 184.567 25.4506Z" fill="#06555E"/>
<ellipse cx="176.5" cy="26.0353" rx="2.0713" ry="1.97129" fill="#D9D9D9"/>
<path opacity="0.42" d="M175.388 26.9098H177.604C177.682 26.9098 177.745 26.8433 177.745 26.7666C177.745 26.7257 177.73 26.69 177.706 26.6644L177.152 26.0817C177.098 26.0254 177.011 26.0254 176.957 26.0817L176.778 26.2708L176.321 25.7903C176.267 25.7341 176.18 25.7341 176.126 25.7903L175.295 26.6644C175.242 26.7206 175.242 26.8126 175.295 26.8689C175.32 26.8944 175.354 26.9098 175.388 26.9098Z" fill="#06555E"/>
<path opacity="0.42" d="M177.191 25.7442C177.344 25.7442 177.468 25.6138 177.468 25.4529C177.468 25.292 177.344 25.1615 177.191 25.1615C177.038 25.1615 176.914 25.292 176.914 25.4529C176.914 25.6138 177.038 25.7442 177.191 25.7442Z" fill="#06555E"/>
<rect opacity="0.8" x="187.654" y="23.9603" width="9.2033" height="2.01437" rx="1.00719" fill="white"/>
<rect opacity="0.8" x="187.654" y="26.6288" width="13.4667" height="1.35376" rx="0.676882" fill="white"/>
<ellipse cx="205.625" cy="25.7417" rx="2.0713" ry="1.97129" fill="#D9D9D9"/>
<path opacity="0.42" d="M204.512 26.6161H206.729C206.806 26.6161 206.87 26.5497 206.87 26.473C206.87 26.4321 206.855 26.3963 206.831 26.3708L206.277 25.788C206.223 25.7318 206.136 25.7318 206.082 25.788L205.902 25.9772L205.445 25.4966C205.392 25.4404 205.304 25.4404 205.251 25.4966L204.42 26.3708C204.366 26.427 204.366 26.519 204.42 26.5752C204.444 26.6008 204.478 26.6161 204.512 26.6161Z" fill="#06555E"/>
<path opacity="0.42" d="M206.315 25.4506C206.469 25.4506 206.593 25.3202 206.593 25.1592C206.593 24.9983 206.469 24.8679 206.315 24.8679C206.162 24.8679 206.038 24.9983 206.038 25.1592C206.038 25.3202 206.162 25.4506 206.315 25.4506Z" fill="#06555E"/>
<rect opacity="0.8" x="209.403" y="23.9603" width="9.2033" height="2.01437" rx="1.00719" fill="white"/>
<rect opacity="0.8" x="209.403" y="26.6288" width="13.4667" height="1.35376" rx="0.676882" fill="white"/>
<path d="M97.0832 28.05H83.5867C83.274 28.05 83.0219 27.2057 83.0219 26.1588V25.6184C83.0219 24.5715 83.274 23.7272 83.5867 23.7272H97.0731C97.3858 23.7272 97.638 24.5715 97.638 25.6184V26.125C97.6481 27.1719 97.3959 28.05 97.0832 28.05Z" fill="white"/>
<path d="M113.356 28.0501H99.8594C99.5467 28.0501 99.2946 27.2058 99.2946 26.1588V25.6185C99.2946 24.5715 99.5467 23.7272 99.8594 23.7272H113.346C113.659 23.7272 113.911 24.5715 113.911 25.6185V26.1251C113.921 27.172 113.669 28.0501 113.356 28.0501Z" fill="white"/>
<path d="M129.629 28.0498H116.132C115.82 28.0498 115.567 27.2055 115.567 26.1586V25.6182C115.567 24.5713 115.82 23.727 116.132 23.727H129.619C129.931 23.727 130.184 24.5713 130.184 25.6182V26.1248C130.194 27.1717 129.941 28.0498 129.629 28.0498Z" fill="white"/>
<path d="M145.901 28.0501H132.405C132.092 28.0501 131.84 27.2058 131.84 26.1588V25.6185C131.84 24.5715 132.092 23.7272 132.405 23.7272H145.891C146.204 23.7272 146.456 24.5715 146.456 25.6185V26.1251C146.466 27.172 146.214 28.0501 145.901 28.0501Z" fill="white"/>
<rect opacity="0.8" x="7.3916" y="40.1691" width="41.7814" height="7.64404" fill="#00B2C5" fill-opacity="0.8"/>
<ellipse cx="10.7102" cy="43.9912" rx="2.22705" ry="2.1" fill="#D9D9D9"/>
<path opacity="0.42" d="M9.51411 44.9227H11.8971C11.9807 44.9227 12.0487 44.8519 12.0487 44.7702C12.0487 44.7266 12.033 44.6885 12.0069 44.6613L11.4111 44.0405C11.3536 43.9806 11.2596 43.9806 11.2021 44.0405L11.0087 44.242L10.5175 43.7301C10.46 43.6702 10.3659 43.6702 10.3085 43.7301L9.41482 44.6613C9.35733 44.7212 9.35733 44.8192 9.41482 44.8791C9.44095 44.9064 9.47753 44.9227 9.51411 44.9227Z" fill="#06555E"/>
<path opacity="0.42" d="M11.453 43.6809C11.6175 43.6809 11.7509 43.5419 11.7509 43.3705C11.7509 43.199 11.6175 43.0601 11.453 43.0601C11.2885 43.0601 11.1552 43.199 11.1552 43.3705C11.1552 43.5419 11.2885 43.6809 11.453 43.6809Z" fill="#06555E"/>
<rect opacity="0.8" x="14.0432" y="42.3668" width="33.5202" height="3.24881" rx="1.6244" fill="white"/>
<rect x="60.2731" y="40.2692" width="112.583" height="7.44401" fill="#06555E" stroke="#C8C8C8" stroke-width="0.2"/>
<rect opacity="0.8" x="145.805" y="40.1692" width="27.1506" height="7.64398" fill="white"/>
<rect opacity="0.8" x="194.431" y="41.701" width="28.2493" height="4.58046" rx="2.29023" fill="white"/>
<ellipse cx="188.053" cy="43.9912" rx="4.09724" ry="3.82198" fill="#D9D9D9"/>
<path opacity="0.42" d="M185.853 45.6865H190.237C190.391 45.6865 190.516 45.5577 190.516 45.409C190.516 45.3297 190.487 45.2603 190.439 45.2108L189.343 44.0809C189.237 43.9719 189.064 43.9719 188.958 44.0809L188.603 44.4477L187.699 43.516C187.593 43.407 187.42 43.407 187.314 43.516L185.67 45.2108C185.564 45.3198 185.564 45.4982 185.67 45.6072C185.718 45.6568 185.786 45.6865 185.853 45.6865Z" fill="#06555E"/>
<path opacity="0.42" d="M189.42 43.4268C189.723 43.4268 189.968 43.1739 189.968 42.8619C189.968 42.5499 189.723 42.2969 189.42 42.2969C189.117 42.2969 188.872 42.5499 188.872 42.8619C188.872 43.1739 189.117 43.4268 189.42 43.4268Z" fill="#06555E"/>
<rect opacity="0.8" x="7.22021" y="6.37756" width="27.5918" height="4.77351" rx="2.38675" fill="white"/>
<rect opacity="0.8" x="39.1395" y="6.37756" width="27.5918" height="4.77351" rx="2.38675" fill="white"/>
<rect opacity="0.8" x="163.352" y="5.92078" width="59.4281" height="5.68701" rx="2.84351" fill="white"/>
</svg>
