<svg width="230" height="54" viewBox="0 0 230 54" fill="none" xmlns="http://www.w3.org/2000/svg">
<rect width="230" height="53.36" fill="#016772" fill-opacity="0.8"/>
<rect opacity="0.8" x="7" y="28" width="216" height="14" fill="#00B2C5" fill-opacity="0.8"/>
<rect opacity="0.8" x="204" y="32" width="18" height="5" rx="2.5" fill="white"/>
<path d="M68.652 36.5822H57.4681C57.209 36.5822 57 35.8826 57 35.0151V34.5673C57 33.6998 57.209 33.0001 57.4681 33.0001H68.6436C68.9028 33.0001 69.1117 33.6998 69.1117 34.5673V34.9871C69.1201 35.8546 68.9111 36.5822 68.652 36.5822Z" fill="white"/>
<path d="M82.1364 36.5823H70.9525C70.6933 36.5823 70.4844 35.8827 70.4844 35.0151V34.5674C70.4844 33.6998 70.6933 33.0002 70.9525 33.0002H82.128C82.3871 33.0002 82.5961 33.6998 82.5961 34.5674V34.9871C82.6045 35.8547 82.3955 36.5823 82.1364 36.5823Z" fill="white"/>
<path d="M95.621 36.5821H84.4371C84.178 36.5821 83.969 35.8825 83.969 35.0149V34.5672C83.969 33.6996 84.178 33 84.4371 33H95.6126C95.8718 33 96.0807 33.6996 96.0807 34.5672V34.987C96.0891 35.8545 95.8801 36.5821 95.621 36.5821Z" fill="white"/>
<path d="M109.105 36.5823H97.9215C97.6623 36.5823 97.4534 35.8827 97.4534 35.0151V34.5674C97.4534 33.6998 97.6623 33.0002 97.9215 33.0002H109.097C109.356 33.0002 109.565 33.6998 109.565 34.5674V34.9871C109.573 35.8547 109.364 36.5823 109.105 36.5823Z" fill="white"/>
<path d="M122.652 36.5822H111.468C111.209 36.5822 111 35.8826 111 35.0151V34.5673C111 33.6998 111.209 33.0001 111.468 33.0001H122.644C122.903 33.0001 123.112 33.6998 123.112 34.5673V34.9871C123.12 35.8546 122.911 36.5822 122.652 36.5822Z" fill="white"/>
<path d="M136.136 36.5823H124.952C124.693 36.5823 124.484 35.8827 124.484 35.0151V34.5674C124.484 33.6998 124.693 33.0002 124.952 33.0002H136.128C136.387 33.0002 136.596 33.6998 136.596 34.5674V34.9871C136.604 35.8547 136.395 36.5823 136.136 36.5823Z" fill="white"/>
<path d="M149.621 36.5821H138.437C138.178 36.5821 137.969 35.8825 137.969 35.0149V34.5672C137.969 33.6996 138.178 33 138.437 33H149.613C149.872 33 150.081 33.6996 150.081 34.5672V34.987C150.089 35.8545 149.88 36.5821 149.621 36.5821Z" fill="white"/>
<path d="M176.652 36.5821H165.468C165.209 36.5821 165 35.8825 165 35.0149V34.5672C165 33.6996 165.209 33 165.468 33H176.644C176.903 33 177.112 33.6996 177.112 34.5672V34.987C177.12 35.8545 176.911 36.5821 176.652 36.5821Z" fill="white"/>
<path d="M163.105 36.5823H151.921C151.662 36.5823 151.453 35.8827 151.453 35.0151V34.5674C151.453 33.6998 151.662 33.0002 151.921 33.0002H163.097C163.356 33.0002 163.565 33.6998 163.565 34.5674V34.9871C163.573 35.8547 163.364 36.5823 163.105 36.5823Z" fill="white"/>
<path d="M190.136 36.5823H178.952C178.693 36.5823 178.484 35.8827 178.484 35.0151V34.5674C178.484 33.6998 178.693 33.0002 178.952 33.0002H190.128C190.387 33.0002 190.596 33.6998 190.596 34.5674V34.9871C190.604 35.8547 190.395 36.5823 190.136 36.5823Z" fill="white"/>
<ellipse cx="10.4458" cy="35.3063" rx="2.44585" ry="2.30632" fill="#D9D9D9"/>
<path opacity="0.42" d="M9.13223 36.3293H11.7494C11.8412 36.3293 11.9158 36.2516 11.9158 36.1618C11.9158 36.114 11.8986 36.0721 11.8699 36.0422L11.2156 35.3604C11.1525 35.2947 11.0492 35.2947 10.986 35.3604L10.7737 35.5817L10.2342 35.0196C10.171 34.9538 10.0677 34.9538 10.0046 35.0196L9.02318 36.0422C8.96005 36.108 8.96005 36.2157 9.02318 36.2815C9.05188 36.3114 9.09205 36.3293 9.13223 36.3293Z" fill="#06555E"/>
<path opacity="0.42" d="M11.2616 34.9655C11.4423 34.9655 11.5887 34.8129 11.5887 34.6246C11.5887 34.4363 11.4423 34.2837 11.2616 34.2837C11.0809 34.2837 10.9344 34.4363 10.9344 34.6246C10.9344 34.8129 11.0809 34.9655 11.2616 34.9655Z" fill="#06555E"/>
<rect opacity="0.8" x="14.1063" y="33.5223" width="36.8134" height="3.56799" rx="1.78399" fill="white"/>
<path d="M40.3396 21.5614H9.52382C8.13572 21.5614 7 21.0531 7 20.4318V12.1296C7 11.5084 8.13572 11.0001 9.52382 11.0001H40.3396C41.7277 11.0001 42.8635 11.5084 42.8635 12.1296V20.4318C42.8635 21.0531 41.7277 21.5614 40.3396 21.5614Z" fill="white"/>
<path opacity="0.42" d="M20.8983 19.3709H28.9343C29.2163 19.3709 29.4454 19.1362 29.4454 18.8654C29.4454 18.721 29.3925 18.5946 29.3044 18.5043L27.2954 16.4464C27.1016 16.2478 26.7844 16.2478 26.5905 16.4464L25.9385 17.1143L24.2819 15.4174C24.0881 15.2188 23.7708 15.2188 23.577 15.4174L20.5635 18.5043C20.3696 18.7029 20.3696 19.0279 20.5635 19.2264C20.6516 19.3167 20.775 19.3709 20.8983 19.3709Z" fill="#06555E"/>
<path opacity="0.42" d="M27.4364 15.2543C27.9912 15.2543 28.4409 14.7936 28.4409 14.2253C28.4409 13.657 27.9912 13.1963 27.4364 13.1963C26.8816 13.1963 26.4319 13.657 26.4319 14.2253C26.4319 14.7936 26.8816 15.2543 27.4364 15.2543Z" fill="#06555E"/>
<ellipse cx="210.381" cy="16.9713" rx="3.12203" ry="2.97129" fill="#D9D9D9"/>
<path opacity="0.42" d="M208.704 18.2893H212.044C212.162 18.2893 212.257 18.1892 212.257 18.0736C212.257 18.012 212.235 17.958 212.198 17.9195L211.363 17.0411C211.282 16.9564 211.151 16.9564 211.07 17.0411L210.799 17.3262L210.11 16.602C210.03 16.5172 209.898 16.5172 209.817 16.602L208.564 17.9195C208.484 18.0043 208.484 18.1429 208.564 18.2277C208.601 18.2662 208.652 18.2893 208.704 18.2893Z" fill="#06555E"/>
<path opacity="0.42" d="M211.422 16.5325C211.652 16.5325 211.839 16.3359 211.839 16.0934C211.839 15.8508 211.652 15.6542 211.422 15.6542C211.191 15.6542 211.004 15.8508 211.004 16.0934C211.004 16.3359 211.191 16.5325 211.422 16.5325Z" fill="#06555E"/>
<ellipse cx="201.122" cy="16.9713" rx="3.12203" ry="2.97129" fill="#D9D9D9"/>
<path opacity="0.42" d="M199.445 18.2893H202.786C202.903 18.2893 202.998 18.1892 202.998 18.0736C202.998 18.012 202.976 17.958 202.94 17.9195L202.104 17.0411C202.024 16.9564 201.892 16.9564 201.811 17.0411L201.54 17.3262L200.852 16.602C200.771 16.5172 200.639 16.5172 200.559 16.602L199.306 17.9195C199.225 18.0043 199.225 18.1429 199.306 18.2277C199.343 18.2662 199.394 18.2893 199.445 18.2893Z" fill="#06555E"/>
<path opacity="0.42" d="M202.163 16.5325C202.394 16.5325 202.581 16.3359 202.581 16.0934C202.581 15.8508 202.394 15.6542 202.163 15.6542C201.933 15.6542 201.746 15.8508 201.746 16.0934C201.746 16.3359 201.933 16.5325 202.163 16.5325Z" fill="#06555E"/>
<ellipse cx="219.639" cy="16.9713" rx="3.12203" ry="2.97129" fill="#D9D9D9"/>
<path opacity="0.42" d="M217.962 18.2893H221.303C221.42 18.2893 221.516 18.1892 221.516 18.0736C221.516 18.012 221.494 17.958 221.457 17.9195L220.622 17.0411C220.541 16.9564 220.409 16.9564 220.329 17.0411L220.058 17.3262L219.369 16.602C219.288 16.5172 219.157 16.5172 219.076 16.602L217.823 17.9195C217.743 18.0043 217.743 18.1429 217.823 18.2277C217.86 18.2662 217.911 18.2893 217.962 18.2893Z" fill="#06555E"/>
<path opacity="0.42" d="M220.681 16.5325C220.911 16.5325 221.098 16.3359 221.098 16.0934C221.098 15.8508 220.911 15.6542 220.681 15.6542C220.45 15.6542 220.263 15.8508 220.263 16.0934C220.263 16.3359 220.45 16.5325 220.681 16.5325Z" fill="#06555E"/>
<rect x="51.1" y="12.1" width="132.8" height="9.8" fill="#06555E" stroke="#C8C8C8" stroke-width="0.2"/>
<rect opacity="0.8" x="52" y="15" width="28.2493" height="4.58046" rx="2.29023" fill="white"/>
<ellipse cx="178.903" cy="16.6406" rx="3.90276" ry="3.64056" fill="#D9D9D9"/>
<path opacity="0.42" d="M176.807 18.2553H180.983C181.129 18.2553 181.248 18.1326 181.248 17.991C181.248 17.9155 181.221 17.8494 181.175 17.8022L180.131 16.726C180.03 16.6221 179.865 16.6221 179.765 16.726L179.426 17.0753L178.565 16.1879C178.464 16.084 178.299 16.084 178.199 16.1879L176.633 17.8022C176.532 17.906 176.532 18.076 176.633 18.1798C176.678 18.227 176.743 18.2553 176.807 18.2553Z" fill="#06555E"/>
<path opacity="0.42" d="M180.205 16.1029C180.493 16.1029 180.727 15.862 180.727 15.5648C180.727 15.2676 180.493 15.0267 180.205 15.0267C179.916 15.0267 179.682 15.2676 179.682 15.5648C179.682 15.862 179.916 16.1029 180.205 16.1029Z" fill="#06555E"/>
</svg>
