<svg width="210" height="109" viewBox="0 0 210 109" fill="none" xmlns="http://www.w3.org/2000/svg">
<path opacity="0.2" d="M58.7204 47.1397H5.77308C3.035 47.1397 0.824738 44.9295 0.824738 42.1915V10.7211C0.824738 7.98308 3.035 5.77289 5.77308 5.77289H58.7204C61.4585 5.77289 63.6687 7.98308 63.6687 10.7211V42.1915C63.6687 44.9295 61.4585 47.1397 58.7204 47.1397ZM131.23 47.1397H78.2499C75.5118 47.1397 73.3015 44.9295 73.3015 42.1915V10.7211C73.3015 7.98308 75.5118 5.77289 78.2499 5.77289H131.197C133.935 5.77289 136.146 7.98308 136.146 10.7211V42.1915C136.179 44.9295 133.968 47.1397 131.23 47.1397ZM203.707 47.1397H150.76C148.022 47.1397 145.811 44.9295 145.811 42.1915V10.7211C145.811 7.98308 148.022 5.77289 150.76 5.77289H203.707C206.445 5.77289 208.655 7.98308 208.655 10.7211V42.1915C208.655 44.9295 206.445 47.1397 203.707 47.1397Z" fill="white"/>
<path opacity="0.42" d="M22.1686 34.0435H42.3579C43.0506 34.0435 43.6114 33.4827 43.6114 32.7899C43.6114 32.4601 43.4795 32.1302 43.2486 31.8993L38.2012 26.8521C37.7064 26.3573 36.9147 26.3573 36.4198 26.8521L34.7704 28.5015L30.6138 24.3121C30.1189 23.8172 29.3272 23.8172 28.8324 24.3121L21.2779 31.8993C20.7831 32.3941 20.7831 33.1858 21.3109 33.6806C21.5088 33.9115 21.8387 34.0105 22.1686 34.0435Z" fill="white"/>
<path opacity="0.42" d="M38.5641 23.9148C39.9488 23.9148 41.0713 22.7926 41.0713 21.4084C41.0713 20.0242 39.9488 18.902 38.5641 18.902C37.1794 18.902 36.0569 20.0242 36.0569 21.4084C36.0569 22.7926 37.1794 23.9148 38.5641 23.9148Z" fill="white"/>
<path opacity="0.42" d="M94.6454 34.0435H114.802C115.494 34.0435 116.055 33.4827 116.055 32.7899C116.055 32.4601 115.923 32.1302 115.692 31.8993L110.645 26.8521C110.15 26.3573 109.358 26.3573 108.864 26.8521L107.214 28.5015L103.058 24.3451C102.563 23.8502 101.771 23.8502 101.276 24.3451L93.7217 31.8993C93.2269 32.3941 93.2269 33.1858 93.7547 33.6806C94.0186 33.9115 94.3155 34.0105 94.6454 34.0435Z" fill="white"/>
<path opacity="0.42" d="M111.041 23.9148C112.426 23.9148 113.548 22.7926 113.548 21.4084C113.548 20.0242 112.426 18.902 111.041 18.902C109.656 18.902 108.534 20.0242 108.534 21.4084C108.534 22.7926 109.656 23.9148 111.041 23.9148Z" fill="white"/>
<path opacity="0.42" d="M167.122 34.0435H187.311C188.004 34.0435 188.565 33.4827 188.565 32.7899C188.565 32.4601 188.433 32.1302 188.202 31.8993L183.155 26.8521C182.66 26.3573 181.868 26.3573 181.373 26.8521L179.724 28.5015L175.567 24.3451C175.072 23.8502 174.281 23.8502 173.786 24.3451L166.231 31.8993C165.737 32.3941 165.737 33.1858 166.264 33.6806C166.495 33.9115 166.792 34.0105 167.122 34.0435Z" fill="white"/>
<path opacity="0.42" d="M183.518 23.9148C184.902 23.9148 186.025 22.7926 186.025 21.4084C186.025 20.0242 184.902 18.902 183.518 18.902C182.133 18.902 181.01 20.0242 181.01 21.4084C181.01 22.7926 182.133 23.9148 183.518 23.9148Z" fill="white"/>
<path opacity="0.2" d="M98.0432 103.086C99.3186 103.086 100.352 102.052 100.352 100.777C100.352 99.5024 99.3186 98.4688 98.0432 98.4688C96.7679 98.4688 95.734 99.5024 95.734 100.777C95.734 102.052 96.7679 103.086 98.0432 103.086Z" fill="white"/>
<path opacity="0.2" d="M104.74 103.086C106.015 103.086 107.049 102.052 107.049 100.777C107.049 99.5024 106.015 98.4688 104.74 98.4688C103.465 98.4688 102.431 99.5024 102.431 100.777C102.431 102.052 103.465 103.086 104.74 103.086Z" fill="white"/>
<path opacity="0.2" d="M111.437 103.086C112.712 103.086 113.746 102.052 113.746 100.777C113.746 99.5024 112.712 98.4688 111.437 98.4688C110.161 98.4688 109.128 99.5024 109.128 100.777C109.128 102.052 110.161 103.086 111.437 103.086Z" fill="white"/>
<path opacity="0.42" d="M46.8114 61.4222H2.67212C1.64946 61.4222 0.824738 60.5978 0.824738 59.5755V59.0478C0.824738 58.0255 1.64946 57.201 2.67212 57.201H46.7784C47.801 57.201 48.6258 58.0255 48.6258 59.0478V59.5425C48.6587 60.5648 47.834 61.4222 46.8114 61.4222Z" fill="white"/>
<path opacity="0.2" d="M61.8213 72.3754H2.67212C1.64946 72.3754 0.824738 71.5507 0.824738 70.5281V70.1322C0.824738 69.1096 1.64946 68.2849 2.67212 68.2849H61.8213C62.844 68.2849 63.6687 69.1096 63.6687 70.1322V70.5281C63.6687 71.5507 62.844 72.3754 61.8213 72.3754ZM61.8213 80.9523H2.67212C1.64946 80.9523 0.824738 80.1276 0.824738 79.1049V78.7091C0.824738 77.6865 1.64946 76.8618 2.67212 76.8618H61.8213C62.844 76.8618 63.6687 77.6865 63.6687 78.7091V79.1049C63.6687 80.1276 62.844 80.9523 61.8213 80.9523ZM35.2652 89.5291H2.67212C1.64946 89.5291 0.824738 88.7044 0.824738 87.6818V87.2859C0.824738 86.2633 1.64946 85.4386 2.67212 85.4386H35.2322C36.2549 85.4386 37.0796 86.2633 37.0796 87.2859V87.6818C37.1126 88.7044 36.2879 89.5291 35.2652 89.5291Z" fill="white"/>
<path opacity="0.42" d="M119.288 61.4222H75.1819C74.1592 61.4222 73.3345 60.5978 73.3345 59.5755V59.0478C73.3345 58.0255 74.1592 57.201 75.1819 57.201H119.288C120.311 57.201 121.136 58.0255 121.136 59.0478V59.5425C121.136 60.5648 120.311 61.4222 119.288 61.4222Z" fill="white"/>
<path opacity="0.2" d="M134.298 72.3754H75.1819C74.1592 72.3754 73.3345 71.5507 73.3345 70.5281V70.1322C73.3345 69.1096 74.1592 68.2849 75.1819 68.2849H134.331C135.354 68.2849 136.179 69.1096 136.179 70.1322V70.5281C136.179 71.5507 135.321 72.3754 134.298 72.3754ZM134.298 80.9523H75.1819C74.1592 80.9523 73.3345 80.1276 73.3345 79.1049V78.7091C73.3345 77.6865 74.1592 76.8618 75.1819 76.8618H134.331C135.354 76.8618 136.179 77.6865 136.179 78.7091V79.1049C136.179 80.1276 135.321 80.9523 134.298 80.9523ZM107.742 89.5291H75.1819C74.1592 89.5291 73.3345 88.7044 73.3345 87.6818V87.2859C73.3345 86.2633 74.1592 85.4386 75.1819 85.4386H107.742C108.765 85.4386 109.589 86.2633 109.589 87.2859V87.6818C109.589 88.7044 108.765 89.5291 107.742 89.5291Z" fill="white"/>
<path opacity="0.42" d="M191.765 61.4222H147.659C146.636 61.4222 145.811 60.5978 145.811 59.5755V59.0478C145.811 58.0255 146.636 57.201 147.659 57.201H191.765C192.788 57.201 193.612 58.0255 193.612 59.0478V59.5425C193.645 60.5648 192.788 61.4222 191.765 61.4222Z" fill="white"/>
<path opacity="0.2" d="M206.808 72.3754H147.659C146.636 72.3754 145.811 71.5507 145.811 70.5281V70.1322C145.811 69.1096 146.636 68.2849 147.659 68.2849H206.808C207.831 68.2849 208.655 69.1096 208.655 70.1322V70.5281C208.655 71.5507 207.831 72.3754 206.808 72.3754ZM206.808 80.9523H147.659C146.636 80.9523 145.811 80.1276 145.811 79.1049V78.7091C145.811 77.6865 146.636 76.8618 147.659 76.8618H206.808C207.831 76.8618 208.655 77.6865 208.655 78.7091V79.1049C208.655 80.1276 207.831 80.9523 206.808 80.9523ZM180.219 89.5291H147.659C146.636 89.5291 145.811 88.7044 145.811 87.6818V87.2859C145.811 86.2633 146.636 85.4386 147.659 85.4386H180.219C181.241 85.4386 182.066 86.2633 182.066 87.2859V87.6818C182.099 88.7044 181.241 89.5291 180.219 89.5291Z" fill="white"/>
</svg>
