<svg xmlns="http://www.w3.org/2000/svg" viewBox="0 0 48 48"><g data-name="gear in the box"><polygon fill="#f6ccaf" points="17 20 11 26 1 26 7 20 17 20"/><path fill="#ffdec7" d="M17,20l-4,4H10.66A2.34,2.34,0,0,1,9,20Z"/><polygon fill="#edb996" points="17 20 17 44 7 44 7 26 11 26 17 20"/><path fill="#f6ccaf" d="M11,28l6-6V42a8,8,0,0,1-8-8V28Z"/><polygon fill="#edb996" points="41 26 41 44 17 44 17 20 23 26 41 26"/><path fill="#f6ccaf" d="M41,28V42H39A19,19,0,0,1,20.12,25.12L23,28Z"/><polygon fill="#f6ccaf" points="47 26 23 26 17 20 41 20 47 26"/><path fill="#ffdec7" d="M45,24H29.66A13.65,13.65,0,0,1,20,20c-.1-.1.35,0,21,0Z"/><path fill="#7c7d7d" d="M37,14v6H11V14h3.46a10.47,10.47,0,0,1,.68-1.62L12.69,9.93l4.24-4.24,2.45,2.45A10.47,10.47,0,0,1,21,7.46V4h6V7.46a10.47,10.47,0,0,1,1.62.68l2.45-2.45,4.24,4.24-2.45,2.45A10.47,10.47,0,0,1,33.54,14Z"/><path fill="#919191" d="M37,14v4H17.06c-1.79,0-3.33-1.34-3-4h.41c.67-2.09,1-1.25,0-2.33a13,13,0,0,1,3-5.47l1.94,1.94A10.47,10.47,0,0,1,21,7.46V4h6V7.46a10.47,10.47,0,0,1,1.62.68l2.45-2.45,4.24,4.24-2.45,2.45A10.47,10.47,0,0,1,33.54,14Z"/><path fill="#747575" d="M26.64,20H21.36a4,4,0,1,1,5.28,0Z"/><path fill="#7c7d7d" d="M26.87,18H20.13a3.89,3.89,0,0,1-.06-1.72A4,4,0,0,1,26.87,18Z"/><path d="M47.71,25.29c-6.56-6.55-6.06-6.1-6.33-6.21S41.2,19,38,19V14a1,1,0,0,0-1-1H34.24c-.05-.14-.11-.28-.17-.41l2-1.95a1,1,0,0,0,0-1.42c-5.62-5.61-4.33-5.57-7.61-2.29L28,6.76V4a1,1,0,0,0-1-1H21a1,1,0,0,0-1,1V6.76l-.41.17L17.64,5a1,1,0,0,0-1.42,0L12,9.22a1,1,0,0,0,0,1.42l1.95,1.95c-.06.13-.12.27-.17.41H11a1,1,0,0,0-1,1v5c-3.22,0-3.12,0-3.38.08s.24-.35-6.33,6.21A1,1,0,0,0,1,27H6V44a1,1,0,0,0,1,1H41a1,1,0,0,0,1-1V27h5A1,1,0,0,0,47.71,25.29ZM12,15h2.46a1,1,0,0,0,.95-.69c.84-2.62,1.58-1.5-1.31-4.38L16.93,7.1l1.74,1.75A1,1,0,0,0,19.84,9C22.29,7.76,22,9,22,5h4V7.46a1,1,0,0,0,.69,1c2.62.85,1.5,1.57,4.38-1.31L33.9,9.93C32.29,11.53,31.53,12,32,12.84,33.25,15.29,32,15,36,15v4H28.58a5,5,0,1,0-9.16,0H12Zm9.79,4a3,3,0,1,1,4.42,0ZM7.41,21h7.05c.2,0,.61-.49-3.87,4H3.41ZM8,27c3.26,0,3.32.09,3.71-.29L16,22.41V43H8ZM40,43H18V22.41C22.61,27,22.43,27,23,27H40ZM23.41,25l-4-4H40.59l4,4Z"/><path d="M42 15V9a1 1 0 0 0-2 0v6A1 1 0 0 0 42 15zM9 8V5A1 1 0 0 0 7 5V8A1 1 0 0 0 9 8z"/></g></svg>