<svg width="210" height="109" viewBox="0 0 210 109" fill="none" xmlns="http://www.w3.org/2000/svg">
<g clip-path="url(#clip0_396_778)">
<path opacity="0.42" d="M45.3419 38.5711H1.91363C0.907449 38.5711 0.0960083 37.7466 0.0960083 36.7243V36.1966C0.0960083 35.1743 0.907449 34.3498 1.91363 34.3498H45.3095C46.3156 34.3498 47.1271 35.1743 47.1271 36.1966V36.6913C47.1595 37.7136 46.3481 38.5711 45.3419 38.5711Z" fill="#D9D9D9"/>
<path opacity="0.2" d="M68.2866 48.6003H1.59679C0.890472 48.6003 0.320862 47.9846 0.320862 47.2211V46.9502C0.320862 46.1868 0.890472 45.5711 1.59679 45.5711H68.2866C68.9929 45.5711 69.5626 46.1868 69.5626 46.9502V47.2211C69.5853 47.9846 69.0157 48.6003 68.2866 48.6003ZM52.0641 54.24H1.59679C0.890472 54.24 0.320862 53.6243 0.320862 52.8609V52.5899C0.320862 51.8265 0.890472 51.2108 1.59679 51.2108H52.0414C52.7477 51.2108 53.3173 51.8265 53.3173 52.5899V52.8609C53.3401 53.6243 52.7705 54.24 52.0641 54.24Z" fill="#737373"/>
<path opacity="0.2" d="M95.0299 63.8089H1.99876C0.945453 63.8089 0.0960083 63.1824 0.0960083 62.4055V62.1299C0.0960083 61.353 0.945453 60.7265 1.99876 60.7265H94.9959C96.0492 60.7265 96.8987 61.353 96.8987 62.1299V62.4055C96.9327 63.1824 96.0832 63.8089 95.0299 63.8089ZM95.0299 70.2996H1.99876C0.945453 70.2996 0.0960083 69.6731 0.0960083 68.8962V68.6205C0.0960083 67.8437 0.945453 67.2171 1.99876 67.2171H94.9959C96.0492 67.2171 96.8987 67.8437 96.8987 68.6205V68.8962C96.9327 69.6731 96.0832 70.2996 95.0299 70.2996ZM76.546 76.7902H1.99876C0.945453 76.7902 0.0960083 76.1637 0.0960083 75.3868V75.1112C0.0960083 74.3343 0.945453 73.7078 1.99876 73.7078H76.546C77.5993 73.7078 78.4488 74.3343 78.4488 75.1112V75.3868C78.4488 76.1637 77.5993 76.7902 76.546 76.7902Z" fill="white"/>
<rect x="102.286" y="24.4235" width="52.377" height="28.4033" rx="4" fill="#C8C8C8" fill-opacity="0.5"/>
<rect x="102.286" y="56.3132" width="52.377" height="28.4033" rx="4" fill="#C8C8C8" fill-opacity="0.5"/>
<rect x="157.71" y="24.4235" width="51.6742" height="28.4033" rx="4" fill="#C8C8C8" fill-opacity="0.5"/>
<rect x="157.71" y="56.3132" width="51.6742" height="28.4033" rx="4" fill="#C8C8C8" fill-opacity="0.5"/>
</g>
<defs>
<clipPath id="clip0_396_778">
<rect width="209.48" height="108.86" fill="white" transform="translate(0 0.140015)"/>
</clipPath>
</defs>
</svg>
