<svg width="203" height="107" viewBox="0 0 203 107" fill="none" xmlns="http://www.w3.org/2000/svg">
<path opacity="0.42" d="M148.238 45.5981H54.7928C53.8035 45.5981 53.0056 44.8283 53.0056 43.8738V43.5351C53.0056 42.5807 53.8035 41.8109 54.7928 41.8109H148.206C149.196 41.8109 149.994 42.5807 149.994 43.5351V43.8738C150.025 44.8283 149.228 45.5981 148.238 45.5981ZM136.845 52.6489H66.1863C65.1969 52.6489 64.3991 51.8792 64.3991 50.9247V50.586C64.3991 49.6315 65.1969 48.8618 66.1863 48.8618H136.845C137.834 48.8618 138.632 49.6315 138.632 50.586V50.9247C138.664 51.8792 137.834 52.6489 136.845 52.6489Z" fill="#C8C8C8" fill-opacity="0.5"/>
<path opacity="0.42" d="M118.368 34.8491H84.6567C83.8756 34.8491 83.2457 33.902 83.2457 32.7276V32.1215C83.2457 30.9471 83.8756 30 84.6567 30H118.343C119.124 30 119.754 30.9471 119.754 32.1215V32.6897C119.779 33.8641 119.149 34.8491 118.368 34.8491Z" fill="#D9D9D9"/>
<path opacity="0.42" d="M31.4488 64.2461H6.75719C6.18511 64.2461 5.72375 63.6726 5.72375 62.9615V62.5945C5.72375 61.8834 6.18511 61.3099 6.75719 61.3099H31.4304C32.0025 61.3099 32.4638 61.8834 32.4638 62.5945V62.9386C32.4823 63.6497 32.0209 64.2461 31.4488 64.2461Z" fill="white"/>
<path opacity="0.42" d="M36.7378 71.7772H1.47584C0.658856 71.7772 0 71.2038 0 70.4927V70.1256C0 69.4145 0.658856 68.8411 1.47584 68.8411H36.7115C37.5284 68.8411 38.1873 69.4145 38.1873 70.1256V70.4697C38.2137 71.1808 37.5548 71.7772 36.7378 71.7772Z" fill="#E9E9E9"/>
<path opacity="0.42" d="M36.7378 77.0109H1.47584C0.658856 77.0109 0 76.4374 0 75.7263V75.3593C0 74.6482 0.658856 74.0747 1.47584 74.0747H36.7115C37.5284 74.0747 38.1873 74.6482 38.1873 75.3593V75.7034C38.2137 76.4145 37.5548 77.0109 36.7378 77.0109Z" fill="#E9E9E9"/>
<path opacity="0.42" d="M86.3861 64.2461H61.6945C61.1224 64.2461 60.661 63.6726 60.661 62.9615V62.5945C60.661 61.8834 61.1224 61.3099 61.6945 61.3099H86.3677C86.9398 61.3099 87.4011 61.8834 87.4011 62.5945V62.9386C87.4196 63.6497 86.9582 64.2461 86.3861 64.2461Z" fill="white"/>
<path opacity="0.42" d="M91.6751 71.7772H56.4132C55.5962 71.7772 54.9373 71.2038 54.9373 70.4927V70.1256C54.9373 69.4145 55.5962 68.8411 56.4132 68.8411H91.6488C92.4658 68.8411 93.1246 69.4145 93.1246 70.1256V70.4697C93.151 71.1808 92.4921 71.7772 91.6751 71.7772Z" fill="#E9E9E9"/>
<path opacity="0.42" d="M91.6751 77.0109H56.4132C55.5962 77.0109 54.9373 76.4374 54.9373 75.7263V75.3593C54.9373 74.6482 55.5962 74.0747 56.4132 74.0747H91.6488C92.4658 74.0747 93.1246 74.6482 93.1246 75.3593V75.7034C93.151 76.4145 92.4921 77.0109 91.6751 77.0109Z" fill="#E9E9E9"/>
<path opacity="0.42" d="M141.323 64.2461H116.632C116.06 64.2461 115.598 63.6726 115.598 62.9615V62.5945C115.598 61.8834 116.06 61.3099 116.632 61.3099H141.305C141.877 61.3099 142.338 61.8834 142.338 62.5945V62.9386C142.357 63.6497 141.895 64.2461 141.323 64.2461Z" fill="white"/>
<path opacity="0.42" d="M146.612 71.7772H111.35C110.533 71.7772 109.875 71.2038 109.875 70.4927V70.1256C109.875 69.4145 110.533 68.8411 111.35 68.8411H146.586C147.403 68.8411 148.062 69.4145 148.062 70.1256V70.4697C148.088 71.1808 147.429 71.7772 146.612 71.7772Z" fill="#E9E9E9"/>
<path opacity="0.42" d="M146.612 77.0109H111.35C110.533 77.0109 109.875 76.4374 109.875 75.7263V75.3593C109.875 74.6482 110.533 74.0747 111.35 74.0747H146.586C147.403 74.0747 148.062 74.6482 148.062 75.3593V75.7034C148.088 76.4145 147.429 77.0109 146.612 77.0109Z" fill="#E9E9E9"/>
<path opacity="0.42" d="M196.261 64.2461H171.569C170.997 64.2461 170.536 63.6726 170.536 62.9615V62.5945C170.536 61.8834 170.997 61.3099 171.569 61.3099H196.242C196.814 61.3099 197.276 61.8834 197.276 62.5945V62.9386C197.294 63.6497 196.833 64.2461 196.261 64.2461Z" fill="white"/>
<path opacity="0.42" d="M201.55 71.7772H166.288C165.471 71.7772 164.812 71.2038 164.812 70.4927V70.1256C164.812 69.4145 165.471 68.8411 166.288 68.8411H201.523C202.34 68.8411 202.999 69.4145 202.999 70.1256V70.4697C203.026 71.1808 202.367 71.7772 201.55 71.7772Z" fill="#E9E9E9"/>
<path opacity="0.42" d="M201.55 77.0109H166.288C165.471 77.0109 164.812 76.4374 164.812 75.7263V75.3593C164.812 74.6482 165.471 74.0747 166.288 74.0747H201.523C202.34 74.0747 202.999 74.6482 202.999 75.3593V75.7034C203.026 76.4145 202.367 77.0109 201.55 77.0109Z" fill="#E9E9E9"/>
</svg>
