<svg width="203" height="107" viewBox="0 0 203 107" fill="none" xmlns="http://www.w3.org/2000/svg">
<rect y="41.0922" width="65.9594" height="26.525" rx="2" fill="#C8C8C8" fill-opacity="0.5"/>
<circle cx="10.5382" cy="54.3545" r="6.70769" fill="#C8C8C8" fill-opacity="0.5"/>
<path opacity="0.42" d="M42.4619 52.8373H22.0551C21.5823 52.8373 21.201 52.3437 21.201 51.7317V51.4157C21.201 50.8037 21.5823 50.3101 22.0551 50.3101H42.4466C42.9194 50.3101 43.3007 50.8037 43.3007 51.4157V51.7119C43.316 52.324 42.9347 52.8373 42.4619 52.8373Z" fill="white"/>
<path opacity="0.42" d="M51.5635 58.3991H22.4207C21.7455 58.3991 21.201 57.9055 21.201 57.2934V56.9775C21.201 56.3654 21.7455 55.8718 22.4207 55.8718H51.5417C52.2169 55.8718 52.7615 56.3654 52.7615 56.9775V57.2737C52.7832 57.8858 52.2387 58.3991 51.5635 58.3991Z" fill="#818181"/>
<rect x="68.5202" y="40.1033" width="65.9594" height="26.525" rx="2" fill="#C8C8C8" fill-opacity="0.5"/>
<circle cx="79.0585" cy="53.3657" r="6.70769" fill="#C8C8C8" fill-opacity="0.5"/>
<path opacity="0.42" d="M110.982 51.8484H90.5753C90.1025 51.8484 89.7212 51.3548 89.7212 50.7428V50.4269C89.7212 49.8148 90.1025 49.3212 90.5753 49.3212H110.967C111.44 49.3212 111.821 49.8148 111.821 50.4269V50.723C111.836 51.3351 111.455 51.8484 110.982 51.8484Z" fill="white"/>
<path opacity="0.42" d="M120.084 57.4102H90.9409C90.2657 57.4102 89.7212 56.9166 89.7212 56.3045V55.9886C89.7212 55.3765 90.2657 54.8829 90.9409 54.8829H120.062C120.737 54.8829 121.282 55.3765 121.282 55.9886V56.2848C121.303 56.8969 120.759 57.4102 120.084 57.4102Z" fill="#818181"/>
<rect x="137.041" y="40.1033" width="65.9594" height="26.525" rx="2" fill="#C8C8C8" fill-opacity="0.5"/>
<circle cx="147.579" cy="53.3657" r="6.70769" fill="#C8C8C8" fill-opacity="0.5"/>
<path opacity="0.42" d="M179.502 51.8484H159.096C158.623 51.8484 158.242 51.3548 158.242 50.7428V50.4269C158.242 49.8148 158.623 49.3212 159.096 49.3212H179.487C179.96 49.3212 180.341 49.8148 180.341 50.4269V50.723C180.357 51.3351 179.975 51.8484 179.502 51.8484Z" fill="white"/>
<path opacity="0.42" d="M188.604 57.4102H159.461C158.786 57.4102 158.242 56.9166 158.242 56.3045V55.9886C158.242 55.3765 158.786 54.8829 159.461 54.8829H188.582C189.257 54.8829 189.802 55.3765 189.802 55.9886V56.2848C189.824 56.8969 189.279 57.4102 188.604 57.4102Z" fill="#818181"/>
</svg>
