<svg width="203" height="107" viewBox="0 0 203 107" fill="none" xmlns="http://www.w3.org/2000/svg">
<g clip-path="url(#clip0_398_80)">
<rect y="38.6958" width="203" height="30.3283" rx="2" fill="#C8C8C8" fill-opacity="0.5"/>
<path opacity="0.42" d="M35.3038 52.1252H11.971C11.4304 52.1252 10.9944 51.5608 10.9944 50.861V50.4998C10.9944 49.7999 11.4304 49.2355 11.971 49.2355H35.2864C35.827 49.2355 36.2629 49.7999 36.2629 50.4998V50.8384C36.2804 51.5382 35.8444 52.1252 35.3038 52.1252Z" fill="white"/>
<path opacity="0.42" d="M40.3018 58.4844H6.98028C6.20826 58.4844 5.58566 57.9201 5.58566 57.2202V56.859C5.58566 56.1592 6.20826 55.5948 6.98028 55.5948H40.2768C41.0489 55.5948 41.6715 56.1592 41.6715 56.859V57.1976C41.6964 57.8975 41.0738 58.4844 40.3018 58.4844Z" fill="#818181"/>
<path opacity="0.42" d="M87.2179 52.1252H63.885C63.3444 52.1252 62.9084 51.5608 62.9084 50.861V50.4998C62.9084 49.7999 63.3444 49.2355 63.885 49.2355H87.2004C87.741 49.2355 88.177 49.7999 88.177 50.4998V50.8384C88.1944 51.5382 87.7584 52.1252 87.2179 52.1252Z" fill="white"/>
<path opacity="0.42" d="M92.2158 58.4844H58.8943C58.1223 58.4844 57.4997 57.9201 57.4997 57.2202V56.859C57.4997 56.1592 58.1223 55.5948 58.8943 55.5948H92.1909C92.9629 55.5948 93.5855 56.1592 93.5855 56.859V57.1976C93.6104 57.8975 92.9878 58.4844 92.2158 58.4844Z" fill="#818181"/>
<path opacity="0.42" d="M139.132 52.1252H115.799C115.258 52.1252 114.823 51.5608 114.823 50.861V50.4998C114.823 49.7999 115.258 49.2355 115.799 49.2355H139.114C139.655 49.2355 140.091 49.7999 140.091 50.4998V50.8384C140.108 51.5382 139.673 52.1252 139.132 52.1252Z" fill="white"/>
<path opacity="0.42" d="M144.13 58.4844H110.808C110.036 58.4844 109.414 57.9201 109.414 57.2202V56.859C109.414 56.1592 110.036 55.5948 110.808 55.5948H144.105C144.877 55.5948 145.5 56.1592 145.5 56.859V57.1976C145.524 57.8975 144.902 58.4844 144.13 58.4844Z" fill="#818181"/>
<path opacity="0.42" d="M191.046 52.1252H167.713C167.173 52.1252 166.737 51.5608 166.737 50.861V50.4998C166.737 49.7999 167.173 49.2355 167.713 49.2355H191.029C191.569 49.2355 192.005 49.7999 192.005 50.4998V50.8384C192.023 51.5382 191.587 52.1252 191.046 52.1252Z" fill="white"/>
<path opacity="0.42" d="M196.044 58.4844H162.722C161.95 58.4844 161.328 57.9201 161.328 57.2202V56.859C161.328 56.1592 161.95 55.5948 162.722 55.5948H196.019C196.791 55.5948 197.414 56.1592 197.414 56.859V57.1976C197.438 57.8975 196.816 58.4844 196.044 58.4844Z" fill="#818181"/>
</g>
<defs>
<clipPath id="clip0_398_80">
<rect width="203" height="106" fill="white" transform="translate(0 0.859985)"/>
</clipPath>
</defs>
</svg>
