<svg width="203" height="107" viewBox="0 0 203 107" fill="none" xmlns="http://www.w3.org/2000/svg">
<path opacity="0.42" d="M148.211 46.2434H54.8202C53.8315 46.2434 53.0341 45.4422 53.0341 44.4487V44.0961C53.0341 43.1027 53.8315 42.3015 54.8202 42.3015H148.179C149.168 42.3015 149.965 43.1027 149.965 44.0961V44.4487C149.997 45.4422 149.2 46.2434 148.211 46.2434ZM136.824 53.5824H66.207C65.2182 53.5824 64.4208 52.7812 64.4208 51.7877V51.4352C64.4208 50.4417 65.2182 49.6405 66.207 49.6405H136.824C137.813 49.6405 138.61 50.4417 138.61 51.4352V51.7877C138.642 52.7812 137.813 53.5824 136.824 53.5824Z" fill="#C8C8C8" fill-opacity="0.5"/>
<path opacity="0.42" d="M127.482 35.0549H75.5558C74.3527 35.0549 73.3825 34.0691 73.3825 32.8467V32.2158C73.3825 30.9934 74.3527 30.0076 75.5558 30.0076H127.443C128.646 30.0076 129.616 30.9934 129.616 32.2158V32.8073C129.655 34.0297 128.685 35.0549 127.482 35.0549Z" fill="#D9D9D9"/>
<path opacity="0.42" d="M31.4898 70.9865H6.81264C6.2409 70.9865 5.77982 70.3896 5.77982 69.6494V69.2674C5.77982 68.5273 6.2409 67.9304 6.81264 67.9304H31.4714C32.0431 67.9304 32.5042 68.5273 32.5042 69.2674V69.6256C32.5226 70.3657 32.0616 70.9865 31.4898 70.9865Z" fill="white"/>
<path opacity="0.42" d="M36.7757 77.7122H1.53442C0.717918 77.7122 0.0594482 77.1153 0.0594482 76.3751V75.9931C0.0594482 75.253 0.717918 74.6561 1.53442 74.6561H36.7494C37.5659 74.6561 38.2244 75.253 38.2244 75.9931V76.3513C38.2507 77.0914 37.5922 77.7122 36.7757 77.7122Z" fill="#818181"/>
<path opacity="0.42" d="M86.3949 70.9865H61.7178C61.146 70.9865 60.6849 70.3896 60.6849 69.6494V69.2674C60.6849 68.5273 61.146 67.9304 61.7178 67.9304H86.3765C86.9482 67.9304 87.4093 68.5273 87.4093 69.2674V69.6256C87.4278 70.3657 86.9667 70.9865 86.3949 70.9865Z" fill="white"/>
<path opacity="0.42" d="M91.6808 77.7122H56.4395C55.623 77.7122 54.9645 77.1153 54.9645 76.3751V75.9931C54.9645 75.253 55.623 74.6561 56.4395 74.6561H91.6545C92.471 74.6561 93.1294 75.253 93.1294 75.9931V76.3513C93.1558 77.0914 92.4973 77.7122 91.6808 77.7122Z" fill="#818181"/>
<path opacity="0.42" d="M141.3 70.9865H116.623C116.051 70.9865 115.59 70.3896 115.59 69.6494V69.2674C115.59 68.5273 116.051 67.9304 116.623 67.9304H141.282C141.853 67.9304 142.314 68.5273 142.314 69.2674V69.6256C142.333 70.3657 141.872 70.9865 141.3 70.9865Z" fill="white"/>
<path opacity="0.42" d="M146.586 77.7122H111.345C110.528 77.7122 109.87 77.1153 109.87 76.3751V75.9931C109.87 75.253 110.528 74.6561 111.345 74.6561H146.56C147.376 74.6561 148.035 75.253 148.035 75.9931V76.3513C148.061 77.0914 147.402 77.7122 146.586 77.7122Z" fill="#818181"/>
<path opacity="0.42" d="M196.205 70.9865H171.528C170.956 70.9865 170.495 70.3896 170.495 69.6494V69.2674C170.495 68.5273 170.956 67.9304 171.528 67.9304H196.187C196.758 67.9304 197.22 68.5273 197.22 69.2674V69.6256C197.238 70.3657 196.777 70.9865 196.205 70.9865Z" fill="white"/>
<path opacity="0.42" d="M201.491 77.7122H166.25C165.433 77.7122 164.775 77.1153 164.775 76.3751V75.9931C164.775 75.253 165.433 74.6561 166.25 74.6561H201.465C202.281 74.6561 202.94 75.253 202.94 75.9931V76.3513C202.966 77.0914 202.307 77.7122 201.491 77.7122Z" fill="#818181"/>
</svg>
