<svg width="203" height="107" viewBox="0 0 203 107" fill="none" xmlns="http://www.w3.org/2000/svg">
<circle cx="17.8329" cy="44.3001" r="10.6927" fill="#C8C8C8" fill-opacity="0.5"/>
<path opacity="0.42" d="M29.3716 64.5529H6.31088C5.77658 64.5529 5.3457 63.9951 5.3457 63.3034V62.9464C5.3457 62.2547 5.77658 61.6969 6.31088 61.6969H29.3544C29.8887 61.6969 30.3196 62.2547 30.3196 62.9464V63.2811C30.3368 63.9727 29.9059 64.5529 29.3716 64.5529Z" fill="white"/>
<path opacity="0.42" d="M34.3113 74.1129H1.37836C0.615338 74.1129 0 73.4106 0 72.5397V72.0902C0 71.2194 0.615338 70.5171 1.37836 70.5171H34.2866C35.0497 70.5171 35.665 71.2194 35.665 72.0902V72.5116C35.6896 73.3825 35.0743 74.1129 34.3113 74.1129Z" fill="#818181"/>
<circle cx="73.6109" cy="44.3001" r="10.6927" fill="#C8C8C8" fill-opacity="0.5"/>
<path opacity="0.42" d="M85.1497 64.5529H62.089C61.5547 64.5529 61.1238 63.9951 61.1238 63.3034V62.9464C61.1238 62.2547 61.5547 61.6969 62.089 61.6969H85.1325C85.6668 61.6969 86.0976 62.2547 86.0976 62.9464V63.2811C86.1149 63.9727 85.684 64.5529 85.1497 64.5529Z" fill="white"/>
<path opacity="0.42" d="M90.0894 74.1129H57.1565C56.3934 74.1129 55.7781 73.4106 55.7781 72.5397V72.0902C55.7781 71.2194 56.3934 70.5171 57.1565 70.5171H90.0648C90.8278 70.5171 91.4431 71.2194 91.4431 72.0902V72.5116C91.4677 73.3825 90.8524 74.1129 90.0894 74.1129Z" fill="#818181"/>
<circle cx="129.389" cy="44.3001" r="10.6927" fill="#C8C8C8" fill-opacity="0.5"/>
<path opacity="0.42" d="M140.928 64.5529H117.867C117.333 64.5529 116.902 63.9951 116.902 63.3034V62.9464C116.902 62.2547 117.333 61.6969 117.867 61.6969H140.911C141.445 61.6969 141.876 62.2547 141.876 62.9464V63.2811C141.893 63.9727 141.462 64.5529 140.928 64.5529Z" fill="white"/>
<path opacity="0.42" d="M145.867 74.1129H112.935C112.172 74.1129 111.556 73.4106 111.556 72.5397V72.0902C111.556 71.2194 112.172 70.5171 112.935 70.5171H145.843C146.606 70.5171 147.221 71.2194 147.221 72.0902V72.5116C147.246 73.3825 146.63 74.1129 145.867 74.1129Z" fill="#818181"/>
<circle cx="185.167" cy="44.3001" r="10.6927" fill="#C8C8C8" fill-opacity="0.5"/>
<path opacity="0.42" d="M196.706 64.5529H173.645C173.111 64.5529 172.68 63.9951 172.68 63.3034V62.9464C172.68 62.2547 173.111 61.6969 173.645 61.6969H196.689C197.223 61.6969 197.654 62.2547 197.654 62.9464V63.2811C197.671 63.9727 197.24 64.5529 196.706 64.5529Z" fill="white"/>
<path opacity="0.42" d="M201.645 74.1129H168.713C167.95 74.1129 167.334 73.4106 167.334 72.5397V72.0902C167.334 71.2194 167.95 70.5171 168.713 70.5171H201.621C202.384 70.5171 202.999 71.2194 202.999 72.0902V72.5116C203.024 73.3825 202.409 74.1129 201.645 74.1129Z" fill="#818181"/>
</svg>
