<svg width="210" height="109" viewBox="0 0 210 109" fill="none" xmlns="http://www.w3.org/2000/svg">
<path opacity="0.42" d="M46.158 51.5948H2.72974C1.72355 51.5948 0.912109 50.7703 0.912109 49.748V49.2203C0.912109 48.198 1.72355 47.3735 2.72974 47.3735H46.1256C47.1317 47.3735 47.9432 48.198 47.9432 49.2203V49.715C47.9756 50.7374 47.1642 51.5948 46.158 51.5948Z" fill="#D9D9D9"/>
<path opacity="0.2" d="M69.1027 61.624H2.41289C1.70657 61.624 1.13696 61.0083 1.13696 60.2449V59.974C1.13696 59.2105 1.70657 58.5948 2.41289 58.5948H69.1027C69.809 58.5948 70.3787 59.2105 70.3787 59.974V60.2449C70.4014 61.0083 69.8318 61.624 69.1027 61.624ZM52.8802 67.2637H2.41289C1.70657 67.2637 1.13696 66.648 1.13696 65.8846V65.6137C1.13696 64.8502 1.70657 64.2345 2.41289 64.2345H52.8575C53.5638 64.2345 54.1334 64.8502 54.1334 65.6137V65.8846C54.1562 66.648 53.5866 67.2637 52.8802 67.2637Z" fill="#C8C8C8" fill-opacity="0.5"/>
<rect x="82.8519" y="33.1563" width="34.572" height="28.6183" fill="#C8C8C8" fill-opacity="0.5"/>
<path opacity="0.42" d="M113 68.7391H87.2948C86.6992 68.7391 86.2189 68.2511 86.2189 67.646V67.3337C86.2189 66.7286 86.6992 66.2406 87.2948 66.2406H112.98C113.576 66.2406 114.056 66.7286 114.056 67.3337V67.6265C114.075 68.2316 113.595 68.7391 113 68.7391Z" fill="#D9D9D9"/>
<path opacity="0.42" d="M114.886 75.7037H85.4116C84.7287 75.7037 84.178 75.2157 84.178 74.6106V74.2982C84.178 73.6931 84.7287 73.2051 85.4116 73.2051H114.864C115.546 73.2051 116.097 73.6931 116.097 74.2982V74.591C116.119 75.1962 115.569 75.7037 114.886 75.7037Z" fill="#C8C8C8" fill-opacity="0.5"/>
<rect x="128.424" y="33.1563" width="34.572" height="28.6183" fill="#C8C8C8" fill-opacity="0.5"/>
<path opacity="0.42" d="M158.572 68.7391H132.867C132.271 68.7391 131.791 68.2511 131.791 67.646V67.3337C131.791 66.7286 132.271 66.2406 132.867 66.2406H158.552C159.148 66.2406 159.628 66.7286 159.628 67.3337V67.6265C159.647 68.2316 159.167 68.7391 158.572 68.7391Z" fill="#D9D9D9"/>
<path opacity="0.42" d="M160.458 75.7037H130.984C130.301 75.7037 129.75 75.2157 129.75 74.6106V74.2982C129.75 73.6931 130.301 73.2051 130.984 73.2051H160.436C161.118 73.2051 161.669 73.6931 161.669 74.2982V74.591C161.691 75.1962 161.141 75.7037 160.458 75.7037Z" fill="#C8C8C8" fill-opacity="0.5"/>
<rect x="173.996" y="33.1563" width="34.572" height="28.6183" fill="#C8C8C8" fill-opacity="0.5"/>
<path opacity="0.42" d="M204.144 68.7391H178.439C177.843 68.7391 177.363 68.2511 177.363 67.646V67.3337C177.363 66.7286 177.843 66.2406 178.439 66.2406H204.124C204.72 66.2406 205.2 66.7286 205.2 67.3337V67.6265C205.219 68.2316 204.739 68.7391 204.144 68.7391Z" fill="#D9D9D9"/>
<path opacity="0.42" d="M206.03 75.7037H176.556C175.873 75.7037 175.322 75.2157 175.322 74.6106V74.2982C175.322 73.6931 175.873 73.2051 176.556 73.2051H206.008C206.691 73.2051 207.241 73.6931 207.241 74.2982V74.591C207.263 75.1962 206.713 75.7037 206.03 75.7037Z" fill="#C8C8C8" fill-opacity="0.5"/>
</svg>
