<svg width="210" height="110" viewBox="0 0 210 110" fill="none" xmlns="http://www.w3.org/2000/svg">
<g clip-path="url(#clip0_400_493)">
<path opacity="0.2" d="M204.202 103.122H122.027C119.288 103.122 117.078 100.912 117.078 98.1743V12.4058C117.078 9.66783 119.288 7.45764 122.027 7.45764H204.202C206.94 7.45764 209.15 9.66783 209.15 12.4058V98.1743C209.15 100.912 206.94 103.122 204.202 103.122Z" fill="white"/>
<path opacity="0.42" d="M139.346 73.7962H186.817C188.466 73.7962 189.786 72.4437 189.786 70.7283C189.786 69.9036 189.489 69.1119 188.895 68.5182L177.019 56.1807C175.865 54.9931 173.984 54.9931 172.83 56.1807L168.97 60.2052L159.205 50.0779C158.05 48.8904 156.17 48.8904 155.015 50.0779L137.201 68.5841C136.047 69.8047 136.08 71.751 137.234 72.9385C137.861 73.4663 138.587 73.7632 139.346 73.7962Z" fill="white"/>
<path opacity="0.42" d="M177.91 49.1214C181.189 49.1214 183.848 46.3596 183.848 42.9527C183.848 39.5458 181.189 36.7839 177.91 36.7839C174.63 36.7839 171.972 39.5458 171.972 42.9527C171.972 46.3596 174.63 49.1214 177.91 49.1214Z" fill="white"/>
<path opacity="0.42" d="M44.2073 28.3972H2.56748C1.60273 28.3972 0.824707 27.5727 0.824707 26.5504V26.0227C0.824707 25.0004 1.60273 24.1759 2.56748 24.1759H44.1762C45.1409 24.1759 45.919 25.0004 45.919 26.0227V26.5174C45.9501 27.5397 45.1721 28.3972 44.2073 28.3972Z" fill="#D9D9D9"/>
<path opacity="0.2" d="M99.2341 39.4264H2.89662C1.8763 39.4264 1.05347 38.8107 1.05347 38.0473V37.7764C1.05347 37.0129 1.8763 36.3972 2.89662 36.3972H99.2341C100.254 36.3972 101.077 37.0129 101.077 37.7764V38.0473C101.11 38.8107 100.287 39.4264 99.2341 39.4264ZM75.7998 45.0661H2.89662C1.8763 45.0661 1.05347 44.4504 1.05347 43.687V43.4161C1.05347 42.6526 1.8763 42.0369 2.89662 42.0369H75.7669C76.7872 42.0369 77.61 42.6526 77.61 43.4161V43.687C77.6429 44.4504 76.8201 45.0661 75.7998 45.0661Z" fill="#737373"/>
<path opacity="0.2" d="M99.1462 56.1485H3.01953C1.93118 56.1485 1.05347 55.522 1.05347 54.7451V54.4694C1.05347 53.6925 1.93118 53.066 3.01953 53.066H99.1111C100.199 53.066 101.077 53.6925 101.077 54.4694V54.7451C101.112 55.522 100.235 56.1485 99.1462 56.1485ZM99.1462 62.6391H3.01953C1.93118 62.6391 1.05347 62.0126 1.05347 61.2357V60.9601C1.05347 60.1832 1.93118 59.5567 3.01953 59.5567H99.1111C100.199 59.5567 101.077 60.1832 101.077 60.9601V61.2357C101.112 62.0126 100.235 62.6391 99.1462 62.6391ZM80.0473 69.1298H3.01953C1.93118 69.1298 1.05347 68.5033 1.05347 67.7264V67.4507C1.05347 66.6738 1.93118 66.0473 3.01953 66.0473H80.0473C81.1356 66.0473 82.0133 66.6738 82.0133 67.4507V67.7264C82.0133 68.5033 81.1356 69.1298 80.0473 69.1298Z" fill="white"/>
<path opacity="0.42" d="M21.5026 80.7793H0.863804C0.385627 80.7793 0 80.2801 0 79.661V79.3415C0 78.7225 0.385627 78.2233 0.863804 78.2233H21.4871C21.9653 78.2233 22.3509 78.7225 22.3509 79.3415V79.6411C22.3664 80.2601 21.9807 80.7793 21.5026 80.7793Z" fill="white"/>
<path opacity="0.42" d="M30.7076 86.4043H1.23359C0.550711 86.4043 0 85.9051 0 85.286V84.9665C0 84.3475 0.550711 83.8483 1.23359 83.8483H30.6856C31.3685 83.8483 31.9192 84.3475 31.9192 84.9665V85.2661C31.9412 85.8851 31.3905 86.4043 30.7076 86.4043Z" fill="#818181"/>
<path opacity="0.42" d="M67.4224 80.7793H46.7837C46.3055 80.7793 45.9199 80.2801 45.9199 79.661V79.3415C45.9199 78.7225 46.3055 78.2233 46.7837 78.2233H67.407C67.8852 78.2233 68.2708 78.7225 68.2708 79.3415V79.6411C68.2862 80.2601 67.9006 80.7793 67.4224 80.7793Z" fill="white"/>
<path opacity="0.42" d="M76.6275 86.4043H47.1535C46.4706 86.4043 45.9199 85.9051 45.9199 85.286V84.9665C45.9199 84.3475 46.4706 83.8483 47.1535 83.8483H76.6055C77.2884 83.8483 77.8391 84.3475 77.8391 84.9665V85.2661C77.8611 85.8851 77.3104 86.4043 76.6275 86.4043Z" fill="#818181"/>
</g>
<defs>
<clipPath id="clip0_400_493">
<rect width="209.48" height="108.86" fill="white" transform="translate(0 0.860107)"/>
</clipPath>
</defs>
</svg>
