<svg width="210" height="109" viewBox="0 0 210 109" fill="none" xmlns="http://www.w3.org/2000/svg">
<rect x="41" y="13" width="127" height="83" rx="2" fill="#D9D9D9" fill-opacity="0.2"/>
<path opacity="0.2" d="M138.244 88.0797H70.1032C67.8328 88.0797 66 86.5299 66 84.61V24.4696C66 22.5498 67.8328 21 70.1032 21H138.244C140.514 21 142.347 22.5498 142.347 24.4696V84.61C142.347 86.5299 140.514 88.0797 138.244 88.0797Z" fill="white"/>
<path opacity="0.42" d="M80.4505 71.26H127.922C129.571 71.26 130.891 69.9075 130.891 68.1921C130.891 67.3674 130.594 66.5757 130 65.9819L118.124 53.6444C116.969 52.4569 115.089 52.4569 113.934 53.6444L110.075 57.669L100.31 47.5417C99.1552 46.3541 97.2748 46.3541 96.1202 47.5417L78.3062 66.0479C77.1516 67.2684 77.1846 69.2147 78.3392 70.4023C78.966 70.9301 79.6917 71.227 80.4505 71.26Z" fill="white"/>
<path opacity="0.42" d="M119.015 46.585C122.294 46.585 124.953 43.8232 124.953 40.4163C124.953 37.0094 122.294 34.2476 119.015 34.2476C115.735 34.2476 113.077 37.0094 113.077 40.4163C113.077 43.8232 115.735 46.585 119.015 46.585Z" fill="white"/>
</svg>
