<svg width="210" height="110" viewBox="0 0 210 110" fill="none" xmlns="http://www.w3.org/2000/svg">
<g clip-path="url(#clip0_396_735)">
<path opacity="0.2" d="M127.252 32.022H70.682C68.797 32.022 67.2755 31.799 67.2755 31.5228V22.8703C67.2755 22.5941 68.797 22.3711 70.682 22.3711H127.252C129.137 22.3711 130.659 22.5941 130.659 22.8703V31.5228C130.659 31.799 129.137 32.022 127.252 32.022Z" fill="white"/>
<path opacity="0.2" d="M59.977 18.3026H3.40649C1.52157 18.3026 0 18.0796 0 17.8034V9.15092C0 8.8747 1.52157 8.65173 3.40649 8.65173H59.977C61.8619 8.65173 63.3835 8.8747 63.3835 9.15092V17.8034C63.3835 18.0796 61.8619 18.3026 59.977 18.3026Z" fill="white"/>
<path opacity="0.2" d="M59.977 32.022H3.40649C1.52157 32.022 0 31.799 0 31.5228V22.8703C0 22.5941 1.52157 22.3711 3.40649 22.3711H59.977C61.8619 22.3711 63.3835 22.5941 63.3835 22.8703V31.5228C63.3835 31.799 61.8619 32.022 59.977 32.022Z" fill="white"/>
<path opacity="0.2" d="M123.637 66.3933H7.02216C3.13656 66.3933 0 65.6875 0 64.8132V37.4238C0 36.5494 3.13656 35.8436 7.02216 35.8436H123.637C127.522 35.8436 130.659 36.5494 130.659 37.4238V64.8132C130.659 65.6875 127.522 66.3933 123.637 66.3933Z" fill="white"/>
<path opacity="0.2" d="M127.252 18.3026H70.682C68.797 18.3026 67.2755 18.0796 67.2755 17.8034V9.15092C67.2755 8.8747 68.797 8.65173 70.682 8.65173H127.252C129.137 8.65173 130.659 8.8747 130.659 9.15092V17.8034C130.659 18.0796 129.137 18.3026 127.252 18.3026Z" fill="white"/>
<rect x="1.26863" y="82.6912" width="30.0739" height="10.3617" rx="5.18084" fill="#C8C8C8" fill-opacity="0.5"/>
<path opacity="0.42" d="M5.20095 76.2316H1.4266C1.33915 76.2316 1.26863 75.5717 1.26863 74.7534V74.3311C1.26863 73.5128 1.33915 72.8529 1.4266 72.8529H5.19813C5.28558 72.8529 5.3561 73.5128 5.3561 74.3311V74.727C5.35892 75.5453 5.2884 76.2316 5.20095 76.2316Z" fill="#D9D9D9"/>
<path opacity="0.42" d="M58.74 76.2316H10.4467C9.3278 76.2316 8.42546 75.5717 8.42546 74.7534V74.3311C8.42546 73.5128 9.3278 72.8529 10.4467 72.8529H58.7039C59.8228 72.8529 60.7251 73.5128 60.7251 74.3311V74.727C60.7612 75.5453 59.8589 76.2316 58.74 76.2316Z" fill="#D9D9D9"/>
<path opacity="0.42" d="M51.275 102.07H2.98179C1.86289 102.07 0.960549 101.41 0.960549 100.592V100.169C0.960549 99.3512 1.86289 98.6913 2.98179 98.6913H51.239C52.3579 98.6913 53.2602 99.3512 53.2602 100.169V100.565C53.2963 101.384 52.394 102.07 51.275 102.07Z" fill="#D9D9D9"/>
<rect x="141.011" y="8.22998" width="5.89132" height="5.91459" rx="2.94566" fill="#C8C8C8" fill-opacity="0.5"/>
<path opacity="0.2" d="M208.366 17.2835H150.173C149.557 17.2835 149.06 16.9029 149.06 16.431V16.2635C149.06 15.7916 149.557 15.411 150.173 15.411H208.366C208.982 15.411 209.479 15.7916 209.479 16.2635V16.431C209.499 16.9029 209.002 17.2835 208.366 17.2835ZM194.21 20.7696H150.173C149.557 20.7696 149.06 20.389 149.06 19.9171V19.7497C149.06 19.2777 149.557 18.8972 150.173 18.8972H194.191C194.807 18.8972 195.304 19.2777 195.304 19.7497V19.9171C195.324 20.389 194.827 20.7696 194.21 20.7696Z" fill="#D0D0D0"/>
<path opacity="0.42" d="M164.774 12.7341H149.691C149.341 12.7341 149.06 12.1298 149.06 11.3805V10.9937C149.06 10.2444 149.341 9.64008 149.691 9.64008H164.763C165.113 9.64008 165.395 10.2444 165.395 10.9937V11.3563C165.406 12.1056 165.124 12.7341 164.774 12.7341Z" fill="#D9D9D9"/>
<rect x="141.011" y="25.5723" width="5.89132" height="5.91459" rx="2.94566" fill="#C8C8C8" fill-opacity="0.5"/>
<path opacity="0.2" d="M208.366 34.6259H150.173C149.557 34.6259 149.06 34.2454 149.06 33.7734V33.606C149.06 33.1341 149.557 32.7535 150.173 32.7535H208.366C208.982 32.7535 209.479 33.1341 209.479 33.606V33.7734C209.499 34.2454 209.002 34.6259 208.366 34.6259ZM194.21 38.1121H150.173C149.557 38.1121 149.06 37.7315 149.06 37.2596V37.0921C149.06 36.6202 149.557 36.2396 150.173 36.2396H194.191C194.807 36.2396 195.304 36.6202 195.304 37.0921V37.2596C195.324 37.7315 194.827 38.1121 194.21 38.1121Z" fill="#D0D0D0"/>
<path opacity="0.42" d="M164.774 30.0766H149.691C149.341 30.0766 149.06 29.4723 149.06 28.7229V28.3362C149.06 27.5868 149.341 26.9825 149.691 26.9825H164.763C165.113 26.9825 165.395 27.5868 165.395 28.3362V28.6988C165.406 29.4481 165.124 30.0766 164.774 30.0766Z" fill="#D9D9D9"/>
<rect x="141.011" y="42.9148" width="5.89132" height="5.91459" rx="2.94566" fill="#C8C8C8" fill-opacity="0.5"/>
<path opacity="0.2" d="M208.366 51.9684H150.173C149.557 51.9684 149.06 51.5878 149.06 51.1158V50.9484C149.06 50.4765 149.557 50.0959 150.173 50.0959H208.366C208.982 50.0959 209.479 50.4765 209.479 50.9484V51.1158C209.499 51.5878 209.002 51.9684 208.366 51.9684ZM194.21 55.4545H150.173C149.557 55.4545 149.06 55.0739 149.06 54.602V54.4345C149.06 53.9626 149.557 53.582 150.173 53.582H194.191C194.807 53.582 195.304 53.9626 195.304 54.4345V54.602C195.324 55.0739 194.827 55.4545 194.21 55.4545Z" fill="#D0D0D0"/>
<path opacity="0.42" d="M164.774 47.4189H149.691C149.341 47.4189 149.06 46.8146 149.06 46.0653V45.6785C149.06 44.9292 149.341 44.3249 149.691 44.3249H164.763C165.113 44.3249 165.395 44.9292 165.395 45.6785V46.0411C165.406 46.7905 165.124 47.4189 164.774 47.4189Z" fill="#D9D9D9"/>
</g>
<defs>
<clipPath id="clip0_396_735">
<rect width="209.48" height="108.86" fill="white" transform="translate(0 0.719971)"/>
</clipPath>
</defs>
</svg>
