<svg width="210" height="110" viewBox="0 0 210 110" fill="none" xmlns="http://www.w3.org/2000/svg">
<g clip-path="url(#clip0_395_701)">
<path opacity="0.2" d="M87.5363 103.122H5.36072C2.62263 103.122 0.412369 100.912 0.412369 98.1742V12.4058C0.412369 9.66777 2.62263 7.45758 5.36072 7.45758H87.5363C90.2743 7.45758 92.4846 9.66777 92.4846 12.4058V98.1742C92.4846 100.912 90.2743 103.122 87.5363 103.122Z" fill="white"/>
<path opacity="0.42" d="M22.6799 73.7962H70.1511C71.8005 73.7962 73.1201 72.4437 73.1201 70.7283C73.1201 69.9036 72.8232 69.1119 72.2294 68.5182L60.3533 56.1807C59.1987 54.9931 57.3184 54.9931 56.1637 56.1807L52.304 60.2052L42.5393 50.0779C41.3847 48.8904 39.5043 48.8904 38.3497 50.0779L20.5356 68.5841C19.381 69.8047 19.414 71.751 20.5686 72.9385C21.1954 73.4663 21.9212 73.7632 22.6799 73.7962Z" fill="white"/>
<path opacity="0.42" d="M61.244 49.1213C64.5235 49.1213 67.1821 46.3594 67.1821 42.9525C67.1821 39.5456 64.5235 36.7838 61.244 36.7838C57.9646 36.7838 55.306 39.5456 55.306 42.9525C55.306 46.3594 57.9646 49.1213 61.244 49.1213Z" fill="white"/>
<path opacity="0.42" d="M132.451 27.5246H109.983C109.463 27.5246 109.043 26.7001 109.043 25.6778V25.1501C109.043 24.1278 109.463 23.3033 109.983 23.3033H132.435C132.955 23.3033 133.375 24.1278 133.375 25.1501V25.6448C133.392 26.6672 132.972 27.5246 132.451 27.5246Z" fill="white" fill-opacity="0.56"/>
<path opacity="0.2" d="M207.136 58.6708H111.009C109.921 58.6708 109.043 58.0443 109.043 57.2674V56.9918C109.043 56.2149 109.921 55.5884 111.009 55.5884H207.101C208.189 55.5884 209.067 56.2149 209.067 56.9918V57.2674C209.102 58.0443 208.224 58.6708 207.136 58.6708ZM207.136 65.1615H111.009C109.921 65.1615 109.043 64.5349 109.043 63.7581V63.4824C109.043 62.7055 109.921 62.079 111.009 62.079H207.101C208.189 62.079 209.067 62.7055 209.067 63.4824V63.7581C209.102 64.5349 208.224 65.1615 207.136 65.1615ZM188.037 71.6521H111.009C109.921 71.6521 109.043 71.0256 109.043 70.2487V69.9731C109.043 69.1962 109.921 68.5697 111.009 68.5697H188.037C189.125 68.5697 190.003 69.1962 190.003 69.9731V70.2487C190.003 71.0256 189.125 71.6521 188.037 71.6521Z" fill="white"/>
<path opacity="0.2" d="M207.136 36.6071H111.009C109.921 36.6071 109.043 35.9806 109.043 35.2037V34.928C109.043 34.1512 109.921 33.5247 111.009 33.5247H207.101C208.189 33.5247 209.067 34.1512 209.067 34.928V35.2037C209.102 35.9806 208.224 36.6071 207.136 36.6071ZM207.136 43.0977H111.009C109.921 43.0977 109.043 42.4712 109.043 41.6944V41.4187C109.043 40.6418 109.921 40.0153 111.009 40.0153H207.101C208.189 40.0153 209.067 40.6418 209.067 41.4187V41.6944C209.102 42.4712 208.224 43.0977 207.136 43.0977ZM188.037 49.5884H111.009C109.921 49.5884 109.043 48.9619 109.043 48.185V47.9093C109.043 47.1325 109.921 46.5059 111.009 46.5059H188.037C189.125 46.5059 190.003 47.1325 190.003 47.9093V48.185C190.003 48.9619 189.125 49.5884 188.037 49.5884Z" fill="white"/>
<rect x="107.989" y="77.6521" width="28.2009" height="9.62447" rx="4.81224" fill="#C8C8C8" fill-opacity="0.5"/>
</g>
<defs>
<clipPath id="clip0_395_701">
<rect width="209.48" height="108.86" fill="white" transform="translate(0 0.859985)"/>
</clipPath>
</defs>
</svg>
