<svg width="210" height="109" viewBox="0 0 210 109" fill="none" xmlns="http://www.w3.org/2000/svg">
<g clip-path="url(#clip0_395_676)">
<path opacity="0.42" d="M23.0923 72.9362H70.5634C72.2129 72.9362 73.5324 71.5837 73.5324 69.8684C73.5324 69.0437 73.2355 68.252 72.6417 67.6582L60.7657 55.3207C59.6111 54.1331 57.7307 54.1331 56.5761 55.3207L52.7164 59.3452L42.9516 49.2179C41.797 48.0304 39.9167 48.0304 38.762 49.2179L20.948 67.7241C19.7934 68.9447 19.8264 70.891 20.981 72.0785C21.6078 72.6063 22.3335 72.9032 23.0923 72.9362Z" fill="white"/>
<path opacity="0.42" d="M61.6564 48.2613C64.9359 48.2613 67.5944 45.4994 67.5944 42.0925C67.5944 38.6856 64.9359 35.9238 61.6564 35.9238C58.3769 35.9238 55.7184 38.6856 55.7184 42.0925C55.7184 45.4994 58.3769 48.2613 61.6564 48.2613Z" fill="white"/>
<path opacity="0.2" d="M87.9486 102.262H5.77307C3.03499 102.262 0.824724 100.052 0.824724 97.3142V11.5457C0.824724 8.80775 3.03499 6.59756 5.77307 6.59756H87.9486C90.6867 6.59756 92.897 8.80775 92.897 11.5457V97.3142C92.897 100.052 90.6867 102.262 87.9486 102.262Z" fill="white"/>
<path opacity="0.42" d="M207.617 32.067H110.264C109.233 32.067 108.402 31.2423 108.402 30.2197V29.8568C108.402 28.8342 109.233 28.0095 110.264 28.0095H207.617C208.649 28.0095 209.48 28.8342 209.48 29.8568V30.2197C209.48 31.2423 208.649 32.067 207.617 32.067ZM176.12 40.6109H110.264C109.233 40.6109 108.402 39.7862 108.402 38.7636V38.4007C108.402 37.3781 109.233 36.5534 110.264 36.5534H176.12C177.151 36.5534 177.982 37.3781 177.982 38.4007V38.7636C177.982 39.7862 177.151 40.6109 176.12 40.6109Z" fill="white"/>
<circle cx="113.902" cy="18.5095" r="5.5" fill="#C8C8C8" fill-opacity="0.54"/>
<rect x="108.402" y="51.9858" width="5.52441" height="5.49377" rx="2.74689" fill="#C8C8C8" fill-opacity="0.5"/>
<path opacity="0.2" d="M164.847 60.3953H116.867C116.359 60.3953 115.949 60.0417 115.949 59.6034V59.4479C115.949 59.0095 116.359 58.656 116.867 58.656H164.847C165.355 58.656 165.765 59.0095 165.765 59.4479V59.6034C165.781 60.0417 165.371 60.3953 164.847 60.3953ZM153.176 63.6334H116.867C116.359 63.6334 115.949 63.2799 115.949 62.8415V62.686C115.949 62.2476 116.359 61.8941 116.867 61.8941H153.159C153.667 61.8941 154.077 62.2476 154.077 62.686V62.8415C154.094 63.2799 153.684 63.6334 153.176 63.6334Z" fill="#D0D0D0"/>
<path opacity="0.42" d="M130.685 56.1696H116.541C116.213 56.1696 115.949 55.6082 115.949 54.9122V54.553C115.949 53.857 116.213 53.2957 116.541 53.2957H130.674C131.002 53.2957 131.266 53.857 131.266 54.553V54.8898C131.277 55.5858 131.013 56.1696 130.685 56.1696Z" fill="#D9D9D9"/>
<rect x="108.402" y="68.0944" width="5.52441" height="5.49377" rx="2.74689" fill="#C8C8C8" fill-opacity="0.5"/>
<path opacity="0.2" d="M164.847 76.5038H116.867C116.359 76.5038 115.949 76.1503 115.949 75.7119V75.5564C115.949 75.118 116.359 74.7645 116.867 74.7645H164.847C165.355 74.7645 165.765 75.118 165.765 75.5564V75.7119C165.781 76.1503 165.371 76.5038 164.847 76.5038ZM153.176 79.7419H116.867C116.359 79.7419 115.949 79.3884 115.949 78.95V78.7945C115.949 78.3561 116.359 78.0026 116.867 78.0026H153.159C153.667 78.0026 154.077 78.3561 154.077 78.7945V78.95C154.094 79.3884 153.684 79.7419 153.176 79.7419Z" fill="#D0D0D0"/>
<path opacity="0.42" d="M130.685 72.2781H116.541C116.213 72.2781 115.949 71.7168 115.949 71.0207V70.6615C115.949 69.9655 116.213 69.4042 116.541 69.4042H130.674C131.002 69.4042 131.266 69.9655 131.266 70.6615V70.9983C131.277 71.6943 131.013 72.2781 130.685 72.2781Z" fill="#D9D9D9"/>
<rect x="108.402" y="84.2029" width="5.52441" height="5.49377" rx="2.74689" fill="#C8C8C8" fill-opacity="0.5"/>
<path opacity="0.2" d="M164.847 92.6123H116.867C116.359 92.6123 115.949 92.2588 115.949 91.8204V91.6649C115.949 91.2266 116.359 90.873 116.867 90.873H164.847C165.355 90.873 165.765 91.2266 165.765 91.6649V91.8204C165.781 92.2588 165.371 92.6123 164.847 92.6123ZM153.176 95.8504H116.867C116.359 95.8504 115.949 95.4969 115.949 95.0586V94.903C115.949 94.4647 116.359 94.1112 116.867 94.1112H153.159C153.667 94.1112 154.077 94.4647 154.077 94.903V95.0586C154.094 95.4969 153.684 95.8504 153.176 95.8504Z" fill="#D0D0D0"/>
<path opacity="0.42" d="M130.685 88.3866H116.541C116.213 88.3866 115.949 87.8253 115.949 87.1293V86.77C115.949 86.074 116.213 85.5127 116.541 85.5127H130.674C131.002 85.5127 131.266 86.074 131.266 86.77V87.1068C131.277 87.8028 131.013 88.3866 130.685 88.3866Z" fill="#D9D9D9"/>
</g>
<defs>
<clipPath id="clip0_395_676">
<rect width="209.48" height="108.86" fill="white"/>
</clipPath>
</defs>
</svg>
