<svg width="210" height="110" viewBox="0 0 210 110" fill="none" xmlns="http://www.w3.org/2000/svg">
<g clip-path="url(#clip0_436_628)">
<path opacity="0.42" d="M132.819 16.5856H76.6603C75.7188 16.5856 74.9595 15.7906 74.9595 14.8048V14.455C74.9595 13.4691 75.7188 12.6741 76.6603 12.6741H132.819C133.76 12.6741 134.52 13.4691 134.52 14.455V14.8048C134.55 15.7906 133.76 16.5856 132.819 16.5856Z" fill="white"/>
<path opacity="0.2" d="M144.11 24.497H65.3703C64.4785 24.497 63.7593 23.702 63.7593 22.7162V22.3664C63.7593 21.3806 64.4785 20.5856 65.3703 20.5856H144.11C145.001 20.5856 145.721 21.3806 145.721 22.3664V22.7162C145.721 23.702 145.001 24.497 144.11 24.497Z" fill="#F9F9F9"/>
<path opacity="0.2" d="M133.364 31.8182H76.1152C75.4668 31.8182 74.9438 31.0232 74.9438 30.0374V29.6876C74.9438 28.7017 75.4668 27.9067 76.1152 27.9067H133.364C134.013 27.9067 134.536 28.7017 134.536 29.6876V30.0374C134.536 31.0232 134.013 31.8182 133.364 31.8182Z" fill="#F9F9F9"/>
<circle cx="104.74" cy="5.21832" r="3.82135" fill="#F3F3F3" fill-opacity="0.5"/>
<path opacity="0.2" d="M36.3693 79.4554H5.93173C4.91755 79.4554 4.09888 78.632 4.09888 77.6121V45.6615C4.09888 44.6415 4.91755 43.8182 5.93173 43.8182H36.3693C37.3835 43.8182 38.2022 44.6415 38.2022 45.6615V77.6121C38.2022 78.632 37.3835 79.4554 36.3693 79.4554Z" fill="white"/>
<path opacity="0.42" d="M12.3467 68.5307H29.9299C30.5409 68.5307 31.0296 68.0269 31.0296 67.3879C31.0296 67.0806 30.9196 66.7857 30.6997 66.5645L26.3009 61.9685C25.8732 61.5262 25.1767 61.5262 24.749 61.9685L23.3194 63.4678L19.7026 59.6951C19.2749 59.2527 18.5784 59.2527 18.1508 59.6951L11.5525 66.5891C11.1248 67.0438 11.1371 67.7688 11.5647 68.2112C11.7969 68.4078 12.0657 68.5184 12.3467 68.5307Z" fill="white"/>
<path opacity="0.42" d="M26.6308 59.3388C27.8455 59.3388 28.8302 58.3099 28.8302 57.0408C28.8302 55.7716 27.8455 54.7428 26.6308 54.7428C25.4161 54.7428 24.4314 55.7716 24.4314 57.0408C24.4314 58.3099 25.4161 59.3388 26.6308 59.3388Z" fill="white"/>
<rect x="4.09888" y="83.1573" width="26.8713" height="3.06321" rx="1.5316" fill="#F3F3F3" fill-opacity="0.5"/>
<rect x="4.09888" y="89.2205" width="31.2029" height="3.12921" rx="1.5646" fill="#F3F3F3" fill-opacity="0.5"/>
<rect x="4.09888" y="94.3497" width="35.3796" height="3.12921" rx="1.5646" fill="#F3F3F3" fill-opacity="0.5"/>
<rect x="4.09888" y="99.4789" width="16.662" height="3.12921" rx="1.5646" fill="#F3F3F3" fill-opacity="0.5"/>
<circle cx="1.91943" cy="1.91943" r="1.91943" transform="matrix(1 0 0 -1 4.09888 108.447)" fill="#F3F3F3" fill-opacity="0.5"/>
<circle cx="1.91943" cy="1.91943" r="1.91943" transform="matrix(1 0 0 -1 9.31836 108.447)" fill="#F3F3F3" fill-opacity="0.5"/>
<circle cx="1.91943" cy="1.91943" r="1.91943" transform="matrix(1 0 0 -1 14.5383 108.447)" fill="#F3F3F3" fill-opacity="0.5"/>
<path opacity="0.2" d="M92.8981 79.4554H62.4605C61.4464 79.4554 60.6277 78.632 60.6277 77.6121V45.6615C60.6277 44.6415 61.4464 43.8182 62.4605 43.8182H92.8981C93.9123 43.8182 94.731 44.6415 94.731 45.6615V77.6121C94.731 78.632 93.9123 79.4554 92.8981 79.4554Z" fill="white"/>
<path opacity="0.42" d="M68.8755 68.5307H86.4587C87.0697 68.5307 87.5584 68.0269 87.5584 67.3879C87.5584 67.0806 87.4485 66.7857 87.2285 66.5645L82.8297 61.9685C82.402 61.5262 81.7055 61.5262 81.2779 61.9685L79.8482 63.4678L76.2314 59.6951C75.8037 59.2527 75.1072 59.2527 74.6796 59.6951L68.0813 66.5891C67.6536 67.0438 67.6659 67.7688 68.0935 68.2112C68.3257 68.4078 68.5945 68.5184 68.8755 68.5307Z" fill="white"/>
<path opacity="0.42" d="M83.1596 59.3388C84.3743 59.3388 85.3591 58.3099 85.3591 57.0408C85.3591 55.7716 84.3743 54.7428 83.1596 54.7428C81.9449 54.7428 80.9602 55.7716 80.9602 57.0408C80.9602 58.3099 81.9449 59.3388 83.1596 59.3388Z" fill="white"/>
<rect x="60.6277" y="83.1573" width="26.8713" height="3.06321" rx="1.5316" fill="#F3F3F3" fill-opacity="0.5"/>
<rect x="60.6277" y="89.2205" width="31.2029" height="3.12921" rx="1.5646" fill="#F3F3F3" fill-opacity="0.5"/>
<rect x="60.6277" y="94.3497" width="35.3796" height="3.12921" rx="1.5646" fill="#F3F3F3" fill-opacity="0.5"/>
<rect x="60.6277" y="99.4789" width="16.662" height="3.12921" rx="1.5646" fill="#F3F3F3" fill-opacity="0.5"/>
<circle cx="1.91943" cy="1.91943" r="1.91943" transform="matrix(1 0 0 -1 60.6277 108.447)" fill="#F3F3F3" fill-opacity="0.5"/>
<circle cx="1.91943" cy="1.91943" r="1.91943" transform="matrix(1 0 0 -1 65.8472 108.447)" fill="#F3F3F3" fill-opacity="0.5"/>
<circle cx="1.91943" cy="1.91943" r="1.91943" transform="matrix(1 0 0 -1 71.0671 108.447)" fill="#F3F3F3" fill-opacity="0.5"/>
<path opacity="0.2" d="M149.427 79.4554H118.989C117.975 79.4554 117.156 78.632 117.156 77.6121V45.6615C117.156 44.6415 117.975 43.8182 118.989 43.8182H149.427C150.441 43.8182 151.26 44.6415 151.26 45.6615V77.6121C151.26 78.632 150.441 79.4554 149.427 79.4554Z" fill="white"/>
<path opacity="0.42" d="M125.404 68.5307H142.988C143.598 68.5307 144.087 68.0269 144.087 67.3879C144.087 67.0806 143.977 66.7857 143.757 66.5645L139.358 61.9685C138.931 61.5262 138.234 61.5262 137.807 61.9685L136.377 63.4678L132.76 59.6951C132.333 59.2527 131.636 59.2527 131.208 59.6951L124.61 66.5891C124.182 67.0438 124.195 67.7688 124.622 68.2112C124.854 68.4078 125.123 68.5184 125.404 68.5307Z" fill="white"/>
<path opacity="0.42" d="M139.688 59.3388C140.903 59.3388 141.888 58.3099 141.888 57.0408C141.888 55.7716 140.903 54.7428 139.688 54.7428C138.474 54.7428 137.489 55.7716 137.489 57.0408C137.489 58.3099 138.474 59.3388 139.688 59.3388Z" fill="white"/>
<rect x="117.156" y="83.1573" width="26.8713" height="3.06321" rx="1.5316" fill="#F3F3F3" fill-opacity="0.5"/>
<rect x="117.156" y="89.2205" width="31.2029" height="3.12921" rx="1.5646" fill="#F3F3F3" fill-opacity="0.5"/>
<rect x="117.156" y="94.3497" width="35.3796" height="3.12921" rx="1.5646" fill="#F3F3F3" fill-opacity="0.5"/>
<rect x="117.156" y="99.4789" width="16.662" height="3.12921" rx="1.5646" fill="#F3F3F3" fill-opacity="0.5"/>
<circle cx="1.91943" cy="1.91943" r="1.91943" transform="matrix(1 0 0 -1 117.156 108.447)" fill="#F3F3F3" fill-opacity="0.5"/>
<circle cx="1.91943" cy="1.91943" r="1.91943" transform="matrix(1 0 0 -1 122.376 108.447)" fill="#F3F3F3" fill-opacity="0.5"/>
<circle cx="1.91943" cy="1.91943" r="1.91943" transform="matrix(1 0 0 -1 127.596 108.447)" fill="#F3F3F3" fill-opacity="0.5"/>
<path opacity="0.2" d="M205.956 79.4554H175.518C174.504 79.4554 173.685 78.632 173.685 77.6121V45.6615C173.685 44.6415 174.504 43.8182 175.518 43.8182H205.956C206.97 43.8182 207.789 44.6415 207.789 45.6615V77.6121C207.789 78.632 206.97 79.4554 205.956 79.4554Z" fill="white"/>
<path opacity="0.42" d="M181.933 68.5307H199.516C200.127 68.5307 200.616 68.0269 200.616 67.3879C200.616 67.0806 200.506 66.7857 200.286 66.5645L195.887 61.9685C195.46 61.5262 194.763 61.5262 194.335 61.9685L192.906 63.4678L189.289 59.6951C188.861 59.2527 188.165 59.2527 187.737 59.6951L181.139 66.5891C180.711 67.0438 180.723 67.7688 181.151 68.2112C181.383 68.4078 181.652 68.5184 181.933 68.5307Z" fill="white"/>
<path opacity="0.42" d="M196.217 59.3388C197.432 59.3388 198.417 58.3099 198.417 57.0408C198.417 55.7716 197.432 54.7428 196.217 54.7428C195.003 54.7428 194.018 55.7716 194.018 57.0408C194.018 58.3099 195.003 59.3388 196.217 59.3388Z" fill="white"/>
<rect x="173.685" y="83.1573" width="26.8713" height="3.06321" rx="1.5316" fill="#F3F3F3" fill-opacity="0.5"/>
<rect x="173.685" y="89.2205" width="31.2029" height="3.12921" rx="1.5646" fill="#F3F3F3" fill-opacity="0.5"/>
<rect x="173.685" y="94.3497" width="35.3796" height="3.12921" rx="1.5646" fill="#F3F3F3" fill-opacity="0.5"/>
<rect x="173.685" y="99.4789" width="16.662" height="3.12921" rx="1.5646" fill="#F3F3F3" fill-opacity="0.5"/>
<circle cx="1.91943" cy="1.91943" r="1.91943" transform="matrix(1 0 0 -1 173.685 108.447)" fill="#F3F3F3" fill-opacity="0.5"/>
<circle cx="1.91943" cy="1.91943" r="1.91943" transform="matrix(1 0 0 -1 178.905 108.447)" fill="#F3F3F3" fill-opacity="0.5"/>
<circle cx="1.91943" cy="1.91943" r="1.91943" transform="matrix(1 0 0 -1 184.125 108.447)" fill="#F3F3F3" fill-opacity="0.5"/>
</g>
<defs>
<clipPath id="clip0_436_628">
<rect width="209.48" height="108.86" fill="white" transform="translate(0 0.859985)"/>
</clipPath>
</defs>
</svg>
