<svg width="210" height="110" viewBox="0 0 210 110" fill="none" xmlns="http://www.w3.org/2000/svg">
<g clip-path="url(#clip0_436_753)">
<path opacity="0.2" d="M80.9186 33.7011H1.54856C0.707944 33.7011 0.0300293 33.1459 0.0300293 32.4574V32.2131C0.0300293 31.5246 0.707944 30.9694 1.54856 30.9694H80.9186C81.7592 30.9694 82.4372 31.5246 82.4372 32.2131V32.4574C82.4643 33.1459 81.7864 33.7011 80.9186 33.7011ZM61.6117 38.787H1.54856C0.707944 38.787 0.0300293 38.2318 0.0300293 37.5433V37.299C0.0300293 36.6105 0.707944 36.0553 1.54856 36.0553H61.5845C62.4252 36.0553 63.1031 36.6105 63.1031 37.299V37.5433C63.1302 38.2318 62.4523 38.787 61.6117 38.787Z" fill="#C8C8C8" fill-opacity="0.5"/>
<path opacity="0.2" d="M80.8462 46.9775H1.64982C0.753152 46.9775 0.0300293 46.4125 0.0300293 45.7119V45.4633C0.0300293 44.7627 0.753152 44.1978 1.64982 44.1978H80.8173C81.714 44.1978 82.4371 44.7627 82.4371 45.4633V45.7119C82.466 46.4125 81.7429 46.9775 80.8462 46.9775ZM80.8462 52.8308H1.64982C0.753152 52.8308 0.0300293 52.2658 0.0300293 51.5652V51.3166C0.0300293 50.616 0.753152 50.0511 1.64982 50.0511H80.8173C81.714 50.0511 82.4371 50.616 82.4371 51.3166V51.5652C82.466 52.2658 81.7429 52.8308 80.8462 52.8308ZM65.1111 58.6841H1.64982C0.753152 58.6841 0.0300293 58.1191 0.0300293 57.4185V57.1699C0.0300293 56.4694 0.753152 55.9044 1.64982 55.9044H65.1111C66.0078 55.9044 66.7309 56.4694 66.7309 57.1699V57.4185C66.7309 58.1191 66.0078 58.6841 65.1111 58.6841Z" fill="white"/>
<rect x="-0.17627" y="64.0951" width="22.6869" height="5.57156" rx="2.78578" fill="#C8C8C8" fill-opacity="0.5"/>
<rect x="-0.0904541" y="23.885" width="23.3347" height="2.66005" rx="1.33002" fill="#DBDBDB"/>
<path opacity="0.2" d="M122.015 55.8252H94.543C93.6276 55.8252 92.8887 55.0873 92.8887 54.1732V25.5371C92.8887 24.6229 93.6276 23.885 94.543 23.885H122.015C122.931 23.885 123.67 24.6229 123.67 25.5371V54.1732C123.67 55.0873 122.931 55.8252 122.015 55.8252Z" fill="white"/>
<path opacity="0.42" d="M100.333 46.0339H116.203C116.755 46.0339 117.196 45.5823 117.196 45.0096C117.196 44.7342 117.097 44.4699 116.898 44.2716L112.928 40.1524C112.542 39.7559 111.913 39.7559 111.527 40.1524L110.237 41.4961L106.972 38.1149C106.586 37.7184 105.958 37.7184 105.572 38.1149L99.6163 44.2937C99.2303 44.7012 99.2413 45.351 99.6274 45.7475C99.8369 45.9237 100.08 46.0228 100.333 46.0339Z" fill="white"/>
<path opacity="0.42" d="M113.226 37.7955C114.322 37.7955 115.211 36.8734 115.211 35.7359C115.211 34.5984 114.322 33.6763 113.226 33.6763C112.129 33.6763 111.24 34.5984 111.24 35.7359C111.24 36.8734 112.129 37.7955 113.226 37.7955Z" fill="white"/>
<rect x="94.1052" y="60.5385" width="27.3467" height="3.1174" rx="1.5587" fill="#BBBBBB" fill-opacity="0.51"/>
<rect x="96.2346" y="66.709" width="23.0879" height="3.18456" rx="1.59228" fill="#C8C8C8" fill-opacity="0.5"/>
<rect x="93.7476" y="71.9289" width="28.0625" height="3.18456" rx="1.59228" fill="#C8C8C8" fill-opacity="0.5"/>
<rect x="95.937" y="77.1489" width="23.0275" height="3.18456" rx="1.59228" fill="#C8C8C8" fill-opacity="0.5"/>
<circle cx="1.95339" cy="1.95339" r="1.95339" transform="matrix(1 0 0 -1 105.825 86.4149)" fill="#C8C8C8" fill-opacity="0.5"/>
<path opacity="0.2" d="M165.009 55.8252H137.536C136.621 55.8252 135.882 55.0873 135.882 54.1732V25.5371C135.882 24.6229 136.621 23.885 137.536 23.885H165.009C165.924 23.885 166.663 24.6229 166.663 25.5371V54.1732C166.663 55.0873 165.924 55.8252 165.009 55.8252Z" fill="white"/>
<path opacity="0.42" d="M143.326 46.0339H159.197C159.748 46.0339 160.189 45.5823 160.189 45.0096C160.189 44.7342 160.09 44.4699 159.891 44.2716L155.921 40.1524C155.535 39.7559 154.906 39.7559 154.52 40.1524L153.23 41.4961L149.966 38.1149C149.58 37.7184 148.951 37.7184 148.565 38.1149L142.609 44.2937C142.223 44.7012 142.235 45.351 142.621 45.7475C142.83 45.9237 143.073 46.0228 143.326 46.0339Z" fill="white"/>
<path opacity="0.42" d="M156.219 37.7955C157.315 37.7955 158.204 36.8734 158.204 35.7359C158.204 34.5984 157.315 33.6763 156.219 33.6763C155.122 33.6763 154.234 34.5984 154.234 35.7359C154.234 36.8734 155.122 37.7955 156.219 37.7955Z" fill="white"/>
<rect x="137.098" y="60.5385" width="27.3467" height="3.1174" rx="1.5587" fill="#BBBBBB" fill-opacity="0.51"/>
<rect x="139.227" y="66.709" width="23.0879" height="3.18456" rx="1.59228" fill="#C8C8C8" fill-opacity="0.5"/>
<rect x="136.74" y="71.9289" width="28.0625" height="3.18456" rx="1.59228" fill="#C8C8C8" fill-opacity="0.5"/>
<rect x="138.93" y="77.1489" width="23.0275" height="3.18456" rx="1.59228" fill="#C8C8C8" fill-opacity="0.5"/>
<circle cx="1.95339" cy="1.95339" r="1.95339" transform="matrix(1 0 0 -1 148.818 86.4149)" fill="#C8C8C8" fill-opacity="0.5"/>
<path opacity="0.2" d="M208.002 55.8252H180.53C179.614 55.8252 178.875 55.0873 178.875 54.1732V25.5371C178.875 24.6229 179.614 23.885 180.53 23.885H208.002C208.917 23.885 209.656 24.6229 209.656 25.5371V54.1732C209.656 55.0873 208.917 55.8252 208.002 55.8252Z" fill="white"/>
<path opacity="0.42" d="M186.32 46.0339H202.19C202.741 46.0339 203.183 45.5823 203.183 45.0096C203.183 44.7342 203.083 44.4699 202.885 44.2716L198.914 40.1524C198.528 39.7559 197.9 39.7559 197.514 40.1524L196.223 41.4961L192.959 38.1149C192.573 37.7184 191.944 37.7184 191.558 38.1149L185.603 44.2937C185.217 44.7012 185.228 45.351 185.614 45.7475C185.823 45.9237 186.066 46.0228 186.32 46.0339Z" fill="white"/>
<path opacity="0.42" d="M199.212 37.7955C200.309 37.7955 201.197 36.8734 201.197 35.7359C201.197 34.5984 200.309 33.6763 199.212 33.6763C198.116 33.6763 197.227 34.5984 197.227 35.7359C197.227 36.8734 198.116 37.7955 199.212 37.7955Z" fill="white"/>
<rect x="180.092" y="60.5385" width="27.3467" height="3.1174" rx="1.5587" fill="#BBBBBB" fill-opacity="0.51"/>
<rect x="182.221" y="66.709" width="23.0879" height="3.18456" rx="1.59228" fill="#C8C8C8" fill-opacity="0.5"/>
<rect x="179.734" y="71.9289" width="28.0625" height="3.18456" rx="1.59228" fill="#C8C8C8" fill-opacity="0.5"/>
<rect x="181.924" y="77.1489" width="23.0275" height="3.18456" rx="1.59228" fill="#C8C8C8" fill-opacity="0.5"/>
<circle cx="1.95339" cy="1.95339" r="1.95339" transform="matrix(1 0 0 -1 191.812 86.4149)" fill="#C8C8C8" fill-opacity="0.5"/>
</g>
<defs>
<clipPath id="clip0_436_753">
<rect width="209.48" height="108.86" fill="white" transform="translate(0 0.719971)"/>
</clipPath>
</defs>
</svg>
