<svg width="210" height="109" viewBox="0 0 210 109" fill="none" xmlns="http://www.w3.org/2000/svg">
<g clip-path="url(#clip0_436_550)">
<path opacity="0.42" d="M132.819 12.7254H76.6603C75.7188 12.7254 74.9595 11.9304 74.9595 10.9446V10.5948C74.9595 9.60894 75.7188 8.81393 76.6603 8.81393H132.819C133.76 8.81393 134.52 9.60894 134.52 10.5948V10.9446C134.55 11.9304 133.76 12.7254 132.819 12.7254Z" fill="white"/>
<path opacity="0.2" d="M144.11 20.6368H65.3703C64.4785 20.6368 63.7593 19.8418 63.7593 18.856V18.5062C63.7593 17.5204 64.4785 16.7254 65.3703 16.7254H144.11C145.001 16.7254 145.721 17.5204 145.721 18.5062V18.856C145.721 19.8418 145.001 20.6368 144.11 20.6368Z" fill="white"/>
<path opacity="0.2" d="M133.364 27.958H76.1152C75.4668 27.958 74.9438 27.163 74.9438 26.1772V25.8274C74.9438 24.8415 75.4668 24.0465 76.1152 24.0465H133.364C134.013 24.0465 134.536 24.8415 134.536 25.8274V26.1772C134.536 27.163 134.013 27.958 133.364 27.958Z" fill="white"/>
<path opacity="0.2" d="M39.7478 83.8526H2.25754C1.00837 83.8526 0 82.8385 0 81.5822V42.2284C0 40.9721 1.00837 39.958 2.25754 39.958H39.7478C40.9969 39.958 42.0053 40.9721 42.0053 42.2284V81.5822C42.0053 82.8385 40.9969 83.8526 39.7478 83.8526Z" fill="white"/>
<path opacity="0.42" d="M10.1589 70.3967H31.8162C32.5687 70.3967 33.1707 69.7761 33.1707 68.989C33.1707 68.6106 33.0353 68.2474 32.7644 67.9749L27.3463 62.314C26.8195 61.7691 25.9616 61.7691 25.4349 62.314L23.674 64.1606L19.2191 59.5138C18.6924 58.9689 17.8345 58.9689 17.3077 59.5138L9.18059 68.0052C8.65383 68.5652 8.66888 69.4582 9.19564 70.0031C9.4816 70.2453 9.81271 70.3815 10.1589 70.3967Z" fill="white"/>
<path opacity="0.42" d="M27.7527 59.0749C29.2489 59.0749 30.4618 57.8077 30.4618 56.2444C30.4618 54.6812 29.2489 53.414 27.7527 53.414C26.2566 53.414 25.0437 54.6812 25.0437 56.2444C25.0437 57.8077 26.2566 59.0749 27.7527 59.0749Z" fill="white"/>
<rect y="88.4123" width="33.0977" height="3.77298" rx="1.88649" fill="#C8C8C8" fill-opacity="0.5"/>
<rect y="96.1919" width="49.0602" height="3.85427" rx="1.92713" fill="#D8D8D8" fill-opacity="0.41"/>
<path opacity="0.2" d="M93.2211 83.8526H55.7309C54.4818 83.8526 53.4734 82.8385 53.4734 81.5822V42.2284C53.4734 40.9721 54.4818 39.958 55.7309 39.958H93.2211C94.4703 39.958 95.4787 40.9721 95.4787 42.2284V81.5822C95.4787 82.8385 94.4703 83.8526 93.2211 83.8526Z" fill="white"/>
<path opacity="0.42" d="M63.632 70.3967H85.2893C86.0419 70.3967 86.6439 69.7761 86.6439 68.989C86.6439 68.6106 86.5084 68.2474 86.2375 67.9749L80.8194 62.314C80.2927 61.7691 79.4348 61.7691 78.908 62.314L77.1471 64.1606L72.6923 59.5138C72.1655 58.9689 71.3076 58.9689 70.7809 59.5138L62.6537 68.0052C62.127 68.5652 62.142 69.4582 62.6688 70.0031C62.9547 70.2453 63.2858 70.3815 63.632 70.3967Z" fill="white"/>
<path opacity="0.42" d="M81.2259 59.0749C82.7221 59.0749 83.9349 57.8077 83.9349 56.2444C83.9349 54.6812 82.7221 53.414 81.2259 53.414C79.7297 53.414 78.5168 54.6812 78.5168 56.2444C78.5168 57.8077 79.7297 59.0749 81.2259 59.0749Z" fill="white"/>
<rect x="53.4734" y="88.4123" width="33.0977" height="3.77298" rx="1.88649" fill="#C8C8C8" fill-opacity="0.5"/>
<rect x="53.4734" y="96.1919" width="49.0602" height="3.85427" rx="1.92713" fill="#D8D8D8" fill-opacity="0.41"/>
<path opacity="0.2" d="M146.694 83.8526H109.204C107.955 83.8526 106.947 82.8385 106.947 81.5822V42.2284C106.947 40.9721 107.955 39.958 109.204 39.958H146.694C147.943 39.958 148.952 40.9721 148.952 42.2284V81.5822C148.952 82.8385 147.943 83.8526 146.694 83.8526Z" fill="white"/>
<path opacity="0.42" d="M117.105 70.3967H138.763C139.515 70.3967 140.117 69.7761 140.117 68.989C140.117 68.6106 139.982 68.2474 139.711 67.9749L134.293 62.314C133.766 61.7691 132.908 61.7691 132.381 62.314L130.621 64.1606L126.166 59.5138C125.639 58.9689 124.781 58.9689 124.254 59.5138L116.127 68.0052C115.6 68.5652 115.615 69.4582 116.142 70.0031C116.428 70.2453 116.759 70.3815 117.105 70.3967Z" fill="white"/>
<path opacity="0.42" d="M134.699 59.0749C136.195 59.0749 137.408 57.8077 137.408 56.2444C137.408 54.6812 136.195 53.414 134.699 53.414C133.203 53.414 131.99 54.6812 131.99 56.2444C131.99 57.8077 133.203 59.0749 134.699 59.0749Z" fill="white"/>
<rect x="106.947" y="88.4123" width="33.0977" height="3.77298" rx="1.88649" fill="#C8C8C8" fill-opacity="0.5"/>
<rect x="106.947" y="96.1919" width="49.0602" height="3.85427" rx="1.92713" fill="#D8D8D8" fill-opacity="0.41"/>
<path opacity="0.2" d="M200.168 83.8526H162.677C161.428 83.8526 160.42 82.8385 160.42 81.5822V42.2284C160.42 40.9721 161.428 39.958 162.677 39.958H200.168C201.417 39.958 202.425 40.9721 202.425 42.2284V81.5822C202.425 82.8385 201.417 83.8526 200.168 83.8526Z" fill="white"/>
<path opacity="0.42" d="M170.579 70.3967H192.236C192.988 70.3967 193.59 69.7761 193.59 68.989C193.59 68.6106 193.455 68.2474 193.184 67.9749L187.766 62.314C187.239 61.7691 186.381 61.7691 185.855 62.314L184.094 64.1606L179.639 59.5138C179.112 58.9689 178.254 58.9689 177.727 59.5138L169.6 68.0052C169.074 68.5652 169.089 69.4582 169.615 70.0031C169.901 70.2453 170.232 70.3815 170.579 70.3967Z" fill="white"/>
<path opacity="0.42" d="M188.172 59.0749C189.669 59.0749 190.881 57.8077 190.881 56.2444C190.881 54.6812 189.669 53.414 188.172 53.414C186.676 53.414 185.463 54.6812 185.463 56.2444C185.463 57.8077 186.676 59.0749 188.172 59.0749Z" fill="white"/>
<rect x="160.42" y="88.4123" width="33.0977" height="3.77298" rx="1.88649" fill="#C8C8C8" fill-opacity="0.5"/>
<rect x="160.42" y="96.1919" width="49.0602" height="3.85427" rx="1.92713" fill="#D8D8D8" fill-opacity="0.41"/>
</g>
<defs>
<clipPath id="clip0_436_550">
<rect width="209.48" height="108.86" fill="white"/>
</clipPath>
</defs>
</svg>
