<svg width="210" height="109" viewBox="0 0 210 109" fill="none" xmlns="http://www.w3.org/2000/svg">
<g clip-path="url(#clip0_468_572)">
<rect x="92.718" width="24.0433" height="2.7384" rx="1.3692" fill="white" fill-opacity="0.64"/>
<rect x="51.603" y="5.59412" width="106.273" height="2.7384" rx="1.3692" fill="white" fill-opacity="0.37"/>
<rect x="62.739" y="9.76025" width="84.0017" height="2.7384" rx="1.3692" fill="white" fill-opacity="0.37"/>
<path opacity="0.2" d="M96.5222 108.86H5.48214C2.44869 108.86 0 106.793 0 104.232V24.0152C0 21.4545 2.44869 19.3873 5.48214 19.3873H96.5222C99.5557 19.3873 102.004 21.4545 102.004 24.0152V104.232C102.004 106.793 99.5557 108.86 96.5222 108.86Z" fill="white"/>
<path opacity="0.42" d="M29.6791 80.7429H72.3476C73.8302 80.7429 75.0163 79.5283 75.0163 77.9878C75.0163 77.2472 74.7494 76.5363 74.2157 76.003L63.5411 64.9235C62.5033 63.8571 60.8132 63.8571 59.7754 64.9235L56.3062 68.5377L47.5293 59.443C46.4915 58.3766 44.8014 58.3766 43.7636 59.443L27.7517 76.0623C26.7139 77.1584 26.7436 78.9062 27.7814 79.9727C28.3448 80.4467 28.9971 80.7133 29.6791 80.7429Z" fill="white"/>
<path opacity="0.42" d="M64.3419 58.5839C67.2896 58.5839 69.6792 56.1037 69.6792 53.0441C69.6792 49.9846 67.2896 47.5044 64.3419 47.5044C61.3942 47.5044 59.0046 49.9846 59.0046 53.0441C59.0046 56.1037 61.3942 58.5839 64.3419 58.5839Z" fill="white"/>
<ellipse cx="125.937" cy="23.4918" rx="4.92674" ry="4.92238" fill="#D9D9D9" fill-opacity="0.5"/>
<rect x="134.777" y="19.7072" width="51.5999" height="1.79091" rx="0.895453" fill="white" fill-opacity="0.6"/>
<rect x="134.777" y="23.6748" width="64.9484" height="1.84569" rx="0.922844" fill="#D9D9D9" fill-opacity="0.5"/>
<rect x="134.777" y="28.9457" width="58.7876" height="1.84569" rx="0.922844" fill="#D9D9D9" fill-opacity="0.5"/>
<rect x="134.777" y="26.3099" width="74.703" height="1.84569" rx="0.922844" fill="#D9D9D9" fill-opacity="0.5"/>
<ellipse cx="125.937" cy="38.9788" rx="4.92674" ry="4.92238" fill="#D9D9D9" fill-opacity="0.5"/>
<rect x="134.777" y="35.194" width="51.5999" height="1.79091" rx="0.895453" fill="white" fill-opacity="0.6"/>
<rect x="134.777" y="39.1616" width="64.9484" height="1.84569" rx="0.922844" fill="#D9D9D9" fill-opacity="0.5"/>
<rect x="134.777" y="44.4325" width="58.7876" height="1.84569" rx="0.922844" fill="#D9D9D9" fill-opacity="0.5"/>
<rect x="134.777" y="41.7968" width="74.703" height="1.84569" rx="0.922844" fill="#D9D9D9" fill-opacity="0.5"/>
<ellipse cx="125.937" cy="54.4656" rx="4.92674" ry="4.92238" fill="#D9D9D9" fill-opacity="0.5"/>
<rect x="134.777" y="50.6808" width="51.5999" height="1.79091" rx="0.895453" fill="white" fill-opacity="0.6"/>
<rect x="134.777" y="54.6484" width="64.9484" height="1.84569" rx="0.922844" fill="#D9D9D9" fill-opacity="0.5"/>
<rect x="134.777" y="59.9192" width="58.7876" height="1.84569" rx="0.922844" fill="#D9D9D9" fill-opacity="0.5"/>
<rect x="134.777" y="57.2836" width="74.703" height="1.84569" rx="0.922844" fill="#D9D9D9" fill-opacity="0.5"/>
<ellipse cx="125.937" cy="69.9524" rx="4.92674" ry="4.92238" fill="#D9D9D9" fill-opacity="0.5"/>
<rect x="134.777" y="66.1675" width="51.5999" height="1.79091" rx="0.895453" fill="white" fill-opacity="0.6"/>
<rect x="134.777" y="70.1353" width="64.9484" height="1.84569" rx="0.922844" fill="#D9D9D9" fill-opacity="0.5"/>
<rect x="134.777" y="75.4061" width="58.7876" height="1.84569" rx="0.922844" fill="#D9D9D9" fill-opacity="0.5"/>
<rect x="134.777" y="72.7705" width="74.703" height="1.84569" rx="0.922844" fill="#D9D9D9" fill-opacity="0.5"/>
<ellipse cx="125.937" cy="85.4392" rx="4.92674" ry="4.92238" fill="#D9D9D9" fill-opacity="0.5"/>
<rect x="134.777" y="81.6544" width="51.5999" height="1.79091" rx="0.895453" fill="white" fill-opacity="0.6"/>
<rect x="134.777" y="85.6221" width="64.9484" height="1.84569" rx="0.922844" fill="#D9D9D9" fill-opacity="0.5"/>
<rect x="134.777" y="90.8929" width="58.7876" height="1.84569" rx="0.922844" fill="#D9D9D9" fill-opacity="0.5"/>
<rect x="134.777" y="88.2573" width="74.703" height="1.84569" rx="0.922844" fill="#D9D9D9" fill-opacity="0.5"/>
<ellipse cx="125.937" cy="100.926" rx="4.92674" ry="4.92238" fill="#D9D9D9" fill-opacity="0.5"/>
<rect x="134.777" y="97.1412" width="51.5999" height="1.79091" rx="0.895453" fill="white" fill-opacity="0.6"/>
<rect x="134.777" y="101.109" width="64.9484" height="1.84569" rx="0.922844" fill="#D9D9D9" fill-opacity="0.5"/>
<rect x="134.777" y="106.38" width="58.7876" height="1.84569" rx="0.922844" fill="#D9D9D9" fill-opacity="0.5"/>
<rect x="134.777" y="103.744" width="74.703" height="1.84569" rx="0.922844" fill="#D9D9D9" fill-opacity="0.5"/>
</g>
<defs>
<clipPath id="clip0_468_572">
<rect width="209.48" height="108.86" fill="white"/>
</clipPath>
</defs>
</svg>
