<svg width="210" height="109" viewBox="0 0 210 109" fill="none" xmlns="http://www.w3.org/2000/svg">
<g clip-path="url(#clip0_481_904)">
<path opacity="0.2" d="M89.5153 51.7676H5.0844C2.27117 51.7676 0.000244141 50.6122 0.000244141 49.1809V4.34568C0.000244141 2.9144 2.27117 1.75903 5.0844 1.75903H89.5153C92.3285 1.75903 94.5994 2.9144 94.5994 4.34568V49.1809C94.5994 50.6122 92.3285 51.7676 89.5153 51.7676Z" fill="white"/>
<path opacity="0.42" d="M28.4994 41.4295H66.12C67.4272 41.4295 68.473 40.3576 68.473 38.9982C68.473 38.3446 68.2377 37.7172 67.7671 37.2467L58.3554 27.4693C57.4404 26.5281 55.9502 26.5281 55.0351 27.4693L51.9763 30.6587L44.2378 22.6329C43.3228 21.6917 41.8326 21.6917 40.9176 22.6329L26.8 37.2989C25.885 38.2662 25.9112 39.8086 26.8262 40.7498C27.3229 41.1681 27.8981 41.4033 28.4994 41.4295Z" fill="white"/>
<path opacity="0.42" d="M59.0611 21.8747C61.66 21.8747 63.7669 19.6859 63.7669 16.986C63.7669 14.286 61.66 12.0973 59.0611 12.0973C56.4621 12.0973 54.3552 14.286 54.3552 16.986C54.3552 19.6859 56.4621 21.8747 59.0611 21.8747Z" fill="white"/>
<g opacity="0.2">
<path d="M207.643 23.1153H116.236C115.201 23.1153 114.366 22.6282 114.366 22.0242V21.8098C114.366 21.2058 115.201 20.7186 116.236 20.7186H207.609C208.644 20.7186 209.479 21.2058 209.479 21.8098V22.0242C209.512 22.6282 208.678 23.1153 207.643 23.1153ZM207.643 28.1621H116.236C115.201 28.1621 114.366 27.6749 114.366 27.0709V26.8565C114.366 26.2525 115.201 25.7654 116.236 25.7654H207.609C208.644 25.7654 209.479 26.2525 209.479 26.8565V27.0709C209.512 27.6749 208.678 28.1621 207.643 28.1621ZM189.482 33.2088H116.236C115.201 33.2088 114.366 32.7217 114.366 32.1176V31.9033C114.366 31.2992 115.201 30.8121 116.236 30.8121H189.482C190.516 30.8121 191.351 31.2992 191.351 31.9033V32.1176C191.351 32.7217 190.516 33.2088 189.482 33.2088Z" fill="#FDFDFD"/>
<path d="M208.979 22.0242V22.038L208.98 22.0517C208.982 22.089 208.961 22.2155 208.707 22.3658C208.464 22.5092 208.089 22.6153 207.643 22.6153H116.236C115.79 22.6153 115.413 22.5095 115.165 22.3644C114.905 22.2126 114.866 22.0754 114.866 22.0242V21.8098C114.866 21.7586 114.905 21.6214 115.165 21.4695C115.413 21.3245 115.79 21.2186 116.236 21.2186H207.609C208.055 21.2186 208.432 21.3245 208.68 21.4695C208.94 21.6214 208.979 21.7586 208.979 21.8098V22.0242ZM208.979 27.0709V27.0847L208.98 27.0985C208.982 27.1357 208.961 27.2623 208.707 27.4125C208.464 27.556 208.089 27.6621 207.643 27.6621H116.236C115.79 27.6621 115.413 27.5562 115.165 27.4112C114.905 27.2593 114.866 27.1221 114.866 27.0709V26.8565C114.866 26.8053 114.905 26.6681 115.165 26.5163C115.413 26.3712 115.79 26.2654 116.236 26.2654H207.609C208.055 26.2654 208.432 26.3712 208.68 26.5163C208.94 26.6681 208.979 26.8053 208.979 26.8565V27.0709ZM189.482 32.7088H116.236C115.79 32.7088 115.413 32.603 115.165 32.4579C114.905 32.306 114.866 32.1689 114.866 32.1176V31.9033C114.866 31.852 114.905 31.7148 115.165 31.563C115.413 31.4179 115.79 31.3121 116.236 31.3121H189.482C189.927 31.3121 190.304 31.4179 190.552 31.563C190.813 31.7148 190.851 31.852 190.851 31.9033V32.1176C190.851 32.1689 190.813 32.306 190.552 32.4579C190.304 32.603 189.927 32.7088 189.482 32.7088Z" stroke="white" stroke-opacity="0.8"/>
</g>
<rect x="114.366" width="34.5716" height="3.94101" rx="1.9705" fill="white" fill-opacity="0.64"/>
<rect x="114.121" y="8.94104" width="93.2507" height="2.688" rx="1.344" fill="white" fill-opacity="0.37"/>
<rect x="114.121" y="13.0306" width="73.7082" height="2.688" rx="1.344" fill="white" fill-opacity="0.37"/>
<rect x="114.121" y="37.6512" width="22.0154" height="7.55657" rx="2" fill="#EAEAEA" fill-opacity="0.72"/>
<g opacity="0.2">
<path d="M74.8275 79.5852H1.74021C0.912703 79.5852 0.245361 79.0981 0.245361 78.494V78.2797C0.245361 77.6756 0.912703 77.1885 1.74021 77.1885H74.8008C75.6283 77.1885 76.2956 77.6756 76.2956 78.2797V78.494C76.3223 79.0981 75.655 79.5852 74.8275 79.5852ZM74.8275 84.6319H1.74021C0.912703 84.6319 0.245361 84.1448 0.245361 83.5407V83.3264C0.245361 82.7223 0.912703 82.2352 1.74021 82.2352H74.8008C75.6283 82.2352 76.2956 82.7223 76.2956 83.3264V83.5407C76.3223 84.1448 75.655 84.6319 74.8275 84.6319ZM60.3061 89.6786H1.74021C0.912703 89.6786 0.245361 89.1915 0.245361 88.5875V88.3731C0.245361 87.7691 0.912703 87.2819 1.74021 87.2819H60.3061C61.1336 87.2819 61.801 87.7691 61.801 88.3731V88.5875C61.801 89.1915 61.1336 89.6786 60.3061 89.6786Z" fill="#FDFDFD"/>
<path d="M75.7956 78.494V78.505L75.7961 78.5161C75.8003 78.611 75.7544 78.7386 75.5847 78.864C75.4141 78.9901 75.1478 79.0852 74.8275 79.0852H1.74021C1.42055 79.0852 1.15283 78.9904 0.977267 78.8623C0.801646 78.7341 0.745361 78.5982 0.745361 78.494V78.2797C0.745361 78.1755 0.801646 78.0396 0.977267 77.9114C1.15283 77.7832 1.42055 77.6885 1.74021 77.6885H74.8008C75.1204 77.6885 75.3881 77.7832 75.5637 77.9114C75.7393 78.0396 75.7956 78.1755 75.7956 78.2797V78.494ZM75.7956 83.5407V83.5518L75.7961 83.5628C75.8003 83.6578 75.7544 83.7853 75.5847 83.9107C75.4141 84.0368 75.1478 84.1319 74.8275 84.1319H1.74021C1.42055 84.1319 1.15283 84.0371 0.977267 83.909C0.801646 83.7808 0.745361 83.6449 0.745361 83.5407V83.3264C0.745361 83.2222 0.801646 83.0863 0.977267 82.9581C1.15283 82.83 1.42055 82.7352 1.74021 82.7352H74.8008C75.1204 82.7352 75.3881 82.83 75.5637 82.9581C75.7393 83.0863 75.7956 83.2222 75.7956 83.3264V83.5407ZM60.3061 89.1786H1.74021C1.42055 89.1786 1.15283 89.0839 0.977266 88.9557C0.801646 88.8275 0.745361 88.6916 0.745361 88.5875V88.3731C0.745361 88.2689 0.801646 88.1331 0.977267 88.0049C1.15283 87.8767 1.42055 87.7819 1.74021 87.7819H60.3061C60.6258 87.7819 60.8935 87.8767 61.069 88.0049C61.2447 88.1331 61.301 88.2689 61.301 88.3731V88.5875C61.301 88.6916 61.2447 88.8275 61.069 88.9557C60.8935 89.0839 60.6258 89.1786 60.3061 89.1786Z" stroke="white" stroke-opacity="0.8"/>
</g>
<rect x="0.245605" y="65.0361" width="34.5716" height="3.94101" rx="1.9705" fill="white" fill-opacity="0.64"/>
<rect x="0.000244141" y="97.4054" width="22.0154" height="7.55657" rx="2" fill="#EAEAEA" fill-opacity="0.72"/>
<g opacity="0.2">
<path d="M206.229 98.1616H138.288C137.519 98.1616 136.898 97.6745 136.898 97.0704V96.8561C136.898 96.252 137.519 95.7649 138.288 95.7649H206.205C206.974 95.7649 207.594 96.252 207.594 96.8561V97.0704C207.619 97.6745 206.999 98.1616 206.229 98.1616ZM206.229 103.208H138.288C137.519 103.208 136.898 102.721 136.898 102.117V101.903C136.898 101.299 137.519 100.812 138.288 100.812H206.205C206.974 100.812 207.594 101.299 207.594 101.903V102.117C207.619 102.721 206.999 103.208 206.229 103.208ZM192.731 108.255H138.288C137.519 108.255 136.898 107.768 136.898 107.164V106.95C136.898 106.345 137.519 105.858 138.288 105.858H192.731C193.5 105.858 194.12 106.345 194.12 106.95V107.164C194.12 107.768 193.5 108.255 192.731 108.255Z" fill="#FDFDFD"/>
<path d="M207.094 97.0704V97.0807L207.095 97.0909C207.099 97.2027 207.048 97.3323 206.898 97.4512C206.747 97.5716 206.512 97.6616 206.229 97.6616H138.288C137.676 97.6616 137.398 97.2925 137.398 97.0704V96.8561C137.398 96.634 137.676 96.2649 138.288 96.2649H206.205C206.817 96.2649 207.094 96.634 207.094 96.8561V97.0704ZM207.094 102.117V102.127L207.095 102.138C207.099 102.249 207.048 102.379 206.898 102.498C206.747 102.618 206.512 102.708 206.229 102.708H138.288C137.676 102.708 137.398 102.339 137.398 102.117V101.903C137.398 101.681 137.676 101.312 138.288 101.312H206.205C206.817 101.312 207.094 101.681 207.094 101.903V102.117ZM192.731 107.755H138.288C137.676 107.755 137.398 107.386 137.398 107.164V106.95C137.398 106.727 137.676 106.358 138.288 106.358H192.731C193.343 106.358 193.62 106.727 193.62 106.95V107.164C193.62 107.386 193.343 107.755 192.731 107.755Z" stroke="white" stroke-opacity="0.8"/>
</g>
<rect x="92.5994" y="65.0361" width="34.5716" height="3.94101" rx="1.9705" fill="white" fill-opacity="0.64"/>
<rect x="92.5994" y="88.0341" width="34.5716" height="3.94101" rx="1.9705" fill="white" fill-opacity="0.64"/>
<rect x="137.675" y="65.0361" width="34.5716" height="3.94101" rx="1.9705" fill="white" fill-opacity="0.64"/>
<g opacity="0.2">
<path d="M207.006 74.3739H139.065C138.295 74.3739 137.675 73.8867 137.675 73.2827V73.0684C137.675 72.4643 138.295 71.9772 139.065 71.9772H206.981C207.751 71.9772 208.371 72.4643 208.371 73.0684V73.2827C208.396 73.8867 207.775 74.3739 207.006 74.3739ZM207.006 79.4206H139.065C138.295 79.4206 137.675 78.9335 137.675 78.3294V78.1151C137.675 77.511 138.295 77.0239 139.065 77.0239H206.981C207.751 77.0239 208.371 77.511 208.371 78.1151V78.3294C208.396 78.9335 207.775 79.4206 207.006 79.4206ZM193.507 84.4673H139.065C138.295 84.4673 137.675 83.9802 137.675 83.3762V83.1618C137.675 82.5578 138.295 82.0706 139.065 82.0706H193.507C194.276 82.0706 194.897 82.5578 194.897 83.1618V83.3762C194.897 83.9802 194.276 84.4673 193.507 84.4673Z" fill="#FDFDFD"/>
<path d="M207.871 73.2827V73.293L207.871 73.3032C207.876 73.4149 207.825 73.5446 207.675 73.6634C207.524 73.7838 207.289 73.8739 207.006 73.8739H139.065C138.452 73.8739 138.175 73.5048 138.175 73.2827V73.0684C138.175 72.8463 138.452 72.4772 139.065 72.4772H206.981C207.594 72.4772 207.871 72.8463 207.871 73.0684V73.2827ZM207.871 78.3294V78.3397L207.871 78.35C207.876 78.4617 207.825 78.5913 207.675 78.7102C207.524 78.8306 207.289 78.9206 207.006 78.9206H139.065C138.452 78.9206 138.175 78.5515 138.175 78.3294V78.1151C138.175 77.893 138.452 77.5239 139.065 77.5239H206.981C207.594 77.5239 207.871 77.893 207.871 78.1151V78.3294ZM193.507 83.9673H139.065C138.452 83.9673 138.175 83.5982 138.175 83.3762V83.1618C138.175 82.9398 138.452 82.5706 139.065 82.5706H193.507C194.12 82.5706 194.397 82.9398 194.397 83.1618V83.3762C194.397 83.5982 194.12 83.9673 193.507 83.9673Z" stroke="white" stroke-opacity="0.8"/>
</g>
<rect x="136.898" y="88.7578" width="34.5716" height="3.21729" rx="1.60864" fill="white" fill-opacity="0.64"/>
<rect x="131.436" y="65.4711" width="2.97412" height="3.07104" rx="1.48706" fill="white" fill-opacity="0.64"/>
<rect x="131.366" y="88.396" width="3.11499" height="3.21729" rx="1.5575" fill="white" fill-opacity="0.64"/>
<rect x="132.777" y="68.9772" width="0.293213" height="19.7806" rx="0.146606" fill="white" fill-opacity="0.64"/>
</g>
<defs>
<clipPath id="clip0_481_904">
<rect width="209.48" height="108.86" fill="white"/>
</clipPath>
</defs>
</svg>
