<svg width="210" height="109" viewBox="0 0 210 109" fill="none" xmlns="http://www.w3.org/2000/svg">
<g clip-path="url(#clip0_468_208)">
<path opacity="0.2" d="M204.424 102.262H122.248C119.51 102.262 117.3 100.052 117.3 97.3142V11.5457C117.3 8.80772 119.51 6.59753 122.248 6.59753H204.424C207.162 6.59753 209.372 8.80772 209.372 11.5457V97.3142C209.372 100.052 207.162 102.262 204.424 102.262Z" fill="white"/>
<path opacity="0.42" d="M139.568 72.9362H187.039C188.688 72.9362 190.008 71.5837 190.008 69.8683C190.008 69.0436 189.711 68.2519 189.117 67.6581L177.241 55.3207C176.086 54.1331 174.206 54.1331 173.051 55.3207L169.192 59.3452L159.427 49.2179C158.272 48.0303 156.392 48.0303 155.237 49.2179L137.423 67.7241C136.269 68.9447 136.302 70.8909 137.456 72.0785C138.083 72.6063 138.809 72.9032 139.568 72.9362Z" fill="white"/>
<path opacity="0.42" d="M178.132 48.2612C181.411 48.2612 184.07 45.4994 184.07 42.0925C184.07 38.6856 181.411 35.9238 178.132 35.9238C174.852 35.9238 172.194 38.6856 172.194 42.0925C172.194 45.4994 174.852 48.2612 178.132 48.2612Z" fill="white"/>
<g opacity="0.2">
<path d="M91.1312 39.2043H2.16555C1.15827 39.2043 0.345947 38.5743 0.345947 37.7931V37.5159C0.345947 36.7347 1.15827 36.1047 2.16555 36.1047H91.0987C92.1059 36.1047 92.9183 36.7347 92.9183 37.5159V37.7931C92.9508 38.5743 92.1384 39.2043 91.1312 39.2043ZM91.1312 45.731H2.16555C1.15827 45.731 0.345947 45.101 0.345947 44.3198V44.0426C0.345947 43.2614 1.15827 42.6314 2.16555 42.6314H91.0987C92.1059 42.6314 92.9183 43.2614 92.9183 44.0426V44.3198C92.9508 45.101 92.1384 45.731 91.1312 45.731ZM73.455 52.2577H2.16555C1.15827 52.2577 0.345947 51.6277 0.345947 50.8465V50.5693C0.345947 49.7881 1.15827 49.1581 2.16555 49.1581H73.455C74.4623 49.1581 75.2746 49.7881 75.2746 50.5693V50.8465C75.2746 51.6277 74.4623 52.2577 73.455 52.2577Z" fill="#FDFDFD"/>
<path d="M92.4183 37.7931V37.8035L92.4187 37.8139C92.4269 38.0114 92.3322 38.2206 92.1058 38.3984C91.8776 38.5776 91.5343 38.7043 91.1312 38.7043H2.16555C1.30872 38.7043 0.845947 38.1873 0.845947 37.7931V37.5159C0.845947 37.1217 1.30872 36.6047 2.16555 36.6047H91.0987C91.9555 36.6047 92.4183 37.1217 92.4183 37.5159V37.7931ZM92.4183 44.3198V44.3302L92.4187 44.3406C92.4269 44.5381 92.3322 44.7473 92.1058 44.9251C91.8776 45.1043 91.5343 45.231 91.1312 45.231H2.16555C1.30872 45.231 0.845947 44.714 0.845947 44.3198V44.0426C0.845947 43.6484 1.30872 43.1314 2.16555 43.1314H91.0987C91.9555 43.1314 92.4183 43.6484 92.4183 44.0426V44.3198ZM73.455 51.7577H2.16555C1.30872 51.7577 0.845947 51.2407 0.845947 50.8465V50.5693C0.845947 50.175 1.30872 49.6581 2.16555 49.6581H73.455C74.3118 49.6581 74.7746 50.175 74.7746 50.5693V50.8465C74.7746 51.2407 74.3118 51.7577 73.455 51.7577Z" stroke="white" stroke-opacity="0.8"/>
</g>
<rect x="0.346191" y="6.59756" width="33.6481" height="3.83573" rx="1.91787" fill="white" fill-opacity="0.64"/>
<rect x="0.107422" y="18.4333" width="90.7598" height="3.83573" rx="1.91787" fill="white" fill-opacity="0.37"/>
<rect x="0.107422" y="24.269" width="71.7393" height="3.83573" rx="1.91787" fill="white" fill-opacity="0.37"/>
<circle cx="5.2937" cy="64.986" r="4.94751" fill="#D9D9D9" fill-opacity="0.5"/>
<rect x="14.1714" y="61.1819" width="17.3872" height="2.9411" rx="1.47055" fill="white" fill-opacity="0.6"/>
<rect x="14.1714" y="66.5707" width="30.5252" height="2.9411" rx="1.47055" fill="#D9D9D9" fill-opacity="0.5"/>
<rect x="14.1714" y="70.7701" width="25.146" height="2.9411" rx="1.47055" fill="#D9D9D9" fill-opacity="0.5"/>
<circle cx="58.6443" cy="64.986" r="4.94751" fill="#D9D9D9" fill-opacity="0.5"/>
<rect x="67.522" y="61.1819" width="17.3872" height="2.9411" rx="1.47055" fill="white" fill-opacity="0.6"/>
<rect x="67.522" y="66.5707" width="30.5252" height="2.9411" rx="1.47055" fill="#D9D9D9" fill-opacity="0.5"/>
<rect x="67.522" y="70.7701" width="25.146" height="2.9411" rx="1.47055" fill="#D9D9D9" fill-opacity="0.5"/>
</g>
<defs>
<clipPath id="clip0_468_208">
<rect width="209.48" height="108.86" fill="white"/>
</clipPath>
</defs>
</svg>
