<svg width="210" height="109" viewBox="0 0 210 109" fill="none" xmlns="http://www.w3.org/2000/svg">
<g clip-path="url(#clip0_468_337)">
<path opacity="0.2" d="M92.4247 102.262H5.84122C2.95626 102.262 0.627441 100.052 0.627441 97.3142V11.5457C0.627441 8.80772 2.95626 6.59753 5.84122 6.59753H92.4247C95.3096 6.59753 97.6384 8.80772 97.6384 11.5457V97.3142C97.6384 100.052 95.3096 102.262 92.4247 102.262Z" fill="white"/>
<path opacity="0.42" d="M24.0896 72.9362H74.1071C75.845 72.9362 77.2353 71.5837 77.2353 69.8684C77.2353 69.0437 76.9225 68.252 76.2968 67.6582L63.7838 55.3207C62.5672 54.1331 60.586 54.1331 59.3695 55.3207L55.3027 59.3452L45.0142 49.2179C43.7976 48.0304 41.8164 48.0304 40.5999 49.2179L21.8303 67.7241C20.6137 68.9447 20.6485 70.891 21.865 72.0785C22.5254 72.6063 23.2901 72.9032 24.0896 72.9362Z" fill="white"/>
<path opacity="0.42" d="M64.7221 48.2612C68.1775 48.2612 70.9786 45.4994 70.9786 42.0925C70.9786 38.6856 68.1775 35.9238 64.7221 35.9238C61.2667 35.9238 58.4656 38.6856 58.4656 42.0925C58.4656 45.4994 61.2667 48.2612 64.7221 48.2612Z" fill="white"/>
<g opacity="0.2">
<path d="M208.106 47.5963H113.866C112.799 47.5963 111.938 46.9663 111.938 46.1851V45.9079C111.938 45.1268 112.799 44.4968 113.866 44.4968H208.072C209.139 44.4968 209.999 45.1268 209.999 45.9079V46.1851C210.033 46.9663 209.173 47.5963 208.106 47.5963ZM208.106 54.123H113.866C112.799 54.123 111.938 53.493 111.938 52.7118V52.4346C111.938 51.6534 112.799 51.0235 113.866 51.0235H208.072C209.139 51.0235 209.999 51.6534 209.999 52.4346V52.7118C210.033 53.493 209.173 54.123 208.106 54.123ZM189.382 60.6497H113.866C112.799 60.6497 111.938 60.0197 111.938 59.2385V58.9613C111.938 58.1801 112.799 57.5501 113.866 57.5501H189.382C190.449 57.5501 191.309 58.1801 191.309 58.9613V59.2385C191.309 60.0197 190.449 60.6497 189.382 60.6497Z" fill="#FDFDFD"/>
<path d="M209.499 46.1851V46.1961L209.499 46.2071C209.508 46.3914 209.415 46.599 209.168 46.782C208.92 46.9657 208.546 47.0963 208.106 47.0963H113.866C113.427 47.0963 113.051 46.966 112.797 46.7802C112.543 46.5945 112.438 46.3785 112.438 46.1851V45.9079C112.438 45.7145 112.543 45.4986 112.797 45.3128C113.051 45.1271 113.427 44.9968 113.866 44.9968H208.072C208.511 44.9968 208.886 45.1271 209.14 45.3128C209.394 45.4986 209.499 45.7145 209.499 45.9079V46.1851ZM209.499 52.7118V52.7228L209.499 52.7338C209.508 52.9181 209.415 53.1257 209.168 53.3087C208.92 53.4924 208.546 53.623 208.106 53.623H113.866C113.427 53.623 113.051 53.4927 112.797 53.3069C112.543 53.1211 112.438 52.9052 112.438 52.7118V52.4346C112.438 52.2412 112.543 52.0253 112.797 51.8395C113.051 51.6537 113.427 51.5235 113.866 51.5235H208.072C208.511 51.5235 208.886 51.6537 209.14 51.8395C209.394 52.0253 209.499 52.2412 209.499 52.4346V52.7118ZM189.382 60.1497H113.866C113.427 60.1497 113.051 60.0194 112.797 59.8336C112.543 59.6478 112.438 59.4319 112.438 59.2385V58.9613C112.438 58.7679 112.543 58.552 112.797 58.3662C113.051 58.1804 113.427 58.0501 113.866 58.0501H189.382C189.821 58.0501 190.197 58.1804 190.45 58.3662C190.704 58.552 190.809 58.7679 190.809 58.9613V59.2385C190.809 59.4319 190.704 59.6478 190.45 59.8336C190.197 60.0194 189.821 60.1497 189.382 60.1497Z" stroke="white" stroke-opacity="0.8"/>
</g>
<rect x="111.7" y="26.8253" width="90.7598" height="3.83573" rx="1.91787" fill="white" fill-opacity="0.37"/>
<rect x="111.938" y="20.9896" width="98.0618" height="3.83573" rx="1.91787" fill="white" fill-opacity="0.37"/>
<rect x="111.7" y="32.6611" width="71.7393" height="3.83573" rx="1.91787" fill="white" fill-opacity="0.37"/>
<rect x="111.7" y="69.5739" width="14.9722" height="2.9411" rx="1.47055" fill="white" fill-opacity="0.6"/>
<rect x="111.7" y="74.9628" width="26.2854" height="2.9411" rx="1.47055" fill="#D9D9D9" fill-opacity="0.5"/>
<rect x="144.985" y="69.5739" width="16.2604" height="2.9411" rx="1.47055" fill="white" fill-opacity="0.6"/>
<rect x="144.985" y="74.9628" width="28.5471" height="2.9411" rx="1.47055" fill="#D9D9D9" fill-opacity="0.5"/>
<rect x="180.532" y="69.5739" width="16.2604" height="2.9411" rx="1.47055" fill="white" fill-opacity="0.6"/>
<rect x="180.532" y="74.9628" width="28.5471" height="2.9411" rx="1.47055" fill="#D9D9D9" fill-opacity="0.5"/>
<circle cx="116.647" cy="11.545" r="4.94751" fill="#D9D9D9" fill-opacity="0.5"/>
</g>
<defs>
<clipPath id="clip0_468_337">
<rect width="209.48" height="108.86" fill="white" transform="translate(0.52002)"/>
</clipPath>
</defs>
</svg>
