<svg width="210" height="109" viewBox="0 0 210 109" fill="none" xmlns="http://www.w3.org/2000/svg">
<g clip-path="url(#clip0_481_835)">
<path opacity="0.2" d="M89.5153 51.7676H5.0844C2.27117 51.7676 0.000244141 50.6122 0.000244141 49.1809V4.34568C0.000244141 2.9144 2.27117 1.75903 5.0844 1.75903H89.5153C92.3285 1.75903 94.5994 2.9144 94.5994 4.34568V49.1809C94.5994 50.6122 92.3285 51.7676 89.5153 51.7676Z" fill="white"/>
<path opacity="0.42" d="M28.4994 41.4295H66.12C67.4272 41.4295 68.473 40.3576 68.473 38.9982C68.473 38.3446 68.2377 37.7172 67.7671 37.2467L58.3554 27.4693C57.4404 26.5281 55.9502 26.5281 55.0351 27.4693L51.9763 30.6587L44.2378 22.6329C43.3228 21.6917 41.8326 21.6917 40.9176 22.6329L26.8 37.2989C25.885 38.2662 25.9112 39.8086 26.8262 40.7498C27.3229 41.1681 27.8981 41.4033 28.4994 41.4295Z" fill="white"/>
<path opacity="0.42" d="M59.0611 21.8747C61.66 21.8747 63.7669 19.6859 63.7669 16.986C63.7669 14.286 61.66 12.0973 59.0611 12.0973C56.4621 12.0973 54.3552 14.286 54.3552 16.986C54.3552 19.6859 56.4621 21.8747 59.0611 21.8747Z" fill="white"/>
<g opacity="0.2">
<path d="M207.643 23.1153H116.236C115.201 23.1153 114.366 22.6282 114.366 22.0242V21.8098C114.366 21.2058 115.201 20.7186 116.236 20.7186H207.609C208.644 20.7186 209.479 21.2058 209.479 21.8098V22.0242C209.512 22.6282 208.678 23.1153 207.643 23.1153ZM207.643 28.1621H116.236C115.201 28.1621 114.366 27.6749 114.366 27.0709V26.8565C114.366 26.2525 115.201 25.7654 116.236 25.7654H207.609C208.644 25.7654 209.479 26.2525 209.479 26.8565V27.0709C209.512 27.6749 208.678 28.1621 207.643 28.1621ZM189.482 33.2088H116.236C115.201 33.2088 114.366 32.7217 114.366 32.1176V31.9033C114.366 31.2992 115.201 30.8121 116.236 30.8121H189.482C190.516 30.8121 191.351 31.2992 191.351 31.9033V32.1176C191.351 32.7217 190.516 33.2088 189.482 33.2088Z" fill="#FDFDFD"/>
<path d="M208.979 22.0242V22.038L208.98 22.0517C208.982 22.089 208.961 22.2155 208.707 22.3658C208.464 22.5092 208.089 22.6153 207.643 22.6153H116.236C115.79 22.6153 115.413 22.5095 115.165 22.3644C114.905 22.2126 114.866 22.0754 114.866 22.0242V21.8098C114.866 21.7586 114.905 21.6214 115.165 21.4695C115.413 21.3245 115.79 21.2186 116.236 21.2186H207.609C208.055 21.2186 208.432 21.3245 208.68 21.4695C208.94 21.6214 208.979 21.7586 208.979 21.8098V22.0242ZM208.979 27.0709V27.0847L208.98 27.0985C208.982 27.1357 208.961 27.2623 208.707 27.4125C208.464 27.556 208.089 27.6621 207.643 27.6621H116.236C115.79 27.6621 115.413 27.5562 115.165 27.4112C114.905 27.2593 114.866 27.1221 114.866 27.0709V26.8565C114.866 26.8053 114.905 26.6681 115.165 26.5163C115.413 26.3712 115.79 26.2654 116.236 26.2654H207.609C208.055 26.2654 208.432 26.3712 208.68 26.5163C208.94 26.6681 208.979 26.8053 208.979 26.8565V27.0709ZM189.482 32.7088H116.236C115.79 32.7088 115.413 32.603 115.165 32.4579C114.905 32.306 114.866 32.1689 114.866 32.1176V31.9033C114.866 31.852 114.905 31.7148 115.165 31.563C115.413 31.4179 115.79 31.3121 116.236 31.3121H189.482C189.927 31.3121 190.304 31.4179 190.552 31.563C190.813 31.7148 190.851 31.852 190.851 31.9033V32.1176C190.851 32.1689 190.813 32.306 190.552 32.4579C190.304 32.603 189.927 32.7088 189.482 32.7088Z" stroke="white" stroke-opacity="0.8"/>
</g>
<rect x="114.366" width="34.5716" height="3.94101" rx="1.9705" fill="white" fill-opacity="0.64"/>
<rect x="114.121" y="8.94104" width="93.2507" height="2.688" rx="1.344" fill="white" fill-opacity="0.37"/>
<rect x="114.121" y="13.0306" width="73.7082" height="2.688" rx="1.344" fill="white" fill-opacity="0.37"/>
<rect x="114.121" y="43.2089" width="17.8644" height="3.02182" rx="1.51091" fill="white" fill-opacity="0.6"/>
<rect x="114.121" y="48.7457" width="31.363" height="3.02182" rx="1.51091" fill="#D9D9D9" fill-opacity="0.5"/>
<rect x="168.936" y="43.2089" width="17.8644" height="3.02182" rx="1.51091" fill="white" fill-opacity="0.6"/>
<rect x="168.936" y="48.7457" width="31.363" height="3.02182" rx="1.51091" fill="#D9D9D9" fill-opacity="0.5"/>
<rect x="-0.0917969" y="70.9962" width="6.9947" height="6.95591" rx="3.47796" fill="#C8C8C8" fill-opacity="0.5"/>
<path opacity="0.2" d="M51.5548 82.1126H10.277C9.83987 82.1126 9.4873 81.6726 9.4873 81.127V80.9334C9.4873 80.3879 9.83987 79.9479 10.277 79.9479H51.5548C51.9919 79.9479 52.3445 80.3879 52.3445 80.9334V81.127C52.3586 81.6726 52.006 82.1126 51.5548 82.1126ZM41.5138 86.1429H10.277C9.83987 86.1429 9.4873 85.7029 9.4873 85.1573V84.9637C9.4873 84.4182 9.83987 83.9782 10.277 83.9782H41.4997C41.9369 83.9782 42.2895 84.4182 42.2895 84.9637V85.1573C42.3036 85.7029 41.951 86.1429 41.5138 86.1429Z" fill="#D0D0D0"/>
<path opacity="0.42" d="M28.1895 75.6571H10.2386C9.82271 75.6571 9.4873 75.1488 9.4873 74.5185V74.1931C9.4873 73.5628 9.82271 73.0544 10.2386 73.0544H28.1761C28.592 73.0544 28.9274 73.5628 28.9274 74.1931V74.4981C28.9408 75.1285 28.6054 75.6571 28.1895 75.6571Z" fill="#D9D9D9"/>
<rect x="78.345" y="70.9962" width="6.9947" height="6.95591" rx="3.47796" fill="#C8C8C8" fill-opacity="0.5"/>
<path opacity="0.2" d="M129.992 82.1126H88.7138C88.2766 82.1126 87.9241 81.6726 87.9241 81.127V80.9334C87.9241 80.3879 88.2766 79.9479 88.7138 79.9479H129.992C130.429 79.9479 130.781 80.3879 130.781 80.9334V81.127C130.795 81.6726 130.443 82.1126 129.992 82.1126ZM119.951 86.1429H88.7138C88.2766 86.1429 87.9241 85.7029 87.9241 85.1573V84.9637C87.9241 84.4182 88.2766 83.9782 88.7138 83.9782H119.937C120.374 83.9782 120.726 84.4182 120.726 84.9637V85.1573C120.74 85.7029 120.388 86.1429 119.951 86.1429Z" fill="#D0D0D0"/>
<path opacity="0.42" d="M106.626 75.6571H88.6754C88.2595 75.6571 87.9241 75.1488 87.9241 74.5185V74.1931C87.9241 73.5628 88.2595 73.0544 88.6754 73.0544H106.613C107.029 73.0544 107.364 73.5628 107.364 74.1931V74.4981C107.378 75.1285 107.042 75.6571 106.626 75.6571Z" fill="#D9D9D9"/>
<rect x="156.781" y="70.3788" width="6.9947" height="6.95591" rx="3.47796" fill="#C8C8C8" fill-opacity="0.5"/>
<path opacity="0.2" d="M208.428 81.4952H167.15C166.713 81.4952 166.361 81.0552 166.361 80.5096V80.316C166.361 79.7704 166.713 79.3304 167.15 79.3304H208.428C208.865 79.3304 209.218 79.7704 209.218 80.316V80.5096C209.232 81.0552 208.879 81.4952 208.428 81.4952ZM198.387 85.5255H167.15C166.713 85.5255 166.361 85.0855 166.361 84.5399V84.3463C166.361 83.8007 166.713 83.3607 167.15 83.3607H198.373C198.81 83.3607 199.163 83.8007 199.163 84.3463V84.5399C199.177 85.0855 198.824 85.5255 198.387 85.5255Z" fill="#D0D0D0"/>
<path opacity="0.42" d="M185.063 75.0397H167.112C166.696 75.0397 166.361 74.5314 166.361 73.901V73.5757C166.361 72.9454 166.696 72.437 167.112 72.437H185.049C185.465 72.437 185.801 72.9454 185.801 73.5757V73.8807C185.814 74.511 185.479 75.0397 185.063 75.0397Z" fill="#D9D9D9"/>
<rect x="93.7322" y="94.9928" width="22.0154" height="7.55657" rx="2" fill="#EAEAEA" fill-opacity="0.72"/>
</g>
<defs>
<clipPath id="clip0_481_835">
<rect width="209.48" height="108.86" fill="white"/>
</clipPath>
</defs>
</svg>
