<svg width="210" height="110" viewBox="0 0 210 110" fill="none" xmlns="http://www.w3.org/2000/svg">
<g clip-path="url(#clip0_393_197)">
<path opacity="0.2" d="M204.622 68.5056H140.553C138.418 68.5056 136.695 66.9488 136.695 65.0203V4.60881C136.695 2.68029 138.418 1.12354 140.553 1.12354H204.622C206.757 1.12354 208.48 2.68029 208.48 4.60881V65.0203C208.48 66.9488 206.757 68.5056 204.622 68.5056Z" fill="white"/>
<path opacity="0.42" d="M154.091 49.2431H191.103C192.389 49.2431 193.418 48.1886 193.418 46.8512C193.418 46.2082 193.186 45.5909 192.723 45.128L183.464 35.5089C182.564 34.583 181.098 34.583 180.197 35.5089L177.188 38.6467L169.575 30.7508C168.675 29.8249 167.209 29.8249 166.309 30.7508L152.42 45.1794C151.519 46.131 151.545 47.6485 152.445 48.5744C152.934 48.9859 153.5 49.2174 154.091 49.2431Z" fill="white"/>
<path opacity="0.42" d="M184.158 30.0049C186.715 30.0049 188.788 27.8516 188.788 25.1954C188.788 22.5392 186.715 20.3859 184.158 20.3859C181.602 20.3859 179.529 22.5392 179.529 25.1954C179.529 27.8516 181.602 30.0049 184.158 30.0049Z" fill="white"/>
<path opacity="0.42" d="M19.5424 8.07237H1.42344C1.00365 8.07237 0.6651 7.40749 0.6651 6.58305V6.15753C0.6651 5.33309 1.00365 4.66821 1.42344 4.66821H19.5289C19.9487 4.66821 20.2872 5.33309 20.2872 6.15753V6.55645C20.3008 7.3809 19.9622 8.07237 19.5424 8.07237Z" fill="#D9D9D9"/>
<path opacity="0.2" d="M80.0254 15.3537H2.33592C1.51311 15.3537 0.849548 14.8572 0.849548 14.2415V14.0231C0.849548 13.4074 1.51311 12.9109 2.33592 12.9109H80.0254C80.8482 12.9109 81.5118 13.4074 81.5118 14.0231V14.2415C81.5383 14.8572 80.8747 15.3537 80.0254 15.3537ZM61.1272 19.9017H2.33592C1.51311 19.9017 0.849548 19.4052 0.849548 18.7896V18.5711C0.849548 17.9554 1.51311 17.4589 2.33592 17.4589H61.1007C61.9235 17.4589 62.587 17.9554 62.587 18.5711V18.7896C62.6136 19.4052 61.95 19.9017 61.1272 19.9017Z" fill="white"/>
<path opacity="0.2" d="M79.9545 46.4578H2.43505C1.55736 46.4578 0.849548 45.9526 0.849548 45.3261V45.1038C0.849548 44.4773 1.55736 43.972 2.43505 43.972H79.9262C80.8039 43.972 81.5117 44.4773 81.5117 45.1038V45.3261C81.54 45.9526 80.8322 46.4578 79.9545 46.4578ZM79.9545 51.6921H2.43505C1.55736 51.6921 0.849548 51.1868 0.849548 50.5603V50.338C0.849548 49.7115 1.55736 49.2063 2.43505 49.2063H79.9262C80.8039 49.2063 81.5117 49.7115 81.5117 50.338V50.5603C81.54 51.1868 80.8322 51.6921 79.9545 51.6921ZM64.5525 56.9263H2.43505C1.55736 56.9263 0.849548 56.4211 0.849548 55.7946V55.5723C0.849548 54.9458 1.55736 54.4406 2.43505 54.4406H64.5525C65.4302 54.4406 66.138 54.9458 66.138 55.5723V55.7946C66.138 56.4211 65.4302 56.9263 64.5525 56.9263Z" fill="white"/>
<path opacity="0.2" d="M79.9545 28.665H2.43505C1.55736 28.665 0.849548 28.1597 0.849548 27.5332V27.3109C0.849548 26.6844 1.55736 26.1792 2.43505 26.1792H79.9262C80.8039 26.1792 81.5117 26.6844 81.5117 27.3109V27.5332C81.54 28.1597 80.8322 28.665 79.9545 28.665ZM79.9545 33.8992H2.43505C1.55736 33.8992 0.849548 33.394 0.849548 32.7675V32.5452C0.849548 31.9187 1.55736 31.4135 2.43505 31.4135H79.9262C80.8039 31.4135 81.5117 31.9187 81.5117 32.5452V32.7675C81.54 33.394 80.8322 33.8992 79.9545 33.8992ZM64.5525 39.1335H2.43505C1.55736 39.1335 0.849548 38.6282 0.849548 38.0017V37.7794C0.849548 37.1529 1.55736 36.6477 2.43505 36.6477H64.5525C65.4302 36.6477 66.138 37.1529 66.138 37.7794V38.0017C66.138 38.6282 65.4302 39.1335 64.5525 39.1335Z" fill="white"/>
<rect y="62.7441" width="22.7421" height="7.76147" rx="3.88073" fill="#C8C8C8" fill-opacity="0.5"/>
<path opacity="0.42" d="M44.3976 87.806H0.96936C-0.0368262 87.806 -0.848267 86.9815 -0.848267 85.9592V85.4315C-0.848267 84.4092 -0.0368262 83.5847 0.96936 83.5847H44.3652C45.3714 83.5847 46.1828 84.4092 46.1828 85.4315V85.9262C46.2153 86.9485 45.4038 87.806 44.3976 87.806Z" fill="#D9D9D9"/>
<path opacity="0.2" d="M67.3423 98.8352H0.652513C-0.0538025 98.8352 -0.623413 98.2195 -0.623413 97.4561V97.1852C-0.623413 96.4217 -0.0538025 95.806 0.652513 95.806H67.3423C68.0487 95.806 68.6183 96.4217 68.6183 97.1852V97.4561C68.6411 98.2195 68.0714 98.8352 67.3423 98.8352ZM51.1199 104.475H0.652513C-0.0538025 104.475 -0.623413 103.859 -0.623413 103.096V102.825C-0.623413 102.061 -0.0538025 101.446 0.652513 101.446H51.0971C51.8034 101.446 52.373 102.061 52.373 102.825V103.096C52.3958 103.859 51.8262 104.475 51.1199 104.475Z" fill="white"/>
<rect x="81.6861" y="83.5847" width="5.52441" height="5.49377" rx="2.74689" fill="#C8C8C8" fill-opacity="0.5"/>
<path opacity="0.2" d="M138.131 91.9941H90.1511C89.6429 91.9941 89.2331 91.6406 89.2331 91.2023V91.0467C89.2331 90.6084 89.6429 90.2549 90.1511 90.2549H138.131C138.639 90.2549 139.049 90.6084 139.049 91.0467V91.2023C139.065 91.6406 138.656 91.9941 138.131 91.9941ZM126.46 95.2322H90.1511C89.6429 95.2322 89.2331 94.8787 89.2331 94.4404V94.2848C89.2331 93.8465 89.6429 93.493 90.1511 93.493H126.443C126.952 93.493 127.361 93.8465 127.361 94.2848V94.4404C127.378 94.8787 126.968 95.2322 126.46 95.2322Z" fill="white"/>
<path opacity="0.42" d="M103.969 87.7684H89.8251C89.4974 87.7684 89.2331 87.2071 89.2331 86.5111V86.1519C89.2331 85.4558 89.4974 84.8945 89.8251 84.8945H103.959C104.286 84.8945 104.551 85.4558 104.551 86.1519V86.4886C104.561 87.1847 104.297 87.7684 103.969 87.7684Z" fill="#D9D9D9"/>
<rect x="81.6861" y="97.6525" width="5.52441" height="5.49377" rx="2.74689" fill="#C8C8C8" fill-opacity="0.5"/>
<path opacity="0.2" d="M138.131 106.062H90.1511C89.6429 106.062 89.2331 105.708 89.2331 105.27V105.114C89.2331 104.676 89.6429 104.323 90.1511 104.323H138.131C138.639 104.323 139.049 104.676 139.049 105.114V105.27C139.065 105.708 138.656 106.062 138.131 106.062ZM126.46 109.3H90.1511C89.6429 109.3 89.2331 108.946 89.2331 108.508V108.353C89.2331 107.914 89.6429 107.561 90.1511 107.561H126.443C126.952 107.561 127.361 107.914 127.361 108.353V108.508C127.378 108.946 126.968 109.3 126.46 109.3Z" fill="white"/>
<path opacity="0.42" d="M103.969 101.768H89.8251C89.4974 101.768 89.2331 101.207 89.2331 100.511V100.152C89.2331 99.4558 89.4974 98.8945 89.8251 98.8945H103.959C104.286 98.8945 104.551 99.4558 104.551 100.152V100.489C104.561 101.185 104.297 101.768 103.969 101.768Z" fill="#D9D9D9"/>
<rect x="151.116" y="83.5847" width="5.52441" height="5.49377" rx="2.74689" fill="#C8C8C8" fill-opacity="0.5"/>
<path opacity="0.2" d="M207.561 91.9941H159.581C159.073 91.9941 158.663 91.6406 158.663 91.2023V91.0467C158.663 90.6084 159.073 90.2549 159.581 90.2549H207.561C208.07 90.2549 208.479 90.6084 208.479 91.0467V91.2023C208.496 91.6406 208.086 91.9941 207.561 91.9941ZM195.89 95.2322H159.581C159.073 95.2322 158.663 94.8787 158.663 94.4404V94.2848C158.663 93.8465 159.073 93.493 159.581 93.493H195.874C196.382 93.493 196.792 93.8465 196.792 94.2848V94.4404C196.808 94.8787 196.398 95.2322 195.89 95.2322Z" fill="white"/>
<path opacity="0.42" d="M173.4 87.7684H159.255C158.928 87.7684 158.663 87.2071 158.663 86.5111V86.1519C158.663 85.4558 158.928 84.8945 159.255 84.8945H173.389C173.717 84.8945 173.981 85.4558 173.981 86.1519V86.4886C173.992 87.1847 173.727 87.7684 173.4 87.7684Z" fill="#D9D9D9"/>
<rect x="151.116" y="97.6525" width="5.52441" height="5.49377" rx="2.74689" fill="#C8C8C8" fill-opacity="0.5"/>
<path opacity="0.2" d="M207.561 106.062H159.581C159.073 106.062 158.663 105.708 158.663 105.27V105.114C158.663 104.676 159.073 104.323 159.581 104.323H207.561C208.07 104.323 208.479 104.676 208.479 105.114V105.27C208.496 105.708 208.086 106.062 207.561 106.062ZM195.89 109.3H159.581C159.073 109.3 158.663 108.946 158.663 108.508V108.353C158.663 107.914 159.073 107.561 159.581 107.561H195.874C196.382 107.561 196.792 107.914 196.792 108.353V108.508C196.808 108.946 196.398 109.3 195.89 109.3Z" fill="white"/>
<path opacity="0.42" d="M173.4 101.768H159.255C158.928 101.768 158.663 101.207 158.663 100.511V100.152C158.663 99.4558 158.928 98.8945 159.255 98.8945H173.389C173.717 98.8945 173.981 99.4558 173.981 100.152V100.489C173.992 101.185 173.727 101.768 173.4 101.768Z" fill="#D9D9D9"/>
</g>
<defs>
<clipPath id="clip0_393_197">
<rect width="209.48" height="108.86" fill="white" transform="translate(0 0.439941)"/>
</clipPath>
</defs>
</svg>
