<svg width="210" height="109" viewBox="0 0 210 109" fill="none" xmlns="http://www.w3.org/2000/svg">
<g clip-path="url(#clip0_468_464)">
<path opacity="0.2" d="M204.202 102.262H122.026C119.288 102.262 117.078 100.052 117.078 97.3143V11.5458C117.078 8.80778 119.288 6.5976 122.026 6.5976H204.202C206.94 6.5976 209.15 8.80778 209.15 11.5458V97.3143C209.15 100.052 206.94 102.262 204.202 102.262Z" fill="white"/>
<path opacity="0.42" d="M139.346 72.9362H186.817C188.466 72.9362 189.786 71.5837 189.786 69.8684C189.786 69.0437 189.489 68.252 188.895 67.6582L177.019 55.3207C175.865 54.1331 173.984 54.1331 172.83 55.3207L168.97 59.3452L159.205 49.2179C158.05 48.0304 156.17 48.0304 155.015 49.2179L137.201 67.7241C136.047 68.9447 136.08 70.891 137.234 72.0785C137.861 72.6063 138.587 72.9032 139.346 72.9362Z" fill="white"/>
<path opacity="0.42" d="M177.91 48.2613C181.189 48.2613 183.848 45.4995 183.848 42.0926C183.848 38.6857 181.189 35.9238 177.91 35.9238C174.63 35.9238 171.972 38.6857 171.972 42.0926C171.972 45.4995 174.63 48.2613 177.91 48.2613Z" fill="white"/>
<rect x="0.824707" y="6.5976" width="11.391" height="11.391" rx="5.6955" fill="#C8C8C8" fill-opacity="0.5"/>
<path opacity="0.42" d="M46.8113 30.2098H2.67209C1.64943 30.2098 0.824707 29.3854 0.824707 28.363V27.8354C0.824707 26.8131 1.64943 25.9886 2.67209 25.9886H46.7784C47.801 25.9886 48.6257 26.8131 48.6257 27.8354V28.3301C48.6587 29.3524 47.834 30.2098 46.8113 30.2098Z" fill="#D9D9D9"/>
<path opacity="0.2" d="M99.2341 41.239H2.89662C1.8763 41.239 1.05347 40.6233 1.05347 39.8599V39.589C1.05347 38.8255 1.8763 38.2098 2.89662 38.2098H99.2341C100.254 38.2098 101.077 38.8255 101.077 39.589V39.8599C101.11 40.6233 100.287 41.239 99.2341 41.239ZM75.7998 46.8787H2.89662C1.8763 46.8787 1.05347 46.263 1.05347 45.4996V45.2287C1.05347 44.4652 1.8763 43.8495 2.89662 43.8495H75.7669C76.7872 43.8495 77.61 44.4652 77.61 45.2287V45.4996C77.6429 46.263 76.8201 46.8787 75.7998 46.8787Z" fill="#FBFBFB"/>
<rect x="1.05347" y="78.9841" width="4.89404" height="4.89404" rx="2.44702" fill="#C8C8C8" fill-opacity="0.5"/>
<path opacity="0.2" d="M44.9748 80.6817H8.64263C8.25783 80.6817 7.94751 80.3282 7.94751 79.8898V79.7343C7.94751 79.2959 8.25783 78.9424 8.64263 78.9424H44.9748C45.3596 78.9424 45.6699 79.2959 45.6699 79.7343V79.8898C45.6823 80.3282 45.372 80.6817 44.9748 80.6817ZM36.1369 83.9198H8.64263C8.25783 83.9198 7.94751 83.5663 7.94751 83.1279V82.9724C7.94751 82.5341 8.25783 82.1806 8.64263 82.1806H36.1245C36.5093 82.1806 36.8196 82.5341 36.8196 82.9724V83.1279C36.832 83.5663 36.5217 83.9198 36.1369 83.9198Z" fill="#D0D0D0"/>
<rect x="56.4614" y="78.9841" width="4.89404" height="4.89404" rx="2.44702" fill="#C8C8C8" fill-opacity="0.5"/>
<path opacity="0.2" d="M100.383 80.6817H64.0506C63.6658 80.6817 63.3555 80.3282 63.3555 79.8898V79.7343C63.3555 79.2959 63.6658 78.9424 64.0506 78.9424H100.383C100.768 78.9424 101.078 79.2959 101.078 79.7343V79.8898C101.09 80.3282 100.78 80.6817 100.383 80.6817ZM91.5449 83.9198H64.0506C63.6658 83.9198 63.3555 83.5663 63.3555 83.1279V82.9724C63.3555 82.5341 63.6658 82.1806 64.0506 82.1806H91.5325C91.9173 82.1806 92.2276 82.5341 92.2276 82.9724V83.1279C92.24 83.5663 91.9297 83.9198 91.5449 83.9198Z" fill="#D0D0D0"/>
<rect x="56.4614" y="87.9198" width="4.89404" height="4.89404" rx="2.44702" fill="#C8C8C8" fill-opacity="0.5"/>
<path opacity="0.2" d="M100.383 89.6174H64.0506C63.6658 89.6174 63.3555 89.2639 63.3555 88.8256V88.67C63.3555 88.2317 63.6658 87.8782 64.0506 87.8782H100.383C100.768 87.8782 101.078 88.2317 101.078 88.67V88.8256C101.09 89.2639 100.78 89.6174 100.383 89.6174ZM91.5449 92.8555H64.0506C63.6658 92.8555 63.3555 92.502 63.3555 92.0637V91.9081C63.3555 91.4698 63.6658 91.1163 64.0506 91.1163H91.5325C91.9173 91.1163 92.2276 91.4698 92.2276 91.9081V92.0637C92.24 92.502 91.9297 92.8555 91.5449 92.8555Z" fill="#D0D0D0"/>
<rect x="1.05347" y="87.9198" width="4.89404" height="4.89404" rx="2.44702" fill="#C8C8C8" fill-opacity="0.5"/>
<path opacity="0.2" d="M44.9748 89.6174H8.64263C8.25783 89.6174 7.94751 89.2639 7.94751 88.8256V88.67C7.94751 88.2317 8.25783 87.8782 8.64263 87.8782H44.9748C45.3596 87.8782 45.6699 88.2317 45.6699 88.67V88.8256C45.6823 89.2639 45.372 89.6174 44.9748 89.6174ZM36.1369 92.8555H8.64263C8.25783 92.8555 7.94751 92.502 7.94751 92.0637V91.9081C7.94751 91.4698 8.25783 91.1163 8.64263 91.1163H36.1245C36.5093 91.1163 36.8196 91.4698 36.8196 91.9081V92.0637C36.832 92.502 36.5217 92.8555 36.1369 92.8555Z" fill="#D0D0D0"/>
<path opacity="0.2" d="M99.1462 57.9612H3.01953C1.93118 57.9612 1.05347 57.3346 1.05347 56.5578V56.2821C1.05347 55.5052 1.93118 54.8787 3.01953 54.8787H99.1111C100.199 54.8787 101.077 55.5052 101.077 56.2821V56.5578C101.112 57.3346 100.235 57.9612 99.1462 57.9612ZM99.1462 64.4518H3.01953C1.93118 64.4518 1.05347 63.8253 1.05347 63.0484V62.7728C1.05347 61.9959 1.93118 61.3694 3.01953 61.3694H99.1111C100.199 61.3694 101.077 61.9959 101.077 62.7728V63.0484C101.112 63.8253 100.235 64.4518 99.1462 64.4518ZM80.0473 70.9424H3.01953C1.93118 70.9424 1.05347 70.3159 1.05347 69.5391V69.2634C1.05347 68.4865 1.93118 67.86 3.01953 67.86H80.0473C81.1356 67.86 82.0133 68.4865 82.0133 69.2634V69.5391C82.0133 70.3159 81.1356 70.9424 80.0473 70.9424Z" fill="white"/>
</g>
<defs>
<clipPath id="clip0_468_464">
<rect width="209.48" height="108.86" fill="white"/>
</clipPath>
</defs>
</svg>
