<svg width="210" height="109" viewBox="0 0 210 109" fill="none" xmlns="http://www.w3.org/2000/svg">
<g clip-path="url(#clip0_468_408)">
<path opacity="0.2" d="M198.222 72.7331H11.2583C5.02872 72.7331 0 71.0527 0 68.971V3.76206C0 1.68039 5.02872 0 11.2583 0H198.222C204.451 0 209.48 1.68039 209.48 3.76206V68.971C209.48 71.0527 204.451 72.7331 198.222 72.7331Z" fill="white" fill-opacity="0.35"/>
<path opacity="0.42" d="M79.7444 50.6033H129.762C131.5 50.6033 132.89 49.1776 132.89 47.3695C132.89 46.5002 132.577 45.6656 131.952 45.0397L119.439 32.0349C118.222 30.7831 116.241 30.7831 115.024 32.0349L110.958 36.2771L100.669 25.6021C99.4524 24.3503 97.4712 24.3503 96.2547 25.6021L77.4851 45.1093C76.2685 46.3958 76.3033 48.4474 77.5198 49.6992C78.1802 50.2556 78.9449 50.5685 79.7444 50.6033Z" fill="white" fill-opacity="0.55"/>
<path opacity="0.42" d="M120.377 24.5936C123.832 24.5936 126.633 21.6824 126.633 18.0912C126.633 14.5 123.832 11.5888 120.377 11.5888C116.922 11.5888 114.12 14.5 114.12 18.0912C114.12 21.6824 116.922 24.5936 120.377 24.5936Z" fill="white" fill-opacity="0.55"/>
<rect x="16.0142" y="61.5817" width="177.452" height="32.8346" rx="2" fill="#DFDFDF" fill-opacity="0.31"/>
<rect x="29.4109" y="71.7969" width="22.2955" height="4.37967" rx="2.18983" fill="white" fill-opacity="0.6"/>
<rect x="20.9878" y="79.8216" width="39.1422" height="4.37967" rx="2.18983" fill="#D9D9D9" fill-opacity="0.5"/>
<rect x="72.1985" y="71.7969" width="22.2955" height="4.37967" rx="2.18983" fill="white" fill-opacity="0.6"/>
<rect x="63.7754" y="79.8216" width="39.1422" height="4.37967" rx="2.18983" fill="#D9D9D9" fill-opacity="0.5"/>
<rect x="114.986" y="71.7969" width="22.2955" height="4.37967" rx="2.18983" fill="white" fill-opacity="0.6"/>
<rect x="106.563" y="79.8216" width="39.1422" height="4.37967" rx="2.18983" fill="#D9D9D9" fill-opacity="0.5"/>
<rect x="157.773" y="71.7969" width="22.2955" height="4.37967" rx="2.18983" fill="white" fill-opacity="0.6"/>
<rect x="149.35" y="79.8216" width="39.1422" height="4.37967" rx="2.18983" fill="#D9D9D9" fill-opacity="0.5"/>
</g>
<defs>
<clipPath id="clip0_468_408">
<rect width="209.48" height="108.86" fill="white"/>
</clipPath>
</defs>
</svg>
