<svg width="210" height="110" viewBox="0 0 210 110" fill="none" xmlns="http://www.w3.org/2000/svg">
<g clip-path="url(#clip0_394_497)">
<path opacity="0.2" d="M204.202 102.842H122.027C119.288 102.842 117.078 100.632 117.078 97.8942V12.1257C117.078 9.38768 119.288 7.17749 122.027 7.17749H204.202C206.94 7.17749 209.15 9.38768 209.15 12.1257V97.8942C209.15 100.632 206.94 102.842 204.202 102.842Z" fill="white"/>
<path opacity="0.42" d="M139.346 73.5162H186.817C188.466 73.5162 189.786 72.1637 189.786 70.4483C189.786 69.6236 189.489 68.8319 188.895 68.2381L177.019 55.9007C175.865 54.7131 173.984 54.7131 172.83 55.9007L168.97 59.9252L159.205 49.7979C158.05 48.6103 156.17 48.6103 155.015 49.7979L137.201 68.3041C136.047 69.5247 136.08 71.4709 137.234 72.6585C137.861 73.1863 138.587 73.4832 139.346 73.5162Z" fill="white"/>
<path opacity="0.42" d="M177.91 48.8411C181.189 48.8411 183.848 46.0793 183.848 42.6724C183.848 39.2655 181.189 36.5037 177.91 36.5037C174.63 36.5037 171.972 39.2655 171.972 42.6724C171.972 46.0793 174.63 48.8411 177.91 48.8411Z" fill="white"/>
<path opacity="0.42" d="M55.5191 23.7938H2.06207C0.823531 23.7938 -0.175293 22.9693 -0.175293 21.947V21.4193C-0.175293 20.397 0.823531 19.5725 2.06207 19.5725H55.4792C56.7177 19.5725 57.7166 20.397 57.7166 21.4193V21.914C57.7565 22.9363 56.7577 23.7938 55.5191 23.7938Z" fill="#D9D9D9"/>
<path opacity="0.2" d="M98.2341 32.8229H1.89662C0.876304 32.8229 0.0534668 32.2072 0.0534668 31.4437V31.1728C0.0534668 30.4094 0.876304 29.7937 1.89662 29.7937H98.2341C99.2544 29.7937 100.077 30.4094 100.077 31.1728V31.4437C100.11 32.2072 99.2873 32.8229 98.2341 32.8229ZM74.7998 38.4626H1.89662C0.876304 38.4626 0.0534668 37.8469 0.0534668 37.0834V36.8125C0.0534668 36.0491 0.876304 35.4334 1.89662 35.4334H74.7669C75.7872 35.4334 76.61 36.0491 76.61 36.8125V37.0834C76.6429 37.8469 75.8201 38.4626 74.7998 38.4626Z" fill="#FEFEFE"/>
<path opacity="0.2" d="M98.1462 49.3293H2.01953C0.931176 49.3293 0.0534668 48.7027 0.0534668 47.9259V47.6502C0.0534668 46.8733 0.931176 46.2468 2.01953 46.2468H98.1111C99.1995 46.2468 100.077 46.8733 100.077 47.6502V47.9259C100.112 48.7027 99.2346 49.3293 98.1462 49.3293ZM98.1462 55.8199H2.01953C0.931176 55.8199 0.0534668 55.1934 0.0534668 54.4165V54.1409C0.0534668 53.364 0.931176 52.7375 2.01953 52.7375H98.1111C99.1995 52.7375 100.077 53.364 100.077 54.1409V54.4165C100.112 55.1934 99.2346 55.8199 98.1462 55.8199ZM79.0473 62.3105H2.01953C0.931176 62.3105 0.0534668 61.684 0.0534668 60.9072V60.6315C0.0534668 59.8546 0.931176 59.2281 2.01953 59.2281H79.0473C80.1356 59.2281 81.0133 59.8546 81.0133 60.6315V60.9072C81.0133 61.684 80.1356 62.3105 79.0473 62.3105Z" fill="white"/>
<path opacity="0.42" d="M77.8306 74.4797H11.3809C9.84132 74.4797 8.59973 73.8659 8.59973 73.1048V72.712C8.59973 71.9508 9.84132 71.337 11.3809 71.337H77.781C79.3205 71.337 80.5621 71.9508 80.5621 72.712V73.0803C80.6118 73.8414 79.3702 74.4797 77.8306 74.4797Z" fill="white"/>
<rect x="0.0534668" y="70.4614" width="4.89404" height="4.89404" rx="2.44702" fill="#C8C8C8" fill-opacity="0.5"/>
<path opacity="0.42" d="M77.8306 82.0259H11.3809C9.84132 82.0259 8.59973 81.4121 8.59973 80.651V80.2581C8.59973 79.497 9.84132 78.8832 11.3809 78.8832H77.781C79.3205 78.8832 80.5621 79.497 80.5621 80.2581V80.6264C80.6118 81.3875 79.3702 82.0259 77.8306 82.0259Z" fill="white"/>
<rect x="0.0534668" y="78.0076" width="4.89404" height="4.89404" rx="2.44702" fill="#C8C8C8" fill-opacity="0.5"/>
<path opacity="0.42" d="M77.8306 89.5719H11.3809C9.84132 89.5719 8.59973 88.9581 8.59973 88.197V87.8041C8.59973 87.043 9.84132 86.4292 11.3809 86.4292H77.781C79.3205 86.4292 80.5621 87.043 80.5621 87.8041V88.1724C80.6118 88.9335 79.3702 89.5719 77.8306 89.5719Z" fill="white"/>
<rect x="0.0534668" y="85.5536" width="4.89404" height="4.89404" rx="2.44702" fill="#C8C8C8" fill-opacity="0.5"/>
</g>
<defs>
<clipPath id="clip0_394_497">
<rect width="209.48" height="108.86" fill="white" transform="translate(0 0.579956)"/>
</clipPath>
</defs>
</svg>
