<svg width="82" height="60" viewBox="0 0 82 60" fill="none" xmlns="http://www.w3.org/2000/svg">
<g clip-path="url(#clip0_637_760)">
<path d="M21.8349 1.83516V1.38204H24.9986V1.83516H23.6722V5.60022H23.1614V1.83516H21.8349ZM25.7869 5.60022V1.38204H26.2977V3.26045H28.5469V1.38204H29.0577V5.60022H28.5469V3.71357H26.2977V5.60022H25.7869ZM30.0803 5.60022V1.38204H32.626V1.83516H30.5911V3.26045H32.4942V3.71357H30.5911V5.14709H32.659V5.60022H30.0803ZM33.5467 1.38204H34.1563L35.5899 4.88346H35.6393L37.0728 1.38204H37.6825V5.60022H37.2046V2.39539H37.1634L35.8453 5.60022H35.3839L34.0657 2.39539H34.0245V5.60022H33.5467V1.38204ZM38.7066 5.60022V1.38204H41.2524V1.83516H39.2174V3.26045H41.1206V3.71357H39.2174V5.14709H41.2853V5.60022H38.7066ZM47.1986 2.70022H46.6878C46.6576 2.5533 46.6048 2.42423 46.5292 2.313C46.4551 2.20178 46.3645 2.10841 46.2574 2.03289C46.1516 1.956 46.0342 1.89833 45.9052 1.85988C45.7761 1.82143 45.6415 1.80221 45.5015 1.80221C45.2461 1.80221 45.0147 1.86674 44.8074 1.99582C44.6014 2.12489 44.4373 2.31506 44.3151 2.56634C44.1943 2.81762 44.1338 3.12588 44.1338 3.49113C44.1338 3.85637 44.1943 4.16464 44.3151 4.41592C44.4373 4.66719 44.6014 4.85737 44.8074 4.98644C45.0147 5.11551 45.2461 5.18005 45.5015 5.18005C45.6415 5.18005 45.7761 5.16083 45.9052 5.12238C46.0342 5.08393 46.1516 5.02695 46.2574 4.95143C46.3645 4.87453 46.4551 4.78048 46.5292 4.66925C46.6048 4.55666 46.6576 4.42759 46.6878 4.28204H47.1986C47.1602 4.49762 47.0901 4.69054 46.9885 4.8608C46.8869 5.03107 46.7606 5.17593 46.6096 5.29539C46.4585 5.41348 46.2889 5.50342 46.1008 5.56521C45.9141 5.627 45.7143 5.65789 45.5015 5.65789C45.1417 5.65789 44.8218 5.57001 44.5417 5.39425C44.2615 5.2185 44.0412 4.96859 43.8805 4.64454C43.7199 4.32048 43.6395 3.93602 43.6395 3.49113C43.6395 3.04624 43.7199 2.66177 43.8805 2.33772C44.0412 2.01367 44.2615 1.76376 44.5417 1.588C44.8218 1.41225 45.1417 1.32437 45.5015 1.32437C45.7143 1.32437 45.9141 1.35526 46.1008 1.41705C46.2889 1.47884 46.4585 1.56947 46.6096 1.68893C46.7606 1.80701 46.8869 1.95119 46.9885 2.12146C47.0901 2.29035 47.1602 2.48327 47.1986 2.70022ZM48.024 5.60022V1.38204H49.4493C49.7789 1.38204 50.0494 1.43833 50.2608 1.55093C50.4723 1.66215 50.6288 1.81525 50.7304 2.01023C50.832 2.20521 50.8828 2.42697 50.8828 2.6755C50.8828 2.92404 50.832 3.14442 50.7304 3.33665C50.6288 3.52889 50.473 3.67993 50.2629 3.78978C50.0528 3.89825 49.7844 3.95249 49.4576 3.95249H48.3041V3.49113H49.4411C49.6663 3.49113 49.8475 3.45817 49.9848 3.39226C50.1235 3.32636 50.2237 3.23298 50.2855 3.11215C50.3487 2.98994 50.3803 2.8444 50.3803 2.6755C50.3803 2.50661 50.3487 2.359 50.2855 2.23268C50.2224 2.10635 50.1214 2.00886 49.9828 1.94021C49.8441 1.87018 49.6608 1.83516 49.4328 1.83516H48.5348V5.60022H48.024ZM50.0095 3.70533L51.0476 5.60022H50.4544L49.4328 3.70533H50.0095ZM51.734 5.60022V1.38204H54.2797V1.83516H52.2448V3.26045H54.1479V3.71357H52.2448V5.14709H54.3127V5.60022H51.734ZM57.5072 2.43658C57.4825 2.22787 57.3823 2.06584 57.2065 1.9505C57.0307 1.83516 56.8152 1.77749 56.5598 1.77749C56.373 1.77749 56.2096 1.8077 56.0696 1.86812C55.9309 1.92853 55.8224 2.01161 55.7441 2.11734C55.6673 2.22307 55.6288 2.34321 55.6288 2.47778C55.6288 2.59037 55.6556 2.68717 55.7091 2.76819C55.7641 2.84783 55.8341 2.91442 55.9192 2.96798C56.0044 3.02015 56.0936 3.06341 56.187 3.09773C56.2803 3.13069 56.3662 3.15746 56.4444 3.17806L56.8728 3.2934C56.9827 3.32224 57.1049 3.36206 57.2395 3.41286C57.3754 3.46367 57.5052 3.53301 57.6287 3.62089C57.7537 3.70739 57.8567 3.81861 57.9377 3.95455C58.0187 4.09049 58.0592 4.25732 58.0592 4.45505C58.0592 4.68298 57.9995 4.88895 57.88 5.07295C57.7619 5.25694 57.5889 5.40318 57.361 5.51165C57.1344 5.62013 56.8591 5.67437 56.5351 5.67437C56.233 5.67437 55.9714 5.62562 55.7503 5.52813C55.5306 5.43064 55.3576 5.2947 55.2313 5.12032C55.1063 4.94593 55.0356 4.7434 55.0191 4.51272H55.5464C55.5602 4.672 55.6137 4.80382 55.7071 4.90817C55.8018 5.01116 55.9213 5.08805 56.0655 5.13886C56.211 5.18829 56.3675 5.213 56.5351 5.213C56.73 5.213 56.9051 5.18142 57.0603 5.11826C57.2154 5.05372 57.3383 4.96447 57.4289 4.8505C57.5196 4.73516 57.5649 4.6006 57.5649 4.44681C57.5649 4.30675 57.5258 4.19279 57.4475 4.10491C57.3692 4.01703 57.2662 3.94563 57.1385 3.8907C57.0108 3.83578 56.8728 3.78772 56.7245 3.74653L56.2055 3.59823C55.876 3.50349 55.6151 3.36824 55.4228 3.19248C55.2306 3.01672 55.1345 2.78673 55.1345 2.50249C55.1345 2.26632 55.1983 2.06035 55.326 1.88459C55.4551 1.70746 55.6281 1.57015 55.8451 1.47266C56.0634 1.3738 56.3071 1.32437 56.5762 1.32437C56.8481 1.32437 57.0898 1.37311 57.3012 1.4706C57.5127 1.56672 57.6802 1.69854 57.8038 1.86606C57.9288 2.03358 57.9947 2.22375 58.0015 2.43658H57.5072ZM58.6683 1.83516V1.38204H61.832V1.83516H60.5056V5.60022H59.9948V1.83516H58.6683Z" fill="white"/>
<path d="M1.99585 47.8682L4.67834 45.5447L4.67834 50.1917L1.99585 47.8682Z" fill="#D9D9D9"/>
<path d="M59.8502 47.868L57.5192 50.0846V45.6515L59.8502 47.868Z" fill="#D9D9D9"/>
<path d="M78.2813 18.5612H67.7255V24.5822H78.2813V18.5612Z" fill="white"/>
<path fill-rule="evenodd" clip-rule="evenodd" d="M78.2813 18.5612V24.5822H67.7255V18.5612H78.2813ZM67.7255 19.1633H68.6851V23.9801H77.3217V19.1633H67.7255Z" fill="white"/>
<path opacity="0.42" d="M70.7229 23.6265H75.2666C75.426 23.6265 75.5555 23.4704 75.5555 23.2901C75.5555 23.194 75.5256 23.1099 75.4758 23.0498L74.3399 21.6802C74.2303 21.548 74.0509 21.548 73.9413 21.6802L73.5727 22.1247L72.636 20.9954C72.5264 20.8632 72.3471 20.8632 72.2375 20.9954L70.5336 23.0498C70.424 23.182 70.424 23.3983 70.5336 23.5304C70.5834 23.5905 70.6532 23.6265 70.7229 23.6265Z" fill="black"/>
<path opacity="0.42" d="M74.4194 20.8865C74.7331 20.8865 74.9873 20.5799 74.9873 20.2017C74.9873 19.8235 74.7331 19.5168 74.4194 19.5168C74.1057 19.5168 73.8514 19.8235 73.8514 20.2017C73.8514 20.5799 74.1057 20.8865 74.4194 20.8865Z" fill="black"/>
<path d="M71.8542 40.9032H65.8223V46.9242H71.8542V40.9032Z" fill="white"/>
<path fill-rule="evenodd" clip-rule="evenodd" d="M71.8542 40.9032V46.9242H65.8223V40.9032H71.8542ZM65.8223 41.5053H66.3706V46.3221H71.3059V41.5053H65.8223Z" fill="white"/>
<path opacity="0.42" d="M66.5258 46.0222H71.1332C71.2949 46.0222 71.4262 45.8638 71.4262 45.681C71.4262 45.5836 71.3959 45.4983 71.3454 45.4374L70.1935 44.0485C70.0824 43.9145 69.9005 43.9145 69.7894 44.0485L69.4155 44.4993L68.4658 43.3541C68.3546 43.22 68.1728 43.22 68.0616 43.3541L66.3338 45.4374C66.2227 45.5714 66.2227 45.7907 66.3338 45.9247C66.3844 45.9856 66.4551 46.0222 66.5258 46.0222Z" fill="black"/>
<path opacity="0.42" d="M70.2743 43.2441C70.5924 43.2441 70.8502 42.9332 70.8502 42.5497C70.8502 42.1661 70.5924 41.8552 70.2743 41.8552C69.9562 41.8552 69.6984 42.1661 69.6984 42.5497C69.6984 42.9332 69.9562 43.2441 70.2743 43.2441Z" fill="black"/>
<path d="M80.5288 40.9032H74.4968V46.9242H80.5288V40.9032Z" fill="white"/>
<path fill-rule="evenodd" clip-rule="evenodd" d="M80.5288 40.9032V46.9242H74.4968V40.9032H80.5288ZM74.4968 41.5053H75.0452V46.3221H79.9804V41.5053H74.4968Z" fill="white"/>
<path opacity="0.42" d="M75.2323 45.9688H79.776C79.9354 45.9688 80.0649 45.8126 80.0649 45.6324C80.0649 45.5363 80.035 45.4522 79.9852 45.3921L78.8493 44.0225C78.7397 43.8903 78.5603 43.8903 78.4507 44.0225L78.0821 44.467L77.1454 43.3376C77.0358 43.2055 76.8565 43.2055 76.7469 43.3376L75.043 45.3921C74.9334 45.5243 74.9334 45.7405 75.043 45.8727C75.0928 45.9328 75.1626 45.9688 75.2323 45.9688Z" fill="black"/>
<path opacity="0.42" d="M78.929 43.2289C79.2427 43.2289 79.497 42.9223 79.497 42.5441C79.497 42.1659 79.2427 41.8593 78.929 41.8593C78.6154 41.8593 78.3611 42.1659 78.3611 42.5441C78.3611 42.9223 78.6154 43.2289 78.929 43.2289Z" fill="black"/>
<path d="M27.1453 19.5847L53.9247 19.5846C54.4716 19.5846 54.9149 20.0279 54.9149 20.5748V20.5748C54.9149 21.1217 54.4716 21.5651 53.9247 21.5651H27.1453M27.1453 23.5455H51.0151C51.5619 23.5455 52.0053 23.9888 52.0053 24.5357V24.5357C52.0053 25.0825 51.5619 25.5259 51.0151 25.5259H27.1453M27.1453 27.5063H60.3376C60.8844 27.5063 61.3278 27.9496 61.3278 28.4965V28.4965C61.3278 29.0433 60.8844 29.4867 60.3376 29.4867H27.1453" fill="black"/>
<path d="M27.1453 19.5846H54.2645C54.8113 19.5846 55.2547 20.0279 55.2547 20.5748V20.5748C55.2547 21.1217 54.8113 21.565 54.2645 21.565H27.1453M27.1453 23.5454H51.0151C51.5619 23.5454 52.0053 23.9887 52.0053 24.5356V24.5356C52.0053 25.0825 51.5619 25.5258 51.0151 25.5258H27.1453M27.1453 27.5062H60.3376C60.8844 27.5062 61.3278 27.9495 61.3278 28.4964V28.4964C61.3278 29.0433 60.8844 29.4866 60.3376 29.4866H27.1453" fill="white" fill-opacity="0.348"/>
<path d="M49.8008 13.6433H28.1355C27.5886 13.6433 27.1453 14.0866 27.1453 14.6335C27.1453 15.1804 27.5886 15.6237 28.1355 15.6237H49.8008C50.3476 15.6237 50.791 15.1804 50.791 14.6335C50.791 14.0866 50.3476 13.6433 49.8008 13.6433Z" fill="white" fill-opacity="0.78"/>
<path d="M77.2254 7.93689H69.021C68.5498 7.93689 68.1678 8.31886 68.1678 8.79004C68.1678 9.26122 68.5498 9.64318 69.021 9.64318H77.2254C77.6966 9.64318 78.0785 9.26122 78.0785 8.79004C78.0785 8.31886 77.6966 7.93689 77.2254 7.93689Z" fill="white" fill-opacity="0.78"/>
<path d="M79.8097 10.9048H66.437C66.0399 10.9048 65.718 11.2267 65.718 11.6238C65.718 12.0209 66.0399 12.3428 66.437 12.3428H79.8097C80.2068 12.3428 80.5287 12.0209 80.5287 11.6238C80.5287 11.2267 80.2068 10.9048 79.8097 10.9048Z" fill="white" fill-opacity="0.35"/>
<path d="M77.2254 30.4451H69.021C68.5498 30.4451 68.1678 30.827 68.1678 31.2982C68.1678 31.7694 68.5498 32.1514 69.021 32.1514H77.2254C77.6966 32.1514 78.0785 31.7694 78.0785 31.2982C78.0785 30.827 77.6966 30.4451 77.2254 30.4451Z" fill="white" fill-opacity="0.78"/>
<path d="M79.8097 33.413H66.437C66.0399 33.413 65.718 33.7349 65.718 34.132C65.718 34.5291 66.0399 34.851 66.437 34.851H79.8097C80.2068 34.851 80.5287 34.5291 80.5287 34.132C80.5287 33.7349 80.2068 33.413 79.8097 33.413Z" fill="white" fill-opacity="0.35"/>
<path d="M77.2254 53.8822H69.021C68.5498 53.8822 68.1678 54.2642 68.1678 54.7353C68.1678 55.2065 68.5498 55.5885 69.021 55.5885H77.2254C77.6966 55.5885 78.0785 55.2065 78.0785 54.7353C78.0785 54.2642 77.6966 53.8822 77.2254 53.8822Z" fill="white" fill-opacity="0.78"/>
<path d="M79.8097 56.8499H66.437C66.0399 56.8499 65.718 57.1718 65.718 57.5689C65.718 57.966 66.0399 58.2879 66.437 58.2879H79.8097C80.2068 58.2879 80.5287 57.966 80.5287 57.5689C80.5287 57.1718 80.2068 56.8499 79.8097 56.8499Z" fill="white" fill-opacity="0.35"/>
<rect x="64.2466" y="27.5071" width="17.7533" height="10.586" stroke="#DCDCDC" stroke-opacity="0.44" stroke-width="0.5"/>
<rect x="64.2466" y="5.60022" width="17.7533" height="10.586" stroke="#DCDCDC" stroke-opacity="0.44" stroke-width="0.5"/>
<rect x="64.2466" y="38.4607" width="17.7533" height="10.586" stroke="#DCDCDC" stroke-opacity="0.44" stroke-width="0.5"/>
<rect x="64.2466" y="16.5538" width="17.7533" height="10.586" stroke="#DCDCDC" stroke-opacity="0.44" stroke-width="0.5"/>
<rect x="64.2466" y="49.4138" width="17.7533" height="10.586" stroke="#DCDCDC" stroke-opacity="0.44" stroke-width="0.5"/>
<path d="M22.7078 34.1515H1.71899C0.773544 34.1515 0 33.0058 0 31.6054V12.8916C0 11.4912 0.773544 10.3455 1.71899 10.3455H22.7078C23.6533 10.3455 24.4268 11.4912 24.4268 12.8916V31.6054C24.4268 33.0058 23.6533 34.1515 22.7078 34.1515Z" fill="white" fill-opacity="0.62"/>
<path opacity="0.42" d="M3.06072 31.0853H20.8801C21.5054 31.0853 22.0134 30.4579 22.0134 29.7341C22.0134 29.348 21.8962 29.0102 21.7008 28.7689L17.2459 23.2676C16.8161 22.7367 16.1127 22.7367 15.6828 23.2676L14.2369 25.0531L10.5636 20.5169C10.1338 19.9861 9.43038 19.9861 9.00052 20.5169L2.31824 28.7689C1.88839 29.2997 1.88839 30.1684 2.31824 30.6992C2.51363 30.9405 2.78717 31.0853 3.06072 31.0853Z" fill="#020202" fill-opacity="0.68"/>
<path opacity="0.42" d="M17.5584 20.0808C18.7885 20.0808 19.7858 18.8493 19.7858 17.3301C19.7858 15.811 18.7885 14.5795 17.5584 14.5795C16.3282 14.5795 15.3309 15.811 15.3309 17.3301C15.3309 18.8493 16.3282 20.0808 17.5584 20.0808Z" fill="#020202" fill-opacity="0.68"/>
<rect x="7.34192" y="39.6578" width="12.7683" height="18.1152" rx="0.5" fill="#C8C8C8" fill-opacity="0.24"/>
<path opacity="0.42" d="M13.6772 45.4975C14.7137 45.4975 15.554 44.6329 15.554 43.5664C15.554 42.4998 14.7137 41.6353 13.6772 41.6353C12.6406 41.6353 11.8003 42.4998 11.8003 43.5664C11.8003 44.6329 12.6406 45.4975 13.6772 45.4975Z" fill="white"/>
<rect width="10.8181" height="0.777557" rx="0.388779" transform="matrix(1 0 0 -1 8.31702 51.0361)" fill="#C9C9C9" fill-opacity="0.5"/>
<rect width="9.42212" height="0.777557" rx="0.388779" transform="matrix(1 0 0 -1 9.03564 52.1602)" fill="#C9C9C9" fill-opacity="0.5"/>
<rect width="7.26272" height="0.777557" rx="0.388779" transform="matrix(1 0 0 -1 10.0568 49.9121)" fill="#C9C9C9" fill-opacity="0.5"/>
<rect width="8.01394" height="0.777557" rx="0.388779" transform="matrix(1 0 0 -1 9.76038 53.2842)" fill="#C9C9C9" fill-opacity="0.5"/>
<path opacity="0.42" d="M17.7624 47.6375H9.59723C9.40806 47.6375 9.25549 47.4586 9.25549 47.2366V47.1221C9.25549 46.9002 9.40806 46.7212 9.59723 46.7212H17.7563C17.9455 46.7212 18.098 46.9002 18.098 47.1221V47.2295C18.1041 47.4514 17.9516 47.6375 17.7624 47.6375Z" fill="#D9D9D9"/>
<path opacity="0.42" d="M16.3992 55.7955H10.9588C10.8327 55.7955 10.7311 55.5974 10.7311 55.3517V55.2249C10.7311 54.9792 10.8327 54.7811 10.9588 54.7811H16.3951C16.5212 54.7811 16.6228 54.9792 16.6228 55.2249V55.3438C16.6269 55.5895 16.5252 55.7955 16.3992 55.7955Z" fill="#D9D9D9"/>
<rect x="24.9604" y="39.6578" width="12.7683" height="18.1152" rx="0.5" fill="#C8C8C8" fill-opacity="0.24"/>
<path opacity="0.42" d="M31.2954 45.4975C32.332 45.4975 33.1723 44.6329 33.1723 43.5664C33.1723 42.4998 32.332 41.6353 31.2954 41.6353C30.2589 41.6353 29.4186 42.4998 29.4186 43.5664C29.4186 44.6329 30.2589 45.4975 31.2954 45.4975Z" fill="white"/>
<rect width="10.8181" height="0.777557" rx="0.388779" transform="matrix(1 0 0 -1 25.9352 51.0361)" fill="#C9C9C9" fill-opacity="0.5"/>
<rect width="9.42212" height="0.777557" rx="0.388779" transform="matrix(1 0 0 -1 26.6541 52.1602)" fill="#C9C9C9" fill-opacity="0.5"/>
<rect width="7.26272" height="0.777557" rx="0.388779" transform="matrix(1 0 0 -1 27.6752 49.9121)" fill="#C9C9C9" fill-opacity="0.5"/>
<rect width="8.01394" height="0.777557" rx="0.388779" transform="matrix(1 0 0 -1 27.3788 53.2842)" fill="#C9C9C9" fill-opacity="0.5"/>
<path opacity="0.42" d="M35.3809 47.6375H27.2158C27.0266 47.6375 26.874 47.4586 26.874 47.2366V47.1221C26.874 46.9002 27.0266 46.7212 27.2158 46.7212H35.3748C35.564 46.7212 35.7165 46.9002 35.7165 47.1221V47.2295C35.7226 47.4514 35.5701 47.6375 35.3809 47.6375Z" fill="#D9D9D9"/>
<path opacity="0.42" d="M34.0175 55.7955H28.5771C28.451 55.7955 28.3494 55.5974 28.3494 55.3517V55.2249C28.3494 54.9792 28.451 54.7811 28.5771 54.7811H34.0134C34.1395 54.7811 34.2411 54.9792 34.2411 55.2249V55.3438C34.2452 55.5895 34.1435 55.7955 34.0175 55.7955Z" fill="#D9D9D9"/>
<rect x="42.5789" y="39.6578" width="12.7683" height="18.1152" rx="0.5" fill="#C8C8C8" fill-opacity="0.24"/>
<path opacity="0.42" d="M48.9138 45.4975C49.9504 45.4975 50.7907 44.6329 50.7907 43.5664C50.7907 42.4998 49.9504 41.6353 48.9138 41.6353C47.8773 41.6353 47.037 42.4998 47.037 43.5664C47.037 44.6329 47.8773 45.4975 48.9138 45.4975Z" fill="white"/>
<rect width="10.8181" height="0.777557" rx="0.388779" transform="matrix(1 0 0 -1 43.5538 51.0361)" fill="#C9C9C9" fill-opacity="0.5"/>
<rect width="9.42212" height="0.777557" rx="0.388779" transform="matrix(1 0 0 -1 44.2725 52.1602)" fill="#C9C9C9" fill-opacity="0.5"/>
<rect width="7.26272" height="0.777557" rx="0.388779" transform="matrix(1 0 0 -1 45.2935 49.9121)" fill="#C9C9C9" fill-opacity="0.5"/>
<rect width="8.01394" height="0.777557" rx="0.388779" transform="matrix(1 0 0 -1 44.9973 53.2842)" fill="#C9C9C9" fill-opacity="0.5"/>
<path opacity="0.42" d="M52.9992 47.6375H44.834C44.6449 47.6375 44.4923 47.4586 44.4923 47.2366V47.1221C44.4923 46.9002 44.6449 46.7212 44.834 46.7212H52.9931C53.1823 46.7212 53.3348 46.9002 53.3348 47.1221V47.2295C53.3409 47.4514 53.1884 47.6375 52.9992 47.6375Z" fill="#D9D9D9"/>
<path opacity="0.42" d="M51.6359 55.7955H46.1955C46.0694 55.7955 45.9678 55.5974 45.9678 55.3517V55.2249C45.9678 54.9792 46.0694 54.7811 46.1955 54.7811H51.6318C51.7579 54.7811 51.8595 54.9792 51.8595 55.2249V55.3438C51.8636 55.5895 51.7619 55.7955 51.6359 55.7955Z" fill="#D9D9D9"/>
<g clip-path="url(#clip1_637_760)">
<path d="M56.6891 18.8041C56.5381 18.8941 56.4181 19.028 56.3452 19.1879C56.2054 19.0712 56.0329 19.0007 55.8514 18.9862C55.6699 18.9717 55.4884 19.0139 55.3319 19.107C55.1809 19.1969 55.0609 19.3308 54.9879 19.4908C54.8482 19.374 54.6757 19.3036 54.4942 19.2891C54.3127 19.2746 54.1311 19.3167 53.9746 19.4098C53.8421 19.4902 53.7338 19.605 53.6612 19.7419L52.5781 17.9404C52.5109 17.8283 52.4195 17.7327 52.3107 17.6604C52.2018 17.5881 52.0783 17.5409 51.9489 17.5224C51.8196 17.5038 51.6877 17.5143 51.563 17.5531C51.4382 17.5919 51.3236 17.658 51.2276 17.7466C51.0778 17.8897 50.9821 18.0802 50.9566 18.2858C50.9311 18.4914 50.9773 18.6995 51.0875 18.8749L53.7147 23.245L52.8438 22.9656C52.5751 22.8804 52.2841 22.9016 52.0306 23.0249C51.7772 23.1481 51.5808 23.3639 51.4819 23.6278L51.4134 23.8126C51.356 23.9603 51.3552 24.124 51.4111 24.2722C51.4671 24.4204 51.5759 24.5427 51.7165 24.6156L54.363 25.975C54.9047 26.2918 55.5198 26.4613 56.1473 26.4666C56.7748 26.472 57.3927 26.313 57.9397 26.0055C58.7394 25.5247 59.3153 24.746 59.5409 23.8406C59.7664 22.9352 59.623 21.9774 59.1423 21.1777L57.8961 19.1048C57.7759 18.9048 57.5812 18.7609 57.3549 18.7045C57.1285 18.6481 56.8891 18.6839 56.6891 18.8041ZM58.7654 21.4043C59.186 22.104 59.3115 22.9421 59.1141 23.7343C58.9168 24.5266 58.4129 25.2079 57.7132 25.6286C57.2315 25.8966 56.6881 26.0339 56.1369 26.0267C55.5858 26.0196 55.0461 25.8683 54.5716 25.5879L51.9221 24.2149C51.8787 24.1918 51.845 24.1539 51.8273 24.108C51.8096 24.062 51.809 24.0113 51.8257 23.965L51.8942 23.7802C51.9538 23.6223 52.0717 23.4932 52.2235 23.4196C52.3754 23.3459 52.5497 23.3333 52.7106 23.3843L54.1379 23.8424C54.1805 23.8558 54.2261 23.856 54.2688 23.843C54.3115 23.8299 54.3492 23.8041 54.3768 23.7691C54.4045 23.7341 54.4209 23.6915 54.4238 23.6469C54.4266 23.6024 54.4159 23.558 54.3929 23.5197L51.4644 18.6484C51.4052 18.5595 51.3782 18.453 51.3881 18.3467C51.398 18.2403 51.444 18.1406 51.5186 18.0642C51.5724 18.0143 51.6379 17.9787 51.709 17.9606C51.7801 17.9425 51.8546 17.9425 51.9258 17.9605C51.9832 17.9746 52.0372 18.0002 52.0845 18.0357C52.1319 18.0711 52.1716 18.1158 52.2012 18.1669L54.467 21.9359C54.4971 21.9859 54.5457 22.0219 54.6023 22.036C54.6589 22.0501 54.7188 22.0411 54.7687 22.011C54.8187 21.981 54.8547 21.9323 54.8688 21.8757C54.8829 21.8192 54.8739 21.7593 54.8439 21.7093L54.0509 20.3902C53.9908 20.2902 53.9729 20.1705 54.0011 20.0573C54.0292 19.9441 54.1012 19.8468 54.2012 19.7867C54.3012 19.7266 54.4209 19.7087 54.5341 19.7369C54.6472 19.7651 54.7446 19.8371 54.8047 19.937L55.5977 21.2562C55.6277 21.3061 55.6764 21.3421 55.733 21.3562C55.7896 21.3703 55.8494 21.3614 55.8994 21.3313C55.9494 21.3013 55.9854 21.2526 55.9995 21.196C56.0136 21.1394 56.0046 21.0796 55.9746 21.0296L55.4081 20.0873C55.348 19.9874 55.3301 19.8676 55.3583 19.7545C55.3865 19.6413 55.4585 19.544 55.5585 19.4839C55.6584 19.4238 55.7782 19.4058 55.8913 19.434C56.0045 19.4622 56.1018 19.5342 56.1619 19.6342L56.7284 20.5764C56.7584 20.6264 56.8071 20.6624 56.8637 20.6765C56.9203 20.6906 56.9801 20.6816 57.0301 20.6516C57.0801 20.6215 57.1161 20.5729 57.1302 20.5163C57.1443 20.4597 57.1353 20.3998 57.1053 20.3498L56.7654 19.7845C56.7053 19.6845 56.6874 19.5648 56.7156 19.4516C56.7438 19.3385 56.8158 19.2411 56.9157 19.181C57.0157 19.1209 57.1354 19.103 57.2486 19.1312C57.3618 19.1594 57.4591 19.2314 57.5192 19.3313L58.7654 21.4043ZM51.2579 17.4513C51.3079 17.4212 51.3439 17.3726 51.358 17.316C51.3721 17.2594 51.3631 17.1995 51.333 17.1495L50.9932 16.5842C50.9631 16.5342 50.9145 16.4982 50.8579 16.4841C50.8013 16.47 50.7414 16.479 50.6914 16.509C50.6415 16.5391 50.6055 16.5877 50.5914 16.6443C50.5773 16.7009 50.5862 16.7608 50.6163 16.8108L50.9561 17.3761C50.9862 17.4261 51.0349 17.4621 51.0915 17.4762C51.148 17.4903 51.2079 17.4813 51.2579 17.4513Z" fill="white"/>
<path d="M52.8418 17.5253C52.8719 17.5753 52.9205 17.6113 52.9771 17.6254C53.0337 17.6395 53.0936 17.6305 53.1436 17.6005L53.7089 17.2606C53.7589 17.2306 53.7949 17.1819 53.809 17.1253C53.8231 17.0687 53.8141 17.0089 53.7841 16.9589C53.754 16.9089 53.7053 16.8729 53.6488 16.8588C53.5922 16.8447 53.5323 16.8537 53.4823 16.8837L52.917 17.2236C52.867 17.2536 52.831 17.3023 52.8169 17.3589C52.8028 17.4155 52.8118 17.4754 52.8418 17.5253ZM49.9399 19.5264L50.5053 19.1865C50.5553 19.1565 50.5913 19.1078 50.6054 19.0512C50.6195 18.9947 50.6105 18.9348 50.5805 18.8848C50.5504 18.8348 50.5017 18.7988 50.4451 18.7847C50.3886 18.7706 50.3287 18.7796 50.2787 18.8096L49.7134 19.1495C49.6634 19.1796 49.6274 19.2282 49.6133 19.2848C49.5992 19.3414 49.6082 19.4013 49.6382 19.4513C49.6683 19.5012 49.7169 19.5372 49.7735 19.5513C49.8301 19.5654 49.89 19.5565 49.9399 19.5264ZM50.2624 18.232C50.2905 18.2391 50.3198 18.2406 50.3485 18.2363C50.3772 18.2321 50.4048 18.2222 50.4297 18.2073C50.4546 18.1923 50.4762 18.1726 50.4934 18.1492C50.5107 18.1258 50.5231 18.0993 50.53 18.0711C50.5371 18.043 50.5386 18.0137 50.5344 17.985C50.5301 17.9563 50.5202 17.9287 50.5053 17.9038C50.4903 17.8789 50.4706 17.8572 50.4472 17.84C50.4238 17.8228 50.3973 17.8104 50.3691 17.8035L49.7656 17.6532C49.7375 17.6462 49.7083 17.6448 49.6796 17.6491C49.6509 17.6534 49.6234 17.6633 49.5985 17.6782C49.5483 17.7084 49.5122 17.7572 49.498 17.814C49.4839 17.8709 49.4929 17.931 49.5231 17.9812C49.5532 18.0313 49.6021 18.0675 49.6589 18.0816L50.2624 18.232ZM52.3135 17.0733C52.3384 17.0585 52.3601 17.039 52.3774 17.0158C52.3948 16.9926 52.4073 16.9663 52.4145 16.9382L52.5648 16.3347C52.5718 16.3066 52.5732 16.2774 52.5689 16.2487C52.5646 16.22 52.5547 16.1925 52.5398 16.1676C52.5248 16.1428 52.5051 16.1211 52.4818 16.1039C52.4585 16.0866 52.432 16.0741 52.4039 16.0671C52.3758 16.0601 52.3465 16.0587 52.3179 16.063C52.2892 16.0673 52.2616 16.0772 52.2368 16.0921C52.2119 16.1071 52.1903 16.1268 52.173 16.1501C52.1558 16.1734 52.1433 16.1999 52.1363 16.228L51.986 16.8315C51.9789 16.8596 51.9774 16.8889 51.9816 16.9176C51.9858 16.9463 51.9957 16.9739 52.0107 16.9988C52.0256 17.0237 52.0454 17.0453 52.0687 17.0625C52.0921 17.0798 52.1187 17.0922 52.1469 17.0991C52.175 17.106 52.2042 17.1072 52.2328 17.1028C52.2614 17.0984 52.2888 17.0883 52.3135 17.0733Z" fill="white"/>
</g>
</g>
<defs>
<clipPath id="clip0_637_760">
<rect width="82" height="60" fill="white"/>
</clipPath>
<clipPath id="clip1_637_760">
<rect width="13.6325" height="13.6325" fill="white" transform="translate(44.9618 18.9274) rotate(-31.013)"/>
</clipPath>
</defs>
</svg>
