<svg width="210" height="110" viewBox="0 0 210 110" fill="none" xmlns="http://www.w3.org/2000/svg">
<g clip-path="url(#clip0_495_112)">
<path opacity="0.2" d="M204.041 103.958H119.949C117.147 103.958 114.885 101.696 114.885 98.8943V11.1255C114.885 8.32363 117.147 6.06189 119.949 6.06189H204.041C206.843 6.06189 209.105 8.32363 209.105 11.1255V98.8943C209.105 101.696 206.843 103.958 204.041 103.958Z" fill="white"/>
<path opacity="0.42" d="M137.672 73.9478H186.25C187.938 73.9478 189.289 72.5638 189.289 70.8084C189.289 69.9645 188.985 69.1543 188.377 68.5466L176.224 55.9214C175.043 54.7062 173.118 54.7062 171.937 55.9214L167.987 60.0398L157.995 49.6763C156.813 48.4611 154.889 48.4611 153.707 49.6763L135.478 68.6142C134.296 69.8632 134.33 71.8549 135.512 73.0701C136.153 73.6102 136.896 73.9141 137.672 73.9478Z" fill="white"/>
<path opacity="0.42" d="M177.136 48.6974C180.492 48.6974 183.212 45.8711 183.212 42.3848C183.212 38.8984 180.492 36.0721 177.136 36.0721C173.78 36.0721 171.059 38.8984 171.059 42.3848C171.059 45.8711 173.78 48.6974 177.136 48.6974Z" fill="white"/>
<g opacity="0.2">
<path d="M93.0554 29.1959H2.01487C0.984101 29.1959 0.152832 28.5512 0.152832 27.7518V27.4681C0.152832 26.6687 0.984101 26.024 2.01487 26.024H93.0222C94.053 26.024 94.8842 26.6687 94.8842 27.4681V27.7518C94.9175 28.5512 94.0862 29.1959 93.0554 29.1959ZM93.0554 35.8748H2.01487C0.984101 35.8748 0.152832 35.2301 0.152832 34.4307V34.147C0.152832 33.3476 0.984101 32.703 2.01487 32.703H93.0222C94.053 32.703 94.8842 33.3476 94.8842 34.147V34.4307C94.9175 35.2301 94.0862 35.8748 93.0554 35.8748ZM74.967 42.5537H2.01487C0.984101 42.5537 0.152832 41.909 0.152832 41.1096V40.826C0.152832 40.0266 0.984101 39.3819 2.01487 39.3819H74.967C75.9978 39.3819 76.8291 40.0266 76.8291 40.826V41.1096C76.8291 41.909 75.9978 42.5537 74.967 42.5537Z" fill="#FDFDFD"/>
<path d="M94.3842 27.7518V27.7622L94.3847 27.7726C94.3932 27.9792 94.294 28.1967 94.06 28.3804C93.8242 28.5655 93.4703 28.6959 93.0554 28.6959H2.01487C1.13455 28.6959 0.652832 28.1643 0.652832 27.7518V27.4681C0.652832 27.0557 1.13455 26.524 2.01487 26.524H93.0222C93.9025 26.524 94.3842 27.0557 94.3842 27.4681V27.7518ZM94.3842 34.4307V34.4411L94.3847 34.4515C94.3932 34.6581 94.294 34.8756 94.06 35.0593C93.8242 35.2444 93.4703 35.3748 93.0554 35.3748H2.01487C1.13455 35.3748 0.652832 34.8432 0.652832 34.4307V34.147C0.652832 33.7346 1.13455 33.203 2.01487 33.203H93.0222C93.9025 33.203 94.3842 33.7346 94.3842 34.147V34.4307ZM74.967 42.0537H2.01487C1.13455 42.0537 0.652832 41.5221 0.652832 41.1096V40.826C0.652832 40.4135 1.13455 39.8819 2.01487 39.8819H74.967C75.8473 39.8819 76.3291 40.4135 76.3291 40.826V41.1096C76.3291 41.5221 75.8473 42.0537 74.967 42.0537Z" stroke="white" stroke-opacity="0.8"/>
</g>
<rect x="-0.0913086" y="7.94055" width="92.8766" height="3.92519" rx="1.9626" fill="white" fill-opacity="0.37"/>
<rect x="-0.0913086" y="13.9124" width="73.4124" height="3.92519" rx="1.9626" fill="white" fill-opacity="0.37"/>
<rect x="0.152588" y="50.5538" width="39.3286" height="13.4991" rx="2" fill="#EAEAEA" fill-opacity="0.72"/>
<rect x="46.6265" y="50.5538" width="39.3286" height="13.4991" rx="2" fill="#EAEAEA" fill-opacity="0.72"/>
</g>
<defs>
<clipPath id="clip0_495_112">
<rect width="209.48" height="108.86" fill="white" transform="translate(0 0.579956)"/>
</clipPath>
</defs>
</svg>
