<svg width="211" height="109" viewBox="0 0 211 109" fill="none" xmlns="http://www.w3.org/2000/svg">
<g clip-path="url(#clip0_654_228)">
<rect x="0.644043" y="8.14728" width="209.815" height="93.1007" rx="2" fill="#D9D9D9" fill-opacity="0.2"/>
<path opacity="0.2" d="M185.561 87.7372H117.42C115.15 87.7372 113.317 86.1875 113.317 84.2676V24.1272C113.317 22.2074 115.15 20.6576 117.42 20.6576H185.561C187.831 20.6576 189.664 22.2074 189.664 24.1272V84.2676C189.664 86.1875 187.831 87.7372 185.561 87.7372Z" fill="white"/>
<path opacity="0.42" d="M127.767 70.9175H175.238C176.888 70.9175 178.208 69.565 178.208 67.8496C178.208 67.0249 177.911 66.2332 177.317 65.6394L165.441 53.302C164.286 52.1144 162.406 52.1144 161.251 53.302L157.391 57.3265L147.627 47.1992C146.472 46.0116 144.592 46.0116 143.437 47.1992L125.623 65.7054C124.468 66.926 124.501 68.8722 125.656 70.0598C126.283 70.5876 127.009 70.8845 127.767 70.9175Z" fill="white"/>
<path opacity="0.42" d="M166.332 46.2426C169.611 46.2426 172.27 43.4807 172.27 40.0738C172.27 36.6669 169.611 33.9051 166.332 33.9051C163.052 33.9051 160.394 36.6669 160.394 40.0738C160.394 43.4807 163.052 46.2426 166.332 46.2426Z" fill="white"/>
<circle cx="9.66943" cy="54.6976" r="5.06567" fill="#D9D9D9" fill-opacity="0.3"/>
<path d="M6.948 55.2716V54.0216L11.948 51.8199V53.2581L8.5247 54.6324L8.57087 54.5578V54.7354L8.5247 54.6608L11.948 56.0351V57.4733L6.948 55.2716Z" fill="white"/>
<rect x="38.4517" y="52.4113" width="40.3494" height="3.57222" rx="1.78611" fill="white" fill-opacity="0.64"/>
<rect x="27.9907" y="40.6249" width="61.271" height="3.57222" rx="1.78611" fill="white" fill-opacity="0.37"/>
<rect x="34.4111" y="46.0597" width="48.4304" height="3.57222" rx="1.78611" fill="white" fill-opacity="0.37"/>
<rect x="49.6482" y="60.3258" width="19.7268" height="6.07428" rx="1" stroke="#D9D9D9" stroke-opacity="0.47" stroke-width="0.5"/>
<circle cx="5.06567" cy="5.06567" r="5.06567" transform="matrix(-1 0 0 1 206.835 49.6684)" fill="#D9D9D9" fill-opacity="0.3"/>
<path d="M204.491 55.308V54.058L199.491 51.8563V53.2946L202.914 54.6688L202.868 54.5943V54.7718L202.914 54.6973L199.491 56.0715V57.5098L204.491 55.308Z" fill="white"/>
</g>
<defs>
<clipPath id="clip0_654_228">
<rect width="209.48" height="108.86" fill="white" transform="translate(0.979492)"/>
</clipPath>
</defs>
</svg>
