<svg width="210" height="109" viewBox="0 0 210 109" fill="none" xmlns="http://www.w3.org/2000/svg">
<g clip-path="url(#clip0_395_596)">
<path opacity="0.2" d="M35.2359 83.9497H3.05037C1.60057 83.9497 0.414368 82.7593 0.414368 81.3043V61.8609C0.414368 60.406 1.60057 59.2156 3.05037 59.2156H35.2359C36.6857 59.2156 37.8719 60.406 37.8719 61.8609V81.3043C37.8719 82.7593 36.6857 83.9497 35.2359 83.9497Z" fill="white"/>
<path opacity="0.42" d="M13.1199 76.1196H25.14C25.5618 76.1196 25.9044 75.7757 25.9044 75.3789C25.9044 75.1672 25.8254 74.982 25.6936 74.8498L22.6885 71.8341C22.3986 71.5431 21.9241 71.5431 21.6341 71.8341L20.6588 72.8129L18.181 70.3262C17.891 70.0352 17.4165 70.0352 17.1266 70.3262L12.619 74.8498C12.3291 75.1408 12.3291 75.6169 12.619 75.9079C12.7508 76.0402 12.9353 76.1196 13.1199 76.1196Z" fill="white"/>
<path opacity="0.42" d="M22.8994 70.0881C23.7292 70.0881 24.4019 69.413 24.4019 68.5802C24.4019 67.7475 23.7292 67.0724 22.8994 67.0724C22.0696 67.0724 21.3969 67.7475 21.3969 68.5802C21.3969 69.413 22.0696 70.0881 22.8994 70.0881Z" fill="white"/>
<path opacity="0.2" d="M78.0887 83.9497H45.9032C44.4534 83.9497 43.2672 82.7593 43.2672 81.3043V61.8609C43.2672 60.406 44.4534 59.2156 45.9032 59.2156H78.0887C79.5385 59.2156 80.7247 60.406 80.7247 61.8609V81.3043C80.7247 82.7593 79.5385 83.9497 78.0887 83.9497Z" fill="white"/>
<path opacity="0.42" d="M55.9727 76.1196H68.0192C68.441 76.1196 68.7837 75.7757 68.7837 75.3789C68.7837 75.1672 68.7046 74.982 68.5728 74.8498L65.5677 71.8341C65.2778 71.5431 64.8033 71.5431 64.5133 71.8341L63.538 72.8129L61.0602 70.3262C60.7702 70.0352 60.2957 70.0352 60.0058 70.3262L55.4982 74.8498C55.2083 75.1408 55.2083 75.6169 55.4982 75.9079C55.6037 76.0402 55.7882 76.1196 55.9727 76.1196Z" fill="white"/>
<path opacity="0.42" d="M65.7522 70.0881C66.5821 70.0881 67.2548 69.413 67.2548 68.5802C67.2548 67.7475 66.5821 67.0724 65.7522 67.0724C64.9224 67.0724 64.2497 67.7475 64.2497 68.5802C64.2497 69.413 64.9224 70.0881 65.7522 70.0881Z" fill="white"/>
<path opacity="0.2" d="M120.942 83.9497H88.756C87.3062 83.9497 86.12 82.7593 86.12 81.3043V61.8609C86.12 60.406 87.3062 59.2156 88.756 59.2156H120.942C122.391 59.2156 123.578 60.406 123.578 61.8609V81.3043C123.578 82.7593 122.391 83.9497 120.942 83.9497Z" fill="white"/>
<path opacity="0.42" d="M98.8255 76.1196H110.846C111.267 76.1196 111.61 75.7757 111.61 75.3789C111.61 75.1672 111.531 74.982 111.399 74.8498L108.394 71.8341C108.104 71.5431 107.63 71.5431 107.34 71.8341L106.364 72.8129L103.887 70.3262C103.597 70.0352 103.122 70.0352 102.832 70.3262L98.2983 74.8233C98.0084 75.1143 98.0084 75.5905 98.2983 75.8815C98.4565 76.0402 98.641 76.1196 98.8255 76.1196Z" fill="white"/>
<path opacity="0.42" d="M108.579 70.0881C109.409 70.0881 110.081 69.413 110.081 68.5802C110.081 67.7475 109.409 67.0724 108.579 67.0724C107.749 67.0724 107.076 67.7475 107.076 68.5802C107.076 69.413 107.749 70.0881 108.579 70.0881Z" fill="white"/>
<path opacity="0.2" d="M163.794 83.9497H131.609C130.159 83.9497 128.973 82.7593 128.973 81.3043V61.8609C128.973 60.406 130.159 59.2156 131.609 59.2156H163.794C165.244 59.2156 166.43 60.406 166.43 61.8609V81.3043C166.43 82.7593 165.244 83.9497 163.794 83.9497Z" fill="white"/>
<path opacity="0.42" d="M141.678 76.1196H153.698C154.12 76.1196 154.463 75.7757 154.463 75.3789C154.463 75.1672 154.384 74.982 154.252 74.8498L151.247 71.8341C150.957 71.5431 150.483 71.5431 150.193 71.8341L149.217 72.8129L146.739 70.3262C146.449 70.0352 145.975 70.0352 145.685 70.3262L141.177 74.8498C140.888 75.1408 140.888 75.6169 141.177 75.9079C141.309 76.0402 141.494 76.1196 141.678 76.1196Z" fill="white"/>
<path opacity="0.42" d="M151.458 70.0881C152.288 70.0881 152.96 69.413 152.96 68.5802C152.96 67.7475 152.288 67.0724 151.458 67.0724C150.628 67.0724 149.955 67.7475 149.955 68.5802C149.955 69.413 150.628 70.0881 151.458 70.0881Z" fill="white"/>
<path opacity="0.2" d="M206.647 83.9497H174.462C173.012 83.9497 171.826 82.7593 171.826 81.3043V61.8609C171.826 60.406 173.012 59.2156 174.462 59.2156H206.647C208.097 59.2156 209.283 60.406 209.283 61.8609V81.3043C209.283 82.7593 208.097 83.9497 206.647 83.9497Z" fill="white"/>
<path opacity="0.42" d="M184.531 76.1196H196.551C196.973 76.1196 197.316 75.7757 197.316 75.3789C197.316 75.1672 197.237 74.982 197.105 74.8498L194.1 71.8341C193.81 71.5431 193.335 71.5431 193.045 71.8341L192.07 72.8129L189.592 70.3262C189.302 70.0352 188.828 70.0352 188.538 70.3262L184.03 74.8498C183.74 75.1408 183.74 75.6169 184.03 75.9079C184.162 76.0402 184.347 76.1196 184.531 76.1196Z" fill="white"/>
<path opacity="0.42" d="M194.311 70.0881C195.141 70.0881 195.813 69.413 195.813 68.5802C195.813 67.7475 195.141 67.0724 194.311 67.0724C193.481 67.0724 192.808 67.7475 192.808 68.5802C192.808 69.413 193.481 70.0881 194.311 70.0881Z" fill="white"/>
<path opacity="0.2" d="M206.247 37.4419H109.91C108.889 37.4419 108.067 36.6161 108.067 35.5922V35.2288C108.067 34.2049 108.889 33.3792 109.91 33.3792H206.247C207.268 33.3792 208.09 34.2049 208.09 35.2288V35.5922C208.123 36.6161 207.3 37.4419 206.247 37.4419ZM182.813 45.0058H109.91C108.889 45.0058 108.067 44.1801 108.067 43.1561V42.7928C108.067 41.7688 108.889 40.9431 109.91 40.9431H182.78C183.8 40.9431 184.623 41.7688 184.623 42.7928V43.1561C184.656 44.1801 183.833 45.0058 182.813 45.0058Z" fill="white"/>
<path opacity="0.42" d="M99.2787 37.4419H2.94126C1.92095 37.4419 1.09811 36.6161 1.09811 35.5922V35.2288C1.09811 34.2049 1.92095 33.3792 2.94126 33.3792H99.2787C100.299 33.3792 101.122 34.2049 101.122 35.2288V35.5922C101.155 36.6161 100.332 37.4419 99.2787 37.4419ZM75.8444 45.0058H2.94126C1.92095 45.0058 1.09811 44.1801 1.09811 43.1561V42.7928C1.09811 41.7688 1.92095 40.9431 2.94126 40.9431H75.8115C76.8318 40.9431 77.6547 41.7688 77.6547 42.7928V43.1561C77.6876 44.1801 76.8647 45.0058 75.8444 45.0058Z" fill="white"/>
<path opacity="0.42" d="M23.8023 29.1315H1.14509C0.620148 29.1315 0.196808 28.3071 0.196808 27.2847V26.7571C0.196808 25.7347 0.620148 24.9103 1.14509 24.9103H23.7853C24.3103 24.9103 24.7336 25.7347 24.7336 26.7571V27.2518C24.7506 28.2741 24.3272 29.1315 23.8023 29.1315Z" fill="#D9D9D9"/>
</g>
<defs>
<clipPath id="clip0_395_596">
<rect width="209.48" height="108.86" fill="white"/>
</clipPath>
</defs>
</svg>
