<svg width="210" height="109" viewBox="0 0 210 109" fill="none" xmlns="http://www.w3.org/2000/svg">
<path opacity="0.42" d="M24.5249 42.8127H1.86775C1.3428 42.8127 0.919464 41.9882 0.919464 40.9659V40.4382C0.919464 39.4159 1.3428 38.5914 1.86775 38.5914H24.508C25.0329 38.5914 25.4563 39.4159 25.4563 40.4382V40.9329C25.4732 41.9552 25.0499 42.8127 24.5249 42.8127Z" fill="#D9D9D9"/>
<path opacity="0.2" d="M81.7151 49.9599H2.33452C1.4938 49.9599 0.815796 49.3442 0.815796 48.5808V48.3099C0.815796 47.5464 1.4938 46.9307 2.33452 46.9307H81.7151C82.5558 46.9307 83.2338 47.5464 83.2338 48.3099V48.5808C83.261 49.3442 82.583 49.9599 81.7151 49.9599ZM62.4056 55.5996H2.33452C1.4938 55.5996 0.815796 54.9839 0.815796 54.2205V53.9496C0.815796 53.1861 1.4938 52.5704 2.33452 52.5704H62.3785C63.2192 52.5704 63.8972 53.1861 63.8972 53.9496V54.2205C63.9243 54.9839 63.2463 55.5996 62.4056 55.5996Z" fill="#737373"/>
<path opacity="0.2" d="M81.717 64.6288H2.43628C1.59662 64.6288 0.919464 64.0131 0.919464 63.2497V62.9788C0.919464 62.2153 1.59662 61.5996 2.43628 61.5996H81.717C82.5567 61.5996 83.2338 62.2153 83.2338 62.9788V63.2497C83.2609 64.0131 82.5838 64.6288 81.717 64.6288ZM62.4318 70.2685H2.43628C1.59662 70.2685 0.919464 69.6528 0.919464 68.8894V68.6185C0.919464 67.855 1.59662 67.2393 2.43628 67.2393H62.4047C63.2444 67.2393 63.9215 67.855 63.9215 68.6185V68.8894C63.9486 69.6528 63.2715 70.2685 62.4318 70.2685Z" fill="white"/>
<path opacity="0.2" d="M117.675 52.1148H99.8504C99.2564 52.1148 98.777 51.6354 98.777 51.0415V32.437C98.777 31.8431 99.2564 31.3637 99.8504 31.3637H117.675C118.269 31.3637 118.749 31.8431 118.749 32.437V51.0415C118.749 51.6354 118.269 52.1148 117.675 52.1148Z" fill="white"/>
<path opacity="0.42" d="M103.607 45.7535H113.904C114.262 45.7535 114.548 45.4601 114.548 45.088C114.548 44.9092 114.484 44.7374 114.355 44.6086L111.779 41.9324C111.529 41.6748 111.121 41.6748 110.87 41.9324L110.033 42.8054L107.915 40.6087C107.664 40.3511 107.257 40.3511 107.006 40.6087L103.142 44.6229C102.892 44.8877 102.899 45.3099 103.149 45.5675C103.285 45.6819 103.443 45.7464 103.607 45.7535Z" fill="white"/>
<path opacity="0.42" d="M111.972 40.4012C112.684 40.4012 113.26 39.8021 113.26 39.0631C113.26 38.3241 112.684 37.725 111.972 37.725C111.261 37.725 110.684 38.3241 110.684 39.0631C110.684 39.8021 111.261 40.4012 111.972 40.4012Z" fill="white"/>
<path opacity="0.2" d="M117.675 77.4963H99.8504C99.2564 77.4963 98.777 77.0169 98.777 76.423V57.8186C98.777 57.2247 99.2564 56.7452 99.8504 56.7452H117.675C118.269 56.7452 118.749 57.2247 118.749 57.8186V76.423C118.749 77.0169 118.269 77.4963 117.675 77.4963Z" fill="white"/>
<path opacity="0.42" d="M103.607 71.135H113.904C114.262 71.135 114.548 70.8417 114.548 70.4696C114.548 70.2907 114.484 70.1189 114.355 69.9901L111.779 67.314C111.529 67.0564 111.121 67.0564 110.87 67.314L110.033 68.1869L107.915 65.9902C107.664 65.7326 107.257 65.7326 107.006 65.9902L103.142 70.0045C102.892 70.2692 102.899 70.6914 103.149 70.949C103.285 71.0635 103.443 71.1279 103.607 71.135Z" fill="white"/>
<path opacity="0.42" d="M111.972 65.7827C112.684 65.7827 113.26 65.1837 113.26 64.4447C113.26 63.7056 112.684 63.1066 111.972 63.1066C111.261 63.1066 110.684 63.7056 110.684 64.4447C110.684 65.1837 111.261 65.7827 111.972 65.7827Z" fill="white"/>
<path opacity="0.2" d="M147.647 52.1148H129.822C129.228 52.1148 128.749 51.6354 128.749 51.0415V32.437C128.749 31.8431 129.228 31.3637 129.822 31.3637H147.647C148.241 31.3637 148.721 31.8431 148.721 32.437V51.0415C148.721 51.6354 148.241 52.1148 147.647 52.1148Z" fill="white"/>
<path opacity="0.42" d="M133.579 45.7535H143.876C144.234 45.7535 144.52 45.4601 144.52 45.088C144.52 44.9092 144.456 44.7374 144.327 44.6086L141.751 41.9324C141.5 41.6748 141.093 41.6748 140.842 41.9324L140.005 42.8054L137.887 40.6087C137.636 40.3511 137.228 40.3511 136.978 40.6087L133.114 44.6229C132.863 44.8877 132.871 45.3099 133.121 45.5675C133.257 45.6819 133.414 45.7464 133.579 45.7535Z" fill="white"/>
<path opacity="0.42" d="M141.944 40.4012C142.655 40.4012 143.232 39.8021 143.232 39.0631C143.232 38.3241 142.655 37.725 141.944 37.725C141.233 37.725 140.656 38.3241 140.656 39.0631C140.656 39.8021 141.233 40.4012 141.944 40.4012Z" fill="white"/>
<path opacity="0.2" d="M147.647 77.4963H129.822C129.228 77.4963 128.749 77.0169 128.749 76.423V57.8186C128.749 57.2247 129.228 56.7452 129.822 56.7452H147.647C148.241 56.7452 148.721 57.2247 148.721 57.8186V76.423C148.721 77.0169 148.241 77.4963 147.647 77.4963Z" fill="white"/>
<path opacity="0.42" d="M133.579 71.135H143.876C144.234 71.135 144.52 70.8417 144.52 70.4696C144.52 70.2907 144.456 70.1189 144.327 69.9901L141.751 67.314C141.5 67.0564 141.093 67.0564 140.842 67.314L140.005 68.1869L137.887 65.9902C137.636 65.7326 137.228 65.7326 136.978 65.9902L133.114 70.0045C132.863 70.2692 132.871 70.6914 133.121 70.949C133.257 71.0635 133.414 71.1279 133.579 71.135Z" fill="white"/>
<path opacity="0.42" d="M141.944 65.7827C142.655 65.7827 143.232 65.1837 143.232 64.4447C143.232 63.7056 142.655 63.1066 141.944 63.1066C141.233 63.1066 140.656 63.7056 140.656 64.4447C140.656 65.1837 141.233 65.7827 141.944 65.7827Z" fill="white"/>
<path opacity="0.2" d="M177.619 52.1148H159.794C159.2 52.1148 158.721 51.6354 158.721 51.0415V32.437C158.721 31.8431 159.2 31.3637 159.794 31.3637H177.619C178.213 31.3637 178.692 31.8431 178.692 32.437V51.0415C178.692 51.6354 178.213 52.1148 177.619 52.1148Z" fill="white"/>
<path opacity="0.42" d="M163.551 45.7535H173.848C174.206 45.7535 174.492 45.4601 174.492 45.088C174.492 44.9092 174.428 44.7374 174.299 44.6086L171.723 41.9324C171.472 41.6748 171.064 41.6748 170.814 41.9324L169.977 42.8054L167.859 40.6087C167.608 40.3511 167.2 40.3511 166.95 40.6087L163.086 44.6229C162.835 44.8877 162.842 45.3099 163.093 45.5675C163.229 45.6819 163.386 45.7464 163.551 45.7535Z" fill="white"/>
<path opacity="0.42" d="M171.916 40.4012C172.627 40.4012 173.204 39.8021 173.204 39.0631C173.204 38.3241 172.627 37.725 171.916 37.725C171.205 37.725 170.628 38.3241 170.628 39.0631C170.628 39.8021 171.205 40.4012 171.916 40.4012Z" fill="white"/>
<path opacity="0.2" d="M177.619 77.4963H159.794C159.2 77.4963 158.721 77.0169 158.721 76.423V57.8186C158.721 57.2247 159.2 56.7452 159.794 56.7452H177.619C178.213 56.7452 178.692 57.2247 178.692 57.8186V76.423C178.692 77.0169 178.213 77.4963 177.619 77.4963Z" fill="white"/>
<path opacity="0.42" d="M163.551 71.135H173.848C174.206 71.135 174.492 70.8417 174.492 70.4696C174.492 70.2907 174.428 70.1189 174.299 69.9901L171.723 67.314C171.472 67.0564 171.064 67.0564 170.814 67.314L169.977 68.1869L167.859 65.9902C167.608 65.7326 167.2 65.7326 166.95 65.9902L163.086 70.0045C162.835 70.2692 162.842 70.6914 163.093 70.949C163.229 71.0635 163.386 71.1279 163.551 71.135Z" fill="white"/>
<path opacity="0.42" d="M171.916 65.7827C172.627 65.7827 173.204 65.1837 173.204 64.4447C173.204 63.7056 172.627 63.1066 171.916 63.1066C171.205 63.1066 170.628 63.7056 170.628 64.4447C170.628 65.1837 171.205 65.7827 171.916 65.7827Z" fill="white"/>
<path opacity="0.2" d="M207.591 52.1148H189.766C189.172 52.1148 188.692 51.6354 188.692 51.0415V32.437C188.692 31.8431 189.172 31.3637 189.766 31.3637H207.591C208.185 31.3637 208.664 31.8431 208.664 32.437V51.0415C208.664 51.6354 208.185 52.1148 207.591 52.1148Z" fill="white"/>
<path opacity="0.42" d="M193.523 45.7535H203.82C204.178 45.7535 204.464 45.4601 204.464 45.088C204.464 44.9092 204.399 44.7374 204.271 44.6086L201.694 41.9324C201.444 41.6748 201.036 41.6748 200.786 41.9324L199.948 42.8054L197.83 40.6087C197.58 40.3511 197.172 40.3511 196.922 40.6087L193.057 44.6229C192.807 44.8877 192.814 45.3099 193.065 45.5675C193.201 45.6819 193.358 45.7464 193.523 45.7535Z" fill="white"/>
<path opacity="0.42" d="M201.888 40.4012C202.599 40.4012 203.176 39.8021 203.176 39.0631C203.176 38.3241 202.599 37.725 201.888 37.725C201.176 37.725 200.6 38.3241 200.6 39.0631C200.6 39.8021 201.176 40.4012 201.888 40.4012Z" fill="white"/>
<path opacity="0.2" d="M207.591 77.4963H189.766C189.172 77.4963 188.692 77.0169 188.692 76.423V57.8186C188.692 57.2247 189.172 56.7452 189.766 56.7452H207.591C208.185 56.7452 208.664 57.2247 208.664 57.8186V76.423C208.664 77.0169 208.185 77.4963 207.591 77.4963Z" fill="white"/>
<path opacity="0.42" d="M193.523 71.135H203.82C204.178 71.135 204.464 70.8417 204.464 70.4696C204.464 70.2907 204.399 70.1189 204.271 69.9901L201.694 67.314C201.444 67.0564 201.036 67.0564 200.786 67.314L199.948 68.1869L197.83 65.9902C197.58 65.7326 197.172 65.7326 196.922 65.9902L193.057 70.0045C192.807 70.2692 192.814 70.6914 193.065 70.949C193.201 71.0635 193.358 71.1279 193.523 71.135Z" fill="white"/>
<path opacity="0.42" d="M201.888 65.7827C202.599 65.7827 203.176 65.1837 203.176 64.4447C203.176 63.7056 202.599 63.1066 201.888 63.1066C201.176 63.1066 200.6 63.7056 200.6 64.4447C200.6 65.1837 201.176 65.7827 201.888 65.7827Z" fill="white"/>
</svg>
